<?xml version="1.0" encoding="UTF-8"?>
<svg width="1280px" height="720px" viewBox="0 0 1280 720" version="1.1" xmlns="http://www.w3.org/2000/svg" xmlns:xlink="http://www.w3.org/1999/xlink">
    <!-- Generator: Sketch 52.6 (67491) - http://www.bohemiancoding.com/sketch -->
    <title>a1-welcome-bg</title>
    <desc>Created with Sketch.</desc>
    <defs>
        <polygon id="path-1" points="0 -0.000134023949 1279.9995 -0.000134023949 1279.9995 300 0 300"></polygon>
    </defs>
    <g id="a1-welcome-bg" stroke="none" stroke-width="1" fill="none" fill-rule="evenodd">
        <g id="Group-53">
            <polygon id="Fill-1" fill="#FFFDF7" points="1.0179 0 -0.0001 720 1279.9999 717 1279.9999 0"></polygon>
            <g id="Group-11" transform="translate(0.000000, 420.000000)">
                <g id="Group-4">
                    <mask id="mask-2" fill="white">
                        <use xlink:href="#path-1"></use>
                    </mask>
                    <g id="Clip-3"></g>
                    <path d="M742.1865,29.6563 C694.9595,35.8293 671.3465,38.9163 663.7325,39.4423 C456.6415,53.7623 181.2445,-2.2167 -0.0005,34.3673 L-0.0005,300.0003 L1279.9995,300.0003 L1279.9995,38.3083 C1151.3015,-20.8177 980.7695,-1.5287 742.1865,29.6563" id="Fill-2" fill="#6DC6AB" mask="url(#mask-2)"></path>
                </g>
                <path d="M1199.3164,17.9658 C1185.0974,7.9298 1169.6434,11.5078 1135.9184,14.2648 C1097.5684,17.4008 1156.9264,9.5998 1069.9354,16.7538 C951.9624,26.4548 895.6794,33.6328 895.6794,33.6328 C765.8454,50.1888 763.4004,53.2528 688.1134,61.8008 C602.2634,71.5478 559.3384,76.4218 505.8084,78.2258 C376.3974,82.5858 346.0694,75.2128 243.1234,77.0698 C189.2574,78.0428 97.9734,74.0088 0.0004,99.9998 L0.0004,139.9998 C72.5654,90.0798 387.5684,115.4448 495.2164,114.0278 C576.0764,112.9628 662.5894,96.8448 776.6114,80.8318 C945.6044,57.0988 931.3394,56.2788 1029.2974,67.6328 C1102.5424,76.1218 1152.6464,76.0888 1162.7854,55.5348 C1167.6404,45.6918 1211.2984,26.4238 1199.3164,17.9658" id="Fill-5" fill="#EAEAEA"></path>
                <path d="M943.5,211 C943.5,238.062 842.764,260 718.5,260 C594.236,260 493.5,238.062 493.5,211 C493.5,183.938 594.236,162 718.5,162 C842.764,162 943.5,183.938 943.5,211" id="Fill-7" fill="#EBFFF8"></path>
                <path d="M606.5,194 C606.5,221.062 505.764,243 381.5,243 C257.236,243 156.5,221.062 156.5,194 C156.5,166.938 257.236,145 381.5,145 C505.764,145 606.5,166.938 606.5,194" id="Fill-9" fill="#EBFFF8"></path>
            </g>
            <g id="Group-52" transform="translate(14.000000, 285.000000)">
                <path d="M57.4707,109.3438 C52.7417,102.9878 45.6827,95.5528 45.9937,87.1648 C46.1757,82.3188 47.7217,77.4478 47.6347,72.6778 C47.5397,67.8118 44.3797,63.3498 43.9507,58.4188 C43.5277,53.5358 44.5107,45.9978 47.0487,41.5388 C49.5877,37.0768 55.0517,34.9128 58.5757,31.1738 C65.6187,23.7058 69.1037,12.6808 77.2447,7.3218 C86.0727,1.5148 91.4257,-3.1472 98.3167,6.2298 C104.4067,14.5098 113.2217,20.2008 120.4657,27.3898 C128.7157,35.5778 129.7897,40.9088 130.9427,51.5868 C132.7717,68.6368 141.7857,90.6488 124.8247,103.1508 C116.3527,109.3998 107.1207,114.9148 98.1477,120.4168 C94.5977,122.5898 92.6117,125.0418 88.4767,125.1218 C84.7597,125.1978 80.3407,123.6358 76.8607,122.4528 C69.4087,119.9128 62.2357,115.7468 57.4707,109.3438" id="Fill-12" fill="#B5D783"></path>
                <path d="M94.0615,84.9277 C93.9935,93.7567 94.1745,105.6217 94.1925,114.3767 C94.2075,122.7237 95.1245,131.4587 95.6605,139.7207 C95.9195,143.6977 96.5295,147.6037 96.7905,151.5727 C97.0075,154.9997 96.8345,158.4307 97.8515,161.5377 C98.8645,164.6297 100.4155,167.3637 101.4165,170.4917 C101.4925,170.7427 96.3945,168.8267 92.0375,169.3667 C90.0825,169.6087 82.1595,170.1837 82.1595,170.1837 C82.1595,170.1837 85.0525,161.3897 85.7385,159.0367 C86.9085,155.0077 87.6425,150.9707 87.7645,146.5137 C88.0275,136.9067 88.7915,128.7707 88.9365,119.1677 C89.0185,113.5697 89.3985,107.1127 89.4475,101.5147 C89.4965,96.3617 89.7705,90.9207 89.7705,90.9207 C89.7705,90.9207 92.1915,86.5087 94.0615,84.9277" id="Fill-14" fill="#B27B5F"></path>
                <path d="M71.3086,105.9648 C71.3086,105.9648 74.2156,110.6398 74.4936,111.0268 C75.6916,112.6938 77.0666,114.2388 78.0946,116.0238 C79.0256,117.6398 79.6866,119.3438 81.0376,120.6808 C83.7826,123.3948 85.7386,125.7538 87.7006,129.1928 C88.6216,130.8088 89.1796,132.9498 90.5496,134.2708 C91.6776,135.3588 94.1836,135.5648 93.8676,133.2868 C93.3676,129.6798 90.3076,126.7768 88.1216,123.9378 C85.5966,120.6578 82.3886,117.7408 80.1066,114.2988 C78.5966,112.0248 76.6356,110.1038 74.7336,108.1698 C74.3376,107.7638 71.3086,105.9648 71.3086,105.9648" id="Fill-16" fill="#B27B5F"></path>
                <path d="M108.3223,92.4609 C107.2713,94.8839 106.2063,97.3059 105.0833,99.7059 C103.3383,103.4369 100.0463,106.2279 98.3763,109.9489 C97.3853,112.1509 94.9883,118.0979 92.2953,118.8209 C90.4533,119.3169 89.4263,118.5769 89.9203,116.6769 C90.8363,113.1479 94.1043,110.1259 96.0503,106.9819 C97.9893,103.8489 100.7213,101.3989 102.7963,98.4239 C104.5483,95.9129 105.5183,94.2509 108.3223,92.4609" id="Fill-18" fill="#B27B5F"></path>
                <path d="M120.7764,159.2393 C118.8094,156.5963 115.8754,153.5063 116.0044,150.0173 C116.0804,148.0033 116.7224,145.9773 116.6864,143.9943 C116.6474,141.9703 115.3334,140.1153 115.1554,138.0653 C114.9784,136.0353 115.3874,132.9003 116.4424,131.0473 C117.4994,129.1913 119.7704,128.2923 121.2354,126.7373 C124.1644,123.6323 125.6134,119.0483 128.9984,116.8193 C132.6684,114.4053 134.8944,112.4673 137.7594,116.3653 C140.2924,119.8083 143.9574,122.1753 146.9684,125.1643 C150.3994,128.5683 150.8454,130.7853 151.3254,135.2243 C152.0864,142.3143 155.8344,151.4673 148.7814,156.6653 C145.2584,159.2623 141.4214,161.5563 137.6894,163.8433 C136.2144,164.7473 135.3874,165.7663 133.6684,165.8003 C132.1234,165.8313 130.2854,165.1813 128.8384,164.6903 C125.7404,163.6353 122.7564,161.9023 120.7764,159.2393" id="Fill-20" fill="#B5D783"></path>
                <path d="M135.9902,149.0879 C135.9622,152.7589 136.0382,157.6919 136.0452,161.3329 C136.0522,164.8029 136.4322,168.4349 136.6552,171.8699 C136.7632,173.5239 137.0162,175.1479 137.1252,176.7979 C137.2162,178.2239 137.1432,179.6499 137.5662,180.9419 C137.9872,182.2279 138.6332,183.3639 139.0492,184.6649 C139.0802,184.7699 136.9602,183.9729 135.1492,184.1969 C134.3362,184.2979 131.0422,184.5369 131.0422,184.5369 C131.0422,184.5369 132.2442,180.8799 132.5292,179.9019 C133.0152,178.2269 133.3212,176.5479 133.3722,174.6949 C133.4812,170.6999 133.7992,167.3169 133.8592,163.3239 C133.8932,160.9969 134.0522,158.3119 134.0722,155.9839 C134.0932,153.8419 134.2062,151.5789 134.2062,151.5789 C134.2062,151.5789 135.2132,149.7449 135.9902,149.0879" id="Fill-22" fill="#B27B5F"></path>
                <path d="M126.5303,157.835 C126.5303,157.835 127.7383,159.778 127.8543,159.939 C128.3523,160.633 128.9243,161.275 129.3513,162.018 C129.7383,162.689 130.0133,163.397 130.5753,163.953 C131.7173,165.082 132.5293,166.063 133.3453,167.493 C133.7283,168.165 133.9613,169.056 134.5303,169.605 C134.9993,170.057 136.0413,170.143 135.9093,169.195 C135.7013,167.695 134.4293,166.488 133.5203,165.308 C132.4703,163.944 131.1363,162.731 130.1873,161.3 C129.5603,160.355 128.7453,159.556 127.9543,158.752 C127.7893,158.583 126.5303,157.835 126.5303,157.835" id="Fill-24" fill="#B27B5F"></path>
                <path d="M141.9199,152.2197 C141.4829,153.2277 141.0399,154.2347 140.5729,155.2327 C139.8479,156.7827 138.4789,157.9447 137.7839,159.4907 C137.3729,160.4077 136.3759,162.8797 135.2559,163.1807 C134.4899,163.3867 134.0639,163.0787 134.2689,162.2887 C134.6489,160.8217 136.0089,159.5657 136.8169,158.2577 C137.6239,156.9547 138.7599,155.9367 139.6219,154.6987 C140.3509,153.6557 140.7549,152.9647 141.9199,152.2197" id="Fill-26" fill="#B27B5F"></path>
                <path d="M8.2764,150.9063 C5.6704,147.4023 1.7784,143.3033 1.9504,138.6793 C2.0494,136.0083 2.9024,133.3233 2.8544,130.6933 C2.8014,128.0103 1.0594,125.5513 0.8234,122.8333 C0.5894,120.1403 1.1314,115.9853 2.5314,113.5273 C3.9304,111.0673 6.9434,109.8753 8.8854,107.8133 C12.7684,103.6963 14.6894,97.6183 19.1774,94.6643 C24.0444,91.4633 26.9954,88.8923 30.7944,94.0613 C34.1514,98.6273 39.0104,101.7633 43.0044,105.7263 C47.5514,110.2413 48.1444,113.1793 48.7794,119.0663 C49.7884,128.4653 54.7574,140.5993 45.4074,147.4923 C40.7364,150.9363 35.6474,153.9773 30.7004,157.0103 C28.7444,158.2083 27.6484,159.5593 25.3694,159.6043 C23.3204,159.6453 20.8834,158.7843 18.9654,158.1333 C14.8584,156.7323 10.9034,154.4363 8.2764,150.9063" id="Fill-28" fill="#B5D783"></path>
                <path d="M28.4482,137.4463 C28.4102,142.3133 28.5102,148.8543 28.5202,153.6803 C28.5292,158.2823 29.0342,163.0973 29.3292,167.6523 C29.4722,169.8433 29.8082,171.9983 29.9522,174.1853 C30.0722,176.0753 29.9772,177.9673 30.5372,179.6783 C31.0952,181.3843 31.9512,182.8903 32.5032,184.6153 C32.5452,184.7543 29.7342,183.6973 27.3322,183.9953 C26.2552,184.1293 21.8862,184.4453 21.8862,184.4453 C21.8862,184.4453 23.4812,179.5973 23.8592,178.3003 C24.5052,176.0793 24.9092,173.8533 24.9772,171.3973 C25.1222,166.1013 25.5432,161.6153 25.6232,156.3213 C25.6682,153.2353 25.8782,149.6753 25.9042,146.5903 C25.9312,143.7493 26.0832,140.7503 26.0832,140.7503 C26.0832,140.7503 27.4172,138.3173 28.4482,137.4463" id="Fill-30" fill="#B27B5F"></path>
                <path d="M15.9053,149.043 C15.9053,149.043 17.5083,151.62 17.6613,151.834 C18.3213,152.753 19.0793,153.605 19.6463,154.589 C20.1593,155.48 20.5233,156.419 21.2673,157.155 C22.7813,158.651 23.8593,159.952 24.9413,161.849 C25.4493,162.739 25.7573,163.92 26.5113,164.647 C27.1343,165.247 28.5153,165.36 28.3413,164.106 C28.0653,162.117 26.3793,160.517 25.1743,158.951 C23.7813,157.144 22.0123,155.535 20.7553,153.638 C19.9233,152.384 18.8423,151.325 17.7933,150.259 C17.5753,150.035 15.9053,149.043 15.9053,149.043" id="Fill-32" fill="#B27B5F"></path>
                <path d="M36.3096,141.5986 C35.7306,142.9346 35.1436,144.2696 34.5246,145.5926 C33.5616,147.6496 31.7476,149.1886 30.8276,151.2406 C30.2816,152.4536 28.9586,155.7316 27.4746,156.1306 C26.4586,156.4046 25.8926,155.9956 26.1646,154.9486 C26.6696,153.0026 28.4716,151.3366 29.5436,149.6046 C30.6136,147.8766 32.1206,146.5266 33.2626,144.8856 C34.2296,143.5016 34.7646,142.5856 36.3096,141.5986" id="Fill-34" fill="#B27B5F"></path>
                <path d="M796.3311,138.4531 C794.4801,135.9651 791.7171,133.0551 791.8391,129.7711 C791.9101,127.8741 792.5161,125.9681 792.4811,124.1001 C792.4441,122.1961 791.2071,120.4491 791.0391,118.5191 C790.8741,116.6081 791.2591,113.6571 792.2521,111.9121 C793.2461,110.1661 795.3851,109.3191 796.7641,107.8551 C799.5211,104.9321 800.8851,100.6161 804.0711,98.5181 C807.5261,96.2461 809.6221,94.4211 812.3191,98.0911 C814.7031,101.3321 818.1541,103.5591 820.9891,106.3741 C824.2191,109.5791 824.6391,111.6661 825.0901,115.8461 C825.8071,122.5191 829.3351,131.1351 822.6951,136.0281 C819.3791,138.4741 815.7661,140.6341 812.2531,142.7871 C810.8641,143.6381 810.0871,144.5981 808.4681,144.6291 C807.0141,144.6581 805.2831,144.0471 803.9211,143.5841 C801.0051,142.5901 798.1961,140.9601 796.3311,138.4531" id="Fill-36" fill="#B5D783"></path>
                <path d="M810.6543,128.8955 C810.6273,132.3515 810.6983,136.9965 810.7053,140.4225 C810.7123,143.6905 811.0703,147.1095 811.2793,150.3435 C811.3823,151.8995 811.6203,153.4285 811.7213,154.9825 C811.8073,156.3245 811.7403,157.6665 812.1373,158.8825 C812.5343,160.0935 813.1413,161.1645 813.5333,162.3885 C813.5623,162.4865 811.5673,161.7365 809.8623,161.9485 C809.0963,162.0415 805.9953,162.2675 805.9953,162.2675 C805.9953,162.2675 807.1283,158.8255 807.3963,157.9045 C807.8533,156.3275 808.1413,154.7475 808.1893,153.0025 C808.2923,149.2425 808.5913,146.0565 808.6483,142.2975 C808.6803,140.1065 808.8293,137.5795 808.8473,135.3885 C808.8673,133.3715 808.9743,131.2415 808.9743,131.2415 C808.9743,131.2415 809.9223,129.5145 810.6543,128.8955" id="Fill-38" fill="#B27B5F"></path>
                <path d="M801.748,137.1299 C801.748,137.1299 802.886,138.9599 802.995,139.1119 C803.464,139.7649 804.002,140.3689 804.404,141.0679 C804.769,141.6999 805.027,142.3669 805.556,142.8909 C806.631,143.9529 807.396,144.8759 808.164,146.2229 C808.524,146.8559 808.743,147.6929 809.279,148.2099 C809.721,148.6359 810.702,148.7169 810.578,147.8249 C810.382,146.4129 809.185,145.2769 808.329,144.1649 C807.341,142.8819 806.085,141.7399 805.191,140.3929 C804.601,139.5019 803.833,138.7499 803.089,137.9929 C802.934,137.8339 801.748,137.1299 801.748,137.1299" id="Fill-40" fill="#B27B5F"></path>
                <path d="M816.2363,131.8447 C815.8253,132.7927 815.4083,133.7407 814.9683,134.6807 C814.2853,136.1407 812.9973,137.2337 812.3423,138.6907 C811.9553,139.5517 811.0163,141.8787 809.9633,142.1627 C809.2413,142.3567 808.8403,142.0677 809.0333,141.3237 C809.3913,139.9417 810.6713,138.7587 811.4323,137.5287 C812.1913,136.3017 813.2603,135.3427 814.0733,134.1787 C814.7583,133.1967 815.1383,132.5457 816.2363,131.8447" id="Fill-42" fill="#B27B5F"></path>
                <path d="M835.1406,120.8311 C832.3136,117.0321 828.0936,112.5881 828.2806,107.5731 C828.3886,104.6771 829.3136,101.7661 829.2606,98.9141 C829.2036,96.0051 827.3156,93.3381 827.0586,90.3911 C826.8056,87.4721 827.3936,82.9661 828.9106,80.3001 C830.4286,77.6331 833.6946,76.3401 835.8016,74.1041 C840.0116,69.6411 842.0936,63.0501 846.9606,59.8471 C852.2376,56.3751 855.4376,53.5891 859.5566,59.1931 C863.1976,64.1431 868.4666,67.5451 872.7966,71.8421 C877.7286,76.7371 878.3696,79.9241 879.0586,86.3071 C880.1526,96.4981 885.5406,109.6561 875.4026,117.1291 C870.3376,120.8641 864.8196,124.1611 859.4546,127.4501 C857.3336,128.7491 856.1466,130.2151 853.6746,130.2631 C851.4526,130.3081 848.8116,129.3741 846.7306,128.6681 C842.2776,127.1491 837.9886,124.6591 835.1406,120.8311" id="Fill-44" fill="#B5D783"></path>
                <path d="M857.0127,106.2363 C856.9727,111.5133 857.0807,118.6063 857.0917,123.8403 C857.1007,128.8293 857.6487,134.0503 857.9687,138.9893 C858.1237,141.3663 858.4887,143.7013 858.6447,146.0733 C858.7747,148.1233 858.6707,150.1743 859.2787,152.0303 C859.8837,153.8793 860.8117,155.5133 861.4097,157.3833 C861.4547,157.5333 858.4077,156.3873 855.8037,156.7113 C854.6347,156.8553 849.8987,157.1993 849.8987,157.1993 C849.8987,157.1993 851.6277,151.9423 852.0377,150.5363 C852.7377,148.1273 853.1757,145.7143 853.2487,143.0493 C853.4067,137.3073 853.8637,132.4433 853.9497,126.7033 C853.9987,123.3573 854.2257,119.4973 854.2547,116.1513 C854.2837,113.0713 854.4487,109.8183 854.4487,109.8183 C854.4487,109.8183 855.8957,107.1813 857.0127,106.2363" id="Fill-46" fill="#B27B5F"></path>
                <path d="M843.4121,118.8115 C843.4121,118.8115 845.1501,121.6055 845.3161,121.8375 C846.0321,122.8335 846.8541,123.7575 847.4691,124.8245 C848.0251,125.7905 848.4201,126.8085 849.2271,127.6085 C850.8691,129.2295 852.0381,130.6405 853.2111,132.6965 C853.7621,133.6625 854.0951,134.9425 854.9141,135.7315 C855.5881,136.3815 857.0861,136.5045 856.8961,135.1435 C856.5981,132.9875 854.7691,131.2525 853.4631,129.5545 C851.9531,127.5945 850.0351,125.8505 848.6711,123.7925 C847.7681,122.4335 846.5971,121.2855 845.4591,120.1295 C845.2241,119.8865 843.4121,118.8115 843.4121,118.8115" id="Fill-48" fill="#B27B5F"></path>
                <path d="M865.5381,110.7393 C864.9091,112.1873 864.2721,113.6353 863.6011,115.0703 C862.5591,117.3003 860.5911,118.9683 859.5921,121.1933 C859.0011,122.5103 857.5671,126.0633 855.9571,126.4973 C854.8561,126.7933 854.2421,126.3503 854.5371,125.2153 C855.0851,123.1053 857.0391,121.2993 858.2021,119.4203 C859.3611,117.5473 860.9941,116.0823 862.2341,114.3033 C863.2821,112.8023 863.8621,111.8093 865.5381,110.7393" id="Fill-50" fill="#B27B5F"></path>
            </g>
        </g>
    </g>
</svg>