<?xml version="1.0" encoding="UTF-8"?>
<svg width="180px" height="92px" viewBox="0 0 180 92" version="1.1" xmlns="http://www.w3.org/2000/svg" xmlns:xlink="http://www.w3.org/1999/xlink">
    <!-- Generator: Sketch 52.6 (67491) - http://www.bohemiancoding.com/sketch -->
    <title>bicycle</title>
    <desc>Created with Sketch.</desc>
    <defs>
        <polygon id="path-1" points="0.663 0.090786196 14.381669 0.090786196 14.381669 7 0.663 7"></polygon>
    </defs>
    <g id="bicycle" stroke="none" stroke-width="1" fill="none" fill-rule="evenodd">
        <g id="Group-30">
            <path d="M17.1163,82.6115 C10.1953,82.6115 4.5643,76.9105 4.5643,69.9045 C4.5643,62.8975 10.1953,57.1975 17.1163,57.1975 C24.0383,57.1975 29.6693,62.8975 29.6693,69.9045 C29.6693,76.9105 24.0383,82.6115 17.1163,82.6115 M17.1163,52.5775 C7.6633,52.5775 0.0003,60.3355 0.0003,69.9045 C0.0003,79.4735 7.6633,87.2315 17.1163,87.2315 C26.5703,87.2315 34.2333,79.4735 34.2333,69.9045 C34.2343,60.3355 26.5703,52.5775 17.1163,52.5775" id="Fill-1" fill="#9EA7AF"></path>
            <path d="M72.8829,82.6115 C65.9619,82.6115 60.3309,76.9105 60.3309,69.9045 C60.3309,62.8975 65.9619,57.1975 72.8829,57.1975 C79.8049,57.1975 85.4359,62.8975 85.4359,69.9045 C85.4359,76.9105 79.8049,82.6115 72.8829,82.6115 M72.8829,52.5775 C63.4299,52.5775 55.7659,60.3355 55.7659,69.9045 C55.7659,79.4735 63.4299,87.2315 72.8829,87.2315 C82.3369,87.2315 89.9999,79.4735 89.9999,69.9045 C89.9999,60.3355 82.3369,52.5775 72.8829,52.5775" id="Fill-3" fill="#9EA7AF"></path>
            <path d="M34.2687,71.4377 C34.2687,71.0867 34.4537,70.7657 34.7277,70.6387 C34.8017,70.6047 34.8477,70.5167 34.8407,70.4207 L34.6957,68.2967 L20.0267,68.2967 L32.5037,52.5887 C32.4827,52.5727 32.4617,52.5537 32.4437,52.5317 L30.6197,50.3237 L16.3187,68.3267 C15.8487,68.9167 15.7077,69.7097 15.9497,70.3977 C16.1907,71.0837 16.7617,71.5107 17.4387,71.5107 L34.2687,71.5107 L34.2687,71.4377 Z" id="Fill-5" fill="#FDE14C"></path>
            <path d="M78.8566,42.2961 C78.8566,38.9261 76.5896,36.1841 73.8046,36.1841 L59.4326,17.5351 C59.6406,17.9941 55.8666,18.0081 55.8666,18.5671 C55.8666,19.1791 69.8686,36.3871 69.6226,36.8751 L73.8046,39.3991 C75.1266,39.3991 76.2006,40.6981 76.2006,42.2961 C76.2006,43.8941 75.1266,45.1931 73.8046,45.1931 L38.8956,45.1931 C38.8866,45.2911 38.8536,45.3821 38.7946,45.4521 L38.2706,46.0871 C38.2356,46.1301 38.2166,46.1891 38.2186,46.2481 C38.2206,46.3081 38.2446,46.3641 38.2816,46.4021 C38.8316,46.9641 39.1906,47.6951 39.4256,48.4081 L60.8996,48.4081 L47.3096,65.5181 C48.1206,65.9991 48.8146,66.7251 49.3296,67.6131 L64.5846,48.4081 L65.4206,48.4081 L72.9596,70.5171 C73.1696,71.1381 73.6656,71.5121 74.1876,71.5121 C74.3566,71.5121 74.5286,71.4731 74.6936,71.3901 C75.2066,71.1341 75.5156,70.5341 75.5156,69.9031 C75.5156,69.6991 75.4836,69.4911 75.4156,69.2911 L68.2946,48.4081 L73.8046,48.4081 C76.5896,48.4081 78.8566,45.6661 78.8566,42.2961" id="Fill-7" fill="#FDE14C"></path>
            <path d="M50.6661,61.4328 C47.9011,61.4328 45.5381,63.1638 44.5711,65.6138 L44.5711,67.1518 C44.5711,67.2698 44.6661,67.3668 44.7831,67.3668 L49.1511,67.3668 C49.6181,67.3668 49.9981,67.7498 49.9981,68.2238 L49.9981,70.9318 C49.9981,71.4048 49.6181,71.7888 49.1511,71.7888 L45.2241,71.7888 C46.4031,73.5568 48.4001,74.7188 50.6661,74.7188 C54.2911,74.7188 57.2281,71.7458 57.2281,68.0768 C57.2281,64.4078 54.2911,61.4328 50.6661,61.4328" id="Fill-9" fill="#9EA7AF"></path>
            <path d="M50.7013,70.9319 C50.7013,71.5219 50.0103,72.0029 49.1663,72.0029 L34.0303,72.0029 C33.1853,72.0029 32.4953,71.5219 32.4953,70.9319 L32.4953,68.2239 C32.4953,67.6339 33.1853,67.1519 34.0303,67.1519 L49.1663,67.1519 C50.0103,67.1519 50.7013,67.6339 50.7013,68.2239 L50.7013,70.9319 Z" id="Fill-11" fill="#FDE14C"></path>
            <path d="M36.4952,21.7805 L42.2972,21.7805 L41.3142,14.7435 C42.8802,15.6985 44.4182,16.1605 45.1412,15.9715 C46.9512,15.4995 47.1172,8.7945 45.7172,6.1505 C44.3152,3.5085 37.1132,2.3555 36.7512,7.5925 C36.6252,9.4105 37.3792,11.0325 38.4922,12.3565 L36.4952,21.7805 Z" id="Fill-13" fill="#B28B67"></path>
            <path d="M34.2208,5.8498 C33.6028,5.8818 32.8488,6.1608 32.5258,6.7828 C32.1048,7.5888 32.7058,8.5048 33.3618,8.8798 C32.1678,9.9478 34.3268,11.4078 35.2168,11.4668 C35.0538,12.1148 35.8008,12.3368 36.2118,12.5108 C35.9538,12.8348 35.8728,13.3408 36.1818,13.6618 C36.5238,14.0148 37.1248,14.0358 37.5108,13.7648 C37.6068,13.6968 37.6248,13.6088 37.6998,13.5298 C37.7618,13.4658 37.8528,13.4628 37.9298,13.4368 C38.1388,13.3668 38.2698,13.1358 38.3638,12.9328 C38.5528,12.5208 38.6288,12.0318 38.9448,11.6998 C38.5398,11.5218 38.0548,11.3628 37.7858,10.9498 C37.3238,10.2368 37.8328,9.2458 38.5568,9.0588 C39.2118,8.8898 39.9508,9.2528 40.3688,9.8048 C40.5088,9.4148 40.7088,9.0458 40.9788,8.7468 C41.1428,8.5668 41.4348,8.3048 41.0518,8.2018 C40.2038,7.9708 39.3218,7.8908 38.4658,7.6948 C39.3498,7.6938 40.2348,7.7868 41.1168,7.7038 C41.3928,7.6768 41.6728,7.6328 41.8078,7.3338 C41.9728,6.9668 42.0868,6.5178 42.1058,6.1098 C42.4038,6.2158 42.6938,6.3748 43.0148,6.3668 C43.1358,6.3638 43.2548,6.3288 43.3768,6.3288 C43.5158,6.3278 43.6008,6.3828 43.7028,6.4808 C44.1058,6.8598 44.5968,7.1088 45.1168,7.2288 C45.4088,7.2948 45.7438,7.3688 46.0428,7.3478 C46.0878,7.3438 46.1228,7.3168 46.1568,7.3088 C46.2168,7.2948 46.3278,7.3258 46.4058,7.3288 C46.6168,7.3388 46.8418,7.3048 47.0098,7.1518 C47.3898,6.8048 47.2748,6.2228 46.8368,6.0258 C47.2108,5.7438 47.5588,5.4128 47.8498,5.0318 C47.9898,4.8478 48.1258,4.6558 48.2298,4.4458 C48.2888,4.3258 48.3668,4.1638 48.3328,4.0218 C48.2308,3.5948 47.4138,3.8558 47.1788,3.9728 C47.1648,3.8618 47.1438,3.8028 47.1618,3.6928 C47.1778,3.5998 47.1868,3.5078 47.1538,3.4188 C47.1008,3.2728 46.9688,3.1868 46.8428,3.1278 C46.6808,3.0518 46.5048,3.0208 46.3288,3.0138 C46.2408,3.0098 46.0338,3.0708 45.9888,2.9638 C45.9518,2.8788 46.0028,2.7198 46.0188,2.6348 C46.0488,2.4758 46.0668,2.3188 46.0798,2.1568 C46.0988,1.9428 46.1148,1.7278 46.1288,1.5138 C46.1398,1.3578 46.1648,1.1918 46.1318,1.0378 C46.0428,0.6248 45.6138,0.6078 45.3028,0.6808 C45.0898,0.7308 44.8918,0.8258 44.7078,0.9528 C44.5778,1.0428 44.4548,1.1458 44.3258,1.2388 C44.2408,1.2998 44.1738,1.3838 44.0788,1.3208 C43.8578,1.1718 43.7428,0.8328 43.5818,0.6198 C43.4018,0.3798 43.1428,0.2058 42.8768,0.1038 C42.2988,-0.1192 41.6458,0.0338 41.1468,0.4048 C41.0338,0.4888 40.9278,0.5828 40.8328,0.6908 C40.7518,0.7828 40.6908,0.8548 40.5668,0.8258 C40.4548,0.7988 40.3568,0.7208 40.2618,0.6558 C40.1488,0.5788 40.0308,0.5088 39.9108,0.4438 C39.4338,0.1828 38.9078,0.0558 38.3738,0.1308 C37.8548,0.2038 37.3988,0.4768 37.1128,0.9638 C36.8148,1.4698 36.7148,2.0908 36.7038,2.6838 C36.4398,2.5718 36.2038,2.3908 35.9318,2.2998 C35.6568,2.2078 35.3618,2.1668 35.0748,2.1898 C34.6438,2.2228 34.1768,2.3768 33.8668,2.7198 C33.4778,3.1478 33.4798,3.7808 33.6008,4.3298 C33.6618,4.6068 33.7508,4.8728 33.8428,5.1378 C33.9318,5.3928 34.0338,5.6618 34.2208,5.8498" id="Fill-15" fill="#191847"></path>
            <path d="M58.5275,61.0529 C57.9625,62.7079 57.3485,64.5679 56.7295,66.5269 C55.2275,71.2699 53.3705,81.8309 52.9425,84.9069 C52.6735,86.8389 55.3115,87.0149 55.8805,85.5619 C56.4485,84.1099 66.2375,61.3039 67.3535,56.2489 C67.7265,54.5599 64.7985,52.3079 62.5945,53.0529 C61.5765,51.3099 59.2315,49.9099 57.2565,51.9659" id="Fill-17" fill="#B28B67"></path>
            <g id="Group-21" transform="translate(51.000000, 83.000000)">
                <mask id="mask-2" fill="white">
                    <use xlink:href="#path-1"></use>
                </mask>
                <g id="Clip-20"></g>
                <path d="M1.632,0.5315 C1.793,0.3155 2.096,0.2735 2.309,0.4365 C2.863,0.8625 3.317,1.1145 3.667,1.1935 C4.098,1.2905 4.695,1.2535 5.456,1.0825 L6.068,0.1955 C6.069,0.1935 6.07,0.1915 6.072,0.1895 C6.152,0.0815 6.303,0.0585 6.41,0.1385 L11.985,4.3225 C12.461,4.5085 13.062,4.7305 13.786,4.9905 C14.512,5.2505 14.574,5.9205 13.974,7.0005 C5.594,5.1155 1.156,4.1175 0.663,4.0065 C0.702,3.1475 0.77,2.5035 0.864,2.0725 C0.943,1.7185 1.192,1.2145 1.611,0.5595 C1.618,0.5505 1.625,0.5405 1.632,0.5315" id="Fill-19" fill="#5B7377" mask="url(#mask-2)"></path>
            </g>
            <path d="M65.5558,53.1252 C60.2568,50.8372 46.0388,44.4502 43.2528,43.4992 L29.2388,40.3472 C27.6388,48.7672 29.5748,53.9412 36.6498,55.5322 C41.5558,56.6362 58.3258,58.4482 58.6878,58.7542 C58.9288,58.9582 57.1308,65.5602 53.2938,78.5592 L59.7008,79.9942 C60.0098,78.5982 66.2378,64.4622 67.6298,58.1152 C68.0138,56.3662 67.8248,54.1042 65.5558,53.1252" id="Fill-22" fill="#5B7377"></path>
            <path d="M60.6388,34.5168 C62.2308,33.3538 63.7108,32.5798 65.0798,32.1928 C67.6998,31.4538 68.7588,30.8888 70.0378,29.2388 C70.7228,28.3558 71.3038,26.5798 70.6528,26.0018 C70.2118,25.6118 67.6558,27.5368 66.6078,27.7538 C65.5608,27.9728 66.5228,25.4548 65.9698,25.7148 C65.2508,25.7278 64.6318,26.7308 64.1158,28.7228 L60.4288,30.7728 L60.6388,34.5168 Z M50.3858,30.2138 L56.4828,24.5628 C59.6958,23.6658 61.1638,23.0108 60.8898,22.5958 C60.4788,21.9728 59.6178,22.4958 59.2738,22.1218 C58.9288,21.7468 59.5868,20.4378 60.2638,19.2218 C60.9408,18.0048 60.2168,18.1118 59.8028,18.2868 C58.4488,19.2138 57.0738,20.5168 55.6778,22.1948 L47.2868,26.8468 L50.3858,30.2138 Z" id="Fill-24" fill="#997659"></path>
            <path d="M45.3956,31.3488 C48.9426,31.4508 52.9986,29.0698 55.8826,26.1708 L54.2416,22.4628 C50.0586,25.1508 46.1396,25.7798 43.2006,25.8108 C41.1716,27.8478 42.6006,31.2698 45.3956,31.3488" id="Fill-26" fill="#C8E9F1"></path>
            <path d="M43.3956,16.3967 L36.6876,16.3967 C35.9526,16.3967 30.9536,26.0987 30.9486,32.4017 C30.9436,38.1567 25.6536,41.8127 28.3896,50.8077 C32.7586,49.9367 45.7526,54.3607 47.9726,49.5847 C49.0516,47.2597 49.3736,44.7167 49.2316,42.0447 C53.6806,41.9467 59.0816,40.4607 65.3816,37.1297 C65.5196,35.5047 64.6776,32.7847 62.8556,28.9697 C55.5106,31.6157 50.2786,32.5437 47.1576,31.7557 C45.6286,26.5157 43.7656,21.2097 43.3956,16.3967" id="Fill-28" fill="#C8E9F1"></path>
        </g>
        <g id="Group-29" transform="translate(90.000000, 0.000000)">
            <path d="M17.1163,82.6116 C10.1953,82.6116 4.5643,76.9106 4.5643,69.9046 C4.5643,62.8976 10.1953,57.1976 17.1163,57.1976 C24.0383,57.1976 29.6693,62.8976 29.6693,69.9046 C29.6693,76.9106 24.0383,82.6116 17.1163,82.6116 M17.1163,52.5776 C7.6633,52.5776 0.0003,60.3356 0.0003,69.9046 C0.0003,79.4736 7.6633,87.2316 17.1163,87.2316 C26.5703,87.2316 34.2333,79.4736 34.2333,69.9046 C34.2343,60.3356 26.5703,52.5776 17.1163,52.5776" id="Fill-1" fill="#9EA7AF"></path>
            <path d="M72.8829,82.6116 C65.9619,82.6116 60.3309,76.9106 60.3309,69.9046 C60.3309,62.8976 65.9619,57.1976 72.8829,57.1976 C79.8049,57.1976 85.4359,62.8976 85.4359,69.9046 C85.4359,76.9106 79.8049,82.6116 72.8829,82.6116 M72.8829,52.5776 C63.4299,52.5776 55.7659,60.3356 55.7659,69.9046 C55.7659,79.4736 63.4299,87.2316 72.8829,87.2316 C82.3369,87.2316 89.9999,79.4736 89.9999,69.9046 C89.9999,60.3356 82.3369,52.5776 72.8829,52.5776" id="Fill-3" fill="#9EA7AF"></path>
            <path d="M34.2687,71.4377 C34.2687,71.0867 34.4537,70.7657 34.7277,70.6387 C34.8017,70.6047 34.8477,70.5167 34.8407,70.4207 L34.6957,68.2967 L20.0267,68.2967 L32.5037,52.5887 C32.4827,52.5727 32.4617,52.5537 32.4437,52.5317 L30.6197,50.3237 L16.3187,68.3267 C15.8487,68.9167 15.7077,69.7097 15.9497,70.3977 C16.1907,71.0837 16.7617,71.5107 17.4387,71.5107 L34.2687,71.5107 L34.2687,71.4377 Z" id="Fill-5" fill="#FDE14C"></path>
            <path d="M78.8566,42.2961 C78.8566,38.9261 76.5896,36.1841 73.8046,36.1841 L59.4326,17.5351 C59.6406,17.9941 55.8666,18.0081 55.8666,18.5661 C55.8666,19.1791 69.8686,36.3871 69.6226,36.8751 L73.8046,39.3991 C75.1266,39.3991 76.2006,40.6981 76.2006,42.2961 C76.2006,43.8941 75.1266,45.1931 73.8046,45.1931 L38.8956,45.1931 C38.8866,45.2911 38.8536,45.3821 38.7946,45.4521 L38.2706,46.0871 C38.2356,46.1301 38.2166,46.1891 38.2186,46.2481 C38.2206,46.3081 38.2446,46.3641 38.2816,46.4021 C38.8316,46.9641 39.1906,47.6951 39.4256,48.4081 L60.8996,48.4081 L47.3096,65.5181 C48.1206,65.9991 48.8146,66.7251 49.3296,67.6131 L64.5846,48.4081 L65.4206,48.4081 L72.9596,70.5171 C73.1696,71.1381 73.6656,71.5121 74.1876,71.5121 C74.3566,71.5121 74.5286,71.4731 74.6936,71.3901 C75.2066,71.1341 75.5156,70.5341 75.5156,69.9031 C75.5156,69.6991 75.4836,69.4911 75.4156,69.2911 L68.2946,48.4081 L73.8046,48.4081 C76.5896,48.4081 78.8566,45.6661 78.8566,42.2961" id="Fill-7" fill="#FDE14C"></path>
            <path d="M50.6661,61.4329 C47.9011,61.4329 45.5381,63.1639 44.5711,65.6139 L44.5711,67.1519 C44.5711,67.2699 44.6661,67.3669 44.7831,67.3669 L49.1511,67.3669 C49.6181,67.3669 49.9981,67.7499 49.9981,68.2239 L49.9981,70.9319 C49.9981,71.4049 49.6181,71.7889 49.1511,71.7889 L45.2241,71.7889 C46.4031,73.5569 48.4001,74.7189 50.6661,74.7189 C54.2911,74.7189 57.2281,71.7459 57.2281,68.0769 C57.2281,64.4079 54.2911,61.4329 50.6661,61.4329" id="Fill-9" fill="#9EA7AF"></path>
            <path d="M50.7013,70.9319 C50.7013,71.5219 50.0103,72.0029 49.1663,72.0029 L34.0303,72.0029 C33.1853,72.0029 32.4953,71.5219 32.4953,70.9319 L32.4953,68.2239 C32.4953,67.6339 33.1853,67.1519 34.0303,67.1519 L49.1663,67.1519 C50.0103,67.1519 50.7013,67.6339 50.7013,68.2239 L50.7013,70.9319 Z" id="Fill-11" fill="#FDE14C"></path>
            <path d="M36.4952,21.7805 L42.2972,21.7805 L41.3142,14.7435 C42.8802,15.6985 44.4182,16.1605 45.1412,15.9715 C46.9512,15.4995 47.1172,8.7945 45.7172,6.1505 C44.3152,3.5085 37.1132,2.3555 36.7512,7.5925 C36.6252,9.4105 37.3792,11.0325 38.4922,12.3565 L36.4952,21.7805 Z" id="Fill-13" fill="#B28B67"></path>
            <path d="M34.2208,5.8498 C33.6028,5.8818 32.8488,6.1608 32.5258,6.7828 C32.1048,7.5888 32.7058,8.5048 33.3618,8.8798 C32.1678,9.9478 34.3268,11.4078 35.2168,11.4668 C35.0538,12.1148 35.8008,12.3368 36.2118,12.5108 C35.9538,12.8348 35.8728,13.3408 36.1818,13.6618 C36.5238,14.0148 37.1248,14.0358 37.5108,13.7648 C37.6068,13.6968 37.6248,13.6088 37.6998,13.5298 C37.7618,13.4658 37.8528,13.4628 37.9298,13.4368 C38.1388,13.3668 38.2698,13.1358 38.3638,12.9328 C38.5528,12.5208 38.6288,12.0318 38.9448,11.6998 C38.5398,11.5218 38.0548,11.3628 37.7858,10.9498 C37.3238,10.2368 37.8328,9.2458 38.5568,9.0588 C39.2118,8.8898 39.9508,9.2528 40.3688,9.8048 C40.5088,9.4148 40.7088,9.0458 40.9788,8.7468 C41.1428,8.5668 41.4348,8.3048 41.0518,8.2018 C40.2038,7.9708 39.3218,7.8908 38.4658,7.6948 C39.3498,7.6938 40.2348,7.7868 41.1168,7.7038 C41.3928,7.6768 41.6728,7.6328 41.8078,7.3338 C41.9728,6.9668 42.0868,6.5178 42.1058,6.1098 C42.4038,6.2158 42.6938,6.3748 43.0148,6.3668 C43.1358,6.3638 43.2548,6.3288 43.3768,6.3288 C43.5158,6.3278 43.6008,6.3828 43.7028,6.4808 C44.1058,6.8598 44.5968,7.1088 45.1168,7.2288 C45.4088,7.2948 45.7438,7.3688 46.0428,7.3478 C46.0878,7.3438 46.1228,7.3168 46.1568,7.3088 C46.2168,7.2948 46.3278,7.3258 46.4058,7.3288 C46.6168,7.3388 46.8418,7.3048 47.0098,7.1518 C47.3898,6.8048 47.2748,6.2228 46.8368,6.0258 C47.2108,5.7438 47.5588,5.4128 47.8498,5.0318 C47.9898,4.8478 48.1258,4.6558 48.2298,4.4458 C48.2888,4.3258 48.3668,4.1638 48.3328,4.0218 C48.2308,3.5948 47.4138,3.8558 47.1788,3.9728 C47.1648,3.8618 47.1438,3.8028 47.1618,3.6928 C47.1778,3.5998 47.1868,3.5078 47.1538,3.4188 C47.1008,3.2728 46.9688,3.1868 46.8428,3.1278 C46.6808,3.0518 46.5048,3.0208 46.3288,3.0138 C46.2408,3.0098 46.0338,3.0708 45.9888,2.9638 C45.9518,2.8788 46.0028,2.7198 46.0188,2.6348 C46.0488,2.4758 46.0668,2.3188 46.0798,2.1568 C46.0988,1.9428 46.1148,1.7278 46.1288,1.5138 C46.1398,1.3578 46.1648,1.1918 46.1318,1.0378 C46.0428,0.6248 45.6138,0.6078 45.3028,0.6808 C45.0898,0.7308 44.8918,0.8258 44.7078,0.9528 C44.5778,1.0428 44.4548,1.1458 44.3258,1.2388 C44.2408,1.2998 44.1738,1.3838 44.0788,1.3208 C43.8578,1.1718 43.7428,0.8328 43.5818,0.6198 C43.4018,0.3798 43.1428,0.2058 42.8768,0.1038 C42.2988,-0.1192 41.6458,0.0338 41.1468,0.4048 C41.0338,0.4888 40.9278,0.5828 40.8328,0.6908 C40.7518,0.7828 40.6908,0.8548 40.5668,0.8258 C40.4548,0.7988 40.3568,0.7208 40.2618,0.6558 C40.1488,0.5788 40.0308,0.5088 39.9108,0.4438 C39.4338,0.1828 38.9078,0.0558 38.3738,0.1308 C37.8548,0.2038 37.3988,0.4768 37.1128,0.9638 C36.8148,1.4698 36.7148,2.0908 36.7038,2.6838 C36.4398,2.5718 36.2038,2.3908 35.9318,2.2998 C35.6568,2.2078 35.3618,2.1668 35.0748,2.1898 C34.6438,2.2228 34.1768,2.3768 33.8668,2.7198 C33.4778,3.1478 33.4798,3.7808 33.6008,4.3298 C33.6618,4.6068 33.7508,4.8728 33.8428,5.1378 C33.9318,5.3928 34.0338,5.6618 34.2208,5.8498" id="Fill-15" fill="#191847"></path>
            <path d="M59.8029,58.5042 C59.4819,60.2232 59.1419,62.1512 58.8089,64.1792 C58.0039,69.0892 57.6819,79.8082 57.7009,82.9122 C57.7129,84.8632 60.3479,84.6582 60.7019,83.1392 C61.0559,81.6202 67.4689,57.6462 67.8479,52.4832 C67.9749,50.7572 64.7529,48.9492 62.6799,50.0022 C61.4219,48.4242 58.9009,47.3762 57.2409,49.6932" id="Fill-17" fill="#B28B67"></path>
            <path d="M57.1954,81.596 C57.3244,81.36 57.6184,81.275 57.8524,81.406 C58.4634,81.746 58.9464,81.931 59.3044,81.959 C59.7454,81.993 60.3304,81.87 61.0594,81.593 L61.5384,80.627 C61.5394,80.624 61.5404,80.622 61.5414,80.62 C61.6034,80.502 61.7514,80.457 61.8684,80.522 L67.9854,83.862 C68.4834,83.977 69.1104,84.111 69.8654,84.264 C70.6194,84.417 70.7774,85.071 70.3394,86.226 C61.7744,85.564 57.2404,85.213 56.7364,85.174 C56.6524,84.319 56.6264,83.671 56.6574,83.232 C56.6834,82.869 56.8574,82.335 57.1794,81.627 C57.1844,81.617 57.1904,81.606 57.1954,81.596" id="Fill-19" fill="#5B7377"></path>
            <path d="M65.6203,49.6487 C60.0483,48.1457 45.0603,43.8667 42.1673,43.3257 L28.5343,42.5457 C28.1613,51.1087 30.1293,55.6237 37.3593,56.1817 C42.3733,56.5697 59.2283,55.9557 59.6313,56.2067 C59.8993,56.3737 59.0683,63.1647 57.1373,76.5807 L63.6843,77.0817 C63.7893,75.6537 67.9223,60.7707 68.3903,54.2897 C68.5183,52.5037 68.0063,50.2937 65.6203,49.6487" id="Fill-21" fill="#5B7377"></path>
            <path d="M60.6388,34.5168 C62.2308,33.3538 63.7108,32.5798 65.0798,32.1928 C67.6998,31.4538 68.7588,30.8888 70.0378,29.2388 C70.7228,28.3558 71.3038,26.5798 70.6528,26.0018 C70.2118,25.6118 67.6558,27.5368 66.6078,27.7538 C65.5608,27.9728 66.5228,25.4548 65.9698,25.7148 C65.2508,25.7278 64.6318,26.7308 64.1158,28.7228 L60.4288,30.7728 L60.6388,34.5168 Z M50.3858,30.2138 L56.4828,24.5628 C59.6958,23.6658 61.1638,23.0108 60.8898,22.5958 C60.4788,21.9728 59.6178,22.4958 59.2738,22.1218 C58.9288,21.7468 59.5868,20.4378 60.2638,19.2218 C60.9408,18.0048 60.2168,18.1118 59.8028,18.2868 C58.4488,19.2138 57.0738,20.5168 55.6778,22.1948 L47.2868,26.8468 L50.3858,30.2138 Z" id="Fill-23" fill="#997659"></path>
            <path d="M45.3956,31.3489 C48.9426,31.4509 52.9986,29.0699 55.8826,26.1709 L54.2416,22.4629 C50.0586,25.1509 46.1396,25.7799 43.2006,25.8109 C41.1716,27.8479 42.6006,31.2699 45.3956,31.3489" id="Fill-25" fill="#C8E9F1"></path>
            <path d="M43.3956,16.3967 L36.6876,16.3967 C35.9526,16.3967 30.9536,26.0987 30.9486,32.4017 C30.9436,38.1567 25.6536,41.8127 28.3896,50.8077 C32.7586,49.9367 45.7526,54.3607 47.9726,49.5847 C49.0516,47.2597 49.3736,44.7167 49.2316,42.0447 C53.6806,41.9467 59.0816,40.4607 65.3816,37.1297 C65.5196,35.5047 64.6776,32.7847 62.8556,28.9697 C55.5106,31.6157 50.2786,32.5437 47.1576,31.7557 C45.6286,26.5157 43.7656,21.2097 43.3956,16.3967" id="Fill-27" fill="#C8E9F1"></path>
        </g>
    </g>
</svg>