<?xml version="1.0" encoding="UTF-8"?>
<svg width="600px" height="200px" viewBox="0 0 600 200" version="1.1" xmlns="http://www.w3.org/2000/svg" xmlns:xlink="http://www.w3.org/1999/xlink">
    <!-- Generator: Sketch 52.6 (67491) - http://www.bohemiancoding.com/sketch -->
    <title>a1-gardening</title>
    <desc>Created with Sketch.</desc>
    <defs>
        <polygon id="path-1" points="0 0.3073 17.682 0.3073 17.682 58.4776918 0 58.4776918"></polygon>
        <polygon id="path-3" points="0 0.3073 17.682 0.3073 17.682 58.4776918 0 58.4776918"></polygon>
        <polygon id="path-5" points="0 0.3073 17.682 0.3073 17.682 58.4776918 0 58.4776918"></polygon>
    </defs>
    <g id="a1-gardening" stroke="none" stroke-width="1" fill="none" fill-rule="evenodd">
        <g id="Group-188">
            <path d="M138.4869,137.6432 C136.4239,136.5942 135.8089,136.8172 135.1319,135.9252 C134.2599,134.7802 134.7919,133.7792 134.3809,132.1942 C133.5289,128.9082 130.2579,129.3922 127.8779,125.8382 C126.1199,123.2132 127.4249,122.2322 125.5369,118.5082 C123.8909,115.2652 122.7129,115.6372 120.4729,112.2472 C118.5579,109.3472 115.8539,103.6732 117.6619,101.1422 C118.4249,100.0752 120.0079,99.5402 121.2239,99.9412 C123.6629,100.7432 123.9269,105.0722 126.1709,105.2572 C126.8219,105.3122 127.2449,104.9842 128.1709,105.2642 C129.1859,105.5722 129.8239,106.3142 130.0469,106.5732 C132.0759,108.9322 130.7559,112.8292 132.6619,116.1052 C134.0529,118.4972 135.2939,117.3442 137.4519,120.1642 C138.9279,122.0952 139.4419,124.1802 140.4699,128.3502 C141.0799,130.8252 140.5809,129.7032 141.6519,135.5412 C142.0529,137.7312 142.3279,139.0072 141.8409,139.3612 C141.3609,139.7112 140.6849,138.7602 138.4869,137.6432" id="Fill-1" fill="#74AF90"></path>
            <path d="M141.0113,139.1979 C139.7013,136.4599 139.4363,131.6939 139.3323,130.0669 C139.1993,127.9789 140.2943,126.9959 140.8553,124.6239 C142.0183,119.7059 138.6593,118.2149 138.5483,111.9439 C138.4653,107.3109 140.2773,106.8609 140.7273,100.6839 C141.1183,95.3049 139.7903,95.0309 139.7133,89.0689 C139.6483,83.9699 140.4973,74.6719 143.7033,72.4899 C145.0563,71.5699 146.8613,71.8939 147.7633,73.2189 C149.5723,75.8729 147.2363,81.7949 149.2293,83.5039 C149.8083,83.9999 150.4003,83.8399 151.1013,84.8159 C151.8693,85.8859 152.0263,87.2889 152.0803,87.7779 C152.5753,92.2329 149.0113,96.5459 148.8453,102.1399 C148.7233,106.2229 150.5743,105.5019 150.9143,110.6529 C151.1483,114.1789 150.3863,117.2839 148.8623,123.4909 C147.9563,127.1749 153.1073,126.9339 150.6263,135.3849 C149.6973,138.5539 147.3353,139.6799 146.6673,139.8329 C146.0073,139.9839 142.4073,142.1149 141.0113,139.1979" id="Fill-3" fill="#74AF90"></path>
            <path d="M155.1519,136.0212 C157.1809,134.8852 156.6089,133.6282 157.4449,132.7392 C158.5189,131.5952 158.2719,130.3692 159.0289,128.6472 C160.5989,125.0782 163.4859,126.2032 166.5229,122.6002 C168.7669,119.9382 167.8029,118.5972 170.4299,114.7152 C172.7179,111.3342 173.7119,111.9632 176.5799,108.5212 C179.0329,105.5772 182.8769,99.6292 181.8239,96.4462 C181.3809,95.1032 180.0539,94.2192 178.8419,94.4572 C176.4119,94.9342 175.1309,99.7902 173.0269,99.6032 C172.4159,99.5492 172.1069,99.1032 171.1889,99.2572 C170.1829,99.4272 169.4199,100.1552 169.1529,100.4092 C166.7249,102.7202 167.0029,107.3652 164.4649,110.7382 C162.6149,113.1992 161.7539,111.6752 159.0959,114.4872 C157.2769,116.4132 156.3049,118.6822 154.3619,123.2212 C153.2089,125.9152 152.4449,123.8822 150.0609,130.3032 C149.1679,132.7102 149.9449,136.2082 150.3439,136.6572 C152.3239,138.8802 153.3629,137.0222 155.1519,136.0212" id="Fill-5" fill="#74AF90"></path>
            <path d="M125.4459,111.2194 C129.3609,115.8754 132.7879,120.8534 135.6289,126.2354 C138.1639,131.0374 139.7859,136.2734 142.4909,140.9784 C142.6019,141.1714 142.9019,140.9974 142.7899,140.8034 C139.7999,135.6034 138.0129,129.7814 135.0919,124.5164 C132.4129,119.6874 129.2419,115.1984 125.6909,110.9744 C125.5479,110.8034 125.3029,111.0494 125.4459,111.2194" id="Fill-7" fill="#FFFFFF"></path>
            <path d="M144.8512,83.6676 C144.6972,94.0466 144.5232,104.4246 144.3892,114.8036 C144.2702,124.1456 145.5322,132.6206 147.8392,141.6686 C147.8942,141.8856 148.2282,141.7936 148.1732,141.5766 C145.7102,131.9196 144.6202,122.7996 144.7652,112.8566 C144.9072,103.1276 145.0532,93.3976 145.1982,83.6676 C145.2012,83.4446 144.8542,83.4446 144.8512,83.6676" id="Fill-9" fill="#FFFFFF"></path>
            <path d="M148.4293,140.5827 C150.6993,133.2507 154.4723,126.7177 159.4253,120.8697 C163.2363,116.3697 168.1843,112.8417 171.6573,108.0917 C171.7883,107.9107 171.4883,107.7377 171.3573,107.9167 C167.2923,113.4777 161.4353,117.5787 157.1943,123.0787 C153.1353,128.3437 150.0603,134.1437 148.0953,140.4907 C148.0293,140.7037 148.3643,140.7957 148.4293,140.5827" id="Fill-11" fill="#FFFFFF"></path>
            <polygon id="Fill-13" fill="#FADB4B" points="155.7691 163.5759 137.3091 163.5759 133.9091 137.9299 159.6561 138.4749"></polygon>
            <path d="M177.2574,109.1276 C177.2574,109.1276 177.5004,100.3476 184.1404,96.6066 L186.5974,95.2236 C184.6984,99.8556 183.7164,104.8936 183.7164,109.9906 L183.7164,110.4066 L180.7344,115.5706 L177.2574,109.1276 Z" id="Fill-15" fill="#B5D783"></path>
            <path d="M179.2906,127.7585 L179.2906,126.5185 C179.2906,113.8945 184.6656,102.0315 193.7516,94.6035 L193.7446,94.6195 C191.0616,101.1895 188.9296,113.2245 187.9256,120.3245 L186.5206,127.7585 L179.2906,127.7585 Z" id="Fill-17" fill="#B5D783"></path>
            <path d="M182.1773,116.0651 C182.1773,107.7861 177.9433,100.2431 171.2923,96.6721 L167.7153,94.7531 L167.9543,95.2401 C171.1673,101.7991 173.3793,108.8881 174.5213,116.2111 L179.5163,127.9081 L182.1773,116.0651 Z" id="Fill-19" fill="#B5D783"></path>
            <path d="M181.0357,128.1676 C181.0357,121.2256 177.4847,114.8986 171.9077,111.9046 L168.9077,110.2946 L169.1087,110.7036 C171.8007,116.1986 173.6537,122.1366 174.6127,128.2706 L181.0357,128.1676 Z" id="Fill-21" fill="#B5D783"></path>
            <path d="M185.9156,127.7585 C187.4076,119.6635 191.1066,112.2915 196.4996,106.6655 L196.9436,106.2015 L196.3916,111.0805 C195.7336,116.8895 194.1996,122.5295 191.8556,127.7585 L185.9156,127.7585 Z" id="Fill-23" fill="#B5D783"></path>
            <path d="M190.1012,163.5778 L176.9472,163.5778 C171.4802,163.5778 167.0472,158.5998 167.0472,152.4588 L167.0472,127.7588 L199.9992,127.7588 L199.9992,152.4588 C199.9992,158.5998 195.5682,163.5778 190.1012,163.5778" id="Fill-25" fill="#FFB53E"></path>
            <polygon id="Fill-27" fill="#DD7045" points="121.1402 163.5778 102.9962 163.5778 98.0902 141.1008 126.0462 141.1008"></polygon>
            <path d="M101.4195,123.3083 C100.6095,125.3203 100.4515,127.6543 101.0995,129.8833 C101.6595,131.8143 102.7785,133.4783 104.2785,134.6133 L112.8615,141.1013 L116.6055,141.1013 L116.6055,127.2423 C116.6055,125.2113 116.0005,123.2393 114.8875,121.6383 C113.5035,119.6473 111.5055,118.4583 109.3985,118.1943 C106.0375,117.7613 102.8145,119.8223 101.4275,123.2883 L101.4195,123.3083 Z" id="Fill-29" fill="#2E91A0"></path>
            <path d="M105.9937,113.8952 C105.3807,111.7852 106.1847,109.4872 107.9027,108.4062 C109.6607,107.4092 111.8057,107.9422 113.0227,109.6922 C113.5907,110.5082 113.8987,111.5132 113.8987,112.5492 L113.8987,121.0572 L107.6147,116.3062 C106.8497,115.7282 106.2797,114.8792 105.9937,113.8952" id="Fill-31" fill="#2E91A0"></path>
            <path d="M116.2271,124.5026 L122.4761,119.7766 C123.5011,119.0016 124.2671,117.8626 124.6511,116.5426 C125.4731,113.7106 124.3931,110.6296 122.0881,109.1806 C119.7311,107.8426 116.8521,108.5576 115.2201,110.9056 C114.4591,112.0006 114.0461,113.3496 114.0461,114.7376 L114.0471,120.6056 L116.2271,124.5026 Z" id="Fill-33" fill="#2E91A0"></path>
            <path d="M107.1314,110.4079 C107.5074,110.8779 107.9624,111.2169 108.5224,111.4369 C108.7294,111.5189 108.8184,111.1839 108.6134,111.1029 C108.1134,110.9049 107.7104,110.5809 107.3764,110.1629 C107.2374,109.9889 106.9934,110.2349 107.1314,110.4079" id="Fill-35" fill="#FFFFFF"></path>
            <path d="M109.5318,107.5036 C109.6198,108.1606 109.7078,108.8176 109.7968,109.4756 C109.8258,109.6926 110.1728,109.6956 110.1418,109.4756 C110.0538,108.8176 109.9668,108.1606 109.8778,107.5036 C109.8488,107.2856 109.5018,107.2826 109.5318,107.5036" id="Fill-37" fill="#FFFFFF"></path>
            <path d="M110.6031,112.7194 C110.9521,112.2894 111.3001,111.8614 111.6491,111.4324 C111.7891,111.2604 111.5451,111.0144 111.4041,111.1874 C111.0551,111.6154 110.7071,112.0454 110.3581,112.4744 C110.2191,112.6464 110.4621,112.8924 110.6031,112.7194" id="Fill-39" fill="#FFFFFF"></path>
            <path d="M107.8385,114.2301 L108.8595,114.2301 C109.0825,114.2301 109.0835,113.8841 108.8595,113.8841 L107.8385,113.8841 C107.6145,113.8841 107.6145,114.2301 107.8385,114.2301" id="Fill-41" fill="#FFFFFF"></path>
            <path d="M112.5103,113.9782 C112.7053,113.6512 112.9003,113.3232 113.0953,112.9952 C113.2093,112.8032 112.9093,112.6282 112.7953,112.8202 C112.6013,113.1482 112.4063,113.4762 112.2113,113.8032 C112.0973,113.9962 112.3963,114.1692 112.5103,113.9782" id="Fill-43" fill="#FFFFFF"></path>
            <path d="M115.6978,109.0212 C115.8868,109.5152 116.0768,110.0092 116.2658,110.5042 C116.3448,110.7102 116.6798,110.6212 116.5998,110.4122 L116.0318,108.9292 C115.9528,108.7232 115.6178,108.8122 115.6978,109.0212" id="Fill-45" fill="#FFFFFF"></path>
            <path d="M118.7701,110.0856 C119.1561,109.5916 119.5421,109.0966 119.9281,108.6016 C120.0641,108.4276 119.8211,108.1806 119.6831,108.3566 C119.2971,108.8516 118.9111,109.3466 118.5251,109.8416 C118.3891,110.0156 118.6321,110.2616 118.7701,110.0856" id="Fill-47" fill="#FFFFFF"></path>
            <path d="M122.0416,111.0895 C122.6106,110.9245 123.0376,110.5685 123.3456,110.0665 C123.4626,109.8755 123.1626,109.7005 123.0466,109.8915 C122.7846,110.3175 122.4336,110.6145 121.9486,110.7555 C121.7356,110.8175 121.8266,111.1515 122.0416,111.0895" id="Fill-49" fill="#FFFFFF"></path>
            <path d="M123.3131,114.7223 L124.9181,114.7223 C125.1411,114.7223 125.1421,114.3753 124.9181,114.3753 L123.3131,114.3753 C123.0901,114.3753 123.0891,114.7223 123.3131,114.7223" id="Fill-51" fill="#FFFFFF"></path>
            <path d="M122.0933,118.1833 C122.6273,118.3503 123.1613,118.5183 123.6963,118.6863 C123.9093,118.7523 124.0003,118.4183 123.7883,118.3513 C123.2533,118.1843 122.7193,118.0163 122.1853,117.8493 C121.9723,117.7823 121.8803,118.1173 122.0933,118.1833" id="Fill-53" fill="#FFFFFF"></path>
            <path d="M118.1881,115.571 C118.2821,115.024 118.3751,114.476 118.4691,113.929 C118.5061,113.711 118.1731,113.618 118.1351,113.837 C118.0421,114.384 117.9481,114.932 117.8541,115.479 C117.8171,115.697 118.1511,115.791 118.1881,115.571" id="Fill-55" fill="#FFFFFF"></path>
            <path d="M121.3121,114.5426 C121.4581,114.4866 121.6031,114.4316 121.7491,114.3756 C121.9561,114.2966 121.8661,113.9616 121.6571,114.0416 L121.2201,114.2086 C121.0141,114.2876 121.1031,114.6226 121.3121,114.5426" id="Fill-57" fill="#FFFFFF"></path>
            <path d="M117.4654,119.0553 C117.6544,118.7243 117.8444,118.3923 118.0344,118.0613 C118.1454,117.8683 117.8464,117.6933 117.7354,117.8863 C117.5454,118.2173 117.3564,118.5493 117.1654,118.8803 C117.0554,119.0743 117.3544,119.2483 117.4654,119.0553" id="Fill-59" fill="#FFFFFF"></path>
            <path d="M119.5152,120.8083 C119.9532,120.8623 120.3912,120.9163 120.8292,120.9703 C121.0502,120.9973 121.0482,120.6513 120.8292,120.6233 C120.3912,120.5703 119.9532,120.5163 119.5152,120.4613 C119.2942,120.4343 119.2962,120.7813 119.5152,120.8083" id="Fill-61" fill="#FFFFFF"></path>
            <path d="M120.1012,117.3219 C120.1992,117.2129 120.2952,117.1029 120.3932,116.9939 C120.5402,116.8279 120.2962,116.5819 120.1482,116.7489 C120.0502,116.8579 119.9542,116.9679 119.8562,117.0769 C119.7082,117.2429 119.9532,117.4889 120.1012,117.3219" id="Fill-63" fill="#FFFFFF"></path>
            <path d="M115.1373,116.1979 L115.7213,116.1979 C115.9443,116.1979 115.9453,115.8509 115.7213,115.8509 L115.1373,115.8509 C114.9143,115.8509 114.9143,116.1979 115.1373,116.1979" id="Fill-65" fill="#FFFFFF"></path>
            <path d="M105.234,118.6071 C105.621,119.0751 106.066,119.4641 106.583,119.7821 C106.773,119.8981 106.948,119.5991 106.757,119.4821 C106.265,119.1801 105.847,118.8061 105.478,118.3621 C105.337,118.1901 105.092,118.4371 105.234,118.6071" id="Fill-67" fill="#FFFFFF"></path>
            <path d="M109.2779,118.9782 C109.1959,119.5882 109.2979,120.1622 109.5789,120.7092 C109.6799,120.9082 109.9799,120.7322 109.8779,120.5342 C109.6229,120.0392 109.5499,119.5282 109.6249,118.9782 C109.6539,118.7572 109.3069,118.7602 109.2779,118.9782" id="Fill-69" fill="#FFFFFF"></path>
            <path d="M102.1441,123.4137 L103.6041,123.4137 C103.8281,123.4137 103.8281,123.0667 103.6041,123.0667 L102.1441,123.0667 C101.9211,123.0667 101.9211,123.4137 102.1441,123.4137" id="Fill-71" fill="#FFFFFF"></path>
            <path d="M101.6373,127.4587 C102.1253,127.2437 102.6133,127.0287 103.1013,126.8137 C103.3053,126.7257 103.1283,126.4267 102.9263,126.5157 C102.4383,126.7297 101.9503,126.9447 101.4623,127.1597 C101.2583,127.2487 101.4353,127.5477 101.6373,127.4587" id="Fill-73" fill="#FFFFFF"></path>
            <path d="M102.3873,130.8151 C102.7763,130.8701 103.1653,130.9251 103.5553,130.9801 C103.7733,131.0111 103.8663,130.6771 103.6473,130.6461 C103.2573,130.5911 102.8683,130.5361 102.4793,130.4801 C102.2613,130.4501 102.1663,130.7841 102.3873,130.8151" id="Fill-75" fill="#FFFFFF"></path>
            <path d="M108.5181,130.3425 C108.6341,131.1045 108.7501,131.8655 108.8681,132.6275 C108.9011,132.8475 109.2351,132.7535 109.2021,132.5355 C109.0841,131.7745 108.9681,131.0125 108.8521,130.2505 C108.8181,130.0305 108.4851,130.1245 108.5181,130.3425" id="Fill-77" fill="#FFFFFF"></path>
            <path d="M105.6959,124.7321 C106.0379,124.8921 106.3799,125.0521 106.7219,125.2111 C106.9229,125.3061 107.0979,125.0071 106.8969,124.9131 C106.5539,124.7531 106.2129,124.5921 105.8709,124.4331 C105.6699,124.3381 105.4939,124.6371 105.6959,124.7321" id="Fill-79" fill="#FFFFFF"></path>
            <path d="M111.022,123.568 L111.022,124.88 C111.022,125.103 111.369,125.103 111.369,124.88 L111.369,123.568 C111.369,123.345 111.022,123.344 111.022,123.568" id="Fill-81" fill="#FFFFFF"></path>
            <path d="M111.5924,128.3571 C112.1214,128.1241 112.6524,127.8891 113.1824,127.6561 C113.3854,127.5661 113.2094,127.2671 113.0074,127.3571 C112.4774,127.5901 111.9464,127.8241 111.4174,128.0581 C111.2134,128.1481 111.3894,128.4461 111.5924,128.3571" id="Fill-83" fill="#FFFFFF"></path>
            <path d="M114.1949,130.5915 C114.7249,130.1995 115.2549,129.8075 115.7839,129.4145 C115.9619,129.2835 115.7889,128.9835 115.6089,129.1155 C115.0799,129.5075 114.5499,129.9005 114.0199,130.2925 C113.8429,130.4235 114.0159,130.7245 114.1949,130.5915" id="Fill-85" fill="#FFFFFF"></path>
            <path d="M114.7906,134.8757 C115.2776,134.6047 115.7656,134.3337 116.2536,134.0637 C116.4476,133.9547 116.2736,133.6547 116.0786,133.7637 C115.5906,134.0347 115.1026,134.3057 114.6156,134.5767 C114.4206,134.6857 114.5956,134.9837 114.7906,134.8757" id="Fill-87" fill="#FFFFFF"></path>
            <path d="M107.5465,135.7087 C108.0195,135.7597 108.4595,135.7037 108.9055,135.5417 C109.1135,135.4667 109.0245,135.1317 108.8145,135.2077 C108.3945,135.3597 107.9905,135.4097 107.5465,135.3617 C107.3245,135.3377 107.3265,135.6847 107.5465,135.7087" id="Fill-89" fill="#FFFFFF"></path>
            <path d="M114.3609,125.0495 C114.6539,124.8335 114.9479,124.6175 115.2409,124.4015 C115.4189,124.2705 115.2459,123.9695 115.0659,124.1025 C114.7729,124.3185 114.4789,124.5345 114.1859,124.7505 C114.0079,124.8815 114.1809,125.1825 114.3609,125.0495" id="Fill-91" fill="#FFFFFF"></path>
            <path d="M114.3043,121.2663 C114.4503,121.2103 114.5963,121.1553 114.7413,121.0983 C114.9483,121.0203 114.8583,120.6853 114.6503,120.7643 C114.5033,120.8203 114.3583,120.8763 114.2123,120.9323 C114.0063,121.0103 114.0963,121.3463 114.3043,121.2663" id="Fill-93" fill="#FFFFFF"></path>
            <path d="M173.4469,118.0085 C175.4639,120.8055 177.4799,123.6035 179.4969,126.4005 C179.6269,126.5795 179.9269,126.4065 179.7969,126.2255 C177.7799,123.4285 175.7629,120.6305 173.7469,117.8335 C173.6179,117.6545 173.3169,117.8265 173.4469,118.0085" id="Fill-95" fill="#FFFFFF"></path>
            <path d="M172.817,101.7809 C178.67,108.4969 179.065,117.3929 179.33,125.8829 C179.337,126.1049 179.682,126.1059 179.675,125.8829 C179.408,117.2959 178.972,108.3179 173.062,101.5359 C172.916,101.3679 172.671,101.6139 172.817,101.7809" id="Fill-97" fill="#FFFFFF"></path>
            <path d="M176.3004,112.11 C177.0394,113.165 177.7214,114.255 178.3514,115.379 C178.4594,115.573 178.7594,115.398 178.6504,115.204 C178.0214,114.08 177.3384,112.99 176.6004,111.934 C176.4734,111.754 176.1724,111.926 176.3004,112.11" id="Fill-99" fill="#FFFFFF"></path>
            <path d="M178.9615,110.0973 C178.9875,111.7213 178.9035,113.3343 178.7095,114.9473 C178.6835,115.1673 179.0295,115.1653 179.0565,114.9473 C179.2505,113.3343 179.3345,111.7203 179.3085,110.0973 C179.3055,109.8743 178.9585,109.8733 178.9615,110.0973" id="Fill-101" fill="#FFFFFF"></path>
            <path d="M179.7115,126.8385 C182.1515,125.1905 182.9305,121.5105 183.9675,118.8775 C185.9845,113.7575 187.6495,108.5245 189.0655,103.2065 C189.1225,102.9905 188.7885,102.8995 188.7315,103.1145 C187.6875,107.0355 186.5235,110.9175 185.1555,114.7385 C183.8585,118.3595 182.8085,124.3295 179.5365,126.5395 C179.3535,126.6635 179.5265,126.9635 179.7115,126.8385" id="Fill-103" fill="#FFFFFF"></path>
            <path d="M186.4058,110.8542 C186.2318,109.6582 186.2198,108.4642 186.3588,107.2642 C186.3848,107.0422 186.0388,107.0442 186.0128,107.2642 C185.8698,108.4982 185.8928,109.7172 186.0718,110.9462 C186.1038,111.1662 186.4368,111.0732 186.4058,110.8542" id="Fill-105" fill="#FFFFFF"></path>
            <path d="M185.4566,115.3649 C186.7386,114.5469 187.8026,113.4759 188.6496,112.2149 C188.7736,112.0289 188.4746,111.8559 188.3506,112.0399 C187.5356,113.2529 186.5146,114.2789 185.2816,115.0659 C185.0946,115.1859 185.2686,115.4859 185.4566,115.3649" id="Fill-107" fill="#FFFFFF"></path>
            <path d="M181.7027,101.1257 C180.5527,106.6427 179.9097,112.8277 183.9737,117.3267 C184.1237,117.4927 184.3687,117.2477 184.2197,117.0827 C180.2377,112.6747 180.9157,106.5957 182.0377,101.2187 C182.0827,101.0007 181.7487,100.9077 181.7027,101.1257" id="Fill-109" fill="#FFFFFF"></path>
            <path d="M182.6568,122.8815 C185.0018,123.8835 187.5688,122.7355 189.5958,121.4425 C192.0958,119.8475 192.3338,116.9625 193.9718,114.6955 C194.1018,114.5155 193.8028,114.3425 193.6728,114.5215 C192.5408,116.0875 192.1768,118.0585 191.0398,119.6025 C189.4398,121.7755 185.4408,123.6975 182.8318,122.5825 C182.6288,122.4955 182.4518,122.7945 182.6568,122.8815" id="Fill-111" fill="#FFFFFF"></path>
            <path d="M37.9449,26.1862 C37.9449,25.3572 38.7869,25.4422 39.9399,25.2162 C39.9289,23.3572 39.6549,21.4932 39.5099,19.6942 C39.4849,19.3722 42.1779,19.5902 40.9239,18.1812 C40.3639,17.5512 38.5139,15.5162 38.4729,15.2732 C37.8019,11.2092 37.9309,10.3162 35.9749,7.3362 C31.6709,0.7752 14.3089,-0.9038 14.9899,13.1332 C15.2259,18.0042 17.6039,22.0672 20.7909,25.2162 L18.6549,50.9192 L33.1649,49.0032 L28.5719,30.6272 C30.9649,34.9042 35.8219,34.4312 37.1509,33.0022 C38.4489,31.6062 39.1769,30.1362 39.5629,28.6322 C38.6079,28.3402 37.9449,26.9222 37.9449,26.1862" id="Fill-113" fill="#B27B5F"></path>
            <polygon id="Fill-115" fill="#B27B5F" points="21.7203 86.7868 38.9053 146.5798 46.9873 191.4738 55.1003 191.4738 47.0013 86.7868"></polygon>
            <path d="M13.9976,86.7868 C15.1956,117.8488 14.7236,134.7918 14.4546,137.6128 C14.1866,140.4348 12.6636,159.3368 2.2816,192.4208 L10.7196,192.4208 C24.4686,160.6828 29.2686,141.7808 30.8446,137.6128 C32.4216,133.4458 37.0786,116.5038 43.8786,86.7868 L13.9976,86.7868 Z" id="Fill-117" fill="#B27B5F"></path>
            <path d="M21.3512,86.7868 C25.8212,107.3618 33.5522,140.2048 44.5442,185.3148 L56.4102,185.3148 C57.2872,139.0138 53.5582,108.5398 47.1022,86.7868 L21.3512,86.7868 Z" id="Fill-119" fill="#C8E9F1"></path>
            <path d="M13.9371,86.7868 C15.1121,117.8488 12.0681,148.4508 2.6411,185.7998 L15.3011,185.7998 C29.0761,154.5338 38.9481,124.0828 45.6951,86.7868 L13.9371,86.7868 Z" id="Fill-121" fill="#C8E9F1"></path>
            <path d="M1.0787,198.5788 L1.5447,190.9998 C4.2697,191.8048 7.6837,191.4888 11.7867,190.0528 C16.1977,193.2078 21.7517,195.3618 28.4457,196.5158 C28.9567,196.6028 29.3007,197.0938 29.2137,197.6088 C29.2077,197.6418 29.1997,197.6758 29.1907,197.7078 L28.5477,199.9998 L11.7867,199.9998 L2.0097,199.9998 L1.0787,198.5788 Z" id="Fill-123" fill="#666665"></path>
            <path d="M45.1763,198.5788 L45.6423,190.9998 C48.3673,191.8048 51.7813,191.4888 55.8843,190.0528 C60.2953,193.2078 65.8493,195.3618 72.5433,196.5158 C73.0543,196.6028 73.3983,197.0938 73.3113,197.6088 C73.3053,197.6418 73.2973,197.6758 73.2883,197.7078 L72.6453,199.9998 L55.8843,199.9998 L46.1083,199.9998 L45.1763,198.5788 Z" id="Fill-125" fill="#666665"></path>
            <polygon id="Fill-127" fill="#FFFDF6" points="102.0113 71.7653 107.7443 79.2153 121.1543 65.9323 118.4383 62.4043"></polygon>
            <path d="M116.6031,63.4997 L119.6081,67.4027 C120.5291,68.6007 122.1651,68.8957 123.2621,68.0617 L124.8471,66.8597 C125.2001,66.5927 125.2461,66.0637 124.9501,65.6807 L119.6811,58.8337 C119.3851,58.4487 118.8601,58.3537 118.5071,58.6217 L116.9221,59.8247 C115.8251,60.6577 115.6821,62.3037 116.6031,63.4997" id="Fill-129" fill="#DD7045"></path>
            <path d="M118.0328,65.3571 L119.6068,67.4031 C120.5288,68.6001 122.1658,68.8951 123.2628,68.0621 L124.8478,66.8601 C125.1998,66.5911 125.2458,66.0641 124.9508,65.6791 L123.3758,63.6331 C123.6718,64.0181 123.6258,64.5461 123.2728,64.8131 L121.6878,66.0161 C120.5908,66.8491 118.9548,66.5541 118.0328,65.3571" id="Fill-131" fill="#FF7061"></path>
            <path d="M82.2222,71.5485 C82.9962,71.6885 83.6802,71.1705 83.7472,70.3915 L84.4022,62.8585 C84.6242,60.2995 86.8672,58.5985 89.4102,59.0565 L93.4982,59.7935 L93.7432,56.9735 L89.6562,56.2365 C85.5632,55.4985 81.9542,58.2365 81.5972,62.3525 L80.9432,69.8865 C80.8752,70.6645 81.4482,71.4085 82.2222,71.5485" id="Fill-133" fill="#DD7045"></path>
            <path d="M84.6724,87.2526 L110.3564,91.8836 L109.9994,84.2566 L108.8844,60.3926 C108.8654,59.9946 108.5614,59.6456 108.1714,59.5746 L92.3174,56.7166 C91.9264,56.6466 91.5704,56.8766 91.4854,57.2556 L86.3224,79.9876 L84.6724,87.2526 Z" id="Fill-135" fill="#FFFDF6"></path>
            <path d="M84.2349,87.1735 L110.7939,91.9625 C111.2699,92.0485 111.6719,91.6885 111.6419,91.2015 L111.2779,85.1655 C111.2549,84.7715 110.9509,84.4285 110.5649,84.3595 L85.7569,79.8865 C85.3709,79.8165 85.0179,80.0415 84.9279,80.4145 L83.5429,86.1355 C83.4309,86.5965 83.7579,87.0885 84.2349,87.1735" id="Fill-137" fill="#DD7045"></path>
            <path d="M98.5572,69.82 L100.8952,70.241 C101.3252,70.319 101.7042,70.031 101.7432,69.598 L103.3792,50.753 C103.4172,50.32 103.0982,49.906 102.6682,49.829 L100.3302,49.407 C99.9002,49.33 99.5202,49.617 99.4832,50.05 L97.8452,68.895 C97.8082,69.328 98.1262,69.742 98.5572,69.82" id="Fill-139" fill="#DD7045"></path>
            <path d="M76.9351,62.8454 C78.3471,63.0304 84.0951,61.3244 87.6831,59.8784 C89.1231,59.2984 89.7981,60.3684 89.7931,60.9404 C89.7521,65.5844 85.9051,66.1474 82.7171,68.1094 C79.2261,70.2594 83.2311,71.1434 80.5081,72.8764 C79.2561,70.9804 77.5161,68.6804 74.8501,68.1304 C73.6641,67.8864 65.0431,63.6424 46.5871,58.2334 L50.2321,52.0544 C66.1091,58.9964 75.0101,62.5934 76.9351,62.8454" id="Fill-141" fill="#B27B5F"></path>
            <path d="M18.9371,22.0192 C20.3651,20.9702 20.7361,16.8672 20.3831,12.8602 C20.2111,10.9032 19.8671,8.9692 19.3881,7.4252 C18.9891,6.1342 18.4961,5.1162 17.9321,4.5852 C16.2551,3.0072 13.4101,5.2272 12.9621,9.4582 C12.4951,13.8762 14.7111,19.8552 18.1711,22.2932 C18.4021,22.2812 18.6711,22.2142 18.9371,22.0192" id="Fill-143" fill="#C0D2E3"></path>
            <path d="M17.8765,6.0231 C18.7005,7.3821 22.0165,7.6691 25.2675,7.2591 C26.8545,7.0591 28.4265,6.6931 29.6845,6.2051 C30.7365,5.7961 31.5695,5.3031 32.0095,4.7511 C33.3155,3.1051 31.5675,0.3981 28.1495,0.0411 C24.5815,-0.3329 19.7025,1.9091 17.6675,5.2901 C17.6745,5.5111 17.7235,5.7711 17.8765,6.0231" id="Fill-145" fill="#C0D2E3"></path>
            <g id="Group-149" transform="translate(0.000000, 61.000000)">
                <mask id="mask-2" fill="white">
                    <use xlink:href="#path-1"></use>
                </mask>
                <g id="Clip-148"></g>
                <path d="M9.315,0.3073 L17.682,1.2373 C13.572,19.1113 12.497,46.3483 12.198,47.5263 C11.626,49.7803 12.085,51.6073 12.953,53.2693 C13.267,53.8713 12.83,54.6623 12.149,54.6573 C11.107,54.6483 11.443,52.8733 8.725,54.6923 C5.55,56.8173 4.349,59.7193 0.127,57.9083 C-0.391,57.6843 0.766,54.5473 1.924,53.4653 C4.807,50.7703 6.045,48.6853 6.499,47.3253 C7.116,45.4683 7.725,16.4393 9.315,0.3073" id="Fill-147" fill="#B27B5F" mask="url(#mask-2)"></path>
            </g>
            <path d="M14.6256,8.36 C14.3166,12.002 13.8946,17.507 16.4256,20.546 C16.5676,20.717 16.8126,20.471 16.6696,20.3 C14.2236,17.363 14.6696,11.937 14.9726,8.36 C14.9906,8.138 14.6456,8.139 14.6256,8.36" id="Fill-150" fill="#FFFFFF"></path>
            <path d="M15.9215,5.8991 C17.8165,10.7951 18.2325,15.8881 17.1945,21.0311 C17.1505,21.2491 17.4835,21.3411 17.5285,21.1231 C18.5765,15.9251 18.1695,10.7531 16.2555,5.8071 C16.1755,5.6011 15.8405,5.6911 15.9215,5.8991" id="Fill-152" fill="#FFFFFF"></path>
            <path d="M17.6666,5.1501 C19.7596,9.9861 21.4576,15.7031 17.9916,20.3491 C17.8576,20.5281 18.1586,20.7011 18.2906,20.5241 C21.8246,15.7881 20.1046,9.9191 17.9656,4.9751 C17.8776,4.7711 17.5786,4.9471 17.6666,5.1501" id="Fill-154" fill="#FFFFFF"></path>
            <path d="M20.2447,5.4577 C22.7517,6.1237 25.1297,5.2407 27.4327,4.2717 C27.6367,4.1867 27.5477,3.8527 27.3417,3.9377 C25.1017,4.8797 22.7847,5.7747 20.3367,5.1237 C20.1207,5.0667 20.0287,5.4007 20.2447,5.4577" id="Fill-156" fill="#FFFFFF"></path>
            <path d="M21.6539,5.0251 C23.8779,3.5781 26.4239,3.2341 28.9329,4.1181 C29.1439,4.1921 29.2349,3.8581 29.0249,3.7841 C26.4399,2.8731 23.7689,3.2351 21.4789,4.7251 C21.2929,4.8461 21.4669,5.1471 21.6539,5.0251" id="Fill-158" fill="#FFFFFF"></path>
            <path d="M17.3814,6.2038 C20.2914,5.2078 23.2904,5.8318 26.2794,5.3928 C28.4504,5.0748 30.4444,4.3418 32.3954,3.3698 C32.5954,3.2698 32.4194,2.9718 32.2204,3.0708 C29.3244,4.5128 26.4144,5.2188 23.1924,5.2428 C21.1394,5.2588 19.2594,5.1958 17.2884,5.8698 C17.0784,5.9408 17.1694,6.2758 17.3814,6.2038" id="Fill-160" fill="#FFFFFF"></path>
            <path d="M19.5103,6.8122 C24.0513,7.0042 28.6243,6.9092 32.0373,3.5252 C32.1973,3.3682 31.9513,3.1242 31.7923,3.2812 C28.4373,6.6072 23.9473,6.6542 19.5103,6.4652 C19.2873,6.4562 19.2873,6.8022 19.5103,6.8122" id="Fill-162" fill="#FFFFFF"></path>
            <path d="M16.9117,4.8766 C14.7857,6.2046 13.3367,8.2456 12.5887,10.6216 C12.5207,10.8356 12.8547,10.9266 12.9227,10.7146 C13.6427,8.4246 15.0377,6.4556 17.0867,5.1756 C17.2747,5.0586 17.1007,4.7576 16.9117,4.8766" id="Fill-164" fill="#FFFFFF"></path>
            <path d="M14.3756,7.4489 C12.7926,10.3249 13.1226,13.7679 15.4466,16.1369 C15.6046,16.2959 15.8486,16.0509 15.6916,15.8909 C13.4786,13.6359 13.1636,10.3679 14.6746,7.6239 C14.7816,7.4279 14.4826,7.2539 14.3756,7.4489" id="Fill-166" fill="#FFFFFF"></path>
            <path d="M15.1646,8.1276 C16.6586,11.9626 17.1946,15.9476 16.8136,20.0426 C16.7936,20.2646 17.1406,20.2636 17.1606,20.0426 C17.5466,15.8966 17.0116,11.9176 15.4986,8.0356 C15.4186,7.8306 15.0836,7.9196 15.1646,8.1276" id="Fill-168" fill="#FFFFFF"></path>
            <path d="M16.4625,6.2741 C16.8985,5.6001 17.7645,5.6061 18.3465,6.0851 C18.8975,6.5381 19.1745,7.2281 19.3935,7.8871 C19.4625,8.0981 19.7975,8.0081 19.7275,7.7951 C19.4385,6.9201 18.9995,5.8831 18.0785,5.5131 C17.3585,5.2241 16.5835,5.4501 16.1635,6.0991 C16.0425,6.2871 16.3425,6.4611 16.4625,6.2741" id="Fill-170" fill="#FFFFFF"></path>
            <path d="M20.8443,7.4499 C21.4623,5.6449 23.1413,4.5129 25.0383,5.1519 C25.2503,5.2229 25.3413,4.8889 25.1313,4.8179 C23.0583,4.1209 21.1863,5.3859 20.5103,7.3569 C20.4383,7.5689 20.7733,7.6599 20.8443,7.4499" id="Fill-172" fill="#FFFFFF"></path>
            <path d="M24.19,5.6423 C25.824,3.8983 27.836,2.7183 30.19,2.2663 C30.409,2.2243 30.316,1.8903 30.098,1.9323 C27.691,2.3943 25.614,3.6163 23.945,5.3983 C23.793,5.5603 24.037,5.8063 24.19,5.6423" id="Fill-174" fill="#FFFFFF"></path>
            <path d="M26.2574,7.0632 C27.1784,6.0942 28.3464,5.5182 29.6924,5.4872 C29.9144,5.4822 29.9154,5.1352 29.6924,5.1402 C28.2624,5.1732 26.9924,5.7872 26.0134,6.8182 C25.8594,6.9792 26.1044,7.2252 26.2574,7.0632" id="Fill-176" fill="#FFFFFF"></path>
            <path d="M21.6109,19.1774 C21.6879,17.5584 21.4379,16.1994 23.1799,15.0974 C24.0769,14.5314 25.6939,14.3734 26.7189,14.0774 C29.0779,13.3984 31.4369,12.7184 33.7969,12.0384 C34.0099,11.9774 33.9199,11.6434 33.7039,11.7044 C30.1869,12.7184 26.1959,13.3784 22.8469,14.8424 C20.9999,15.6494 21.3519,17.3364 21.2639,19.1774 C21.2539,19.4004 21.5999,19.3994 21.6109,19.1774" id="Fill-178" fill="#FFFFFF"></path>
            <path d="M33.3189,12.2243 C33.3769,13.8993 33.4129,17.0103 34.9659,18.0633 C36.0449,18.7933 37.6829,18.1343 38.0639,16.9273 C38.3759,15.9413 38.2049,14.7493 38.0089,13.7563 C37.8479,12.9403 37.6749,11.2783 37.0509,10.6583 C35.9289,9.5413 34.0209,10.5963 33.5249,11.7643 C33.4379,11.9673 33.7369,12.1443 33.8239,11.9393 C34.1319,11.2143 34.8399,10.5373 35.7139,10.6193 C36.9669,10.7363 37.1829,11.9013 37.4199,12.7793 C37.7209,13.8973 38.0599,15.2463 37.7899,16.4023 C37.5959,17.2223 36.9399,18.0973 35.9639,18.0223 C34.7119,17.9263 34.4099,16.7333 34.1709,15.8463 C33.8509,14.6623 33.7079,13.4483 33.6659,12.2243 C33.6579,12.0023 33.3119,12.0003 33.3189,12.2243" id="Fill-180" fill="#FFFFFF"></path>
            <path d="M54.0279,55.53 L50.4329,62.793 C50.2209,63.222 50.1049,63.681 50.0899,64.145 L49.4519,85.415 C49.3889,87.476 49.5049,91.048 47.0259,91.048 L18.4769,92.331 C15.6029,92.331 13.5859,86.941 14.1339,84.594 L15.1629,71.124 C15.6589,69 16.3309,65.743 13.7589,65.422 L6.9369,64.571 C4.6999,64.292 3.0459,62.693 3.0459,60.811 C3.0459,60.428 3.1149,60.048 3.2519,59.681 L17.2319,37.039 C25.1469,43.294 32.9119,33.906 35.4519,35.197 L53.1979,50.604 C55.1149,51.578 54.8829,53.801 54.0279,55.53" id="Fill-182" fill="#FFFDF6"></path>
            <path d="M30.9049,53.9811 C35.2169,53.0651 39.4849,51.9271 43.6829,50.5741" id="Fill-184" fill="#FFFDF6"></path>
            <path d="M35.2867,14.0983 C35.2557,14.2823 35.2657,14.3993 35.3607,14.5653 C35.4367,14.6973 35.6357,14.6633 35.6787,14.5243 C35.7787,14.1893 35.7167,13.9013 35.4977,13.6323 C35.4127,13.5283 35.2417,13.5943 35.2087,13.7093 C35.0997,14.0813 35.1457,14.4373 35.3717,14.7563 C35.4397,14.8533 35.6097,14.8843 35.6707,14.7563 C35.8397,14.4023 35.8297,14.0363 35.5877,13.7183 C35.5117,13.6183 35.3607,13.5963 35.2887,13.7183 C35.1007,14.0323 35.1367,14.3793 35.3817,14.6493 C35.4757,14.7543 35.6267,14.6863 35.6707,14.5733 C35.7927,14.2603 35.7617,13.9593 35.5777,13.6793 C35.4557,13.4943 35.1557,13.6663 35.2787,13.8543 C35.4087,14.0523 35.4217,14.2623 35.3367,14.4813 C35.4327,14.4553 35.5297,14.4303 35.6257,14.4043 C35.4837,14.2383 35.4717,14.0683 35.5877,13.8933 L35.2887,13.8933 C35.4437,14.0973 35.4867,14.3383 35.3717,14.5813 L35.6707,14.5813 C35.4957,14.3333 35.4567,14.0943 35.5427,13.8013 L35.2527,13.8773 C35.3927,14.0533 35.4237,14.2383 35.3447,14.4313 L35.6607,14.3903 C35.6467,14.3243 35.6347,14.2573 35.6207,14.1903 C35.6577,13.9723 35.3237,13.8783 35.2867,14.0983" id="Fill-186" fill="#F4F4F4"></path>
        </g>
        <g id="Group-188" transform="translate(200.000000, 0.000000)">
            <path d="M138.4869,137.6432 C136.4239,136.5942 135.8089,136.8172 135.1319,135.9252 C134.2599,134.7802 134.7919,133.7792 134.3809,132.1942 C133.5289,128.9082 130.2579,129.3922 127.8779,125.8382 C126.1199,123.2132 127.4249,122.2322 125.5369,118.5082 C123.8909,115.2652 122.7129,115.6372 120.4729,112.2472 C118.5579,109.3472 115.8539,103.6732 117.6619,101.1422 C118.4249,100.0752 120.0079,99.5402 121.2239,99.9412 C123.6629,100.7432 123.9269,105.0722 126.1709,105.2572 C126.8219,105.3122 127.2449,104.9842 128.1709,105.2642 C129.1859,105.5722 129.8239,106.3142 130.0469,106.5732 C132.0759,108.9322 130.7559,112.8292 132.6619,116.1052 C134.0529,118.4972 135.2939,117.3442 137.4519,120.1642 C138.9279,122.0952 139.4419,124.1802 140.4699,128.3502 C141.0799,130.8252 140.5809,129.7032 141.6519,135.5412 C142.0529,137.7312 142.3279,139.0072 141.8409,139.3612 C141.3609,139.7112 140.6849,138.7602 138.4869,137.6432" id="Fill-1" fill="#74AF90"></path>
            <path d="M141.0113,139.1979 C139.7013,136.4599 139.4363,131.6939 139.3323,130.0669 C139.1993,127.9789 140.2943,126.9959 140.8553,124.6239 C142.0183,119.7059 138.6593,118.2149 138.5483,111.9439 C138.4653,107.3109 140.2773,106.8609 140.7273,100.6839 C141.1183,95.3049 139.7903,95.0309 139.7133,89.0689 C139.6483,83.9699 140.4973,74.6719 143.7033,72.4899 C145.0563,71.5699 146.8613,71.8939 147.7633,73.2189 C149.5723,75.8729 147.2363,81.7949 149.2293,83.5039 C149.8083,83.9999 150.4003,83.8399 151.1013,84.8159 C151.8693,85.8859 152.0263,87.2889 152.0803,87.7779 C152.5753,92.2329 149.0113,96.5459 148.8453,102.1399 C148.7233,106.2229 150.5743,105.5019 150.9143,110.6529 C151.1483,114.1789 150.3863,117.2839 148.8623,123.4909 C147.9563,127.1749 153.1073,126.9339 150.6263,135.3849 C149.6973,138.5539 147.3353,139.6799 146.6673,139.8329 C146.0073,139.9839 142.4073,142.1149 141.0113,139.1979" id="Fill-3" fill="#74AF90"></path>
            <path d="M155.1519,136.0212 C157.1809,134.8852 156.6089,133.6282 157.4449,132.7392 C158.5189,131.5952 158.2719,130.3692 159.0289,128.6472 C160.5989,125.0782 163.4859,126.2032 166.5229,122.6002 C168.7669,119.9382 167.8029,118.5972 170.4299,114.7152 C172.7179,111.3342 173.7119,111.9632 176.5799,108.5212 C179.0329,105.5772 182.8769,99.6292 181.8239,96.4462 C181.3809,95.1032 180.0539,94.2192 178.8419,94.4572 C176.4119,94.9342 175.1309,99.7902 173.0269,99.6032 C172.4159,99.5492 172.1069,99.1032 171.1889,99.2572 C170.1829,99.4272 169.4199,100.1552 169.1529,100.4092 C166.7249,102.7202 167.0029,107.3652 164.4649,110.7382 C162.6149,113.1992 161.7539,111.6752 159.0959,114.4872 C157.2769,116.4132 156.3049,118.6822 154.3619,123.2212 C153.2089,125.9152 152.4449,123.8822 150.0609,130.3032 C149.1679,132.7102 149.9449,136.2082 150.3439,136.6572 C152.3239,138.8802 153.3629,137.0222 155.1519,136.0212" id="Fill-5" fill="#74AF90"></path>
            <path d="M125.4459,111.2194 C129.3609,115.8754 132.7879,120.8534 135.6289,126.2354 C138.1639,131.0374 139.7859,136.2734 142.4909,140.9784 C142.6019,141.1714 142.9019,140.9974 142.7899,140.8034 C139.7999,135.6034 138.0129,129.7814 135.0919,124.5164 C132.4129,119.6874 129.2419,115.1984 125.6909,110.9744 C125.5479,110.8034 125.3029,111.0494 125.4459,111.2194" id="Fill-7" fill="#FFFFFF"></path>
            <path d="M144.8512,83.6676 C144.6972,94.0466 144.5232,104.4246 144.3892,114.8036 C144.2702,124.1456 145.5322,132.6206 147.8392,141.6686 C147.8942,141.8856 148.2282,141.7936 148.1732,141.5766 C145.7102,131.9196 144.6202,122.7996 144.7652,112.8566 C144.9072,103.1276 145.0532,93.3976 145.1982,83.6676 C145.2012,83.4446 144.8542,83.4446 144.8512,83.6676" id="Fill-9" fill="#FFFFFF"></path>
            <path d="M148.4293,140.5827 C150.6993,133.2507 154.4723,126.7177 159.4253,120.8697 C163.2363,116.3697 168.1843,112.8417 171.6573,108.0917 C171.7883,107.9107 171.4883,107.7377 171.3573,107.9167 C167.2923,113.4777 161.4353,117.5787 157.1943,123.0787 C153.1353,128.3437 150.0603,134.1437 148.0953,140.4907 C148.0293,140.7037 148.3643,140.7957 148.4293,140.5827" id="Fill-11" fill="#FFFFFF"></path>
            <polygon id="Fill-13" fill="#FADB4B" points="155.7691 163.5759 137.3091 163.5759 133.9091 137.9299 159.6561 138.4749"></polygon>
            <path d="M177.2574,109.1276 C177.2574,109.1276 177.5004,100.3476 184.1404,96.6066 L186.5974,95.2236 C184.6984,99.8556 183.7164,104.8936 183.7164,109.9906 L183.7164,110.4066 L180.7344,115.5706 L177.2574,109.1276 Z" id="Fill-15" fill="#B5D783"></path>
            <path d="M179.2906,127.7585 L179.2906,126.5185 C179.2906,113.8945 184.6656,102.0315 193.7516,94.6035 L193.7446,94.6195 C191.0616,101.1895 188.9296,113.2245 187.9256,120.3245 L186.5206,127.7585 L179.2906,127.7585 Z" id="Fill-17" fill="#B5D783"></path>
            <path d="M182.1773,116.0651 C182.1773,107.7861 177.9433,100.2431 171.2923,96.6721 L167.7153,94.7531 L167.9543,95.2401 C171.1673,101.7991 173.3793,108.8881 174.5213,116.2111 L179.5163,127.9081 L182.1773,116.0651 Z" id="Fill-19" fill="#B5D783"></path>
            <path d="M181.0357,128.1676 C181.0357,121.2256 177.4847,114.8986 171.9077,111.9046 L168.9077,110.2946 L169.1087,110.7036 C171.8007,116.1986 173.6537,122.1366 174.6127,128.2706 L181.0357,128.1676 Z" id="Fill-21" fill="#B5D783"></path>
            <path d="M185.9156,127.7585 C187.4076,119.6635 191.1066,112.2915 196.4996,106.6655 L196.9436,106.2015 L196.3916,111.0805 C195.7336,116.8895 194.1996,122.5295 191.8556,127.7585 L185.9156,127.7585 Z" id="Fill-23" fill="#B5D783"></path>
            <path d="M190.1012,163.5778 L176.9472,163.5778 C171.4802,163.5778 167.0472,158.5998 167.0472,152.4588 L167.0472,127.7588 L199.9992,127.7588 L199.9992,152.4588 C199.9992,158.5998 195.5682,163.5778 190.1012,163.5778" id="Fill-25" fill="#FFB53E"></path>
            <polygon id="Fill-27" fill="#DD7045" points="121.1402 163.5778 102.9962 163.5778 98.0902 141.1008 126.0462 141.1008"></polygon>
            <path d="M101.4195,123.3083 C100.6095,125.3203 100.4515,127.6543 101.0995,129.8833 C101.6595,131.8143 102.7785,133.4783 104.2785,134.6133 L112.8615,141.1013 L116.6055,141.1013 L116.6055,127.2423 C116.6055,125.2113 116.0005,123.2393 114.8875,121.6383 C113.5035,119.6473 111.5055,118.4583 109.3985,118.1943 C106.0375,117.7613 102.8145,119.8223 101.4275,123.2883 L101.4195,123.3083 Z" id="Fill-29" fill="#2E91A0"></path>
            <path d="M105.9937,113.8952 C105.3807,111.7852 106.1847,109.4872 107.9027,108.4062 C109.6607,107.4092 111.8057,107.9422 113.0227,109.6922 C113.5907,110.5082 113.8987,111.5132 113.8987,112.5492 L113.8987,121.0572 L107.6147,116.3062 C106.8497,115.7282 106.2797,114.8792 105.9937,113.8952" id="Fill-31" fill="#2E91A0"></path>
            <path d="M116.2271,124.5026 L122.4761,119.7766 C123.5011,119.0016 124.2671,117.8626 124.6511,116.5426 C125.4731,113.7106 124.3931,110.6296 122.0881,109.1806 C119.7311,107.8426 116.8521,108.5576 115.2201,110.9056 C114.4591,112.0006 114.0461,113.3496 114.0461,114.7376 L114.0471,120.6056 L116.2271,124.5026 Z" id="Fill-33" fill="#2E91A0"></path>
            <path d="M107.1314,110.4079 C107.5074,110.8779 107.9624,111.2169 108.5224,111.4369 C108.7294,111.5189 108.8184,111.1839 108.6134,111.1029 C108.1134,110.9049 107.7104,110.5809 107.3764,110.1629 C107.2374,109.9889 106.9934,110.2349 107.1314,110.4079" id="Fill-35" fill="#FFFFFF"></path>
            <path d="M109.5318,107.5036 C109.6198,108.1606 109.7078,108.8176 109.7968,109.4756 C109.8258,109.6926 110.1728,109.6956 110.1418,109.4756 C110.0538,108.8176 109.9668,108.1606 109.8778,107.5036 C109.8488,107.2856 109.5018,107.2826 109.5318,107.5036" id="Fill-37" fill="#FFFFFF"></path>
            <path d="M110.6031,112.7194 C110.9521,112.2894 111.3001,111.8614 111.6491,111.4324 C111.7891,111.2604 111.5451,111.0144 111.4041,111.1874 C111.0551,111.6154 110.7071,112.0454 110.3581,112.4744 C110.2191,112.6464 110.4621,112.8924 110.6031,112.7194" id="Fill-39" fill="#FFFFFF"></path>
            <path d="M107.8385,114.2301 L108.8595,114.2301 C109.0825,114.2301 109.0835,113.8841 108.8595,113.8841 L107.8385,113.8841 C107.6145,113.8841 107.6145,114.2301 107.8385,114.2301" id="Fill-41" fill="#FFFFFF"></path>
            <path d="M112.5103,113.9782 C112.7053,113.6512 112.9003,113.3232 113.0953,112.9952 C113.2093,112.8032 112.9093,112.6282 112.7953,112.8202 C112.6013,113.1482 112.4063,113.4762 112.2113,113.8032 C112.0973,113.9962 112.3963,114.1692 112.5103,113.9782" id="Fill-43" fill="#FFFFFF"></path>
            <path d="M115.6978,109.0212 C115.8868,109.5152 116.0768,110.0092 116.2658,110.5042 C116.3448,110.7102 116.6798,110.6212 116.5998,110.4122 L116.0318,108.9292 C115.9528,108.7232 115.6178,108.8122 115.6978,109.0212" id="Fill-45" fill="#FFFFFF"></path>
            <path d="M118.7701,110.0856 C119.1561,109.5916 119.5421,109.0966 119.9281,108.6016 C120.0641,108.4276 119.8211,108.1806 119.6831,108.3566 C119.2971,108.8516 118.9111,109.3466 118.5251,109.8416 C118.3891,110.0156 118.6321,110.2616 118.7701,110.0856" id="Fill-47" fill="#FFFFFF"></path>
            <path d="M122.0416,111.0895 C122.6106,110.9245 123.0376,110.5685 123.3456,110.0665 C123.4626,109.8755 123.1626,109.7005 123.0466,109.8915 C122.7846,110.3175 122.4336,110.6145 121.9486,110.7555 C121.7356,110.8175 121.8266,111.1515 122.0416,111.0895" id="Fill-49" fill="#FFFFFF"></path>
            <path d="M123.3131,114.7223 L124.9181,114.7223 C125.1411,114.7223 125.1421,114.3753 124.9181,114.3753 L123.3131,114.3753 C123.0901,114.3753 123.0891,114.7223 123.3131,114.7223" id="Fill-51" fill="#FFFFFF"></path>
            <path d="M122.0933,118.1833 C122.6273,118.3503 123.1613,118.5183 123.6963,118.6863 C123.9093,118.7523 124.0003,118.4183 123.7883,118.3513 C123.2533,118.1843 122.7193,118.0163 122.1853,117.8493 C121.9723,117.7823 121.8803,118.1173 122.0933,118.1833" id="Fill-53" fill="#FFFFFF"></path>
            <path d="M118.1881,115.571 C118.2821,115.024 118.3751,114.476 118.4691,113.929 C118.5061,113.711 118.1731,113.618 118.1351,113.837 C118.0421,114.384 117.9481,114.932 117.8541,115.479 C117.8171,115.697 118.1511,115.791 118.1881,115.571" id="Fill-55" fill="#FFFFFF"></path>
            <path d="M121.3121,114.5426 C121.4581,114.4866 121.6031,114.4316 121.7491,114.3756 C121.9561,114.2966 121.8661,113.9616 121.6571,114.0416 L121.2201,114.2086 C121.0141,114.2876 121.1031,114.6226 121.3121,114.5426" id="Fill-57" fill="#FFFFFF"></path>
            <path d="M117.4654,119.0553 C117.6544,118.7243 117.8444,118.3923 118.0344,118.0613 C118.1454,117.8683 117.8464,117.6933 117.7354,117.8863 C117.5454,118.2173 117.3564,118.5493 117.1654,118.8803 C117.0554,119.0743 117.3544,119.2483 117.4654,119.0553" id="Fill-59" fill="#FFFFFF"></path>
            <path d="M119.5152,120.8083 C119.9532,120.8623 120.3912,120.9163 120.8292,120.9703 C121.0502,120.9973 121.0482,120.6513 120.8292,120.6233 C120.3912,120.5703 119.9532,120.5163 119.5152,120.4613 C119.2942,120.4343 119.2962,120.7813 119.5152,120.8083" id="Fill-61" fill="#FFFFFF"></path>
            <path d="M120.1012,117.3219 C120.1992,117.2129 120.2952,117.1029 120.3932,116.9939 C120.5402,116.8279 120.2962,116.5819 120.1482,116.7489 C120.0502,116.8579 119.9542,116.9679 119.8562,117.0769 C119.7082,117.2429 119.9532,117.4889 120.1012,117.3219" id="Fill-63" fill="#FFFFFF"></path>
            <path d="M115.1373,116.1979 L115.7213,116.1979 C115.9443,116.1979 115.9453,115.8509 115.7213,115.8509 L115.1373,115.8509 C114.9143,115.8509 114.9143,116.1979 115.1373,116.1979" id="Fill-65" fill="#FFFFFF"></path>
            <path d="M105.234,118.6071 C105.621,119.0751 106.066,119.4641 106.583,119.7821 C106.773,119.8981 106.948,119.5991 106.757,119.4821 C106.265,119.1801 105.847,118.8061 105.478,118.3621 C105.337,118.1901 105.092,118.4371 105.234,118.6071" id="Fill-67" fill="#FFFFFF"></path>
            <path d="M109.2779,118.9782 C109.1959,119.5882 109.2979,120.1622 109.5789,120.7092 C109.6799,120.9082 109.9799,120.7322 109.8779,120.5342 C109.6229,120.0392 109.5499,119.5282 109.6249,118.9782 C109.6539,118.7572 109.3069,118.7602 109.2779,118.9782" id="Fill-69" fill="#FFFFFF"></path>
            <path d="M102.1441,123.4137 L103.6041,123.4137 C103.8281,123.4137 103.8281,123.0667 103.6041,123.0667 L102.1441,123.0667 C101.9211,123.0667 101.9211,123.4137 102.1441,123.4137" id="Fill-71" fill="#FFFFFF"></path>
            <path d="M101.6373,127.4587 C102.1253,127.2437 102.6133,127.0287 103.1013,126.8137 C103.3053,126.7257 103.1283,126.4267 102.9263,126.5157 C102.4383,126.7297 101.9503,126.9447 101.4623,127.1597 C101.2583,127.2487 101.4353,127.5477 101.6373,127.4587" id="Fill-73" fill="#FFFFFF"></path>
            <path d="M102.3873,130.8151 C102.7763,130.8701 103.1653,130.9251 103.5553,130.9801 C103.7733,131.0111 103.8663,130.6771 103.6473,130.6461 C103.2573,130.5911 102.8683,130.5361 102.4793,130.4801 C102.2613,130.4501 102.1663,130.7841 102.3873,130.8151" id="Fill-75" fill="#FFFFFF"></path>
            <path d="M108.5181,130.3425 C108.6341,131.1045 108.7501,131.8655 108.8681,132.6275 C108.9011,132.8475 109.2351,132.7535 109.2021,132.5355 C109.0841,131.7745 108.9681,131.0125 108.8521,130.2505 C108.8181,130.0305 108.4851,130.1245 108.5181,130.3425" id="Fill-77" fill="#FFFFFF"></path>
            <path d="M105.6959,124.7321 C106.0379,124.8921 106.3799,125.0521 106.7219,125.2111 C106.9229,125.3061 107.0979,125.0071 106.8969,124.9131 C106.5539,124.7531 106.2129,124.5921 105.8709,124.4331 C105.6699,124.3381 105.4939,124.6371 105.6959,124.7321" id="Fill-79" fill="#FFFFFF"></path>
            <path d="M111.022,123.568 L111.022,124.88 C111.022,125.103 111.369,125.103 111.369,124.88 L111.369,123.568 C111.369,123.345 111.022,123.344 111.022,123.568" id="Fill-81" fill="#FFFFFF"></path>
            <path d="M111.5924,128.3571 C112.1214,128.1241 112.6524,127.8891 113.1824,127.6561 C113.3854,127.5661 113.2094,127.2671 113.0074,127.3571 C112.4774,127.5901 111.9464,127.8241 111.4174,128.0581 C111.2134,128.1481 111.3894,128.4461 111.5924,128.3571" id="Fill-83" fill="#FFFFFF"></path>
            <path d="M114.1949,130.5915 C114.7249,130.1995 115.2549,129.8075 115.7839,129.4145 C115.9619,129.2835 115.7889,128.9835 115.6089,129.1155 C115.0799,129.5075 114.5499,129.9005 114.0199,130.2925 C113.8429,130.4235 114.0159,130.7245 114.1949,130.5915" id="Fill-85" fill="#FFFFFF"></path>
            <path d="M114.7906,134.8757 C115.2776,134.6047 115.7656,134.3337 116.2536,134.0637 C116.4476,133.9547 116.2736,133.6547 116.0786,133.7637 C115.5906,134.0347 115.1026,134.3057 114.6156,134.5767 C114.4206,134.6857 114.5956,134.9837 114.7906,134.8757" id="Fill-87" fill="#FFFFFF"></path>
            <path d="M107.5465,135.7087 C108.0195,135.7597 108.4595,135.7037 108.9055,135.5417 C109.1135,135.4667 109.0245,135.1317 108.8145,135.2077 C108.3945,135.3597 107.9905,135.4097 107.5465,135.3617 C107.3245,135.3377 107.3265,135.6847 107.5465,135.7087" id="Fill-89" fill="#FFFFFF"></path>
            <path d="M114.3609,125.0495 C114.6539,124.8335 114.9479,124.6175 115.2409,124.4015 C115.4189,124.2705 115.2459,123.9695 115.0659,124.1025 C114.7729,124.3185 114.4789,124.5345 114.1859,124.7505 C114.0079,124.8815 114.1809,125.1825 114.3609,125.0495" id="Fill-91" fill="#FFFFFF"></path>
            <path d="M114.3043,121.2663 C114.4503,121.2103 114.5963,121.1553 114.7413,121.0983 C114.9483,121.0203 114.8583,120.6853 114.6503,120.7643 C114.5033,120.8203 114.3583,120.8763 114.2123,120.9323 C114.0063,121.0103 114.0963,121.3463 114.3043,121.2663" id="Fill-93" fill="#FFFFFF"></path>
            <path d="M173.4469,118.0085 C175.4639,120.8055 177.4799,123.6035 179.4969,126.4005 C179.6269,126.5795 179.9269,126.4065 179.7969,126.2255 C177.7799,123.4285 175.7629,120.6305 173.7469,117.8335 C173.6179,117.6545 173.3169,117.8265 173.4469,118.0085" id="Fill-95" fill="#FFFFFF"></path>
            <path d="M172.817,101.7809 C178.67,108.4969 179.065,117.3929 179.33,125.8829 C179.337,126.1049 179.682,126.1059 179.675,125.8829 C179.408,117.2959 178.972,108.3179 173.062,101.5359 C172.916,101.3679 172.671,101.6139 172.817,101.7809" id="Fill-97" fill="#FFFFFF"></path>
            <path d="M176.3004,112.11 C177.0394,113.165 177.7214,114.255 178.3514,115.379 C178.4594,115.573 178.7594,115.398 178.6504,115.204 C178.0214,114.08 177.3384,112.99 176.6004,111.934 C176.4734,111.754 176.1724,111.926 176.3004,112.11" id="Fill-99" fill="#FFFFFF"></path>
            <path d="M178.9615,110.0973 C178.9875,111.7213 178.9035,113.3343 178.7095,114.9473 C178.6835,115.1673 179.0295,115.1653 179.0565,114.9473 C179.2505,113.3343 179.3345,111.7203 179.3085,110.0973 C179.3055,109.8743 178.9585,109.8733 178.9615,110.0973" id="Fill-101" fill="#FFFFFF"></path>
            <path d="M179.7115,126.8385 C182.1515,125.1905 182.9305,121.5105 183.9675,118.8775 C185.9845,113.7575 187.6495,108.5245 189.0655,103.2065 C189.1225,102.9905 188.7885,102.8995 188.7315,103.1145 C187.6875,107.0355 186.5235,110.9175 185.1555,114.7385 C183.8585,118.3595 182.8085,124.3295 179.5365,126.5395 C179.3535,126.6635 179.5265,126.9635 179.7115,126.8385" id="Fill-103" fill="#FFFFFF"></path>
            <path d="M186.4058,110.8542 C186.2318,109.6582 186.2198,108.4642 186.3588,107.2642 C186.3848,107.0422 186.0388,107.0442 186.0128,107.2642 C185.8698,108.4982 185.8928,109.7172 186.0718,110.9462 C186.1038,111.1662 186.4368,111.0732 186.4058,110.8542" id="Fill-105" fill="#FFFFFF"></path>
            <path d="M185.4566,115.3649 C186.7386,114.5469 187.8026,113.4759 188.6496,112.2149 C188.7736,112.0289 188.4746,111.8559 188.3506,112.0399 C187.5356,113.2529 186.5146,114.2789 185.2816,115.0659 C185.0946,115.1859 185.2686,115.4859 185.4566,115.3649" id="Fill-107" fill="#FFFFFF"></path>
            <path d="M181.7027,101.1257 C180.5527,106.6427 179.9097,112.8277 183.9737,117.3267 C184.1237,117.4927 184.3687,117.2477 184.2197,117.0827 C180.2377,112.6747 180.9157,106.5957 182.0377,101.2187 C182.0827,101.0007 181.7487,100.9077 181.7027,101.1257" id="Fill-109" fill="#FFFFFF"></path>
            <path d="M182.6568,122.8815 C185.0018,123.8835 187.5688,122.7355 189.5958,121.4425 C192.0958,119.8475 192.3338,116.9625 193.9718,114.6955 C194.1018,114.5155 193.8028,114.3425 193.6728,114.5215 C192.5408,116.0875 192.1768,118.0585 191.0398,119.6025 C189.4398,121.7755 185.4408,123.6975 182.8318,122.5825 C182.6288,122.4955 182.4518,122.7945 182.6568,122.8815" id="Fill-111" fill="#FFFFFF"></path>
            <path d="M37.9449,26.1862 C37.9449,25.3572 38.7869,25.4422 39.9399,25.2162 C39.9289,23.3572 39.6549,21.4932 39.5099,19.6942 C39.4849,19.3722 42.1779,19.5902 40.9239,18.1812 C40.3639,17.5512 38.5139,15.5162 38.4729,15.2732 C37.8019,11.2092 37.9309,10.3162 35.9749,7.3362 C31.6709,0.7752 14.3089,-0.9038 14.9899,13.1332 C15.2259,18.0042 17.6039,22.0672 20.7909,25.2162 L18.6549,50.9192 L33.1649,49.0032 L28.5719,30.6272 C30.9649,34.9042 35.8219,34.4312 37.1509,33.0022 C38.4489,31.6062 39.1769,30.1362 39.5629,28.6322 C38.6079,28.3402 37.9449,26.9222 37.9449,26.1862" id="Fill-113" fill="#B27B5F"></path>
            <polygon id="Fill-115" fill="#B27B5F" points="21.7203 86.7868 38.9053 146.5798 46.9873 191.4738 55.1003 191.4738 47.0013 86.7868"></polygon>
            <path d="M13.9976,86.7868 C15.1956,117.8488 14.7236,134.7918 14.4546,137.6128 C14.1866,140.4348 12.6636,159.3368 2.2816,192.4208 L10.7196,192.4208 C24.4686,160.6828 29.2686,141.7808 30.8446,137.6128 C32.4216,133.4458 37.0786,116.5038 43.8786,86.7868 L13.9976,86.7868 Z" id="Fill-117" fill="#B27B5F"></path>
            <path d="M21.3512,86.7868 C25.8212,107.3618 33.5522,140.2048 44.5442,185.3148 L56.4102,185.3148 C57.2872,139.0138 53.5582,108.5398 47.1022,86.7868 L21.3512,86.7868 Z" id="Fill-119" fill="#C8E9F1"></path>
            <path d="M13.9371,86.7868 C15.1121,117.8488 12.0681,148.4508 2.6411,185.7998 L15.3011,185.7998 C29.0761,154.5338 38.9481,124.0828 45.6951,86.7868 L13.9371,86.7868 Z" id="Fill-121" fill="#C8E9F1"></path>
            <path d="M1.0787,198.5788 L1.5447,190.9998 C4.2697,191.8048 7.6837,191.4888 11.7867,190.0528 C16.1977,193.2078 21.7517,195.3618 28.4457,196.5158 C28.9567,196.6028 29.3007,197.0938 29.2137,197.6088 C29.2077,197.6418 29.1997,197.6758 29.1907,197.7078 L28.5477,199.9998 L11.7867,199.9998 L2.0097,199.9998 L1.0787,198.5788 Z" id="Fill-123" fill="#666665"></path>
            <path d="M45.1763,198.5788 L45.6423,190.9998 C48.3673,191.8048 51.7813,191.4888 55.8843,190.0528 C60.2953,193.2078 65.8493,195.3618 72.5433,196.5158 C73.0543,196.6028 73.3983,197.0938 73.3113,197.6088 C73.3053,197.6418 73.2973,197.6758 73.2883,197.7078 L72.6453,199.9998 L55.8843,199.9998 L46.1083,199.9998 L45.1763,198.5788 Z" id="Fill-125" fill="#666665"></path>
            <polygon id="Fill-127" fill="#FFFDF6" points="94.5621 86.9694 97.6241 95.8574 114.5661 87.5394 113.1171 83.3294"></polygon>
            <path d="M111.0279,83.7839 L112.6319,88.4409 C113.1239,89.8689 114.5809,90.6699 115.8859,90.2299 L117.7719,89.5959 C118.1909,89.4539 118.4029,88.9679 118.2449,88.5099 L115.4319,80.3419 C115.2739,79.8829 114.8059,79.6259 114.3869,79.7669 L112.5019,80.4019 C111.1959,80.8419 110.5359,82.3559 111.0279,83.7839" id="Fill-129" fill="#DD7045"></path>
            <path d="M111.7916,85.9997 L112.6316,88.4407 C113.1236,89.8687 114.5806,90.6697 115.8876,90.2297 L117.7716,89.5957 C118.1906,89.4537 118.4026,88.9677 118.2456,88.5097 L117.4036,86.0677 C117.5626,86.5267 117.3516,87.0137 116.9316,87.1537 L115.0466,87.7897 C113.7396,88.2287 112.2836,87.4287 111.7916,85.9997" id="Fill-131" fill="#FF7061"></path>
            <path d="M75.8746,80.4587 C76.5636,80.8377 77.3766,80.5637 77.6886,79.8487 L80.7096,72.9157 C81.7346,70.5617 84.4026,69.6627 86.6686,70.9077 L90.3086,72.9087 L91.4376,70.3137 L87.7996,68.3127 C84.1546,66.3097 79.8616,67.7557 78.2126,71.5427 L75.1906,78.4757 C74.8796,79.1917 75.1856,80.0797 75.8746,80.4587" id="Fill-133" fill="#DD7045"></path>
            <path d="M73.1929,96.1247 L96.0629,108.6977 L98.1549,101.3547 L104.7019,78.3797 C104.8109,77.9957 104.6329,77.5677 104.2859,77.3767 L90.1689,69.6157 C89.8209,69.4257 89.4109,69.5297 89.2089,69.8617 L77.0719,89.7647 L73.1929,96.1247 Z" id="Fill-135" fill="#FFFDF6"></path>
            <path d="M72.8033,95.9108 L96.4513,108.9118 C96.8763,109.1448 97.3713,108.9318 97.4993,108.4608 L99.0763,102.6238 C99.1803,102.2418 99.0013,101.8208 98.6583,101.6318 L76.5683,89.4878 C76.2243,89.2988 75.8193,89.3988 75.6143,89.7238 L72.4783,94.7058 C72.2253,95.1068 72.3793,95.6778 72.8033,95.9108" id="Fill-137" fill="#DD7045"></path>
            <path d="M91.9088,84.0241 L93.9898,85.1691 C94.3738,85.3791 94.8248,85.2271 94.9988,84.8301 L102.5548,67.4881 C102.7278,67.0891 102.5578,66.5951 102.1758,66.3841 L100.0938,65.2401 C99.7098,65.0301 99.2588,65.1811 99.0848,65.5801 L91.5288,82.9211 C91.3548,83.3201 91.5248,83.8141 91.9088,84.0241" id="Fill-139" fill="#DD7045"></path>
            <path d="M73.6363,70.5241 C74.9153,71.1491 80.9073,71.3641 84.7693,71.1361 C86.3193,71.0451 86.6173,72.2751 86.4313,72.8151 C84.9123,77.2051 81.0853,76.5111 77.4403,77.3561 C73.4453,78.2821 76.9593,80.3951 73.8263,81.1701 C73.2433,78.9751 72.3273,76.2401 69.9753,74.8701 C68.9293,74.2601 62.1103,67.4911 46.3393,56.4831 L51.7633,51.7881 C64.6003,63.4261 71.8913,69.6721 73.6363,70.5241" id="Fill-141" fill="#B27B5F"></path>
            <path d="M18.9371,22.0192 C20.3651,20.9702 20.7361,16.8672 20.3831,12.8602 C20.2111,10.9032 19.8671,8.9692 19.3881,7.4252 C18.9891,6.1342 18.4961,5.1162 17.9321,4.5852 C16.2551,3.0072 13.4101,5.2272 12.9621,9.4582 C12.4951,13.8762 14.7111,19.8552 18.1711,22.2932 C18.4021,22.2812 18.6711,22.2142 18.9371,22.0192" id="Fill-143" fill="#C0D2E3"></path>
            <path d="M17.8765,6.0231 C18.7005,7.3821 22.0165,7.6691 25.2675,7.2591 C26.8545,7.0591 28.4265,6.6931 29.6845,6.2051 C30.7365,5.7961 31.5695,5.3031 32.0095,4.7511 C33.3155,3.1051 31.5675,0.3981 28.1495,0.0411 C24.5815,-0.3329 19.7025,1.9091 17.6675,5.2901 C17.6745,5.5111 17.7235,5.7711 17.8765,6.0231" id="Fill-145" fill="#C0D2E3"></path>
            <g id="Group-149" transform="translate(0.000000, 61.000000)">
                <mask id="mask-4" fill="white">
                    <use xlink:href="#path-3"></use>
                </mask>
                <g id="Clip-148"></g>
                <path d="M9.315,0.3073 L17.682,1.2373 C13.572,19.1113 12.497,46.3483 12.198,47.5263 C11.626,49.7803 12.085,51.6073 12.953,53.2693 C13.267,53.8713 12.83,54.6623 12.149,54.6573 C11.107,54.6483 11.443,52.8733 8.725,54.6923 C5.55,56.8173 4.349,59.7193 0.127,57.9083 C-0.391,57.6843 0.766,54.5473 1.924,53.4653 C4.807,50.7703 6.045,48.6853 6.499,47.3253 C7.116,45.4683 7.725,16.4393 9.315,0.3073" id="Fill-147" fill="#B27B5F" mask="url(#mask-4)"></path>
            </g>
            <path d="M14.6256,8.36 C14.3166,12.002 13.8946,17.507 16.4256,20.546 C16.5676,20.717 16.8126,20.471 16.6696,20.3 C14.2236,17.363 14.6696,11.937 14.9726,8.36 C14.9906,8.138 14.6456,8.139 14.6256,8.36" id="Fill-150" fill="#FFFFFF"></path>
            <path d="M15.9215,5.8991 C17.8165,10.7951 18.2325,15.8881 17.1945,21.0311 C17.1505,21.2491 17.4835,21.3411 17.5285,21.1231 C18.5765,15.9251 18.1695,10.7531 16.2555,5.8071 C16.1755,5.6011 15.8405,5.6911 15.9215,5.8991" id="Fill-152" fill="#FFFFFF"></path>
            <path d="M17.6666,5.1501 C19.7596,9.9861 21.4576,15.7031 17.9916,20.3491 C17.8576,20.5281 18.1586,20.7011 18.2906,20.5241 C21.8246,15.7881 20.1046,9.9191 17.9656,4.9751 C17.8776,4.7711 17.5786,4.9471 17.6666,5.1501" id="Fill-154" fill="#FFFFFF"></path>
            <path d="M20.2447,5.4577 C22.7517,6.1237 25.1297,5.2407 27.4327,4.2717 C27.6367,4.1867 27.5477,3.8527 27.3417,3.9377 C25.1017,4.8797 22.7847,5.7747 20.3367,5.1237 C20.1207,5.0667 20.0287,5.4007 20.2447,5.4577" id="Fill-156" fill="#FFFFFF"></path>
            <path d="M21.6539,5.0251 C23.8779,3.5781 26.4239,3.2341 28.9329,4.1181 C29.1439,4.1921 29.2349,3.8581 29.0249,3.7841 C26.4399,2.8731 23.7689,3.2351 21.4789,4.7251 C21.2929,4.8461 21.4669,5.1471 21.6539,5.0251" id="Fill-158" fill="#FFFFFF"></path>
            <path d="M17.3814,6.2038 C20.2914,5.2078 23.2904,5.8318 26.2794,5.3928 C28.4504,5.0748 30.4444,4.3418 32.3954,3.3698 C32.5954,3.2698 32.4194,2.9718 32.2204,3.0708 C29.3244,4.5128 26.4144,5.2188 23.1924,5.2428 C21.1394,5.2588 19.2594,5.1958 17.2884,5.8698 C17.0784,5.9408 17.1694,6.2758 17.3814,6.2038" id="Fill-160" fill="#FFFFFF"></path>
            <path d="M19.5103,6.8122 C24.0513,7.0042 28.6243,6.9092 32.0373,3.5252 C32.1973,3.3682 31.9513,3.1242 31.7923,3.2812 C28.4373,6.6072 23.9473,6.6542 19.5103,6.4652 C19.2873,6.4562 19.2873,6.8022 19.5103,6.8122" id="Fill-162" fill="#FFFFFF"></path>
            <path d="M16.9117,4.8766 C14.7857,6.2046 13.3367,8.2456 12.5887,10.6216 C12.5207,10.8356 12.8547,10.9266 12.9227,10.7146 C13.6427,8.4246 15.0377,6.4556 17.0867,5.1756 C17.2747,5.0586 17.1007,4.7576 16.9117,4.8766" id="Fill-164" fill="#FFFFFF"></path>
            <path d="M14.3756,7.4489 C12.7926,10.3249 13.1226,13.7679 15.4466,16.1369 C15.6046,16.2959 15.8486,16.0509 15.6916,15.8909 C13.4786,13.6359 13.1636,10.3679 14.6746,7.6239 C14.7816,7.4279 14.4826,7.2539 14.3756,7.4489" id="Fill-166" fill="#FFFFFF"></path>
            <path d="M15.1646,8.1276 C16.6586,11.9626 17.1946,15.9476 16.8136,20.0426 C16.7936,20.2646 17.1406,20.2636 17.1606,20.0426 C17.5466,15.8966 17.0116,11.9176 15.4986,8.0356 C15.4186,7.8306 15.0836,7.9196 15.1646,8.1276" id="Fill-168" fill="#FFFFFF"></path>
            <path d="M16.4625,6.2741 C16.8985,5.6001 17.7645,5.6061 18.3465,6.0851 C18.8975,6.5381 19.1745,7.2281 19.3935,7.8871 C19.4625,8.0981 19.7975,8.0081 19.7275,7.7951 C19.4385,6.9201 18.9995,5.8831 18.0785,5.5131 C17.3585,5.2241 16.5835,5.4501 16.1635,6.0991 C16.0425,6.2871 16.3425,6.4611 16.4625,6.2741" id="Fill-170" fill="#FFFFFF"></path>
            <path d="M20.8443,7.4499 C21.4623,5.6449 23.1413,4.5129 25.0383,5.1519 C25.2503,5.2229 25.3413,4.8889 25.1313,4.8179 C23.0583,4.1209 21.1863,5.3859 20.5103,7.3569 C20.4383,7.5689 20.7733,7.6599 20.8443,7.4499" id="Fill-172" fill="#FFFFFF"></path>
            <path d="M24.19,5.6423 C25.824,3.8983 27.836,2.7183 30.19,2.2663 C30.409,2.2243 30.316,1.8903 30.098,1.9323 C27.691,2.3943 25.614,3.6163 23.945,5.3983 C23.793,5.5603 24.037,5.8063 24.19,5.6423" id="Fill-174" fill="#FFFFFF"></path>
            <path d="M26.2574,7.0632 C27.1784,6.0942 28.3464,5.5182 29.6924,5.4872 C29.9144,5.4822 29.9154,5.1352 29.6924,5.1402 C28.2624,5.1732 26.9924,5.7872 26.0134,6.8182 C25.8594,6.9792 26.1044,7.2252 26.2574,7.0632" id="Fill-176" fill="#FFFFFF"></path>
            <path d="M21.6109,19.1774 C21.6879,17.5584 21.4379,16.1994 23.1799,15.0974 C24.0769,14.5314 25.6939,14.3734 26.7189,14.0774 C29.0779,13.3984 31.4369,12.7184 33.7969,12.0384 C34.0099,11.9774 33.9199,11.6434 33.7039,11.7044 C30.1869,12.7184 26.1959,13.3784 22.8469,14.8424 C20.9999,15.6494 21.3519,17.3364 21.2639,19.1774 C21.2539,19.4004 21.5999,19.3994 21.6109,19.1774" id="Fill-178" fill="#FFFFFF"></path>
            <path d="M33.3189,12.2243 C33.3769,13.8993 33.4129,17.0103 34.9659,18.0633 C36.0449,18.7933 37.6829,18.1343 38.0639,16.9273 C38.3759,15.9413 38.2049,14.7493 38.0089,13.7563 C37.8479,12.9403 37.6749,11.2783 37.0509,10.6583 C35.9289,9.5413 34.0209,10.5963 33.5249,11.7643 C33.4379,11.9673 33.7369,12.1443 33.8239,11.9393 C34.1319,11.2143 34.8399,10.5373 35.7139,10.6193 C36.9669,10.7363 37.1829,11.9013 37.4199,12.7793 C37.7209,13.8973 38.0599,15.2463 37.7899,16.4023 C37.5959,17.2223 36.9399,18.0973 35.9639,18.0223 C34.7119,17.9263 34.4099,16.7333 34.1709,15.8463 C33.8509,14.6623 33.7079,13.4483 33.6659,12.2243 C33.6579,12.0023 33.3119,12.0003 33.3189,12.2243" id="Fill-180" fill="#FFFFFF"></path>
            <path d="M54.0279,55.53 L50.4329,62.793 C50.2209,63.222 50.1049,63.681 50.0899,64.145 L49.4519,85.415 C49.3889,87.476 49.5049,91.048 47.0259,91.048 L18.4769,92.331 C15.6029,92.331 13.5859,86.941 14.1339,84.594 L15.1629,71.124 C15.6589,69 16.3309,65.743 13.7589,65.422 L6.9369,64.571 C4.6999,64.292 3.0459,62.693 3.0459,60.811 C3.0459,60.428 3.1149,60.048 3.2519,59.681 L17.2319,37.039 C25.1469,43.294 32.9119,33.906 35.4519,35.197 L53.1979,50.604 C55.1149,51.578 54.8829,53.801 54.0279,55.53" id="Fill-182" fill="#FFFDF6"></path>
            <path d="M30.9049,53.9811 C35.2169,53.0651 39.4849,51.9271 43.6829,50.5741" id="Fill-184" fill="#FFFDF6"></path>
            <path d="M35.2867,14.0983 C35.2557,14.2823 35.2657,14.3993 35.3607,14.5653 C35.4367,14.6973 35.6357,14.6633 35.6787,14.5243 C35.7787,14.1893 35.7167,13.9013 35.4977,13.6323 C35.4127,13.5283 35.2417,13.5943 35.2087,13.7093 C35.0997,14.0813 35.1457,14.4373 35.3717,14.7563 C35.4397,14.8533 35.6097,14.8843 35.6707,14.7563 C35.8397,14.4023 35.8297,14.0363 35.5877,13.7183 C35.5117,13.6183 35.3607,13.5963 35.2887,13.7183 C35.1007,14.0323 35.1367,14.3793 35.3817,14.6493 C35.4757,14.7543 35.6267,14.6863 35.6707,14.5733 C35.7927,14.2603 35.7617,13.9593 35.5777,13.6793 C35.4557,13.4943 35.1557,13.6663 35.2787,13.8543 C35.4087,14.0523 35.4217,14.2623 35.3367,14.4813 C35.4327,14.4553 35.5297,14.4303 35.6257,14.4043 C35.4837,14.2383 35.4717,14.0683 35.5877,13.8933 L35.2887,13.8933 C35.4437,14.0973 35.4867,14.3383 35.3717,14.5813 L35.6707,14.5813 C35.4957,14.3333 35.4567,14.0943 35.5427,13.8013 L35.2527,13.8773 C35.3927,14.0533 35.4237,14.2383 35.3447,14.4313 L35.6607,14.3903 C35.6467,14.3243 35.6347,14.2573 35.6207,14.1903 C35.6577,13.9723 35.3237,13.8783 35.2867,14.0983" id="Fill-186" fill="#F4F4F4"></path>
        </g>
        <g id="Group-190" transform="translate(400.000000, 0.000000)">
            <path d="M154.7291,139.8669 C156.3161,125.8659 152.2251,110.5259 142.6461,99.9799 C135.2091,91.7939 125.1031,86.6369 113.8801,87.3339 L114.5791,89.8779 C115.6531,90.3529 116.7271,90.8289 117.7701,91.3689 C126.6671,95.9759 132.6031,104.9679 135.9191,114.4219 C139.2361,123.8749 140.2881,133.9409 141.8341,143.8399 L154.7291,139.8669 Z" id="Fill-1" fill="#9AD6F5"></path>
            <path d="M138.4869,137.6432 C136.4239,136.5942 135.8089,136.8172 135.1319,135.9252 C134.2599,134.7802 134.7919,133.7792 134.3809,132.1942 C133.5289,128.9082 130.2579,129.3922 127.8779,125.8382 C126.1199,123.2132 127.4249,122.2322 125.5369,118.5082 C123.8909,115.2652 122.7129,115.6372 120.4729,112.2472 C118.5579,109.3472 115.8539,103.6732 117.6619,101.1422 C118.4249,100.0752 120.0079,99.5402 121.2239,99.9412 C123.6629,100.7432 123.9269,105.0722 126.1709,105.2572 C126.8219,105.3122 127.2449,104.9842 128.1709,105.2642 C129.1859,105.5722 129.8239,106.3142 130.0469,106.5732 C132.0759,108.9322 130.7559,112.8292 132.6619,116.1052 C134.0529,118.4972 135.2939,117.3442 137.4519,120.1642 C138.9279,122.0952 139.4419,124.1802 140.4699,128.3502 C141.0799,130.8252 140.5809,129.7032 141.6519,135.5412 C142.0529,137.7312 142.3279,139.0072 141.8409,139.3612 C141.3609,139.7112 140.6849,138.7602 138.4869,137.6432" id="Fill-3" fill="#74AF90"></path>
            <path d="M141.0113,139.1979 C139.7013,136.4599 139.4363,131.6939 139.3323,130.0669 C139.1993,127.9789 140.2943,126.9959 140.8553,124.6239 C142.0183,119.7059 138.6593,118.2149 138.5483,111.9439 C138.4653,107.3109 140.2773,106.8609 140.7273,100.6839 C141.1183,95.3049 139.7903,95.0309 139.7133,89.0689 C139.6483,83.9699 140.4973,74.6719 143.7033,72.4899 C145.0563,71.5699 146.8613,71.8939 147.7633,73.2189 C149.5723,75.8729 147.2363,81.7949 149.2293,83.5039 C149.8083,83.9999 150.4003,83.8399 151.1013,84.8159 C151.8693,85.8859 152.0263,87.2889 152.0803,87.7779 C152.5753,92.2329 149.0113,96.5459 148.8453,102.1399 C148.7233,106.2229 150.5743,105.5019 150.9143,110.6529 C151.1483,114.1789 150.3863,117.2839 148.8623,123.4909 C147.9563,127.1749 153.1073,126.9339 150.6263,135.3849 C149.6973,138.5539 147.3353,139.6799 146.6673,139.8329 C146.0073,139.9839 142.4073,142.1149 141.0113,139.1979" id="Fill-5" fill="#74AF90"></path>
            <path d="M155.1519,136.0212 C157.1809,134.8852 156.6089,133.6282 157.4449,132.7392 C158.5189,131.5952 158.2719,130.3692 159.0289,128.6472 C160.5989,125.0782 163.4859,126.2032 166.5229,122.6002 C168.7669,119.9382 167.8029,118.5972 170.4299,114.7152 C172.7179,111.3342 173.7119,111.9632 176.5799,108.5212 C179.0329,105.5772 182.8769,99.6292 181.8239,96.4462 C181.3809,95.1032 180.0539,94.2192 178.8419,94.4572 C176.4119,94.9342 175.1309,99.7902 173.0269,99.6032 C172.4159,99.5492 172.1069,99.1032 171.1889,99.2572 C170.1829,99.4272 169.4199,100.1552 169.1529,100.4092 C166.7249,102.7202 167.0029,107.3652 164.4649,110.7382 C162.6149,113.1992 161.7539,111.6752 159.0959,114.4872 C157.2769,116.4132 156.3049,118.6822 154.3619,123.2212 C153.2089,125.9152 152.4449,123.8822 150.0609,130.3032 C149.1679,132.7102 149.9449,136.2082 150.3439,136.6572 C152.3239,138.8802 153.3629,137.0222 155.1519,136.0212" id="Fill-7" fill="#74AF90"></path>
            <path d="M125.4459,111.2194 C129.3609,115.8754 132.7879,120.8534 135.6289,126.2354 C138.1639,131.0374 139.7859,136.2734 142.4909,140.9784 C142.6019,141.1714 142.9019,140.9974 142.7899,140.8034 C139.7999,135.6034 138.0129,129.7814 135.0919,124.5164 C132.4129,119.6874 129.2419,115.1984 125.6909,110.9744 C125.5479,110.8034 125.3029,111.0494 125.4459,111.2194" id="Fill-9" fill="#FFFFFF"></path>
            <path d="M144.8512,83.6676 C144.6972,94.0466 144.5232,104.4246 144.3892,114.8036 C144.2702,124.1456 145.5322,132.6206 147.8392,141.6686 C147.8942,141.8856 148.2282,141.7936 148.1732,141.5766 C145.7102,131.9196 144.6202,122.7996 144.7652,112.8566 C144.9072,103.1276 145.0532,93.3976 145.1982,83.6676 C145.2012,83.4446 144.8542,83.4446 144.8512,83.6676" id="Fill-11" fill="#FFFFFF"></path>
            <path d="M148.4293,140.5827 C150.6993,133.2507 154.4723,126.7177 159.4253,120.8697 C163.2363,116.3697 168.1843,112.8417 171.6573,108.0917 C171.7883,107.9107 171.4883,107.7377 171.3573,107.9167 C167.2923,113.4777 161.4353,117.5787 157.1943,123.0787 C153.1353,128.3437 150.0603,134.1437 148.0953,140.4907 C148.0293,140.7037 148.3643,140.7957 148.4293,140.5827" id="Fill-13" fill="#FFFFFF"></path>
            <polygon id="Fill-15" fill="#FADB4B" points="155.7691 163.5759 137.3091 163.5759 133.9091 137.9299 159.6561 138.4749"></polygon>
            <path d="M177.2574,109.1276 C177.2574,109.1276 177.5004,100.3476 184.1404,96.6066 L186.5974,95.2236 C184.6984,99.8556 183.7164,104.8936 183.7164,109.9906 L183.7164,110.4066 L180.7344,115.5706 L177.2574,109.1276 Z" id="Fill-17" fill="#B5D783"></path>
            <path d="M179.2906,127.7585 L179.2906,126.5185 C179.2906,113.8945 184.6656,102.0315 193.7516,94.6035 L193.7446,94.6195 C191.0616,101.1895 188.9296,113.2245 187.9256,120.3245 L186.5206,127.7585 L179.2906,127.7585 Z" id="Fill-19" fill="#B5D783"></path>
            <path d="M182.1773,116.0651 C182.1773,107.7861 177.9433,100.2431 171.2923,96.6721 L167.7153,94.7531 L167.9543,95.2401 C171.1673,101.7991 173.3793,108.8881 174.5213,116.2111 L179.5163,127.9081 L182.1773,116.0651 Z" id="Fill-21" fill="#B5D783"></path>
            <path d="M181.0357,128.1676 C181.0357,121.2256 177.4847,114.8986 171.9077,111.9046 L168.9077,110.2946 L169.1087,110.7036 C171.8007,116.1986 173.6537,122.1366 174.6127,128.2706 L181.0357,128.1676 Z" id="Fill-23" fill="#B5D783"></path>
            <path d="M185.9156,127.7585 C187.4076,119.6635 191.1066,112.2915 196.4996,106.6655 L196.9436,106.2015 L196.3916,111.0805 C195.7336,116.8895 194.1996,122.5295 191.8556,127.7585 L185.9156,127.7585 Z" id="Fill-25" fill="#B5D783"></path>
            <path d="M190.1012,163.5778 L176.9472,163.5778 C171.4802,163.5778 167.0472,158.5998 167.0472,152.4588 L167.0472,127.7588 L199.9992,127.7588 L199.9992,152.4588 C199.9992,158.5998 195.5682,163.5778 190.1012,163.5778" id="Fill-27" fill="#FFB53E"></path>
            <polygon id="Fill-29" fill="#DD7045" points="121.1402 163.5778 102.9962 163.5778 98.0902 141.1008 126.0462 141.1008"></polygon>
            <path d="M101.4195,123.3083 C100.6095,125.3203 100.4515,127.6543 101.0995,129.8833 C101.6595,131.8143 102.7785,133.4783 104.2785,134.6133 L112.8615,141.1013 L116.6055,141.1013 L116.6055,127.2423 C116.6055,125.2113 116.0005,123.2393 114.8875,121.6383 C113.5035,119.6473 111.5055,118.4583 109.3985,118.1943 C106.0375,117.7613 102.8145,119.8223 101.4275,123.2883 L101.4195,123.3083 Z" id="Fill-31" fill="#2E91A0"></path>
            <path d="M105.9937,113.8952 C105.3807,111.7852 106.1847,109.4872 107.9027,108.4062 C109.6607,107.4092 111.8057,107.9422 113.0227,109.6922 C113.5907,110.5082 113.8987,111.5132 113.8987,112.5492 L113.8987,121.0572 L107.6147,116.3062 C106.8497,115.7282 106.2797,114.8792 105.9937,113.8952" id="Fill-33" fill="#2E91A0"></path>
            <path d="M116.2271,124.5026 L122.4761,119.7766 C123.5011,119.0016 124.2671,117.8626 124.6511,116.5426 C125.4731,113.7106 124.3931,110.6296 122.0881,109.1806 C119.7311,107.8426 116.8521,108.5576 115.2201,110.9056 C114.4591,112.0006 114.0461,113.3496 114.0461,114.7376 L114.0471,120.6056 L116.2271,124.5026 Z" id="Fill-35" fill="#2E91A0"></path>
            <path d="M107.1314,110.4079 C107.5074,110.8779 107.9624,111.2169 108.5224,111.4369 C108.7294,111.5189 108.8184,111.1839 108.6134,111.1029 C108.1134,110.9049 107.7104,110.5809 107.3764,110.1629 C107.2374,109.9889 106.9934,110.2349 107.1314,110.4079" id="Fill-37" fill="#FFFFFF"></path>
            <path d="M109.5318,107.5036 C109.6198,108.1606 109.7078,108.8176 109.7968,109.4756 C109.8258,109.6926 110.1728,109.6956 110.1418,109.4756 C110.0538,108.8176 109.9668,108.1606 109.8778,107.5036 C109.8488,107.2856 109.5018,107.2826 109.5318,107.5036" id="Fill-39" fill="#FFFFFF"></path>
            <path d="M110.6031,112.7194 C110.9521,112.2894 111.3001,111.8614 111.6491,111.4324 C111.7891,111.2604 111.5451,111.0144 111.4041,111.1874 C111.0551,111.6154 110.7071,112.0454 110.3581,112.4744 C110.2191,112.6464 110.4621,112.8924 110.6031,112.7194" id="Fill-41" fill="#FFFFFF"></path>
            <path d="M107.8385,114.2301 L108.8595,114.2301 C109.0825,114.2301 109.0835,113.8841 108.8595,113.8841 L107.8385,113.8841 C107.6145,113.8841 107.6145,114.2301 107.8385,114.2301" id="Fill-43" fill="#FFFFFF"></path>
            <path d="M112.5103,113.9782 C112.7053,113.6512 112.9003,113.3232 113.0953,112.9952 C113.2093,112.8032 112.9093,112.6282 112.7953,112.8202 C112.6013,113.1482 112.4063,113.4762 112.2113,113.8032 C112.0973,113.9962 112.3963,114.1692 112.5103,113.9782" id="Fill-45" fill="#FFFFFF"></path>
            <path d="M115.6978,109.0212 C115.8868,109.5152 116.0768,110.0092 116.2658,110.5042 C116.3448,110.7102 116.6798,110.6212 116.5998,110.4122 L116.0318,108.9292 C115.9528,108.7232 115.6178,108.8122 115.6978,109.0212" id="Fill-47" fill="#FFFFFF"></path>
            <path d="M118.7701,110.0856 C119.1561,109.5916 119.5421,109.0966 119.9281,108.6016 C120.0641,108.4276 119.8211,108.1806 119.6831,108.3566 C119.2971,108.8516 118.9111,109.3466 118.5251,109.8416 C118.3891,110.0156 118.6321,110.2616 118.7701,110.0856" id="Fill-49" fill="#FFFFFF"></path>
            <path d="M122.0416,111.0895 C122.6106,110.9245 123.0376,110.5685 123.3456,110.0665 C123.4626,109.8755 123.1626,109.7005 123.0466,109.8915 C122.7846,110.3175 122.4336,110.6145 121.9486,110.7555 C121.7356,110.8175 121.8266,111.1515 122.0416,111.0895" id="Fill-51" fill="#FFFFFF"></path>
            <path d="M123.3131,114.7223 L124.9181,114.7223 C125.1411,114.7223 125.1421,114.3753 124.9181,114.3753 L123.3131,114.3753 C123.0901,114.3753 123.0891,114.7223 123.3131,114.7223" id="Fill-53" fill="#FFFFFF"></path>
            <path d="M122.0933,118.1833 C122.6273,118.3503 123.1613,118.5183 123.6963,118.6863 C123.9093,118.7523 124.0003,118.4183 123.7883,118.3513 C123.2533,118.1843 122.7193,118.0163 122.1853,117.8493 C121.9723,117.7823 121.8803,118.1173 122.0933,118.1833" id="Fill-55" fill="#FFFFFF"></path>
            <path d="M118.1881,115.571 C118.2821,115.024 118.3751,114.476 118.4691,113.929 C118.5061,113.711 118.1731,113.618 118.1351,113.837 C118.0421,114.384 117.9481,114.932 117.8541,115.479 C117.8171,115.697 118.1511,115.791 118.1881,115.571" id="Fill-57" fill="#FFFFFF"></path>
            <path d="M121.3121,114.5426 C121.4581,114.4866 121.6031,114.4316 121.7491,114.3756 C121.9561,114.2966 121.8661,113.9616 121.6571,114.0416 L121.2201,114.2086 C121.0141,114.2876 121.1031,114.6226 121.3121,114.5426" id="Fill-59" fill="#FFFFFF"></path>
            <path d="M117.4654,119.0553 C117.6544,118.7243 117.8444,118.3923 118.0344,118.0613 C118.1454,117.8683 117.8464,117.6933 117.7354,117.8863 C117.5454,118.2173 117.3564,118.5493 117.1654,118.8803 C117.0554,119.0743 117.3544,119.2483 117.4654,119.0553" id="Fill-61" fill="#FFFFFF"></path>
            <path d="M119.5152,120.8083 C119.9532,120.8623 120.3912,120.9163 120.8292,120.9703 C121.0502,120.9973 121.0482,120.6513 120.8292,120.6233 C120.3912,120.5703 119.9532,120.5163 119.5152,120.4613 C119.2942,120.4343 119.2962,120.7813 119.5152,120.8083" id="Fill-63" fill="#FFFFFF"></path>
            <path d="M120.1012,117.3219 C120.1992,117.2129 120.2952,117.1029 120.3932,116.9939 C120.5402,116.8279 120.2962,116.5819 120.1482,116.7489 C120.0502,116.8579 119.9542,116.9679 119.8562,117.0769 C119.7082,117.2429 119.9532,117.4889 120.1012,117.3219" id="Fill-65" fill="#FFFFFF"></path>
            <path d="M115.1373,116.1979 L115.7213,116.1979 C115.9443,116.1979 115.9453,115.8509 115.7213,115.8509 L115.1373,115.8509 C114.9143,115.8509 114.9143,116.1979 115.1373,116.1979" id="Fill-67" fill="#FFFFFF"></path>
            <path d="M105.234,118.6071 C105.621,119.0751 106.066,119.4641 106.583,119.7821 C106.773,119.8981 106.948,119.5991 106.757,119.4821 C106.265,119.1801 105.847,118.8061 105.478,118.3621 C105.337,118.1901 105.092,118.4371 105.234,118.6071" id="Fill-69" fill="#FFFFFF"></path>
            <path d="M109.2779,118.9782 C109.1959,119.5882 109.2979,120.1622 109.5789,120.7092 C109.6799,120.9082 109.9799,120.7322 109.8779,120.5342 C109.6229,120.0392 109.5499,119.5282 109.6249,118.9782 C109.6539,118.7572 109.3069,118.7602 109.2779,118.9782" id="Fill-71" fill="#FFFFFF"></path>
            <path d="M102.1441,123.4137 L103.6041,123.4137 C103.8281,123.4137 103.8281,123.0667 103.6041,123.0667 L102.1441,123.0667 C101.9211,123.0667 101.9211,123.4137 102.1441,123.4137" id="Fill-73" fill="#FFFFFF"></path>
            <path d="M101.6373,127.4587 C102.1253,127.2437 102.6133,127.0287 103.1013,126.8137 C103.3053,126.7257 103.1283,126.4267 102.9263,126.5157 C102.4383,126.7297 101.9503,126.9447 101.4623,127.1597 C101.2583,127.2487 101.4353,127.5477 101.6373,127.4587" id="Fill-75" fill="#FFFFFF"></path>
            <path d="M102.3873,130.8151 C102.7763,130.8701 103.1653,130.9251 103.5553,130.9801 C103.7733,131.0111 103.8663,130.6771 103.6473,130.6461 C103.2573,130.5911 102.8683,130.5361 102.4793,130.4801 C102.2613,130.4501 102.1663,130.7841 102.3873,130.8151" id="Fill-77" fill="#FFFFFF"></path>
            <path d="M108.5181,130.3425 C108.6341,131.1045 108.7501,131.8655 108.8681,132.6275 C108.9011,132.8475 109.2351,132.7535 109.2021,132.5355 C109.0841,131.7745 108.9681,131.0125 108.8521,130.2505 C108.8181,130.0305 108.4851,130.1245 108.5181,130.3425" id="Fill-79" fill="#FFFFFF"></path>
            <path d="M105.6959,124.7321 C106.0379,124.8921 106.3799,125.0521 106.7219,125.2111 C106.9229,125.3061 107.0979,125.0071 106.8969,124.9131 C106.5539,124.7531 106.2129,124.5921 105.8709,124.4331 C105.6699,124.3381 105.4939,124.6371 105.6959,124.7321" id="Fill-81" fill="#FFFFFF"></path>
            <path d="M111.022,123.568 L111.022,124.88 C111.022,125.103 111.369,125.103 111.369,124.88 L111.369,123.568 C111.369,123.345 111.022,123.344 111.022,123.568" id="Fill-83" fill="#FFFFFF"></path>
            <path d="M111.5924,128.3571 C112.1214,128.1241 112.6524,127.8891 113.1824,127.6561 C113.3854,127.5661 113.2094,127.2671 113.0074,127.3571 C112.4774,127.5901 111.9464,127.8241 111.4174,128.0581 C111.2134,128.1481 111.3894,128.4461 111.5924,128.3571" id="Fill-85" fill="#FFFFFF"></path>
            <path d="M114.1949,130.5915 C114.7249,130.1995 115.2549,129.8075 115.7839,129.4145 C115.9619,129.2835 115.7889,128.9835 115.6089,129.1155 C115.0799,129.5075 114.5499,129.9005 114.0199,130.2925 C113.8429,130.4235 114.0159,130.7245 114.1949,130.5915" id="Fill-87" fill="#FFFFFF"></path>
            <path d="M114.7906,134.8757 C115.2776,134.6047 115.7656,134.3337 116.2536,134.0637 C116.4476,133.9547 116.2736,133.6547 116.0786,133.7637 C115.5906,134.0347 115.1026,134.3057 114.6156,134.5767 C114.4206,134.6857 114.5956,134.9837 114.7906,134.8757" id="Fill-89" fill="#FFFFFF"></path>
            <path d="M107.5465,135.7087 C108.0195,135.7597 108.4595,135.7037 108.9055,135.5417 C109.1135,135.4667 109.0245,135.1317 108.8145,135.2077 C108.3945,135.3597 107.9905,135.4097 107.5465,135.3617 C107.3245,135.3377 107.3265,135.6847 107.5465,135.7087" id="Fill-91" fill="#FFFFFF"></path>
            <path d="M114.3609,125.0495 C114.6539,124.8335 114.9479,124.6175 115.2409,124.4015 C115.4189,124.2705 115.2459,123.9695 115.0659,124.1025 C114.7729,124.3185 114.4789,124.5345 114.1859,124.7505 C114.0079,124.8815 114.1809,125.1825 114.3609,125.0495" id="Fill-93" fill="#FFFFFF"></path>
            <path d="M114.3043,121.2663 C114.4503,121.2103 114.5963,121.1553 114.7413,121.0983 C114.9483,121.0203 114.8583,120.6853 114.6503,120.7643 C114.5033,120.8203 114.3583,120.8763 114.2123,120.9323 C114.0063,121.0103 114.0963,121.3463 114.3043,121.2663" id="Fill-95" fill="#FFFFFF"></path>
            <path d="M173.4469,118.0085 C175.4639,120.8055 177.4799,123.6035 179.4969,126.4005 C179.6269,126.5795 179.9269,126.4065 179.7969,126.2255 C177.7799,123.4285 175.7629,120.6305 173.7469,117.8335 C173.6179,117.6545 173.3169,117.8265 173.4469,118.0085" id="Fill-97" fill="#FFFFFF"></path>
            <path d="M172.817,101.7809 C178.67,108.4969 179.065,117.3929 179.33,125.8829 C179.337,126.1049 179.682,126.1059 179.675,125.8829 C179.408,117.2959 178.972,108.3179 173.062,101.5359 C172.916,101.3679 172.671,101.6139 172.817,101.7809" id="Fill-99" fill="#FFFFFF"></path>
            <path d="M176.3004,112.11 C177.0394,113.165 177.7214,114.255 178.3514,115.379 C178.4594,115.573 178.7594,115.398 178.6504,115.204 C178.0214,114.08 177.3384,112.99 176.6004,111.934 C176.4734,111.754 176.1724,111.926 176.3004,112.11" id="Fill-101" fill="#FFFFFF"></path>
            <path d="M178.9615,110.0973 C178.9875,111.7213 178.9035,113.3343 178.7095,114.9473 C178.6835,115.1673 179.0295,115.1653 179.0565,114.9473 C179.2505,113.3343 179.3345,111.7203 179.3085,110.0973 C179.3055,109.8743 178.9585,109.8733 178.9615,110.0973" id="Fill-103" fill="#FFFFFF"></path>
            <path d="M179.7115,126.8385 C182.1515,125.1905 182.9305,121.5105 183.9675,118.8775 C185.9845,113.7575 187.6495,108.5245 189.0655,103.2065 C189.1225,102.9905 188.7885,102.8995 188.7315,103.1145 C187.6875,107.0355 186.5235,110.9175 185.1555,114.7385 C183.8585,118.3595 182.8085,124.3295 179.5365,126.5395 C179.3535,126.6635 179.5265,126.9635 179.7115,126.8385" id="Fill-105" fill="#FFFFFF"></path>
            <path d="M186.4058,110.8542 C186.2318,109.6582 186.2198,108.4642 186.3588,107.2642 C186.3848,107.0422 186.0388,107.0442 186.0128,107.2642 C185.8698,108.4982 185.8928,109.7172 186.0718,110.9462 C186.1038,111.1662 186.4368,111.0732 186.4058,110.8542" id="Fill-107" fill="#FFFFFF"></path>
            <path d="M185.4566,115.3649 C186.7386,114.5469 187.8026,113.4759 188.6496,112.2149 C188.7736,112.0289 188.4746,111.8559 188.3506,112.0399 C187.5356,113.2529 186.5146,114.2789 185.2816,115.0659 C185.0946,115.1859 185.2686,115.4859 185.4566,115.3649" id="Fill-109" fill="#FFFFFF"></path>
            <path d="M181.7027,101.1257 C180.5527,106.6427 179.9097,112.8277 183.9737,117.3267 C184.1237,117.4927 184.3687,117.2477 184.2197,117.0827 C180.2377,112.6747 180.9157,106.5957 182.0377,101.2187 C182.0827,101.0007 181.7487,100.9077 181.7027,101.1257" id="Fill-111" fill="#FFFFFF"></path>
            <path d="M182.6568,122.8815 C185.0018,123.8835 187.5688,122.7355 189.5958,121.4425 C192.0958,119.8475 192.3338,116.9625 193.9718,114.6955 C194.1018,114.5155 193.8028,114.3425 193.6728,114.5215 C192.5408,116.0875 192.1768,118.0585 191.0398,119.6025 C189.4398,121.7755 185.4408,123.6975 182.8318,122.5825 C182.6288,122.4955 182.4518,122.7945 182.6568,122.8815" id="Fill-113" fill="#FFFFFF"></path>
            <path d="M37.9449,26.1862 C37.9449,25.3572 38.7869,25.4422 39.9399,25.2162 C39.9289,23.3572 39.6549,21.4932 39.5099,19.6942 C39.4849,19.3722 42.1779,19.5902 40.9239,18.1812 C40.3639,17.5512 38.5139,15.5162 38.4729,15.2732 C37.8019,11.2092 37.9309,10.3162 35.9749,7.3362 C31.6709,0.7752 14.3089,-0.9038 14.9899,13.1332 C15.2259,18.0042 17.6039,22.0672 20.7909,25.2162 L18.6549,50.9192 L33.1649,49.0032 L28.5719,30.6272 C30.9649,34.9042 35.8219,34.4312 37.1509,33.0022 C38.4489,31.6062 39.1769,30.1362 39.5629,28.6322 C38.6079,28.3402 37.9449,26.9222 37.9449,26.1862" id="Fill-115" fill="#B27B5F"></path>
            <polygon id="Fill-117" fill="#B27B5F" points="21.7203 86.7868 38.9053 146.5798 46.9873 191.4738 55.1003 191.4738 47.0013 86.7868"></polygon>
            <path d="M13.9976,86.7868 C15.1956,117.8488 14.7236,134.7918 14.4546,137.6128 C14.1866,140.4348 12.6636,159.3368 2.2816,192.4208 L10.7196,192.4208 C24.4686,160.6828 29.2686,141.7808 30.8446,137.6128 C32.4216,133.4458 37.0786,116.5038 43.8786,86.7868 L13.9976,86.7868 Z" id="Fill-119" fill="#B27B5F"></path>
            <path d="M21.3512,86.7868 C25.8212,107.3618 33.5522,140.2048 44.5442,185.3148 L56.4102,185.3148 C57.2872,139.0138 53.5582,108.5398 47.1022,86.7868 L21.3512,86.7868 Z" id="Fill-121" fill="#C8E9F1"></path>
            <path d="M13.9371,86.7868 C15.1121,117.8488 12.0681,148.4508 2.6411,185.7998 L15.3011,185.7998 C29.0761,154.5338 38.9481,124.0828 45.6951,86.7868 L13.9371,86.7868 Z" id="Fill-123" fill="#C8E9F1"></path>
            <path d="M1.0787,198.5788 L1.5447,190.9998 C4.2697,191.8048 7.6837,191.4888 11.7867,190.0528 C16.1977,193.2078 21.7517,195.3618 28.4457,196.5158 C28.9567,196.6028 29.3007,197.0938 29.2137,197.6088 C29.2077,197.6418 29.1997,197.6758 29.1907,197.7078 L28.5477,199.9998 L11.7867,199.9998 L2.0097,199.9998 L1.0787,198.5788 Z" id="Fill-125" fill="#666665"></path>
            <path d="M45.1763,198.5788 L45.6423,190.9998 C48.3673,191.8048 51.7813,191.4888 55.8843,190.0528 C60.2953,193.2078 65.8493,195.3618 72.5433,196.5158 C73.0543,196.6028 73.3983,197.0938 73.3113,197.6088 C73.3053,197.6418 73.2973,197.6758 73.2883,197.7078 L72.6453,199.9998 L55.8843,199.9998 L46.1083,199.9998 L45.1763,198.5788 Z" id="Fill-127" fill="#666665"></path>
            <polygon id="Fill-129" fill="#FFFDF6" points="92.6666 88.6696 94.4766 97.8946 112.4016 91.9856 111.5446 87.6166"></polygon>
            <path d="M109.4137,87.779 L110.3617,92.613 C110.6517,94.094 111.9857,95.089 113.3397,94.833 L115.2947,94.463 C115.7287,94.381 116.0057,93.928 115.9117,93.453 L114.2487,84.975 C114.1557,84.499 113.7277,84.18 113.2937,84.262 L111.3377,84.632 C109.9837,84.888 109.1227,86.297 109.4137,87.779" id="Fill-131" fill="#DD7045"></path>
            <path d="M109.8648,90.0788 L110.3618,92.6118 C110.6518,94.0948 111.9858,95.0888 113.3398,94.8328 L115.2948,94.4638 C115.7288,94.3808 116.0058,93.9288 115.9128,93.4528 L115.4148,90.9188 C115.5088,91.3948 115.2318,91.8478 114.7978,91.9298 L112.8428,92.2998 C111.4888,92.5558 110.1558,91.5608 109.8648,90.0788" id="Fill-133" fill="#FF7061"></path>
            <path d="M75.0513,79.6501 C75.6823,80.1211 76.5253,79.9621 76.9323,79.2951 L80.8783,72.8431 C82.2173,70.6531 84.9843,70.1291 87.0563,71.6751 L90.3863,74.1571 L91.8633,71.7431 L88.5333,69.2601 C85.1983,66.7741 80.7483,67.6161 78.5933,71.1401 L74.6483,77.5911 C74.2393,78.2581 74.4203,79.1801 75.0513,79.6501" id="Fill-135" fill="#DD7045"></path>
            <path d="M70.2408,94.7985 L91.1638,110.3975 L94.2458,103.4115 L103.8898,81.5555 C104.0518,81.1915 103.9338,80.7425 103.6168,80.5055 L90.7008,70.8765 C90.3838,70.6395 89.9628,70.6875 89.7168,70.9875 L74.9578,89.0315 L70.2408,94.7985 Z" id="Fill-137" fill="#FFFDF6"></path>
            <path d="M69.8844,94.5329 L91.5204,110.6629 C91.9074,110.9529 92.4284,110.8089 92.6184,110.3609 L94.9854,104.7959 C95.1394,104.4319 95.0214,103.9899 94.7064,103.7559 L74.4964,88.6879 C74.1824,88.4539 73.7664,88.4989 73.5194,88.7929 L69.7274,93.2949 C69.4224,93.6569 69.4964,94.2439 69.8844,94.5329" id="Fill-139" fill="#DD7045"></path>
            <path d="M90.442,85.3874 L92.347,86.8074 C92.698,87.0694 93.166,86.9804 93.392,86.6104 L103.262,70.4724 C103.489,70.1014 103.388,69.5894 103.038,69.3274 L101.133,67.9084 C100.783,67.6464 100.315,67.7354 100.088,68.1054 L90.218,84.2424 C89.992,84.6134 90.092,85.1254 90.442,85.3874" id="Fill-141" fill="#DD7045"></path>
            <path d="M73.6363,70.5241 C74.9153,71.1491 80.9073,71.3641 84.7693,71.1361 C86.3193,71.0451 86.6173,72.2751 86.4313,72.8151 C84.9123,77.2051 81.0853,76.5111 77.4403,77.3561 C73.4453,78.2821 76.9593,80.3951 73.8263,81.1701 C73.2433,78.9751 72.3273,76.2401 69.9753,74.8701 C68.9293,74.2601 62.1103,67.4911 46.3393,56.4831 L51.7633,51.7881 C64.6003,63.4261 71.8913,69.6721 73.6363,70.5241" id="Fill-143" fill="#B27B5F"></path>
            <path d="M18.9371,22.0192 C20.3651,20.9702 20.7361,16.8672 20.3831,12.8602 C20.2111,10.9032 19.8671,8.9692 19.3881,7.4252 C18.9891,6.1342 18.4961,5.1162 17.9321,4.5852 C16.2551,3.0072 13.4101,5.2272 12.9621,9.4582 C12.4951,13.8762 14.7111,19.8552 18.1711,22.2932 C18.4021,22.2812 18.6711,22.2142 18.9371,22.0192" id="Fill-145" fill="#C0D2E3"></path>
            <path d="M17.8765,6.0231 C18.7005,7.3821 22.0165,7.6691 25.2675,7.2591 C26.8545,7.0591 28.4265,6.6931 29.6845,6.2051 C30.7365,5.7961 31.5695,5.3031 32.0095,4.7511 C33.3155,3.1051 31.5675,0.3981 28.1495,0.0411 C24.5815,-0.3329 19.7025,1.9091 17.6675,5.2901 C17.6745,5.5111 17.7235,5.7711 17.8765,6.0231" id="Fill-147" fill="#C0D2E3"></path>
            <g id="Group-151" transform="translate(0.000000, 61.000000)">
                <mask id="mask-6" fill="white">
                    <use xlink:href="#path-5"></use>
                </mask>
                <g id="Clip-150"></g>
                <path d="M9.315,0.3073 L17.682,1.2373 C13.572,19.1113 12.497,46.3483 12.198,47.5263 C11.626,49.7803 12.085,51.6073 12.953,53.2693 C13.267,53.8713 12.83,54.6623 12.149,54.6573 C11.107,54.6483 11.443,52.8733 8.725,54.6923 C5.55,56.8173 4.349,59.7193 0.127,57.9083 C-0.391,57.6843 0.766,54.5473 1.924,53.4653 C4.807,50.7703 6.045,48.6853 6.499,47.3253 C7.116,45.4683 7.725,16.4393 9.315,0.3073" id="Fill-149" fill="#B27B5F" mask="url(#mask-6)"></path>
            </g>
            <path d="M14.6256,8.36 C14.3166,12.002 13.8946,17.507 16.4256,20.546 C16.5676,20.717 16.8126,20.471 16.6696,20.3 C14.2236,17.363 14.6696,11.937 14.9726,8.36 C14.9906,8.138 14.6456,8.139 14.6256,8.36" id="Fill-152" fill="#FFFFFF"></path>
            <path d="M15.9215,5.8991 C17.8165,10.7951 18.2325,15.8881 17.1945,21.0311 C17.1505,21.2491 17.4835,21.3411 17.5285,21.1231 C18.5765,15.9251 18.1695,10.7531 16.2555,5.8071 C16.1755,5.6011 15.8405,5.6911 15.9215,5.8991" id="Fill-154" fill="#FFFFFF"></path>
            <path d="M17.6666,5.1501 C19.7596,9.9861 21.4576,15.7031 17.9916,20.3491 C17.8576,20.5281 18.1586,20.7011 18.2906,20.5241 C21.8246,15.7881 20.1046,9.9191 17.9656,4.9751 C17.8776,4.7711 17.5786,4.9471 17.6666,5.1501" id="Fill-156" fill="#FFFFFF"></path>
            <path d="M20.2447,5.4577 C22.7517,6.1237 25.1297,5.2407 27.4327,4.2717 C27.6367,4.1867 27.5477,3.8527 27.3417,3.9377 C25.1017,4.8797 22.7847,5.7747 20.3367,5.1237 C20.1207,5.0667 20.0287,5.4007 20.2447,5.4577" id="Fill-158" fill="#FFFFFF"></path>
            <path d="M21.6539,5.0251 C23.8779,3.5781 26.4239,3.2341 28.9329,4.1181 C29.1439,4.1921 29.2349,3.8581 29.0249,3.7841 C26.4399,2.8731 23.7689,3.2351 21.4789,4.7251 C21.2929,4.8461 21.4669,5.1471 21.6539,5.0251" id="Fill-160" fill="#FFFFFF"></path>
            <path d="M17.3814,6.2038 C20.2914,5.2078 23.2904,5.8318 26.2794,5.3928 C28.4504,5.0748 30.4444,4.3418 32.3954,3.3698 C32.5954,3.2698 32.4194,2.9718 32.2204,3.0708 C29.3244,4.5128 26.4144,5.2188 23.1924,5.2428 C21.1394,5.2588 19.2594,5.1958 17.2884,5.8698 C17.0784,5.9408 17.1694,6.2758 17.3814,6.2038" id="Fill-162" fill="#FFFFFF"></path>
            <path d="M19.5103,6.8122 C24.0513,7.0042 28.6243,6.9092 32.0373,3.5252 C32.1973,3.3682 31.9513,3.1242 31.7923,3.2812 C28.4373,6.6072 23.9473,6.6542 19.5103,6.4652 C19.2873,6.4562 19.2873,6.8022 19.5103,6.8122" id="Fill-164" fill="#FFFFFF"></path>
            <path d="M16.9117,4.8766 C14.7857,6.2046 13.3367,8.2456 12.5887,10.6216 C12.5207,10.8356 12.8547,10.9266 12.9227,10.7146 C13.6427,8.4246 15.0377,6.4556 17.0867,5.1756 C17.2747,5.0586 17.1007,4.7576 16.9117,4.8766" id="Fill-166" fill="#FFFFFF"></path>
            <path d="M14.3756,7.4489 C12.7926,10.3249 13.1226,13.7679 15.4466,16.1369 C15.6046,16.2959 15.8486,16.0509 15.6916,15.8909 C13.4786,13.6359 13.1636,10.3679 14.6746,7.6239 C14.7816,7.4279 14.4826,7.2539 14.3756,7.4489" id="Fill-168" fill="#FFFFFF"></path>
            <path d="M15.1646,8.1276 C16.6586,11.9626 17.1946,15.9476 16.8136,20.0426 C16.7936,20.2646 17.1406,20.2636 17.1606,20.0426 C17.5466,15.8966 17.0116,11.9176 15.4986,8.0356 C15.4186,7.8306 15.0836,7.9196 15.1646,8.1276" id="Fill-170" fill="#FFFFFF"></path>
            <path d="M16.4625,6.2741 C16.8985,5.6001 17.7645,5.6061 18.3465,6.0851 C18.8975,6.5381 19.1745,7.2281 19.3935,7.8871 C19.4625,8.0981 19.7975,8.0081 19.7275,7.7951 C19.4385,6.9201 18.9995,5.8831 18.0785,5.5131 C17.3585,5.2241 16.5835,5.4501 16.1635,6.0991 C16.0425,6.2871 16.3425,6.4611 16.4625,6.2741" id="Fill-172" fill="#FFFFFF"></path>
            <path d="M20.8443,7.4499 C21.4623,5.6449 23.1413,4.5129 25.0383,5.1519 C25.2503,5.2229 25.3413,4.8889 25.1313,4.8179 C23.0583,4.1209 21.1863,5.3859 20.5103,7.3569 C20.4383,7.5689 20.7733,7.6599 20.8443,7.4499" id="Fill-174" fill="#FFFFFF"></path>
            <path d="M24.19,5.6423 C25.824,3.8983 27.836,2.7183 30.19,2.2663 C30.409,2.2243 30.316,1.8903 30.098,1.9323 C27.691,2.3943 25.614,3.6163 23.945,5.3983 C23.793,5.5603 24.037,5.8063 24.19,5.6423" id="Fill-176" fill="#FFFFFF"></path>
            <path d="M26.2574,7.0632 C27.1784,6.0942 28.3464,5.5182 29.6924,5.4872 C29.9144,5.4822 29.9154,5.1352 29.6924,5.1402 C28.2624,5.1732 26.9924,5.7872 26.0134,6.8182 C25.8594,6.9792 26.1044,7.2252 26.2574,7.0632" id="Fill-178" fill="#FFFFFF"></path>
            <path d="M21.6109,19.1774 C21.6879,17.5584 21.4379,16.1994 23.1799,15.0974 C24.0769,14.5314 25.6939,14.3734 26.7189,14.0774 C29.0779,13.3984 31.4369,12.7184 33.7969,12.0384 C34.0099,11.9774 33.9199,11.6434 33.7039,11.7044 C30.1869,12.7184 26.1959,13.3784 22.8469,14.8424 C20.9999,15.6494 21.3519,17.3364 21.2639,19.1774 C21.2539,19.4004 21.5999,19.3994 21.6109,19.1774" id="Fill-180" fill="#FFFFFF"></path>
            <path d="M33.3189,12.2243 C33.3769,13.8993 33.4129,17.0103 34.9659,18.0633 C36.0449,18.7933 37.6829,18.1343 38.0639,16.9273 C38.3759,15.9413 38.2049,14.7493 38.0089,13.7563 C37.8479,12.9403 37.6749,11.2783 37.0509,10.6583 C35.9289,9.5413 34.0209,10.5963 33.5249,11.7643 C33.4379,11.9673 33.7369,12.1443 33.8239,11.9393 C34.1319,11.2143 34.8399,10.5373 35.7139,10.6193 C36.9669,10.7363 37.1829,11.9013 37.4199,12.7793 C37.7209,13.8973 38.0599,15.2463 37.7899,16.4023 C37.5959,17.2223 36.9399,18.0973 35.9639,18.0223 C34.7119,17.9263 34.4099,16.7333 34.1709,15.8463 C33.8509,14.6623 33.7079,13.4483 33.6659,12.2243 C33.6579,12.0023 33.3119,12.0003 33.3189,12.2243" id="Fill-182" fill="#FFFFFF"></path>
            <path d="M54.0279,55.53 L50.4329,62.793 C50.2209,63.222 50.1049,63.681 50.0899,64.145 L49.4519,85.415 C49.3889,87.476 49.5049,91.048 47.0259,91.048 L18.4769,92.331 C15.6029,92.331 13.5859,86.941 14.1339,84.594 L15.1629,71.124 C15.6589,69 16.3309,65.743 13.7589,65.422 L6.9369,64.571 C4.6999,64.292 3.0459,62.693 3.0459,60.811 C3.0459,60.428 3.1149,60.048 3.2519,59.681 L17.2319,37.039 C25.1469,43.294 32.9119,33.906 35.4519,35.197 L53.1979,50.604 C55.1149,51.578 54.8829,53.801 54.0279,55.53" id="Fill-184" fill="#FFFDF6"></path>
            <path d="M30.9049,53.9811 C35.2169,53.0651 39.4849,51.9271 43.6829,50.5741" id="Fill-186" fill="#FFFDF6"></path>
            <path d="M35.2867,14.0983 C35.2557,14.2823 35.2657,14.3993 35.3607,14.5653 C35.4367,14.6973 35.6357,14.6633 35.6787,14.5243 C35.7787,14.1893 35.7167,13.9013 35.4977,13.6323 C35.4127,13.5283 35.2417,13.5943 35.2087,13.7093 C35.0997,14.0813 35.1457,14.4373 35.3717,14.7563 C35.4397,14.8533 35.6097,14.8843 35.6707,14.7563 C35.8397,14.4023 35.8297,14.0363 35.5877,13.7183 C35.5117,13.6183 35.3607,13.5963 35.2887,13.7183 C35.1007,14.0323 35.1367,14.3793 35.3817,14.6493 C35.4757,14.7543 35.6267,14.6863 35.6707,14.5733 C35.7927,14.2603 35.7617,13.9593 35.5777,13.6793 C35.4557,13.4943 35.1557,13.6663 35.2787,13.8543 C35.4087,14.0523 35.4217,14.2623 35.3367,14.4813 C35.4327,14.4553 35.5297,14.4303 35.6257,14.4043 C35.4837,14.2383 35.4717,14.0683 35.5877,13.8933 L35.2887,13.8933 C35.4437,14.0973 35.4867,14.3383 35.3717,14.5813 L35.6707,14.5813 C35.4957,14.3333 35.4567,14.0943 35.5427,13.8013 L35.2527,13.8773 C35.3927,14.0533 35.4237,14.2383 35.3447,14.4313 L35.6607,14.3903 C35.6467,14.3243 35.6347,14.2573 35.6207,14.1903 C35.6577,13.9723 35.3237,13.8783 35.2867,14.0983" id="Fill-188" fill="#F4F4F4"></path>
        </g>
    </g>
</svg>