<?xml version="1.0" encoding="UTF-8"?>
<svg width="200px" height="115px" viewBox="0 0 200 115" version="1.1" xmlns="http://www.w3.org/2000/svg" xmlns:xlink="http://www.w3.org/1999/xlink">
    <!-- Generator: Sketch 52.6 (67491) - http://www.bohemiancoding.com/sketch -->
    <title>a1-gardening copy</title>
    <desc>Created with Sketch.</desc>
    <defs>
        <polygon id="path-1" points="0.296096357 0 15.0303049 0 15.0303049 17.4889252 0.296096357 17.4889252"></polygon>
        <polygon id="path-3" points="0.296331861 0 15.0302049 0 15.0302049 17.4889252 0.296331861 17.4889252"></polygon>
    </defs>
    <g id="a1-gardening-copy" stroke="none" stroke-width="1" fill="none" fill-rule="evenodd">
        <g id="Group-60">
            <path d="M87.0476,26.2985 L84.8546,16.1705 C86.0776,14.7485 86.9056,13.0055 86.7676,11.0525 C86.3686,5.4245 78.4606,6.6615 76.9216,9.5025 C76.2056,10.8245 75.9696,12.7135 76.0906,14.4695 C75.8326,14.4955 75.6326,14.6585 75.6326,14.8595 C75.6326,15.0765 75.8706,15.2535 76.1636,15.2535 C76.1656,15.2535 76.1676,15.2525 76.1676,15.2525 C76.2196,15.6175 76.2816,15.9735 76.3606,16.3095 C77.2766,16.4715 78.0226,16.2355 78.0226,16.5685 C78.0226,16.8365 77.4896,17.6025 76.8576,17.7715 C77.1086,18.2975 77.4096,18.7065 77.7566,18.9355 C78.5526,19.4605 80.0366,19.7625 81.7556,18.7365 L80.6766,26.2985 L87.0476,26.2985 Z" id="Fill-1" fill="#B28B67"></path>
            <path d="M36.0974,21.7263 C36.0464,21.5683 35.9214,21.4533 35.7694,21.4003 C35.8314,19.6313 35.5874,17.9243 35.0024,17.1443 C32.9414,14.3983 24.9724,12.8143 24.5494,18.7893 C24.4024,20.8633 25.2814,22.7143 26.5794,24.2243 L24.2514,34.9773 L29.9284,34.9403 L30.2584,26.9503 C32.0844,28.0393 33.1674,27.3433 34.1604,26.6223 C34.5764,26.3203 35.0334,25.3343 35.2924,24.5803 C34.6134,24.4343 33.8954,23.9033 33.8954,23.5443 C33.8954,23.1183 34.6934,23.3723 35.5874,23.2773 C35.6344,22.9913 35.6724,22.6973 35.7024,22.4003 C35.7094,22.3983 35.7164,22.3983 35.7234,22.3963 C36.0184,22.3033 36.1864,22.0033 36.0974,21.7263" id="Fill-3" fill="#F4BB8C"></path>
            <path d="M35.7937,37.5026 L47.8967,18.8026 C51.3797,17.6846 51.9897,15.2586 51.6707,14.8256 C51.1927,14.1776 50.8287,16.0156 50.4347,15.6296 C50.0747,14.1546 50.1917,14.6396 49.7237,12.7306 C49.1697,11.1156 49.2107,10.5236 48.7547,10.5006 C48.3177,10.4806 48.1627,11.3626 48.1357,11.7966 C48.0247,13.5896 48.1697,14.6836 46.9107,16.2976 L32.0187,32.4896 L35.7937,37.5026 Z" id="Fill-5" fill="#F4BB8C"></path>
            <polygon id="Fill-7" fill="#F4BB8C" points="21.6814 52.1462 31.4054 85.3422 35.9794 110.2662 40.5704 110.2662 35.9874 52.1462"></polygon>
            <path d="M17.3112,52.1462 C17.9892,69.3912 17.7212,78.7972 17.5702,80.3642 C17.4172,81.9312 16.5552,92.4242 10.6812,110.7922 L15.4562,110.7922 C23.2362,93.1712 25.9522,82.6782 26.8442,80.3642 C27.7372,78.0502 30.3722,68.6442 34.2192,52.1462 L17.3112,52.1462 Z" id="Fill-9" fill="#F4BB8C"></path>
            <path d="M21.4724,52.1462 C24.0014,63.5692 28.3764,81.8022 34.5964,106.8472 L41.3114,106.8472 C41.8074,81.1412 39.6974,64.2222 36.0434,52.1462 L21.4724,52.1462 Z" id="Fill-11" fill="#2E4C4C"></path>
            <path d="M17.2771,52.1462 C17.9411,69.3912 16.2191,86.3812 10.8841,107.1162 L18.0481,107.1162 C25.8431,89.7582 31.4291,72.8522 35.2481,52.1462 L17.2771,52.1462 Z" id="Fill-13" fill="#3F6B6D"></path>
            <path d="M10.0007,114.2106 L10.2647,110.0036 C11.8067,110.4496 13.7377,110.2746 16.0607,109.4776 C18.5567,111.2296 21.6987,112.4256 25.4867,113.0646 C25.7757,113.1136 25.9707,113.3866 25.9207,113.6726 C25.9177,113.6906 25.9137,113.7096 25.9087,113.7276 L25.5447,114.9996 L16.0607,114.9996 L10.5267,114.9996 L10.0007,114.2106 Z" id="Fill-15" fill="#FFFFFF"></path>
            <path d="M34.9538,114.2106 L35.2178,110.0036 C36.7608,110.4496 38.6918,110.2746 41.0138,109.4776 C43.5098,111.2296 46.6518,112.4256 50.4408,113.0646 C50.7298,113.1136 50.9248,113.3866 50.8748,113.6726 C50.8718,113.6906 50.8678,113.7096 50.8618,113.7276 L50.4978,114.9996 L41.0138,114.9996 L35.4808,114.9996 L34.9538,114.2106 Z" id="Fill-17" fill="#FFFFFF"></path>
            <polygon id="Fill-19" fill="#B28B67" points="75.0749 49.9675 69.9619 109.8355 73.7559 109.8355 78.5959 82.3215 88.5849 49.9675"></polygon>
            <path d="M77.1081,49.9675 C80.9561,66.9615 83.3261,76.6505 84.2171,79.0335 C85.1101,81.4175 87.7611,90.8515 95.5421,109.0015 L99.5851,110.3775 C94.6621,90.5865 92.5831,80.1215 92.4301,78.5085 C92.2791,76.8945 91.4801,67.7315 92.1591,49.9675 L77.1081,49.9675 Z" id="Fill-21" fill="#B28B67"></path>
            <path d="M99.5398,108.947 C99.4178,108.683 99.1028,108.567 98.8358,108.688 C98.1418,109.004 97.5978,109.162 97.2028,109.162 C96.7178,109.162 96.0868,108.982 95.3108,108.624 L94.8638,107.549 C94.8628,107.546 94.8618,107.544 94.8608,107.542 C94.8018,107.409 94.6438,107.349 94.5108,107.409 L87.5508,110.482 C86.9968,110.564 86.3008,110.656 85.4618,110.758 C84.6238,110.859 84.3988,111.547 84.7878,112.821 L99.7608,112.821 C99.9208,111.911 99.9998,111.219 99.9998,110.745 C99.9998,110.355 99.8518,109.767 99.5548,108.982 C99.5508,108.97 99.5458,108.959 99.5398,108.947" id="Fill-23" fill="#E4E4E4"></path>
            <path d="M74.5857,108.947 C74.4637,108.683 74.1487,108.567 73.8827,108.688 C73.1877,109.004 72.6437,109.162 72.2487,109.162 C71.7637,109.162 71.1337,108.982 70.3567,108.624 L69.9097,107.549 C69.9087,107.546 69.9077,107.544 69.9067,107.542 C69.8477,107.409 69.6897,107.349 69.5567,107.409 L62.5977,110.482 C62.0427,110.564 61.3467,110.656 60.5077,110.758 C59.6697,110.859 59.4447,111.547 59.8337,112.821 L74.8077,112.821 C74.9667,111.911 75.0467,111.219 75.0467,110.745 C75.0467,110.355 74.8977,109.767 74.6007,108.982 C74.5967,108.97 74.5917,108.959 74.5857,108.947" id="Fill-25" fill="#E4E4E4"></path>
            <path d="M92.2868,49.9675 L89.8688,49.9675 L76.0158,49.9675 L74.4038,49.9675 L72.4468,77.0555 L79.6978,77.0555 L85.5718,77.0555 L93.0928,77.0555 C93.9688,65.8165 93.6998,56.7865 92.2868,49.9675" id="Fill-27" fill="#C8E9F1"></path>
            <g id="Group-31" transform="translate(76.000000, 0.000000)">
                <mask id="mask-2" fill="white">
                    <use xlink:href="#path-1"></use>
                </mask>
                <g id="Clip-30"></g>
                <path d="M3.4382,6.4089 C4.3092,6.1459 5.5732,6.0559 6.1042,6.1169 C5.8022,5.3989 5.6822,4.5989 5.7802,3.8209 C5.8752,3.0639 6.2162,2.4199 6.5322,1.7449 C6.6772,1.4339 6.8422,1.1249 7.0872,0.8869 C7.3382,0.6439 7.6552,0.4839 7.9882,0.4079 C8.3282,0.3289 8.6832,0.3359 9.0242,0.4069 C9.1752,0.4379 9.3102,0.5069 9.4582,0.5449 C9.6092,0.5839 9.6832,0.4889 9.7922,0.3949 C10.0572,0.1679 10.4462,0.0549 10.7812,0.0149 C11.1562,-0.0291 11.5462,0.0269 11.9052,0.1489 C12.2532,0.2679 12.5882,0.4619 12.8402,0.7439 C12.9532,0.8689 13.0552,1.0119 13.1222,1.1699 C13.1492,1.2339 13.1532,1.2719 13.2182,1.2959 C13.2792,1.3179 13.3492,1.3189 13.4112,1.3399 C14.0122,1.5419 14.5272,2.0019 14.8072,2.5929 C14.9702,2.9379 15.0472,3.5449 15.0272,4.2249 C15.0052,4.9059 14.3852,6.6819 13.8052,7.3299 C13.2872,7.9079 12.5262,8.2899 11.7922,8.4569 C12.2792,9.0089 12.6032,9.6989 12.8432,10.3999 C13.1042,11.1629 13.2652,11.9549 13.3252,12.7619 C13.3812,13.5279 13.3872,14.3389 13.2062,15.0899 C13.0362,15.7909 12.6722,16.3669 12.0672,16.7319 C11.7902,16.8989 11.4912,17.0249 11.1902,17.1389 C10.8942,17.2529 10.5972,17.3629 10.2872,17.4269 C9.7012,17.5469 9.0242,17.5259 8.5722,17.0629 C8.4092,16.8959 8.2302,16.6859 8.1112,16.4829 C8.0682,16.4099 8.0422,16.3619 8.0942,16.2899 C8.1572,16.2039 8.2572,16.1379 8.3372,16.0709 C8.7922,15.6889 9.0752,15.1779 9.1462,14.5709 C9.2182,13.9549 9.0512,13.1599 8.4472,12.8899 C7.7012,12.5589 6.8782,12.9399 6.2152,13.2949 C5.9332,12.3089 5.3552,11.4219 4.4472,10.9699 C3.4432,10.4699 2.2922,10.4109 1.2592,9.9819 C0.9912,9.8699 0.7162,9.7429 0.5192,9.5149 C0.4362,9.4199 0.3392,9.2969 0.3062,9.1709 C0.2622,9.0059 0.3712,8.8669 0.4542,8.7369 C0.8952,8.0539 2.5682,6.6719 3.4382,6.4089" id="Fill-29" fill="#191847" mask="url(#mask-2)"></path>
            </g>
            <path d="M67.3747,38.7028 L58.9067,44.8628 C56.6097,45.4768 54.6907,46.2408 53.1497,47.1548 C52.7867,47.4828 52.3467,48.1488 53.8557,48.0338 C55.3657,47.9188 56.9587,47.8648 57.1667,48.3748 C57.3757,48.8858 56.4617,49.4948 56.8827,50.1828 C57.1637,50.6418 58.4897,49.4918 60.8607,46.7318 L69.2467,43.2868 L67.3747,38.7028 Z" id="Fill-32" fill="#B28B67"></path>
            <path d="M80.528,22.114 C75.917,30.632 69.248,37.161 59.581,43.949 L63.241,48.038 C74.035,44.064 79.732,41.667 82.529,33.619 C83.231,31.599 83.722,25.16 84.143,21.772 L80.528,22.114 Z" id="Fill-34" fill="#DD7045"></path>
            <path d="M93.4187,50.4929 L72.9787,50.4929 C77.6077,36.5039 79.9737,26.9019 80.0737,21.6889 C80.0787,21.4239 80.5747,20.9549 80.7937,21.0159 C82.3977,21.4649 84.1117,21.2969 85.9397,20.5139 C90.7857,28.2339 92.4617,37.7399 93.4187,50.4929" id="Fill-36" fill="#F2F2F2"></path>
            <path d="M66.8884,19.406 L57.1074,15.594 C55.5944,14.216 55.5534,13.113 55.1424,11.364 C55.0434,10.941 54.7424,10.096 54.3144,10.191 C53.8684,10.29 54.0094,10.868 53.7354,12.552 C53.5934,14.512 53.6284,14.014 53.5224,15.529 C53.1984,15.976 52.5304,14.225 52.1674,14.945 C51.9264,15.426 52.9364,17.714 56.5574,18.229 L63.9794,23.42 L66.8884,19.406 Z" id="Fill-38" fill="#B28B67"></path>
            <path d="M84.5886,20.2653 C78.7446,19.8293 69.1836,20.1023 58.5446,15.7233 L57.0246,20.9743 C64.8476,26.9183 72.8716,31.6863 80.2466,31.7123 C75.9466,44.9703 75.1786,56.0503 82.2026,56.6313 C85.5576,56.9093 89.1776,57.2073 93.0646,57.5293 C95.7396,46.1863 92.5226,29.8873 88.9836,21.5073 C88.8486,21.1873 88.5546,20.5803 87.7496,20.5143 C87.0486,20.4553 85.9956,20.3693 84.5936,20.2523 C84.5916,20.2563 84.5896,20.2613 84.5886,20.2653" id="Fill-40" fill="#DD7045"></path>
            <path d="M26.5661,13.4831 C23.2011,14.1131 21.8791,18.4141 22.8281,21.5711 C23.3391,23.2751 25.4661,24.8791 26.6631,23.9821 C27.4211,23.4151 27.9131,23.0591 27.6151,22.5671 C27.0451,21.6251 26.8491,20.4151 27.9051,19.7591 C28.8151,19.1941 29.7731,20.5371 29.7911,20.5361 C30.0421,20.5151 32.2041,19.2521 33.6941,17.4071 C35.1641,17.4981 35.3861,16.4961 35.0361,15.6761 C34.6851,14.8581 32.4941,13.8271 31.3131,13.6271 C30.4591,13.4821 28.5461,13.3821 27.8951,13.3821 C27.2431,13.3821 26.5661,13.4831 26.5661,13.4831" id="Fill-42" fill="#232323"></path>
            <path d="M10.782,44.737 L15.245,45.614 C10.757,53.9 8.349,58.292 8.024,58.789 C7.292,59.907 7.975,61.957 8.227,63.037 C6.643,63.402 7.268,61.04 5.263,61.533 C3.433,61.983 1.882,63.138 0.176,61.58 C-0.034,61.388 -0.189,60.79 0.527,60.483 C2.309,59.717 4.942,58.285 5.369,57.728 C5.951,56.97 7.756,52.639 10.782,44.737" id="Fill-44" fill="#F4BB8C"></path>
            <path d="M41.7956,30.2663 L37.6666,25.6063 C35.0686,27.2343 32.8926,28.5973 31.8036,29.3053 C30.7146,30.0123 29.9676,30.0213 28.7256,30.0213 C27.0466,30.0213 24.8466,29.0953 24.6196,28.0233 L24.6746,28.0233 L24.6196,28.0233 C13.8396,34.6043 17.8696,30.3563 10.1076,43.5403 L15.0526,49.7733 C15.3096,49.4773 16.1046,48.0333 17.1326,46.1953 C17.4306,47.6263 17.4516,49.9703 17.2146,53.5163 L36.1496,52.9383 C36.1926,50.7263 35.9546,50.0753 36.3436,47.1763 C37.8996,42.0363 39.1756,33.0753 41.7956,30.2663" id="Fill-46" fill="#B5D783"></path>
            <path d="M34.5261,13.5515 C34.2681,13.5855 34.0201,13.6235 33.7741,13.6625 C32.3401,12.2205 29.5711,11.1665 26.9041,11.8365 C23.3911,12.7175 21.3871,16.2195 21.9731,18.3035 L22.5301,18.1625 C23.6371,17.0885 25.4651,16.3945 27.4091,15.9055 C28.3721,15.6645 29.5461,15.4105 30.7561,15.2295 C31.6021,15.3385 33.0671,15.2945 34.7291,15.0765 C37.2881,14.7425 39.3171,14.1295 39.2601,13.7085 C39.2051,13.2875 37.0851,13.2175 34.5261,13.5515" id="Fill-48" fill="#2E91A0"></path>
            <path d="M34.282,19.7399 C34.164,19.9279 34.163,20.1079 34.291,20.2919 C34.362,20.3949 34.545,20.4269 34.609,20.2919 C34.7,20.0969 34.707,19.9639 34.581,19.7829 C34.446,19.5899 34.127,19.7739 34.262,19.9689 C34.272,20.0139 34.281,20.0599 34.291,20.1059 L34.609,20.1059 C34.606,20.0459 34.603,19.9859 34.6,19.9259 C34.726,19.7239 34.408,19.5389 34.282,19.7399" id="Fill-50" fill="#000000"></path>
            <path d="M32.7536,19.8513 C33.1656,19.2683 33.7886,18.9283 34.4996,18.8843 C34.7346,18.8713 34.7356,18.5013 34.4996,18.5163 C33.6496,18.5683 32.9266,18.9703 32.4356,19.6643 C32.2986,19.8593 32.6176,20.0433 32.7536,19.8513" id="Fill-52" fill="#000000"></path>
            <path d="M77.4402,12.8942 C77.4312,13.0182 77.4552,13.0682 77.5442,13.1512 C77.6712,13.2692 77.8382,13.1752 77.8592,13.0212 C77.8742,12.9032 77.8702,12.8852 77.8382,12.7712 C77.7752,12.5422 77.4192,12.6392 77.4832,12.8692 C77.4852,12.9192 77.4882,12.9702 77.4902,13.0212 C77.5952,12.9772 77.7002,12.9342 77.8042,12.8902 C77.8062,12.8922 77.8072,12.8932 77.8092,12.8942 C77.8282,12.6582 77.4592,12.6592 77.4402,12.8942" id="Fill-54" fill="#191847"></path>
            <path d="M77.4109,11.9362 C77.8589,11.7372 78.2729,12.0092 78.6369,12.2472 C78.8359,12.3762 79.0199,12.0572 78.8219,11.9282 C78.3169,11.5982 77.8139,11.3572 77.2239,11.6182 C77.0079,11.7132 77.1949,12.0312 77.4109,11.9362" id="Fill-56" fill="#191847"></path>
            <path d="M77.406,12.8923 C77.388,13.0703 77.421,13.1853 77.526,13.3293 C77.582,13.4053 77.689,13.4553 77.778,13.3953 C78.369,12.9953 77.513,12.3963 77.451,12.9803 C77.426,13.2153 77.795,13.2133 77.82,12.9803 C77.724,12.9833 77.648,13.0153 77.593,13.0773 C77.677,13.0983 77.76,13.1213 77.844,13.1423 C77.821,13.0593 77.799,12.9753 77.775,12.8923 C77.799,12.6563 77.429,12.6583 77.406,12.8923" id="Fill-58" fill="#191847"></path>
        </g>
        <g id="Group-68" transform="translate(100.000000, 0.000000)">
            <path d="M87.0475,26.2985 L84.8545,16.1705 C86.0775,14.7485 86.9055,13.0055 86.7675,11.0525 C86.3685,5.4245 78.4605,6.6615 76.9215,9.5025 C76.2055,10.8245 75.9695,12.7135 76.0915,14.4695 C75.8325,14.4955 75.6325,14.6585 75.6325,14.8595 C75.6325,15.0765 75.8705,15.2535 76.1635,15.2535 C76.1655,15.2535 76.1685,15.2525 76.1685,15.2525 C76.2195,15.6175 76.2815,15.9735 76.3615,16.3095 C77.2765,16.4715 78.0225,16.2355 78.0225,16.5685 C78.0225,16.8365 77.4895,17.6025 76.8575,17.7715 C77.1085,18.2975 77.4095,18.7065 77.7565,18.9355 C78.5525,19.4605 80.0365,19.7625 81.7555,18.7365 L80.6765,26.2985 L87.0475,26.2985 Z" id="Fill-1" fill="#B28B67"></path>
            <path d="M36.0973,21.7263 C36.0463,21.5683 35.9213,21.4533 35.7693,21.4003 C35.8313,19.6313 35.5873,17.9243 35.0023,17.1443 C32.9413,14.3983 24.9723,12.8143 24.5493,18.7893 C24.4023,20.8633 25.2823,22.7143 26.5793,24.2243 L24.2513,34.9773 L29.9283,34.9403 L30.2593,26.9503 C32.0843,28.0393 33.1673,27.3433 34.1603,26.6223 C34.5763,26.3203 35.0333,25.3343 35.2923,24.5803 C34.6133,24.4343 33.8953,23.9033 33.8953,23.5443 C33.8953,23.1183 34.6933,23.3723 35.5873,23.2773 C35.6343,22.9913 35.6723,22.6973 35.7023,22.4003 C35.7093,22.3983 35.7163,22.3983 35.7233,22.3963 C36.0193,22.3033 36.1863,22.0033 36.0973,21.7263" id="Fill-3" fill="#F4BB8C"></path>
            <path d="M33.6862,35.8884 L50.0632,20.7894 C53.7152,20.5744 54.9102,18.3764 54.7092,17.8784 C54.4082,17.1314 53.5972,18.8214 53.3112,18.3494 C53.3312,16.8304 53.3242,17.3294 53.3442,15.3644 C53.2102,13.6624 53.3982,13.0984 52.9612,12.9634 C52.5432,12.8344 52.1732,13.6514 52.0402,14.0644 C51.4862,15.7734 51.3542,16.8684 49.7332,18.1184 L31.2772,30.0934 L33.6862,35.8884 Z" id="Fill-5" fill="#F4BB8C"></path>
            <polygon id="Fill-7" fill="#F4BB8C" points="21.6813 52.1462 31.4053 85.3422 35.9793 110.2662 40.5703 110.2662 35.9873 52.1462"></polygon>
            <path d="M17.3112,52.1462 C17.9892,69.3912 17.7212,78.7972 17.5702,80.3642 C17.4172,81.9312 16.5562,92.4242 10.6812,110.7922 L15.4562,110.7922 C23.2362,93.1712 25.9522,82.6782 26.8442,80.3642 C27.7372,78.0502 30.3722,68.6442 34.2192,52.1462 L17.3112,52.1462 Z" id="Fill-9" fill="#F4BB8C"></path>
            <path d="M21.4723,52.1462 C24.0013,63.5692 28.3763,81.8022 34.5963,106.8472 L41.3113,106.8472 C41.8073,81.1412 39.6973,64.2222 36.0433,52.1462 L21.4723,52.1462 Z" id="Fill-11" fill="#2E4C4C"></path>
            <path d="M17.277,52.1462 C17.941,69.3912 16.219,86.3812 10.884,107.1162 L18.048,107.1162 C25.843,89.7582 31.429,72.8522 35.248,52.1462 L17.277,52.1462 Z" id="Fill-13" fill="#3F6B6D"></path>
            <path d="M10.0006,114.2106 L10.2646,110.0036 C11.8066,110.4496 13.7376,110.2746 16.0606,109.4776 C18.5566,111.2296 21.6986,112.4256 25.4866,113.0646 C25.7756,113.1136 25.9706,113.3866 25.9216,113.6726 C25.9176,113.6906 25.9136,113.7096 25.9086,113.7276 L25.5446,114.9996 L16.0606,114.9996 L10.5266,114.9996 L10.0006,114.2106 Z" id="Fill-15" fill="#FFFFFF"></path>
            <path d="M34.9547,114.2106 L35.2177,110.0036 C36.7607,110.4496 38.6917,110.2746 41.0137,109.4776 C43.5107,111.2296 46.6517,112.4256 50.4407,113.0646 C50.7297,113.1136 50.9247,113.3866 50.8747,113.6726 C50.8717,113.6906 50.8677,113.7096 50.8617,113.7276 L50.4977,114.9996 L41.0137,114.9996 L35.4807,114.9996 L34.9547,114.2106 Z" id="Fill-17" fill="#FFFFFF"></path>
            <polygon id="Fill-19" fill="#B28B67" points="75.0749 49.9675 69.9619 109.8355 73.7559 109.8355 78.5959 82.3215 88.5849 49.9675"></polygon>
            <path d="M77.1081,49.9675 C80.9561,66.9615 83.3261,76.6505 84.2181,79.0335 C85.1101,81.4175 87.7611,90.8515 95.5421,109.0015 L99.5851,110.3775 C94.6621,90.5865 92.5831,80.1215 92.4301,78.5085 C92.2791,76.8945 91.4801,67.7315 92.1591,49.9675 L77.1081,49.9675 Z" id="Fill-21" fill="#B28B67"></path>
            <path d="M99.5397,108.947 C99.4177,108.683 99.1027,108.567 98.8357,108.688 C98.1417,109.004 97.5977,109.162 97.2027,109.162 C96.7177,109.162 96.0867,108.982 95.3107,108.624 L94.8637,107.549 C94.8627,107.546 94.8617,107.544 94.8607,107.542 C94.8017,107.409 94.6437,107.349 94.5107,107.409 L87.5517,110.482 C86.9967,110.564 86.3007,110.656 85.4617,110.758 C84.6237,110.859 84.3987,111.547 84.7877,112.821 L99.7607,112.821 C99.9207,111.911 99.9997,111.219 99.9997,110.745 C99.9997,110.355 99.8517,109.767 99.5547,108.982 C99.5507,108.97 99.5457,108.959 99.5397,108.947" id="Fill-23" fill="#E4E4E4"></path>
            <path d="M74.5866,108.947 C74.4636,108.683 74.1496,108.567 73.8826,108.688 C73.1876,109.004 72.6436,109.162 72.2486,109.162 C71.7636,109.162 71.1336,108.982 70.3576,108.624 L69.9096,107.549 C69.9086,107.546 69.9076,107.544 69.9066,107.542 C69.8476,107.409 69.6906,107.349 69.5566,107.409 L62.5976,110.482 C62.0426,110.564 61.3466,110.656 60.5076,110.758 C59.6696,110.859 59.4446,111.547 59.8336,112.821 L74.8076,112.821 C74.9666,111.911 75.0466,111.219 75.0466,110.745 C75.0466,110.355 74.8986,109.767 74.6006,108.982 C74.5966,108.97 74.5916,108.959 74.5866,108.947" id="Fill-25" fill="#E4E4E4"></path>
            <path d="M92.2868,49.9675 L89.8688,49.9675 L76.0158,49.9675 L74.4038,49.9675 L72.4468,77.0555 L79.6988,77.0555 L85.5718,77.0555 L93.0928,77.0555 C93.9688,65.8165 93.6998,56.7865 92.2868,49.9675" id="Fill-27" fill="#C8E9F1"></path>
            <g id="Group-31" transform="translate(76.000000, 0.000000)">
                <mask id="mask-4" fill="white">
                    <use xlink:href="#path-3"></use>
                </mask>
                <g id="Clip-30"></g>
                <path d="M3.4381,6.4089 C4.3091,6.1459 5.5731,6.0559 6.1041,6.1169 C5.8021,5.3989 5.6821,4.5989 5.7801,3.8209 C5.8751,3.0639 6.2161,2.4199 6.5321,1.7449 C6.6771,1.4339 6.8421,1.1249 7.0881,0.8869 C7.3381,0.6439 7.6561,0.4839 7.9881,0.4079 C8.3281,0.3289 8.6831,0.3359 9.0241,0.4069 C9.1751,0.4379 9.3101,0.5069 9.4581,0.5449 C9.6091,0.5839 9.6831,0.4889 9.7921,0.3949 C10.0571,0.1679 10.4461,0.0549 10.7811,0.0149 C11.1571,-0.0291 11.5461,0.0269 11.9051,0.1489 C12.2531,0.2679 12.5881,0.4619 12.8411,0.7439 C12.9541,0.8689 13.0551,1.0119 13.1221,1.1699 C13.1491,1.2339 13.1531,1.2719 13.2181,1.2959 C13.2791,1.3179 13.3491,1.3189 13.4121,1.3399 C14.0121,1.5419 14.5271,2.0019 14.8071,2.5929 C14.9701,2.9379 15.0471,3.5449 15.0271,4.2249 C15.0051,4.9059 14.3851,6.6819 13.8051,7.3299 C13.2871,7.9079 12.5261,8.2899 11.7921,8.4569 C12.2791,9.0089 12.6031,9.6989 12.8431,10.3999 C13.1041,11.1629 13.2651,11.9549 13.3251,12.7619 C13.3811,13.5279 13.3871,14.3389 13.2061,15.0899 C13.0361,15.7909 12.6721,16.3669 12.0671,16.7319 C11.7901,16.8989 11.4911,17.0249 11.1901,17.1389 C10.8941,17.2529 10.5971,17.3629 10.2881,17.4269 C9.7011,17.5469 9.0241,17.5259 8.5721,17.0629 C8.4091,16.8959 8.2301,16.6859 8.1111,16.4829 C8.0681,16.4099 8.0421,16.3619 8.0941,16.2899 C8.1571,16.2039 8.2571,16.1379 8.3371,16.0709 C8.7921,15.6889 9.0751,15.1779 9.1461,14.5709 C9.2181,13.9549 9.0511,13.1599 8.4471,12.8899 C7.7011,12.5589 6.8781,12.9399 6.2151,13.2949 C5.9331,12.3089 5.3551,11.4219 4.4471,10.9699 C3.4431,10.4699 2.2921,10.4109 1.2591,9.9819 C0.9911,9.8699 0.7171,9.7429 0.5191,9.5149 C0.4361,9.4199 0.3391,9.2969 0.3061,9.1709 C0.2631,9.0059 0.3711,8.8669 0.4541,8.7369 C0.8951,8.0539 2.5681,6.6719 3.4381,6.4089" id="Fill-29" fill="#191847" mask="url(#mask-4)"></path>
            </g>
            <path d="M67.3747,38.7028 L58.9067,44.8628 C56.6097,45.4768 54.6907,46.2408 53.1497,47.1548 C52.7867,47.4828 52.3467,48.1488 53.8557,48.0338 C55.3657,47.9188 56.9587,47.8648 57.1667,48.3748 C57.3757,48.8858 56.4617,49.4948 56.8827,50.1828 C57.1637,50.6418 58.4897,49.4918 60.8607,46.7318 L69.2467,43.2868 L67.3747,38.7028 Z M66.4857,21.1288 L56.4237,18.1368 C54.8027,16.8868 54.6707,15.7908 54.1167,14.0818 C53.9827,13.6688 53.6127,12.8518 53.1947,12.9808 C52.7587,13.1158 52.9457,13.6808 52.8117,15.3818 C52.8327,17.3468 52.8257,16.8488 52.8457,18.3658 C52.5597,18.8388 51.7487,17.1478 51.4467,17.8948 C51.2467,18.3938 52.4407,20.5918 56.0937,20.8068 L63.9167,25.3678 L66.4857,21.1288 Z" id="Fill-32" fill="#B28B67"></path>
            <path d="M80.528,22.114 C75.917,30.632 69.248,37.161 59.581,43.949 L63.242,48.038 C74.035,44.064 79.732,41.667 82.529,33.619 C83.231,31.599 83.722,25.16 84.143,21.772 L80.528,22.114 Z" id="Fill-34" fill="#DD7045"></path>
            <path d="M93.4186,50.4929 L72.9786,50.4929 C77.6076,36.5039 79.9736,26.9019 80.0736,21.6889 C80.0786,21.4239 80.5746,20.9549 80.7936,21.0159 C82.3976,21.4649 84.1116,21.2969 85.9396,20.5139 C90.7856,28.2339 92.4616,37.7399 93.4186,50.4929" id="Fill-36" fill="#F2F2F2"></path>
            <path d="M84.196,20.5251 C78.337,20.5731 68.831,21.6321 57.867,18.1461 L56.785,23.5041 C65.071,28.7831 73.461,32.8731 80.813,32.2931 C77.621,45.8591 77.767,56.9641 84.816,56.9641 L95.715,56.9641 C97.446,45.4401 92.896,29.4611 88.678,21.4011 C88.517,21.0931 88.175,20.5131 87.367,20.5131 L84.2,20.5131 C84.199,20.5171 84.197,20.5211 84.196,20.5251" id="Fill-38" fill="#DD7045"></path>
            <path d="M26.5661,13.4831 C23.2011,14.1131 21.8791,18.4141 22.8281,21.5711 C23.3391,23.2751 25.4661,24.8791 26.6631,23.9821 C27.4211,23.4151 27.9131,23.0591 27.6151,22.5671 C27.0451,21.6251 26.8491,20.4151 27.9051,19.7591 C28.8151,19.1941 29.7731,20.5371 29.7911,20.5361 C30.0421,20.5151 32.2041,19.2521 33.6941,17.4071 C35.1641,17.4981 35.3861,16.4961 35.0361,15.6761 C34.6851,14.8581 32.4941,13.8271 31.3131,13.6271 C30.4591,13.4821 28.5471,13.3821 27.8951,13.3821 C27.2431,13.3821 26.5661,13.4831 26.5661,13.4831" id="Fill-40" fill="#232323"></path>
            <path d="M10.7819,44.737 L15.2449,45.614 C10.7569,53.9 8.3489,58.292 8.0239,58.789 C7.2919,59.907 7.9749,61.957 8.2269,63.037 C6.6429,63.402 7.2679,61.04 5.2629,61.533 C3.4329,61.983 1.8819,63.138 0.1759,61.58 C-0.0341,61.388 -0.1881,60.79 0.5269,60.483 C2.3089,59.717 4.9419,58.285 5.3689,57.728 C5.9509,56.97 7.7559,52.639 10.7819,44.737" id="Fill-42" fill="#F4BB8C"></path>
            <path d="M41.7956,30.2663 L37.6666,25.6063 C35.0686,27.2343 32.8926,28.5973 31.8036,29.3053 C30.7146,30.0123 29.9676,30.0213 28.7256,30.0213 C27.0466,30.0213 24.8466,29.0953 24.6196,28.0233 L24.6746,28.0233 L24.6196,28.0233 C13.8396,34.6043 17.8706,30.3563 10.1076,43.5403 L15.0526,49.7733 C15.3096,49.4773 16.1046,48.0333 17.1326,46.1953 C17.4306,47.6263 17.4516,49.9703 17.2146,53.5163 L36.1496,52.9383 C36.1926,50.7263 35.9546,50.0753 36.3436,47.1763 C37.8996,42.0363 39.1756,33.0753 41.7956,30.2663" id="Fill-44" fill="#B5D783"></path>
            <path d="M34.526,13.5515 C34.268,13.5855 34.02,13.6235 33.775,13.6625 C32.34,12.2205 29.571,11.1665 26.904,11.8365 C23.391,12.7175 21.388,16.2195 21.974,18.3035 L22.53,18.1625 C23.637,17.0885 25.465,16.3945 27.409,15.9055 C28.372,15.6645 29.546,15.4105 30.756,15.2295 C31.603,15.3385 33.068,15.2945 34.729,15.0765 C37.288,14.7425 39.317,14.1295 39.261,13.7085 C39.205,13.2875 37.085,13.2175 34.526,13.5515" id="Fill-46" fill="#2E91A0"></path>
            <path d="M34.2819,19.7399 C34.1639,19.9279 34.1629,20.1079 34.2909,20.2919 C34.3619,20.3949 34.5459,20.4269 34.6089,20.2919 C34.6999,20.0969 34.7069,19.9639 34.5809,19.7829 C34.4459,19.5899 34.1269,19.7739 34.2619,19.9689 C34.2719,20.0139 34.2809,20.0599 34.2909,20.1059 L34.6089,20.1059 C34.6059,20.0459 34.6029,19.9859 34.5999,19.9259 C34.7259,19.7239 34.4079,19.5389 34.2819,19.7399" id="Fill-48" fill="#000000"></path>
            <path d="M32.7536,19.8513 C33.1656,19.2683 33.7886,18.9283 34.4996,18.8843 C34.7346,18.8713 34.7366,18.5013 34.4996,18.5163 C33.6496,18.5683 32.9266,18.9703 32.4356,19.6643 C32.2986,19.8593 32.6176,20.0433 32.7536,19.8513" id="Fill-50" fill="#000000"></path>
            <path d="M77.4401,12.8942 C77.4311,13.0182 77.4551,13.0682 77.5441,13.1512 C77.6711,13.2692 77.8381,13.1752 77.8591,13.0212 C77.8741,12.9032 77.8701,12.8852 77.8381,12.7712 C77.7751,12.5422 77.4191,12.6392 77.4831,12.8692 C77.4851,12.9192 77.4881,12.9702 77.4901,13.0212 C77.5951,12.9772 77.7001,12.9342 77.8041,12.8902 C77.8061,12.8922 77.8071,12.8932 77.8091,12.8942 C77.8281,12.6582 77.4591,12.6592 77.4401,12.8942" id="Fill-52" fill="#191847"></path>
            <path d="M77.4108,11.9362 C77.8588,11.7372 78.2728,12.0092 78.6368,12.2472 C78.8358,12.3762 79.0198,12.0572 78.8218,11.9282 C78.3168,11.5982 77.8138,11.3572 77.2238,11.6182 C77.0078,11.7132 77.1948,12.0312 77.4108,11.9362" id="Fill-54" fill="#191847"></path>
            <path d="M77.4069,12.8923 C77.3879,13.0703 77.4209,13.1853 77.5259,13.3293 C77.5819,13.4053 77.6889,13.4553 77.7779,13.3953 C78.3689,12.9953 77.5139,12.3963 77.4509,12.9803 C77.4259,13.2153 77.7949,13.2133 77.8199,12.9803 C77.7239,12.9833 77.6479,13.0153 77.5929,13.0773 C77.6769,13.0983 77.7609,13.1213 77.8439,13.1423 C77.8209,13.0593 77.7989,12.9753 77.7749,12.8923 C77.7989,12.6563 77.4289,12.6583 77.4069,12.8923" id="Fill-56" fill="#191847"></path>
            <path d="M48.3532,13.863 C48.7982,13.999 49.2472,14.078 49.7102,14.113 C50.1832,14.149 50.1812,13.412 49.7102,13.377 C49.3112,13.345 48.9322,13.269 48.5492,13.152 C48.0952,13.012 47.9002,13.724 48.3532,13.863" id="Fill-58" fill="#232323"></path>
            <path d="M49.4577,10.2575 C49.7187,10.5935 49.9797,10.9295 50.2407,11.2645 C50.5317,11.6385 51.0507,11.1135 50.7627,10.7425 C50.5017,10.4075 50.2397,10.0715 49.9787,9.7365 C49.6877,9.3625 49.1697,9.8875 49.4577,10.2575" id="Fill-60" fill="#232323"></path>
            <path d="M53.4381,8.6003 C53.3371,9.0153 53.2371,9.4313 53.1351,9.8463 C53.0241,10.3073 53.7351,10.5043 53.8461,10.0423 C53.9471,9.6273 54.0471,9.2113 54.1491,8.7953 C54.2601,8.3353 53.5491,8.1383 53.4381,8.6003" id="Fill-62" fill="#232323"></path>
            <path d="M55.8297,11.9812 C56.2097,11.7442 56.5887,11.5062 56.9687,11.2682 C57.3697,11.0172 57.0007,10.3792 56.5967,10.6322 C56.2167,10.8702 55.8377,11.1072 55.4577,11.3452 C55.0567,11.5962 55.4267,12.2342 55.8297,11.9812" id="Fill-64" fill="#232323"></path>
            <path d="M56.3268,14.5769 C56.7468,14.6469 57.1328,14.6369 57.5428,14.5179 C57.9978,14.3879 57.8048,13.6759 57.3478,13.8069 C57.0668,13.8889 56.8108,13.9149 56.5218,13.8659 C56.0578,13.7879 55.8588,14.4989 56.3268,14.5769" id="Fill-66" fill="#232323"></path>
        </g>
    </g>
</svg>