<?xml version="1.0" encoding="UTF-8"?>
<svg width="256px" height="338px" viewBox="0 0 256 338" version="1.1" xmlns="http://www.w3.org/2000/svg" xmlns:xlink="http://www.w3.org/1999/xlink">
    <!-- Generator: Sketch 52.6 (67491) - http://www.bohemiancoding.com/sketch -->
    <title>cassia-zoom copy</title>
    <desc>Created with Sketch.</desc>
    <defs>
        <polygon id="path-1" points="0.0637 0.693 89.8057 0.693 89.8057 28.7189 0.0637 28.7189"></polygon>
        <polygon id="path-3" points="0.8056 0.693 8.8906 0.693 8.8906 10.7529 0.8056 10.7529"></polygon>
        <polygon id="path-5" points="0 337 256 337 256 0.693 0 0.693"></polygon>
    </defs>
    <g id="cassia-zoom-copy" stroke="none" stroke-width="1" fill="none" fill-rule="evenodd">
        <g id="Group-127">
            <g id="Group-5" transform="translate(8.000000, 71.307000)">
                <polygon id="Fill-1" fill="#999999" points="43.9199 7.5034 0.9789 19.9444 0.5879 12.9784 43.9199 0.5374"></polygon>
                <polygon id="Fill-3" fill="#B7B7B7" points="47.8232 6.5088 43.9202 7.5038 43.9202 0.5368"></polygon>
            </g>
            <polygon id="Fill-6" fill="#FF931E" points="75.3418 290.4496 56.7388 304.7406 56.6348 76.8206 75.3418 91.9596"></polygon>
            <polygon id="Fill-7" fill="#FCECDE" points="0.2556 93.2207 -0.0004 298.0197 56.7396 304.7407 56.6356 77.2417"></polygon>
            <polygon id="Fill-8" fill="#738290" points="25.7344 107.6742 5.5814 112.6512 5.5814 100.7072 25.7344 95.7312"></polygon>
            <polygon id="Fill-9" fill="#738290" points="51.1582 101.7025 31.0052 106.6795 31.0052 94.7355 51.1582 89.7595"></polygon>
            <polygon id="Fill-10" fill="#738290" points="25.7344 129.5702 5.5814 134.5472 5.5814 122.6032 25.7344 117.6272"></polygon>
            <polygon id="Fill-11" fill="#738290" points="51.1582 124.3807 31.0052 129.3577 31.0052 117.4137 51.1582 112.4377"></polygon>
            <polygon id="Fill-12" fill="#738290" points="25.4238 263.9335 5.5808 263.9335 5.5808 251.9905 25.7348 250.9955"></polygon>
            <polygon id="Fill-13" fill="#738290" points="50.8477 263.4359 31.0047 263.4359 31.0047 251.4929 51.1587 250.4979"></polygon>
            <polygon id="Fill-14" fill="#738290" points="25.4238 240.7933 5.5808 242.2863 5.5808 230.3423 25.7348 228.8503"></polygon>
            <polygon id="Fill-15" fill="#738290" points="50.8477 239.5135 31.0047 241.0065 31.0047 229.0635 51.1587 227.5705"></polygon>
            <polygon id="Fill-16" fill="#738290" points="25.4238 218.8968 5.5808 220.3898 5.5808 208.4468 25.7348 206.9538"></polygon>
            <polygon id="Fill-17" fill="#738290" points="50.8477 216.8353 31.0047 218.3283 31.0047 206.3853 51.1587 204.8923"></polygon>
            <polygon id="Fill-18" fill="#738290" points="25.4238 151.9642 5.2708 155.9452 5.2708 144.0022 25.4238 140.0212"></polygon>
            <polygon id="Fill-19" fill="#738290" points="51.1582 147.5565 31.0052 151.5375 31.0052 139.5945 51.1582 135.6135"></polygon>
            <polygon id="Fill-20" fill="#738290" points="25.7344 174.3583 5.5814 177.3443 5.5814 165.4003 25.7344 162.4153"></polygon>
            <polygon id="Fill-21" fill="#738290" points="51.1582 170.7323 31.0052 173.7183 31.0052 161.7743 51.1582 158.7893"></polygon>
            <polygon id="Fill-22" fill="#738290" points="25.7344 196.7518 5.5814 198.7428 5.5814 186.7988 25.7344 184.8088"></polygon>
            <polygon id="Fill-23" fill="#738290" points="51.1582 193.9086 31.0052 195.8986 31.0052 183.9556 51.1582 181.9646"></polygon>
            <g id="Group-30" transform="translate(92.000000, 0.307000)">
                <g id="Group-26">
                    <mask id="mask-2" fill="white">
                        <use xlink:href="#path-1"></use>
                    </mask>
                    <g id="Clip-25"></g>
                    <polygon id="Fill-24" fill="#999999" mask="url(#mask-2)" points="89.8057 10.7529 0.8717 28.7189 0.0637 18.6589 89.8057 0.6929"></polygon>
                </g>
                <g id="Group-29" transform="translate(89.000000, 0.000000)">
                    <mask id="mask-4" fill="white">
                        <use xlink:href="#path-3"></use>
                    </mask>
                    <g id="Clip-28"></g>
                    <polygon id="Fill-27" fill="#B7B7B7" mask="url(#mask-4)" points="8.8906 9.3169 0.8056 10.7529 0.8056 0.6929"></polygon>
                </g>
            </g>
            <polygon id="Fill-31" fill="#FF931E" points="191.7873 337.307 230.3143 316.671 230.3143 30.048 191.5703 8.186"></polygon>
            <polygon id="Fill-32" fill="#FCECDE" points="74.808 31.8695 74.277 327.6005 191.787 337.3065 191.57 8.7935"></polygon>
            <polygon id="Fill-33" fill="#FFF4E9" points="227.4248 56.3329 197.8878 41.9609 197.8878 29.7449 227.4248 44.1169"></polygon>
            <polygon id="Fill-34" fill="#999999" points="199.172 45.015 231.278 45.015 231.278 43.578 199.172 43.578"></polygon>
            <polygon id="Fill-35" fill="#999999" points="197.887 46.811 199.813 46.811 199.813 41.781 197.887 41.781"></polygon>
            <polygon id="Fill-36" fill="#999999" points="211.373 51.482 243.479 51.482 243.479 50.045 211.373 50.045"></polygon>
            <polygon id="Fill-37" fill="#999999" points="210.088 53.279 212.014 53.279 212.014 48.249 210.088 48.249"></polygon>
            <polygon id="Fill-38" fill="#999999" points="222.931 56.512 255.038 56.512 255.038 55.076 222.931 55.076"></polygon>
            <polygon id="Fill-39" fill="#999999" points="221.646 58.309 223.572 58.309 223.572 53.279 221.646 53.279"></polygon>
            <g id="Group-126" transform="translate(0.000000, 0.307000)">
                <path d="M251.4082,60.4106 L245.7822,58.3346 L245.7822,57.2466 C246.5702,57.0166 247.0702,56.1496 246.9322,55.2496 C246.7942,54.3506 246.0632,53.7196 245.2512,53.7986 C244.4382,53.8766 243.8152,54.6386 243.8162,55.5506 C243.8162,55.7936 243.9932,55.9906 244.2102,55.9906 C244.4272,55.9906 244.6022,55.7936 244.6022,55.5506 C244.6022,55.0646 244.9552,54.6706 245.3882,54.6706 C245.8232,54.6706 246.1752,55.0646 246.1752,55.5506 C246.1752,56.0356 245.8232,56.4306 245.3882,56.4306 C245.1722,56.4306 244.9962,56.6266 244.9962,56.8696 L244.9962,58.3346 L239.3692,60.4106 C239.1632,60.4876 239.0522,60.7366 239.1202,60.9676 C239.1882,61.1986 239.4122,61.3236 239.6182,61.2466 L245.3882,59.0926 L251.1602,61.2446 C251.3662,61.3226 251.5892,61.1976 251.6572,60.9666 C251.7252,60.7356 251.6142,60.4866 251.4082,60.4096 L251.4082,60.4106 Z" id="Fill-40" fill="#AC8168"></path>
                <path d="M256,63.9072 L251.677,60.3882 L247.747,59.0692 C247.747,60.5262 246.691,62.1482 245.389,62.1482 C244.086,62.1482 243.03,60.5262 243.03,59.0692 L239.101,60.3882 L234.777,63.4672 L237.528,68.3052 L239.101,66.7052 L239.101,79.7402 L251.677,79.7402 L251.677,66.8652 L253.249,68.3052 L256,63.9072 Z" id="Fill-42" fill="#7C7C7C"></path>
                <polygon id="Fill-44" fill="#738290" points="127.5742 52.4331 85.8362 59.6191 85.8362 42.3721 127.5742 35.1861"></polygon>
                <polygon id="Fill-46" fill="#738290" points="180.2285 43.8096 138.4905 50.9956 138.4905 33.7486 180.2285 26.5626"></polygon>
                <polygon id="Fill-48" fill="#738290" points="127.5742 84.0513 85.8362 91.2373 85.8362 73.9913 127.5742 66.8053"></polygon>
                <polygon id="Fill-50" fill="#738290" points="180.2285 76.5576 138.4905 83.7436 138.4905 66.4966 180.2285 59.3106"></polygon>
                <polygon id="Fill-52" fill="#738290" points="126.9316 278.0742 85.8356 278.0742 85.8356 260.8282 127.5746 259.3902"></polygon>
                <polygon id="Fill-54" fill="#738290" points="179.5869 277.3555 138.4899 277.3555 138.4899 260.1095 180.2289 258.6725"></polygon>
                <polygon id="Fill-56" fill="#738290" points="126.9316 244.6592 85.8356 246.8152 85.8356 229.5692 127.5746 227.4132"></polygon>
                <polygon id="Fill-58" fill="#738290" points="179.5869 242.8115 138.4899 244.9675 138.4899 227.7205 180.2289 225.5645"></polygon>
                <polygon id="Fill-60" fill="#738290" points="126.9316 213.041 85.8356 215.197 85.8356 197.95 127.5746 195.794"></polygon>
                <polygon id="Fill-62" fill="#738290" points="179.5869 210.064 138.4899 212.22 138.4899 194.973 180.2289 192.817"></polygon>
                <polygon id="Fill-64" fill="#738290" points="126.9316 116.3887 85.1936 122.1377 85.1936 104.8907 126.9316 99.1417"></polygon>
                <polygon id="Fill-66" fill="#738290" points="180.2285 110.0239 138.4905 115.7729 138.4905 98.5259 180.2285 92.7769"></polygon>
                <polygon id="Fill-68" fill="#738290" points="127.5742 148.7256 85.8362 153.0376 85.8362 135.7906 127.5742 131.4796"></polygon>
                <polygon id="Fill-70" fill="#738290" points="180.2285 143.4902 138.4905 147.8022 138.4905 130.5552 180.2285 126.2432"></polygon>
                <polygon id="Fill-72" fill="#738290" points="127.5742 181.063 85.8362 183.938 85.8362 166.691 127.5742 163.816"></polygon>
                <polygon id="Fill-74" fill="#738290" points="180.2285 176.9565 138.4905 179.8315 138.4905 162.5845 180.2285 159.7095"></polygon>
                <polygon id="Fill-76" fill="#FFF4E9" points="227.4248 89.2017 197.8878 74.8297 197.8878 62.6137 227.4248 76.9857"></polygon>
                <mask id="mask-6" fill="white">
                    <use xlink:href="#path-5"></use>
                </mask>
                <g id="Clip-79"></g>
                <polygon id="Fill-78" fill="#999999" mask="url(#mask-6)" points="199.172 77.883 231.278 77.883 231.278 76.446 199.172 76.446"></polygon>
                <polygon id="Fill-80" fill="#999999" mask="url(#mask-6)" points="197.887 79.68 199.813 79.68 199.813 74.65 197.887 74.65"></polygon>
                <polygon id="Fill-81" fill="#999999" mask="url(#mask-6)" points="211.373 84.351 243.479 84.351 243.479 82.914 211.373 82.914"></polygon>
                <polygon id="Fill-82" fill="#999999" mask="url(#mask-6)" points="210.088 86.147 212.014 86.147 212.014 81.117 210.088 81.117"></polygon>
                <polygon id="Fill-83" fill="#999999" mask="url(#mask-6)" points="222.931 89.381 255.037 89.381 255.037 87.944 222.931 87.944"></polygon>
                <polygon id="Fill-84" fill="#999999" mask="url(#mask-6)" points="221.646 91.178 223.572 91.178 223.572 86.148 221.646 86.148"></polygon>
                <polygon id="Fill-85" fill="#FFF4E9" mask="url(#mask-6)" points="227.4248 122.377 197.8878 108.005 197.8878 95.789 227.4248 110.161"></polygon>
                <polygon id="Fill-86" fill="#999999" mask="url(#mask-6)" points="199.172 111.059 231.278 111.059 231.278 109.622 199.172 109.622"></polygon>
                <polygon id="Fill-87" fill="#999999" mask="url(#mask-6)" points="197.887 112.855 199.813 112.855 199.813 107.825 197.887 107.825"></polygon>
                <polygon id="Fill-88" fill="#999999" mask="url(#mask-6)" points="211.373 117.526 243.479 117.526 243.479 116.089 211.373 116.089"></polygon>
                <polygon id="Fill-89" fill="#999999" mask="url(#mask-6)" points="210.088 119.323 212.014 119.323 212.014 114.293 210.088 114.293"></polygon>
                <polygon id="Fill-90" fill="#999999" mask="url(#mask-6)" points="222.931 122.557 255.037 122.557 255.037 121.12 222.931 121.12"></polygon>
                <polygon id="Fill-91" fill="#999999" mask="url(#mask-6)" points="221.646 124.353 223.572 124.353 223.572 119.323 221.646 119.323"></polygon>
                <polygon id="Fill-92" fill="#FFF4E9" mask="url(#mask-6)" points="227.4248 155.5527 197.8878 141.1807 197.8878 128.9647 227.4248 143.3367"></polygon>
                <polygon id="Fill-93" fill="#999999" mask="url(#mask-6)" points="199.172 144.234 231.278 144.234 231.278 142.797 199.172 142.797"></polygon>
                <polygon id="Fill-94" fill="#999999" mask="url(#mask-6)" points="197.887 146.031 199.813 146.031 199.813 141.001 197.887 141.001"></polygon>
                <polygon id="Fill-95" fill="#999999" mask="url(#mask-6)" points="211.373 150.702 243.479 150.702 243.479 149.265 211.373 149.265"></polygon>
                <polygon id="Fill-96" fill="#999999" mask="url(#mask-6)" points="210.088 152.499 212.014 152.499 212.014 147.469 210.088 147.469"></polygon>
                <polygon id="Fill-97" fill="#999999" mask="url(#mask-6)" points="222.931 155.732 255.037 155.732 255.037 154.295 222.931 154.295"></polygon>
                <polygon id="Fill-98" fill="#999999" mask="url(#mask-6)" points="221.646 157.529 223.572 157.529 223.572 152.499 221.646 152.499"></polygon>
                <polygon id="Fill-99" fill="#FFF4E9" mask="url(#mask-6)" points="227.4248 188.728 197.8878 174.356 197.8878 162.14 227.4248 176.512"></polygon>
                <polygon id="Fill-100" fill="#999999" mask="url(#mask-6)" points="199.172 177.41 231.278 177.41 231.278 175.973 199.172 175.973"></polygon>
                <polygon id="Fill-101" fill="#999999" mask="url(#mask-6)" points="197.887 179.207 199.813 179.207 199.813 174.177 197.887 174.177"></polygon>
                <polygon id="Fill-102" fill="#999999" mask="url(#mask-6)" points="211.373 183.877 243.479 183.877 243.479 182.44 211.373 182.44"></polygon>
                <polygon id="Fill-103" fill="#999999" mask="url(#mask-6)" points="210.088 185.674 212.014 185.674 212.014 180.644 210.088 180.644"></polygon>
                <polygon id="Fill-104" fill="#999999" mask="url(#mask-6)" points="222.931 188.908 255.037 188.908 255.037 187.471 222.931 187.471"></polygon>
                <polygon id="Fill-105" fill="#999999" mask="url(#mask-6)" points="221.646 190.704 223.572 190.704 223.572 185.674 221.646 185.674"></polygon>
                <polygon id="Fill-106" fill="#FFF4E9" mask="url(#mask-6)" points="227.4248 221.9038 197.8878 207.5318 197.8878 195.3158 227.4248 209.6878"></polygon>
                <polygon id="Fill-107" fill="#999999" mask="url(#mask-6)" points="199.172 210.585 231.278 210.585 231.278 209.148 199.172 209.148"></polygon>
                <polygon id="Fill-108" fill="#999999" mask="url(#mask-6)" points="197.887 212.382 199.813 212.382 199.813 207.352 197.887 207.352"></polygon>
                <polygon id="Fill-109" fill="#999999" mask="url(#mask-6)" points="211.373 217.053 243.479 217.053 243.479 215.616 211.373 215.616"></polygon>
                <polygon id="Fill-110" fill="#999999" mask="url(#mask-6)" points="210.088 218.85 212.014 218.85 212.014 213.82 210.088 213.82"></polygon>
                <polygon id="Fill-111" fill="#999999" mask="url(#mask-6)" points="222.931 222.083 255.037 222.083 255.037 220.646 222.931 220.646"></polygon>
                <polygon id="Fill-112" fill="#999999" mask="url(#mask-6)" points="221.646 223.88 223.572 223.88 223.572 218.85 221.646 218.85"></polygon>
                <path d="M238.6064,61.8599 L219.4434,61.8599 L219.4434,60.9379 L229.0254,55.0219 L238.6064,60.9379 L238.6064,61.8599 Z M239.1134,60.3779 L229.3674,54.3579 L229.3674,52.6309 C230.2494,52.4289 230.8404,51.4969 230.7204,50.4989 C230.5994,49.4999 229.8084,48.7769 228.9104,48.8439 C228.0114,48.9119 227.3144,49.7469 227.3144,50.7549 C227.3144,50.9659 227.4664,51.1369 227.6564,51.1369 C227.8444,51.1369 227.9984,50.9659 227.9984,50.7549 C227.9984,50.1199 228.4584,49.6059 229.0254,49.6059 C229.5914,49.6059 230.0514,50.1199 230.0514,50.7549 C230.0514,51.3889 229.5914,51.9029 229.0254,51.9029 C228.8354,51.9029 228.6824,52.0749 228.6824,52.2859 L228.6824,54.3579 L218.9364,60.3779 C218.8274,60.4449 218.7594,60.5719 218.7584,60.7119 L218.7584,62.2429 C218.7584,62.4549 218.9124,62.6259 219.1014,62.6259 L238.9484,62.6259 C239.1374,62.6259 239.2914,62.4549 239.2914,62.2429 L239.2914,60.7119 C239.2904,60.5719 239.2224,60.4449 239.1134,60.3779 Z" id="Fill-113" fill="#AC8168" mask="url(#mask-6)"></path>
                <path d="M222.8652,60.7109 L235.1842,60.7109 L235.1842,70.6899 C235.1842,71.1129 234.8782,71.4559 234.5002,71.4559 L223.5502,71.4559 C223.1722,71.4559 222.8652,71.1129 222.8652,70.6899 L222.8652,60.7109 Z" id="Fill-114" fill="#FFFFFF" mask="url(#mask-6)"></path>
                <polygon id="Fill-115" fill="#6C81FF" mask="url(#mask-6)" points="222.603 68.242 235.446 68.242 235.446 67.523 222.603 67.523"></polygon>
                <path d="M235.9971,121.4922 L230.3711,119.4162 L230.3711,118.3282 C231.1591,118.0982 231.6591,117.2302 231.5211,116.3312 C231.3831,115.4322 230.6521,114.8012 229.8401,114.8792 C229.0271,114.9582 228.4041,115.7192 228.4051,116.6322 C228.4051,116.8752 228.5821,117.0722 228.7991,117.0722 C229.0161,117.0722 229.1911,116.8752 229.1911,116.6322 C229.1911,116.1462 229.5441,115.7522 229.9771,115.7522 C230.4121,115.7522 230.7641,116.1462 230.7641,116.6322 C230.7641,117.1172 230.4121,117.5122 229.9771,117.5122 C229.7611,117.5122 229.5851,117.7082 229.5851,117.9512 L229.5851,119.4162 L223.9581,121.4922 C223.7521,121.5692 223.6411,121.8182 223.7091,122.0492 C223.7771,122.2802 224.0011,122.4052 224.2071,122.3272 L229.9771,120.1732 L235.7491,122.3262 C235.9551,122.4032 236.1781,122.2782 236.2461,122.0482 C236.3141,121.8172 236.2031,121.5682 235.9971,121.4912 L235.9971,121.4922 Z" id="Fill-116" fill="#AC8168" mask="url(#mask-6)"></path>
                <path d="M240.5889,124.9883 L236.2659,121.4693 L232.3359,120.1503 C232.3359,121.6073 231.2799,123.2293 229.9779,123.2293 C228.6749,123.2293 227.6189,121.6073 227.6189,120.1503 L223.6899,121.4693 L219.3659,124.5483 L222.1169,129.3863 L223.6899,127.7863 L223.6899,140.8213 L236.2659,140.8213 L236.2659,127.9463 L237.8379,129.3863 L240.5889,124.9883 Z" id="Fill-117" fill="#FACD43" mask="url(#mask-6)"></path>
                <path d="M218.6592,214.1919 L213.0332,212.1159 L213.0332,211.0279 C213.8222,210.7979 214.3222,209.9309 214.1832,209.0309 C214.0462,208.1319 213.3152,207.5009 212.5032,207.5799 C211.6902,207.6579 211.0672,208.4199 211.0682,209.3319 C211.0682,209.5749 211.2442,209.7719 211.4612,209.7719 C211.6782,209.7719 211.8542,209.5749 211.8542,209.3319 C211.8542,208.8459 212.2062,208.4519 212.6392,208.4519 C213.0742,208.4519 213.4262,208.8459 213.4262,209.3319 C213.4262,209.8169 213.0742,210.2119 212.6392,210.2119 C212.4232,210.2119 212.2472,210.4079 212.2472,210.6509 L212.2472,212.1159 L206.6212,214.1919 C206.4142,214.2689 206.3032,214.5179 206.3712,214.7489 C206.4402,214.9799 206.6632,215.1049 206.8692,215.0279 L212.6392,212.8739 L218.4112,215.0259 C218.6172,215.1029 218.8402,214.9779 218.9092,214.7479 C218.9772,214.5169 218.8652,214.2679 218.6592,214.1909 L218.6592,214.1919 Z" id="Fill-118" fill="#AC8168" mask="url(#mask-6)"></path>
                <path d="M223.251,217.6885 L218.929,214.1695 L214.998,212.8505 C214.998,214.3075 213.942,215.9295 212.64,215.9295 C211.338,215.9295 210.282,214.3075 210.282,212.8505 L206.352,214.1695 L202.029,217.2485 L204.78,222.0865 L206.352,220.4865 L206.352,233.5215 L218.929,233.5215 L218.929,220.6465 L220.5,222.0865 L223.251,217.6885 Z" id="Fill-119" fill="#2E91A0" mask="url(#mask-6)"></path>
                <path d="M248.8809,232.1689 L229.7179,232.1689 L229.7179,231.2469 L239.2989,225.3309 L248.8809,231.2469 L248.8809,232.1689 Z M249.3879,230.6869 L239.6419,224.6669 L239.6419,222.9399 C240.5239,222.7379 241.1149,221.8059 240.9949,220.8079 C240.8739,219.8089 240.0829,219.0859 239.1849,219.1529 C238.2859,219.2209 237.5879,220.0559 237.5879,221.0639 C237.5879,221.2749 237.7409,221.4459 237.9309,221.4459 C238.1189,221.4459 238.2729,221.2749 238.2729,221.0639 C238.2729,220.4289 238.7329,219.9149 239.2989,219.9149 C239.8659,219.9149 240.3249,220.4289 240.3249,221.0639 C240.3249,221.6979 239.8659,222.2119 239.2989,222.2119 C239.1099,222.2119 238.9569,222.3839 238.9569,222.5949 L238.9569,224.6669 L229.2099,230.6869 C229.1019,230.7539 229.0339,230.8809 229.0329,231.0209 L229.0329,232.5519 C229.0329,232.7639 229.1869,232.9349 229.3759,232.9349 L249.2229,232.9349 C249.4109,232.9349 249.5649,232.7639 249.5649,232.5519 L249.5649,231.0209 C249.5649,230.8809 249.4959,230.7539 249.3879,230.6869 Z" id="Fill-120" fill="#AC8168" mask="url(#mask-6)"></path>
                <path d="M233.1396,231.02 L245.4576,231.02 L245.4576,240.999 C245.4576,241.422 245.1526,241.765 244.7746,241.765 L233.8246,241.765 C233.4466,241.765 233.1396,241.422 233.1396,240.999 L233.1396,231.02 Z" id="Fill-121" fill="#FFB6CD" mask="url(#mask-6)"></path>
                <polygon id="Fill-122" fill="#6C81FF" mask="url(#mask-6)" points="232.878 238.551 245.721 238.551 245.721 237.832 232.878 237.832"></polygon>
                <path d="M219.9844,88.4482 L200.8224,88.4482 L200.8224,87.5262 L210.4034,81.6102 L219.9844,87.5262 L219.9844,88.4482 Z M220.4924,86.9662 L210.7454,80.9462 L210.7454,79.2192 C211.6284,79.0172 212.2194,78.0852 212.0984,77.0872 C211.9784,76.0882 211.1864,75.3652 210.2894,75.4322 C209.3904,75.5002 208.6924,76.3352 208.6924,77.3432 C208.6924,77.5542 208.8454,77.7252 209.0344,77.7252 C209.2234,77.7252 209.3774,77.5542 209.3774,77.3432 C209.3774,76.7082 209.8364,76.1942 210.4034,76.1942 C210.9694,76.1942 211.4294,76.7082 211.4294,77.3432 C211.4294,77.9772 210.9694,78.4912 210.4034,78.4912 C210.2134,78.4912 210.0604,78.6632 210.0604,78.8742 L210.0604,80.9462 L200.3144,86.9662 C200.2064,87.0332 200.1374,87.1602 200.1374,87.2992 L200.1374,88.8312 C200.1374,89.0432 200.2914,89.2142 200.4794,89.2142 L220.3274,89.2142 C220.5154,89.2142 220.6694,89.0432 220.6694,88.8312 L220.6694,87.2992 C220.6684,87.1602 220.6004,87.0332 220.4924,86.9662 Z" id="Fill-123" fill="#AC8168" mask="url(#mask-6)"></path>
                <path d="M204.2441,87.2993 L216.5621,87.2993 L216.5621,97.2783 C216.5621,97.7013 216.2561,98.0443 215.8781,98.0443 L204.9281,98.0443 C204.5501,98.0443 204.2441,97.7013 204.2441,97.2783 L204.2441,87.2993 Z" id="Fill-124" fill="#FFFFFF" mask="url(#mask-6)"></path>
                <polygon id="Fill-125" fill="#6C81FF" mask="url(#mask-6)" points="203.981 94.831 216.824 94.831 216.824 94.112 203.981 94.112"></polygon>
            </g>
        </g>
    </g>
</svg>