<?xml version="1.0" encoding="UTF-8"?>
<svg width="270px" height="360px" viewBox="0 0 270 360" version="1.1" xmlns="http://www.w3.org/2000/svg" xmlns:xlink="http://www.w3.org/1999/xlink">
    <!-- Generator: Sketch 52.6 (67491) - http://www.bohemiancoding.com/sketch -->
    <title>a1-cassia-hdb</title>
    <desc>Created with Sketch.</desc>
    <defs>
        <polygon id="path-1" points="0 358.481013 268.541105 358.481013 268.541105 0.820253165 0 0.820253165"></polygon>
    </defs>
    <g id="a1-cassia-hdb" stroke="none" stroke-width="1" fill="none" fill-rule="evenodd">
        <g id="Group-108">
            <g id="Group-5" transform="translate(8.950276, 94.875949)">
                <polygon id="Fill-1" fill="#999999" points="48.3341768 7.80637975 0.955889503 21.0382785 0.52478453 13.6286582 48.3341768 0.396759494"></polygon>
                <polygon id="Fill-3" fill="#B7B7B7" points="52.6417956 6.74870886 48.3337293 7.80592405 48.3337293 0.396303797"></polygon>
            </g>
            <polygon id="Fill-6" fill="#FF931E" points="83.1271823 327.759494 62.6012155 342.956962 62.4863536 100.566076 83.1271823 116.665823"></polygon>
            <polygon id="Fill-7" fill="#FCECDE" points="0.283276243 118.007544 -0.000149171271 335.807544 62.6010663 342.955899 62.4862044 101.011595"></polygon>
            <polygon id="Fill-8" fill="#738290" points="28.392663 133.378025 6.15868508 138.670177 6.15868508 125.968405 28.392663 120.677772"></polygon>
            <polygon id="Fill-9" fill="#738290" points="56.4438729 127.027595 34.2084033 132.319747 34.2084033 119.617975 56.4438729 114.325823"></polygon>
            <polygon id="Fill-10" fill="#738290" points="28.392663 156.664253 6.15868508 161.956405 6.15868508 149.256152 28.392663 143.964"></polygon>
            <polygon id="Fill-11" fill="#738290" points="56.4438729 151.146076 34.2084033 156.436709 34.2084033 143.736456 56.4438729 138.444304"></polygon>
            <polygon id="Fill-12" fill="#738290" points="28.0518066 299.558734 6.15793923 299.558734 6.15793923 286.858481 28.3934088 285.798228"></polygon>
            <polygon id="Fill-13" fill="#738290" points="56.1030166 299.030734 34.2076575 299.030734 34.2076575 286.328962 56.4446188 285.268709"></polygon>
            <polygon id="Fill-14" fill="#738290" points="28.0518066 274.949468 6.15793923 276.538329 6.15793923 263.836557 28.3934088 262.249215"></polygon>
            <polygon id="Fill-15" fill="#738290" points="56.1030166 273.589215 34.2076575 275.176557 34.2076575 262.474785 56.4446188 260.887443"></polygon>
            <polygon id="Fill-16" fill="#738290" points="28.0518066 251.663241 6.15793923 253.250582 6.15793923 240.550329 28.3934088 238.961468"></polygon>
            <polygon id="Fill-17" fill="#738290" points="56.1030166 249.470734 34.2076575 251.058076 34.2076575 238.357823 56.4446188 236.768962"></polygon>
            <polygon id="Fill-18" fill="#738290" points="28.0518066 180.48 5.81633702 184.714937 5.81633702 172.013165 28.0518066 167.779747"></polygon>
            <polygon id="Fill-19" fill="#738290" points="56.4438729 175.792557 34.2084033 180.027494 34.2084033 167.325722 56.4438729 163.092304"></polygon>
            <polygon id="Fill-20" fill="#738290" points="28.392663 204.295747 6.15868508 207.471949 6.15868508 194.770177 28.392663 191.595494"></polygon>
            <polygon id="Fill-21" fill="#738290" points="56.4438729 200.440405 34.2084033 203.616608 34.2084033 190.914835 56.4438729 187.738633"></polygon>
            <polygon id="Fill-22" fill="#738290" points="28.392663 228.111494 6.15868508 230.228962 6.15868508 217.52719 28.392663 215.411241"></polygon>
            <polygon id="Fill-23" fill="#738290" points="56.4438729 225.088405 34.2084033 227.205873 34.2084033 214.502582 56.4438729 212.386633"></polygon>
            <g id="Group-28" transform="translate(98.453039, 0.698734)">
                <polygon id="Fill-24" fill="#999999" points="96.7944033 11.5192405 1.99755249 30.6265823 1.13534254 19.9268354 96.7944033 0.821012658"></polygon>
                <polygon id="Fill-26" fill="#B7B7B7" points="105.412475 9.99144304 96.7948508 11.5195443 96.7948508 0.821316456"></polygon>
            </g>
            <polygon id="Fill-29" fill="#FF931E" points="205.885442 359.17838 246.955276 337.23357 246.955276 32.4107848 205.655718 9.16268354"></polygon>
            <polygon id="Fill-30" fill="#FCECDE" points="81.1955635 34.348557 80.6302044 348.857924 205.884845 359.177924 205.655122 9.80779747"></polygon>
            <polygon id="Fill-31" fill="#738290" points="135.903829 63.8488101 90.2812873 71.4908354 90.2812873 53.1490633 135.903829 45.507038"></polygon>
            <polygon id="Fill-32" fill="#738290" points="193.457088 54.6777722 147.836039 62.3197975 147.836039 43.9795443 193.457088 36.336"></polygon>
            <polygon id="Fill-33" fill="#738290" points="135.903829 97.4741772 90.2812873 105.116203 90.2812873 86.7759494 135.903829 79.1339241"></polygon>
            <polygon id="Fill-34" fill="#738290" points="193.457088 89.5054177 147.836039 97.147443 147.836039 78.8056709 193.457088 71.1636456"></polygon>
            <polygon id="Fill-35" fill="#738290" points="135.20168 303.817671 90.2817348 303.817671 90.2817348 285.475899 135.904276 283.947797"></polygon>
            <polygon id="Fill-36" fill="#738290" points="192.754939 303.05362 147.836486 303.05362 147.836486 284.711848 193.457536 283.182228"></polygon>
            <polygon id="Fill-37" fill="#738290" points="135.20168 268.280051 90.2817348 270.573722 90.2817348 252.231949 135.904276 249.939797"></polygon>
            <polygon id="Fill-38" fill="#738290" points="192.754939 266.314633 147.836486 268.608304 147.836486 250.266532 193.457536 247.97438"></polygon>
            <polygon id="Fill-39" fill="#738290" points="135.20168 234.654684 90.2817348 236.946835 90.2817348 218.606582 135.904276 216.312911"></polygon>
            <polygon id="Fill-40" fill="#738290" points="192.754939 231.487747 147.836486 233.781418 147.836486 215.439646 193.457536 213.147494"></polygon>
            <polygon id="Fill-41" fill="#738290" points="135.20168 131.864962 89.5791381 137.978886 89.5791381 119.637114 135.20168 113.52319"></polygon>
            <polygon id="Fill-42" fill="#738290" points="193.457088 125.096354 147.836039 131.210278 147.836039 112.868506 193.457088 106.754582"></polygon>
            <polygon id="Fill-43" fill="#738290" points="135.903829 166.255747 90.2812873 170.84157 90.2812873 152.498278 135.903829 147.913975"></polygon>
            <polygon id="Fill-44" fill="#738290" points="193.457088 160.687139 147.836039 165.272962 147.836039 146.93119 193.457088 142.346886"></polygon>
            <polygon id="Fill-45" fill="#738290" points="135.903829 200.646684 90.2812873 203.702886 90.2812873 185.361114 135.903829 182.304911"></polygon>
            <polygon id="Fill-46" fill="#738290" points="193.457088 196.279595 147.836039 199.335797 147.836039 180.994025 193.457088 177.937823"></polygon>
            <polygon id="Fill-47" fill="#FFF4E9" points="242.134359 70.1049114 213.887287 54.8193418 213.887287 41.827443 242.134359 57.1130127"></polygon>
            <polygon id="Fill-48" fill="#999999" points="215.115414 58.0678481 245.819337 58.0678481 245.819337 56.5397468 215.115414 56.5397468"></polygon>
            <polygon id="Fill-49" fill="#999999" points="213.889227 59.9787342 215.73 59.9787342 215.73 54.6288608 213.889227 54.6288608"></polygon>
            <polygon id="Fill-50" fill="#999999" points="226.783591 64.9458228 257.487514 64.9458228 257.487514 63.4177215 226.783591 63.4177215"></polygon>
            <polygon id="Fill-51" fill="#999999" points="225.555912 66.8567089 227.398177 66.8567089 227.398177 61.5083544 225.555912 61.5083544"></polygon>
            <polygon id="Fill-52" fill="#999999" points="237.837182 70.2956962 268.541105 70.2956962 268.541105 68.7660759 237.837182 68.7660759"></polygon>
            <polygon id="Fill-53" fill="#999999" points="236.609503 72.2065823 238.450276 72.2065823 238.450276 66.8567089 236.609503 66.8567089"></polygon>
            <polygon id="Fill-54" fill="#FFF4E9" points="242.134359 105.386582 213.887287 90.1010127 213.887287 77.1106329 242.134359 92.3946835"></polygon>
            <polygon id="Fill-55" fill="#999999" points="215.115414 93.3508861 245.819337 93.3508861 245.819337 91.8212658 215.115414 91.8212658"></polygon>
            <polygon id="Fill-56" fill="#999999" points="213.889227 95.2602532 215.73 95.2602532 215.73 89.9103797 213.889227 89.9103797"></polygon>
            <polygon id="Fill-57" fill="#999999" points="226.783591 100.227342 257.487514 100.227342 257.487514 98.6992405 226.783591 98.6992405"></polygon>
            <polygon id="Fill-58" fill="#999999" points="225.555912 102.138228 227.398177 102.138228 227.398177 96.7898734 225.555912 96.7898734"></polygon>
            <polygon id="Fill-59" fill="#999999" points="237.837182 105.578734 268.541105 105.578734 268.541105 104.049114 237.837182 104.049114"></polygon>
            <polygon id="Fill-60" fill="#999999" points="236.609503 107.488101 238.450276 107.488101 238.450276 102.138228 236.609503 102.138228"></polygon>
            <polygon id="Fill-61" fill="#FFF4E9" points="242.134359 140.668861 213.887287 125.383291 213.887287 112.392911 242.134359 127.676962"></polygon>
            <polygon id="Fill-62" fill="#999999" points="215.115414 128.632405 245.819337 128.632405 245.819337 127.102785 215.115414 127.102785"></polygon>
            <polygon id="Fill-63" fill="#999999" points="213.889227 130.541772 215.73 130.541772 215.73 125.193418 213.889227 125.193418"></polygon>
            <polygon id="Fill-64" fill="#999999" points="226.783591 135.51038 257.487514 135.51038 257.487514 133.982278 226.783591 133.982278"></polygon>
            <polygon id="Fill-65" fill="#999999" points="225.555912 137.419747 227.398177 137.419747 227.398177 132.071392 225.555912 132.071392"></polygon>
            <polygon id="Fill-66" fill="#999999" points="237.837182 140.860253 268.541105 140.860253 268.541105 139.332152 237.837182 139.332152"></polygon>
            <polygon id="Fill-67" fill="#999999" points="236.609503 142.771139 238.450276 142.771139 238.450276 137.421266 236.609503 137.421266"></polygon>
            <polygon id="Fill-68" fill="#FFF4E9" points="242.134359 175.951139 213.887287 160.66557 213.887287 147.673671 242.134359 162.957722"></polygon>
            <polygon id="Fill-69" fill="#999999" points="215.115414 163.913924 245.819337 163.913924 245.819337 162.385823 215.115414 162.385823"></polygon>
            <polygon id="Fill-70" fill="#999999" points="213.889227 165.82481 215.73 165.82481 215.73 160.476456 213.889227 160.476456"></polygon>
            <polygon id="Fill-71" fill="#999999" points="226.783591 170.791899 257.487514 170.791899 257.487514 169.263797 226.783591 169.263797"></polygon>
            <polygon id="Fill-72" fill="#999999" points="225.555912 172.702785 227.398177 172.702785 227.398177 167.35443 225.555912 167.35443"></polygon>
            <polygon id="Fill-73" fill="#999999" points="237.837182 176.141772 268.541105 176.141772 268.541105 174.613671 237.837182 174.613671"></polygon>
            <polygon id="Fill-74" fill="#999999" points="236.609503 178.051139 238.450276 178.051139 238.450276 172.702785 236.609503 172.702785"></polygon>
            <polygon id="Fill-75" fill="#FFF4E9" points="242.134359 211.232051 213.887287 195.946481 213.887287 182.956101 242.134359 198.240152"></polygon>
            <polygon id="Fill-76" fill="#999999" points="215.115414 199.195443 245.819337 199.195443 245.819337 197.667342 215.115414 197.667342"></polygon>
            <polygon id="Fill-77" fill="#999999" points="213.889227 201.106329 215.73 201.106329 215.73 195.757975 213.889227 195.757975"></polygon>
            <polygon id="Fill-78" fill="#999999" points="226.783591 206.074937 257.487514 206.074937 257.487514 204.545316 226.783591 204.545316"></polygon>
            <polygon id="Fill-79" fill="#999999" points="225.555912 207.984304 227.398177 207.984304 227.398177 202.63443 225.555912 202.63443"></polygon>
            <polygon id="Fill-80" fill="#999999" points="237.837182 211.423291 268.541105 211.423291 268.541105 209.89519 237.837182 209.89519"></polygon>
            <polygon id="Fill-81" fill="#999999" points="236.609503 213.334177 238.450276 213.334177 238.450276 207.985823 236.609503 207.985823"></polygon>
            <polygon id="Fill-82" fill="#FFF4E9" points="242.134359 246.514329 213.887287 231.228759 213.887287 218.23838 242.134359 233.52243"></polygon>
            <polygon id="Fill-83" fill="#999999" points="215.115414 234.478481 245.819337 234.478481 245.819337 232.948861 215.115414 232.948861"></polygon>
            <polygon id="Fill-84" fill="#999999" points="213.889227 236.389367 215.73 236.389367 215.73 231.039494 213.889227 231.039494"></polygon>
            <polygon id="Fill-85" fill="#999999" points="226.783591 241.356456 257.487514 241.356456 257.487514 239.826835 226.783591 239.826835"></polygon>
            <polygon id="Fill-86" fill="#999999" points="225.555912 243.267342 227.398177 243.267342 227.398177 237.917468 225.555912 237.917468"></polygon>
            <polygon id="Fill-87" fill="#999999" points="237.837182 246.70481 268.541105 246.70481 268.541105 245.178228 237.837182 245.178228"></polygon>
            <polygon id="Fill-88" fill="#999999" points="236.609503 248.615696 238.450276 248.615696 238.450276 243.267342 236.609503 243.267342"></polygon>
            <g id="Group-107" transform="translate(0.000000, 0.698734)">
                <path d="M262.630939,73.2548354 L256.999724,71.1373671 L256.999724,70.0300253 C257.78884,69.7961013 258.288564,68.9105316 258.151326,67.9945823 C258.011105,67.0771139 257.281657,66.4345823 256.467182,66.5150886 C255.654199,66.5940759 255.030663,67.3702785 255.032155,68.2998987 C255.032155,68.5474937 255.206685,68.749519 255.425967,68.749519 C255.642265,68.749519 255.819779,68.5474937 255.819779,68.2998987 C255.819779,67.8062278 256.170331,67.4036962 256.605912,67.4036962 C257.04,67.4036962 257.392044,67.8062278 257.392044,68.2998987 C257.392044,68.7950886 257.04,69.1976203 256.605912,69.1976203 C256.388122,69.1976203 256.212099,69.3981266 256.212099,69.6457215 L256.212099,71.1373671 L250.580884,73.2548354 C250.373536,73.3338228 250.261657,73.5874937 250.331768,73.8214177 C250.400387,74.0568608 250.622652,74.1844557 250.828508,74.1069873 L256.605912,71.9105316 L262.381823,74.1054684 C262.589171,74.1829367 262.811436,74.0553418 262.880055,73.8198987 C262.948674,73.5859747 262.836796,73.3323038 262.630939,73.2533165 L262.630939,73.2548354 Z" id="Fill-89" fill="#AC8168"></path>
                <path d="M267.226906,76.8179241 L262.899448,73.2315949 L258.965801,71.8872911 C258.965801,73.3713418 257.909669,75.024 256.605912,75.024 C255.302155,75.024 254.24453,73.3713418 254.24453,71.8872911 L250.310884,73.2315949 L245.984917,76.3698228 L248.737127,81.3004557 L250.310884,79.6705823 L250.310884,92.9556456 L262.899448,92.9556456 L262.899448,79.8331139 L264.473204,81.3004557 L267.226906,76.8179241 Z" id="Fill-91" fill="#7C7C7C"></path>
                <path d="M253.584448,138.761165 L247.953232,136.643696 L247.953232,135.536354 C248.74384,135.30243 249.243564,134.41838 249.104834,133.500911 C248.966105,132.584962 248.235166,131.940911 247.422182,132.021418 C246.609199,132.100405 245.984171,132.876608 245.985663,133.806228 C245.985663,134.053823 246.161685,134.254329 246.379475,134.254329 C246.595773,134.254329 246.773287,134.053823 246.773287,133.806228 C246.773287,133.311038 247.125331,132.910025 247.55942,132.910025 C247.995,132.910025 248.347044,133.311038 248.347044,133.806228 C248.347044,134.301418 247.995,134.703949 247.55942,134.703949 C247.34163,134.703949 247.165608,134.904456 247.165608,135.152051 L247.165608,136.643696 L241.534392,138.761165 C241.328536,138.840152 241.216657,139.093823 241.285276,139.327747 C241.353895,139.56319 241.57616,139.690785 241.783508,139.613316 L247.55942,137.416861 L253.336823,139.611797 C253.54268,139.689266 253.764945,139.561671 253.835055,139.327747 C253.903674,139.092304 253.791796,138.838633 253.584448,138.759646 L253.584448,138.761165 Z" id="Fill-93" fill="#AC8168"></path>
                <path d="M258.181906,142.324253 L253.854448,138.737924 L249.920801,137.39362 C249.920801,138.877671 248.863177,140.530329 247.55942,140.530329 C246.255663,140.530329 245.19953,138.877671 245.19953,137.39362 L241.265884,138.737924 L236.938425,141.876152 L239.692127,146.806785 L241.265884,145.176911 L241.265884,158.461975 L253.854448,158.461975 L253.854448,145.339443 L255.426713,146.806785 L258.181906,142.324253 Z" id="Fill-95" fill="#FACD43"></path>
                <path d="M254.308525,250.571392 L248.677309,248.455443 L248.677309,247.348101 C249.466425,247.112658 249.967641,246.228608 249.828912,245.311139 C249.690182,244.39519 248.959243,243.752658 248.14626,243.831646 C247.333276,243.912152 246.708249,244.688354 246.70974,245.617975 C246.70974,245.86557 246.885762,246.066076 247.103552,246.066076 C247.319851,246.066076 247.497365,245.86557 247.497365,245.617975 C247.497365,245.122785 247.849409,244.720253 248.283497,244.720253 C248.719077,244.720253 249.06963,245.122785 249.06963,245.617975 C249.06963,246.113165 248.719077,246.514177 248.283497,246.514177 C248.065707,246.514177 247.889685,246.716203 247.889685,246.962278 L247.889685,248.455443 L242.25847,250.571392 C242.052613,250.65038 241.940735,250.90557 242.009354,251.139494 C242.077972,251.374937 242.300238,251.501013 242.507586,251.425063 L248.283497,249.227089 L254.060901,251.423544 C254.266757,251.499494 254.489022,251.373418 254.559133,251.137975 C254.627751,250.902532 254.515873,250.648861 254.308525,250.569873 L254.308525,250.571392 Z" id="Fill-97" fill="#AC8168"></path>
                <path d="M258.904492,254.136 L254.578525,250.549671 L250.644878,249.203848 C250.644878,250.689418 249.587254,252.342076 248.283497,252.342076 C246.97974,252.342076 245.923608,250.689418 245.923608,249.203848 L241.989961,250.549671 L237.662503,253.68638 L240.414713,258.618532 L241.989961,256.988658 L241.989961,270.273722 L254.578525,270.273722 L254.578525,257.15119 L256.15079,258.618532 L258.904492,254.136 Z" id="Fill-99" fill="#2E91A0"></path>
                <path d="M259.037105,215.834886 L239.856663,215.834886 L239.856663,214.894633 L249.445392,208.865772 L259.037105,214.894633 L259.037105,215.834886 Z M259.545779,214.325013 L249.789978,208.189823 L249.789978,206.429316 C250.673072,206.222734 251.26379,205.273367 251.142961,204.255646 C251.023624,203.237924 250.231525,202.501215 249.332022,202.56957 C248.432519,202.637924 247.734398,203.488557 247.734398,204.515392 C247.734398,204.731089 247.886552,204.907291 248.076,204.907291 C248.265448,204.907291 248.419094,204.731089 248.419094,204.515392 C248.419094,203.869823 248.878541,203.344253 249.445392,203.344253 C250.013735,203.344253 250.474674,203.869823 250.474674,204.515392 C250.474674,205.162481 250.013735,205.686532 249.445392,205.686532 C249.257436,205.686532 249.10379,205.862734 249.10379,206.076911 L249.10379,208.189823 L239.347989,214.325013 C239.240586,214.393367 239.171967,214.524 239.171967,214.663747 L239.171967,216.226785 C239.171967,216.440962 239.324122,216.617165 239.513569,216.617165 L259.378707,216.617165 C259.568155,216.617165 259.721801,216.440962 259.721801,216.226785 L259.721801,214.663747 C259.721801,214.524 259.653182,214.393367 259.545779,214.325013 Z" id="Fill-101" fill="#AC8168"></path>
                <path d="M243.28089,214.664506 L255.612878,214.664506 L255.612878,224.835646 C255.612878,225.267038 255.305586,225.616405 254.926691,225.616405 L243.965586,225.616405 C243.588182,225.616405 243.28089,225.267038 243.28089,224.835646 L243.28089,214.664506 Z" id="Fill-103" fill="#FFB6CD"></path>
                <mask id="mask-2" fill="white">
                    <use xlink:href="#path-1"></use>
                </mask>
                <g id="Clip-106"></g>
                <polygon id="Fill-105" fill="#6C81FF" mask="url(#mask-2)" points="243.019392 222.341772 255.874972 222.341772 255.874972 221.60962 243.019392 221.60962"></polygon>
            </g>
        </g>
    </g>
</svg>