<?xml version="1.0" encoding="UTF-8"?>
<svg width="1200px" height="300px" viewBox="0 0 1200 300" version="1.1" xmlns="http://www.w3.org/2000/svg" xmlns:xlink="http://www.w3.org/1999/xlink">
    <!-- Generator: Sketch 52.6 (67491) - http://www.bohemiancoding.com/sketch -->
    <title>playground</title>
    <desc>Created with Sketch.</desc>
    <defs>
        <polygon id="path-1" points="0.5247 0.8297 66 0.8297 66 78.5127 0.5247 78.5127"></polygon>
        <polygon id="path-3" points="0 300 400 300 400 0 0 0"></polygon>
        <polygon id="path-5" points="0.5247 0.8297 66 0.8297 66 78.5127 0.5247 78.5127"></polygon>
        <polygon id="path-7" points="0 300 400 300 400 0 0 0"></polygon>
        <polygon id="path-9" points="0.5247 0.8297 66 0.8297 66 78.5127 0.5247 78.5127"></polygon>
        <polygon id="path-11" points="0 300 400 300 400 0 0 0"></polygon>
    </defs>
    <g id="playground" stroke="none" stroke-width="1" fill="none" fill-rule="evenodd">
        <g id="Group-81">
            <path d="M65.6107,108.3145 C65.6107,108.0925 65.4967,107.9055 65.3327,107.7855 C65.2127,104.8285 64.4487,101.9805 62.7947,100.5695 C60.3277,95.8945 47.6487,93.8565 47.0087,103.1195 C46.7877,106.3345 48.1157,109.2035 50.0767,111.5435 L46.5597,128.2125 L56.7747,128.2125 L55.0447,115.7665 C57.8007,117.4565 61.0787,117.6845 62.3497,117.3515 C63.5937,117.0255 64.4857,115.5965 64.9597,112.9575 C63.8787,112.9575 63.0027,111.5165 63.0027,110.9675 C63.0027,110.4185 63.8787,110.3045 64.9597,110.3045 C65.0707,110.3045 65.1777,110.3115 65.2857,110.3215 C65.3237,109.8305 65.3447,109.3315 65.3497,108.8315 C65.5057,108.7105 65.6107,108.5285 65.6107,108.3145" id="Fill-1" fill="#B28B67"></path>
            <path d="M39.0052,164.2793 C39.7732,174.9313 89.2122,206.2923 89.5012,207.1723 C89.6292,207.5623 84.4992,219.9253 74.1122,244.2583 L78.4342,245.9663 C94.3662,220.1953 101.9242,205.9373 101.1062,203.1913 C99.9342,199.2593 87.1472,186.3273 62.7452,164.3923 L39.0052,164.2793 Z" id="Fill-3" fill="#B28B67"></path>
            <path d="M75.2493,238.7627 L82.3063,241.3737 C97.1843,224.3027 103.0163,210.2167 101.9523,203.0387 C101.2443,198.2547 88.5013,185.3437 63.7263,164.3057 L38.4993,164.3057 C39.3603,188.9737 85.1853,207.2657 85.7973,208.3167 C86.4103,209.3677 80.3783,219.6637 75.2493,238.7627" id="Fill-5" fill="#22646B"></path>
            <path d="M72.5228,243.4189 C71.6398,244.4679 71.0908,245.2939 70.8758,245.8969 C70.6128,246.6299 70.3498,247.7449 70.0858,249.2409 C70.9228,249.5509 78.4428,252.3339 92.6448,257.5909 C93.9358,255.8369 93.9788,254.6479 92.7718,254.0229 C91.5648,253.3979 90.5668,252.8679 89.7768,252.4329 L80.9938,243.7979 C80.8248,243.6319 80.5548,243.6369 80.3908,243.8089 C80.3878,243.8119 80.3858,243.8149 80.3828,243.8169 L79.1138,245.2309 C77.7468,245.3529 76.6968,245.2779 75.9658,245.0079 C75.3728,244.7879 74.6388,244.2399 73.7668,243.3649 C73.4328,243.0289 72.8938,243.0329 72.5638,243.3729 C72.5488,243.3879 72.5358,243.4029 72.5228,243.4189" id="Fill-7" fill="#E4E4E4"></path>
            <polygon id="Fill-9" fill="#997659" points="44.6898 164.2793 22.6668 218.0493 1.0198 263.5073 6.1268 263.5073 62.0018 164.2793"></polygon>
            <path d="M0.7142,261.4082 C0.2372,262.7012 0.0002,263.6682 0.0002,264.3092 C0.0002,265.0902 0.1282,266.2292 0.3832,267.7262 L24.3892,267.7262 C25.0132,265.6292 24.6522,264.4972 23.3092,264.3302 C21.9652,264.1632 20.8482,264.0122 19.9592,263.8772 L8.8022,258.8182 C8.5872,258.7202 8.3352,258.8192 8.2392,259.0372 C8.2382,259.0412 8.2362,259.0452 8.2352,259.0492 L7.5182,260.8182 C6.2742,261.4082 5.2622,261.7042 4.4852,261.7042 C3.8532,261.7042 2.9802,261.4442 1.8662,260.9252 C1.4392,260.7252 0.9342,260.9162 0.7372,261.3512 C0.7292,261.3702 0.7212,261.3882 0.7142,261.4082" id="Fill-11" fill="#E4E4E4"></path>
            <path d="M2.9749,254.0635 L14.3229,256.2275 C23.0969,243.1095 59.8169,189.3195 63.8429,164.2795 L38.5789,164.2795 C25.1349,182.3805 11.3379,240.7285 2.9749,254.0635" id="Fill-13" fill="#22646B"></path>
            <path d="M78.7767,148.8301 L92.3527,158.9691 C96.0357,159.9791 99.1117,161.2361 101.5827,162.7401 C102.1657,163.2811 102.8717,164.3771 100.4507,164.1871 C98.0307,163.9981 95.4767,163.9091 95.1427,164.7491 C94.8087,165.5891 96.2727,166.5931 95.5977,167.7261 C95.1477,168.4801 93.0217,166.5871 89.2197,162.0451 L75.7757,156.3751 L78.7767,148.8301 Z M80.2027,119.9051 L96.3347,114.9801 C99.3437,112.5981 102.1827,110.8561 104.8507,109.7551 C105.6267,109.6061 106.9117,109.6921 105.3057,111.5441 C103.7007,113.3951 102.0937,115.4171 102.5527,116.1931 C103.0107,116.9701 104.6807,116.3851 105.1647,117.6141 C105.4867,118.4341 102.7197,119.0211 96.8647,119.3761 L84.3207,126.8841 L80.2027,119.9051 Z" id="Fill-15" fill="#B28B67"></path>
            <path d="M57.6888,121.5273 C65.0828,135.5463 75.7728,146.2933 91.2718,157.4653 L85.4038,164.1933 C68.0978,157.6533 58.9648,153.7083 54.4798,140.4633 C53.3538,137.1373 52.5678,126.5413 51.8918,120.9653 L57.6888,121.5273 Z" id="Fill-17" fill="#F4D037"></path>
            <path d="M37.0208,168.2354 L69.7928,168.2354 C62.3698,145.2114 58.5778,129.4084 58.4168,120.8284 C58.4088,120.3904 57.6138,119.6194 57.2618,119.7204 C54.6918,120.4594 51.9418,120.1824 49.0108,118.8924 C41.2418,131.5994 38.5548,147.2454 37.0208,168.2354" id="Fill-19" fill="#F2F2F2"></path>
            <path d="M51.8079,118.9131 C61.2019,118.9911 76.4429,120.7351 94.0209,114.9971 L95.7559,123.8151 C82.4709,132.5041 69.0189,139.2351 57.2319,138.2791 C62.3499,160.6071 62.1139,178.8861 50.8139,178.8861 L33.3389,178.8861 C30.5639,159.9181 37.8579,133.6191 44.6209,120.3531 C44.8779,119.8481 45.4279,118.8921 46.7229,118.8921 L51.8009,118.8921 C51.8029,118.8991 51.8049,118.9061 51.8079,118.9131" id="Fill-21" fill="#F4D037"></path>
            <path d="M62.0941,99.2207 C62.3221,99.2987 62.0941,98.3027 61.5501,97.9387 C59.8811,96.8227 54.9131,95.1697 51.5171,95.8867 C49.2401,96.3667 46.4031,97.5737 44.5851,99.1107 C42.9471,100.4957 41.4561,102.9387 40.8761,105.0847 C40.2671,107.3387 40.0361,110.4747 40.8761,112.4407 C41.8751,114.7827 45.4161,117.3057 45.5091,117.6407 C45.6161,118.0237 45.1981,119.5177 44.8921,121.0917 C44.5851,122.6657 44.7251,126.6747 44.8921,127.3277 C45.1581,128.3727 46.5881,128.8867 47.2121,128.9627 C50.6591,129.3807 53.1581,133.7337 54.1981,134.8467 C58.8281,139.5737 62.0601,141.6287 63.8921,141.0137 C64.3741,140.8517 63.6521,134.9787 63.1691,132.4607 C62.6871,129.9437 57.9561,125.4507 57.6541,123.9707 C57.4751,123.0987 57.4461,121.5797 57.4271,121.5107 C56.9811,118.3827 57.0581,118.1287 56.4071,116.8547 C55.7561,115.5797 55.2511,115.5047 55.4071,115.1337 C56.1721,113.3197 58.6301,107.7697 59.1881,105.9537 C59.8521,103.7907 59.5381,104.5017 60.2231,102.3457 C60.5271,101.3917 60.9121,98.8177 62.0941,99.2207" id="Fill-23" fill="#2E91A0"></path>
            <path d="M45.3685,116.6611 L45.6685,116.2901 C49.7575,117.5931 49.3025,120.2821 54.4525,123.0051 L54.0215,123.2701 C49.5125,121.3781 48.4585,117.3181 45.3685,116.6611 Z M49.0055,102.1851 C49.6375,107.0581 49.8215,109.8421 53.1135,115.1731 L52.7645,115.2811 C49.3755,110.6401 48.8385,106.8511 48.6785,102.2121 L49.0055,102.1851 Z M43.2885,105.6791 C44.6805,109.1121 45.3145,111.1401 49.1995,113.9181 L48.8995,114.1321 C45.0425,111.9081 43.9195,109.2571 42.9965,105.8221 L43.2885,105.6791 Z M53.3055,99.4621 C52.5585,101.8711 52.3975,103.1571 52.5585,106.4481 L52.1925,106.4481 C51.5085,103.3421 52.1175,100.4181 52.8455,99.4621 L53.3055,99.4621 Z" id="Fill-25" fill="#000000"></path>
            <path d="M62.4808,105.3652 C62.3728,105.8072 62.4068,106.5252 62.9658,106.5982 C63.0498,106.6092 63.1298,106.5452 63.1728,106.4802 C63.4478,106.0612 63.2658,105.5292 62.9618,105.1842 C62.8998,105.1122 62.7518,105.0872 62.6718,105.1462 C62.5308,105.2542 62.4768,105.3132 62.4858,105.5002 C62.5008,105.8062 62.9778,105.8082 62.9638,105.5002 C62.9618,105.4692 62.9608,105.4382 62.9598,105.4082 C62.9198,105.4762 62.8798,105.5462 62.8408,105.6142 C62.8658,105.5962 62.8898,105.5782 62.9148,105.5592 C62.8178,105.5472 62.7208,105.5352 62.6248,105.5222 C62.7808,105.6992 62.9088,106.0112 62.7598,106.2392 C62.8288,106.1992 62.8978,106.1602 62.9658,106.1202 C62.8528,106.1052 62.9328,105.5302 62.9418,105.4922 C63.0148,105.1932 62.5538,105.0662 62.4808,105.3652" id="Fill-27" fill="#23292B"></path>
            <path d="M62.1302,103.7998 C62.4552,103.4218 62.8982,103.3098 63.3632,103.4878 C63.6512,103.5968 63.7762,103.1348 63.4902,103.0268 C62.8782,102.7928 62.2182,102.9678 61.7922,103.4618 C61.5922,103.6938 61.9282,104.0328 62.1302,103.7998" id="Fill-29" fill="#23292B"></path>
            <path d="M142.7591,71.3721 L108.6061,107.6891 L108.6061,158.9121 L123.5871,167.2501 L123.5871,141.1661 L123.6131,141.1661 C123.6091,140.9821 123.5871,140.8041 123.5871,140.6191 C123.5871,129.1361 132.1691,119.8271 142.7551,119.8271 C153.3411,119.8271 161.9221,129.1361 161.9221,140.6191 C161.9221,140.8041 161.9021,140.9821 161.8971,141.1661 L161.9221,141.1661 L162.5041,172.2521 L177.7551,167.2001 L178.5421,110.4001 L142.7591,71.3721 Z" id="Fill-31" fill="#FFFDF6"></path>
            <g id="Group-35" transform="translate(334.000000, 166.000000)">
                <mask id="mask-2" fill="white">
                    <use xlink:href="#path-1"></use>
                </mask>
                <g id="Clip-34"></g>
                <polygon id="Fill-33" fill="#F7D3A4" mask="url(#mask-2)" points="0.5247 39.0547 51.4497 78.5127 66.0007 53.8517 0.5247 0.8297"></polygon>
            </g>
            <mask id="mask-4" fill="white">
                <use xlink:href="#path-3"></use>
            </mask>
            <g id="Clip-37"></g>
            <polygon id="Fill-36" fill="#B2B2B2" mask="url(#mask-4)" points="108.514 283.543 114.344 283.543 114.344 105.177 108.514 105.177"></polygon>
            <polygon id="Fill-38" fill="#B2B2B2" mask="url(#mask-4)" points="327.696 260.037 334.529 260.037 334.529 123.673 327.696 123.673"></polygon>
            <polygon id="Fill-39" fill="#C3E1E5" mask="url(#mask-4)" points="178.1156 155.2891 280.7076 175.4611 280.7076 115.3911 178.1156 95.0431"></polygon>
            <polygon id="Fill-40" fill="#B2B2B2" mask="url(#mask-4)" points="218.46 236.608 225.551 236.608 225.551 41.057 218.46 41.057"></polygon>
            <polygon id="Fill-41" fill="#B2B2B2" mask="url(#mask-4)" points="174.662 287.669 180.54 287.669 180.54 107.643 174.662 107.643"></polygon>
            <polygon id="Fill-42" fill="#C8E9F1" mask="url(#mask-4)" points="177.7366 168.8525 270.7356 189.0245 270.7356 128.9555 177.7366 108.6065"></polygon>
            <path d="M301.598,87.4023 L267.444,123.7183 L267.444,174.9423 L283.169,172.0003 L282.426,157.1953 L282.452,157.1953 C282.448,157.0113 282.426,156.8333 282.426,156.6483 C282.426,145.1663 291.008,135.8563 301.594,135.8563 C312.179,135.8563 320.761,145.1663 320.761,156.6483 C320.761,156.8333 320.74,157.0113 320.736,157.1953 L320.761,157.1953 L319.979,185.3253 L334.529,184.0923 L335.744,123.7183 L301.598,87.4023 Z" id="Fill-43" fill="#FFFDF6" mask="url(#mask-4)"></path>
            <path d="M284.3509,164.2041 C282.3299,164.0991 272.5139,164.1661 265.9449,178.3651 C263.8249,182.9471 250.3389,221.7721 244.4309,231.1781 C233.7369,248.2031 222.1659,247.8551 199.5189,267.5001 C196.1449,270.4271 199.3999,279.9371 202.2819,283.5631 C203.6559,285.2911 205.4159,285.0431 206.0569,284.8731 C211.9849,283.2961 245.5189,249.9291 247.5769,248.8581 C253.8679,245.5841 259.6179,229.6811 263.9329,206.9491 C265.8429,196.8901 265.1919,191.2341 269.5949,182.0661 C273.2589,174.4391 284.6939,173.5541 284.6939,172.2441 C284.6939,172.1841 284.7069,164.2231 284.3509,164.2041" id="Fill-44" fill="#2E91A0" mask="url(#mask-4)"></path>
            <path d="M285.1419,170.7734 C279.0789,171.7454 271.1049,174.2174 266.4129,181.2594 C264.1709,184.6244 263.5879,187.6664 262.7879,191.0894 C262.7879,191.0894 259.9749,203.1254 251.3089,223.8574 C246.5939,235.1384 243.2429,243.1574 235.6009,250.0724 C225.8819,258.8684 215.1149,260.5464 204.1839,274.3204 C202.7429,276.1374 201.7249,277.6274 201.7679,279.5634 C201.9669,288.5564 224.8729,300.0234 243.4549,295.9474 C266.0979,290.9804 278.0129,263.8774 280.9129,257.2814 C292.6449,230.5954 287.6929,214.5334 302.6629,195.6774 C309.0589,187.6214 313.5689,181.8294 318.9749,179.2934" id="Fill-45" fill="#06BBCE" mask="url(#mask-4)"></path>
            <path d="M321.3919,175.3613 C319.4499,175.2553 304.7429,176.2223 298.4329,190.4343 C296.3979,195.0193 295.4329,198.9773 294.8089,202.2313 C291.7879,217.9603 289.0029,236.7263 283.3289,246.1403 C273.0589,263.1793 272.4539,259.9023 250.7049,279.5633 C247.4639,282.4933 240.0819,294.9403 242.8509,298.5693 C244.1699,300.2993 245.8609,300.0493 246.4759,299.8803 C252.1689,298.3003 284.3739,264.9063 286.3499,263.8353 C292.3919,260.5573 297.9139,244.6413 302.0579,221.8913 C303.8919,211.8233 303.2669,206.1633 307.4959,196.9883 C311.0139,189.3543 321.9959,188.4683 321.9959,187.1583 C321.9959,187.0973 322.5999,181.2593 322.5999,178.6373 C322.5999,174.4933 321.7339,175.3803 321.3919,175.3613" id="Fill-46" fill="#2E91A0" mask="url(#mask-4)"></path>
            <path d="M123.306,148.0742 C121.365,147.9682 111.938,148.0362 105.628,162.2472 C103.593,166.8332 90.642,205.6902 84.968,215.1032 C74.698,232.1422 63.586,231.7952 41.836,251.4552 C38.595,254.3852 41.721,263.9032 44.49,267.5322 C45.809,269.2622 47.499,269.0132 48.115,268.8432 C53.808,267.2642 86.013,233.8702 87.989,232.7982 C94.031,229.5212 99.553,213.6052 103.698,190.8552 C105.532,180.7872 104.906,175.1272 109.135,165.9512 C112.654,158.3172 123.634,157.4312 123.634,156.1212 C123.634,156.0612 123.649,148.0932 123.306,148.0742" id="Fill-47" fill="#2E91A0" mask="url(#mask-4)"></path>
            <path d="M127.5159,154.7441 C121.4529,155.7161 113.4789,158.1871 108.7869,165.2291 C106.5439,168.5951 105.9619,171.6361 105.1619,175.0601 C105.1619,175.0601 102.3489,187.0961 93.6829,207.8281 C88.9669,219.1081 85.6159,227.1271 77.9749,234.0431 C68.2549,242.8381 57.4889,244.5171 46.5579,258.2911 C45.1169,260.1081 44.0989,261.5971 44.1419,263.5341 C44.3409,272.5271 67.2469,283.9941 85.8279,279.9181 C108.4709,274.9501 120.3869,247.8471 123.2869,241.2521 C135.0179,214.5661 130.0669,198.5041 145.0369,179.6471 C151.4319,171.5921 155.9419,165.8001 161.3489,163.2641" id="Fill-48" fill="#06BBCE" mask="url(#mask-4)"></path>
            <path d="M163.765,159.3311 C161.824,159.2261 147.117,160.1931 140.807,174.4051 C138.772,178.9901 137.807,182.9481 137.182,186.2011 C134.161,201.9301 131.377,220.6971 125.703,230.1101 C115.433,247.1491 114.828,243.8731 93.078,263.5341 C89.838,266.4631 82.456,278.9101 85.225,282.5391 C86.543,284.2691 88.235,284.0201 88.849,283.8501 C94.543,282.2711 126.748,248.8771 128.724,247.8051 C134.766,244.5281 140.288,228.6121 144.432,205.8621 C146.266,195.7941 145.641,190.1341 149.869,180.9581 C153.388,173.3251 164.369,172.4381 164.369,171.1281 C164.369,171.0681 164.974,165.2291 164.974,162.6081 C164.974,158.4641 164.108,159.3511 163.765,159.3311" id="Fill-49" fill="#2E91A0" mask="url(#mask-4)"></path>
            <polygon id="Fill-50" fill="#FFB53E" mask="url(#mask-4)" points="334.5247 223.5508 385.4497 263.0078 400.0007 238.3468 334.5247 185.3248"></polygon>
            <polygon id="Fill-51" fill="#DD7045" mask="url(#mask-4)" points="143.1419 71.2002 164.3819 64.0002 195.0619 93.5992 177.3579 114.3332"></polygon>
            <polyline id="Fill-52" fill="#DD7045" mask="url(#mask-4)" points="108.5286 108 109.3156 100 147.8626 67.2 164.3826 64 146.7336 76.333"></polyline>
            <polyline id="Fill-53" fill="#DD7045" mask="url(#mask-4)" points="265.8626 124.7998 266.6486 116.7998 305.1956 83.9998 321.7166 80.7998 304.0676 93.1328"></polyline>
            <path d="M222.0062,11.3203 C236.7612,11.3203 248.7232,23.7383 248.7232,39.0563 C248.7232,54.3743 236.7612,66.7923 222.0062,66.7923 C207.2502,66.7923 195.2882,54.3743 195.2882,39.0563 C195.2882,23.7383 207.2502,11.3203 222.0062,11.3203" id="Fill-54" fill="#FFB53E" mask="url(#mask-4)"></path>
            <path d="M222.0062,15.8496 C231.8432,15.8496 239.8172,26.7456 239.8172,40.1886 C239.8172,53.6306 231.8432,64.5286 222.0062,64.5286 C212.1692,64.5286 204.1942,53.6306 204.1942,40.1886 C204.1942,26.7456 212.1692,15.8496 222.0062,15.8496" id="Fill-55" fill="#FDE14C" mask="url(#mask-4)"></path>
            <path d="M252.0618,19.2451 L248.5198,22.8471 C248.6488,22.0371 248.7228,21.2141 248.7228,20.3771 C248.7228,9.1231 236.7608,0.0001 222.0058,0.0001 C207.2498,0.0001 195.2898,9.1231 195.2898,20.3771 C195.2898,21.2141 195.3628,22.0371 195.4918,22.8471 L191.9498,19.2451 C191.9498,19.2451 187.9228,29.4811 187.5278,36.3271 C187.4958,36.8861 187.9288,37.3581 188.4788,37.3581 L190.8358,37.3581 L190.8358,39.8611 C190.8358,40.3721 191.2258,40.7951 191.7268,40.8281 C194.3268,41.0051 202.2278,41.2591 210.2608,38.6821 C209.7608,38.4901 222.0058,32.8301 222.0058,32.8301 C222.0058,32.8301 233.1378,38.4901 233.7508,38.6821 C241.7838,41.2591 249.6858,41.0051 252.2848,40.8281 C252.7858,40.7951 253.1748,40.3721 253.1748,39.8611 L253.1748,37.3581 L255.5328,37.3581 C256.0828,37.3581 256.5158,36.8861 256.4838,36.3271 C256.0878,29.4811 252.0618,19.2451 252.0618,19.2451" id="Fill-56" fill="#FDE14C" mask="url(#mask-4)"></path>
            <path d="M248.4251,8.7314 C252.2111,6.5724 253.5521,3.5564 254.0281,1.6934 C254.2091,0.9804 253.5301,0.3724 252.8471,0.6164 C244.3061,3.6654 230.3981,-0.7316 223.4181,11.2904 C222.7781,12.3934 221.2341,12.3934 220.5941,11.2904 C213.6131,-0.7316 199.7051,3.6654 191.1651,0.6164 C190.4811,0.3724 189.8021,0.9804 189.9841,1.6934 C190.4591,3.5564 191.8011,6.5724 195.5871,8.7324 C196.2411,9.1054 196.3721,9.9974 195.8361,10.5324 C192.3281,14.0364 190.3321,19.0984 190.9461,24.6214 C191.8061,32.3324 197.9051,38.5804 205.4831,39.4984 C212.5151,40.3494 218.8071,36.7494 222.0061,31.1064 C225.2041,36.7494 231.4961,40.3494 238.5291,39.4984 C246.1071,38.5804 252.2061,32.3324 253.0651,24.6214 C253.6801,19.0984 251.6841,14.0364 248.1751,10.5324 C247.6401,9.9974 247.7701,9.1054 248.4251,8.7314" id="Fill-57" fill="#FFB53E" mask="url(#mask-4)"></path>
            <path d="M207.5345,11.3203 C213.6815,11.3203 218.6665,16.3893 218.6665,22.6413 C218.6665,28.8933 213.6815,33.9623 207.5345,33.9623 C201.3865,33.9623 196.4025,28.8933 196.4025,22.6413 C196.4025,16.3893 201.3865,11.3203 207.5345,11.3203" id="Fill-58" fill="#FDE14C" mask="url(#mask-4)"></path>
            <path d="M222.7357,39.9082 L224.9477,33.9092 C225.1897,33.2522 225.0327,32.5122 224.5447,32.0142 L223.5807,31.0342 C222.7107,30.1502 221.3007,30.1502 220.4317,31.0342 L219.4667,32.0142 C218.9797,32.5122 218.8217,33.2522 219.0637,33.9092 L221.2757,39.9082 C221.5287,40.5942 222.4827,40.5942 222.7357,39.9082" id="Fill-59" fill="#EBAF4B" mask="url(#mask-4)"></path>
            <path d="M209.6146,19.6924 C211.3796,19.6924 212.8096,21.1474 212.8096,22.9414 C212.8096,24.7354 211.3796,26.1894 209.6146,26.1894 C207.8506,26.1894 206.4206,24.7354 206.4206,22.9414 C206.4206,21.1474 207.8506,19.6924 209.6146,19.6924" id="Fill-60" fill="#000000" mask="url(#mask-4)"></path>
            <path d="M236.4779,11.3203 C242.6249,11.3203 247.6099,16.3893 247.6099,22.6413 C247.6099,28.8933 242.6249,33.9623 236.4779,33.9623 C230.3299,33.9623 225.3449,28.8933 225.3449,22.6413 C225.3449,16.3893 230.3299,11.3203 236.4779,11.3203" id="Fill-61" fill="#FDE14C" mask="url(#mask-4)"></path>
            <path d="M234.6693,19.0078 C236.4343,19.0078 237.8633,20.4618 237.8633,22.2558 C237.8633,24.0498 236.4343,25.5048 234.6693,25.5048 C232.9053,25.5048 231.4753,24.0498 231.4753,22.2558 C231.4753,20.4618 232.9053,19.0078 234.6693,19.0078" id="Fill-62" fill="#000000" mask="url(#mask-4)"></path>
            <polygon id="Fill-63" fill="#F9F0E4" mask="url(#mask-4)" points="335.2923 128.2607 352.5583 108.7997 353.3453 167.1997 333.8513 183.9627"></polygon>
            <polygon id="Fill-64" fill="#DD7045" mask="url(#mask-4)" points="302.0491 86.4004 323.2891 79.2004 353.9691 108.7994 336.2651 129.5324"></polygon>
            <path d="M146.7943,139.1055 L143.8173,125.4155 C145.4783,123.4925 146.6013,121.1355 146.4133,118.4955 C145.8723,110.8865 135.1393,112.5605 133.0513,116.4005 C131.3523,119.5245 131.3823,125.1725 132.9043,127.5415 C132.9703,127.5335 134.1163,126.7945 134.1853,126.7945 C134.7813,126.7945 134.9053,127.5285 134.1853,128.2605 C134.1143,128.3335 134.1543,128.4595 134.0993,128.5465 C134.1283,128.5565 134.1543,128.5765 134.1853,128.5845 C135.2613,128.8575 137.2773,130.2695 139.6113,128.8815 L138.1473,139.1055 L146.7943,139.1055 Z" id="Fill-65" fill="#B28B67" mask="url(#mask-4)"></path>
            <path d="M139.139,121.8125 C140.161,120.1395 141.17,119.5255 142.164,119.9685 C143.158,120.4125 143.384,121.4895 142.842,123.1995 L143.361,127.1265 L144.482,127.1265 C145.567,122.3635 148.66,119.1155 148.187,116.9865 C147.872,115.5665 147.8,113.9975 146.437,113.6515 C145.732,110.8365 141.631,110.3865 137.788,110.8065 C132.024,111.4365 129.564,113.7395 131.083,118.9365 C132.481,118.9365 134.736,117.7745 137.068,118.6285" id="Fill-66" fill="#191847" mask="url(#mask-4)"></path>
            <path d="M129.0726,186.2959 C130.6176,183.5879 135.6126,174.0429 137.3226,169.3319 C137.8146,167.9789 138.2796,166.6649 138.7066,165.4289 C139.9776,161.7529 133.5536,158.7639 132.4996,162.3299 C129.8706,171.2099 126.6376,183.8759 126.3266,184.9539 C125.8886,186.4659 128.1016,187.9969 129.0726,186.2959" id="Fill-67" fill="#B28B67" mask="url(#mask-4)"></path>
            <path d="M130.1966,185.7119 C130.4426,186.2729 130.5746,186.6959 130.5926,186.9819 C130.6126,187.3279 130.5866,187.8379 130.5126,188.5099 C130.1176,188.5349 126.5616,188.7579 119.8466,189.1779 C119.5126,188.2639 119.6426,187.7509 120.2356,187.6389 C120.8286,187.5269 121.3206,187.4289 121.7116,187.3449 L126.5336,184.7859 C126.6266,184.7369 126.7406,184.7739 126.7886,184.8679 C126.7896,184.8689 126.7906,184.8709 126.7916,184.8729 L127.1576,185.6389 C127.7256,185.8659 128.1836,185.9699 128.5286,185.9479 C128.8096,185.9309 129.1906,185.7909 129.6716,185.5289" id="Fill-68" fill="#E4E4E4" mask="url(#mask-4)"></path>
            <path d="M135.054,172.9687 C142.157,171.6797 151.943,163.9627 150.718,155.3787 L139.186,155.3787 C137.453,155.8937 138.538,157.5877 125.797,163.4417" id="Fill-69" fill="#5C63AB" mask="url(#mask-4)"></path>
            <path d="M154.2913,144.498 L149.9493,143.997 C151.6113,153.113 152.5183,157.954 152.6693,158.518 C153.0103,159.786 151.7793,161.509 151.2293,162.448 C152.5713,163.262 152.6963,160.856 154.3863,161.916 C155.9273,162.883 157.0063,164.429 159.0263,163.472 C159.2743,163.354 159.5923,162.838 159.0283,162.337 C157.6233,161.088 155.6383,158.96 155.4113,158.311 C155.1023,157.426 154.7283,152.821 154.2913,144.498 Z M129.2613,136.09 L123.1483,144.794 C121.1573,146.122 119.5723,147.477 118.3953,148.859 C118.1523,149.296 117.9433,150.085 119.3443,149.493 C120.7433,148.901 122.2413,148.344 122.6013,148.775 C122.9593,149.207 122.2823,150.093 122.8993,150.631 C123.3123,150.99 124.2103,149.445 125.5963,145.998 L132.4863,139.972 L129.2613,136.09 Z" id="Fill-70" fill="#B28B67" mask="url(#mask-4)"></path>
            <path d="M113.2171,187.0283 C114.7621,184.3213 119.7571,174.7753 121.4671,170.0653 C121.9581,168.7123 122.4241,167.3973 122.8511,166.1613 C124.1221,162.4853 117.6981,159.4973 116.6441,163.0623 C114.0151,171.9433 110.7821,184.6083 110.4711,185.6863 C110.0331,187.1983 112.2461,188.7293 113.2171,187.0283" id="Fill-71" fill="#B28B67" mask="url(#mask-4)"></path>
            <path d="M114.8665,185.6475 C115.1295,186.2465 115.2695,186.6975 115.2885,187.0015 C115.3105,187.3715 115.2835,187.9145 115.2045,188.6315 C114.7825,188.6585 110.9905,188.8955 103.8285,189.3445 C103.4725,188.3695 103.6105,187.8215 104.2435,187.7025 C104.8755,187.5835 105.3995,187.4785 105.8175,187.3885 L110.9605,184.6605 C111.0585,184.6075 111.1805,184.6465 111.2325,184.7475 C111.2335,184.7495 111.2345,184.7515 111.2345,184.7515 L111.6255,185.5695 C112.2325,185.8125 112.7205,185.9215 113.0885,185.8995 C113.3875,185.8805 113.7945,185.7315 114.3065,185.4525" id="Fill-72" fill="#E4E4E4" mask="url(#mask-4)"></path>
            <path d="M121.846,171.5029 C128.415,170.2139 137.467,162.4969 136.334,153.9129 L125.667,153.9129 C124.066,154.4279 125.069,156.1219 113.284,161.9759" id="Fill-73" fill="#5C63AB" mask="url(#mask-4)"></path>
            <path d="M147.5452,161.9756 L128.4162,161.9756 C126.2512,161.9756 124.4802,160.2046 124.4802,158.0386 L124.4802,156.3836 C124.4802,154.2186 126.2512,152.4476 128.4162,152.4476 L147.5452,152.4476 C149.7102,152.4476 151.4822,154.2186 151.4822,156.3836 L151.4822,158.0386 C151.4822,160.2046 149.7102,161.9756 147.5452,161.9756" id="Fill-74" fill="#5C63AB" mask="url(#mask-4)"></path>
            <path d="M152.2025,133.3916 C148.5985,131.4046 147.9945,130.2746 145.7165,128.9946 C145.9005,129.3226 145.7165,130.1196 145.7165,130.4596 C145.7165,131.1926 144.9355,131.5586 141.7525,131.5586 C138.5675,131.5586 135.9865,130.7386 135.9865,129.7266 C135.9865,129.7226 135.9885,129.7186 135.9885,129.7136 L135.8335,129.7266 C135.8335,129.7466 135.8315,129.7666 135.8315,129.7876 C133.4235,131.2106 131.6375,131.9566 129.2715,134.1236 C127.3735,135.8636 126.4185,136.2126 126.2715,137.0556 C126.0175,138.5106 129.0915,140.9886 132.6965,140.7206 C130.3715,145.1816 127.4325,149.1426 126.3845,152.9336 C126.2255,153.5076 126.0185,154.6456 127.1175,154.6456 L151.1545,154.6456 C150.7695,150.9336 150.5955,147.5536 150.3095,144.4416 C155.0855,144.3846 156.5885,146.2086 156.5265,144.3846 C156.4905,143.3066 155.0985,134.9886 152.2025,133.3916" id="Fill-75" fill="#C8E9F1" mask="url(#mask-4)"></path>
            <path d="M133.93,121.7627 C133.91,122.0877 134.045,122.3187 134.299,122.5087 C134.442,122.6167 134.642,122.4977 134.687,122.3517 C134.788,122.0227 134.713,121.7367 134.471,121.4957 C134.23,121.2557 133.856,121.6287 134.097,121.8687 C134.124,121.9837 134.151,122.0967 134.178,122.2107 C134.307,122.1587 134.437,122.1057 134.566,122.0527 C134.53,121.9557 134.494,121.8597 134.458,121.7627 C134.478,121.4227 133.95,121.4237 133.93,121.7627" id="Fill-76" fill="#191847" mask="url(#mask-4)"></path>
            <path d="M133.3958,120.6748 C133.9198,120.2878 135.0258,120.3088 135.2888,121.0498 C135.4018,121.3678 135.9128,121.2308 135.7978,120.9088 C135.4298,119.8708 133.9578,119.6058 133.1288,120.2188 C132.8588,120.4178 133.1228,120.8768 133.3958,120.6748" id="Fill-77" fill="#191847" mask="url(#mask-4)"></path>
            <path d="M132.7327,124.4072 C132.3027,124.7992 132.4527,125.4192 133.0087,125.5722 C133.1407,125.6082 133.1967,125.4052 133.0657,125.3692 C132.6327,125.0962 132.5717,124.8262 132.8817,124.5562 C132.9827,124.4652 132.8337,124.3162 132.7327,124.4072" id="Fill-78" fill="#191847" mask="url(#mask-4)"></path>
            <path d="M131.9232,121.5889 C131.9112,121.7939 131.9502,121.9389 132.0572,122.1119 C132.1752,122.3059 132.4772,122.2709 132.5392,122.0489 C132.6182,121.7709 132.5912,121.5649 132.4672,121.3049 C132.3572,121.0749 132.0622,121.1819 131.9842,121.3679 C131.8792,121.6199 131.8772,121.8399 131.9662,122.0969 C132.0522,122.3459 132.3912,122.3489 132.4762,122.0969 C132.4852,122.0669 132.4962,122.0359 132.5072,122.0049 C132.6162,121.6829 132.1062,121.5439 131.9972,121.8639 C131.9862,121.8959 131.9772,121.9259 131.9662,121.9559 L132.4762,121.9559 C132.4022,121.7969 132.4082,121.6479 132.4932,121.5089 C132.3322,121.5289 132.1712,121.5509 132.0112,121.5709 C132.0172,121.6839 132.0242,121.7959 132.0302,121.9079 C132.1912,121.8879 132.3522,121.8659 132.5132,121.8459 C132.4922,121.7599 132.4722,121.6739 132.4512,121.5889 C132.4712,121.2489 131.9432,121.2499 131.9232,121.5889" id="Fill-79" fill="#191847" mask="url(#mask-4)"></path>
            <path d="M131.6898,120.7354 C131.9688,120.5004 132.2728,120.3564 132.6278,120.2744 C132.9598,120.1974 132.8198,119.6884 132.4878,119.7644 C132.0418,119.8684 131.6658,120.0664 131.3168,120.3624 C131.0568,120.5824 131.4318,120.9544 131.6898,120.7354" id="Fill-80" fill="#191847" mask="url(#mask-4)"></path>
        </g>
        <g id="Group-67" transform="translate(400.000000, 0.000000)">
            <path d="M142.7591,71.3721 L108.6061,107.6891 L108.6061,158.9121 L123.5871,167.2501 L123.5871,141.1661 L123.6131,141.1661 C123.6091,140.9821 123.5871,140.8041 123.5871,140.6191 C123.5871,129.1361 132.1691,119.8271 142.7551,119.8271 C153.3411,119.8271 161.9221,129.1361 161.9221,140.6191 C161.9221,140.8041 161.9021,140.9821 161.8971,141.1661 L161.9221,141.1661 L162.5041,172.2521 L177.7551,167.2001 L178.5421,110.4001 L142.7591,71.3721 Z" id="Fill-1" fill="#FFFDF6"></path>
            <g id="Group-5" transform="translate(334.000000, 166.000000)">
                <mask id="mask-6" fill="white">
                    <use xlink:href="#path-5"></use>
                </mask>
                <g id="Clip-4"></g>
                <polygon id="Fill-3" fill="#F7D3A4" mask="url(#mask-6)" points="0.5247 39.0547 51.4497 78.5127 66.0007 53.8517 0.5247 0.8297"></polygon>
            </g>
            <mask id="mask-8" fill="white">
                <use xlink:href="#path-7"></use>
            </mask>
            <g id="Clip-7"></g>
            <polygon id="Fill-6" fill="#B2B2B2" mask="url(#mask-8)" points="108.514 283.543 114.344 283.543 114.344 105.177 108.514 105.177"></polygon>
            <path d="M65.6107,108.3145 C65.6107,108.0925 65.4967,107.9055 65.3327,107.7855 C65.2127,104.8285 64.4487,101.9805 62.7947,100.5695 C60.3277,95.8945 47.6487,93.8565 47.0087,103.1195 C46.7877,106.3345 48.1157,109.2035 50.0767,111.5435 L46.5597,128.2125 L56.7747,128.2125 L55.0447,115.7665 C57.8007,117.4565 61.0787,117.6845 62.3497,117.3515 C63.5937,117.0255 64.4857,115.5965 64.9597,112.9575 C63.8787,112.9575 63.0027,111.5165 63.0027,110.9675 C63.0027,110.4185 63.8787,110.3045 64.9597,110.3045 C65.0707,110.3045 65.1777,110.3115 65.2857,110.3215 C65.3237,109.8305 65.3447,109.3315 65.3497,108.8315 C65.5057,108.7105 65.6107,108.5285 65.6107,108.3145" id="Fill-8" fill="#B28B67" mask="url(#mask-8)"></path>
            <path d="M39.0052,164.2793 C39.7732,174.9313 89.2122,206.2923 89.5012,207.1723 C89.6292,207.5623 84.4992,219.9253 74.1122,244.2583 L78.4342,245.9663 C94.3662,220.1953 101.9242,205.9373 101.1062,203.1913 C99.9342,199.2593 87.1472,186.3273 62.7452,164.3923 L39.0052,164.2793 Z" id="Fill-9" fill="#B28B67" mask="url(#mask-8)"></path>
            <path d="M75.2493,238.7627 L82.3063,241.3737 C97.1843,224.3027 103.0163,210.2167 101.9523,203.0387 C101.2443,198.2547 88.5013,185.3437 63.7263,164.3057 L38.4993,164.3057 C39.3603,188.9737 85.1853,207.2657 85.7973,208.3167 C86.4103,209.3677 80.3783,219.6637 75.2493,238.7627" id="Fill-10" fill="#22646B" mask="url(#mask-8)"></path>
            <path d="M72.5228,243.4189 C71.6398,244.4679 71.0908,245.2939 70.8758,245.8969 C70.6128,246.6299 70.3498,247.7449 70.0858,249.2409 C70.9228,249.5509 78.4428,252.3339 92.6448,257.5909 C93.9358,255.8369 93.9788,254.6479 92.7718,254.0229 C91.5648,253.3979 90.5668,252.8679 89.7768,252.4329 L80.9938,243.7979 C80.8248,243.6319 80.5548,243.6369 80.3908,243.8089 C80.3878,243.8119 80.3858,243.8149 80.3828,243.8169 L79.1138,245.2309 C77.7468,245.3529 76.6968,245.2779 75.9658,245.0079 C75.3728,244.7879 74.6388,244.2399 73.7668,243.3649 C73.4328,243.0289 72.8938,243.0329 72.5638,243.3729 C72.5488,243.3879 72.5358,243.4029 72.5228,243.4189" id="Fill-11" fill="#E4E4E4" mask="url(#mask-8)"></path>
            <polygon id="Fill-12" fill="#997659" mask="url(#mask-8)" points="44.6898 164.2793 22.6668 218.0493 1.0198 263.5073 6.1268 263.5073 62.0018 164.2793"></polygon>
            <path d="M0.7142,261.4082 C0.2372,262.7012 0.0002,263.6682 0.0002,264.3092 C0.0002,265.0902 0.1282,266.2292 0.3832,267.7262 L24.3892,267.7262 C25.0132,265.6292 24.6522,264.4972 23.3092,264.3302 C21.9652,264.1632 20.8482,264.0122 19.9592,263.8772 L8.8022,258.8182 C8.5872,258.7202 8.3352,258.8192 8.2392,259.0372 C8.2382,259.0412 8.2362,259.0452 8.2352,259.0492 L7.5182,260.8182 C6.2742,261.4082 5.2622,261.7042 4.4852,261.7042 C3.8532,261.7042 2.9802,261.4442 1.8662,260.9252 C1.4392,260.7252 0.9342,260.9162 0.7372,261.3512 C0.7292,261.3702 0.7212,261.3882 0.7142,261.4082" id="Fill-13" fill="#E4E4E4" mask="url(#mask-8)"></path>
            <path d="M2.9749,254.0635 L14.3229,256.2275 C23.0969,243.1095 59.8169,189.3195 63.8429,164.2795 L38.5789,164.2795 C25.1349,182.3805 11.3379,240.7285 2.9749,254.0635" id="Fill-14" fill="#22646B" mask="url(#mask-8)"></path>
            <path d="M85.4876,133.3584 L102.3086,135.3984 C106.0066,134.4424 109.2996,134.0034 112.1906,134.0784 C112.9666,134.2564 114.1236,134.8554 111.9296,135.8954 C109.7356,136.9354 107.4766,138.1294 107.6046,139.0244 C107.7326,139.9194 109.5026,140.0604 109.4806,141.3794 C109.4666,142.2574 106.6786,141.6734 101.1216,139.6254 L86.6376,141.3964 L85.4876,133.3584 Z" id="Fill-15" fill="#B28B67" mask="url(#mask-8)"></path>
            <path d="M53.6107,120.167 C66.9997,128.649 81.6197,132.652 100.6227,134.631 L98.8807,143.388 C80.6147,146.325 70.7287,147.446 60.2487,138.188 C57.6177,135.865 51.6627,127.064 48.3027,122.563 L53.6107,120.167 Z" id="Fill-16" fill="#F4D037" mask="url(#mask-8)"></path>
            <path d="M37.0208,168.2354 L69.7928,168.2354 C62.3698,145.2114 58.5778,129.4084 58.4168,120.8284 C58.4088,120.3904 57.6138,119.6194 57.2618,119.7204 C54.6918,120.4594 51.9418,120.1824 49.0108,118.8924 C41.2418,131.5994 38.5548,147.2454 37.0208,168.2354" id="Fill-17" fill="#F2F2F2" mask="url(#mask-8)"></path>
            <path d="M79.1126,117.3477 L94.7506,111.0247 C97.5396,108.3867 100.2146,106.4027 102.7746,105.0717 C103.5346,104.8547 104.8216,104.8277 103.3846,106.8137 C101.9496,108.7987 100.5266,110.9527 101.0506,111.6867 C101.5756,112.4197 103.1876,111.6907 103.7776,112.8727 C104.1706,113.6607 101.4666,114.4897 95.6646,115.3577 L83.8296,123.9367 L79.1126,117.3477 Z" id="Fill-18" fill="#B28B67" mask="url(#mask-8)"></path>
            <path d="M50.7406,118.8535 C60.1056,118.1055 75.4416,118.5045 92.4466,111.2445 L94.9506,119.8755 C82.4796,129.6985 69.6716,137.5845 57.8446,137.6675 C64.9056,159.4605 66.2756,177.6885 55.0186,178.6815 C49.6436,179.1555 43.8416,179.6665 37.6126,180.2165 C33.1816,161.5655 38.1366,134.7275 43.7086,120.9195 C43.9216,120.3925 44.3856,119.3935 45.6746,119.2795 C46.7986,119.1805 48.4846,119.0315 50.7326,118.8325 C50.7356,118.8395 50.7386,118.8465 50.7406,118.8535" id="Fill-19" fill="#F4D037" mask="url(#mask-8)"></path>
            <path d="M62.0941,99.2207 C62.3221,99.2987 62.0941,98.3027 61.5501,97.9387 C59.8811,96.8227 54.9131,95.1697 51.5171,95.8867 C49.2401,96.3667 46.4031,97.5737 44.5851,99.1107 C42.9471,100.4957 41.4561,102.9387 40.8761,105.0847 C40.2671,107.3387 40.0361,110.4747 40.8761,112.4407 C41.8751,114.7827 45.4161,117.3057 45.5091,117.6407 C45.6161,118.0237 45.1981,119.5177 44.8921,121.0917 C44.5851,122.6657 44.7251,126.6747 44.8921,127.3277 C45.1581,128.3727 46.5881,128.8867 47.2121,128.9627 C50.6591,129.3807 53.1581,133.7337 54.1981,134.8467 C58.8281,139.5737 62.0601,141.6287 63.8921,141.0137 C64.3741,140.8517 63.6521,134.9787 63.1691,132.4607 C62.6871,129.9437 57.9561,125.4507 57.6541,123.9707 C57.4751,123.0987 57.4461,121.5797 57.4271,121.5107 C56.9811,118.3827 57.0581,118.1287 56.4071,116.8547 C55.7561,115.5797 55.2511,115.5047 55.4071,115.1337 C56.1721,113.3197 58.6301,107.7697 59.1881,105.9537 C59.8521,103.7907 59.5381,104.5017 60.2231,102.3457 C60.5271,101.3917 60.9121,98.8177 62.0941,99.2207" id="Fill-20" fill="#2E91A0" mask="url(#mask-8)"></path>
            <path d="M45.3685,116.6611 L45.6685,116.2901 C49.7575,117.5931 49.3025,120.2821 54.4525,123.0051 L54.0215,123.2701 C49.5125,121.3781 48.4585,117.3181 45.3685,116.6611 Z M49.0055,102.1851 C49.6375,107.0581 49.8215,109.8421 53.1135,115.1731 L52.7645,115.2811 C49.3755,110.6401 48.8385,106.8511 48.6785,102.2121 L49.0055,102.1851 Z M43.2885,105.6791 C44.6805,109.1121 45.3145,111.1401 49.1995,113.9181 L48.8995,114.1321 C45.0425,111.9081 43.9195,109.2571 42.9965,105.8221 L43.2885,105.6791 Z M53.3055,99.4621 C52.5585,101.8711 52.3975,103.1571 52.5585,106.4481 L52.1925,106.4481 C51.5085,103.3421 52.1175,100.4181 52.8455,99.4621 L53.3055,99.4621 Z" id="Fill-21" fill="#000000" mask="url(#mask-8)"></path>
            <path d="M62.4808,105.3652 C62.3728,105.8072 62.4068,106.5252 62.9658,106.5982 C63.0498,106.6092 63.1298,106.5452 63.1728,106.4802 C63.4478,106.0612 63.2658,105.5292 62.9618,105.1842 C62.8998,105.1122 62.7518,105.0872 62.6718,105.1462 C62.5308,105.2542 62.4768,105.3132 62.4858,105.5002 C62.5008,105.8062 62.9778,105.8082 62.9638,105.5002 C62.9618,105.4692 62.9608,105.4382 62.9598,105.4082 C62.9198,105.4762 62.8798,105.5462 62.8408,105.6142 C62.8658,105.5962 62.8898,105.5782 62.9148,105.5592 C62.8178,105.5472 62.7208,105.5352 62.6248,105.5222 C62.7808,105.6992 62.9088,106.0112 62.7598,106.2392 C62.8288,106.1992 62.8978,106.1602 62.9658,106.1202 C62.8528,106.1052 62.9328,105.5302 62.9418,105.4922 C63.0148,105.1932 62.5538,105.0662 62.4808,105.3652" id="Fill-22" fill="#23292B" mask="url(#mask-8)"></path>
            <path d="M62.1302,103.7998 C62.4552,103.4218 62.8982,103.3098 63.3632,103.4878 C63.6512,103.5968 63.7762,103.1348 63.4902,103.0268 C62.8782,102.7928 62.2182,102.9678 61.7922,103.4618 C61.5922,103.6938 61.9282,104.0328 62.1302,103.7998" id="Fill-23" fill="#23292B" mask="url(#mask-8)"></path>
            <polygon id="Fill-24" fill="#B2B2B2" mask="url(#mask-8)" points="327.696 260.037 334.529 260.037 334.529 123.673 327.696 123.673"></polygon>
            <polygon id="Fill-25" fill="#C3E1E5" mask="url(#mask-8)" points="178.1156 155.2891 280.7076 175.4611 280.7076 115.3911 178.1156 95.0431"></polygon>
            <polygon id="Fill-26" fill="#B2B2B2" mask="url(#mask-8)" points="218.46 236.608 225.551 236.608 225.551 41.057 218.46 41.057"></polygon>
            <polygon id="Fill-27" fill="#B2B2B2" mask="url(#mask-8)" points="174.662 287.669 180.54 287.669 180.54 107.643 174.662 107.643"></polygon>
            <polygon id="Fill-28" fill="#C8E9F1" mask="url(#mask-8)" points="177.7366 168.8525 270.7356 189.0245 270.7356 128.9555 177.7366 108.6065"></polygon>
            <path d="M301.598,87.4023 L267.444,123.7183 L267.444,174.9423 L283.169,172.0003 L282.426,157.1953 L282.452,157.1953 C282.448,157.0113 282.426,156.8333 282.426,156.6483 C282.426,145.1663 291.008,135.8563 301.594,135.8563 C312.179,135.8563 320.761,145.1663 320.761,156.6483 C320.761,156.8333 320.74,157.0113 320.736,157.1953 L320.761,157.1953 L319.979,185.3253 L334.529,184.0923 L335.744,123.7183 L301.598,87.4023 Z" id="Fill-29" fill="#FFFDF6" mask="url(#mask-8)"></path>
            <path d="M284.3509,164.2041 C282.3299,164.0991 272.5139,164.1661 265.9449,178.3651 C263.8249,182.9471 250.3389,221.7721 244.4309,231.1781 C233.7369,248.2031 222.1659,247.8551 199.5189,267.5001 C196.1449,270.4271 199.3999,279.9371 202.2819,283.5631 C203.6559,285.2911 205.4159,285.0431 206.0569,284.8731 C211.9849,283.2961 245.5189,249.9291 247.5769,248.8581 C253.8679,245.5841 259.6179,229.6811 263.9329,206.9491 C265.8429,196.8901 265.1919,191.2341 269.5949,182.0661 C273.2589,174.4391 284.6939,173.5541 284.6939,172.2441 C284.6939,172.1841 284.7069,164.2231 284.3509,164.2041" id="Fill-30" fill="#2E91A0" mask="url(#mask-8)"></path>
            <path d="M285.1419,170.7734 C279.0789,171.7454 271.1049,174.2174 266.4129,181.2594 C264.1709,184.6244 263.5879,187.6664 262.7879,191.0894 C262.7879,191.0894 259.9749,203.1254 251.3089,223.8574 C246.5939,235.1384 243.2429,243.1574 235.6009,250.0724 C225.8819,258.8684 215.1149,260.5464 204.1839,274.3204 C202.7429,276.1374 201.7249,277.6274 201.7679,279.5634 C201.9669,288.5564 224.8729,300.0234 243.4549,295.9474 C266.0979,290.9804 278.0129,263.8774 280.9129,257.2814 C292.6449,230.5954 287.6929,214.5334 302.6629,195.6774 C309.0589,187.6214 313.5689,181.8294 318.9749,179.2934" id="Fill-31" fill="#06BBCE" mask="url(#mask-8)"></path>
            <path d="M321.3919,175.3613 C319.4499,175.2553 304.7429,176.2223 298.4329,190.4343 C296.3979,195.0193 295.4329,198.9773 294.8089,202.2313 C291.7879,217.9603 289.0029,236.7263 283.3289,246.1403 C273.0589,263.1793 272.4539,259.9023 250.7049,279.5633 C247.4639,282.4933 240.0819,294.9403 242.8509,298.5693 C244.1699,300.2993 245.8609,300.0493 246.4759,299.8803 C252.1689,298.3003 284.3739,264.9063 286.3499,263.8353 C292.3919,260.5573 297.9139,244.6413 302.0579,221.8913 C303.8919,211.8233 303.2669,206.1633 307.4959,196.9883 C311.0139,189.3543 321.9959,188.4683 321.9959,187.1583 C321.9959,187.0973 322.5999,181.2593 322.5999,178.6373 C322.5999,174.4933 321.7339,175.3803 321.3919,175.3613" id="Fill-32" fill="#2E91A0" mask="url(#mask-8)"></path>
            <path d="M123.306,148.0742 C121.365,147.9682 111.938,148.0362 105.628,162.2472 C103.593,166.8332 90.642,205.6902 84.968,215.1032 C74.698,232.1422 63.586,231.7952 41.836,251.4552 C38.595,254.3852 41.721,263.9032 44.49,267.5322 C45.809,269.2622 47.499,269.0132 48.115,268.8432 C53.808,267.2642 86.013,233.8702 87.989,232.7982 C94.031,229.5212 99.553,213.6052 103.698,190.8552 C105.532,180.7872 104.906,175.1272 109.135,165.9512 C112.654,158.3172 123.634,157.4312 123.634,156.1212 C123.634,156.0612 123.649,148.0932 123.306,148.0742" id="Fill-33" fill="#2E91A0" mask="url(#mask-8)"></path>
            <path d="M127.5159,154.7441 C121.4529,155.7161 113.4789,158.1871 108.7869,165.2291 C106.5439,168.5951 105.9619,171.6361 105.1619,175.0601 C105.1619,175.0601 102.3489,187.0961 93.6829,207.8281 C88.9669,219.1081 85.6159,227.1271 77.9749,234.0431 C68.2549,242.8381 57.4889,244.5171 46.5579,258.2911 C45.1169,260.1081 44.0989,261.5971 44.1419,263.5341 C44.3409,272.5271 67.2469,283.9941 85.8279,279.9181 C108.4709,274.9501 120.3869,247.8471 123.2869,241.2521 C135.0179,214.5661 130.0669,198.5041 145.0369,179.6471 C151.4319,171.5921 155.9419,165.8001 161.3489,163.2641" id="Fill-34" fill="#06BBCE" mask="url(#mask-8)"></path>
            <path d="M163.765,159.3311 C161.824,159.2261 147.117,160.1931 140.807,174.4051 C138.772,178.9901 137.807,182.9481 137.182,186.2011 C134.161,201.9301 131.377,220.6971 125.703,230.1101 C115.433,247.1491 114.828,243.8731 93.078,263.5341 C89.838,266.4631 82.456,278.9101 85.225,282.5391 C86.543,284.2691 88.235,284.0201 88.849,283.8501 C94.543,282.2711 126.748,248.8771 128.724,247.8051 C134.766,244.5281 140.288,228.6121 144.432,205.8621 C146.266,195.7941 145.641,190.1341 149.869,180.9581 C153.388,173.3251 164.369,172.4381 164.369,171.1281 C164.369,171.0681 164.974,165.2291 164.974,162.6081 C164.974,158.4641 164.108,159.3511 163.765,159.3311" id="Fill-35" fill="#2E91A0" mask="url(#mask-8)"></path>
            <polygon id="Fill-36" fill="#FFB53E" mask="url(#mask-8)" points="334.5247 223.5508 385.4497 263.0078 400.0007 238.3468 334.5247 185.3248"></polygon>
            <polygon id="Fill-37" fill="#DD7045" mask="url(#mask-8)" points="143.1419 71.2002 164.3819 64.0002 195.0619 93.5992 177.3579 114.3332"></polygon>
            <polyline id="Fill-38" fill="#DD7045" mask="url(#mask-8)" points="108.5286 108 109.3156 100 147.8626 67.2 164.3826 64 146.7336 76.333"></polyline>
            <polyline id="Fill-39" fill="#DD7045" mask="url(#mask-8)" points="265.8626 124.7998 266.6486 116.7998 305.1956 83.9998 321.7166 80.7998 304.0676 93.1328"></polyline>
            <path d="M222.0062,11.3203 C236.7612,11.3203 248.7232,23.7383 248.7232,39.0563 C248.7232,54.3743 236.7612,66.7923 222.0062,66.7923 C207.2502,66.7923 195.2882,54.3743 195.2882,39.0563 C195.2882,23.7383 207.2502,11.3203 222.0062,11.3203" id="Fill-40" fill="#FFB53E" mask="url(#mask-8)"></path>
            <path d="M222.0062,15.8496 C231.8432,15.8496 239.8172,26.7456 239.8172,40.1886 C239.8172,53.6306 231.8432,64.5286 222.0062,64.5286 C212.1692,64.5286 204.1942,53.6306 204.1942,40.1886 C204.1942,26.7456 212.1692,15.8496 222.0062,15.8496" id="Fill-41" fill="#FDE14C" mask="url(#mask-8)"></path>
            <path d="M252.0618,19.2451 L248.5198,22.8471 C248.6488,22.0371 248.7228,21.2141 248.7228,20.3771 C248.7228,9.1231 236.7608,0.0001 222.0058,0.0001 C207.2498,0.0001 195.2898,9.1231 195.2898,20.3771 C195.2898,21.2141 195.3628,22.0371 195.4918,22.8471 L191.9498,19.2451 C191.9498,19.2451 187.9228,29.4811 187.5278,36.3271 C187.4958,36.8861 187.9288,37.3581 188.4788,37.3581 L190.8358,37.3581 L190.8358,39.8611 C190.8358,40.3721 191.2258,40.7951 191.7268,40.8281 C194.3268,41.0051 202.2278,41.2591 210.2608,38.6821 C209.7608,38.4901 222.0058,32.8301 222.0058,32.8301 C222.0058,32.8301 233.1378,38.4901 233.7508,38.6821 C241.7838,41.2591 249.6858,41.0051 252.2848,40.8281 C252.7858,40.7951 253.1748,40.3721 253.1748,39.8611 L253.1748,37.3581 L255.5328,37.3581 C256.0828,37.3581 256.5158,36.8861 256.4838,36.3271 C256.0878,29.4811 252.0618,19.2451 252.0618,19.2451" id="Fill-42" fill="#FDE14C" mask="url(#mask-8)"></path>
            <path d="M248.4251,8.7314 C252.2111,6.5724 253.5521,3.5564 254.0281,1.6934 C254.2091,0.9804 253.5301,0.3724 252.8471,0.6164 C244.3061,3.6654 230.3981,-0.7316 223.4181,11.2904 C222.7781,12.3934 221.2341,12.3934 220.5941,11.2904 C213.6131,-0.7316 199.7051,3.6654 191.1651,0.6164 C190.4811,0.3724 189.8021,0.9804 189.9841,1.6934 C190.4591,3.5564 191.8011,6.5724 195.5871,8.7324 C196.2411,9.1054 196.3721,9.9974 195.8361,10.5324 C192.3281,14.0364 190.3321,19.0984 190.9461,24.6214 C191.8061,32.3324 197.9051,38.5804 205.4831,39.4984 C212.5151,40.3494 218.8071,36.7494 222.0061,31.1064 C225.2041,36.7494 231.4961,40.3494 238.5291,39.4984 C246.1071,38.5804 252.2061,32.3324 253.0651,24.6214 C253.6801,19.0984 251.6841,14.0364 248.1751,10.5324 C247.6401,9.9974 247.7701,9.1054 248.4251,8.7314" id="Fill-43" fill="#FFB53E" mask="url(#mask-8)"></path>
            <path d="M207.5345,11.3203 C213.6815,11.3203 218.6665,16.3893 218.6665,22.6413 C218.6665,28.8933 213.6815,33.9623 207.5345,33.9623 C201.3865,33.9623 196.4025,28.8933 196.4025,22.6413 C196.4025,16.3893 201.3865,11.3203 207.5345,11.3203" id="Fill-44" fill="#FDE14C" mask="url(#mask-8)"></path>
            <path d="M222.7357,39.9082 L224.9477,33.9092 C225.1897,33.2522 225.0327,32.5122 224.5447,32.0142 L223.5807,31.0342 C222.7107,30.1502 221.3007,30.1502 220.4317,31.0342 L219.4667,32.0142 C218.9797,32.5122 218.8217,33.2522 219.0637,33.9092 L221.2757,39.9082 C221.5287,40.5942 222.4827,40.5942 222.7357,39.9082" id="Fill-45" fill="#EBAF4B" mask="url(#mask-8)"></path>
            <path d="M209.6146,19.6924 C211.3796,19.6924 212.8096,21.1474 212.8096,22.9414 C212.8096,24.7354 211.3796,26.1894 209.6146,26.1894 C207.8506,26.1894 206.4206,24.7354 206.4206,22.9414 C206.4206,21.1474 207.8506,19.6924 209.6146,19.6924" id="Fill-46" fill="#000000" mask="url(#mask-8)"></path>
            <path d="M236.4779,11.3203 C242.6249,11.3203 247.6099,16.3893 247.6099,22.6413 C247.6099,28.8933 242.6249,33.9623 236.4779,33.9623 C230.3299,33.9623 225.3449,28.8933 225.3449,22.6413 C225.3449,16.3893 230.3299,11.3203 236.4779,11.3203" id="Fill-47" fill="#FDE14C" mask="url(#mask-8)"></path>
            <path d="M234.6693,19.0078 C236.4343,19.0078 237.8633,20.4618 237.8633,22.2558 C237.8633,24.0498 236.4343,25.5048 234.6693,25.5048 C232.9053,25.5048 231.4753,24.0498 231.4753,22.2558 C231.4753,20.4618 232.9053,19.0078 234.6693,19.0078" id="Fill-48" fill="#000000" mask="url(#mask-8)"></path>
            <polygon id="Fill-49" fill="#F9F0E4" mask="url(#mask-8)" points="335.2923 128.2607 352.5583 108.7997 353.3453 167.1997 333.8513 183.9627"></polygon>
            <polygon id="Fill-50" fill="#DD7045" mask="url(#mask-8)" points="302.0491 86.4004 323.2891 79.2004 353.9691 108.7994 336.2651 129.5324"></polygon>
            <path d="M144.4876,140.0781 L143.6816,126.0911 C145.6216,124.4501 147.0986,122.2981 147.3246,119.6601 C147.9766,112.0611 137.1136,112.0411 134.4526,115.5081 C132.2876,118.3291 131.4356,123.9131 132.5716,126.4901 C132.6356,126.4921 133.8836,125.9411 133.9516,125.9521 C134.5416,126.0451 134.5496,126.7891 133.7226,127.4001 C133.6416,127.4601 133.6626,127.5911 133.5936,127.6691 C133.6216,127.6831 133.6436,127.7071 133.6736,127.7201 C134.6926,128.1571 136.4656,129.8671 138.9866,128.8601 L135.9456,138.7291 L144.4876,140.0781 Z" id="Fill-51" fill="#B28B67" mask="url(#mask-8)"></path>
            <path d="M139.6224,121.8037 C140.8934,120.3107 141.9844,119.8607 142.8974,120.4527 C143.8094,121.0467 143.8654,122.1457 143.0634,123.7497 L142.9634,127.7107 L144.0704,127.8857 C145.8864,123.3497 149.4464,120.6237 149.3114,118.4467 C149.2224,116.9947 149.3954,115.4337 148.1024,114.8797 C147.8454,111.9897 143.8654,110.9057 140.0044,110.7217 C134.2114,110.4457 131.4234,112.3357 132.1134,117.7057 C133.4934,117.9237 135.9024,117.1277 138.0724,118.3347" id="Fill-52" fill="#191847" mask="url(#mask-8)"></path>
            <path d="M129.0726,186.2959 C130.6176,183.5879 135.6126,174.0429 137.3226,169.3319 C137.8146,167.9789 138.2796,166.6649 138.7066,165.4289 C139.9776,161.7529 133.5536,158.7639 132.4996,162.3299 C129.8706,171.2099 126.6376,183.8759 126.3266,184.9539 C125.8886,186.4659 128.1016,187.9969 129.0726,186.2959" id="Fill-53" fill="#B28B67" mask="url(#mask-8)"></path>
            <path d="M130.1966,185.7119 C130.4426,186.2729 130.5746,186.6959 130.5926,186.9819 C130.6126,187.3279 130.5866,187.8379 130.5126,188.5099 C130.1176,188.5349 126.5616,188.7579 119.8466,189.1779 C119.5126,188.2639 119.6426,187.7509 120.2356,187.6389 C120.8286,187.5269 121.3206,187.4289 121.7116,187.3449 L126.5336,184.7859 C126.6266,184.7369 126.7406,184.7739 126.7886,184.8679 C126.7896,184.8689 126.7906,184.8709 126.7916,184.8729 L127.1576,185.6389 C127.7256,185.8659 128.1836,185.9699 128.5286,185.9479 C128.8096,185.9309 129.1906,185.7909 129.6716,185.5289" id="Fill-54" fill="#E4E4E4" mask="url(#mask-8)"></path>
            <path d="M135.054,172.9687 C142.157,171.6797 151.943,163.9627 150.718,155.3787 L139.186,155.3787 C137.453,155.8937 138.538,157.5877 125.797,163.4417" id="Fill-55" fill="#5C63AB" mask="url(#mask-8)"></path>
            <path d="M154.2913,144.498 L149.9493,143.997 C151.6113,153.113 152.5183,157.954 152.6693,158.518 C153.0103,159.786 151.7793,161.509 151.2293,162.448 C152.5713,163.262 152.6963,160.856 154.3863,161.916 C155.9273,162.883 157.0063,164.429 159.0263,163.472 C159.2743,163.354 159.5923,162.838 159.0283,162.337 C157.6233,161.088 155.6383,158.96 155.4113,158.311 C155.1023,157.426 154.7283,152.821 154.2913,144.498 Z M129.2613,136.09 L123.1483,144.794 C121.1573,146.122 119.5723,147.477 118.3953,148.859 C118.1523,149.296 117.9433,150.085 119.3443,149.493 C120.7433,148.901 122.2413,148.344 122.6013,148.775 C122.9593,149.207 122.2823,150.093 122.8993,150.631 C123.3123,150.99 124.2103,149.445 125.5963,145.998 L132.4863,139.972 L129.2613,136.09 Z" id="Fill-56" fill="#B28B67" mask="url(#mask-8)"></path>
            <path d="M113.2171,187.0283 C114.7621,184.3213 119.7571,174.7753 121.4671,170.0653 C121.9581,168.7123 122.4241,167.3973 122.8511,166.1613 C124.1221,162.4853 117.6981,159.4973 116.6441,163.0623 C114.0151,171.9433 110.7821,184.6083 110.4711,185.6863 C110.0331,187.1983 112.2461,188.7293 113.2171,187.0283" id="Fill-57" fill="#B28B67" mask="url(#mask-8)"></path>
            <path d="M114.8665,185.6475 C115.1295,186.2465 115.2695,186.6975 115.2885,187.0015 C115.3105,187.3715 115.2835,187.9145 115.2045,188.6315 C114.7825,188.6585 110.9905,188.8955 103.8285,189.3445 C103.4725,188.3695 103.6105,187.8215 104.2435,187.7025 C104.8755,187.5835 105.3995,187.4785 105.8175,187.3885 L110.9605,184.6605 C111.0585,184.6075 111.1805,184.6465 111.2325,184.7475 C111.2335,184.7495 111.2345,184.7515 111.2345,184.7515 L111.6255,185.5695 C112.2325,185.8125 112.7205,185.9215 113.0885,185.8995 C113.3875,185.8805 113.7945,185.7315 114.3065,185.4525" id="Fill-58" fill="#E4E4E4" mask="url(#mask-8)"></path>
            <path d="M121.846,171.5029 C128.415,170.2139 137.467,162.4969 136.334,153.9129 L125.667,153.9129 C124.066,154.4279 125.069,156.1219 113.284,161.9759" id="Fill-59" fill="#5C63AB" mask="url(#mask-8)"></path>
            <path d="M147.5452,161.9756 L128.4162,161.9756 C126.2512,161.9756 124.4802,160.2046 124.4802,158.0386 L124.4802,156.3836 C124.4802,154.2186 126.2512,152.4476 128.4162,152.4476 L147.5452,152.4476 C149.7102,152.4476 151.4822,154.2186 151.4822,156.3836 L151.4822,158.0386 C151.4822,160.2046 149.7102,161.9756 147.5452,161.9756" id="Fill-60" fill="#5C63AB" mask="url(#mask-8)"></path>
            <path d="M152.2025,133.3916 C148.5985,131.4046 147.9945,130.2746 145.7165,128.9946 C145.9005,129.3226 145.7165,130.1196 145.7165,130.4596 C145.7165,131.1926 144.9355,131.5586 141.7525,131.5586 C138.5675,131.5586 135.9865,130.7386 135.9865,129.7266 C135.9865,129.7226 135.9885,129.7186 135.9885,129.7136 L135.8335,129.7266 C135.8335,129.7466 135.8315,129.7666 135.8315,129.7876 C133.4235,131.2106 131.6375,131.9566 129.2715,134.1236 C127.3735,135.8636 126.4185,136.2126 126.2715,137.0556 C126.0175,138.5106 129.0915,140.9886 132.6965,140.7206 C130.3715,145.1816 127.4325,149.1426 126.3845,152.9336 C126.2255,153.5076 126.0185,154.6456 127.1175,154.6456 L151.1545,154.6456 C150.7695,150.9336 150.5955,147.5536 150.3095,144.4416 C155.0855,144.3846 156.5885,146.2086 156.5265,144.3846 C156.4905,143.3066 155.0985,134.9886 152.2025,133.3916" id="Fill-61" fill="#C8E9F1" mask="url(#mask-8)"></path>
            <path d="M134.4906,120.9121 C134.4216,121.2281 134.4876,121.4861 134.7136,121.7191 C134.8246,121.8341 135.0536,121.8181 135.1286,121.6661 C135.2766,121.3601 135.2796,121.0641 135.0746,120.7841 C134.8766,120.5131 134.4176,120.7761 134.6186,121.0511 C134.6366,121.1671 134.6546,121.2831 134.6726,121.3991 C134.8096,121.3811 134.9486,121.3631 135.0876,121.3461 C135.0576,121.2481 135.0296,121.1501 135.0006,121.0531 C135.0726,120.7221 134.5636,120.5801 134.4906,120.9121" id="Fill-62" fill="#191847" mask="url(#mask-8)"></path>
            <path d="M134.1644,119.7656 C134.7704,119.4506 135.8064,119.7386 135.9454,120.4906 C136.0084,120.8246 136.5174,120.6826 136.4554,120.3496 C136.2504,119.2476 134.7884,118.8456 133.8974,119.3096 C133.5964,119.4666 133.8624,119.9226 134.1644,119.7656" id="Fill-63" fill="#191847" mask="url(#mask-8)"></path>
            <path d="M132.8988,123.3623 C132.4228,123.6743 132.4318,124.3123 132.9718,124.5563 C133.0948,124.6123 133.2028,124.4293 133.0788,124.3743 C132.7278,124.2483 132.7038,123.9713 133.0048,123.5443 C133.1188,123.4693 133.0128,123.2873 132.8988,123.3623" id="Fill-64" fill="#191847" mask="url(#mask-8)"></path>
            <path d="M132.5355,120.4277 C132.4915,120.6277 132.4925,120.7797 132.5715,120.9687 C132.6475,121.1527 132.9475,121.2627 133.0545,121.0317 C133.1755,120.7717 133.2025,120.5657 133.1195,120.2877 C133.0545,120.0687 132.7565,120.0297 132.6375,120.2247 C132.4745,120.4877 132.4465,120.7047 132.5005,121.0067 C132.5405,121.2307 132.8825,121.2617 132.9835,121.0697 C132.9985,121.0407 133.0145,121.0127 133.0285,120.9837 C133.1855,120.6827 132.7305,120.4147 132.5725,120.7167 C132.5565,120.7447 132.5425,120.7747 132.5275,120.8027 C132.6875,120.8237 132.8485,120.8447 133.0105,120.8657 C133.0375,120.7407 133.0655,120.6157 133.0935,120.4907 C132.9315,120.4697 132.7705,120.4487 132.6095,120.4277 C132.6055,120.5407 132.6015,120.6537 132.5975,120.7657 C132.7595,120.7857 132.9205,120.8077 133.0805,120.8287 L133.0455,120.5687 C133.1175,120.2377 132.6085,120.0957 132.5355,120.4277" id="Fill-65" fill="#191847" mask="url(#mask-8)"></path>
            <path d="M132.4105,119.5928 C132.7275,119.4028 133.0335,119.2978 133.4015,119.2708 C133.7385,119.2448 133.7415,118.7158 133.4015,118.7418 C132.9445,118.7768 132.5365,118.9008 132.1435,119.1368 C131.8525,119.3118 132.1175,119.7688 132.4105,119.5928" id="Fill-66" fill="#191847" mask="url(#mask-8)"></path>
        </g>
        <g id="Group-67" transform="translate(800.000000, 0.000000)">
            <path d="M142.7591,71.3721 L108.6061,107.6891 L108.6061,158.9121 L123.5871,167.2501 L123.5871,141.1661 L123.6131,141.1661 C123.6091,140.9821 123.5871,140.8041 123.5871,140.6191 C123.5871,129.1361 132.1691,119.8271 142.7551,119.8271 C153.3411,119.8271 161.9221,129.1361 161.9221,140.6191 C161.9221,140.8041 161.9021,140.9821 161.8971,141.1661 L161.9221,141.1661 L162.5041,172.2521 L177.7551,167.2001 L178.5421,110.4001 L142.7591,71.3721 Z" id="Fill-1" fill="#FFFDF6"></path>
            <g id="Group-5" transform="translate(334.000000, 166.000000)">
                <mask id="mask-10" fill="white">
                    <use xlink:href="#path-9"></use>
                </mask>
                <g id="Clip-4"></g>
                <polygon id="Fill-3" fill="#F7D3A4" mask="url(#mask-10)" points="0.5247 39.0547 51.4497 78.5127 66.0007 53.8517 0.5247 0.8297"></polygon>
            </g>
            <mask id="mask-12" fill="white">
                <use xlink:href="#path-11"></use>
            </mask>
            <g id="Clip-7"></g>
            <polygon id="Fill-6" fill="#B2B2B2" mask="url(#mask-12)" points="108.514 283.543 114.344 283.543 114.344 105.177 108.514 105.177"></polygon>
            <path d="M65.6107,108.3145 C65.6107,108.0925 65.4967,107.9055 65.3327,107.7855 C65.2127,104.8285 64.4487,101.9805 62.7947,100.5695 C60.3277,95.8945 47.6487,93.8565 47.0087,103.1195 C46.7877,106.3345 48.1157,109.2035 50.0767,111.5435 L46.5597,128.2125 L56.7747,128.2125 L55.0447,115.7665 C57.8007,117.4565 61.0787,117.6845 62.3497,117.3515 C63.5937,117.0255 64.4857,115.5965 64.9597,112.9575 C63.8787,112.9575 63.0027,111.5165 63.0027,110.9675 C63.0027,110.4185 63.8787,110.3045 64.9597,110.3045 C65.0707,110.3045 65.1777,110.3115 65.2857,110.3215 C65.3237,109.8305 65.3447,109.3315 65.3497,108.8315 C65.5057,108.7105 65.6107,108.5285 65.6107,108.3145" id="Fill-8" fill="#B28B67" mask="url(#mask-12)"></path>
            <path d="M39.0052,164.2793 C39.7732,174.9313 89.2122,206.2923 89.5012,207.1723 C89.6292,207.5623 84.4992,219.9253 74.1122,244.2583 L78.4342,245.9663 C94.3662,220.1953 101.9242,205.9373 101.1062,203.1913 C99.9342,199.2593 87.1472,186.3273 62.7452,164.3923 L39.0052,164.2793 Z" id="Fill-9" fill="#B28B67" mask="url(#mask-12)"></path>
            <path d="M75.2493,238.7627 L82.3063,241.3737 C97.1843,224.3027 103.0163,210.2167 101.9523,203.0387 C101.2443,198.2547 88.5013,185.3437 63.7263,164.3057 L38.4993,164.3057 C39.3603,188.9737 85.1853,207.2657 85.7973,208.3167 C86.4103,209.3677 80.3783,219.6637 75.2493,238.7627" id="Fill-10" fill="#22646B" mask="url(#mask-12)"></path>
            <path d="M72.5228,243.4189 C71.6398,244.4679 71.0908,245.2939 70.8758,245.8969 C70.6128,246.6299 70.3498,247.7449 70.0858,249.2409 C70.9228,249.5509 78.4428,252.3339 92.6448,257.5909 C93.9358,255.8369 93.9788,254.6479 92.7718,254.0229 C91.5648,253.3979 90.5668,252.8679 89.7768,252.4329 L80.9938,243.7979 C80.8248,243.6319 80.5548,243.6369 80.3908,243.8089 C80.3878,243.8119 80.3858,243.8149 80.3828,243.8169 L79.1138,245.2309 C77.7468,245.3529 76.6968,245.2779 75.9658,245.0079 C75.3728,244.7879 74.6388,244.2399 73.7668,243.3649 C73.4328,243.0289 72.8938,243.0329 72.5638,243.3729 C72.5488,243.3879 72.5358,243.4029 72.5228,243.4189" id="Fill-11" fill="#E4E4E4" mask="url(#mask-12)"></path>
            <polygon id="Fill-12" fill="#997659" mask="url(#mask-12)" points="44.6898 164.2793 22.6668 218.0493 1.0198 263.5073 6.1268 263.5073 62.0018 164.2793"></polygon>
            <path d="M0.7142,261.4082 C0.2372,262.7012 0.0002,263.6682 0.0002,264.3092 C0.0002,265.0902 0.1282,266.2292 0.3832,267.7262 L24.3892,267.7262 C25.0132,265.6292 24.6522,264.4972 23.3092,264.3302 C21.9652,264.1632 20.8482,264.0122 19.9592,263.8772 L8.8022,258.8182 C8.5872,258.7202 8.3352,258.8192 8.2392,259.0372 C8.2382,259.0412 8.2362,259.0452 8.2352,259.0492 L7.5182,260.8182 C6.2742,261.4082 5.2622,261.7042 4.4852,261.7042 C3.8532,261.7042 2.9802,261.4442 1.8662,260.9252 C1.4392,260.7252 0.9342,260.9162 0.7372,261.3512 C0.7292,261.3702 0.7212,261.3882 0.7142,261.4082" id="Fill-13" fill="#E4E4E4" mask="url(#mask-12)"></path>
            <path d="M2.9749,254.0635 L14.3229,256.2275 C23.0969,243.1095 59.8169,189.3195 63.8429,164.2795 L38.5789,164.2795 C25.1349,182.3805 11.3379,240.7285 2.9749,254.0635" id="Fill-14" fill="#22646B" mask="url(#mask-12)"></path>
            <path d="M85.72,127.501 L102.65,126.795 C106.144,125.255 109.324,124.288 112.189,123.895 C112.983,123.946 114.221,124.351 112.225,125.731 C110.228,127.112 108.191,128.655 108.462,129.518 C108.733,130.379 110.502,130.233 110.694,131.538 C110.822,132.408 107.977,132.281 102.161,131.158 L88.155,135.247 L85.72,127.501 Z" id="Fill-15" fill="#B28B67" mask="url(#mask-12)"></path>
            <path d="M52.1302,119.6338 C66.7132,125.8408 81.7892,127.4288 100.8612,126.3108 L100.5582,135.2338 C83.0072,141.0838 73.4332,143.7888 61.5932,136.3468 C58.6212,134.4788 51.3222,126.7558 47.2792,122.8578 L52.1302,119.6338 Z" id="Fill-16" fill="#F4D037" mask="url(#mask-12)"></path>
            <path d="M37.0208,168.2354 L69.7928,168.2354 C62.3698,145.2114 58.5778,129.4084 58.4168,120.8284 C58.4088,120.3904 57.6138,119.6194 57.2618,119.7204 C54.6918,120.4594 51.9418,120.1824 49.0108,118.8924 C41.2418,131.5994 38.5548,147.2454 37.0208,168.2354" id="Fill-17" fill="#F2F2F2" mask="url(#mask-12)"></path>
            <path d="M81.3538,123.3828 L97.9658,120.4568 C101.2438,118.4588 104.2728,117.0748 107.0548,116.3068 C107.8428,116.2538 109.1078,116.4948 107.2898,118.1378 C105.4698,119.7808 103.6298,121.5918 103.9908,122.4178 C104.3508,123.2438 106.0798,122.8658 106.4098,124.1468 C106.6288,124.9988 103.8118,125.2448 97.9578,124.8848 L84.5928,130.8098 L81.3538,123.3828 Z" id="Fill-18" fill="#B28B67" mask="url(#mask-12)"></path>
            <path d="M53.2913,118.9414 C62.6053,120.1624 77.5213,123.7494 95.6673,120.1914 L96.3163,129.1554 C82.0723,136.1634 67.9013,141.2074 56.3183,138.8244 C58.6823,161.6094 56.2233,179.7224 45.0063,178.3474 C39.6493,177.6904 33.8683,176.9824 27.6623,176.2204 C27.2153,157.0564 37.6553,131.8404 45.9813,119.4974 C46.3003,119.0254 46.9623,118.1444 48.2473,118.3024 C49.3673,118.4394 51.0473,118.6454 53.2873,118.9204 C53.2883,118.9274 53.2903,118.9344 53.2913,118.9414" id="Fill-19" fill="#F4D037" mask="url(#mask-12)"></path>
            <path d="M62.0941,99.2207 C62.3221,99.2987 62.0941,98.3027 61.5501,97.9387 C59.8811,96.8227 54.9131,95.1697 51.5171,95.8867 C49.2401,96.3667 46.4031,97.5737 44.5851,99.1107 C42.9471,100.4957 41.4561,102.9387 40.8761,105.0847 C40.2671,107.3387 40.0361,110.4747 40.8761,112.4407 C41.8751,114.7827 45.4161,117.3057 45.5091,117.6407 C45.6161,118.0237 45.1981,119.5177 44.8921,121.0917 C44.5851,122.6657 44.7251,126.6747 44.8921,127.3277 C45.1581,128.3727 46.5881,128.8867 47.2121,128.9627 C50.6591,129.3807 53.1581,133.7337 54.1981,134.8467 C58.8281,139.5737 62.0601,141.6287 63.8921,141.0137 C64.3741,140.8517 63.6521,134.9787 63.1691,132.4607 C62.6871,129.9437 57.9561,125.4507 57.6541,123.9707 C57.4751,123.0987 57.4461,121.5797 57.4271,121.5107 C56.9811,118.3827 57.0581,118.1287 56.4071,116.8547 C55.7561,115.5797 55.2511,115.5047 55.4071,115.1337 C56.1721,113.3197 58.6301,107.7697 59.1881,105.9537 C59.8521,103.7907 59.5381,104.5017 60.2231,102.3457 C60.5271,101.3917 60.9121,98.8177 62.0941,99.2207" id="Fill-20" fill="#2E91A0" mask="url(#mask-12)"></path>
            <path d="M45.3685,116.6611 L45.6685,116.2901 C49.7575,117.5931 49.3025,120.2821 54.4525,123.0051 L54.0215,123.2701 C49.5125,121.3781 48.4585,117.3181 45.3685,116.6611 Z M49.0055,102.1851 C49.6375,107.0581 49.8215,109.8421 53.1135,115.1731 L52.7645,115.2811 C49.3755,110.6401 48.8385,106.8511 48.6785,102.2121 L49.0055,102.1851 Z M43.2885,105.6791 C44.6805,109.1121 45.3145,111.1401 49.1995,113.9181 L48.8995,114.1321 C45.0425,111.9081 43.9195,109.2571 42.9965,105.8221 L43.2885,105.6791 Z M53.3055,99.4621 C52.5585,101.8711 52.3975,103.1571 52.5585,106.4481 L52.1925,106.4481 C51.5085,103.3421 52.1175,100.4181 52.8455,99.4621 L53.3055,99.4621 Z" id="Fill-21" fill="#000000" mask="url(#mask-12)"></path>
            <path d="M62.4808,105.3652 C62.3728,105.8072 62.4068,106.5252 62.9658,106.5982 C63.0498,106.6092 63.1298,106.5452 63.1728,106.4802 C63.4478,106.0612 63.2658,105.5292 62.9618,105.1842 C62.8998,105.1122 62.7518,105.0872 62.6718,105.1462 C62.5308,105.2542 62.4768,105.3132 62.4858,105.5002 C62.5008,105.8062 62.9778,105.8082 62.9638,105.5002 C62.9618,105.4692 62.9608,105.4382 62.9598,105.4082 C62.9198,105.4762 62.8798,105.5462 62.8408,105.6142 C62.8658,105.5962 62.8898,105.5782 62.9148,105.5592 C62.8178,105.5472 62.7208,105.5352 62.6248,105.5222 C62.7808,105.6992 62.9088,106.0112 62.7598,106.2392 C62.8288,106.1992 62.8978,106.1602 62.9658,106.1202 C62.8528,106.1052 62.9328,105.5302 62.9418,105.4922 C63.0148,105.1932 62.5538,105.0662 62.4808,105.3652" id="Fill-22" fill="#23292B" mask="url(#mask-12)"></path>
            <path d="M62.1302,103.7998 C62.4552,103.4218 62.8982,103.3098 63.3632,103.4878 C63.6512,103.5968 63.7762,103.1348 63.4902,103.0268 C62.8782,102.7928 62.2182,102.9678 61.7922,103.4618 C61.5922,103.6938 61.9282,104.0328 62.1302,103.7998" id="Fill-23" fill="#23292B" mask="url(#mask-12)"></path>
            <polygon id="Fill-24" fill="#B2B2B2" mask="url(#mask-12)" points="327.696 260.037 334.529 260.037 334.529 123.673 327.696 123.673"></polygon>
            <polygon id="Fill-25" fill="#C3E1E5" mask="url(#mask-12)" points="178.1156 155.2891 280.7076 175.4611 280.7076 115.3911 178.1156 95.0431"></polygon>
            <polygon id="Fill-26" fill="#B2B2B2" mask="url(#mask-12)" points="218.46 236.608 225.551 236.608 225.551 41.057 218.46 41.057"></polygon>
            <polygon id="Fill-27" fill="#B2B2B2" mask="url(#mask-12)" points="174.662 287.669 180.54 287.669 180.54 107.643 174.662 107.643"></polygon>
            <polygon id="Fill-28" fill="#C8E9F1" mask="url(#mask-12)" points="177.7366 168.8525 270.7356 189.0245 270.7356 128.9555 177.7366 108.6065"></polygon>
            <path d="M301.598,87.4023 L267.444,123.7183 L267.444,174.9423 L283.169,172.0003 L282.426,157.1953 L282.452,157.1953 C282.448,157.0113 282.426,156.8333 282.426,156.6483 C282.426,145.1663 291.008,135.8563 301.594,135.8563 C312.179,135.8563 320.761,145.1663 320.761,156.6483 C320.761,156.8333 320.74,157.0113 320.736,157.1953 L320.761,157.1953 L319.979,185.3253 L334.529,184.0923 L335.744,123.7183 L301.598,87.4023 Z" id="Fill-29" fill="#FFFDF6" mask="url(#mask-12)"></path>
            <path d="M284.3509,164.2041 C282.3299,164.0991 272.5139,164.1661 265.9449,178.3651 C263.8249,182.9471 250.3389,221.7721 244.4309,231.1781 C233.7369,248.2031 222.1659,247.8551 199.5189,267.5001 C196.1449,270.4271 199.3999,279.9371 202.2819,283.5631 C203.6559,285.2911 205.4159,285.0431 206.0569,284.8731 C211.9849,283.2961 245.5189,249.9291 247.5769,248.8581 C253.8679,245.5841 259.6179,229.6811 263.9329,206.9491 C265.8429,196.8901 265.1919,191.2341 269.5949,182.0661 C273.2589,174.4391 284.6939,173.5541 284.6939,172.2441 C284.6939,172.1841 284.7069,164.2231 284.3509,164.2041" id="Fill-30" fill="#2E91A0" mask="url(#mask-12)"></path>
            <path d="M285.1419,170.7734 C279.0789,171.7454 271.1049,174.2174 266.4129,181.2594 C264.1709,184.6244 263.5879,187.6664 262.7879,191.0894 C262.7879,191.0894 259.9749,203.1254 251.3089,223.8574 C246.5939,235.1384 243.2429,243.1574 235.6009,250.0724 C225.8819,258.8684 215.1149,260.5464 204.1839,274.3204 C202.7429,276.1374 201.7249,277.6274 201.7679,279.5634 C201.9669,288.5564 224.8729,300.0234 243.4549,295.9474 C266.0979,290.9804 278.0129,263.8774 280.9129,257.2814 C292.6449,230.5954 287.6929,214.5334 302.6629,195.6774 C309.0589,187.6214 313.5689,181.8294 318.9749,179.2934" id="Fill-31" fill="#06BBCE" mask="url(#mask-12)"></path>
            <path d="M321.3919,175.3613 C319.4499,175.2553 304.7429,176.2223 298.4329,190.4343 C296.3979,195.0193 295.4329,198.9773 294.8089,202.2313 C291.7879,217.9603 289.0029,236.7263 283.3289,246.1403 C273.0589,263.1793 272.4539,259.9023 250.7049,279.5633 C247.4639,282.4933 240.0819,294.9403 242.8509,298.5693 C244.1699,300.2993 245.8609,300.0493 246.4759,299.8803 C252.1689,298.3003 284.3739,264.9063 286.3499,263.8353 C292.3919,260.5573 297.9139,244.6413 302.0579,221.8913 C303.8919,211.8233 303.2669,206.1633 307.4959,196.9883 C311.0139,189.3543 321.9959,188.4683 321.9959,187.1583 C321.9959,187.0973 322.5999,181.2593 322.5999,178.6373 C322.5999,174.4933 321.7339,175.3803 321.3919,175.3613" id="Fill-32" fill="#2E91A0" mask="url(#mask-12)"></path>
            <path d="M123.306,148.0742 C121.365,147.9682 111.938,148.0362 105.628,162.2472 C103.593,166.8332 90.642,205.6902 84.968,215.1032 C74.698,232.1422 63.586,231.7952 41.836,251.4552 C38.595,254.3852 41.721,263.9032 44.49,267.5322 C45.809,269.2622 47.499,269.0132 48.115,268.8432 C53.808,267.2642 86.013,233.8702 87.989,232.7982 C94.031,229.5212 99.553,213.6052 103.698,190.8552 C105.532,180.7872 104.906,175.1272 109.135,165.9512 C112.654,158.3172 123.634,157.4312 123.634,156.1212 C123.634,156.0612 123.649,148.0932 123.306,148.0742" id="Fill-33" fill="#2E91A0" mask="url(#mask-12)"></path>
            <path d="M127.5159,154.7441 C121.4529,155.7161 113.4789,158.1871 108.7869,165.2291 C106.5439,168.5951 105.9619,171.6361 105.1619,175.0601 C105.1619,175.0601 102.3489,187.0961 93.6829,207.8281 C88.9669,219.1081 85.6159,227.1271 77.9749,234.0431 C68.2549,242.8381 57.4889,244.5171 46.5579,258.2911 C45.1169,260.1081 44.0989,261.5971 44.1419,263.5341 C44.3409,272.5271 67.2469,283.9941 85.8279,279.9181 C108.4709,274.9501 120.3869,247.8471 123.2869,241.2521 C135.0179,214.5661 130.0669,198.5041 145.0369,179.6471 C151.4319,171.5921 155.9419,165.8001 161.3489,163.2641" id="Fill-34" fill="#06BBCE" mask="url(#mask-12)"></path>
            <path d="M163.765,159.3311 C161.824,159.2261 147.117,160.1931 140.807,174.4051 C138.772,178.9901 137.807,182.9481 137.182,186.2011 C134.161,201.9301 131.377,220.6971 125.703,230.1101 C115.433,247.1491 114.828,243.8731 93.078,263.5341 C89.838,266.4631 82.456,278.9101 85.225,282.5391 C86.543,284.2691 88.235,284.0201 88.849,283.8501 C94.543,282.2711 126.748,248.8771 128.724,247.8051 C134.766,244.5281 140.288,228.6121 144.432,205.8621 C146.266,195.7941 145.641,190.1341 149.869,180.9581 C153.388,173.3251 164.369,172.4381 164.369,171.1281 C164.369,171.0681 164.974,165.2291 164.974,162.6081 C164.974,158.4641 164.108,159.3511 163.765,159.3311" id="Fill-35" fill="#2E91A0" mask="url(#mask-12)"></path>
            <polygon id="Fill-36" fill="#FFB53E" mask="url(#mask-12)" points="334.5247 223.5508 385.4497 263.0078 400.0007 238.3468 334.5247 185.3248"></polygon>
            <polygon id="Fill-37" fill="#DD7045" mask="url(#mask-12)" points="143.1419 71.2002 164.3819 64.0002 195.0619 93.5992 177.3579 114.3332"></polygon>
            <polyline id="Fill-38" fill="#DD7045" mask="url(#mask-12)" points="108.5286 108 109.3156 100 147.8626 67.2 164.3826 64 146.7336 76.333"></polyline>
            <polyline id="Fill-39" fill="#DD7045" mask="url(#mask-12)" points="265.8626 124.7998 266.6486 116.7998 305.1956 83.9998 321.7166 80.7998 304.0676 93.1328"></polyline>
            <path d="M222.0062,11.3203 C236.7612,11.3203 248.7232,23.7383 248.7232,39.0563 C248.7232,54.3743 236.7612,66.7923 222.0062,66.7923 C207.2502,66.7923 195.2882,54.3743 195.2882,39.0563 C195.2882,23.7383 207.2502,11.3203 222.0062,11.3203" id="Fill-40" fill="#FFB53E" mask="url(#mask-12)"></path>
            <path d="M222.0062,15.8496 C231.8432,15.8496 239.8172,26.7456 239.8172,40.1886 C239.8172,53.6306 231.8432,64.5286 222.0062,64.5286 C212.1692,64.5286 204.1942,53.6306 204.1942,40.1886 C204.1942,26.7456 212.1692,15.8496 222.0062,15.8496" id="Fill-41" fill="#FDE14C" mask="url(#mask-12)"></path>
            <path d="M252.0618,19.2451 L248.5198,22.8471 C248.6488,22.0371 248.7228,21.2141 248.7228,20.3771 C248.7228,9.1231 236.7608,0.0001 222.0058,0.0001 C207.2498,0.0001 195.2898,9.1231 195.2898,20.3771 C195.2898,21.2141 195.3628,22.0371 195.4918,22.8471 L191.9498,19.2451 C191.9498,19.2451 187.9228,29.4811 187.5278,36.3271 C187.4958,36.8861 187.9288,37.3581 188.4788,37.3581 L190.8358,37.3581 L190.8358,39.8611 C190.8358,40.3721 191.2258,40.7951 191.7268,40.8281 C194.3268,41.0051 202.2278,41.2591 210.2608,38.6821 C209.7608,38.4901 222.0058,32.8301 222.0058,32.8301 C222.0058,32.8301 233.1378,38.4901 233.7508,38.6821 C241.7838,41.2591 249.6858,41.0051 252.2848,40.8281 C252.7858,40.7951 253.1748,40.3721 253.1748,39.8611 L253.1748,37.3581 L255.5328,37.3581 C256.0828,37.3581 256.5158,36.8861 256.4838,36.3271 C256.0878,29.4811 252.0618,19.2451 252.0618,19.2451" id="Fill-42" fill="#FDE14C" mask="url(#mask-12)"></path>
            <path d="M248.4251,8.7314 C252.2111,6.5724 253.5521,3.5564 254.0281,1.6934 C254.2091,0.9804 253.5301,0.3724 252.8471,0.6164 C244.3061,3.6654 230.3981,-0.7316 223.4181,11.2904 C222.7781,12.3934 221.2341,12.3934 220.5941,11.2904 C213.6131,-0.7316 199.7051,3.6654 191.1651,0.6164 C190.4811,0.3724 189.8021,0.9804 189.9841,1.6934 C190.4591,3.5564 191.8011,6.5724 195.5871,8.7324 C196.2411,9.1054 196.3721,9.9974 195.8361,10.5324 C192.3281,14.0364 190.3321,19.0984 190.9461,24.6214 C191.8061,32.3324 197.9051,38.5804 205.4831,39.4984 C212.5151,40.3494 218.8071,36.7494 222.0061,31.1064 C225.2041,36.7494 231.4961,40.3494 238.5291,39.4984 C246.1071,38.5804 252.2061,32.3324 253.0651,24.6214 C253.6801,19.0984 251.6841,14.0364 248.1751,10.5324 C247.6401,9.9974 247.7701,9.1054 248.4251,8.7314" id="Fill-43" fill="#FFB53E" mask="url(#mask-12)"></path>
            <path d="M207.5345,11.3203 C213.6815,11.3203 218.6665,16.3893 218.6665,22.6413 C218.6665,28.8933 213.6815,33.9623 207.5345,33.9623 C201.3865,33.9623 196.4025,28.8933 196.4025,22.6413 C196.4025,16.3893 201.3865,11.3203 207.5345,11.3203" id="Fill-44" fill="#FDE14C" mask="url(#mask-12)"></path>
            <path d="M222.7357,39.9082 L224.9477,33.9092 C225.1897,33.2522 225.0327,32.5122 224.5447,32.0142 L223.5807,31.0342 C222.7107,30.1502 221.3007,30.1502 220.4317,31.0342 L219.4667,32.0142 C218.9797,32.5122 218.8217,33.2522 219.0637,33.9092 L221.2757,39.9082 C221.5287,40.5942 222.4827,40.5942 222.7357,39.9082" id="Fill-45" fill="#EBAF4B" mask="url(#mask-12)"></path>
            <path d="M209.6146,19.6924 C211.3796,19.6924 212.8096,21.1474 212.8096,22.9414 C212.8096,24.7354 211.3796,26.1894 209.6146,26.1894 C207.8506,26.1894 206.4206,24.7354 206.4206,22.9414 C206.4206,21.1474 207.8506,19.6924 209.6146,19.6924" id="Fill-46" fill="#000000" mask="url(#mask-12)"></path>
            <path d="M236.4779,11.3203 C242.6249,11.3203 247.6099,16.3893 247.6099,22.6413 C247.6099,28.8933 242.6249,33.9623 236.4779,33.9623 C230.3299,33.9623 225.3449,28.8933 225.3449,22.6413 C225.3449,16.3893 230.3299,11.3203 236.4779,11.3203" id="Fill-47" fill="#FDE14C" mask="url(#mask-12)"></path>
            <path d="M234.6693,19.0078 C236.4343,19.0078 237.8633,20.4618 237.8633,22.2558 C237.8633,24.0498 236.4343,25.5048 234.6693,25.5048 C232.9053,25.5048 231.4753,24.0498 231.4753,22.2558 C231.4753,20.4618 232.9053,19.0078 234.6693,19.0078" id="Fill-48" fill="#000000" mask="url(#mask-12)"></path>
            <polygon id="Fill-49" fill="#F9F0E4" mask="url(#mask-12)" points="335.2923 128.2607 352.5583 108.7997 353.3453 167.1997 333.8513 183.9627"></polygon>
            <polygon id="Fill-50" fill="#DD7045" mask="url(#mask-12)" points="302.0491 86.4004 323.2891 79.2004 353.9691 108.7994 336.2651 129.5324"></polygon>
            <path d="M140.4154,140.8271 L138.0274,127.0211 C135.7674,125.8631 133.8394,124.1021 133.0204,121.5851 C130.6624,114.3311 141.2384,111.8481 144.6164,114.6211 C147.3644,116.8781 149.4604,122.1241 148.9394,124.8901 C148.8764,124.9071 147.5364,124.6541 147.4734,124.6801 C146.9194,124.9041 147.0804,125.6301 148.0234,126.0381 C148.1164,126.0781 148.1264,126.2101 148.2104,126.2711 C148.1864,126.2911 148.1704,126.3191 148.1454,126.3381 C147.2514,126.9961 145.9124,129.0621 143.2284,128.6541 L148.4294,137.5761 L140.4154,140.8271 Z" id="Fill-51" fill="#B28B67" mask="url(#mask-12)"></path>
            <path d="M141.0091,121.9248 C139.4331,120.7598 138.2671,120.5698 137.5131,121.3538 C136.7581,122.1378 136.9531,123.2208 138.0991,124.6018 L139.0951,128.4368 L138.0561,128.8588 C135.2591,124.8518 131.1731,123.0038 130.8111,120.8538 C130.5691,119.4198 130.0451,117.9388 131.1791,117.1058 C130.7751,114.2328 134.4051,112.2738 138.1241,111.2188 C143.7021,109.6358 146.8471,110.8448 147.3931,116.2328 C146.0981,116.7568 143.5721,116.5288 141.7321,118.1958" id="Fill-52" fill="#191847" mask="url(#mask-12)"></path>
            <path d="M129.0726,186.2959 C130.6176,183.5879 135.6126,174.0429 137.3226,169.3319 C137.8146,167.9789 138.2796,166.6649 138.7066,165.4289 C139.9776,161.7529 133.5536,158.7639 132.4996,162.3299 C129.8706,171.2099 126.6376,183.8759 126.3266,184.9539 C125.8886,186.4659 128.1016,187.9969 129.0726,186.2959" id="Fill-53" fill="#B28B67" mask="url(#mask-12)"></path>
            <path d="M130.1966,185.7119 C130.4426,186.2729 130.5746,186.6959 130.5926,186.9819 C130.6126,187.3279 130.5866,187.8379 130.5126,188.5099 C130.1176,188.5349 126.5616,188.7579 119.8466,189.1779 C119.5126,188.2639 119.6426,187.7509 120.2356,187.6389 C120.8286,187.5269 121.3206,187.4289 121.7116,187.3449 L126.5336,184.7859 C126.6266,184.7369 126.7406,184.7739 126.7886,184.8679 C126.7896,184.8689 126.7906,184.8709 126.7916,184.8729 L127.1576,185.6389 C127.7256,185.8659 128.1836,185.9699 128.5286,185.9479 C128.8096,185.9309 129.1906,185.7909 129.6716,185.5289" id="Fill-54" fill="#E4E4E4" mask="url(#mask-12)"></path>
            <path d="M135.054,172.9687 C142.157,171.6797 151.943,163.9627 150.718,155.3787 L139.186,155.3787 C137.453,155.8937 138.538,157.5877 125.797,163.4417" id="Fill-55" fill="#5C63AB" mask="url(#mask-12)"></path>
            <path d="M154.2913,144.498 L149.9493,143.997 C151.6113,153.113 152.5183,157.954 152.6693,158.518 C153.0103,159.786 151.7793,161.509 151.2293,162.448 C152.5713,163.262 152.6963,160.856 154.3863,161.916 C155.9273,162.883 157.0063,164.429 159.0263,163.472 C159.2743,163.354 159.5923,162.838 159.0283,162.337 C157.6233,161.088 155.6383,158.96 155.4113,158.311 C155.1023,157.426 154.7283,152.821 154.2913,144.498 Z M129.2613,136.09 L123.1483,144.794 C121.1573,146.122 119.5723,147.477 118.3953,148.859 C118.1523,149.296 117.9433,150.085 119.3443,149.493 C120.7433,148.901 122.2413,148.344 122.6013,148.775 C122.9593,149.207 122.2823,150.093 122.8993,150.631 C123.3123,150.99 124.2103,149.445 125.5963,145.998 L132.4863,139.972 L129.2613,136.09 Z" id="Fill-56" fill="#B28B67" mask="url(#mask-12)"></path>
            <path d="M113.2171,187.0283 C114.7621,184.3213 119.7571,174.7753 121.4671,170.0653 C121.9581,168.7123 122.4241,167.3973 122.8511,166.1613 C124.1221,162.4853 117.6981,159.4973 116.6441,163.0623 C114.0151,171.9433 110.7821,184.6083 110.4711,185.6863 C110.0331,187.1983 112.2461,188.7293 113.2171,187.0283" id="Fill-57" fill="#B28B67" mask="url(#mask-12)"></path>
            <path d="M114.8665,185.6475 C115.1295,186.2465 115.2695,186.6975 115.2885,187.0015 C115.3105,187.3715 115.2835,187.9145 115.2045,188.6315 C114.7825,188.6585 110.9905,188.8955 103.8285,189.3445 C103.4725,188.3695 103.6105,187.8215 104.2435,187.7025 C104.8755,187.5835 105.3995,187.4785 105.8175,187.3885 L110.9605,184.6605 C111.0585,184.6075 111.1805,184.6465 111.2325,184.7475 C111.2335,184.7495 111.2345,184.7515 111.2345,184.7515 L111.6255,185.5695 C112.2325,185.8125 112.7205,185.9215 113.0885,185.8995 C113.3875,185.8805 113.7945,185.7315 114.3065,185.4525" id="Fill-58" fill="#E4E4E4" mask="url(#mask-12)"></path>
            <path d="M121.846,171.5029 C128.415,170.2139 137.467,162.4969 136.334,153.9129 L125.667,153.9129 C124.066,154.4279 125.069,156.1219 113.284,161.9759" id="Fill-59" fill="#5C63AB" mask="url(#mask-12)"></path>
            <path d="M147.5452,161.9756 L128.4162,161.9756 C126.2512,161.9756 124.4802,160.2046 124.4802,158.0386 L124.4802,156.3836 C124.4802,154.2186 126.2512,152.4476 128.4162,152.4476 L147.5452,152.4476 C149.7102,152.4476 151.4822,154.2186 151.4822,156.3836 L151.4822,158.0386 C151.4822,160.2046 149.7102,161.9756 147.5452,161.9756" id="Fill-60" fill="#5C63AB" mask="url(#mask-12)"></path>
            <path d="M152.2025,133.3916 C148.5985,131.4046 147.9945,130.2746 145.7165,128.9946 C145.9005,129.3226 145.7165,130.1196 145.7165,130.4596 C145.7165,131.1926 144.9355,131.5586 141.7525,131.5586 C138.5675,131.5586 135.9865,130.7386 135.9865,129.7266 C135.9865,129.7226 135.9885,129.7186 135.9885,129.7136 L135.8335,129.7266 C135.8335,129.7466 135.8315,129.7666 135.8315,129.7876 C133.4235,131.2106 131.6375,131.9566 129.2715,134.1236 C127.3735,135.8636 126.4185,136.2126 126.2715,137.0556 C126.0175,138.5106 129.0915,140.9886 132.6965,140.7206 C130.3715,145.1816 127.4325,149.1426 126.3845,152.9336 C126.2255,153.5076 126.0185,154.6456 127.1175,154.6456 L151.1545,154.6456 C150.7695,150.9336 150.5955,147.5536 150.3095,144.4416 C155.0855,144.3846 156.5885,146.2086 156.5265,144.3846 C156.4905,143.3066 155.0985,134.9886 152.2025,133.3916" id="Fill-61" fill="#C8E9F1" mask="url(#mask-12)"></path>
            <path d="M145.345,120.1533 C145.336,120.2553 145.327,120.3553 145.319,120.4573 C145.457,120.4393 145.595,120.4213 145.734,120.4033 C145.718,120.3063 145.702,120.2103 145.688,120.1133 C145.819,119.8033 145.364,119.5343 145.231,119.8463 C145.083,120.1943 145.119,120.4803 145.36,120.7773 C145.47,120.9133 145.695,120.8563 145.775,120.7233 C145.943,120.4433 145.939,120.1763 145.801,119.8863 C145.655,119.5803 145.199,119.8473 145.345,120.1533" id="Fill-62" fill="#191847" mask="url(#mask-12)"></path>
            <path d="M146.0111,118.1953 C145.0011,117.9363 143.7581,118.6873 143.7641,119.8013 C143.7661,120.1413 144.2941,120.1423 144.2921,119.8013 C144.2881,119.0283 145.2001,118.5333 145.8701,118.7053 C146.2001,118.7903 146.3411,118.2803 146.0111,118.1953" id="Fill-63" fill="#191847" mask="url(#mask-12)"></path>
            <path d="M147.8519,122.1211 C147.8959,122.3911 147.9409,122.6601 147.9849,122.9311 C147.8779,123.0121 147.9839,123.1951 148.0909,123.1121 C148.5649,122.7501 148.4679,122.1231 147.9079,121.9171 C147.7799,121.8701 147.7249,122.0741 147.8519,122.1211" id="Fill-64" fill="#191847" mask="url(#mask-12)"></path>
            <path d="M147.139,119.2383 C147.149,119.3023 147.159,119.3683 147.168,119.4323 C147.316,119.3933 147.463,119.3543 147.61,119.3163 C147.582,119.2063 147.555,119.0953 147.527,118.9843 L147.076,119.1723 C147.129,119.2893 147.183,119.4063 147.236,119.5233 C147.386,119.4613 147.536,119.3983 147.687,119.3373 C147.666,119.3113 147.645,119.2873 147.623,119.2623 C147.402,119.0053 147.029,119.3803 147.25,119.6363 C147.271,119.6613 147.292,119.6853 147.314,119.7103 C147.461,119.8823 147.776,119.7453 147.765,119.5233 C147.748,119.2173 147.664,119.0153 147.45,118.7983 C147.281,118.6273 147.012,118.7623 146.998,118.9843 C146.981,119.2733 147.061,119.4653 147.237,119.6893 C147.354,119.8413 147.647,119.7593 147.678,119.5733 C147.716,119.3413 147.698,119.1873 147.595,118.9713 C147.449,118.6643 146.993,118.9323 147.139,119.2383" id="Fill-65" fill="#191847" mask="url(#mask-12)"></path>
            <path d="M147.68,117.6289 C147.241,117.4869 146.818,117.4649 146.364,117.5349 C146.029,117.5869 146.17,118.0959 146.503,118.0449 C146.863,117.9889 147.197,118.0279 147.539,118.1389 C147.864,118.2429 148.003,117.7329 147.68,117.6289" id="Fill-66" fill="#191847" mask="url(#mask-12)"></path>
        </g>
    </g>
</svg>