<svg width="1200" height="300" xmlns="http://www.w3.org/2000/svg" xmlns:xlink="http://www.w3.org/1999/xlink"><defs><path id="a" d="M.525.83H66v77.683H.525z"/><path id="c" d="M0 300h400V0H0z"/><path id="e" d="M.525.83H66v77.683H.525z"/><path id="g" d="M0 300h400V0H0z"/><path id="i" d="M.525.83H66v77.683H.525z"/><path id="k" d="M0 300h400V0H0z"/></defs><g fill="none" fill-rule="evenodd"><path d="M65.61 108.314a.654.654 0 0 0-.277-.528c-.12-2.957-.884-5.805-2.538-7.216-2.467-4.675-15.146-6.713-15.786 2.55-.221 3.215 1.107 6.084 3.068 8.423l-3.517 16.67h10.215l-1.73-12.447c2.756 1.69 6.034 1.918 7.305 1.585 1.244-.326 2.136-1.754 2.61-4.394-1.081 0-1.957-1.44-1.957-1.99 0-.549.876-.662 1.957-.662.11 0 .218.006.326.016.038-.49.059-.99.064-1.49a.65.65 0 0 0 .26-.517M39.005 164.28c.768 10.651 50.207 42.012 50.496 42.892.128.39-5.002 12.753-15.389 37.086l4.322 1.708c15.932-25.77 23.49-40.029 22.672-42.775-1.172-3.932-13.959-16.864-38.36-38.799l-23.74-.113z" fill="#B28B67"/><path d="M75.25 238.763l7.056 2.61c14.878-17.07 20.71-31.156 19.646-38.334-.708-4.784-13.45-17.695-38.226-38.733H38.5c.861 24.668 46.686 42.96 47.298 44.01.613 1.052-5.419 11.348-10.548 30.447" fill="#22646B"/><path d="M72.523 243.419c-.883 1.049-1.432 1.875-1.647 2.478-.263.733-.526 1.848-.79 3.344l22.559 8.35c1.29-1.754 1.334-2.943.127-3.568a136.878 136.878 0 0 1-2.995-1.59l-8.783-8.635a.422.422 0 0 0-.603.01l-.008.009-1.27 1.414c-1.366.122-2.416.047-3.147-.223-.593-.22-1.327-.768-2.2-1.643a.84.84 0 0 0-1.243.054" fill="#E4E4E4"/><path fill="#997659" d="M44.69 164.28l-22.023 53.77L1.02 263.506h5.107l55.875-99.228z"/><path d="M.714 261.408C.237 262.701 0 263.668 0 264.31c0 .781.128 1.92.383 3.417H24.39c.624-2.097.263-3.229-1.08-3.396a128.861 128.861 0 0 1-3.35-.453l-11.157-5.059a.424.424 0 0 0-.563.22c0 .003-.003.007-.004.011l-.717 1.77c-1.244.59-2.256.885-3.033.885-.632 0-1.505-.26-2.619-.779a.845.845 0 0 0-1.129.426l-.023.057" fill="#E4E4E4"/><path d="M2.975 254.064l11.348 2.164c8.774-13.119 45.494-66.909 49.52-91.948H38.579c-13.444 18.1-27.241 76.448-35.604 89.784" fill="#22646B"/><path d="M78.777 148.83l13.576 10.14c3.683 1.01 6.759 2.266 9.23 3.77.583.541 1.289 1.637-1.132 1.447-2.42-.189-4.974-.278-5.308.562-.334.84 1.13 1.844.455 2.977-.45.754-2.576-1.139-6.378-5.68l-13.444-5.67 3-7.546zm1.426-28.925l16.132-4.925c3.009-2.382 5.848-4.124 8.516-5.225.776-.149 2.06-.063.455 1.79-1.605 1.85-3.212 3.872-2.753 4.648.458.777 2.128.192 2.612 1.421.322.82-2.445 1.407-8.3 1.762l-12.544 7.508-4.118-6.979z" fill="#B28B67"/><path d="M57.689 121.527c7.394 14.02 18.084 24.766 33.583 35.938l-5.868 6.728c-17.306-6.54-26.44-10.485-30.924-23.73-1.126-3.326-1.912-13.922-2.588-19.498l5.797.562z" fill="#F4D037"/><path d="M37.02 168.235h32.773c-7.423-23.024-11.215-38.827-11.376-47.407-.008-.438-.803-1.209-1.155-1.108-2.57.74-5.32.462-8.251-.828-7.77 12.707-10.456 28.353-11.99 49.343" fill="#F2F2F2"/><path d="M51.808 118.913c9.394.078 24.635 1.822 42.213-3.916l1.735 8.818c-13.285 8.69-26.737 15.42-38.524 14.464 5.118 22.328 4.882 40.607-6.418 40.607H33.339c-2.775-18.968 4.519-45.267 11.282-58.533.257-.505.807-1.46 2.102-1.46H51.8a.172.172 0 0 0 .007.02" fill="#F4D037"/><path d="M62.094 99.22c.228.079 0-.917-.544-1.281-1.669-1.116-6.637-2.77-10.033-2.052-2.277.48-5.114 1.687-6.932 3.224-1.638 1.385-3.129 3.828-3.709 5.974-.609 2.254-.84 5.39 0 7.356 1 2.342 4.54 4.865 4.633 5.2.107.383-.31 1.877-.617 3.45-.307 1.575-.167 5.584 0 6.237.266 1.045 1.696 1.559 2.32 1.635 3.447.418 5.946 4.77 6.986 5.884 4.63 4.727 7.862 6.782 9.694 6.167.482-.162-.24-6.035-.723-8.553-.482-2.517-5.213-7.01-5.515-8.49-.179-.872-.208-2.391-.227-2.46-.446-3.128-.369-3.382-1.02-4.656-.65-1.275-1.156-1.35-1-1.721.765-1.814 3.223-7.364 3.781-9.18.664-2.163.35-1.452 1.035-3.608.304-.954.69-3.528 1.871-3.125" fill="#2E91A0"/><path d="M45.368 116.661l.3-.37c4.09 1.302 3.635 3.991 8.785 6.714l-.431.265c-4.51-1.892-5.563-5.952-8.654-6.609zm3.637-14.476c.633 4.873.816 7.657 4.108 12.988l-.349.108c-3.389-4.64-3.925-8.43-4.086-13.069l.328-.027zm-5.717 3.494c1.393 3.433 2.027 5.461 5.912 8.24l-.3.213c-3.858-2.224-4.98-4.875-5.904-8.31l.292-.143zm10.018-6.217c-.747 2.41-.908 3.695-.747 6.986h-.366c-.684-3.106-.075-6.03.653-6.986h.46z" fill="#000"/><path d="M62.48 105.365c-.107.442-.073 1.16.486 1.233.084.011.164-.053.207-.118.275-.419.093-.95-.211-1.296-.062-.072-.21-.097-.29-.038-.141.108-.195.167-.186.354.015.306.492.308.478 0l-.004-.092-.12.206a3.53 3.53 0 0 0 .075-.055l-.29-.037c.156.177.284.49.135.717l.206-.119c-.113-.015-.033-.59-.024-.628.073-.299-.388-.426-.461-.127M62.13 103.8c.325-.378.768-.49 1.233-.312.288.109.413-.353.127-.461a1.504 1.504 0 0 0-1.698.435c-.2.232.136.57.338.338" fill="#23292B"/><path d="M142.76 71.372l-34.154 36.317v51.223l14.981 8.338v-26.084h.026c-.004-.184-.026-.362-.026-.547 0-11.483 8.582-20.792 19.168-20.792 10.586 0 19.167 9.31 19.167 20.792 0 .185-.02.363-.025.547h.025l.582 31.086 15.251-5.052.787-56.8-35.783-39.028z" fill="#FFFDF6"/><g transform="translate(334 166)"><mask id="b" fill="#fff"><use xlink:href="#a"/></mask><path fill="#F7D3A4" mask="url(#b)" d="M.525 39.055L51.45 78.513 66 53.852.526.83z"/></g><mask id="d" fill="#fff"><use xlink:href="#c"/></mask><path fill="#B2B2B2" mask="url(#d)" d="M108.514 283.543h5.83V105.177h-5.83zM327.696 260.037h6.833V123.673h-6.833z"/><path fill="#C3E1E5" mask="url(#d)" d="M178.116 155.29l102.592 20.171v-60.07L178.116 95.043z"/><path fill="#B2B2B2" mask="url(#d)" d="M218.46 236.608h7.091V41.057h-7.091zM174.662 287.669h5.878V107.643h-5.878z"/><path fill="#C8E9F1" mask="url(#d)" d="M177.737 168.852l92.999 20.172v-60.069l-93-20.349z"/><path d="M301.598 87.402l-34.154 36.316v51.224L283.169 172l-.743-14.805h.026c-.004-.184-.026-.362-.026-.547 0-11.482 8.582-20.792 19.168-20.792 10.585 0 19.167 9.31 19.167 20.792 0 .185-.021.363-.025.547h.025l-.782 28.13 14.55-1.233 1.215-60.374-34.146-36.316z" fill="#FFFDF6" mask="url(#d)"/><path d="M284.35 164.204c-2.02-.105-11.836-.038-18.405 14.161-2.12 4.582-15.606 43.407-21.514 52.813-10.694 17.025-22.265 16.677-44.912 36.322-3.374 2.927-.12 12.437 2.763 16.063 1.374 1.728 3.134 1.48 3.775 1.31 5.928-1.577 39.462-34.944 41.52-36.015 6.29-3.274 12.04-19.177 16.356-41.909 1.91-10.059 1.259-15.715 5.662-24.883 3.664-7.627 15.099-8.512 15.099-9.822 0-.06.013-8.02-.343-8.04" fill="#2E91A0" mask="url(#d)"/><path d="M285.142 170.773c-6.063.972-14.037 3.444-18.73 10.486-2.241 3.365-2.824 6.407-3.624 9.83 0 0-2.813 12.036-11.48 32.768-4.714 11.281-8.065 19.3-15.707 26.215-9.72 8.796-20.486 10.474-31.417 24.248-1.441 1.817-2.46 3.307-2.416 5.243.199 8.993 23.105 20.46 41.687 16.384 22.643-4.967 34.558-32.07 37.458-38.666 11.732-26.686 6.78-42.748 21.75-61.604 6.396-8.056 10.906-13.848 16.312-16.384" fill="#06BBCE" mask="url(#d)"/><path d="M321.392 175.361c-1.942-.106-16.65.861-22.96 15.073-2.034 4.585-3 8.543-3.623 11.797-3.021 15.73-5.806 34.495-11.48 43.91-10.27 17.038-10.875 13.761-32.624 33.422-3.241 2.93-10.623 15.377-7.854 19.006 1.319 1.73 3.01 1.48 3.625 1.311 5.693-1.58 37.898-34.974 39.874-36.045 6.042-3.278 11.564-19.194 15.708-41.944 1.834-10.068 1.209-15.728 5.438-24.903 3.518-7.634 14.5-8.52 14.5-9.83 0-.06.604-5.899.604-8.52 0-4.145-.866-3.258-1.208-3.277M123.306 148.074c-1.941-.106-11.368-.038-17.678 14.173-2.035 4.586-14.986 43.443-20.66 52.856-10.27 17.04-21.382 16.692-43.132 36.352-3.241 2.93-.115 12.448 2.654 16.077 1.319 1.73 3.009 1.481 3.625 1.311 5.693-1.579 37.898-34.973 39.874-36.045 6.042-3.277 11.564-19.193 15.709-41.943 1.834-10.068 1.208-15.728 5.437-24.904 3.519-7.634 14.499-8.52 14.499-9.83 0-.06.015-8.028-.328-8.047" fill="#2E91A0" mask="url(#d)"/><path d="M127.516 154.744c-6.063.972-14.037 3.443-18.73 10.485-2.242 3.366-2.824 6.407-3.624 9.831 0 0-2.813 12.036-11.48 32.768-4.715 11.28-8.066 19.3-15.707 26.215-9.72 8.795-20.486 10.474-31.417 24.248-1.441 1.817-2.46 3.306-2.416 5.243.199 8.993 23.105 20.46 41.686 16.384 22.643-4.968 34.559-32.07 37.459-38.666 11.73-26.686 6.78-42.748 21.75-61.605 6.395-8.055 10.905-13.847 16.312-16.383" fill="#06BBCE" mask="url(#d)"/><path d="M163.765 159.331c-1.941-.105-16.648.862-22.958 15.074-2.035 4.585-3 8.543-3.625 11.796-3.021 15.73-5.805 34.496-11.479 43.91-10.27 17.038-10.875 13.762-32.625 33.423-3.24 2.93-10.622 15.376-7.853 19.005 1.318 1.73 3.01 1.481 3.624 1.311 5.694-1.579 37.899-34.973 39.875-36.045 6.042-3.277 11.564-19.193 15.708-41.943 1.834-10.068 1.209-15.728 5.437-24.904 3.519-7.633 14.5-8.52 14.5-9.83 0-.06.605-5.899.605-8.52 0-4.144-.866-3.257-1.209-3.277" fill="#2E91A0" mask="url(#d)"/><path fill="#FFB53E" mask="url(#d)" d="M334.525 223.55l50.925 39.458L400 238.347l-65.475-53.022z"/><path fill="#DD7045" mask="url(#d)" d="M143.142 71.2l21.24-7.2 30.68 29.6-17.704 20.733z"/><path fill="#DD7045" mask="url(#d)" d="M108.529 108l.787-8 38.547-32.8 16.52-3.2-17.65 12.333M265.863 124.8l.786-8L305.196 84l16.52-3.2-17.648 12.333"/><path d="M222.006 11.32c14.755 0 26.717 12.418 26.717 27.736 0 15.318-11.962 27.736-26.717 27.736-14.756 0-26.718-12.418-26.718-27.736 0-15.318 11.962-27.736 26.718-27.736" fill="#FFB53E" mask="url(#d)"/><path d="M222.006 15.85c9.837 0 17.811 10.896 17.811 24.339 0 13.442-7.974 24.34-17.81 24.34-9.838 0-17.813-10.898-17.813-24.34 0-13.443 7.975-24.34 17.812-24.34" fill="#FDE14C" mask="url(#d)"/><path d="M252.062 19.245l-3.542 3.602c.129-.81.203-1.633.203-2.47C248.723 9.123 236.76 0 222.006 0 207.25 0 195.29 9.123 195.29 20.377c0 .837.073 1.66.202 2.47l-3.542-3.602s-4.027 10.236-4.422 17.082a.964.964 0 0 0 .95 1.031h2.358v2.503c0 .511.39.934.89.967 2.6.177 10.502.431 18.535-2.146-.5-.192 11.745-5.852 11.745-5.852s11.132 5.66 11.745 5.852c8.033 2.577 15.935 2.323 18.534 2.146a.961.961 0 0 0 .89-.967v-2.503h2.358c.55 0 .983-.472.95-1.03-.395-6.847-4.421-17.083-4.421-17.083" fill="#FDE14C" mask="url(#d)"/><path d="M248.425 8.731c3.786-2.159 5.127-5.175 5.603-7.038a.902.902 0 0 0-1.18-1.077c-8.542 3.05-22.45-1.348-29.43 10.674a1.619 1.619 0 0 1-2.824 0C213.614-.732 199.705 3.665 191.165.616a.902.902 0 0 0-1.18 1.077c.474 1.863 1.816 4.88 5.602 7.04.654.372.785 1.264.25 1.8-3.509 3.503-5.505 8.565-4.89 14.088.86 7.711 6.958 13.96 14.536 14.877 7.032.851 13.324-2.749 16.523-8.392 3.198 5.643 9.49 9.243 16.523 8.392 7.578-.918 13.677-7.166 14.536-14.877.615-5.523-1.38-10.585-4.89-14.089a1.143 1.143 0 0 1 .25-1.8" fill="#FFB53E" mask="url(#d)"/><path d="M207.535 11.32c6.147 0 11.132 5.07 11.132 11.321 0 6.252-4.986 11.321-11.132 11.321-6.148 0-11.132-5.069-11.132-11.32 0-6.253 4.984-11.322 11.132-11.322" fill="#FDE14C" mask="url(#d)"/><path d="M222.736 39.908l2.212-5.999a1.815 1.815 0 0 0-.403-1.895l-.964-.98a2.201 2.201 0 0 0-3.15 0l-.964.98a1.817 1.817 0 0 0-.403 1.895l2.212 6a.775.775 0 0 0 1.46 0" fill="#EBAF4B" mask="url(#d)"/><path d="M209.615 19.692c1.765 0 3.195 1.455 3.195 3.25 0 1.793-1.43 3.247-3.195 3.247-1.764 0-3.194-1.454-3.194-3.248 0-1.794 1.43-3.249 3.194-3.249" fill="#000" mask="url(#d)"/><path d="M236.478 11.32c6.147 0 11.132 5.07 11.132 11.321 0 6.252-4.985 11.321-11.132 11.321-6.148 0-11.133-5.069-11.133-11.32 0-6.253 4.985-11.322 11.133-11.322" fill="#FDE14C" mask="url(#d)"/><path d="M234.67 19.008c1.764 0 3.193 1.454 3.193 3.248 0 1.794-1.429 3.249-3.194 3.249-1.764 0-3.194-1.455-3.194-3.25 0-1.793 1.43-3.247 3.194-3.247" fill="#000" mask="url(#d)"/><path fill="#F9F0E4" mask="url(#d)" d="M335.292 128.26l17.266-19.46.787 58.4-19.494 16.763z"/><path fill="#DD7045" mask="url(#d)" d="M302.05 86.4l21.24-7.2 30.68 29.6-17.705 20.732z"/><path d="M146.794 139.106l-2.977-13.69c1.661-1.923 2.784-4.28 2.596-6.92-.54-7.61-11.274-5.935-13.362-2.096-1.699 3.124-1.669 8.772-.147 11.141.066-.007 1.212-.746 1.281-.746.596 0 .72.733 0 1.466-.07.072-.03.198-.086.286.03.01.055.03.086.037 1.076.273 3.092 1.685 5.426.297l-1.464 10.225h8.647z" fill="#B28B67" mask="url(#d)"/><path d="M139.139 121.813c1.022-1.674 2.031-2.288 3.025-1.844.994.444 1.22 1.52.678 3.23l.519 3.927h1.121c1.085-4.763 4.178-8.01 3.705-10.14-.315-1.42-.387-2.989-1.75-3.335-.705-2.814-4.806-3.264-8.649-2.844-5.764.63-8.224 2.933-6.705 8.13 1.398 0 3.653-1.162 5.985-.308" fill="#191847" mask="url(#d)"/><path d="M129.073 186.296c1.545-2.708 6.54-12.253 8.25-16.964.492-1.353.957-2.667 1.384-3.903 1.27-3.676-5.153-6.665-6.207-3.1-2.63 8.88-5.862 21.547-6.173 22.625-.438 1.512 1.775 3.043 2.746 1.342" fill="#B28B67" mask="url(#d)"/><path d="M130.197 185.712c.246.56.378.984.396 1.27.02.346-.006.856-.08 1.528l-10.666.668c-.334-.914-.204-1.427.389-1.54.593-.111 1.085-.21 1.476-.293l4.822-2.56a.188.188 0 0 1 .255.083l.003.005.366.766c.568.227 1.026.33 1.37.309.282-.017.663-.157 1.144-.42" fill="#E4E4E4" mask="url(#d)"/><path d="M135.054 172.969c7.103-1.29 16.889-9.006 15.664-17.59h-11.532c-1.733.515-.648 2.209-13.389 8.063" fill="#5C63AB" mask="url(#d)"/><path d="M154.291 144.498l-4.342-.501c1.662 9.116 2.57 13.957 2.72 14.521.341 1.268-.89 2.991-1.44 3.93 1.342.814 1.467-1.592 3.157-.532 1.541.967 2.62 2.513 4.64 1.556.248-.118.566-.634.002-1.135-1.405-1.249-3.39-3.377-3.617-4.026-.309-.885-.683-5.49-1.12-13.813zm-25.03-8.408l-6.113 8.704c-1.99 1.328-3.576 2.683-4.753 4.065-.243.437-.452 1.226.95.634 1.398-.592 2.896-1.149 3.256-.718.358.432-.319 1.318.298 1.856.413.359 1.311-1.186 2.697-4.633l6.89-6.026-3.225-3.882zM113.217 187.028c1.545-2.707 6.54-12.253 8.25-16.963.491-1.353.957-2.668 1.384-3.904 1.271-3.676-5.153-6.664-6.207-3.099-2.629 8.881-5.862 21.546-6.173 22.624-.438 1.512 1.775 3.043 2.746 1.342" fill="#B28B67" mask="url(#d)"/><path d="M114.867 185.648c.262.599.402 1.05.421 1.353.023.37-.004.913-.084 1.63-.421.028-4.213.264-11.375.714-.356-.976-.218-1.524.415-1.643a63.308 63.308 0 0 0 1.573-.314l5.144-2.727a.2.2 0 0 1 .272.087l.001.004.392.817c.606.244 1.094.353 1.462.33.3-.018.707-.167 1.219-.447" fill="#E4E4E4" mask="url(#d)"/><path d="M121.846 171.503c6.569-1.29 15.621-9.006 14.488-17.59h-10.667c-1.601.515-.598 2.209-12.383 8.063" fill="#5C63AB" mask="url(#d)"/><path d="M147.545 161.976h-19.129a3.948 3.948 0 0 1-3.936-3.937v-1.655a3.947 3.947 0 0 1 3.936-3.936h19.13a3.948 3.948 0 0 1 3.936 3.936v1.655a3.948 3.948 0 0 1-3.937 3.937" fill="#5C63AB" mask="url(#d)"/><path d="M152.202 133.392c-3.603-1.987-4.208-3.117-6.486-4.397.184.328 0 1.125 0 1.465 0 .733-.78 1.099-3.964 1.099-3.185 0-5.766-.82-5.766-1.832l.002-.013-.155.013-.001.06c-2.409 1.424-4.195 2.17-6.56 4.337-1.898 1.74-2.853 2.089-3 2.932-.255 1.455 2.82 3.933 6.424 3.665-2.325 4.46-5.263 8.422-6.311 12.213-.16.574-.367 1.712.733 1.712h24.037c-.386-3.712-.56-7.092-.845-10.204 4.775-.057 6.279 1.767 6.216-.057-.036-1.078-1.428-9.396-4.324-10.993" fill="#C8E9F1" mask="url(#d)"/><path d="M133.93 121.763c-.02.325.115.556.369.746.143.108.343-.011.388-.157a.8.8 0 0 0-.216-.856c-.241-.24-.615.133-.374.373l.081.342.388-.158-.108-.29c.02-.34-.508-.34-.528 0M133.396 120.675c.524-.387 1.63-.366 1.893.375.113.318.624.18.509-.141-.368-1.038-1.84-1.303-2.67-.69-.27.199-.005.658.268.456M132.733 124.407c-.43.392-.28 1.012.276 1.165.132.036.188-.167.057-.203-.433-.273-.494-.543-.184-.813.1-.09-.048-.24-.15-.149M131.923 121.589a.812.812 0 0 0 .134.523c.118.194.42.159.482-.063.08-.278.052-.484-.072-.744-.11-.23-.405-.123-.483.063a.95.95 0 0 0-.018.729.267.267 0 0 0 .51 0l.031-.092c.11-.322-.4-.461-.51-.141l-.03.092h.51a.448.448 0 0 1 .016-.447l-.482.062.02.337.482-.062c-.02-.086-.04-.172-.062-.257.02-.34-.508-.34-.528 0M131.69 120.735c.279-.235.583-.379.938-.46.332-.078.192-.587-.14-.51a2.72 2.72 0 0 0-1.171.597c-.26.22.115.592.373.373" fill="#191847" mask="url(#d)"/><g transform="translate(400)"><path d="M142.76 71.372l-34.154 36.317v51.223l14.981 8.338v-26.084h.026c-.004-.184-.026-.362-.026-.547 0-11.483 8.582-20.792 19.168-20.792 10.586 0 19.167 9.31 19.167 20.792 0 .185-.02.363-.025.547h.025l.582 31.086 15.251-5.052.787-56.8-35.783-39.028z" fill="#FFFDF6"/><g transform="translate(334 166)"><mask id="f" fill="#fff"><use xlink:href="#e"/></mask><path fill="#F7D3A4" mask="url(#f)" d="M.525 39.055L51.45 78.513 66 53.852.526.83z"/></g><mask id="h" fill="#fff"><use xlink:href="#g"/></mask><path fill="#B2B2B2" mask="url(#h)" d="M108.514 283.543h5.83V105.177h-5.83z"/><path d="M65.61 108.314a.654.654 0 0 0-.277-.528c-.12-2.957-.884-5.805-2.538-7.216-2.467-4.675-15.146-6.713-15.786 2.55-.221 3.215 1.107 6.084 3.068 8.423l-3.517 16.67h10.215l-1.73-12.447c2.756 1.69 6.034 1.918 7.305 1.585 1.244-.326 2.136-1.754 2.61-4.394-1.081 0-1.957-1.44-1.957-1.99 0-.549.876-.662 1.957-.662.11 0 .218.006.326.016.038-.49.059-.99.064-1.49a.65.65 0 0 0 .26-.517M39.005 164.28c.768 10.651 50.207 42.012 50.496 42.892.128.39-5.002 12.753-15.389 37.086l4.322 1.708c15.932-25.77 23.49-40.029 22.672-42.775-1.172-3.932-13.959-16.864-38.36-38.799l-23.74-.113z" fill="#B28B67" mask="url(#h)"/><path d="M75.25 238.763l7.056 2.61c14.878-17.07 20.71-31.156 19.646-38.334-.708-4.784-13.45-17.695-38.226-38.733H38.5c.861 24.668 46.686 42.96 47.298 44.01.613 1.052-5.419 11.348-10.548 30.447" fill="#22646B" mask="url(#h)"/><path d="M72.523 243.419c-.883 1.049-1.432 1.875-1.647 2.478-.263.733-.526 1.848-.79 3.344l22.559 8.35c1.29-1.754 1.334-2.943.127-3.568a136.878 136.878 0 0 1-2.995-1.59l-8.783-8.635a.422.422 0 0 0-.603.01l-.008.009-1.27 1.414c-1.366.122-2.416.047-3.147-.223-.593-.22-1.327-.768-2.2-1.643a.84.84 0 0 0-1.243.054" fill="#E4E4E4" mask="url(#h)"/><path fill="#997659" mask="url(#h)" d="M44.69 164.28l-22.023 53.77L1.02 263.506h5.107l55.875-99.228z"/><path d="M.714 261.408C.237 262.701 0 263.668 0 264.31c0 .781.128 1.92.383 3.417H24.39c.624-2.097.263-3.229-1.08-3.396a128.861 128.861 0 0 1-3.35-.453l-11.157-5.059a.424.424 0 0 0-.563.22c0 .003-.003.007-.004.011l-.717 1.77c-1.244.59-2.256.885-3.033.885-.632 0-1.505-.26-2.619-.779a.845.845 0 0 0-1.129.426l-.023.057" fill="#E4E4E4" mask="url(#h)"/><path d="M2.975 254.064l11.348 2.164c8.774-13.119 45.494-66.909 49.52-91.948H38.579c-13.444 18.1-27.241 76.448-35.604 89.784" fill="#22646B" mask="url(#h)"/><path d="M85.488 133.358l16.82 2.04c3.699-.956 6.992-1.395 9.883-1.32.776.178 1.933.777-.261 1.817s-4.453 2.234-4.325 3.13c.128.894 1.898 1.035 1.876 2.354-.014.878-2.802.294-8.36-1.754l-14.483 1.771-1.15-8.038z" fill="#B28B67" mask="url(#h)"/><path d="M53.61 120.167c13.39 8.482 28.01 12.485 47.013 14.464l-1.742 8.757c-18.266 2.937-28.152 4.058-38.632-5.2-2.631-2.323-8.586-11.124-11.946-15.625l5.308-2.396z" fill="#F4D037" mask="url(#h)"/><path d="M37.02 168.235h32.773c-7.423-23.024-11.215-38.827-11.376-47.407-.008-.438-.803-1.209-1.155-1.108-2.57.74-5.32.462-8.251-.828-7.77 12.707-10.456 28.353-11.99 49.343" fill="#F2F2F2" mask="url(#h)"/><path d="M79.113 117.348l15.638-6.323c2.789-2.638 5.464-4.622 8.024-5.953.76-.217 2.047-.244.61 1.742-1.435 1.985-2.858 4.139-2.334 4.873.525.733 2.137.004 2.727 1.186.393.788-2.311 1.617-8.113 2.485l-11.835 8.579-4.717-6.59z" fill="#B28B67" mask="url(#h)"/><path d="M50.74 118.853c9.366-.747 24.702-.349 41.707-7.608l2.504 8.63c-12.471 9.823-25.28 17.71-37.106 17.792 7.06 21.793 8.43 40.022-2.826 41.014l-17.406 1.535c-4.431-18.65.524-45.489 6.096-59.297.213-.526.677-1.525 1.966-1.64l5.058-.447.008.022" fill="#F4D037" mask="url(#h)"/><path d="M62.094 99.22c.228.079 0-.917-.544-1.281-1.669-1.116-6.637-2.77-10.033-2.052-2.277.48-5.114 1.687-6.932 3.224-1.638 1.385-3.129 3.828-3.709 5.974-.609 2.254-.84 5.39 0 7.356 1 2.342 4.54 4.865 4.633 5.2.107.383-.31 1.877-.617 3.45-.307 1.575-.167 5.584 0 6.237.266 1.045 1.696 1.559 2.32 1.635 3.447.418 5.946 4.77 6.986 5.884 4.63 4.727 7.862 6.782 9.694 6.167.482-.162-.24-6.035-.723-8.553-.482-2.517-5.213-7.01-5.515-8.49-.179-.872-.208-2.391-.227-2.46-.446-3.128-.369-3.382-1.02-4.656-.65-1.275-1.156-1.35-1-1.721.765-1.814 3.223-7.364 3.781-9.18.664-2.163.35-1.452 1.035-3.608.304-.954.69-3.528 1.871-3.125" fill="#2E91A0" mask="url(#h)"/><path d="M45.368 116.661l.3-.37c4.09 1.302 3.635 3.991 8.785 6.714l-.431.265c-4.51-1.892-5.563-5.952-8.654-6.609zm3.637-14.476c.633 4.873.816 7.657 4.108 12.988l-.349.108c-3.389-4.64-3.925-8.43-4.086-13.069l.328-.027zm-5.717 3.494c1.393 3.433 2.027 5.461 5.912 8.24l-.3.213c-3.858-2.224-4.98-4.875-5.904-8.31l.292-.143zm10.018-6.217c-.747 2.41-.908 3.695-.747 6.986h-.366c-.684-3.106-.075-6.03.653-6.986h.46z" fill="#000" mask="url(#h)"/><path d="M62.48 105.365c-.107.442-.073 1.16.486 1.233.084.011.164-.053.207-.118.275-.419.093-.95-.211-1.296-.062-.072-.21-.097-.29-.038-.141.108-.195.167-.186.354.015.306.492.308.478 0l-.004-.092-.12.206a3.53 3.53 0 0 0 .075-.055l-.29-.037c.156.177.284.49.135.717l.206-.119c-.113-.015-.033-.59-.024-.628.073-.299-.388-.426-.461-.127M62.13 103.8c.325-.378.768-.49 1.233-.312.288.109.413-.353.127-.461a1.504 1.504 0 0 0-1.698.435c-.2.232.136.57.338.338" fill="#23292B" mask="url(#h)"/><path fill="#B2B2B2" mask="url(#h)" d="M327.696 260.037h6.833V123.673h-6.833z"/><path fill="#C3E1E5" mask="url(#h)" d="M178.116 155.29l102.592 20.171v-60.07L178.116 95.043z"/><path fill="#B2B2B2" mask="url(#h)" d="M218.46 236.608h7.091V41.057h-7.091zM174.662 287.669h5.878V107.643h-5.878z"/><path fill="#C8E9F1" mask="url(#h)" d="M177.737 168.852l92.999 20.172v-60.069l-93-20.349z"/><path d="M301.598 87.402l-34.154 36.316v51.224L283.169 172l-.743-14.805h.026c-.004-.184-.026-.362-.026-.547 0-11.482 8.582-20.792 19.168-20.792 10.585 0 19.167 9.31 19.167 20.792 0 .185-.021.363-.025.547h.025l-.782 28.13 14.55-1.233 1.215-60.374-34.146-36.316z" fill="#FFFDF6" mask="url(#h)"/><path d="M284.35 164.204c-2.02-.105-11.836-.038-18.405 14.161-2.12 4.582-15.606 43.407-21.514 52.813-10.694 17.025-22.265 16.677-44.912 36.322-3.374 2.927-.12 12.437 2.763 16.063 1.374 1.728 3.134 1.48 3.775 1.31 5.928-1.577 39.462-34.944 41.52-36.015 6.29-3.274 12.04-19.177 16.356-41.909 1.91-10.059 1.259-15.715 5.662-24.883 3.664-7.627 15.099-8.512 15.099-9.822 0-.06.013-8.02-.343-8.04" fill="#2E91A0" mask="url(#h)"/><path d="M285.142 170.773c-6.063.972-14.037 3.444-18.73 10.486-2.241 3.365-2.824 6.407-3.624 9.83 0 0-2.813 12.036-11.48 32.768-4.714 11.281-8.065 19.3-15.707 26.215-9.72 8.796-20.486 10.474-31.417 24.248-1.441 1.817-2.46 3.307-2.416 5.243.199 8.993 23.105 20.46 41.687 16.384 22.643-4.967 34.558-32.07 37.458-38.666 11.732-26.686 6.78-42.748 21.75-61.604 6.396-8.056 10.906-13.848 16.312-16.384" fill="#06BBCE" mask="url(#h)"/><path d="M321.392 175.361c-1.942-.106-16.65.861-22.96 15.073-2.034 4.585-3 8.543-3.623 11.797-3.021 15.73-5.806 34.495-11.48 43.91-10.27 17.038-10.875 13.761-32.624 33.422-3.241 2.93-10.623 15.377-7.854 19.006 1.319 1.73 3.01 1.48 3.625 1.311 5.693-1.58 37.898-34.974 39.874-36.045 6.042-3.278 11.564-19.194 15.708-41.944 1.834-10.068 1.209-15.728 5.438-24.903 3.518-7.634 14.5-8.52 14.5-9.83 0-.06.604-5.899.604-8.52 0-4.145-.866-3.258-1.208-3.277M123.306 148.074c-1.941-.106-11.368-.038-17.678 14.173-2.035 4.586-14.986 43.443-20.66 52.856-10.27 17.04-21.382 16.692-43.132 36.352-3.241 2.93-.115 12.448 2.654 16.077 1.319 1.73 3.009 1.481 3.625 1.311 5.693-1.579 37.898-34.973 39.874-36.045 6.042-3.277 11.564-19.193 15.709-41.943 1.834-10.068 1.208-15.728 5.437-24.904 3.519-7.634 14.499-8.52 14.499-9.83 0-.06.015-8.028-.328-8.047" fill="#2E91A0" mask="url(#h)"/><path d="M127.516 154.744c-6.063.972-14.037 3.443-18.73 10.485-2.242 3.366-2.824 6.407-3.624 9.831 0 0-2.813 12.036-11.48 32.768-4.715 11.28-8.066 19.3-15.707 26.215-9.72 8.795-20.486 10.474-31.417 24.248-1.441 1.817-2.46 3.306-2.416 5.243.199 8.993 23.105 20.46 41.686 16.384 22.643-4.968 34.559-32.07 37.459-38.666 11.73-26.686 6.78-42.748 21.75-61.605 6.395-8.055 10.905-13.847 16.312-16.383" fill="#06BBCE" mask="url(#h)"/><path d="M163.765 159.331c-1.941-.105-16.648.862-22.958 15.074-2.035 4.585-3 8.543-3.625 11.796-3.021 15.73-5.805 34.496-11.479 43.91-10.27 17.038-10.875 13.762-32.625 33.423-3.24 2.93-10.622 15.376-7.853 19.005 1.318 1.73 3.01 1.481 3.624 1.311 5.694-1.579 37.899-34.973 39.875-36.045 6.042-3.277 11.564-19.193 15.708-41.943 1.834-10.068 1.209-15.728 5.437-24.904 3.519-7.633 14.5-8.52 14.5-9.83 0-.06.605-5.899.605-8.52 0-4.144-.866-3.257-1.209-3.277" fill="#2E91A0" mask="url(#h)"/><path fill="#FFB53E" mask="url(#h)" d="M334.525 223.55l50.925 39.458L400 238.347l-65.475-53.022z"/><path fill="#DD7045" mask="url(#h)" d="M143.142 71.2l21.24-7.2 30.68 29.6-17.704 20.733z"/><path fill="#DD7045" mask="url(#h)" d="M108.529 108l.787-8 38.547-32.8 16.52-3.2-17.65 12.333M265.863 124.8l.786-8L305.196 84l16.52-3.2-17.648 12.333"/><path d="M222.006 11.32c14.755 0 26.717 12.418 26.717 27.736 0 15.318-11.962 27.736-26.717 27.736-14.756 0-26.718-12.418-26.718-27.736 0-15.318 11.962-27.736 26.718-27.736" fill="#FFB53E" mask="url(#h)"/><path d="M222.006 15.85c9.837 0 17.811 10.896 17.811 24.339 0 13.442-7.974 24.34-17.81 24.34-9.838 0-17.813-10.898-17.813-24.34 0-13.443 7.975-24.34 17.812-24.34" fill="#FDE14C" mask="url(#h)"/><path d="M252.062 19.245l-3.542 3.602c.129-.81.203-1.633.203-2.47C248.723 9.123 236.76 0 222.006 0 207.25 0 195.29 9.123 195.29 20.377c0 .837.073 1.66.202 2.47l-3.542-3.602s-4.027 10.236-4.422 17.082a.964.964 0 0 0 .95 1.031h2.358v2.503c0 .511.39.934.89.967 2.6.177 10.502.431 18.535-2.146-.5-.192 11.745-5.852 11.745-5.852s11.132 5.66 11.745 5.852c8.033 2.577 15.935 2.323 18.534 2.146a.961.961 0 0 0 .89-.967v-2.503h2.358c.55 0 .983-.472.95-1.03-.395-6.847-4.421-17.083-4.421-17.083" fill="#FDE14C" mask="url(#h)"/><path d="M248.425 8.731c3.786-2.159 5.127-5.175 5.603-7.038a.902.902 0 0 0-1.18-1.077c-8.542 3.05-22.45-1.348-29.43 10.674a1.619 1.619 0 0 1-2.824 0C213.614-.732 199.705 3.665 191.165.616a.902.902 0 0 0-1.18 1.077c.474 1.863 1.816 4.88 5.602 7.04.654.372.785 1.264.25 1.8-3.509 3.503-5.505 8.565-4.89 14.088.86 7.711 6.958 13.96 14.536 14.877 7.032.851 13.324-2.749 16.523-8.392 3.198 5.643 9.49 9.243 16.523 8.392 7.578-.918 13.677-7.166 14.536-14.877.615-5.523-1.38-10.585-4.89-14.089a1.143 1.143 0 0 1 .25-1.8" fill="#FFB53E" mask="url(#h)"/><path d="M207.535 11.32c6.147 0 11.132 5.07 11.132 11.321 0 6.252-4.986 11.321-11.132 11.321-6.148 0-11.132-5.069-11.132-11.32 0-6.253 4.984-11.322 11.132-11.322" fill="#FDE14C" mask="url(#h)"/><path d="M222.736 39.908l2.212-5.999a1.815 1.815 0 0 0-.403-1.895l-.964-.98a2.201 2.201 0 0 0-3.15 0l-.964.98a1.817 1.817 0 0 0-.403 1.895l2.212 6a.775.775 0 0 0 1.46 0" fill="#EBAF4B" mask="url(#h)"/><path d="M209.615 19.692c1.765 0 3.195 1.455 3.195 3.25 0 1.793-1.43 3.247-3.195 3.247-1.764 0-3.194-1.454-3.194-3.248 0-1.794 1.43-3.249 3.194-3.249" fill="#000" mask="url(#h)"/><path d="M236.478 11.32c6.147 0 11.132 5.07 11.132 11.321 0 6.252-4.985 11.321-11.132 11.321-6.148 0-11.133-5.069-11.133-11.32 0-6.253 4.985-11.322 11.133-11.322" fill="#FDE14C" mask="url(#h)"/><path d="M234.67 19.008c1.764 0 3.193 1.454 3.193 3.248 0 1.794-1.429 3.249-3.194 3.249-1.764 0-3.194-1.455-3.194-3.25 0-1.793 1.43-3.247 3.194-3.247" fill="#000" mask="url(#h)"/><path fill="#F9F0E4" mask="url(#h)" d="M335.292 128.26l17.266-19.46.787 58.4-19.494 16.763z"/><path fill="#DD7045" mask="url(#h)" d="M302.05 86.4l21.24-7.2 30.68 29.6-17.705 20.732z"/><path d="M144.488 140.078l-.806-13.987c1.94-1.64 3.417-3.793 3.643-6.43.652-7.6-10.211-7.62-12.872-4.153-2.165 2.821-3.017 8.405-1.881 10.982.064.002 1.312-.549 1.38-.538.59.093.598.837-.23 1.448-.08.06-.06.191-.128.27.028.013.05.037.08.05 1.019.437 2.792 2.147 5.313 1.14l-3.041 9.87 8.542 1.348z" fill="#B28B67" mask="url(#h)"/><path d="M139.622 121.804c1.271-1.493 2.362-1.943 3.275-1.351.912.594.968 1.693.166 3.297l-.1 3.96 1.107.176c1.816-4.536 5.376-7.262 5.241-9.44-.089-1.451.084-3.012-1.209-3.566-.257-2.89-4.237-3.974-8.098-4.158-5.793-.276-8.58 1.614-7.89 6.984 1.38.218 3.788-.578 5.958.629" fill="#191847" mask="url(#h)"/><path d="M129.073 186.296c1.545-2.708 6.54-12.253 8.25-16.964.492-1.353.957-2.667 1.384-3.903 1.27-3.676-5.153-6.665-6.207-3.1-2.63 8.88-5.862 21.547-6.173 22.625-.438 1.512 1.775 3.043 2.746 1.342" fill="#B28B67" mask="url(#h)"/><path d="M130.197 185.712c.246.56.378.984.396 1.27.02.346-.006.856-.08 1.528l-10.666.668c-.334-.914-.204-1.427.389-1.54.593-.111 1.085-.21 1.476-.293l4.822-2.56a.188.188 0 0 1 .255.083l.003.005.366.766c.568.227 1.026.33 1.37.309.282-.017.663-.157 1.144-.42" fill="#E4E4E4" mask="url(#h)"/><path d="M135.054 172.969c7.103-1.29 16.889-9.006 15.664-17.59h-11.532c-1.733.515-.648 2.209-13.389 8.063" fill="#5C63AB" mask="url(#h)"/><path d="M154.291 144.498l-4.342-.501c1.662 9.116 2.57 13.957 2.72 14.521.341 1.268-.89 2.991-1.44 3.93 1.342.814 1.467-1.592 3.157-.532 1.541.967 2.62 2.513 4.64 1.556.248-.118.566-.634.002-1.135-1.405-1.249-3.39-3.377-3.617-4.026-.309-.885-.683-5.49-1.12-13.813zm-25.03-8.408l-6.113 8.704c-1.99 1.328-3.576 2.683-4.753 4.065-.243.437-.452 1.226.95.634 1.398-.592 2.896-1.149 3.256-.718.358.432-.319 1.318.298 1.856.413.359 1.311-1.186 2.697-4.633l6.89-6.026-3.225-3.882zM113.217 187.028c1.545-2.707 6.54-12.253 8.25-16.963.491-1.353.957-2.668 1.384-3.904 1.271-3.676-5.153-6.664-6.207-3.099-2.629 8.881-5.862 21.546-6.173 22.624-.438 1.512 1.775 3.043 2.746 1.342" fill="#B28B67" mask="url(#h)"/><path d="M114.867 185.648c.262.599.402 1.05.421 1.353.023.37-.004.913-.084 1.63-.421.028-4.213.264-11.375.714-.356-.976-.218-1.524.415-1.643a63.308 63.308 0 0 0 1.573-.314l5.144-2.727a.2.2 0 0 1 .272.087l.001.004.392.817c.606.244 1.094.353 1.462.33.3-.018.707-.167 1.219-.447" fill="#E4E4E4" mask="url(#h)"/><path d="M121.846 171.503c6.569-1.29 15.621-9.006 14.488-17.59h-10.667c-1.601.515-.598 2.209-12.383 8.063" fill="#5C63AB" mask="url(#h)"/><path d="M147.545 161.976h-19.129a3.948 3.948 0 0 1-3.936-3.937v-1.655a3.947 3.947 0 0 1 3.936-3.936h19.13a3.948 3.948 0 0 1 3.936 3.936v1.655a3.948 3.948 0 0 1-3.937 3.937" fill="#5C63AB" mask="url(#h)"/><path d="M152.202 133.392c-3.603-1.987-4.208-3.117-6.486-4.397.184.328 0 1.125 0 1.465 0 .733-.78 1.099-3.964 1.099-3.185 0-5.766-.82-5.766-1.832l.002-.013-.155.013-.001.06c-2.409 1.424-4.195 2.17-6.56 4.337-1.898 1.74-2.853 2.089-3 2.932-.255 1.455 2.82 3.933 6.424 3.665-2.325 4.46-5.263 8.422-6.311 12.213-.16.574-.367 1.712.733 1.712h24.037c-.386-3.712-.56-7.092-.845-10.204 4.775-.057 6.279 1.767 6.216-.057-.036-1.078-1.428-9.396-4.324-10.993" fill="#C8E9F1" mask="url(#h)"/><path d="M134.49 120.912c-.068.316-.002.574.224.807.11.115.34.1.415-.053.148-.306.15-.602-.054-.882-.198-.27-.657-.008-.456.267l.054.348.415-.053-.087-.293c.072-.33-.437-.473-.51-.14M134.164 119.766c.606-.315 1.642-.027 1.781.725.063.334.572.192.51-.141-.205-1.102-1.667-1.504-2.558-1.04-.3.157-.035.613.267.456M132.899 123.362c-.476.312-.467.95.073 1.194.123.056.23-.127.107-.182-.351-.126-.375-.403-.074-.83.114-.075.008-.257-.106-.182M132.536 120.428a.817.817 0 0 0 .035.54c.077.185.376.295.483.064.121-.26.148-.466.065-.744a.267.267 0 0 0-.482-.063c-.162.263-.19.48-.137.782.04.224.382.255.483.063l.046-.086c.156-.301-.298-.57-.457-.267-.016.028-.03.058-.044.086l.483.063c.026-.125.054-.25.083-.375l-.484-.063-.013.338c.162.02.323.042.483.063l-.035-.26c.073-.331-.436-.473-.51-.141M132.41 119.593c.317-.19.624-.295.992-.322.337-.026.34-.555 0-.53a2.787 2.787 0 0 0-1.258.396c-.292.175-.026.632.267.456" fill="#191847" mask="url(#h)"/></g><g transform="translate(800)"><path d="M142.76 71.372l-34.154 36.317v51.223l14.981 8.338v-26.084h.026c-.004-.184-.026-.362-.026-.547 0-11.483 8.582-20.792 19.168-20.792 10.586 0 19.167 9.31 19.167 20.792 0 .185-.02.363-.025.547h.025l.582 31.086 15.251-5.052.787-56.8-35.783-39.028z" fill="#FFFDF6"/><g transform="translate(334 166)"><mask id="j" fill="#fff"><use xlink:href="#i"/></mask><path fill="#F7D3A4" mask="url(#j)" d="M.525 39.055L51.45 78.513 66 53.852.526.83z"/></g><mask id="l" fill="#fff"><use xlink:href="#k"/></mask><path fill="#B2B2B2" mask="url(#l)" d="M108.514 283.543h5.83V105.177h-5.83z"/><path d="M65.61 108.314a.654.654 0 0 0-.277-.528c-.12-2.957-.884-5.805-2.538-7.216-2.467-4.675-15.146-6.713-15.786 2.55-.221 3.215 1.107 6.084 3.068 8.423l-3.517 16.67h10.215l-1.73-12.447c2.756 1.69 6.034 1.918 7.305 1.585 1.244-.326 2.136-1.754 2.61-4.394-1.081 0-1.957-1.44-1.957-1.99 0-.549.876-.662 1.957-.662.11 0 .218.006.326.016.038-.49.059-.99.064-1.49a.65.65 0 0 0 .26-.517M39.005 164.28c.768 10.651 50.207 42.012 50.496 42.892.128.39-5.002 12.753-15.389 37.086l4.322 1.708c15.932-25.77 23.49-40.029 22.672-42.775-1.172-3.932-13.959-16.864-38.36-38.799l-23.74-.113z" fill="#B28B67" mask="url(#l)"/><path d="M75.25 238.763l7.056 2.61c14.878-17.07 20.71-31.156 19.646-38.334-.708-4.784-13.45-17.695-38.226-38.733H38.5c.861 24.668 46.686 42.96 47.298 44.01.613 1.052-5.419 11.348-10.548 30.447" fill="#22646B" mask="url(#l)"/><path d="M72.523 243.419c-.883 1.049-1.432 1.875-1.647 2.478-.263.733-.526 1.848-.79 3.344l22.559 8.35c1.29-1.754 1.334-2.943.127-3.568a136.878 136.878 0 0 1-2.995-1.59l-8.783-8.635a.422.422 0 0 0-.603.01l-.008.009-1.27 1.414c-1.366.122-2.416.047-3.147-.223-.593-.22-1.327-.768-2.2-1.643a.84.84 0 0 0-1.243.054" fill="#E4E4E4" mask="url(#l)"/><path fill="#997659" mask="url(#l)" d="M44.69 164.28l-22.023 53.77L1.02 263.506h5.107l55.875-99.228z"/><path d="M.714 261.408C.237 262.701 0 263.668 0 264.31c0 .781.128 1.92.383 3.417H24.39c.624-2.097.263-3.229-1.08-3.396a128.861 128.861 0 0 1-3.35-.453l-11.157-5.059a.424.424 0 0 0-.563.22c0 .003-.003.007-.004.011l-.717 1.77c-1.244.59-2.256.885-3.033.885-.632 0-1.505-.26-2.619-.779a.845.845 0 0 0-1.129.426l-.023.057" fill="#E4E4E4" mask="url(#l)"/><path d="M2.975 254.064l11.348 2.164c8.774-13.119 45.494-66.909 49.52-91.948H38.579c-13.444 18.1-27.241 76.448-35.604 89.784" fill="#22646B" mask="url(#l)"/><path d="M85.72 127.501l16.93-.706c3.494-1.54 6.674-2.507 9.539-2.9.794.051 2.032.456.036 1.836-1.997 1.381-4.034 2.924-3.763 3.787.271.861 2.04.715 2.232 2.02.128.87-2.717.743-8.533-.38l-14.006 4.089-2.435-7.746z" fill="#B28B67" mask="url(#l)"/><path d="M52.13 119.634c14.583 6.207 29.66 7.795 48.731 6.677l-.303 8.923c-17.55 5.85-27.125 8.555-38.965 1.113-2.972-1.868-10.27-9.591-14.314-13.49l4.851-3.223z" fill="#F4D037" mask="url(#l)"/><path d="M37.02 168.235h32.773c-7.423-23.024-11.215-38.827-11.376-47.407-.008-.438-.803-1.209-1.155-1.108-2.57.74-5.32.462-8.251-.828-7.77 12.707-10.456 28.353-11.99 49.343" fill="#F2F2F2" mask="url(#l)"/><path d="M81.354 123.383l16.612-2.926c3.278-1.998 6.307-3.382 9.089-4.15.788-.053 2.053.188.235 1.83-1.82 1.644-3.66 3.455-3.3 4.28.36.827 2.09.449 2.42 1.73.219.852-2.598 1.098-8.452.738l-13.365 5.925-3.24-7.427z" fill="#B28B67" mask="url(#l)"/><path d="M53.291 118.941c9.314 1.221 24.23 4.808 42.376 1.25l.65 8.964c-14.245 7.008-28.416 12.052-39.999 9.67 2.364 22.784-.095 40.897-11.312 39.522l-17.344-2.127c-.447-19.164 9.993-44.38 18.32-56.723.318-.472.98-1.353 2.265-1.195l5.04.618.004.021" fill="#F4D037" mask="url(#l)"/><path d="M62.094 99.22c.228.079 0-.917-.544-1.281-1.669-1.116-6.637-2.77-10.033-2.052-2.277.48-5.114 1.687-6.932 3.224-1.638 1.385-3.129 3.828-3.709 5.974-.609 2.254-.84 5.39 0 7.356 1 2.342 4.54 4.865 4.633 5.2.107.383-.31 1.877-.617 3.45-.307 1.575-.167 5.584 0 6.237.266 1.045 1.696 1.559 2.32 1.635 3.447.418 5.946 4.77 6.986 5.884 4.63 4.727 7.862 6.782 9.694 6.167.482-.162-.24-6.035-.723-8.553-.482-2.517-5.213-7.01-5.515-8.49-.179-.872-.208-2.391-.227-2.46-.446-3.128-.369-3.382-1.02-4.656-.65-1.275-1.156-1.35-1-1.721.765-1.814 3.223-7.364 3.781-9.18.664-2.163.35-1.452 1.035-3.608.304-.954.69-3.528 1.871-3.125" fill="#2E91A0" mask="url(#l)"/><path d="M45.368 116.661l.3-.37c4.09 1.302 3.635 3.991 8.785 6.714l-.431.265c-4.51-1.892-5.563-5.952-8.654-6.609zm3.637-14.476c.633 4.873.816 7.657 4.108 12.988l-.349.108c-3.389-4.64-3.925-8.43-4.086-13.069l.328-.027zm-5.717 3.494c1.393 3.433 2.027 5.461 5.912 8.24l-.3.213c-3.858-2.224-4.98-4.875-5.904-8.31l.292-.143zm10.018-6.217c-.747 2.41-.908 3.695-.747 6.986h-.366c-.684-3.106-.075-6.03.653-6.986h.46z" fill="#000" mask="url(#l)"/><path d="M62.48 105.365c-.107.442-.073 1.16.486 1.233.084.011.164-.053.207-.118.275-.419.093-.95-.211-1.296-.062-.072-.21-.097-.29-.038-.141.108-.195.167-.186.354.015.306.492.308.478 0l-.004-.092-.12.206a3.53 3.53 0 0 0 .075-.055l-.29-.037c.156.177.284.49.135.717l.206-.119c-.113-.015-.033-.59-.024-.628.073-.299-.388-.426-.461-.127M62.13 103.8c.325-.378.768-.49 1.233-.312.288.109.413-.353.127-.461a1.504 1.504 0 0 0-1.698.435c-.2.232.136.57.338.338" fill="#23292B" mask="url(#l)"/><path fill="#B2B2B2" mask="url(#l)" d="M327.696 260.037h6.833V123.673h-6.833z"/><path fill="#C3E1E5" mask="url(#l)" d="M178.116 155.29l102.592 20.171v-60.07L178.116 95.043z"/><path fill="#B2B2B2" mask="url(#l)" d="M218.46 236.608h7.091V41.057h-7.091zM174.662 287.669h5.878V107.643h-5.878z"/><path fill="#C8E9F1" mask="url(#l)" d="M177.737 168.852l92.999 20.172v-60.069l-93-20.349z"/><path d="M301.598 87.402l-34.154 36.316v51.224L283.169 172l-.743-14.805h.026c-.004-.184-.026-.362-.026-.547 0-11.482 8.582-20.792 19.168-20.792 10.585 0 19.167 9.31 19.167 20.792 0 .185-.021.363-.025.547h.025l-.782 28.13 14.55-1.233 1.215-60.374-34.146-36.316z" fill="#FFFDF6" mask="url(#l)"/><path d="M284.35 164.204c-2.02-.105-11.836-.038-18.405 14.161-2.12 4.582-15.606 43.407-21.514 52.813-10.694 17.025-22.265 16.677-44.912 36.322-3.374 2.927-.12 12.437 2.763 16.063 1.374 1.728 3.134 1.48 3.775 1.31 5.928-1.577 39.462-34.944 41.52-36.015 6.29-3.274 12.04-19.177 16.356-41.909 1.91-10.059 1.259-15.715 5.662-24.883 3.664-7.627 15.099-8.512 15.099-9.822 0-.06.013-8.02-.343-8.04" fill="#2E91A0" mask="url(#l)"/><path d="M285.142 170.773c-6.063.972-14.037 3.444-18.73 10.486-2.241 3.365-2.824 6.407-3.624 9.83 0 0-2.813 12.036-11.48 32.768-4.714 11.281-8.065 19.3-15.707 26.215-9.72 8.796-20.486 10.474-31.417 24.248-1.441 1.817-2.46 3.307-2.416 5.243.199 8.993 23.105 20.46 41.687 16.384 22.643-4.967 34.558-32.07 37.458-38.666 11.732-26.686 6.78-42.748 21.75-61.604 6.396-8.056 10.906-13.848 16.312-16.384" fill="#06BBCE" mask="url(#l)"/><path d="M321.392 175.361c-1.942-.106-16.65.861-22.96 15.073-2.034 4.585-3 8.543-3.623 11.797-3.021 15.73-5.806 34.495-11.48 43.91-10.27 17.038-10.875 13.761-32.624 33.422-3.241 2.93-10.623 15.377-7.854 19.006 1.319 1.73 3.01 1.48 3.625 1.311 5.693-1.58 37.898-34.974 39.874-36.045 6.042-3.278 11.564-19.194 15.708-41.944 1.834-10.068 1.209-15.728 5.438-24.903 3.518-7.634 14.5-8.52 14.5-9.83 0-.06.604-5.899.604-8.52 0-4.145-.866-3.258-1.208-3.277M123.306 148.074c-1.941-.106-11.368-.038-17.678 14.173-2.035 4.586-14.986 43.443-20.66 52.856-10.27 17.04-21.382 16.692-43.132 36.352-3.241 2.93-.115 12.448 2.654 16.077 1.319 1.73 3.009 1.481 3.625 1.311 5.693-1.579 37.898-34.973 39.874-36.045 6.042-3.277 11.564-19.193 15.709-41.943 1.834-10.068 1.208-15.728 5.437-24.904 3.519-7.634 14.499-8.52 14.499-9.83 0-.06.015-8.028-.328-8.047" fill="#2E91A0" mask="url(#l)"/><path d="M127.516 154.744c-6.063.972-14.037 3.443-18.73 10.485-2.242 3.366-2.824 6.407-3.624 9.831 0 0-2.813 12.036-11.48 32.768-4.715 11.28-8.066 19.3-15.707 26.215-9.72 8.795-20.486 10.474-31.417 24.248-1.441 1.817-2.46 3.306-2.416 5.243.199 8.993 23.105 20.46 41.686 16.384 22.643-4.968 34.559-32.07 37.459-38.666 11.73-26.686 6.78-42.748 21.75-61.605 6.395-8.055 10.905-13.847 16.312-16.383" fill="#06BBCE" mask="url(#l)"/><path d="M163.765 159.331c-1.941-.105-16.648.862-22.958 15.074-2.035 4.585-3 8.543-3.625 11.796-3.021 15.73-5.805 34.496-11.479 43.91-10.27 17.038-10.875 13.762-32.625 33.423-3.24 2.93-10.622 15.376-7.853 19.005 1.318 1.73 3.01 1.481 3.624 1.311 5.694-1.579 37.899-34.973 39.875-36.045 6.042-3.277 11.564-19.193 15.708-41.943 1.834-10.068 1.209-15.728 5.437-24.904 3.519-7.633 14.5-8.52 14.5-9.83 0-.06.605-5.899.605-8.52 0-4.144-.866-3.257-1.209-3.277" fill="#2E91A0" mask="url(#l)"/><path fill="#FFB53E" mask="url(#l)" d="M334.525 223.55l50.925 39.458L400 238.347l-65.475-53.022z"/><path fill="#DD7045" mask="url(#l)" d="M143.142 71.2l21.24-7.2 30.68 29.6-17.704 20.733z"/><path fill="#DD7045" mask="url(#l)" d="M108.529 108l.787-8 38.547-32.8 16.52-3.2-17.65 12.333M265.863 124.8l.786-8L305.196 84l16.52-3.2-17.648 12.333"/><path d="M222.006 11.32c14.755 0 26.717 12.418 26.717 27.736 0 15.318-11.962 27.736-26.717 27.736-14.756 0-26.718-12.418-26.718-27.736 0-15.318 11.962-27.736 26.718-27.736" fill="#FFB53E" mask="url(#l)"/><path d="M222.006 15.85c9.837 0 17.811 10.896 17.811 24.339 0 13.442-7.974 24.34-17.81 24.34-9.838 0-17.813-10.898-17.813-24.34 0-13.443 7.975-24.34 17.812-24.34" fill="#FDE14C" mask="url(#l)"/><path d="M252.062 19.245l-3.542 3.602c.129-.81.203-1.633.203-2.47C248.723 9.123 236.76 0 222.006 0 207.25 0 195.29 9.123 195.29 20.377c0 .837.073 1.66.202 2.47l-3.542-3.602s-4.027 10.236-4.422 17.082a.964.964 0 0 0 .95 1.031h2.358v2.503c0 .511.39.934.89.967 2.6.177 10.502.431 18.535-2.146-.5-.192 11.745-5.852 11.745-5.852s11.132 5.66 11.745 5.852c8.033 2.577 15.935 2.323 18.534 2.146a.961.961 0 0 0 .89-.967v-2.503h2.358c.55 0 .983-.472.95-1.03-.395-6.847-4.421-17.083-4.421-17.083" fill="#FDE14C" mask="url(#l)"/><path d="M248.425 8.731c3.786-2.159 5.127-5.175 5.603-7.038a.902.902 0 0 0-1.18-1.077c-8.542 3.05-22.45-1.348-29.43 10.674a1.619 1.619 0 0 1-2.824 0C213.614-.732 199.705 3.665 191.165.616a.902.902 0 0 0-1.18 1.077c.474 1.863 1.816 4.88 5.602 7.04.654.372.785 1.264.25 1.8-3.509 3.503-5.505 8.565-4.89 14.088.86 7.711 6.958 13.96 14.536 14.877 7.032.851 13.324-2.749 16.523-8.392 3.198 5.643 9.49 9.243 16.523 8.392 7.578-.918 13.677-7.166 14.536-14.877.615-5.523-1.38-10.585-4.89-14.089a1.143 1.143 0 0 1 .25-1.8" fill="#FFB53E" mask="url(#l)"/><path d="M207.535 11.32c6.147 0 11.132 5.07 11.132 11.321 0 6.252-4.986 11.321-11.132 11.321-6.148 0-11.132-5.069-11.132-11.32 0-6.253 4.984-11.322 11.132-11.322" fill="#FDE14C" mask="url(#l)"/><path d="M222.736 39.908l2.212-5.999a1.815 1.815 0 0 0-.403-1.895l-.964-.98a2.201 2.201 0 0 0-3.15 0l-.964.98a1.817 1.817 0 0 0-.403 1.895l2.212 6a.775.775 0 0 0 1.46 0" fill="#EBAF4B" mask="url(#l)"/><path d="M209.615 19.692c1.765 0 3.195 1.455 3.195 3.25 0 1.793-1.43 3.247-3.195 3.247-1.764 0-3.194-1.454-3.194-3.248 0-1.794 1.43-3.249 3.194-3.249" fill="#000" mask="url(#l)"/><path d="M236.478 11.32c6.147 0 11.132 5.07 11.132 11.321 0 6.252-4.985 11.321-11.132 11.321-6.148 0-11.133-5.069-11.133-11.32 0-6.253 4.985-11.322 11.133-11.322" fill="#FDE14C" mask="url(#l)"/><path d="M234.67 19.008c1.764 0 3.193 1.454 3.193 3.248 0 1.794-1.429 3.249-3.194 3.249-1.764 0-3.194-1.455-3.194-3.25 0-1.793 1.43-3.247 3.194-3.247" fill="#000" mask="url(#l)"/><path fill="#F9F0E4" mask="url(#l)" d="M335.292 128.26l17.266-19.46.787 58.4-19.494 16.763z"/><path fill="#DD7045" mask="url(#l)" d="M302.05 86.4l21.24-7.2 30.68 29.6-17.705 20.732z"/><path d="M140.415 140.827l-2.388-13.806c-2.26-1.158-4.188-2.919-5.007-5.436-2.358-7.254 8.218-9.737 11.596-6.964 2.748 2.257 4.844 7.503 4.323 10.27-.063.016-1.403-.237-1.466-.21-.554.223-.393.95.55 1.357.093.04.103.172.187.233-.024.02-.04.048-.065.067-.894.658-2.233 2.724-4.917 2.316l5.201 8.922-8.014 3.251z" fill="#B28B67" mask="url(#l)"/><path d="M141.01 121.925c-1.577-1.165-2.743-1.355-3.497-.571-.755.784-.56 1.867.586 3.248l.996 3.835-1.039.422c-2.797-4.007-6.883-5.855-7.245-8.005-.242-1.434-.766-2.915.368-3.748-.404-2.873 3.226-4.832 6.945-5.887 5.578-1.583 8.723-.374 9.27 5.014-1.296.524-3.822.296-5.662 1.963" fill="#191847" mask="url(#l)"/><path d="M129.073 186.296c1.545-2.708 6.54-12.253 8.25-16.964.492-1.353.957-2.667 1.384-3.903 1.27-3.676-5.153-6.665-6.207-3.1-2.63 8.88-5.862 21.547-6.173 22.625-.438 1.512 1.775 3.043 2.746 1.342" fill="#B28B67" mask="url(#l)"/><path d="M130.197 185.712c.246.56.378.984.396 1.27.02.346-.006.856-.08 1.528l-10.666.668c-.334-.914-.204-1.427.389-1.54.593-.111 1.085-.21 1.476-.293l4.822-2.56a.188.188 0 0 1 .255.083l.003.005.366.766c.568.227 1.026.33 1.37.309.282-.017.663-.157 1.144-.42" fill="#E4E4E4" mask="url(#l)"/><path d="M135.054 172.969c7.103-1.29 16.889-9.006 15.664-17.59h-11.532c-1.733.515-.648 2.209-13.389 8.063" fill="#5C63AB" mask="url(#l)"/><path d="M154.291 144.498l-4.342-.501c1.662 9.116 2.57 13.957 2.72 14.521.341 1.268-.89 2.991-1.44 3.93 1.342.814 1.467-1.592 3.157-.532 1.541.967 2.62 2.513 4.64 1.556.248-.118.566-.634.002-1.135-1.405-1.249-3.39-3.377-3.617-4.026-.309-.885-.683-5.49-1.12-13.813zm-25.03-8.408l-6.113 8.704c-1.99 1.328-3.576 2.683-4.753 4.065-.243.437-.452 1.226.95.634 1.398-.592 2.896-1.149 3.256-.718.358.432-.319 1.318.298 1.856.413.359 1.311-1.186 2.697-4.633l6.89-6.026-3.225-3.882zM113.217 187.028c1.545-2.707 6.54-12.253 8.25-16.963.491-1.353.957-2.668 1.384-3.904 1.271-3.676-5.153-6.664-6.207-3.099-2.629 8.881-5.862 21.546-6.173 22.624-.438 1.512 1.775 3.043 2.746 1.342" fill="#B28B67" mask="url(#l)"/><path d="M114.867 185.648c.262.599.402 1.05.421 1.353.023.37-.004.913-.084 1.63-.421.028-4.213.264-11.375.714-.356-.976-.218-1.524.415-1.643a63.308 63.308 0 0 0 1.573-.314l5.144-2.727a.2.2 0 0 1 .272.087l.001.004.392.817c.606.244 1.094.353 1.462.33.3-.018.707-.167 1.219-.447" fill="#E4E4E4" mask="url(#l)"/><path d="M121.846 171.503c6.569-1.29 15.621-9.006 14.488-17.59h-10.667c-1.601.515-.598 2.209-12.383 8.063" fill="#5C63AB" mask="url(#l)"/><path d="M147.545 161.976h-19.129a3.948 3.948 0 0 1-3.936-3.937v-1.655a3.947 3.947 0 0 1 3.936-3.936h19.13a3.948 3.948 0 0 1 3.936 3.936v1.655a3.948 3.948 0 0 1-3.937 3.937" fill="#5C63AB" mask="url(#l)"/><path d="M152.202 133.392c-3.603-1.987-4.208-3.117-6.486-4.397.184.328 0 1.125 0 1.465 0 .733-.78 1.099-3.964 1.099-3.185 0-5.766-.82-5.766-1.832l.002-.013-.155.013-.001.06c-2.409 1.424-4.195 2.17-6.56 4.337-1.898 1.74-2.853 2.089-3 2.932-.255 1.455 2.82 3.933 6.424 3.665-2.325 4.46-5.263 8.422-6.311 12.213-.16.574-.367 1.712.733 1.712h24.037c-.386-3.712-.56-7.092-.845-10.204 4.775-.057 6.279 1.767 6.216-.057-.036-1.078-1.428-9.396-4.324-10.993" fill="#C8E9F1" mask="url(#l)"/><path d="M145.345 120.153l-.026.304.415-.054c-.016-.097-.032-.193-.046-.29.131-.31-.324-.579-.457-.267-.148.348-.112.634.129.931.11.136.335.08.415-.054.168-.28.164-.547.026-.837-.146-.306-.602-.039-.456.267M146.011 118.195c-1.01-.259-2.253.492-2.247 1.606.002.34.53.341.528 0-.004-.773.908-1.268 1.578-1.096.33.085.471-.425.141-.51M147.852 122.121l.133.81c-.107.081-.001.264.106.181.474-.362.377-.989-.183-1.195-.128-.047-.183.157-.056.204M147.139 119.238l.029.194.442-.116-.083-.332-.451.188.16.351c.15-.062.3-.125.451-.186a2.299 2.299 0 0 0-.064-.075c-.221-.257-.594.118-.373.374l.064.074c.147.172.462.035.451-.187a1.004 1.004 0 0 0-.315-.725c-.169-.17-.438-.036-.452.186-.017.29.063.481.239.705.117.152.41.07.441-.116a.894.894 0 0 0-.083-.602c-.146-.307-.602-.039-.456.267M147.68 117.629a2.77 2.77 0 0 0-1.316-.094c-.335.052-.194.56.139.51a2.18 2.18 0 0 1 1.036.094c.325.104.464-.406.141-.51" fill="#191847" mask="url(#l)"/></g></g></svg>