<?xml version="1.0" encoding="UTF-8"?>
<svg width="160px" height="110px" viewBox="0 0 160 110" version="1.1" xmlns="http://www.w3.org/2000/svg" xmlns:xlink="http://www.w3.org/1999/xlink">
    <!-- Generator: Sketch 52.6 (67491) - http://www.bohemiancoding.com/sketch -->
    <title>a1-scooter</title>
    <desc>Created with Sketch.</desc>
    <defs>
        <polygon id="path-1" points="0.1305 0.2021 16.4225 0.2021 16.4225 16 0.1305 16"></polygon>
        <polygon id="path-3" points="0 0.243754274 80 0.243754274 80 18.6052418 0 18.6052418"></polygon>
        <polygon id="path-5" points="0.1311 0.2021 16.4231 0.2021 16.4231 16 0.1311 16"></polygon>
        <polygon id="path-7" points="0 0.243754274 80 0.243754274 80 18.6052418 0 18.6052418"></polygon>
    </defs>
    <g id="a1-scooter" stroke="none" stroke-width="1" fill="none" fill-rule="evenodd">
        <g id="Group-35">
            <g id="Group-3" transform="translate(8.000000, 94.000000)">
                <mask id="mask-2" fill="white">
                    <use xlink:href="#path-1"></use>
                </mask>
                <g id="Clip-2"></g>
                <path d="M8.2765,0.2021 C3.7775,0.2021 0.1305,3.7381 0.1305,8.1001 C0.1305,12.4641 3.7775,16.0001 8.2765,16.0001 C12.7755,16.0001 16.4225,12.4641 16.4225,8.1001 C16.4225,3.7381 12.7755,0.2021 8.2765,0.2021 M8.2765,3.7971 C10.7235,3.7971 12.7155,5.7271 12.7155,8.1001 C12.7155,10.4741 10.7235,12.4051 8.2765,12.4051 C5.8295,12.4051 3.8385,10.4741 3.8385,8.1001 C3.8385,5.7271 5.8295,3.7971 8.2765,3.7971" id="Fill-1" fill="#727070" mask="url(#mask-2)"></path>
            </g>
            <path d="M62.0744,92.6221 C57.5754,92.6221 53.9284,96.1581 53.9284,100.5201 C53.9284,104.8841 57.5754,108.4201 62.0744,108.4201 C66.5724,108.4201 70.2204,104.8841 70.2204,100.5201 C70.2204,96.1581 66.5724,92.6221 62.0744,92.6221 M62.0744,96.2171 C64.5214,96.2171 66.5124,98.1471 66.5124,100.5201 C66.5124,102.8941 64.5214,104.8251 62.0744,104.8251 C59.6264,104.8251 57.6364,102.8941 57.6364,100.5201 C57.6364,98.1471 59.6264,96.2171 62.0744,96.2171" id="Fill-4" fill="#727070"></path>
            <path d="M65.7912,86.957 L64.0792,87.643 C63.3852,87.921 62.6962,87.135 62.5532,85.901 L55.1002,28.925 C54.9232,27.544 55.4132,26.17 56.1942,25.857 L57.5582,25.311 C58.3392,24.998 59.1152,25.865 59.2922,27.246 L66.7562,84.313 C66.8952,85.513 66.4662,86.686 65.7912,86.957" id="Fill-6" fill="#FFB53E"></path>
            <path d="M50.7687,21.4004 L66.4047,28.5184 C67.7667,29.1384 68.2547,30.6634 67.4937,31.9224 L67.0067,32.7284 C66.2457,33.9874 64.5247,34.5044 63.1617,33.8854 L47.5267,26.7664 C46.1637,26.1464 45.6747,24.6224 46.4367,23.3624 L46.9227,22.5574 C47.6847,21.2974 49.4067,20.7804 50.7687,21.4004" id="Fill-8" fill="#FFB53E"></path>
            <g id="Group-12" transform="translate(0.000000, 84.000000)">
                <mask id="mask-4" fill="white">
                    <use xlink:href="#path-3"></use>
                </mask>
                <g id="Clip-11"></g>
                <path d="M75.4025,14.4775 L5.4885,18.5965 C2.8015,18.7545 0.4695,16.7515 0.3065,14.1465 L0.0085,9.3975 C-0.1545,6.7915 1.9105,4.5305 4.5975,4.3725 L74.5105,0.2525 C77.1985,0.0945 79.5305,2.0965 79.6935,4.7025 L79.9915,9.4525 C80.1545,12.0575 78.0895,14.3195 75.4025,14.4775" id="Fill-10" fill="#FACD43" mask="url(#mask-4)"></path>
            </g>
            <path d="M33.175,13.8125 C32.108,12.5965 31.385,11.1085 31.506,9.4395 C31.854,4.6325 38.754,5.6905 40.097,8.1165 C41.439,10.5425 41.279,16.6975 39.544,17.1305 C38.853,17.3035 37.379,16.8795 35.879,16.0025 L36.821,22.4615 L31.261,22.4615 L33.175,13.8125 Z" id="Fill-13" fill="#915B3C"></path>
            <path d="M37.9006,5.4736 C37.1406,5.2486 36.0386,5.1726 35.5746,5.2246 C35.8376,4.6116 35.9426,3.9286 35.8576,3.2636 C35.7746,2.6176 35.4766,2.0676 35.2016,1.4906 C35.0746,1.2246 34.9306,0.9596 34.7156,0.7566 C34.4976,0.5496 34.2206,0.4126 33.9306,0.3476 C33.6336,0.2816 33.3236,0.2866 33.0266,0.3476 C32.8946,0.3736 32.7766,0.4326 32.6476,0.4646 C32.5156,0.4976 32.4526,0.4176 32.3556,0.3376 C32.1256,0.1436 31.7866,0.0476 31.4946,0.0136 C31.1666,-0.0254 30.8256,0.0226 30.5126,0.1266 C30.2096,0.2286 29.9166,0.3946 29.6966,0.6346 C29.5976,0.7426 29.5086,0.8646 29.4516,0.9986 C29.4276,1.0536 29.4236,1.0866 29.3676,1.1076 C29.3146,1.1256 29.2536,1.1256 29.1986,1.1446 C28.6736,1.3166 28.2246,1.7096 27.9806,2.2146 C27.8376,2.5086 27.7706,3.0286 27.7896,3.6096 C27.8076,4.1906 28.3486,5.7066 28.8546,6.2606 C29.3066,6.7536 29.9706,7.0796 30.6126,7.2226 C30.1866,7.6946 29.9036,8.2846 29.6936,8.8826 C29.4666,9.5346 29.3256,10.2106 29.2736,10.8996 C29.2246,11.5546 29.2196,12.2466 29.3786,12.8876 C29.5266,13.4876 29.8426,13.9796 30.3716,14.2906 C30.6136,14.4336 30.8746,14.5406 31.1366,14.6396 C31.3946,14.7366 31.6536,14.8296 31.9236,14.8836 C32.4366,14.9876 33.0266,14.9686 33.4216,14.5746 C33.5636,14.4316 33.7196,14.2526 33.8236,14.0776 C33.8606,14.0156 33.8826,13.9746 33.8386,13.9136 C33.7836,13.8406 33.6956,13.7846 33.6266,13.7266 C33.2286,13.4006 32.9826,12.9636 32.9206,12.4456 C32.8576,11.9186 33.0036,11.2406 33.5306,11.0106 C34.1816,10.7266 34.8986,11.0516 35.4776,11.3556 C35.7236,10.5136 36.2286,9.7556 37.0206,9.3696 C37.8966,8.9426 38.9016,8.8926 39.8016,8.5256 C40.0366,8.4306 40.2756,8.3226 40.4486,8.1266 C40.5206,8.0456 40.6046,7.9406 40.6336,7.8326 C40.6716,7.6916 40.5776,7.5736 40.5046,7.4626 C40.1206,6.8786 38.6606,5.6986 37.9006,5.4736" id="Fill-15" fill="#191847"></path>
            <polygon id="Fill-17" fill="#784931" points="29.8713 42.0967 47.0833 70.0007 59.9873 93.5917 62.7673 93.5917 41.1453 42.0967"></polygon>
            <path d="M58.2883,92.502 C58.0293,93.173 57.8993,93.675 57.8993,94.008 C57.8993,94.413 57.9693,95.004 58.1083,95.781 L71.1733,95.781 C71.5133,94.693 71.3163,94.106 70.5853,94.019 C69.8533,93.932 69.2463,93.854 68.7633,93.783 L62.6893,91.158 C62.5733,91.108 62.4363,91.159 62.3843,91.273 C62.3833,91.274 62.3823,91.276 62.3823,91.278 L61.9913,92.196 C61.3133,92.503 60.7643,92.655 60.3403,92.655 C59.9963,92.655 59.5213,92.522 58.9153,92.252 C58.6833,92.148 58.4073,92.247 58.3013,92.473 C58.2963,92.482 58.2923,92.492 58.2883,92.502" id="Fill-19" fill="#FFFFFF"></path>
            <path d="M56.4045,89.8135 L61.7635,88.2415 C59.4165,81.4335 56.5375,73.9425 53.1295,65.7665 C49.7205,57.5905 46.0605,49.7005 42.1475,42.0965 L27.0085,42.0965 C31.3585,51.7155 35.9695,60.4555 40.8425,68.3155 C45.7165,76.1765 50.9025,83.3425 56.4045,89.8135" id="Fill-21" fill="#DD7045"></path>
            <path d="M28.6613,42.1992 C27.2643,52.0372 24.4223,64.6312 24.1353,65.0232 C23.9433,65.2852 16.9023,67.7452 3.0113,72.4032 L3.6663,74.7662 C20.2983,72.0682 29.0483,70.0652 29.9173,68.7582 C31.2203,66.7972 37.5933,51.3872 39.9813,41.9522 L28.6613,42.1992 Z" id="Fill-23" fill="#915B3C"></path>
            <path d="M7.882,70.2422 L9.028,74.0462 C21.532,74.8362 29.162,73.9022 31.915,71.2452 C34.669,68.5892 37.651,58.8182 40.861,41.9322 L26.429,42.2472 C24.467,56.0592 23.358,63.2572 23.102,63.8412 C22.846,64.4252 17.773,66.5582 7.882,70.2422" id="Fill-25" fill="#DD7045"></path>
            <path d="M3.673,71.3984 C2.944,71.2834 2.41,71.2584 2.073,71.3234 C1.664,71.4034 1.08,71.5854 0.321,71.8694 C0.416,72.3304 1.269,76.4714 2.879,84.2934 C4.046,84.4034 4.602,84.1014 4.546,83.3894 C4.49,82.6764 4.451,82.0834 4.427,81.6094 L5.894,75.3214 C5.922,75.2004 5.843,75.0804 5.719,75.0524 C5.716,75.0514 5.714,75.0514 5.712,75.0514 L4.707,74.8594 C4.265,74.2764 4.002,73.7824 3.919,73.3794 C3.852,73.0524 3.896,72.5754 4.049,71.9454 C4.109,71.7044 3.954,71.4614 3.705,71.4054 C3.694,71.4024 3.684,71.4004 3.673,71.3984" id="Fill-27" fill="#FFFFFF"></path>
            <path d="M48.715,28.0947 L52.434,26.8917 C53.941,27.7067 54.945,27.8857 55.447,27.4267 C55.978,27.2197 53.861,26.3897 54.706,25.8367 C55.449,25.3517 58.444,24.5937 58.499,24.2307 C58.612,23.4747 57.187,22.8257 56.205,22.7597 C54.371,22.6347 53.318,22.9947 51.09,24.2637 C49.925,24.9277 48.46,25.4387 46.694,25.7977 L48.715,28.0947 Z M56.861,34.4137 L60.579,33.2107 C62.087,34.0267 63.092,34.2047 63.593,33.7457 C64.123,33.5387 62.006,32.7087 62.853,32.1567 C63.596,31.6707 66.591,30.9127 66.646,30.5497 C66.759,29.7937 65.333,29.1457 64.352,29.0787 C62.518,28.9537 61.463,29.3147 59.236,30.5827 C58.071,31.2467 56.606,31.7577 54.84,32.1167 L56.861,34.4137 Z" id="Fill-29" fill="#915B3C"></path>
            <path d="M37.6857,27.1514 C40.5007,27.1234 44.2567,26.5464 48.2637,24.0804 L49.8377,27.4824 C47.0737,30.1424 43.1877,32.3284 39.7897,32.2354 C37.1117,32.1624 35.7427,29.0214 37.6857,27.1514" id="Fill-31" fill="#FFFDF6"></path>
            <path d="M41.4777,32.6094 C44.4667,33.3324 49.4807,32.4794 56.5177,30.0504 C58.2637,33.5524 59.0707,36.0494 58.9387,37.5414 C52.9017,40.5984 47.7277,41.9624 43.4647,42.0514 C43.5997,44.5054 43.2917,46.8384 42.2577,48.9714 C40.1317,53.3554 27.6807,49.2964 23.4947,50.0944 C20.8737,41.8384 25.9417,38.4834 25.9467,33.2014 C25.9507,27.4164 30.7407,18.5114 31.4457,18.5114 L37.8737,18.5114 C38.2277,22.9294 40.0127,27.7984 41.4777,32.6094" id="Fill-33" fill="#FFFDF6"></path>
        </g>
        <g id="Group-35" transform="translate(80.000000, 0.000000)">
            <g id="Group-3" transform="translate(8.000000, 94.000000)">
                <mask id="mask-6" fill="white">
                    <use xlink:href="#path-5"></use>
                </mask>
                <g id="Clip-2"></g>
                <path d="M8.2771,0.2021 C3.7781,0.2021 0.1311,3.7381 0.1311,8.1001 C0.1311,12.4641 3.7781,16.0001 8.2771,16.0001 C12.7761,16.0001 16.4231,12.4641 16.4231,8.1001 C16.4231,3.7381 12.7761,0.2021 8.2771,0.2021 M8.2771,3.7971 C10.7241,3.7971 12.7151,5.7271 12.7151,8.1001 C12.7151,10.4741 10.7241,12.4051 8.2771,12.4051 C5.8291,12.4051 3.8381,10.4741 3.8381,8.1001 C3.8391,5.7271 5.8291,3.7971 8.2771,3.7971" id="Fill-1" fill="#727070" mask="url(#mask-6)"></path>
            </g>
            <path d="M62.074,92.6221 C57.575,92.6221 53.928,96.1581 53.928,100.5201 C53.928,104.8841 57.575,108.4201 62.074,108.4201 C66.573,108.4201 70.22,104.8841 70.22,100.5201 C70.22,96.1581 66.573,92.6221 62.074,92.6221 M62.074,96.2171 C64.521,96.2171 66.512,98.1471 66.512,100.5201 C66.512,102.8941 64.522,104.8251 62.074,104.8251 C59.627,104.8251 57.636,102.8941 57.636,100.5201 C57.636,98.1471 59.627,96.2171 62.074,96.2171" id="Fill-4" fill="#727070"></path>
            <path d="M65.7918,86.957 L64.0788,87.643 C63.3848,87.921 62.6958,87.135 62.5538,85.901 L55.1008,28.925 C54.9238,27.544 55.4128,26.17 56.1938,25.857 L57.5578,25.311 C58.3388,24.998 59.1148,25.865 59.2928,27.246 L66.7558,84.313 C66.8958,85.513 66.4668,86.686 65.7918,86.957" id="Fill-6" fill="#FFB53E"></path>
            <path d="M50.7693,21.4004 L66.4043,28.5184 C67.7673,29.1384 68.2543,30.6634 67.4933,31.9224 L67.0073,32.7284 C66.2463,33.9874 64.5243,34.5044 63.1613,33.8854 L47.5263,26.7664 C46.1633,26.1464 45.6753,24.6224 46.4363,23.3624 L46.9223,22.5574 C47.6843,21.2974 49.4063,20.7804 50.7693,21.4004" id="Fill-8" fill="#FFB53E"></path>
            <g id="Group-12" transform="translate(0.000000, 84.000000)">
                <mask id="mask-8" fill="white">
                    <use xlink:href="#path-7"></use>
                </mask>
                <g id="Clip-11"></g>
                <path d="M75.4021,14.4775 L5.4891,18.5965 C2.8011,18.7545 0.4691,16.7515 0.3061,14.1465 L0.0081,9.3975 C-0.1549,6.7915 1.9111,4.5305 4.5971,4.3725 L74.5111,0.2525 C77.1981,0.0945 79.5301,2.0965 79.6931,4.7025 L79.9911,9.4525 C80.1541,12.0575 78.0901,14.3195 75.4021,14.4775" id="Fill-10" fill="#FACD43" mask="url(#mask-8)"></path>
            </g>
            <path d="M33.1746,13.8125 C32.1076,12.5965 31.3856,11.1085 31.5056,9.4395 C31.8536,4.6325 38.7546,5.6905 40.0966,8.1165 C41.4396,10.5425 41.2786,16.6975 39.5446,17.1305 C38.8526,17.3035 37.3786,16.8795 35.8786,16.0025 L36.8206,22.4615 L31.2606,22.4615 L33.1746,13.8125 Z" id="Fill-13" fill="#915B3C"></path>
            <path d="M37.9002,5.4736 C37.1412,5.2486 36.0382,5.1726 35.5742,5.2246 C35.8382,4.6116 35.9432,3.9286 35.8572,3.2636 C35.7742,2.6176 35.4762,2.0676 35.2012,1.4906 C35.0742,1.2246 34.9302,0.9596 34.7152,0.7566 C34.4982,0.5496 34.2202,0.4126 33.9302,0.3476 C33.6342,0.2816 33.3242,0.2866 33.0262,0.3476 C32.8952,0.3736 32.7772,0.4326 32.6482,0.4646 C32.5162,0.4976 32.4522,0.4176 32.3562,0.3376 C32.1252,0.1436 31.7862,0.0476 31.4942,0.0136 C31.1662,-0.0254 30.8262,0.0226 30.5132,0.1266 C30.2092,0.2286 29.9162,0.3946 29.6962,0.6346 C29.5982,0.7426 29.5092,0.8646 29.4512,0.9986 C29.4272,1.0536 29.4232,1.0866 29.3672,1.1076 C29.3142,1.1256 29.2532,1.1256 29.1992,1.1446 C28.6732,1.3166 28.2252,1.7096 27.9802,2.2146 C27.8372,2.5086 27.7702,3.0286 27.7892,3.6096 C27.8072,4.1906 28.3482,5.7066 28.8552,6.2606 C29.3072,6.7536 29.9712,7.0796 30.6122,7.2226 C30.1862,7.6946 29.9032,8.2846 29.6942,8.8826 C29.4662,9.5346 29.3262,10.2106 29.2742,10.8996 C29.2242,11.5546 29.2192,12.2466 29.3782,12.8876 C29.5262,13.4876 29.8422,13.9796 30.3722,14.2906 C30.6142,14.4336 30.8752,14.5406 31.1362,14.6396 C31.3952,14.7366 31.6542,14.8296 31.9242,14.8836 C32.4362,14.9876 33.0262,14.9686 33.4212,14.5746 C33.5632,14.4316 33.7192,14.2526 33.8232,14.0776 C33.8602,14.0156 33.8822,13.9746 33.8382,13.9136 C33.7832,13.8406 33.6962,13.7846 33.6262,13.7266 C33.2282,13.4006 32.9822,12.9636 32.9202,12.4456 C32.8572,11.9186 33.0032,11.2406 33.5302,11.0106 C34.1812,10.7266 34.8992,11.0516 35.4772,11.3556 C35.7232,10.5136 36.2282,9.7556 37.0202,9.3696 C37.8962,8.9426 38.9012,8.8926 39.8012,8.5256 C40.0372,8.4306 40.2752,8.3226 40.4482,8.1266 C40.5202,8.0456 40.6052,7.9406 40.6332,7.8326 C40.6712,7.6916 40.5782,7.5736 40.5042,7.4626 C40.1202,6.8786 38.6602,5.6986 37.9002,5.4736" id="Fill-15" fill="#191847"></path>
            <polygon id="Fill-17" fill="#784931" points="29.8709 42.0967 47.0839 70.0007 59.9879 93.5917 62.7669 93.5917 41.1459 42.0967"></polygon>
            <path d="M58.2888,92.502 C58.0288,93.173 57.8998,93.675 57.8998,94.008 C57.8998,94.413 57.9698,95.004 58.1078,95.781 L71.1738,95.781 C71.5128,94.693 71.3168,94.106 70.5858,94.019 C69.8538,93.932 69.2458,93.854 68.7628,93.783 L62.6898,91.158 C62.5728,91.108 62.4358,91.159 62.3848,91.273 L62.3818,91.278 L61.9908,92.196 C61.3138,92.503 60.7638,92.655 60.3408,92.655 C59.9968,92.655 59.5208,92.522 58.9158,92.252 C58.6828,92.148 58.4078,92.247 58.3018,92.473 C58.2968,92.482 58.2928,92.492 58.2888,92.502" id="Fill-19" fill="#FFFFFF"></path>
            <path d="M56.4041,89.8135 L61.7641,88.2415 C59.4161,81.4335 56.5381,73.9425 53.1291,65.7665 C49.7201,57.5905 46.0601,49.7005 42.1481,42.0965 L27.0081,42.0965 C31.3591,51.7155 35.9701,60.4555 40.8421,68.3155 C45.7161,76.1765 50.9031,83.3425 56.4041,89.8135" id="Fill-21" fill="#DD7045"></path>
            <path d="M27.3953,44.2471 C29.8283,53.8821 31.9663,66.6131 31.8503,67.0851 C31.7723,67.3991 26.1873,72.3441 15.0943,81.9161 L16.5953,83.8541 C30.9673,75.0591 38.3073,69.8911 38.6163,68.3511 C39.0793,66.0431 39.1413,49.3681 37.7793,39.7311 L27.3953,44.2471 Z" id="Fill-23" fill="#915B3C"></path>
            <path d="M18.784,78.0703 L21.285,81.1573 C33.158,77.1523 39.865,73.3983 41.408,69.8973 C42.95,66.3953 42.01,56.2223 38.586,39.3803 L25.347,45.1363 C28.763,58.6633 30.463,65.7453 30.446,66.3823 C30.43,67.0183 26.543,70.9153 18.784,78.0703" id="Fill-25" fill="#DD7045"></path>
            <path d="M15.3269,80.7344 C14.6079,80.9044 14.1049,81.0834 13.8179,81.2714 C13.4699,81.5004 12.9979,81.8884 12.4029,82.4394 C12.6659,82.8304 15.0229,86.3394 19.4749,92.9694 C20.5979,92.6304 20.9969,92.1394 20.6769,91.5014 C20.3549,90.8634 20.0939,90.3294 19.8919,89.8994 L18.8679,83.5244 C18.8479,83.4014 18.7289,83.3204 18.6039,83.3414 C18.6009,83.3414 18.5989,83.3424 18.5979,83.3424 L17.5949,83.5474 C16.9649,83.1734 16.5339,82.8164 16.3059,82.4754 C16.1189,82.1984 15.9779,81.7394 15.8829,81.0984 C15.8459,80.8524 15.6109,80.6874 15.3589,80.7284 L15.3269,80.7344 Z" id="Fill-27" fill="#FFFFFF"></path>
            <path d="M48.7146,28.0947 L52.4336,26.8917 C53.9416,27.7067 54.9446,27.8857 55.4466,27.4267 C55.9776,27.2197 53.8606,26.3897 54.7066,25.8367 C55.4496,25.3517 58.4446,24.5937 58.4996,24.2307 C58.6126,23.4747 57.1876,22.8257 56.2056,22.7597 C54.3716,22.6347 53.3176,22.9947 51.0896,24.2637 C49.9256,24.9277 48.4596,25.4387 46.6936,25.7977 L48.7146,28.0947 Z M56.8606,34.4137 L60.5796,33.2107 C62.0866,34.0267 63.0916,34.2047 63.5936,33.7457 C64.1226,33.5387 62.0066,32.7087 62.8526,32.1567 C63.5956,31.6707 66.5906,30.9127 66.6456,30.5497 C66.7586,29.7937 65.3326,29.1457 64.3516,29.0787 C62.5176,28.9537 61.4626,29.3147 59.2356,30.5827 C58.0706,31.2467 56.6066,31.7577 54.8396,32.1167 L56.8606,34.4137 Z" id="Fill-29" fill="#915B3C"></path>
            <path d="M37.6853,27.1514 C40.5013,27.1234 44.2563,26.5464 48.2643,24.0804 L49.8373,27.4824 C47.0743,30.1424 43.1873,32.3284 39.7893,32.2354 C37.1113,32.1624 35.7433,29.0214 37.6853,27.1514" id="Fill-31" fill="#FFFDF6"></path>
            <path d="M41.4773,32.6094 C44.4673,33.3324 49.4803,32.4794 56.5183,30.0504 C58.2633,33.5524 59.0713,36.0494 58.9393,37.5414 C52.9023,40.5984 47.7273,41.9624 43.4643,42.0514 C43.6003,44.5054 43.2913,46.8384 42.2573,48.9714 C40.1313,53.3554 27.6813,49.2964 23.4953,50.0944 C20.8733,41.8384 25.9423,38.4834 25.9463,33.2014 C25.9513,27.4164 30.7413,18.5114 31.4463,18.5114 L37.8733,18.5114 C38.2273,22.9294 40.0123,27.7984 41.4773,32.6094" id="Fill-33" fill="#FFFDF6"></path>
        </g>
    </g>
</svg>