<?xml version="1.0" encoding="UTF-8"?>
<svg width="154px" height="108px" viewBox="0 0 154 108" version="1.1" xmlns="http://www.w3.org/2000/svg" xmlns:xlink="http://www.w3.org/1999/xlink">
    <!-- Generator: Sketch 52.6 (67491) - http://www.bohemiancoding.com/sketch -->
    <title>cassia-zoom copy 2</title>
    <desc>Created with Sketch.</desc>
    <defs>
        <polygon id="path-1" points="0.265299849 0.801999849 76.162 0.801999849 76.162 18.7652002 0.265299849 18.7652002"></polygon>
        <polygon id="path-3" points="0 0.801999849 75.897 0.801999849 75.897 18.7652002 0 18.7652002"></polygon>
    </defs>
    <g id="cassia-zoom-copy-2" stroke="none" stroke-width="1" fill="none" fill-rule="evenodd">
        <g id="Group-34" transform="translate(0.000000, 1.000000)">
            <path d="M15.7072,91.1939 C11.4392,91.1939 7.9792,94.6539 7.9792,98.9219 C7.9792,103.1899 11.4392,106.6499 15.7072,106.6499 C19.9762,106.6499 23.4362,103.1899 23.4362,98.9219 C23.4362,94.6539 19.9762,91.1939 15.7072,91.1939 M15.7072,94.7109 C18.0292,94.7109 19.9182,96.5999 19.9182,98.9219 C19.9182,101.2439 18.0292,103.1329 15.7072,103.1329 C13.3862,103.1329 11.4962,101.2439 11.4962,98.9219 C11.4962,96.5999 13.3862,94.7109 15.7072,94.7109" id="Fill-1" fill="#727070"></path>
            <path d="M59.1554,89.648 C54.8874,89.648 51.4274,93.108 51.4274,97.377 C51.4274,101.644 54.8874,105.104 59.1554,105.104 C63.4244,105.104 66.8844,101.644 66.8844,97.377 C66.8844,93.108 63.4244,89.648 59.1554,89.648 M59.1554,93.165 C61.4774,93.165 63.3674,95.054 63.3674,97.377 C63.3674,99.698 61.4774,101.587 59.1554,101.587 C56.8344,101.587 54.9444,99.698 54.9444,97.377 C54.9444,95.054 56.8344,93.165 59.1554,93.165" id="Fill-3" fill="#727070"></path>
            <path d="M62.6828,84.1051 L61.0578,84.7761 C60.3988,85.0481 59.7458,84.2801 59.6108,83.0731 L52.5388,27.3301 C52.3718,25.9781 52.8358,24.6341 53.5778,24.3291 L54.8708,23.7941 C55.6128,23.4881 56.3488,24.3351 56.5168,25.6871 L63.5978,81.5201 C63.7298,82.6921 63.3228,83.8401 62.6828,84.1051" id="Fill-5" fill="#FFB53E"></path>
            <path d="M48.4308,19.9674 L63.2638,26.9324 C64.5568,27.5384 65.0198,29.0304 64.2968,30.2624 L63.8358,31.0504 C63.1138,32.2824 61.4808,32.7894 60.1868,32.1834 L45.3538,25.2184 C44.0608,24.6124 43.5978,23.1194 44.3208,21.8874 L44.7818,21.1004 C45.5038,19.8674 47.1378,19.3614 48.4308,19.9674" id="Fill-7" fill="#FFB53E"></path>
            <g id="Group-11" transform="translate(0.000000, 80.650000)">
                <mask id="mask-2" fill="white">
                    <use xlink:href="#path-1"></use>
                </mask>
                <g id="Clip-10"></g>
                <path d="M71.8009,14.7266 L5.4729,18.7566 C2.9239,18.9116 0.7109,16.9526 0.5569,14.4036 L0.2739,9.7566 C0.1189,7.2066 2.0779,4.9956 4.6269,4.8396 L70.9549,0.8106 C73.5039,0.6556 75.7169,2.6146 75.8709,5.1636 L76.1539,9.8106 C76.3089,12.3596 74.3499,14.5726 71.8009,14.7266" id="Fill-9" fill="#FACD43" mask="url(#mask-2)"></path>
            </g>
            <path d="M31.7384,13.5133 C30.7254,12.3253 30.0414,10.8673 30.1554,9.2363 C30.4854,4.5333 37.0324,5.5673 38.3054,7.9413 C39.5794,10.3153 39.4274,16.3353 37.7814,16.7603 C37.1254,16.9293 35.7264,16.5153 34.3034,15.6573 L35.1974,21.9763 L29.9234,21.9763 L31.7384,13.5133 Z" id="Fill-12" fill="#915B3C"></path>
            <path d="M36.2218,5.3561 C35.5008,5.1361 34.4548,5.0611 34.0148,5.1121 C34.2658,4.5121 34.3648,3.8441 34.2848,3.1931 C34.2048,2.5611 33.9228,2.0231 33.6608,1.4591 C33.5408,1.1991 33.4048,0.9401 33.2008,0.7411 C32.9928,0.5391 32.7318,0.4051 32.4558,0.3401 C32.1738,0.2761 31.8798,0.2811 31.5978,0.3401 C31.4728,0.3671 31.3618,0.4231 31.2398,0.4561 C31.1138,0.4881 31.0528,0.4091 30.9618,0.3311 C30.7428,0.1401 30.4208,0.0461 30.1438,0.0131 C29.8328,-0.0249 29.5098,0.0221 29.2128,0.1251 C28.9248,0.2241 28.6478,0.3861 28.4388,0.6221 C28.3458,0.7261 28.2608,0.8451 28.2058,0.9771 C28.1838,1.0321 28.1798,1.0631 28.1258,1.0841 C28.0758,1.1021 28.0178,1.1021 27.9658,1.1201 C27.4688,1.2891 27.0428,1.6731 26.8108,2.1671 C26.6758,2.4561 26.6118,2.9621 26.6288,3.5321 C26.6468,4.1001 27.1598,5.5841 27.6408,6.1261 C28.0698,6.6081 28.6998,6.9271 29.3078,7.0671 C28.9038,7.5281 28.6348,8.1051 28.4368,8.6911 C28.2208,9.3281 28.0868,9.9901 28.0368,10.6651 C27.9908,11.3051 27.9868,11.9821 28.1368,12.6091 C28.2778,13.1961 28.5768,13.6761 29.0788,13.9821 C29.3088,14.1221 29.5568,14.2271 29.8048,14.3231 C30.0498,14.4181 30.2958,14.5091 30.5528,14.5621 C31.0378,14.6631 31.5978,14.6451 31.9718,14.2581 C32.1078,14.1201 32.2548,13.9441 32.3538,13.7741 C32.3888,13.7121 32.4098,13.6721 32.3678,13.6131 C32.3168,13.5421 32.2328,13.4861 32.1668,13.4301 C31.7888,13.1101 31.5558,12.6831 31.4968,12.1761 C31.4378,11.6621 31.5758,10.9971 32.0758,10.7721 C32.6938,10.4951 33.3738,10.8131 33.9228,11.1101 C34.1568,10.2871 34.6358,9.5441 35.3868,9.1671 C36.2178,8.7491 37.1718,8.7001 38.0258,8.3411 C38.2478,8.2481 38.4748,8.1421 38.6388,7.9521 C38.7068,7.8721 38.7878,7.7691 38.8158,7.6641 C38.8508,7.5251 38.7618,7.4101 38.6928,7.3011 C38.3268,6.7301 36.9428,5.5761 36.2218,5.3561" id="Fill-14" fill="#191847"></path>
            <polygon id="Fill-16" fill="#784931" points="28.6047 40.2164 44.9337 67.5164 57.1767 90.5964 59.8137 90.5964 39.3007 40.2164"></polygon>
            <path d="M55.5646,89.5309 C55.3186,90.1869 55.1956,90.6779 55.1956,91.0049 C55.1956,91.4009 55.2616,91.9789 55.3936,92.7389 L67.7886,92.7389 C68.1106,91.6749 67.9246,91.0989 67.2306,91.0139 C66.5366,90.9289 65.9606,90.8529 65.5016,90.7849 L59.7406,88.2169 C59.6286,88.1669 59.4996,88.2169 59.4506,88.3279 L59.4476,88.3339 L59.0776,89.2309 C58.4346,89.5309 57.9126,89.6809 57.5106,89.6809 C57.1846,89.6809 56.7336,89.5499 56.1596,89.2859 C55.9386,89.1839 55.6776,89.2819 55.5766,89.5029 C55.5726,89.5109 55.5676,89.5209 55.5646,89.5309" id="Fill-18" fill="#FFFFFF"></path>
            <path d="M53.7765,86.901 L58.8615,85.363 C56.6335,78.702 53.9035,71.373 50.6705,63.374 C47.4355,55.375 43.9635,47.656 40.2525,40.216 L25.8885,40.216 C30.0155,49.627 34.3905,58.177 39.0135,65.868 C43.6365,73.559 48.5575,80.57 53.7765,86.901" id="Fill-20" fill="#DD7045"></path>
            <path d="M27.5314,40.2164 C25.9904,49.8104 23.0174,62.0674 22.7374,62.4454 C22.5504,62.6964 15.8174,64.9524 2.5384,69.2134 L3.1084,71.5384 C18.9424,69.2534 27.2864,67.4814 28.1384,66.2214 C29.4174,64.3304 35.8014,49.3944 38.2734,40.2164 L27.5314,40.2164 Z" id="Fill-22" fill="#915B3C"></path>
            <path d="M7.2062,67.2027 L8.2092,70.9477 C20.0532,71.9867 27.3102,71.2357 29.9792,68.6967 C32.6492,66.1567 35.6922,56.6637 39.1082,40.2167 L25.4132,40.2167 C23.2492,53.6837 22.0392,60.7007 21.7832,61.2657 C21.5272,61.8317 16.6682,63.8097 7.2062,67.2027" id="Fill-24" fill="#DD7045"></path>
            <path d="M3.1886,68.2447 C2.5006,68.1157 1.9956,68.0807 1.6736,68.1377 C1.2836,68.2057 0.7256,68.3717 0.0006,68.6337 C0.0806,69.0867 0.7966,73.1547 2.1526,80.8407 C3.2566,80.9727 3.7916,80.6887 3.7536,79.9907 C3.7166,79.2927 3.6926,78.7117 3.6796,78.2477 L5.2096,72.1287 C5.2386,72.0107 5.1676,71.8907 5.0486,71.8617 C5.0466,71.8617 5.0446,71.8607 5.0426,71.8607 L4.0936,71.6517 C3.6876,71.0707 3.4496,70.5837 3.3786,70.1877 C3.3226,69.8657 3.3746,69.3997 3.5346,68.7877 C3.5946,68.5527 3.4546,68.3117 3.2196,68.2517 C3.2096,68.2487 3.1996,68.2467 3.1886,68.2447" id="Fill-26" fill="#FFFFFF"></path>
            <path d="M46.4816,26.5182 L50.0096,25.3402 C51.4396,26.1382 52.3926,26.3122 52.8686,25.8642 C53.3716,25.6612 51.3636,24.8492 52.1666,24.3092 C52.8716,23.8332 55.7116,23.0922 55.7646,22.7372 C55.8726,21.9972 54.5196,21.3632 53.5876,21.2972 C51.8486,21.1762 50.8476,21.5282 48.7346,22.7692 C47.6296,23.4182 46.2406,23.9182 44.5646,24.2702 L46.4816,26.5182 Z M54.2106,32.7012 L57.7376,31.5232 C59.1686,32.3212 60.1216,32.4952 60.5966,32.0462 C61.0996,31.8432 59.0906,31.0322 59.8936,30.4912 C60.5996,30.0162 63.4406,29.2752 63.4926,28.9182 C63.6006,28.1792 62.2476,27.5452 61.3166,27.4802 C59.5766,27.3592 58.5766,27.7102 56.4626,28.9522 C55.3586,29.6012 53.9676,30.1012 52.2926,30.4532 L54.2106,32.7012 Z" id="Fill-28" fill="#915B3C"></path>
            <path d="M36.0177,25.5943 C38.6897,25.5673 42.2517,25.0023 46.0537,22.5893 L47.5467,25.9183 C44.9247,28.5213 41.2377,30.6583 38.0137,30.5693 C35.4727,30.4963 34.1747,27.4243 36.0177,25.5943" id="Fill-30" fill="#FFFDF6"></path>
            <path d="M39.6154,30.9342 C42.4524,31.6412 47.2084,30.8072 53.8854,28.4312 C55.5414,31.8582 56.3064,34.3002 56.1814,35.7592 C50.4544,38.7502 45.5454,40.0842 41.5014,40.1722 C41.6294,42.5732 41.3374,44.8562 40.3554,46.9422 C38.3394,51.2322 26.5264,47.2592 22.5544,48.0412 C20.0674,39.9642 24.8774,36.6812 24.8814,31.5132 C24.8854,25.8532 29.4294,17.1412 30.0974,17.1412 L36.1954,17.1412 C36.5324,21.4642 38.2254,26.2282 39.6154,30.9342" id="Fill-32" fill="#FFFDF6"></path>
        </g>
        <g id="Group-34" transform="translate(78.000000, 1.000000)">
            <path d="M15.4418,91.1939 C11.1738,91.1939 7.7138,94.6539 7.7138,98.9219 C7.7138,103.1899 11.1738,106.6499 15.4418,106.6499 C19.7108,106.6499 23.1708,103.1899 23.1708,98.9219 C23.1708,94.6539 19.7108,91.1939 15.4418,91.1939 M15.4418,94.7109 C17.7638,94.7109 19.6528,96.5999 19.6528,98.9219 C19.6528,101.2439 17.7638,103.1329 15.4418,103.1329 C13.1208,103.1329 11.2308,101.2439 11.2308,98.9219 C11.2308,96.5999 13.1208,94.7109 15.4418,94.7109" id="Fill-1" fill="#727070"></path>
            <path d="M58.89,89.648 C54.622,89.648 51.162,93.108 51.162,97.377 C51.162,101.644 54.622,105.104 58.89,105.104 C63.159,105.104 66.619,101.644 66.619,97.377 C66.619,93.108 63.159,89.648 58.89,89.648 M58.89,93.165 C61.212,93.165 63.102,95.054 63.102,97.377 C63.102,99.698 61.212,101.587 58.89,101.587 C56.569,101.587 54.679,99.698 54.679,97.377 C54.679,95.054 56.569,93.165 58.89,93.165" id="Fill-3" fill="#727070"></path>
            <path d="M62.4173,84.1051 L60.7923,84.7761 C60.1333,85.0481 59.4803,84.2801 59.3453,83.0731 L52.2733,27.3301 C52.1063,25.9781 52.5703,24.6341 53.3123,24.3291 L54.6053,23.7941 C55.3473,23.4881 56.0833,24.3351 56.2513,25.6871 L63.3323,81.5201 C63.4643,82.6921 63.0573,83.8401 62.4173,84.1051" id="Fill-5" fill="#FFB53E"></path>
            <path d="M48.1654,19.9674 L62.9984,26.9324 C64.2914,27.5384 64.7544,29.0304 64.0314,30.2624 L63.5704,31.0504 C62.8484,32.2824 61.2154,32.7894 59.9214,32.1834 L45.0884,25.2184 C43.7954,24.6124 43.3324,23.1194 44.0554,21.8874 L44.5164,21.1004 C45.2384,19.8674 46.8724,19.3614 48.1654,19.9674" id="Fill-7" fill="#FFB53E"></path>
            <g id="Group-11" transform="translate(0.000000, 80.650000)">
                <mask id="mask-4" fill="white">
                    <use xlink:href="#path-3"></use>
                </mask>
                <g id="Clip-10"></g>
                <path d="M71.5355,14.7266 L5.2075,18.7566 C2.6585,18.9116 0.4455,16.9526 0.2915,14.4036 L0.0085,9.7566 C-0.1465,7.2066 1.8125,4.9956 4.3615,4.8396 L70.6895,0.8106 C73.2385,0.6556 75.4515,2.6146 75.6055,5.1636 L75.8885,9.8106 C76.0435,12.3596 74.0845,14.5726 71.5355,14.7266" id="Fill-9" fill="#FACD43" mask="url(#mask-4)"></path>
            </g>
            <path d="M31.473,13.5133 C30.46,12.3253 29.776,10.8673 29.89,9.2363 C30.22,4.5333 36.767,5.5673 38.04,7.9413 C39.314,10.3153 39.162,16.3353 37.516,16.7603 C36.86,16.9293 35.461,16.5153 34.038,15.6573 L34.932,21.9763 L29.658,21.9763 L31.473,13.5133 Z" id="Fill-12" fill="#915B3C"></path>
            <path d="M35.9564,5.3561 C35.2354,5.1361 34.1894,5.0611 33.7494,5.1121 C34.0004,4.5121 34.0994,3.8441 34.0194,3.1931 C33.9394,2.5611 33.6574,2.0231 33.3954,1.4591 C33.2754,1.1991 33.1394,0.9401 32.9354,0.7411 C32.7274,0.5391 32.4664,0.4051 32.1904,0.3401 C31.9084,0.2761 31.6144,0.2811 31.3324,0.3401 C31.2074,0.3671 31.0964,0.4231 30.9744,0.4561 C30.8484,0.4881 30.7874,0.4091 30.6964,0.3311 C30.4774,0.1401 30.1554,0.0461 29.8784,0.0131 C29.5674,-0.0249 29.2444,0.0221 28.9474,0.1251 C28.6594,0.2241 28.3824,0.3861 28.1734,0.6221 C28.0804,0.7261 27.9954,0.8451 27.9404,0.9771 C27.9184,1.0321 27.9144,1.0631 27.8604,1.0841 C27.8104,1.1021 27.7524,1.1021 27.7004,1.1201 C27.2034,1.2891 26.7774,1.6731 26.5454,2.1671 C26.4104,2.4561 26.3464,2.9621 26.3634,3.5321 C26.3814,4.1001 26.8944,5.5841 27.3754,6.1261 C27.8044,6.6081 28.4344,6.9271 29.0424,7.0671 C28.6384,7.5281 28.3694,8.1051 28.1714,8.6911 C27.9554,9.3281 27.8214,9.9901 27.7714,10.6651 C27.7254,11.3051 27.7214,11.9821 27.8714,12.6091 C28.0124,13.1961 28.3114,13.6761 28.8134,13.9821 C29.0434,14.1221 29.2914,14.2271 29.5394,14.3231 C29.7844,14.4181 30.0304,14.5091 30.2874,14.5621 C30.7724,14.6631 31.3324,14.6451 31.7064,14.2581 C31.8424,14.1201 31.9894,13.9441 32.0884,13.7741 C32.1234,13.7121 32.1444,13.6721 32.1024,13.6131 C32.0514,13.5421 31.9674,13.4861 31.9014,13.4301 C31.5234,13.1101 31.2904,12.6831 31.2314,12.1761 C31.1724,11.6621 31.3104,10.9971 31.8104,10.7721 C32.4284,10.4951 33.1084,10.8131 33.6574,11.1101 C33.8914,10.2871 34.3704,9.5441 35.1214,9.1671 C35.9524,8.7491 36.9064,8.7001 37.7604,8.3411 C37.9824,8.2481 38.2094,8.1421 38.3734,7.9521 C38.4414,7.8721 38.5224,7.7691 38.5504,7.6641 C38.5854,7.5251 38.4964,7.4101 38.4274,7.3011 C38.0614,6.7301 36.6774,5.5761 35.9564,5.3561" id="Fill-14" fill="#191847"></path>
            <polygon id="Fill-16" fill="#784931" points="28.3392 40.2164 44.6682 67.5164 56.9112 90.5964 59.5482 90.5964 39.0352 40.2164"></polygon>
            <path d="M55.2992,89.5309 C55.0532,90.1869 54.9302,90.6779 54.9302,91.0049 C54.9302,91.4009 54.9962,91.9789 55.1282,92.7389 L67.5232,92.7389 C67.8452,91.6749 67.6592,91.0989 66.9652,91.0139 C66.2712,90.9289 65.6952,90.8529 65.2362,90.7849 L59.4752,88.2169 C59.3632,88.1669 59.2342,88.2169 59.1852,88.3279 L59.1822,88.3339 L58.8122,89.2309 C58.1692,89.5309 57.6472,89.6809 57.2452,89.6809 C56.9192,89.6809 56.4682,89.5499 55.8942,89.2859 C55.6732,89.1839 55.4122,89.2819 55.3112,89.5029 C55.3072,89.5109 55.3022,89.5209 55.2992,89.5309" id="Fill-18" fill="#FFFFFF"></path>
            <path d="M53.5111,86.901 L58.5961,85.363 C56.3681,78.702 53.6381,71.373 50.4051,63.374 C47.1701,55.375 43.6981,47.656 39.9871,40.216 L25.6231,40.216 C29.7501,49.627 34.1251,58.177 38.7481,65.868 C43.3711,73.559 48.2921,80.57 53.5111,86.901" id="Fill-20" fill="#DD7045"></path>
            <path d="M24.0541,43.3375 C27.3011,52.4955 30.5691,64.6765 30.5031,65.1435 C30.4601,65.4545 25.6331,70.6615 16.0231,80.7665 L17.6371,82.5335 C30.4381,72.9385 36.9101,67.3825 37.0541,65.8665 C37.2701,63.5955 35.7111,47.4275 33.4821,38.1875 L24.0541,43.3375 Z" id="Fill-22" fill="#915B3C"></path>
            <path d="M19.1546,76.7652 L21.8316,79.5702 C32.7226,74.8042 38.7306,70.6662 39.8566,67.1572 C40.9816,63.6482 39.1006,53.8582 34.2146,37.7862 L22.1946,44.3532 C26.7526,57.2092 29.0536,63.9482 29.1006,64.5662 C29.1476,65.1852 25.8326,69.2502 19.1546,76.7652" id="Fill-24" fill="#DD7045"></path>
            <path d="M16.1283,79.6041 C15.4623,79.8231 15.0023,80.0331 14.7473,80.2371 C14.4383,80.4841 14.0273,80.8971 13.5173,81.4751 C13.8043,81.8331 16.3843,85.0601 21.2573,91.1551 C22.2903,90.7421 22.6233,90.2381 22.2563,89.6421 C21.8893,89.0471 21.5893,88.5491 21.3563,88.1481 L19.7643,82.0441 C19.7323,81.9271 19.6123,81.8571 19.4953,81.8871 C19.4933,81.8881 19.4913,81.8881 19.4893,81.8891 L18.5573,82.1611 C17.9213,81.8461 17.4783,81.5331 17.2273,81.2181 C17.0243,80.9631 16.8453,80.5301 16.6913,79.9161 C16.6333,79.6801 16.3953,79.5371 16.1583,79.5961 C16.1493,79.5981 16.1393,79.6011 16.1283,79.6041" id="Fill-26" fill="#FFFFFF"></path>
            <path d="M46.2162,26.5182 L49.7442,25.3402 C51.1742,26.1382 52.1272,26.3122 52.6032,25.8642 C53.1062,25.6612 51.0982,24.8492 51.9012,24.3092 C52.6062,23.8332 55.4462,23.0922 55.4992,22.7372 C55.6072,21.9972 54.2542,21.3632 53.3222,21.2972 C51.5832,21.1762 50.5822,21.5282 48.4692,22.7692 C47.3642,23.4182 45.9752,23.9182 44.2992,24.2702 L46.2162,26.5182 Z M53.9452,32.7012 L57.4722,31.5232 C58.9032,32.3212 59.8562,32.4952 60.3312,32.0462 C60.8342,31.8432 58.8252,31.0322 59.6282,30.4912 C60.3342,30.0162 63.1752,29.2752 63.2272,28.9182 C63.3352,28.1792 61.9822,27.5452 61.0512,27.4802 C59.3112,27.3592 58.3112,27.7102 56.1972,28.9522 C55.0932,29.6012 53.7022,30.1012 52.0272,30.4532 L53.9452,32.7012 Z" id="Fill-28" fill="#915B3C"></path>
            <path d="M35.7523,25.5943 C38.4243,25.5673 41.9863,25.0023 45.7883,22.5893 L47.2813,25.9183 C44.6593,28.5213 40.9723,30.6583 37.7483,30.5693 C35.2073,30.4963 33.9093,27.4243 35.7523,25.5943" id="Fill-30" fill="#FFFDF6"></path>
            <path d="M39.35,30.9342 C42.187,31.6412 46.943,30.8072 53.62,28.4312 C55.276,31.8582 56.041,34.3002 55.916,35.7592 C50.189,38.7502 45.28,40.0842 41.236,40.1722 C41.364,42.5732 41.072,44.8562 40.09,46.9422 C38.074,51.2322 26.261,47.2592 22.289,48.0412 C19.802,39.9642 24.612,36.6812 24.616,31.5132 C24.62,25.8532 29.164,17.1412 29.832,17.1412 L35.93,17.1412 C36.267,21.4642 37.96,26.2282 39.35,30.9342" id="Fill-32" fill="#FFFDF6"></path>
        </g>
    </g>
</svg>