<?xml version="1.0" encoding="UTF-8"?>
<svg width="180px" height="150px" viewBox="0 0 180 150" version="1.1" xmlns="http://www.w3.org/2000/svg" xmlns:xlink="http://www.w3.org/1999/xlink">
    <!-- Generator: Sketch 52.6 (67491) - http://www.bohemiancoding.com/sketch -->
    <title>sitdog</title>
    <desc>Created with Sketch.</desc>
    <defs>
        <polygon id="path-1" points="0.626145254 0.173771903 24.3331897 0.173771903 24.3331897 9 0.626145254 9"></polygon>
    </defs>
    <g id="sitdog" stroke="none" stroke-width="1" fill="none" fill-rule="evenodd">
        <g id="Group-82">
            <path d="M44.6314,131.5864 C44.6314,131.5864 44.6824,143.4404 42.1694,144.8834 C38.7184,146.8664 45.1094,146.4364 46.6434,146.3594 C48.1764,146.2824 50.1574,130.9764 50.1574,130.9764 L44.7164,130.9764 L44.6314,131.5864 Z" id="Fill-1" fill="#FFFFFF"></path>
            <path d="M13.4595,103.3959 C12.9295,103.6259 12.6835,104.1839 12.9085,104.6399 C13.0875,105.0029 13.5105,105.1889 13.9415,105.1369 C14.0545,105.1239 14.1675,105.0969 14.2765,105.0499 C14.8065,104.8199 15.0525,104.2629 14.8265,103.8059 C14.7185,103.5869 14.5215,103.4329 14.2855,103.3549 C14.0315,103.2709 13.7345,103.2759 13.4595,103.3959" id="Fill-3" fill="#181818"></path>
            <path d="M2.3638,109.977 C2.3148,109.458 1.7758,109.087 1.1488,109.124 C1.1308,109.125 1.1118,109.123 1.0928,109.125 C0.4418,109.188 -0.0462,109.672 0.0038,110.206 C0.0528,110.74 0.6588,111.514 1.3098,111.451 C1.3608,111.446 1.4088,111.434 1.4568,111.42 C2.0278,111.252 2.4098,110.47 2.3638,109.977" id="Fill-5" fill="#181818"></path>
            <path d="M55.44,124.3588 C55.855,123.5208 56.266,122.6778 56.66,121.8258 C57.064,120.9518 58.082,119.0698 57.84,118.1178 C57.814,118.0088 57.776,117.9238 57.729,117.8598 C57.368,117.3508 56.484,118.0808 55.995,118.5158 C54.844,119.5398 53.706,120.6468 52.511,121.4708 C53.767,121.9788 54.919,122.9218 55.44,124.3588" id="Fill-7" fill="#F6F6F6"></path>
            <path d="M14.1607,105.0502 C14.0597,105.0972 13.9567,105.1232 13.8517,105.1372 C13.4557,105.1892 13.0667,105.0032 12.9017,104.6402 C12.6947,104.1842 12.9217,103.6262 13.4087,103.3962 C13.6627,103.2762 13.9357,103.2712 14.1697,103.3552 C14.3857,103.4332 14.5677,103.5872 14.6677,103.8062 C14.8747,104.2632 14.6477,104.8202 14.1607,105.0502 M3.9717,113.8852 C3.9717,113.8852 5.1777,114.5562 5.6027,114.7352 C6.1317,114.9552 6.7217,115.0322 7.2897,115.0242 C9.7547,114.9862 12.9297,113.4392 15.3017,114.5882 C16.9947,115.4072 16.7567,118.0642 16.8427,119.6772 C16.9577,121.8362 17.0597,124.0232 17.6307,126.1182 C18.1387,127.9812 19.1587,129.6622 19.3027,131.6222 C19.5287,134.6982 18.4817,137.6142 17.8907,140.5842 C17.6627,141.7292 17.5957,142.9342 17.0837,143.9982 C16.6937,144.8102 15.7377,145.5122 15.8117,146.4962 C15.8847,147.4622 18.7787,147.5222 19.3837,147.4242 C19.9997,147.3242 20.9697,146.9422 21.1417,146.2182 C21.7037,143.8802 24.1337,134.2072 24.1337,134.2072 C24.1337,134.2072 26.9377,144.1212 24.8187,146.0982 C23.4407,147.3832 27.5367,146.9042 28.9947,146.6752 C30.4537,146.4462 29.9307,136.5322 29.7427,134.1302 C39.4287,137.4482 50.8717,133.7492 50.8717,133.7492 C50.8717,133.7492 53.3017,142.8382 49.8617,145.5312 C47.1547,147.6512 54.3487,147.4762 55.0217,146.6752 C55.3107,146.3312 55.7247,144.0622 56.0397,141.2792 C56.3617,138.4352 56.2157,135.5682 56.1637,132.7132 C56.1287,130.7432 56.2127,128.8272 56.4837,126.8732 C56.6977,125.3372 56.3987,123.7832 55.5527,122.6052 C55.0737,121.9392 54.4227,121.3932 53.5897,121.0352 C51.2087,120.0162 48.7027,120.8302 46.2977,121.2792 C44.3827,121.6372 42.4807,121.8812 40.5367,121.6482 C37.8857,121.3292 35.0247,120.9012 32.6287,119.6382 C30.4727,118.5012 28.5917,116.8292 27.3307,114.7042 C26.2007,112.7982 25.0537,110.5252 24.4417,108.3822 C23.7137,105.8272 23.0567,103.2212 21.4407,101.0692 C19.8657,98.9692 17.3317,98.5252 15.0407,99.4852 C12.8707,100.3942 11.2557,102.1402 9.5657,103.7312 C8.4527,104.7792 7.2337,105.7152 5.9237,106.4922 C4.6147,107.2682 3.1577,107.7402 1.8657,108.5372 C1.5567,108.7282 1.3207,108.9242 1.1487,109.1242 C1.7757,109.0872 2.3147,109.4582 2.3637,109.9772 C2.4097,110.4702 2.0277,111.2522 1.4567,111.4202 C2.0467,112.0602 2.9677,112.6892 4.0127,113.2662 C4.0537,113.2462 4.1097,113.2522 4.1537,113.2552 C4.2457,113.2612 4.3387,113.2702 4.4307,113.2652 C4.6467,113.2522 4.8617,113.2182 5.0747,113.1782 C5.3837,113.1202 5.6597,112.9642 5.9597,112.8712" id="Fill-9" fill="#FFFFFF"></path>
            <path d="M16.6998,113.1713 C15.3878,112.1473 15.9948,110.1353 16.0908,108.5193 C16.2098,106.5033 16.1938,102.0163 17.5708,100.5173 C17.7268,100.3473 17.8808,100.2313 18.0288,100.1583 C19.1928,99.5973 20.0948,101.8363 20.5628,103.1363 C21.5078,105.7493 25.1748,109.7663 22.1588,112.2543 C21.0298,113.1863 18.8478,114.0833 17.4048,113.5533 C17.1248,113.4493 16.8908,113.3203 16.6998,113.1713" id="Fill-11" fill="#181818"></path>
            <path d="M30.4732,121.7075 C30.8392,122.0845 31.1162,122.5195 31.5362,122.8845 C32.1512,123.4145 32.8882,123.7805 33.6612,123.9995 C34.9922,124.3755 37.3742,124.6895 37.7472,122.8215 C37.8982,122.0645 37.5392,121.1865 36.7322,120.9985 C35.1662,120.6355 33.6712,120.1115 32.2352,119.3795 C30.5672,118.5275 29.1552,120.3495 30.4732,121.7075" id="Fill-13" fill="#181818"></path>
            <path d="M54.7633,124.31 C54.0823,123.974 53.3423,123.831 52.6013,124.054 C51.7703,124.305 50.9643,124.968 50.9443,125.919 C50.8993,128.004 53.4183,127.881 54.7773,127.571 C55.4563,127.415 55.7693,126.776 55.8443,126.142 C55.8583,126.029 55.8713,125.915 55.8843,125.802 C55.9793,125.005 55.4723,124.66 54.7633,124.31" id="Fill-15" fill="#181818"></path>
            <path d="M35.9107,134.8969 C38.1727,135.8479 40.6607,135.6239 42.8067,134.4739 C43.9167,133.8779 43.6407,132.0739 42.4587,131.7639 C40.1487,131.1609 37.6917,130.7419 35.5747,132.1559 C34.0157,133.1969 35.1887,134.5929 35.9107,134.8969" id="Fill-17" fill="#181818"></path>
            <path d="M18.6529,121.7827 C18.2139,122.9897 18.6129,124.4157 19.4779,125.3227 C20.3529,126.2387 21.6529,126.6117 22.8799,126.5537 C24.4919,126.4757 24.8829,124.1167 23.2649,123.6417 C23.3389,123.6637 23.4079,123.7117 23.4329,123.7787 C23.3279,123.4977 23.2979,123.1897 23.2359,122.8967 C23.0999,122.2467 22.8299,121.6117 22.3469,121.1507 C21.8739,120.6987 21.2459,120.4427 20.5979,120.4677 C20.1359,120.4837 18.9259,121.0297 18.6529,121.7827" id="Fill-19" fill="#181818"></path>
            <path d="M29.481,130.2162 C29.559,130.2562 29.638,130.2972 29.716,130.3372 C30.418,130.6962 31.292,130.5272 31.706,129.8052 C32.083,129.1482 31.888,128.1382 31.184,127.7782 C31.105,127.7372 31.027,127.6962 30.948,127.6562 C30.247,127.2972 29.373,127.4672 28.96,128.1892 C28.582,128.8472 28.777,129.8562 29.481,130.2162" id="Fill-21" fill="#181818"></path>
            <path d="M42.6617,124.3051 C43.3587,125.7001 46.3137,130.4001 48.0827,127.8551 C48.8937,126.6891 48.0657,125.3391 47.4047,124.3241 C46.7067,123.2501 45.7067,121.7771 44.2327,122.2851 C42.4707,122.8931 42.3037,123.5901 42.6617,124.3051" id="Fill-23" fill="#181818"></path>
            <path d="M53.0162,132.7563 C53.0332,132.7433 53.0502,132.7303 53.0672,132.7163 C53.6462,132.2653 53.8392,131.7723 53.7352,131.0423 C53.5442,129.7113 51.7912,129.5173 51.0282,130.4053 C50.5112,131.0073 50.4482,131.9093 51.0282,132.5013 C51.5562,133.0393 52.3882,133.2463 53.0162,132.7563" id="Fill-25" fill="#181818"></path>
            <path d="M22.1138,133.2397 C22.1568,133.2227 22.4868,133.1387 22.3848,133.1507 C22.3008,133.1607 22.6608,133.1777 22.6708,133.1777 C23.4528,133.2627 24.1248,132.4357 24.1248,131.6957 C24.1248,130.8237 23.4548,130.2997 22.6708,130.2137 C22.2288,130.1657 21.7588,130.2287 21.3408,130.3817 C20.6008,130.6497 20.1058,131.3907 20.3258,132.2047 C20.5218,132.9327 21.3708,133.5097 22.1138,133.2397" id="Fill-27" fill="#181818"></path>
            <path d="M19.4859,118.3969 C18.4689,118.5169 17.6169,118.4619 15.9349,118.3649 C14.2529,118.2659 13.8669,114.7089 14.9109,114.8999 C15.0819,115.3319 16.0679,115.5409 16.0679,115.5409 C25.4649,116.0449 29.1539,108.9089 29.6669,108.0299 C30.1779,107.1469 32.2789,108.9429 31.5339,110.2659 C30.7899,111.5889 28.2219,117.3599 19.4859,118.3969" id="Fill-29" fill="#79B7A2"></path>
            <path d="M27.5181,111.5297 C43.8081,95.1177 72.9371,105.5407 88.3891,87.6307 C89.1961,86.6947 87.8541,85.3167 87.0431,86.2577 C71.7371,103.9987 42.5331,93.6747 26.1711,110.1567 C25.2981,111.0367 26.6451,112.4097 27.5181,111.5297" id="Fill-31" fill="#79B7A2"></path>
            <path d="M136.5689,44.978 L132.5059,23.469 C134.7719,20.449 136.3059,16.747 136.0489,12.598 C135.3109,0.646 116.7349,3.275 113.8839,9.307 C112.4299,12.386 112.2079,15.96 113.2679,20.727 C113.3319,21.012 112.1699,23.224 112.3249,24.058 C112.3899,24.41 113.6439,24.737 113.7389,25.071 C114.0469,26.16 114.4359,27.129 114.8719,27.967 C115.0019,27.94 115.1519,27.987 115.2799,27.921 C116.1989,27.453 117.3449,27.17 117.3449,27.688 C117.3449,28.037 116.7659,29.555 116.3509,29.716 C117.1479,30.718 117.6089,31.271 118.3719,31.367 C122.2969,31.862 123.5809,31.097 126.7649,28.917 L124.7659,44.978 L136.5689,44.978 Z" id="Fill-33" fill="#F7DBC6"></path>
            <path d="M121.7115,10.5893 C124.6625,7.0783 124.3525,21.8843 127.2235,24.6423 C130.9035,28.1773 132.2765,25.5793 134.1145,24.6423 C136.4995,23.4263 137.9615,21.2323 139.7095,18.3923 C142.3525,14.0983 140.1685,7.7673 137.6855,4.5113 C133.8155,-0.5637 127.7215,-0.1277 123.8555,0.1493 C121.1055,0.3463 112.5255,0.9603 111.0365,6.4943 C109.8405,10.9413 112.0145,13.6403 113.4055,13.2393 C114.4605,12.9363 119.5395,13.1723 121.7115,10.5893" id="Fill-35" fill="#F4F4F4"></path>
            <path d="M175.7613,147.9418 L101.7203,147.9418 C99.3893,147.9418 97.4813,146.0348 97.4813,143.7038 L97.4813,96.8238 C97.4813,94.4928 99.3893,92.5858 101.7203,92.5858 L175.7613,92.5858 C178.0923,92.5858 179.9993,94.4928 179.9993,96.8238 L179.9993,143.7038 C179.9993,146.0348 178.0923,147.9418 175.7613,147.9418" id="Fill-37" fill="#C8E9F1"></path>
            <path d="M140.3717,107.392 C135.5737,105.458 118.7737,99.408 110.6717,97.696 C108.3437,97.204 106.0867,96.746 103.9647,96.333 C97.6587,95.106 94.3917,106.707 100.4657,107.598 C115.5917,109.818 137.0357,112.111 138.8707,112.368 C141.4427,112.728 143.3867,108.607 140.3717,107.392 Z M79.7227,145.439 C84.9507,133.638 88.7317,122.349 90.2497,116.928 C92.8487,107.645 94.8257,99.477 95.3247,96.427 C96.5177,89.153 86.1587,88.73 84.7897,92.344 C82.7177,97.816 79.1007,116.807 74.7537,143.96 L79.7227,145.439 Z" id="Fill-39" fill="#F7DBC6"></path>
            <path d="M100.0943,93.1411 L126.0423,79.6711 L126.0423,76.7401 L122.9563,76.7401 C97.8533,83.2621 85.0243,87.4431 84.4723,89.2811 C84.4663,89.3001 84.4603,89.3201 84.4553,89.3391 C84.4433,89.3571 84.4313,89.3731 84.4183,89.3911 C79.4443,96.3681 76.4633,130.4291 75.4863,132.9801 L85.0193,134.4301 C88.6663,120.6411 100.3333,111.0351 100.0243,94.5201 C100.1083,94.0361 100.1283,93.5761 100.0943,93.1411" id="Fill-41" fill="#2E91A0"></path>
            <path d="M123.8873,101.1411 C126.2613,100.6561 128.4483,100.2231 130.3193,99.8891 C142.4033,97.7281 145.9273,91.1311 143.8433,76.7401 L121.5773,76.7401 C117.9413,77.8051 99.0383,85.8881 89.2313,90.1871 C82.7403,93.0321 84.7863,103.2891 88.4623,105.9581 C88.4823,106.1221 88.5483,106.2341 88.6663,106.2841 C108.4403,114.6401 124.0823,110.2551 129.3073,111.6571 L131.7243,103.8821 L123.8873,101.1411 Z" id="Fill-43" fill="#2E91A0"></path>
            <path d="M138.731,106.1567 C140.027,106.2827 140.946,106.4807 141.49,106.7517 C142.152,107.0807 143.063,107.6727 144.224,108.5287 C143.85,109.3107 140.487,116.3427 134.134,129.6227 C132.095,129.2877 131.287,128.4937 131.71,127.2417 C132.133,125.9907 132.475,124.9457 132.734,124.1077 L133.137,112.1717 C133.145,111.9417 133.334,111.7617 133.559,111.7697 L133.567,111.7697 L135.372,111.8857 C136.395,111.0417 137.07,110.2777 137.397,109.5947 C137.663,109.0387 137.809,108.1627 137.837,106.9647 C137.848,106.5057 138.222,106.1417 138.673,106.1527 C138.692,106.1527 138.711,106.1547 138.731,106.1567" id="Fill-45" fill="#216168"></path>
            <path d="M153.6666,71.7543 L145.1396,71.7883 C150.4046,89.1213 153.2476,98.3173 153.6666,99.3783 C154.6106,101.7653 152.6126,105.3993 151.7586,107.3523 C154.5416,108.6213 154.2446,103.9183 157.7556,105.5843 C160.9606,107.1053 163.3976,109.8593 167.1006,107.5293 C167.5556,107.2433 168.0546,106.1643 166.8496,105.3223 C163.8466,103.2233 159.5206,99.5483 158.9356,98.3393 C158.1386,96.6903 156.3816,87.8283 153.6666,71.7543 Z M102.3556,70.1323 L90.7956,81.6323 C87.4326,83.0953 84.6766,84.7103 82.5276,86.4783 C82.0446,87.0723 81.5196,88.2113 83.7926,87.7013 C86.0646,87.1923 88.4786,86.7603 88.9056,87.5143 C89.3336,88.2683 88.0736,89.4233 88.8636,90.4093 C89.3906,91.0673 91.1606,88.9753 94.1746,84.1343 L106.1956,76.9063 L102.3556,70.1323 Z" id="Fill-47" fill="#F7DBC6"></path>
            <path d="M129.4322,35.266 L125.9032,34.649 C119.8282,50.124 112.8402,56.805 97.7022,69.453 L109.1412,86.576 C124.2782,68.568 129.9892,54.417 129.4322,35.266" id="Fill-49" fill="#FFB53E"></path>
            <path d="M144.815,80.4848 L113.392,80.4848 C120.672,62.4358 124.312,47.1028 124.312,34.4878 L133.791,33.0468 C141.24,45.2638 143.343,60.3048 144.815,80.4848" id="Fill-51" fill="#FFB53E"></path>
            <path d="M133.9918,35.4223 C133.9898,35.4203 133.9888,35.4183 133.9878,35.4163 L133.3688,35.4163 C132.6288,35.4413 131.5008,35.4853 129.9858,35.5513 L127.6958,41.9433 C127.4538,49.7373 126.0388,65.4443 123.4508,89.0663 L144.0498,89.0663 C143.9948,90.6963 143.9058,78.2043 143.7818,79.8653 L159.0968,79.8653 C156.8058,54.6223 148.4398,49.2323 133.9988,35.4163 L133.9918,35.4223 Z" id="Fill-53" fill="#FFB53E"></path>
            <path d="M135.5289,34.5238 C135.5279,34.5218 135.5269,34.5198 135.5249,34.5168 C135.2159,33.9738 134.6099,33.6348 133.9879,33.6348 C132.6539,33.6348 131.3189,33.7138 129.9859,33.7698 C129.1479,33.8048 128.5449,34.3078 128.2689,35.0778 C127.4739,37.2948 126.3089,39.6208 125.9149,41.9438 C125.3449,45.2968 125.5479,48.9748 125.2819,52.3758 C124.3239,64.6268 123.0039,76.8508 121.6709,89.0658 C121.5659,90.0238 122.5709,90.8458 123.4509,90.8458 L144.0499,90.8458 C143.4559,90.2528 142.8619,89.6588 142.2679,89.0658 L142.2589,89.2098 C143.4249,89.0518 144.5919,88.8938 145.7579,88.7368 C145.4219,86.3888 146.3819,82.0858 145.5179,79.2438 C144.8959,77.1928 142.2669,77.8108 142.0199,79.7168 C142.0139,79.7668 142.0079,79.8158 142.0019,79.8658 C141.8779,80.8228 142.9179,81.6468 143.7819,81.6468 L159.0969,81.6468 C159.9909,81.6468 160.9719,80.8278 160.8789,79.8658 C159.9559,70.4498 158.1829,60.9328 152.9229,52.8858 C148.2059,45.6698 141.4459,40.0528 135.2579,34.1568 C134.5249,33.4588 133.4819,33.5118 132.7399,34.1568 C132.7369,34.1588 132.7349,34.1618 132.7319,34.1638 C130.9979,35.6688 133.5259,38.1778 135.2509,36.6818 C135.2539,36.6798 135.2559,36.6768 135.2579,36.6748 L132.7399,36.6748 C138.4509,42.1178 144.7569,47.3008 149.2769,53.8348 C154.5999,61.5268 156.4199,70.7088 157.3169,79.8658 C157.9109,79.2718 158.5049,78.6788 159.0969,78.0858 L143.7819,78.0858 C144.3759,78.6788 144.9689,79.2718 145.5629,79.8658 C145.5689,79.8158 145.5759,79.7668 145.5829,79.7168 C144.4169,79.8748 143.2509,80.0328 142.0849,80.1908 C142.7599,82.4178 141.9049,86.7628 142.3229,89.6828 C142.6219,91.7668 145.7059,91.0968 145.8209,89.2098 L145.8299,89.0658 C145.8879,88.1038 144.9669,87.2848 144.0499,87.2848 L123.4509,87.2848 L125.2319,89.0658 C126.5249,77.2178 127.7999,65.3628 128.7559,53.4828 C129.0259,50.1238 129.0009,46.6558 129.4249,43.3158 C129.7449,40.8058 130.8439,38.4208 131.7029,36.0238 C131.1309,36.4608 130.5579,36.8958 129.9859,37.3318 C130.7419,37.2998 132.3219,37.5538 132.9339,37.2118 C134.0249,36.6048 133.8749,38.8118 132.4539,36.3218 C133.5899,38.3118 136.6679,36.5198 135.5289,34.5238" id="Fill-55" fill="#FFB53E"></path>
            <g id="Group-59" transform="translate(58.000000, 141.000000)">
                <mask id="mask-2" fill="white">
                    <use xlink:href="#path-1"></use>
                </mask>
                <g id="Clip-58"></g>
                <path d="M23.7252,2.9184 C24.1472,4.1744 24.3492,5.1104 24.3322,5.7274 C24.3112,6.4774 24.1582,7.5674 23.8722,9.0004 C23.0202,8.9754 15.3502,8.7534 0.8662,8.3334 C0.3242,6.3004 0.7002,5.2224 1.9922,5.0994 C3.2852,4.9764 4.3592,4.8614 5.2142,4.7574 L16.0432,0.2054 C16.2512,0.1174 16.4912,0.2194 16.5772,0.4324 C16.5782,0.4354 16.5792,0.4394 16.5802,0.4424 L17.2202,2.1624 C18.3972,2.7654 19.3582,3.0764 20.1042,3.0984 C20.7092,3.1154 21.5532,2.8904 22.6342,2.4224 C23.0492,2.2424 23.5282,2.4394 23.7042,2.8634 C23.7122,2.8814 23.7192,2.8994 23.7252,2.9184" id="Fill-57" fill="#216168" mask="url(#mask-2)"></path>
            </g>
            <path d="M116.8804,17.395 C116.9304,17.777 117.0144,18.095 117.1714,18.447 C117.4224,19.01 118.2194,18.682 118.2404,18.151 C118.2524,17.866 118.2084,17.606 118.1144,17.338 C117.9244,16.793 117.7704,16.763 117.4544,16.809 C117.1784,16.849 116.8404,17.081 116.8804,17.395" id="Fill-60" fill="#9E9E9E"></path>
            <path d="M116.4527,15.1879 C117.1087,14.5799 118.2757,14.2599 118.7327,15.2839 C118.8527,15.5549 119.2517,15.3199 119.1317,15.0499 C118.5497,13.7469 116.9847,14.0649 116.1257,14.8609 C115.9067,15.0629 116.2337,15.3889 116.4527,15.1879" id="Fill-62" fill="#9E9E9E"></path>
            <path d="M123.567,10.1674 C126.707,14.5984 127.248,20.1454 129.618,24.9474 C129.749,25.2144 130.147,24.9804 130.016,24.7154 C127.644,19.9064 127.11,14.3714 123.965,9.9344 C123.796,9.6934 123.394,9.9244 123.567,10.1674" id="Fill-64" fill="#9E9E9E"></path>
            <path d="M112.1773,11.4692 C116.2333,11.5122 120.0913,10.7232 123.8153,9.1132 C124.0873,8.9942 123.8523,8.5962 123.5813,8.7132 C119.9393,10.2892 116.1503,11.0502 112.1773,11.0072 C111.8803,11.0042 111.8793,11.4662 112.1773,11.4692" id="Fill-66" fill="#9E9E9E"></path>
            <path d="M112.4342,8.6821 C116.7242,8.9751 120.8732,8.5051 124.9892,7.2681 C125.2732,7.1821 125.1522,6.7371 124.8662,6.8231 C120.7992,8.0451 116.6672,8.5091 112.4342,8.2201 C112.1372,8.2001 112.1382,8.6611 112.4342,8.6821" id="Fill-68" fill="#9E9E9E"></path>
            <path d="M113.0396,5.601 C116.7146,5.885 120.3836,5.925 124.0636,5.72 C124.3586,5.704 124.3606,5.242 124.0636,5.258 C120.3836,5.463 116.7146,5.423 113.0396,5.139 C112.7436,5.117 112.7446,5.579 113.0396,5.601" id="Fill-70" fill="#9E9E9E"></path>
            <path d="M116.1265,3.2338 C118.4505,3.1048 120.7745,3.0478 123.1035,3.0638 C123.3995,3.0658 123.4005,2.6038 123.1035,2.6018 C120.7745,2.5868 118.4505,2.6428 116.1265,2.7718 C115.8305,2.7888 115.8285,3.2508 116.1265,3.2338" id="Fill-72" fill="#9E9E9E"></path>
            <path d="M125.233,7.5219 C127.327,11.0389 129.751,15.6449 129.919,19.8169 C129.93,20.1139 130.392,20.1149 130.38,19.8169 C130.211,15.5829 127.771,10.8809 125.632,7.2899 C125.48,7.0339 125.081,7.2659 125.233,7.5219" id="Fill-74" fill="#9E9E9E"></path>
            <path d="M124.3804,4.6371 C129.5664,8.2081 132.5744,15.7251 132.8044,21.8301 C132.8154,22.1271 133.2764,22.1281 133.2664,21.8301 C133.0274,15.4851 129.9804,7.9341 124.6134,4.2391 C124.3684,4.0701 124.1374,4.4701 124.3804,4.6371" id="Fill-76" fill="#9E9E9E"></path>
            <path d="M123.2515,2.8813 C130.8605,4.8173 136.4235,12.5273 135.5555,20.4373 C135.5225,20.7323 135.9845,20.7303 136.0175,20.4373 C136.9055,12.3333 131.1655,4.4183 123.3745,2.4363 C123.0865,2.3623 122.9635,2.8083 123.2515,2.8813" id="Fill-78" fill="#9E9E9E"></path>
            <path d="M123.064,1.4789 C126.892,0.7489 132.413,3.5869 135.109,6.2499 C138.36,9.4609 138.977,13.8639 138.432,18.2279 C138.396,18.5219 138.858,18.5199 138.894,18.2279 C139.501,13.3689 138.64,8.4029 134.61,5.2209 C131.555,2.8079 126.947,0.2689 122.941,1.0329 C122.649,1.0879 122.773,1.5339 123.064,1.4789" id="Fill-80" fill="#9E9E9E"></path>
        </g>
    </g>
</svg>