<?xml version="1.0" encoding="UTF-8"?>
<svg width="200px" height="200px" viewBox="0 0 200 200" version="1.1" xmlns="http://www.w3.org/2000/svg" xmlns:xlink="http://www.w3.org/1999/xlink">
    <!-- Generator: Sketch 52.6 (67491) - http://www.bohemiancoding.com/sketch -->
    <title>a1-walkdog</title>
    <desc>Created with Sketch.</desc>
    <defs>
        <polygon id="path-1" points="0 0.32902568 11.3723533 0.32902568 11.3723533 29.4346272 0 29.4346272"></polygon>
        <polygon id="path-3" points="0.2301 0.639973982 28.0229143 0.639973982 28.0229143 11 0.2301 11"></polygon>
        <polygon id="path-5" points="0.320462407 0.4639 7 0.4639 7 10.6085756 0.320462407 10.6085756"></polygon>
    </defs>
    <g id="a1-walkdog" stroke="none" stroke-width="1" fill="none" fill-rule="evenodd">
        <g id="Group-72">
            <path d="M79.4214,0 L78.4624,0 C72.7734,0 68.1594,4.825 68.1594,10.777 L68.1594,21.304 C68.1594,26.85 72.1654,31.418 77.3174,32.015 C77.3174,32.04 77.3194,32.065 77.3204,32.092 L91.2174,32.092 C93.4144,29.847 91.2614,15.535 89.6094,9.168 C88.8664,3.979 84.5884,0 79.4214,0" id="Fill-1" fill="#191847"></path>
            <path d="M90.3511,20.6621 C90.3511,23.0701 89.2961,25.0211 87.9961,25.0211 C86.6941,25.0211 85.6391,23.0701 85.6391,20.6621 C85.6391,18.2541 86.6941,16.3021 87.9961,16.3021 C89.2961,16.3021 90.3511,18.2541 90.3511,20.6621 Z" id="Stroke-3" stroke="#FDE14C" stroke-width="0.336"></path>
            <path d="M69.5972,38.5967 L81.0982,38.5967 L79.8402,25.0217 C82.7042,28.1357 85.9072,27.4657 87.0892,26.5377 C89.9892,24.2637 90.6532,11.9967 87.8752,6.5827 C85.0992,1.1687 70.8242,-1.1903 70.1042,9.5357 C69.8542,13.2597 71.3492,16.5817 73.5572,19.2927 L69.5972,38.5967 Z" id="Fill-5" fill="#D4A181"></path>
            <path d="M76.5454,17.4844 C75.0904,17.4844 73.9104,16.2504 73.9104,14.7264 C73.9104,13.2044 75.0904,11.9694 76.5454,11.9694 C77.1754,11.9694 77.7534,12.2014 78.2064,12.5864 C82.0524,10.0914 86.3794,9.4984 87.4944,5.4954 C86.0034,3.2024 84.2524,0.5014 78.7024,0.5014 C75.0034,0.5014 71.9504,3.0784 69.5444,8.2304 L69.5604,8.6204 C69.1234,9.0274 68.6834,9.5004 68.2164,9.9764 C68.2164,23.2254 60.7324,17.7764 61.5074,31.8484 L75.4034,31.8484 C76.9824,30.2344 77.1954,23.4344 76.6654,17.4814 C76.6254,17.4834 76.5864,17.4844 76.5454,17.4844" id="Fill-7" fill="#191847"></path>
            <path d="M71.9576,112.3662 C79.2366,112.3662 88.5006,114.0922 99.7506,117.5442 C92.5976,122.7232 84.8506,125.3132 76.5096,125.3132 C68.1686,125.3132 58.2506,123.6322 46.7556,120.2682 C56.2766,115.0002 64.6776,112.3662 71.9576,112.3662" id="Fill-9" fill="#FDE14C"></path>
            <path d="M91.8706,161.4404 C94.4786,171.2604 100.3346,187.3434 102.7926,193.1554 C104.3376,196.8084 110.1346,193.7124 109.1036,190.7424 C108.1246,187.9174 100.4536,147.1464 96.7266,134.5574 C95.5466,126.5764 87.1556,86.5754 85.2916,80.2004 L57.5816,80.2004 C60.0326,88.5844 84.6446,134.4404 86.1826,138.6914 C86.2566,138.8964 86.3496,139.0864 86.4606,139.2604 C87.4356,143.9524 89.4266,152.2344 91.8706,161.4404" id="Fill-11" fill="#BA8B72"></path>
            <path d="M67.9585,142.2197 C69.7575,137.2017 79.4375,87.0717 80.5825,80.1997 L56.0635,80.1997 C54.8705,87.3657 56.6915,120.5377 57.0905,134.3617 C52.3865,135.1437 45.3795,136.4797 37.7005,138.1167 C28.1535,140.1537 12.4075,145.1427 6.6925,147.3017 C3.1015,148.6577 5.6485,154.9227 8.5545,154.0557 C11.3795,153.2117 52.5375,147.8337 63.7905,144.8597 C65.6845,144.8027 67.3875,144.0117 67.9585,142.2197" id="Fill-13" fill="#D4A181"></path>
            <g id="Group-17" transform="translate(0.000000, 145.000000)">
                <mask id="mask-2" fill="white">
                    <use xlink:href="#path-1"></use>
                </mask>
                <g id="Clip-16"></g>
                <path d="M7.02,0.6494 C7.533,0.7894 7.839,1.3364 7.706,1.8724 C7.358,3.2684 7.245,4.3334 7.369,5.0654 C7.521,5.9674 8.041,7.0814 8.927,8.4054 L10.997,8.8814 C11,8.8824 11.005,8.8834 11.009,8.8844 C11.266,8.9524 11.422,9.2244 11.358,9.4934 L8.025,23.4514 C8.051,24.5084 8.105,25.8344 8.185,27.4264 C8.266,29.0194 7.102,29.6644 4.693,29.3624 C1.739,11.8344 0.174,2.5534 -0.001,1.5204 C1.583,0.9224 2.799,0.5454 3.651,0.3884 C4.35,0.2594 5.452,0.3404 6.954,0.6334 C6.976,0.6374 6.999,0.6434 7.02,0.6494" id="Fill-15" fill="#E4E4E4" mask="url(#mask-2)"></path>
            </g>
            <g id="Group-20" transform="translate(100.000000, 189.000000)">
                <mask id="mask-4" fill="white">
                    <use xlink:href="#path-3"></use>
                </mask>
                <g id="Clip-19"></g>
                <path d="M1.0601,3.6162 C1.2811,3.1132 1.8491,2.8922 2.3311,3.1232 C3.5841,3.7242 4.5671,4.0242 5.2791,4.0242 C6.1551,4.0242 7.2921,3.6822 8.6941,2.9992 L9.5011,0.9502 C9.5021,0.9462 9.5041,0.9412 9.5061,0.9372 C9.6151,0.6842 9.8981,0.5712 10.1391,0.6832 L22.7021,6.5422 C23.7031,6.6972 24.9591,6.8732 26.4721,7.0662 C27.9861,7.2602 28.3911,8.5712 27.6891,11.0002 L0.6621,11.0002 C0.3731,9.2652 0.2301,7.9472 0.2301,7.0432 C0.2301,6.3002 0.4981,5.1792 1.0341,3.6822 C1.0411,3.6602 1.0501,3.6382 1.0601,3.6162" id="Fill-18" fill="#E4E4E4" mask="url(#mask-4)"></path>
            </g>
            <path d="M46.5601,120.2275 C63.3311,111.9685 83.4571,126.4765 99.7501,118.0085 C98.3171,93.4635 90.1661,87.1105 86.8121,71.1015 C77.1701,67.8685 66.9481,67.8685 56.1441,71.1015 C48.4761,80.8585 41.7681,108.6755 46.5601,120.2275" id="Fill-21" fill="#FDE14C"></path>
            <path d="M129.5152,149.5859 C131.4112,147.8929 135.2952,148.5149 137.3872,149.5939 C138.4072,150.1199 138.8882,151.0429 138.2122,151.8819 C137.9092,152.2579 137.3602,152.5429 136.7572,152.6629 C136.6512,152.8289 136.5132,152.9859 136.3312,153.1209 C136.2802,153.2579 136.2132,153.3889 136.1202,153.5029 C135.5772,154.1799 134.5422,154.4279 133.5242,154.2719 C132.1322,154.0589 130.4502,153.6799 129.5342,152.8279 C128.4272,151.7999 128.3642,150.6139 129.5152,149.5859" id="Fill-23" fill="#603712"></path>
            <path d="M182.0611,160.0391 C182.0611,160.0391 180.6651,177.2861 182.2801,179.2801 C183.8931,181.2751 175.8211,181.2751 175.8211,180.1011 L175.8211,161.5631 L182.0611,160.0391 Z" id="Fill-25" fill="#4D2B03"></path>
            <path d="M149.6646,160.0146 C149.6646,160.0146 148.2686,177.3786 149.8836,179.3726 C151.4976,181.3676 143.4236,181.2506 143.4236,180.0776 L143.4236,161.5386 L149.6646,160.0146 Z" id="Fill-27" fill="#4D2B03"></path>
            <path d="M131.8726,160.3896 C132.4086,157.1126 133.6666,153.6386 135.8506,151.2436 C138.4766,148.3646 141.5866,147.6646 145.1986,147.5506 C149.7686,147.4076 154.3406,147.2286 158.9066,147.0026 L158.9066,147.0396 C162.9346,146.1976 165.7066,144.8636 165.8596,142.6746 C166.4166,134.7266 172.3236,125.5446 176.0356,124.2546 C179.7476,122.9636 181.1196,122.4646 183.4596,124.8406 C189.4316,132.7596 198.7376,132.3496 198.7376,132.3496 C198.7376,132.3496 199.1726,144.6236 186.8196,144.7216 C184.3536,161.9306 178.5556,167.2406 177.7576,169.3086 C176.8966,171.5366 175.5516,180.0436 177.1656,182.3906 C178.7786,184.7366 170.4406,184.6786 170.2266,182.5666 C170.0106,180.4546 169.1506,175.0956 168.8276,172.8276 C168.8296,172.7306 162.0106,171.8086 161.4766,171.7256 C157.6146,171.1216 153.7696,170.1696 150.0616,168.8406 C145.8946,167.3486 141.0226,166.2626 139.2006,171.9306 C138.3596,174.5476 138.3116,178.9426 140.1326,181.1926 C141.7456,183.1876 132.8156,182.9516 132.6006,181.1926 C132.3846,179.4326 131.3926,163.3246 131.8726,160.3896" id="Fill-29" fill="#78461E"></path>
            <path d="M185.4194,131.0469 L185.5124,131.0469 C186.8604,131.0469 186.8604,133.3269 185.5124,133.3269 L185.4194,133.3269 C184.0704,133.3269 184.0704,131.0469 185.4194,131.0469" id="Fill-31" fill="#000000"></path>
            <path d="M179.398,151.3379 C180.678,151.4929 184.255,151.4219 186.373,151.2969 C188.491,151.1689 187.914,145.5519 186.599,145.7969 C186.383,146.3549 186.206,147.6499 186.206,147.6499 C174.376,148.3019 167.228,139.0849 166.583,137.9499 C165.938,136.8109 163.294,139.1289 164.232,140.8369 C165.169,142.5469 168.4,149.9979 179.398,151.3379" id="Fill-33" fill="#79B7A2"></path>
            <path d="M180.731,126.4316 C182.033,123.4046 174.78,123.1686 173.788,127.3726 C172.795,131.5776 171.556,142.7176 176.73,144.6686 C181.785,145.8666 179.429,129.4576 180.731,126.4316" id="Fill-35" fill="#371F09"></path>
            <g id="Group-39" transform="translate(193.000000, 130.000000)">
                <mask id="mask-6" fill="white">
                    <use xlink:href="#path-5"></use>
                </mask>
                <g id="Clip-38"></g>
                <path d="M1.1167,8.0859 C1.5077,8.7019 2.0197,9.1809 2.6277,9.4919 C2.6347,9.4529 2.6367,9.4139 2.6527,9.3729 C3.1697,8.1399 3.9007,6.7329 4.0547,5.3669 C1.8337,4.6259 2.0727,0.4639 4.7757,0.4639 C7.7087,0.4639 7.7407,5.3599 4.8767,5.4759 C4.6837,6.9779 3.9457,8.4719 3.3757,9.8339 C3.3667,9.8559 3.3517,9.8659 3.3417,9.8839 C3.5327,10.1919 3.3167,10.7249 2.9027,10.5859 C1.8567,10.2339 1.0137,9.5249 0.3947,8.5459 C0.0877,8.0609 0.8127,7.6059 1.1167,8.0859" id="Fill-37" fill="#0D0000" mask="url(#mask-6)"></path>
            </g>
            <path d="M169.2642,140.0937 C157.0742,126.5047 151.8002,108.6937 144.7092,92.2487 C141.3302,84.4127 137.4982,76.7577 132.3562,69.9157 C130.0242,66.8137 130.0352,64.6017 130.8082,61.0637 C131.0932,59.7627 131.1762,58.6277 130.5632,57.3717 C129.7462,55.6977 128.4192,55.0037 126.6992,55.6087 C125.3012,56.1007 125.9032,58.3387 127.3142,57.8427 C128.9552,57.2657 127.4602,63.6757 127.3962,64.2857 C127.2682,65.5057 127.3862,66.5017 127.8852,67.6337 C129.3962,71.0577 132.5732,74.0167 134.5472,77.2307 C139.1392,84.7027 142.5472,92.8277 145.8242,100.9397 C151.6192,115.2867 157.1402,130.0427 167.6262,141.7317 C168.6242,142.8437 170.2582,141.1997 169.2642,140.0937" id="Fill-40" fill="#79B7A2"></path>
            <path d="M70.9351,32.873 L53.7451,62.934 C53.0191,64.249 51.9671,64.754 50.7091,63.995 L47.4451,62.023 C46.1881,61.265 45.0451,60.458 45.7711,59.143 L63.0991,28.141 C63.8251,26.825 65.4471,26.371 66.7051,27.13 L69.9691,29.102 C71.2261,29.861 71.6611,31.558 70.9351,32.873" id="Fill-42" fill="#D4A181"></path>
            <path d="M128.647,56.1279 C125.514,57.0899 122.117,58.7789 118.454,61.1959 L105.139,63.8859 L83.356,31.9509 C82.417,30.5739 80.571,30.2519 79.254,31.2339 L76.676,33.1579 C75.36,34.1419 75.051,36.0719 75.991,37.4489 L100.116,72.8149 C101.054,74.1919 102.901,74.5159 104.217,73.5329 L105.01,72.9409 L118.554,66.3989 C125.198,66.6979 128.384,66.3499 128.113,65.3529 C127.707,63.8559 125.758,64.3359 125.329,63.3729 C124.9,62.4089 126.939,60.2429 128.959,58.2749 C130.978,56.3069 129.54,56.0499 128.647,56.1279" id="Fill-44" fill="#D4A181"></path>
            <path d="M53.7447,62.9336 L45.7707,59.1426 C37.5797,84.7106 30.4347,104.2336 29.4997,106.2196 C28.8127,107.6766 23.7317,112.1026 20.2067,114.6316 C18.7907,115.6466 19.3767,116.9456 19.9117,117.2896 C24.2597,120.0966 27.1217,116.7786 30.8847,114.9476 C35.0077,112.9406 34.6587,118.6056 37.9277,117.0766 C36.9237,114.7236 34.5767,110.3456 35.6857,107.4716 C36.1787,106.1946 42.2387,90.0186 53.7447,62.9336" id="Fill-46" fill="#D4A181"></path>
            <path d="M83.4644,31.0879 L79.9064,30.2859 C79.2594,31.8609 77.6104,32.9839 75.6724,32.9839 C73.1704,32.9839 71.1424,31.1159 71.1424,28.8139 C71.1424,28.6459 71.1554,28.4819 71.1764,28.3189 L67.8794,27.5769 L67.8724,27.5689 L67.0584,27.5689 L54.4704,74.3079 L87.0894,72.7909 C83.5914,56.3249 92.4014,53.6059 83.4644,31.0879" id="Fill-48" fill="#FDE14C"></path>
            <path d="M77.3033,20.6621 C77.3033,23.0701 76.2483,25.0211 74.9483,25.0211 C73.6463,25.0211 72.5913,23.0701 72.5913,20.6621 C72.5913,18.2541 73.6463,16.3021 74.9483,16.3021 C76.2483,16.3021 77.3033,18.2541 77.3033,20.6621 Z" id="Stroke-50" stroke="#FDE14C" stroke-width="0.336"></path>
            <path d="M79.4517,14.2051 C80.2137,13.4411 81.1497,12.5421 82.3147,12.9841 C82.7367,13.1431 82.9197,12.4671 82.5017,12.3091 C81.0937,11.7741 79.8927,12.7701 78.9567,13.7101 C78.6387,14.0291 79.1337,14.5251 79.4517,14.2051" id="Fill-52" fill="#191847"></path>
            <path d="M86.2222,12.6182 C86.8772,12.2532 87.5792,12.2212 88.2762,12.4922 C88.6962,12.6562 88.8772,11.9782 88.4612,11.8162 C87.5982,11.4792 86.6742,11.5632 85.8682,12.0132 C85.4742,12.2322 85.8272,12.8382 86.2222,12.6182" id="Fill-54" fill="#191847"></path>
            <path d="M81.9488,15.792 C81.9668,15.341 81.2648,15.342 81.2488,15.792 C81.2348,16.173 81.3148,16.508 81.4808,16.849 C81.6278,17.152 82.1708,17.017 82.1338,16.672 C82.1068,16.433 81.9398,16.049 81.9488,15.792" id="Fill-56" fill="#191847"></path>
            <path d="M86.6646,14.8721 C86.6066,15.2681 86.6486,15.5891 86.8276,15.9501 C86.9996,16.2951 87.4446,16.0821 87.4806,15.7731 C87.5286,15.3591 87.4546,15.0021 87.2886,14.6241 C87.1076,14.2121 86.7286,14.4271 86.6646,14.8721" id="Fill-58" fill="#191847"></path>
            <path d="M84.899,18.4395 C85.318,18.7495 85.459,19.2815 85.331,19.7705 C85.216,20.2075 85.892,20.3935 86.005,19.9575 C86.219,19.1375 85.929,18.3355 85.253,17.8355 C84.889,17.5675 84.54,18.1745 84.899,18.4395" id="Fill-60" fill="#191847"></path>
            <path d="M83.7163,23.9844 C84.3433,24.4044 85.0893,24.4224 85.7513,24.0724 C86.1493,23.8604 85.7953,23.2554 85.3973,23.4664 C84.9463,23.7064 84.4873,23.6594 84.0703,23.3804 C83.6943,23.1294 83.3423,23.7354 83.7163,23.9844" id="Fill-62" fill="#191847"></path>
            <path d="M81.2906,30.3291 C81.2906,34.3081 78.5696,55.3511 74.7666,55.3511 C70.9636,55.3511 70.4166,32.0331 70.4166,28.0551" id="Stroke-64" stroke="#191847" stroke-width="0.07"></path>
            <path d="M76.9409,55.3516 C76.9409,56.6076 75.9669,57.6256 74.7659,57.6256 C73.5649,57.6256 72.5909,56.6076 72.5909,55.3516 C72.5909,54.0946 73.5649,53.0776 74.7659,53.0776 C75.9669,53.0776 76.9409,54.0946 76.9409,55.3516" id="Fill-66" fill="#79B7A2"></path>
            <path d="M79.1158,51.9395 C79.1158,52.9865 78.3038,53.8355 77.3038,53.8355 C76.3028,53.8355 75.4908,52.9865 75.4908,51.9395 C75.4908,50.8925 76.3028,50.0435 77.3038,50.0435 C78.3038,50.0435 79.1158,50.8925 79.1158,51.9395" id="Fill-68" fill="#DD7045"></path>
            <path d="M74.0415,51.1807 C74.0415,52.2287 73.2295,53.0767 72.2295,53.0767 C71.2285,53.0767 70.4175,52.2287 70.4175,51.1807 C70.4175,50.1337 71.2285,49.2847 72.2295,49.2847 C73.2295,49.2847 74.0415,50.1337 74.0415,51.1807" id="Fill-70" fill="#DD7045"></path>
        </g>
    </g>
</svg>