<?xml version="1.0" encoding="UTF-8"?>
<svg width="440px" height="90px" viewBox="0 0 440 90" version="1.1" xmlns="http://www.w3.org/2000/svg" xmlns:xlink="http://www.w3.org/1999/xlink">
    <!-- Generator: Sketch 52.6 (67491) - http://www.bohemiancoding.com/sketch -->
    <title>a1-walkcat</title>
    <desc>Created with Sketch.</desc>
    <defs>
        <polygon id="path-1" points="0.914384172 0.401112479 7 0.401112479 7 12.1102266 0.914384172 12.1102266"></polygon>
        <polygon id="path-3" points="0.578098353 0 20.2577528 0 20.2577528 16.270166 0.578098353 16.270166"></polygon>
        <polygon id="path-5" points="0 0.4046 7.22245602 0.4046 7.22245602 6.1996 0 6.1996"></polygon>
        <polygon id="path-7" points="0.721362052 0.831888356 15.5942 0.831888356 15.5942 5 0.721362052 5"></polygon>
        <polygon id="path-9" points="0.578214569 0 20.2576528 0 20.2576528 16.270466 0.578214569 16.270466"></polygon>
        <polygon id="path-11" points="0 0.4049 7.22225602 0.4049 7.22225602 6.1999 0 6.1999"></polygon>
        <polygon id="path-13" points="0.720693929 0.831641664 15.5935 0.831641664 15.5935 5 0.720693929 5"></polygon>
        <polygon id="path-15" points="0.914584172 0.401416125 7 0.401416125 7 12.1103209 0.914584172 12.1103209"></polygon>
        <polygon id="path-17" points="0 0.4051 7.22255602 0.4051 7.22255602 6.2001 0 6.2001"></polygon>
        <polygon id="path-19" points="0.720693929 0.831641664 15.5935 0.831641664 15.5935 5 0.720693929 5"></polygon>
        <polygon id="path-21" points="0.914684172 0.401416125 7 0.401416125 7 12.1103209 0.914684172 12.1103209"></polygon>
        <polygon id="path-23" points="0 0.4051 7.22265602 0.4051 7.22265602 6.2001 0 6.2001"></polygon>
    </defs>
    <g id="a1-walkcat" stroke="none" stroke-width="1" fill="none" fill-rule="evenodd">
        <g id="Group-72">
            <path d="M62.0468,12.0417 C63.0508,9.9117 63.4778,7.5197 62.6788,5.1837 C60.3788,-1.5493 52.4878,3.0567 49.6078,6.3457 C46.9588,10.7657 48.4238,14.3417 50.4888,16.3427 C51.3278,15.8857 51.9198,15.5507 52.2128,15.9197 C52.4468,16.2137 52.4928,16.9747 52.1218,17.5507 C52.7868,17.9067 53.4248,18.0967 53.9288,18.0917 C54.9438,18.0817 57.4408,17.9787 59.1658,16.1717 L60.3228,25.7387 L67.9528,23.6777 L62.0468,12.0417 Z" id="Fill-1" fill="#D4A181"></path>
            <polygon id="Fill-3" fill="#BA8B72" points="64.1405 41.8044 40.2045 88.0334 43.2825 88.0334 57.5675 66.8554 76.6215 41.8044"></polygon>
            <path d="M45.1493,87.03 C45.0313,86.827 44.7273,86.738 44.4693,86.831 C43.7983,87.073 43.2733,87.194 42.8923,87.194 C42.4233,87.194 41.8143,87.056 41.0643,86.781 L40.6323,85.957 C40.6313,85.955 40.6303,85.954 40.6293,85.952 C40.5723,85.85 40.4203,85.804 40.2913,85.849 L33.5683,88.207 C33.0333,88.269 32.3603,88.34 31.5503,88.418 C30.7413,88.496 30.5243,89.023 30.8993,90 L45.3633,90 C45.5163,89.302 45.5933,88.771 45.5933,88.408 C45.5933,88.109 45.4503,87.659 45.1643,87.056 C45.1593,87.048 45.1553,87.039 45.1493,87.03" id="Fill-5" fill="#E4E4E4"></path>
            <path d="M64.4764,65.3425 C69.8714,58.2855 74.9754,50.4395 79.7904,41.8045 L63.0314,41.8045 C58.7004,48.6305 54.6484,55.7135 50.8744,63.0535 C47.1024,70.3935 43.9154,77.1185 41.3164,83.2315 L47.2494,84.6425 C53.3394,78.8325 59.0814,72.4005 64.4764,65.3425" id="Fill-7" fill="#DD7045"></path>
            <path d="M65.3397,41.8044 C68.2247,50.2264 75.6737,63.9314 77.1657,65.6664 C78.1597,66.8234 87.8967,68.4504 106.3727,70.5454 L107.0377,68.4114 C91.5437,64.5034 83.6877,62.4334 83.4687,62.2014 C83.1417,61.8544 79.6727,50.6074 77.8747,41.8044 L65.3397,41.8044 Z" id="Fill-9" fill="#D4A181"></path>
            <path d="M84.5819,61.1199 C84.2829,60.6009 82.5919,52.7929 80.0659,40.4339 L64.3649,41.8049 C68.3519,56.8959 71.9019,65.6069 75.0179,67.9379 C78.1329,70.2679 86.6009,70.9579 100.4209,70.0049 L101.5909,66.5679 C90.5499,63.4549 84.8799,61.6389 84.5819,61.1199" id="Fill-11" fill="#DD7045"></path>
            <g id="Group-15" transform="translate(103.000000, 67.000000)">
                <mask id="mask-2" fill="white">
                    <use xlink:href="#path-1"></use>
                </mask>
                <g id="Clip-14"></g>
                <path d="M3.243,0.53 C2.969,0.586 2.805,0.806 2.877,1.021 C3.062,1.584 3.123,2.011 3.056,2.306 C2.975,2.67 2.697,3.117 2.222,3.65 L1.115,3.842 C1.113,3.842 1.111,3.843 1.108,3.843 C0.971,3.87 0.888,3.979 0.922,4.088 L2.706,9.703 C2.691,10.129 2.663,10.662 2.62,11.302 C2.577,11.943 3.199,12.203 4.488,12.081 C6.069,5.029 6.907,1.296 7,0.881 C6.153,0.639 5.502,0.488 5.047,0.425 C4.672,0.373 4.083,0.406 3.279,0.523 C3.266,0.525 3.255,0.527 3.243,0.53" id="Fill-13" fill="#E4E4E4" mask="url(#mask-2)"></path>
            </g>
            <path d="M50.8856,47.8093 L43.5496,52.7023 C41.7756,55.8653 40.7166,57.2423 40.3746,56.8333 C39.8626,56.2213 40.6216,55.4553 40.3396,54.9823 C40.0576,54.5103 38.5626,54.8413 37.1566,55.2183 C35.7516,55.5953 36.0556,54.8563 36.3436,54.4653 C37.6446,53.2873 39.3266,52.1913 41.3916,51.1793 L48.3486,43.5663 L50.8856,47.8093 Z" id="Fill-16" fill="#D4A181"></path>
            <path d="M46.5995,44.5769 C52.9935,36.5729 56.7415,27.8919 59.1155,19.1269 L61.9885,19.7819 C62.3825,22.8339 64.1995,31.0859 63.3935,33.7629 C60.9915,41.7379 58.3775,42.3409 50.6395,48.3309" id="Fill-18" fill="#191847"></path>
            <path d="M65.5243,18.406 C63.1443,18.911 60.8713,19.501 59.8033,19.284 C61.4603,25.302 59.6643,31.901 56.7223,41.167 C56.5343,41.762 57.0613,43.803 57.8243,43.81 C63.9763,43.868 72.1343,42.945 82.2983,41.045 C78.1833,30.946 73.7953,23.866 65.5243,18.406" id="Fill-20" fill="#191847"></path>
            <g id="Group-24" transform="translate(46.000000, 0.000000)">
                <mask id="mask-4" fill="white">
                    <use xlink:href="#path-3"></use>
                </mask>
                <g id="Clip-23"></g>
                <path d="M10.5751,2.1433 C12.0221,1.8463 16.0981,10.9063 15.0271,15.1973 C14.9611,15.4623 14.7981,16.0193 15.0271,16.2013 C15.6281,16.6743 19.0021,14.6613 19.9741,11.6823 C21.1291,8.1453 18.5131,4.4223 16.5121,2.6463 C14.4361,0.8033 12.1671,0.2943 11.0701,0.1353 C10.2991,0.0243 5.5261,-0.6697 2.6611,2.6463 C0.7451,4.8613 -0.0779,8.5883 1.1771,9.6743 C2.7151,11.0053 7.8571,8.7783 9.5861,5.1563 C10.4041,3.4413 10.0581,2.2493 10.5751,2.1433" id="Fill-22" fill="#191847" mask="url(#mask-4)"></path>
            </g>
            <path d="M63.8573,48.531 L57.7373,54.917 C56.6783,58.394 55.9383,59.971 55.5173,59.648 C54.8863,59.163 55.4643,58.247 55.0883,57.848 C54.7123,57.449 53.3243,58.1 52.0323,58.777 C50.7403,59.454 50.8783,58.665 51.0773,58.219 C52.0953,56.784 53.5053,55.345 55.3053,53.904 L60.4763,44.945 L63.8573,48.531 Z" id="Fill-25" fill="#D4A181"></path>
            <path d="M58.9843,46.3152 C63.5213,37.0982 65.3323,27.8002 65.7833,18.7212 L68.7273,18.7302 C69.7623,21.6232 73.2943,29.2822 73.0773,32.0722 C72.4303,40.3862 70.0063,41.5482 63.7273,49.0942" id="Fill-27" fill="#191847"></path>
            <path d="M49.9843,11.8386 C49.9663,12.0936 50.0213,12.2986 50.1743,12.5056 C50.3503,12.7436 50.6703,12.6516 50.7063,12.3596 C50.7303,12.1586 50.6903,12.0136 50.5983,11.8376 C50.4263,11.5086 50.0093,11.4686 49.9843,11.8386" id="Fill-29" fill="#191847"></path>
            <path d="M49.5868,13.3435 C49.7628,13.4595 49.7198,13.8435 49.4898,14.2005 C49.2608,14.5575 48.9328,14.7525 48.7568,14.6365 C48.5808,14.5205 48.6238,14.1365 48.8528,13.7795 C49.0818,13.4225 49.4098,13.2275 49.5868,13.3435" id="Fill-31" fill="#D4A181"></path>
            <path d="M17.0282,71.1267 L14.4572,77.1057 L10.2022,77.2007 C10.2022,77.2007 10.6232,75.3027 12.1192,75.0647 L13.1002,75.0187 L13.2882,70.3197 C13.2882,70.3197 16.3742,69.5137 17.0282,71.1267" id="Fill-33" fill="#D59862"></path>
            <path d="M30.9852,67.6091 L32.0372,71.0031 C32.0372,71.0031 32.3652,71.5721 31.7562,72.7581 L29.7462,77.4081 L25.8192,77.4561 C25.8192,77.4561 26.2162,75.5571 27.8052,75.5571 C27.8052,75.5571 28.3902,75.4631 28.6242,74.5131 L28.9052,72.8051 C28.9052,72.8051 27.7362,69.2471 26.8002,69.1521 C26.8002,69.1521 29.0452,66.0671 30.9852,67.6091" id="Fill-35" fill="#D59862"></path>
            <path d="M29.0155,53.6951 C29.0155,53.6951 18.7115,56.6311 16.5365,59.5491 C16.5365,59.5491 15.9065,59.7621 15.5555,59.6201 L9.2965,66.0461 C9.2965,66.0461 11.6985,70.7951 15.2045,71.7921 C15.2045,71.7921 23.6205,73.7841 27.1275,69.7271 L30.7045,68.0901 C30.7045,68.0901 33.0665,65.3351 30.9145,54.9931 C30.9145,54.9931 29.6465,52.8411 29.0155,53.6951" id="Fill-37" fill="#D59862"></path>
            <path d="M31.7382,64.0271 L33.3352,71.0031 C33.3352,71.0031 33.6622,71.5721 33.0542,72.7581 L31.0442,77.4081 L27.1162,77.4561 C27.1162,77.4561 27.5132,75.5571 29.1032,75.5571 C29.1032,75.5571 29.6882,75.4631 29.9222,74.5131 L30.2022,72.8051 C30.2022,72.8051 29.0332,69.2471 28.0982,69.1521 C28.0982,69.1521 29.7982,62.4841 31.7382,64.0271" id="Fill-39" fill="#D59862"></path>
            <path d="M18.7587,71.9099 L16.1867,77.8889 L11.9317,77.9839 C11.9317,77.9839 12.3527,76.0859 13.8487,75.8479 L14.8307,75.8019 L15.0177,71.1029 C15.0177,71.1029 18.1037,70.2969 18.7587,71.9099" id="Fill-41" fill="#D59862"></path>
            <path d="M14.3964,63.3464 C14.4734,63.2844 17.2374,65.8224 17.2374,65.8224 C17.2374,65.8224 17.9394,66.3064 17.0544,67.2044 C17.0544,67.2044 14.9494,69.5664 14.9494,72.1494 C14.9494,72.1494 11.8564,70.1304 11.2014,69.1654 C11.2014,69.1654 9.8154,67.9004 9.9304,66.9134 C9.9304,66.9134 13.6474,63.9474 14.3964,63.3464" id="Fill-43" fill="#FFFDF6"></path>
            <path d="M25.8134,58.5632 C26.5684,57.3932 26.7924,54.3042 27.9474,54.0652 C29.4204,53.7592 30.0404,52.5722 29.6104,51.4592 C29.0324,49.9612 27.6844,49.8042 26.3364,49.5212 C24.9894,49.2382 23.5764,49.0892 22.3774,48.4022 C20.9084,47.5602 19.9434,45.9822 19.5384,44.3192 C19.1324,42.6562 20.3074,37.7802 21.3144,36.8222 C22.3214,35.8652 24.1604,35.8232 24.9734,36.9542 C25.6934,37.9542 25.4044,39.3522 24.9814,40.5142 C24.5584,41.6752 24.0244,42.9132 24.3514,44.1062 C24.8364,45.8772 32.6114,50.6552 32.7194,53.5062 C32.7844,55.2082 31.9454,57.2572 30.5844,58.2532 C29.2244,59.2502 27.3834,59.1622 25.8134,58.5632" id="Fill-45" fill="#D59862"></path>
            <path d="M11.0272,54.7009 L6.4862,57.2549 C6.4862,57.2549 4.2762,59.6269 4.8652,62.2289 C4.8652,62.2289 6.3882,65.7169 8.3732,66.7179 C8.3732,66.7179 11.3482,68.0129 11.8672,65.3479 L14.8352,62.7389 C14.8352,62.7389 18.0322,61.5409 17.1522,58.8209 L14.9942,55.5789 C14.9942,55.5789 11.9582,53.7519 11.0272,54.7009" id="Fill-47" fill="#D59862"></path>
            <path d="M15.2675,56.0027 C15.3305,55.9347 14.4805,50.4117 14.4805,50.4117 C14.4805,50.4117 14.4225,49.4357 14.0435,49.4937 C14.0435,49.4937 13.3435,50.1457 13.1685,50.4707 L10.4285,55.4107 C10.4285,55.4107 14.8305,56.4767 15.2675,56.0027" id="Fill-49" fill="#EBC6C6"></path>
            <path d="M15.4647,56.2908 C15.4647,56.2908 15.0277,51.7208 14.6547,50.0338 C14.6547,50.0338 14.2627,48.5618 13.4317,49.6568 C13.4317,49.6568 10.6327,54.3608 10.2827,55.1598 L10.5757,55.7408 C10.5757,55.7408 13.4317,50.0788 13.7807,49.8558 C13.7807,49.8558 14.1457,49.5828 14.2627,50.2338 C14.3017,50.4518 15.0057,55.9138 15.0057,55.9138 C15.0057,55.9138 14.9407,56.9118 15.4647,56.2908" id="Fill-51" fill="#D59862"></path>
            <path d="M6.7684,57.2537 C6.7184,57.1747 1.2334,56.6687 1.2334,56.6687 C1.2334,56.6687 0.2864,56.4887 0.2504,56.8767 C0.2504,56.8767 0.7034,57.7237 0.9714,57.9747 L5.0274,61.8727 C5.0274,61.8727 7.1154,57.7987 6.7684,57.2537" id="Fill-53" fill="#EBC6C6"></path>
            <g id="Group-57" transform="translate(0.000000, 56.000000)">
                <mask id="mask-6" fill="white">
                    <use xlink:href="#path-5"></use>
                </mask>
                <g id="Clip-56"></g>
                <path d="M7.0927,1.1296 C7.0927,1.1296 2.6177,0.4486 0.9157,0.4046 C0.9157,0.4046 -0.5873,0.4346 0.2577,1.5186 C0.2577,1.5186 4.3047,5.6616 4.9827,6.1996 L5.3677,5.7906 C5.3677,5.7906 0.6597,1.6206 0.5327,1.2226 C0.5327,1.2226 0.3607,0.7976 1.0107,0.8406 C1.2297,0.8556 6.6197,1.4896 6.6197,1.4896 C6.6197,1.4896 7.5587,1.7976 7.0927,1.1296" id="Fill-55" fill="#D59862" mask="url(#mask-6)"></path>
            </g>
            <path d="M10.3651,59.572 C10.6381,59.317 11.0771,59.399 11.4131,59.56 C11.7001,59.697 11.9821,59.883 12.2901,59.929 C13.1501,59.928 15.1801,59.967 15.1801,59.967 C16.1721,59.908 15.8261,62.051 15.7981,62.198 L14.0021,63.66 L12.3111,65.055 C12.1631,65.064 10.2051,65.178 10.3981,64.19 C10.3981,64.19 10.5941,62.508 10.7191,61.549 C10.6331,61.206 10.4121,60.914 10.2741,60.588 C10.1341,60.254 10.1021,59.818 10.3651,59.572" id="Fill-58" fill="#FFFDF6"></path>
            <path d="M12.3632,61.6082 C12.3632,61.6082 14.3242,62.9992 15.6392,62.0642 L15.5082,61.9582 C15.5082,61.9582 14.6392,62.7322 12.4302,61.4512 L12.3632,61.6082 Z" id="Fill-60" fill="#CED5D8"></path>
            <path d="M12.4491,61.5808 C12.4491,61.5808 12.8351,63.9768 11.4341,64.7748 L11.3961,64.6078 C11.3961,64.6078 12.4611,64.1498 12.2811,61.5738 L12.4491,61.5808 Z" id="Fill-62" fill="#CED5D8"></path>
            <path d="M11.2743,61.4851 C11.0803,61.2501 11.2083,60.8161 11.5613,60.5151 C11.9143,60.2141 12.3583,60.1621 12.5523,60.3971 C12.6593,60.5271 12.6663,60.7161 12.5933,60.9111 C12.7363,61.1381 12.6823,61.4551 12.4563,61.6481 C12.2163,61.8511 11.8783,61.8391 11.6853,61.6281 C11.5163,61.6421 11.3673,61.5971 11.2743,61.4851" id="Fill-64" fill="#F7AE8B"></path>
            <path d="M12.7714,58.447 L12.7714,58.385 C12.7714,57.834 11.9264,57.833 11.9264,58.385 L11.9264,58.447 C11.9264,58.999 12.7714,59 12.7714,58.447" id="Fill-66" fill="#2D2D2D"></path>
            <path d="M8.4139,61.4558 L8.4139,61.3938 C8.4139,60.8428 7.5689,60.8418 7.5689,61.3938 L7.5689,61.4558 C7.5689,62.0078 8.4139,62.0088 8.4139,61.4558" id="Fill-68" fill="#2D2D2D"></path>
            <path d="M49.5165,10.9402 C49.9725,10.6652 50.6185,10.2782 51.0595,10.7772 C51.3155,11.0642 51.7355,10.6412 51.4815,10.3552 C50.8405,9.6322 49.9105,10.0052 49.2155,10.4252 C48.8875,10.6242 49.1865,11.1402 49.5165,10.9402" id="Fill-70" fill="#191847"></path>
        </g>
        <g id="Group-72" transform="translate(110.000000, 0.000000)">
            <path d="M62.0466,12.042 C63.0506,9.912 63.4776,7.52 62.6786,5.183 C60.3786,-1.549 52.4876,3.057 49.6076,6.346 C46.9586,10.765 48.4236,14.342 50.4886,16.343 C51.3276,15.885 51.9196,15.551 52.2126,15.919 C52.4466,16.214 52.4926,16.975 52.1216,17.55 C52.7866,17.907 53.4246,18.097 53.9286,18.092 C54.9436,18.082 57.4406,17.979 59.1666,16.172 L60.3236,25.739 L67.9526,23.678 L62.0466,12.042 Z" id="Fill-1" fill="#D4A181"></path>
            <polygon id="Fill-3" fill="#BA8B72" points="64.1404 41.8047 40.2054 88.0337 43.2824 88.0337 57.5684 66.8557 76.6214 41.8047"></polygon>
            <g id="Group-7" transform="translate(30.000000, 85.000000)">
                <mask id="mask-8" fill="white">
                    <use xlink:href="#path-7"></use>
                </mask>
                <g id="Clip-6"></g>
                <path d="M15.1492,2.0293 C15.0322,1.8273 14.7272,1.7383 14.4692,1.8313 C13.7982,2.0733 13.2732,2.1943 12.8922,2.1943 C12.4232,2.1943 11.8142,2.0563 11.0642,1.7813 L10.6322,0.9573 C10.6312,0.9553 10.6302,0.9533 10.6292,0.9523 C10.5722,0.8493 10.4202,0.8043 10.2912,0.8493 L3.5692,3.2063 C3.0332,3.2693 2.3602,3.3403 1.5502,3.4173 C0.7412,3.4953 0.5242,4.0223 0.9002,5.0003 L15.3632,5.0003 C15.5172,4.3023 15.5942,3.7713 15.5942,3.4083 C15.5942,3.1093 15.4512,2.6583 15.1642,2.0563 C15.1592,2.0473 15.1552,2.0383 15.1492,2.0293" id="Fill-5" fill="#E4E4E4" mask="url(#mask-8)"></path>
            </g>
            <path d="M64.4763,65.3428 C69.8713,58.2848 74.9753,50.4398 79.7903,41.8048 L63.0313,41.8048 C58.7003,48.6308 54.6483,55.7138 50.8743,63.0538 C47.1023,70.3938 43.9153,77.1188 41.3163,83.2318 L47.2493,84.6428 C53.3393,78.8328 59.0813,72.3998 64.4763,65.3428" id="Fill-8" fill="#DD7045"></path>
            <path d="M65.3396,41.8047 C68.2246,50.2267 75.6736,63.9317 77.1656,65.6657 C78.1596,66.8237 87.8966,68.4497 106.3726,70.5457 L107.0376,68.4117 C91.5436,64.5027 83.6876,62.4327 83.4686,62.2007 C83.1416,61.8547 79.6726,50.6077 77.8746,41.8047 L65.3396,41.8047 Z" id="Fill-10" fill="#D4A181"></path>
            <path d="M84.5818,61.1202 C84.2838,60.6012 82.5918,52.7932 80.0658,40.4342 L64.3648,41.8052 C68.3518,56.8962 71.9018,65.6072 75.0178,67.9382 C78.1338,70.2682 86.6008,70.9572 100.4208,70.0042 L101.5918,66.5672 C90.5498,63.4552 84.8808,61.6392 84.5818,61.1202" id="Fill-12" fill="#DD7045"></path>
            <path d="M106.2429,67.5293 C105.9699,67.5863 105.8049,67.8053 105.8769,68.0213 C106.0629,68.5833 106.1229,69.0113 106.0559,69.3063 C105.9749,69.6693 105.6969,70.1173 105.2219,70.6503 L104.1159,70.8423 C104.1129,70.8423 104.1109,70.8423 104.1079,70.8423 C103.9719,70.8703 103.8879,70.9793 103.9219,71.0873 L105.7059,76.7033 C105.6909,77.1283 105.6629,77.6613 105.6199,78.3013 C105.5769,78.9423 106.1999,79.2023 107.4879,79.0813 C109.0699,72.0293 109.9069,68.2963 109.9999,67.8803 C109.1529,67.6393 108.5019,67.4883 108.0469,67.4253 C107.6719,67.3733 107.0829,67.4053 106.2789,67.5233 C106.2669,67.5253 106.2549,67.5273 106.2429,67.5293" id="Fill-14" fill="#E4E4E4"></path>
            <path d="M50.8855,47.8086 L43.5495,52.7026 C41.7755,55.8656 40.7165,57.2426 40.3745,56.8336 C39.8625,56.2216 40.6215,55.4546 40.3395,54.9826 C40.0575,54.5096 38.5635,54.8406 37.1565,55.2186 C35.7515,55.5956 36.0555,54.8566 36.3435,54.4646 C37.6445,53.2866 39.3265,52.1916 41.3915,51.1796 L48.3485,43.5666 L50.8855,47.8086 Z" id="Fill-16" fill="#D4A181"></path>
            <path d="M46.5994,44.5772 C52.9934,36.5732 56.7424,27.8922 59.1154,19.1272 L61.9894,19.7822 C62.3824,22.8332 64.2004,31.0862 63.3934,33.7632 C60.9914,41.7382 58.3774,42.3412 50.6394,48.3312" id="Fill-18" fill="#191847"></path>
            <path d="M65.5242,18.4063 C63.1442,18.9113 60.8712,19.5013 59.8032,19.2843 C61.4602,25.3023 59.6642,31.9003 56.7222,41.1673 C56.5342,41.7623 57.0612,43.8023 57.8242,43.8103 C63.9762,43.8673 72.1342,42.9453 82.2982,41.0443 C78.1832,30.9463 73.7952,23.8663 65.5242,18.4063" id="Fill-20" fill="#191847"></path>
            <g id="Group-24" transform="translate(46.000000, 0.000000)">
                <mask id="mask-10" fill="white">
                    <use xlink:href="#path-9"></use>
                </mask>
                <g id="Clip-23"></g>
                <path d="M10.575,2.1436 C12.022,1.8456 16.098,10.9066 15.027,15.1966 C14.961,15.4616 14.798,16.0196 15.027,16.2016 C15.628,16.6746 19.002,14.6616 19.974,11.6826 C21.129,8.1456 18.513,4.4226 16.512,2.6456 C14.436,0.8036 12.167,0.2946 11.07,0.1356 C10.299,0.0236 5.526,-0.6694 2.661,2.6456 C0.746,4.8616 -0.078,8.5886 1.177,9.6736 C2.715,11.0056 7.857,8.7776 9.586,5.1566 C10.405,3.4406 10.058,2.2496 10.575,2.1436" id="Fill-22" fill="#191847" mask="url(#mask-10)"></path>
            </g>
            <path d="M63.8572,48.5303 L57.7372,54.9173 C56.6782,58.3943 55.9382,59.9713 55.5172,59.6483 C54.8862,59.1623 55.4642,58.2473 55.0882,57.8473 C54.7122,57.4493 53.3242,58.0993 52.0322,58.7763 C50.7402,59.4533 50.8782,58.6653 51.0772,58.2193 C52.0962,56.7833 53.5052,55.3443 55.3052,53.9043 L60.4762,44.9453 L63.8572,48.5303 Z" id="Fill-25" fill="#D4A181"></path>
            <path d="M58.9841,46.3155 C63.5211,37.0985 65.3331,27.7995 65.7831,18.7205 L68.7281,18.7305 C69.7621,21.6235 73.2951,29.2825 73.0771,32.0725 C72.4301,40.3865 70.0071,41.5475 63.7281,49.0935" id="Fill-27" fill="#191847"></path>
            <path d="M49.9841,11.8389 C49.9661,12.0939 50.0211,12.2989 50.1741,12.5059 C50.3501,12.7439 50.6701,12.6519 50.7061,12.3599 C50.7301,12.1589 50.6901,12.0139 50.5981,11.8379 C50.4261,11.5089 50.0101,11.4689 49.9841,11.8389" id="Fill-29" fill="#191847"></path>
            <path d="M49.5867,13.3438 C49.7627,13.4598 49.7197,13.8438 49.4897,14.1998 C49.2607,14.5578 48.9327,14.7528 48.7567,14.6368 C48.5807,14.5208 48.6237,14.1368 48.8537,13.7798 C49.0817,13.4218 49.4107,13.2278 49.5867,13.3438" id="Fill-31" fill="#D4A181"></path>
            <path d="M17.0281,71.127 L14.4571,77.106 L10.2021,77.201 C10.2021,77.201 10.6231,75.303 12.1191,75.065 L13.1001,75.018 L13.2881,70.32 C13.2881,70.32 16.3741,69.514 17.0281,71.127" id="Fill-33" fill="#D59862"></path>
            <path d="M30.9851,67.6094 L32.0381,71.0024 C32.0381,71.0024 32.3651,71.5714 31.7561,72.7574 L29.7471,77.4084 L25.8191,77.4564 C25.8191,77.4564 26.2161,75.5574 27.8061,75.5574 C27.8061,75.5574 28.3901,75.4634 28.6241,74.5134 L28.9051,72.8054 C28.9051,72.8054 27.7361,69.2464 26.8001,69.1514 C26.8001,69.1514 29.0451,66.0674 30.9851,67.6094" id="Fill-35" fill="#D59862"></path>
            <path d="M29.0154,53.6954 C29.0154,53.6954 18.7114,56.6304 16.5374,59.5494 C16.5374,59.5494 15.9064,59.7614 15.5554,59.6204 L9.2964,66.0464 C9.2964,66.0464 11.6984,70.7954 15.2044,71.7914 C15.2044,71.7914 23.6204,73.7844 27.1274,69.7274 L30.7044,68.0904 C30.7044,68.0904 33.0664,65.3354 30.9144,54.9934 C30.9144,54.9934 29.9534,53.4014 29.0154,53.6954" id="Fill-37" fill="#D59862"></path>
            <path d="M31.738,64.0264 L33.335,71.0024 C33.335,71.0024 33.662,71.5714 33.054,72.7574 L31.044,77.4084 L27.116,77.4564 C27.116,77.4564 27.513,75.5574 29.103,75.5574 C29.103,75.5574 29.688,75.4634 29.922,74.5134 L30.202,72.8054 C30.202,72.8054 29.033,69.2464 28.098,69.1514 C28.098,69.1514 29.798,62.4844 31.738,64.0264" id="Fill-39" fill="#D59862"></path>
            <path d="M18.7585,71.9102 L16.1865,77.8892 L11.9325,77.9832 C11.9325,77.9832 12.3525,76.0862 13.8495,75.8482 L14.8305,75.8012 L15.0185,71.1032 C15.0185,71.1032 18.1045,70.2972 18.7585,71.9102" id="Fill-41" fill="#D59862"></path>
            <path d="M14.3962,63.3457 C14.4742,63.2837 17.2372,65.8227 17.2372,65.8227 C17.2372,65.8227 17.9392,66.3067 17.0542,67.2047 C17.0542,67.2047 14.9492,69.5667 14.9492,72.1487 C14.9492,72.1487 11.8562,70.1307 11.2012,69.1657 C11.2012,69.1657 9.8162,67.9007 9.9302,66.9137 C9.9302,66.9137 13.6472,63.9467 14.3962,63.3457" id="Fill-43" fill="#FFFDF6"></path>
            <path d="M25.4968,58.0918 C26.4388,57.0668 27.1838,54.0598 28.3618,54.0198 C29.8658,53.9678 30.6778,52.9038 30.4428,51.7348 C30.1268,50.1588 28.8248,49.7768 27.5448,49.2688 C26.2648,48.7618 24.8968,48.3748 23.8328,47.4948 C22.5258,46.4168 21.8438,44.6968 21.7258,42.9898 C21.6078,41.2818 23.5928,36.6758 24.7468,35.9028 C25.9008,35.1298 27.7198,35.4008 28.3308,36.6528 C28.8698,37.7598 28.3488,39.0888 27.7348,40.1618 C27.1218,41.2358 26.3858,42.3638 26.5058,43.5958 C26.6838,45.4238 33.5368,51.4498 33.1598,54.2788 C32.9348,55.9658 31.7618,57.8438 30.2518,58.5958 C28.7428,59.3468 26.9428,58.9468 25.4968,58.0918" id="Fill-45" fill="#D59862"></path>
            <path d="M11.0281,54.7002 L6.4861,57.2552 C6.4861,57.2552 4.2761,59.6272 4.8651,62.2282 C4.8651,62.2282 6.3881,65.7162 8.3731,66.7182 C8.3731,66.7182 11.3481,68.0132 11.8681,65.3482 L14.8351,62.7382 C14.8351,62.7382 18.0331,61.5412 17.1521,58.8212 L14.9941,55.5792 C14.9941,55.5792 11.9591,53.7522 11.0281,54.7002" id="Fill-47" fill="#D59862"></path>
            <path d="M15.2673,56.003 C15.3303,55.935 14.4803,50.411 14.4803,50.411 C14.4803,50.411 14.4223,49.436 14.0433,49.494 C14.0433,49.494 13.3433,50.146 13.1683,50.471 L10.4283,55.411 C10.4283,55.411 14.8303,56.476 15.2673,56.003" id="Fill-49" fill="#EBC6C6"></path>
            <path d="M15.4646,56.2911 C15.4646,56.2911 15.0276,51.7211 14.6556,50.0341 C14.6556,50.0341 14.2626,48.5621 13.4316,49.6571 C13.4316,49.6571 10.6326,54.3601 10.2826,55.1591 L10.5756,55.7401 C10.5756,55.7401 13.4316,50.0781 13.7806,49.8561 C13.7806,49.8561 14.1456,49.5831 14.2626,50.2331 C14.3016,50.4521 15.0056,55.9141 15.0056,55.9141 C15.0056,55.9141 14.9406,56.9121 15.4646,56.2911" id="Fill-51" fill="#D59862"></path>
            <path d="M6.7693,57.253 C6.7193,57.175 1.2333,56.669 1.2333,56.669 C1.2333,56.669 0.2863,56.489 0.2503,56.876 C0.2503,56.876 0.7033,57.724 0.9713,57.975 L5.0273,61.873 C5.0273,61.873 7.1153,57.799 6.7693,57.253" id="Fill-53" fill="#EBC6C6"></path>
            <g id="Group-57" transform="translate(0.000000, 56.000000)">
                <mask id="mask-12" fill="white">
                    <use xlink:href="#path-11"></use>
                </mask>
                <g id="Clip-56"></g>
                <path d="M7.0925,1.1299 C7.0925,1.1299 2.6175,0.4489 0.9155,0.4049 C0.9155,0.4049 -0.5875,0.4349 0.2575,1.5189 C0.2575,1.5189 4.3045,5.6609 4.9835,6.1999 L5.3685,5.7909 C5.3685,5.7909 0.6595,1.6209 0.5325,1.2229 C0.5325,1.2229 0.3605,0.7979 1.0105,0.8409 C1.2295,0.8559 6.6195,1.4899 6.6195,1.4899 C6.6195,1.4899 7.5585,1.7969 7.0925,1.1299" id="Fill-55" fill="#D59862" mask="url(#mask-12)"></path>
            </g>
            <path d="M10.365,59.5723 C10.638,59.3163 11.077,59.3993 11.413,59.5603 C11.7,59.6973 11.982,59.8833 12.29,59.9283 C13.15,59.9283 15.18,59.9673 15.18,59.9673 C16.172,59.9073 15.827,62.0503 15.798,62.1983 L14.002,63.6593 L12.311,65.0543 C12.163,65.0643 10.205,65.1783 10.398,64.1903 C10.398,64.1903 10.594,62.5073 10.719,61.5483 C10.633,61.2053 10.413,60.9133 10.275,60.5883 C10.134,60.2543 10.102,59.8173 10.365,59.5723" id="Fill-58" fill="#FFFDF6"></path>
            <path d="M12.364,61.6075 C12.364,61.6075 14.324,62.9995 15.639,62.0645 L15.508,61.9585 C15.508,61.9585 14.64,62.7325 12.43,61.4505 L12.364,61.6075 Z" id="Fill-60" fill="#CED5D8"></path>
            <path d="M12.45,61.5811 C12.45,61.5811 12.835,63.9771 11.434,64.7741 L11.397,64.6081 C11.397,64.6081 12.461,64.1501 12.281,61.5741 L12.45,61.5811 Z" id="Fill-62" fill="#CED5D8"></path>
            <path d="M11.2742,61.4854 C11.0802,61.2504 11.2092,60.8154 11.5612,60.5154 C11.9142,60.2144 12.3582,60.1624 12.5522,60.3974 C12.6592,60.5264 12.6662,60.7154 12.5932,60.9104 C12.7362,61.1374 12.6822,61.4544 12.4562,61.6474 C12.2162,61.8504 11.8782,61.8394 11.6862,61.6284 C11.5172,61.6424 11.3672,61.5974 11.2742,61.4854" id="Fill-64" fill="#F7AE8B"></path>
            <path d="M12.7712,58.4473 L12.7712,58.3853 C12.7712,57.8333 11.9262,57.8323 11.9262,58.3853 L11.9262,58.4473 C11.9262,58.9993 12.7712,59.0003 12.7712,58.4473" id="Fill-66" fill="#2D2D2D"></path>
            <path d="M8.4138,61.4561 L8.4138,61.3941 C8.4138,60.8431 7.5688,60.8421 7.5688,61.3941 L7.5688,61.4561 C7.5688,62.0081 8.4138,62.0091 8.4138,61.4561" id="Fill-68" fill="#2D2D2D"></path>
            <path d="M49.5164,10.9405 C49.9724,10.6655 50.6184,10.2785 51.0594,10.7765 C51.3154,11.0645 51.7354,10.6415 51.4814,10.3545 C50.8414,9.6325 49.9104,10.0045 49.2154,10.4255 C48.8874,10.6245 49.1864,11.1395 49.5164,10.9405" id="Fill-70" fill="#191847"></path>
        </g>
        <g id="Group-72" transform="translate(330.000000, 0.000000)">
            <path d="M62.046,12.0422 C63.05,9.9122 63.478,7.5202 62.679,5.1832 C60.379,-1.5488 52.488,3.0572 49.607,6.3462 C46.959,10.7652 48.424,14.3422 50.489,16.3422 C51.328,15.8852 51.92,15.5512 52.213,15.9192 C52.447,16.2132 52.493,16.9742 52.122,17.5502 C52.787,17.9062 53.424,18.0972 53.929,18.0922 C54.943,18.0822 57.441,17.9792 59.166,16.1722 L60.323,25.7392 L67.953,23.6782 L62.046,12.0422 Z" id="Fill-1" fill="#D4A181"></path>
            <polygon id="Fill-3" fill="#BA8B72" points="64.1407 41.8049 40.2047 88.0339 43.2827 88.0339 57.5677 66.8559 76.6217 41.8049"></polygon>
            <g id="Group-7" transform="translate(30.000000, 85.000000)">
                <mask id="mask-14" fill="white">
                    <use xlink:href="#path-13"></use>
                </mask>
                <g id="Clip-6"></g>
                <path d="M15.1495,2.0295 C15.0315,1.8275 14.7275,1.7385 14.4695,1.8315 C13.7985,2.0735 13.2725,2.1935 12.8915,2.1935 C12.4225,2.1935 11.8145,2.0565 11.0645,1.7815 L10.6325,0.9575 L10.6295,0.9515 C10.5725,0.8495 10.4205,0.8035 10.2915,0.8495 L3.5685,3.2065 C3.0335,3.2685 2.3605,3.3395 1.5505,3.4175 C0.7405,3.4955 0.5235,4.0225 0.8995,5.0005 L15.3635,5.0005 C15.5165,4.3015 15.5935,3.7715 15.5935,3.4085 C15.5935,3.1085 15.4505,2.6585 15.1645,2.0555 L15.1495,2.0295 Z" id="Fill-5" fill="#E4E4E4" mask="url(#mask-14)"></path>
            </g>
            <path d="M64.4757,65.343 C69.8707,58.285 74.9757,50.44 79.7907,41.805 L63.0317,41.805 C58.7007,48.631 54.6487,55.714 50.8747,63.054 C47.1017,70.394 43.9157,77.119 41.3157,83.231 L47.2497,84.643 C53.3397,78.833 59.0817,72.4 64.4757,65.343" id="Fill-8" fill="#DD7045"></path>
            <path d="M65.3389,41.8049 C68.2249,50.2269 75.6739,63.9319 77.1659,65.6659 C78.1599,66.8239 87.8959,68.4499 106.3729,70.5459 L107.0369,68.4119 C91.5429,64.5029 83.6869,62.4329 83.4689,62.2009 C83.1419,61.8549 79.6729,50.6079 77.8739,41.8049 L65.3389,41.8049 Z" id="Fill-10" fill="#D4A181"></path>
            <path d="M84.5821,61.1203 C84.2831,60.6003 82.5921,52.7933 80.0661,40.4343 L64.3651,41.8053 C68.3521,56.8963 71.9021,65.6073 75.0181,67.9373 C78.1331,70.2683 86.6011,70.9573 100.4201,70.0043 L101.5911,66.5673 C90.5501,63.4543 84.8801,61.6393 84.5821,61.1203" id="Fill-12" fill="#DD7045"></path>
            <g id="Group-16" transform="translate(103.000000, 67.000000)">
                <mask id="mask-16" fill="white">
                    <use xlink:href="#path-15"></use>
                </mask>
                <g id="Clip-15"></g>
                <path d="M3.2432,0.5295 C2.9692,0.5865 2.8052,0.8055 2.8762,1.0215 C3.0622,1.5835 3.1232,2.0115 3.0562,2.3065 C2.9752,2.6695 2.6972,3.1175 2.2222,3.6495 L1.1152,3.8425 C1.1132,3.8425 1.1102,3.8425 1.1082,3.8425 C0.9712,3.8705 0.8882,3.9795 0.9222,4.0875 L2.7062,9.7025 C2.6912,10.1285 2.6632,10.6615 2.6192,11.3015 C2.5762,11.9425 3.1992,12.2025 4.4882,12.0815 C6.0692,5.0295 6.9072,1.2965 7.0002,0.8805 C6.1532,0.6395 5.5022,0.4875 5.0472,0.4255 C4.6722,0.3735 4.0832,0.4055 3.2782,0.5235 C3.2662,0.5245 3.2552,0.5275 3.2432,0.5295" id="Fill-14" fill="#E4E4E4" mask="url(#mask-16)"></path>
            </g>
            <path d="M50.8848,47.8088 L43.5498,52.7018 C41.7758,55.8648 40.7168,57.2428 40.3748,56.8338 C39.8628,56.2208 40.6218,55.4548 40.3398,54.9828 C40.0578,54.5098 38.5628,54.8408 37.1568,55.2188 C35.7518,55.5958 36.0558,54.8558 36.3438,54.4648 C37.6448,53.2868 39.3268,52.1918 41.3918,51.1798 L48.3488,43.5668 L50.8848,47.8088 Z" id="Fill-17" fill="#D4A181"></path>
            <path d="M46.5997,44.5774 C52.9927,36.5734 56.7417,27.8924 59.1157,19.1274 L61.9887,19.7824 C62.3827,22.8334 64.1997,31.0864 63.3937,33.7634 C60.9917,41.7384 58.3767,42.3414 50.6387,48.3314" id="Fill-19" fill="#191847"></path>
            <path d="M65.5235,18.4065 C63.1435,18.9115 60.8715,19.5005 59.8035,19.2835 C61.4595,25.3025 59.6645,31.9005 56.7225,41.1675 C56.5335,41.7615 57.0615,43.8025 57.8245,43.8105 C63.9765,43.8675 72.1345,42.9455 82.2975,41.0445 C78.1835,30.9465 73.7945,23.8665 65.5235,18.4065" id="Fill-21" fill="#191847"></path>
            <path d="M56.5753,2.1438 C58.0223,1.8458 62.0983,10.9068 61.0273,15.1968 C60.9613,15.4618 60.7983,16.0198 61.0273,16.2008 C61.6273,16.6748 65.0013,14.6618 65.9733,11.6828 C67.1293,8.1448 64.5123,4.4228 62.5123,2.6458 C60.4353,0.8038 58.1673,0.2948 57.0703,0.1358 C56.2993,0.0238 51.5263,-0.6692 48.6603,2.6458 C46.7453,4.8618 45.9223,8.5888 47.1773,9.6738 C48.7153,11.0058 53.8573,8.7778 55.5863,5.1568 C56.4043,3.4408 56.0583,2.2498 56.5753,2.1438" id="Fill-23" fill="#191847"></path>
            <path d="M63.8565,48.5305 L57.7375,54.9175 C56.6785,58.3945 55.9385,59.9715 55.5175,59.6475 C54.8855,59.1625 55.4645,58.2475 55.0885,57.8475 C54.7115,57.4495 53.3235,58.0995 52.0325,58.7765 C50.7405,59.4535 50.8785,58.6645 51.0775,58.2195 C52.0955,56.7835 53.5055,55.3445 55.3055,53.9045 L60.4765,44.9445 L63.8565,48.5305 Z" id="Fill-25" fill="#D4A181"></path>
            <path d="M58.9835,46.3156 C63.5215,37.0976 65.3325,27.7996 65.7835,18.7206 L68.7275,18.7306 C69.7625,21.6236 73.2945,29.2816 73.0775,32.0726 C72.4305,40.3856 70.0065,41.5476 63.7275,49.0936" id="Fill-27" fill="#191847"></path>
            <path d="M49.9845,11.8391 C49.9665,12.0941 50.0215,12.2991 50.1735,12.5061 C50.3505,12.7441 50.6705,12.6521 50.7055,12.3601 C50.7305,12.1581 50.6905,12.0141 50.5985,11.8381 C50.4255,11.5091 50.0095,11.4691 49.9845,11.8391" id="Fill-29" fill="#191847"></path>
            <path d="M49.586,13.343 C49.763,13.46 49.719,13.844 49.49,14.2 C49.261,14.558 48.933,14.753 48.757,14.637 C48.58,14.521 48.624,14.137 48.853,13.78 C49.082,13.422 49.41,13.227 49.586,13.343" id="Fill-31" fill="#D4A181"></path>
            <path d="M17.0284,71.1272 L14.4574,77.1062 L10.2024,77.2002 C10.2024,77.2002 10.6234,75.3032 12.1194,75.0652 L13.1004,75.0182 L13.2884,70.3202 C13.2884,70.3202 16.3744,69.5142 17.0284,71.1272" id="Fill-33" fill="#D59862"></path>
            <path d="M30.9854,67.6096 L32.0374,71.0026 C32.0374,71.0026 32.3644,71.5716 31.7564,72.7576 L29.7464,77.4086 L25.8184,77.4566 C25.8184,77.4566 26.2154,75.5576 27.8054,75.5576 C27.8054,75.5576 28.3904,75.4636 28.6244,74.5136 L28.9044,72.8056 C28.9044,72.8056 27.7354,69.2466 26.8004,69.1516 C26.8004,69.1516 29.0454,66.0676 30.9854,67.6096" id="Fill-35" fill="#D59862"></path>
            <path d="M29.0157,53.6955 C29.0157,53.6955 18.7117,56.6305 16.5367,59.5495 C16.5367,59.5495 15.9067,59.7615 15.5557,59.6195 L9.2957,66.0465 C9.2957,66.0465 11.6987,70.7955 15.2047,71.7915 C15.2047,71.7915 23.6207,73.7845 27.1277,69.7265 L30.7037,68.0905 C30.7037,68.0905 33.0667,65.3355 30.9147,54.9935 C30.9147,54.9935 29.9957,53.5865 29.0157,53.6955" id="Fill-37" fill="#D59862"></path>
            <path d="M31.7374,64.0266 L33.3354,71.0026 C33.3354,71.0026 33.6624,71.5716 33.0544,72.7576 L31.0444,77.4086 L27.1164,77.4566 C27.1164,77.4566 27.5134,75.5576 29.1034,75.5576 C29.1034,75.5576 29.6874,75.4636 29.9224,74.5136 L30.2024,72.8056 C30.2024,72.8056 29.0334,69.2466 28.0974,69.1516 C28.0974,69.1516 29.7974,62.4846 31.7374,64.0266" id="Fill-39" fill="#D59862"></path>
            <path d="M18.7579,71.9104 L16.1869,77.8894 L11.9319,77.9834 C11.9319,77.9834 12.3529,76.0864 13.8489,75.8484 L14.8309,75.8014 L15.0179,71.1034 C15.0179,71.1034 18.1039,70.2964 18.7579,71.9104" id="Fill-41" fill="#D59862"></path>
            <path d="M14.3966,63.3459 C14.4736,63.2839 17.2376,65.8229 17.2376,65.8229 C17.2376,65.8229 17.9396,66.3069 17.0546,67.2049 C17.0546,67.2049 14.9496,69.5659 14.9496,72.1489 C14.9496,72.1489 11.8566,70.1309 11.2006,69.1649 C11.2006,69.1649 9.8156,67.8999 9.9296,66.9139 C9.9296,66.9139 13.6466,63.9469 14.3966,63.3459" id="Fill-43" fill="#FFFDF6"></path>
            <path d="M25.0968,56.3342 C26.4038,55.8532 28.4388,53.5172 29.5048,54.0182 C30.8668,54.6582 32.0748,54.0812 32.3998,52.9342 C32.8368,51.3892 31.8528,50.4532 30.9458,49.4182 C30.0368,48.3822 28.9968,47.4152 28.4508,46.1462 C27.7818,44.5902 27.9578,42.7492 28.6328,41.1762 C29.3068,39.6032 33.1748,36.4082 34.5548,36.2472 C35.9348,36.0862 37.4298,37.1572 37.4018,38.5502 C37.3758,39.7812 36.3048,40.7272 35.2698,41.4012 C34.2348,42.0762 33.0648,42.7452 32.6098,43.8962 C31.9338,45.6042 35.2828,54.0932 33.6568,56.4382 C32.6868,57.8362 30.7848,58.9732 29.0988,58.9522 C27.4128,58.9322 25.9928,57.7562 25.0968,56.3342" id="Fill-45" fill="#D59862"></path>
            <path d="M11.0274,54.7004 L6.4864,57.2554 C6.4864,57.2554 4.2754,59.6274 4.8644,62.2284 C4.8644,62.2284 6.3874,65.7164 8.3724,66.7184 C8.3724,66.7184 11.3484,68.0124 11.8674,65.3484 L14.8354,62.7384 C14.8354,62.7384 18.0324,61.5414 17.1524,58.8214 L14.9944,55.5794 C14.9944,55.5794 11.9584,53.7524 11.0274,54.7004" id="Fill-47" fill="#D59862"></path>
            <path d="M15.2677,56.0022 C15.3307,55.9352 14.4807,50.4112 14.4807,50.4112 C14.4807,50.4112 14.4217,49.4352 14.0427,49.4942 C14.0427,49.4942 13.3437,50.1452 13.1687,50.4712 L10.4287,55.4112 C10.4287,55.4112 14.8307,56.4762 15.2677,56.0022" id="Fill-49" fill="#EBC6C6"></path>
            <path d="M15.4649,56.2912 C15.4649,56.2912 15.0279,51.7212 14.6549,50.0342 C14.6549,50.0342 14.2619,48.5622 13.4319,49.6572 C13.4319,49.6572 10.6329,54.3602 10.2829,55.1592 L10.5759,55.7402 C10.5759,55.7402 13.4319,50.0782 13.7809,49.8562 C13.7809,49.8562 14.1459,49.5832 14.2619,50.2332 C14.3009,50.4522 15.0049,55.9142 15.0049,55.9142 C15.0049,55.9142 14.9399,56.9122 15.4649,56.2912" id="Fill-51" fill="#D59862"></path>
            <path d="M6.7686,57.2531 C6.7186,57.1751 1.2336,56.6691 1.2336,56.6691 C1.2336,56.6691 0.2866,56.4891 0.2506,56.8761 C0.2506,56.8761 0.7036,57.7241 0.9716,57.9751 L5.0276,61.8731 C5.0276,61.8731 7.1156,57.7991 6.7686,57.2531" id="Fill-53" fill="#EBC6C6"></path>
            <g id="Group-57" transform="translate(0.000000, 56.000000)">
                <mask id="mask-18" fill="white">
                    <use xlink:href="#path-17"></use>
                </mask>
                <g id="Clip-56"></g>
                <path d="M7.0928,1.1301 C7.0928,1.1301 2.6168,0.4491 0.9148,0.4051 C0.9148,0.4051 -0.5872,0.4351 0.2578,1.5191 C0.2578,1.5191 4.3048,5.6611 4.9828,6.2001 L5.3678,5.7901 C5.3678,5.7901 0.6598,1.6211 0.5328,1.2231 C0.5328,1.2231 0.3608,0.7981 1.0108,0.8411 C1.2288,0.8561 6.6198,1.4891 6.6198,1.4891 C6.6198,1.4891 7.5588,1.7971 7.0928,1.1301" id="Fill-55" fill="#D59862" mask="url(#mask-18)"></path>
            </g>
            <path d="M10.3653,59.5725 C10.6383,59.3165 11.0773,59.3995 11.4133,59.5595 C11.7003,59.6975 11.9823,59.8835 12.2893,59.9285 C13.1503,59.9275 15.1803,59.9675 15.1803,59.9675 C16.1713,59.9075 15.8263,62.0505 15.7973,62.1985 L14.0023,63.6595 L12.3103,65.0545 C12.1633,65.0635 10.2053,65.1785 10.3973,64.1905 C10.3973,64.1905 10.5943,62.5075 10.7193,61.5485 C10.6333,61.2055 10.4123,60.9135 10.2743,60.5875 C10.1343,60.2545 10.1023,59.8175 10.3653,59.5725" id="Fill-58" fill="#FFFDF6"></path>
            <path d="M12.3634,61.6076 C12.3634,61.6076 14.3244,62.9996 15.6394,62.0646 L15.5084,61.9586 C15.5084,61.9586 14.6394,62.7316 12.4304,61.4506 L12.3634,61.6076 Z" id="Fill-60" fill="#CED5D8"></path>
            <path d="M12.4493,61.5813 C12.4493,61.5813 12.8343,63.9773 11.4343,64.7743 L11.3963,64.6083 C11.3963,64.6083 12.4613,64.1503 12.2813,61.5733 L12.4493,61.5813 Z" id="Fill-62" fill="#CED5D8"></path>
            <path d="M11.2745,61.4856 C11.0805,61.2506 11.2085,60.8156 11.5615,60.5146 C11.9145,60.2146 12.3575,60.1626 12.5525,60.3976 C12.6595,60.5266 12.6665,60.7156 12.5935,60.9106 C12.7365,61.1376 12.6825,61.4546 12.4565,61.6476 C12.2165,61.8506 11.8785,61.8396 11.6855,61.6286 C11.5165,61.6416 11.3675,61.5976 11.2745,61.4856" id="Fill-64" fill="#F7AE8B"></path>
            <path d="M12.7716,58.4465 L12.7716,58.3845 C12.7716,57.8335 11.9256,57.8325 11.9256,58.3845 L11.9256,58.4465 C11.9256,58.9995 12.7716,59.0005 12.7716,58.4465" id="Fill-66" fill="#2D2D2D"></path>
            <path d="M8.4141,61.4563 L8.4141,61.3943 C8.4141,60.8423 7.5691,60.8423 7.5691,61.3943 L7.5691,61.4563 C7.5691,62.0083 8.4141,62.0093 8.4141,61.4563" id="Fill-68" fill="#2D2D2D"></path>
            <path d="M49.5167,10.9406 C49.9727,10.6646 50.6177,10.2786 51.0597,10.7766 C51.3147,11.0646 51.7357,10.6416 51.4817,10.3546 C50.8407,9.6326 49.9107,10.0046 49.2147,10.4246 C48.8867,10.6246 49.1867,11.1396 49.5167,10.9406" id="Fill-70" fill="#191847"></path>
        </g>
        <g id="Group-72" transform="translate(220.000000, 0.000000)">
            <path d="M62.046,12.0422 C63.05,9.9122 63.477,7.5202 62.679,5.1832 C60.378,-1.5488 52.488,3.0572 49.607,6.3462 C46.958,10.7652 48.423,14.3422 50.489,16.3422 C51.328,15.8852 51.92,15.5512 52.213,15.9192 C52.447,16.2132 52.493,16.9742 52.122,17.5502 C52.787,17.9062 53.424,18.0972 53.929,18.0922 C54.943,18.0822 57.441,17.9792 59.166,16.1722 L60.323,25.7392 L67.952,23.6782 L62.046,12.0422 Z" id="Fill-1" fill="#D4A181"></path>
            <polygon id="Fill-3" fill="#BA8B72" points="64.1407 41.8049 40.2047 88.0339 43.2827 88.0339 57.5677 66.8559 76.6217 41.8049"></polygon>
            <g id="Group-7" transform="translate(30.000000, 85.000000)">
                <mask id="mask-20" fill="white">
                    <use xlink:href="#path-19"></use>
                </mask>
                <g id="Clip-6"></g>
                <path d="M15.1495,2.0295 C15.0315,1.8275 14.7265,1.7385 14.4695,1.8315 C13.7985,2.0735 13.2725,2.1935 12.8915,2.1935 C12.4225,2.1935 11.8145,2.0565 11.0645,1.7815 L10.6315,0.9575 C10.6315,0.9555 10.6305,0.9535 10.6295,0.9515 C10.5715,0.8495 10.4205,0.8035 10.2915,0.8495 L3.5685,3.2065 C3.0335,3.2685 2.3605,3.3395 1.5505,3.4175 C0.7405,3.4955 0.5235,4.0225 0.8995,5.0005 L15.3625,5.0005 C15.5165,4.3015 15.5935,3.7715 15.5935,3.4085 C15.5935,3.1085 15.4505,2.6585 15.1635,2.0555 C15.1595,2.0475 15.1545,2.0385 15.1495,2.0295" id="Fill-5" fill="#E4E4E4" mask="url(#mask-20)"></path>
            </g>
            <path d="M64.4757,65.343 C69.8707,58.285 74.9757,50.44 79.7897,41.805 L63.0317,41.805 C58.7007,48.631 54.6477,55.714 50.8747,63.054 C47.1017,70.394 43.9147,77.119 41.3157,83.231 L47.2497,84.643 C53.3397,78.833 59.0807,72.4 64.4757,65.343" id="Fill-8" fill="#DD7045"></path>
            <path d="M65.339,41.8049 C68.225,50.2269 75.674,63.9319 77.165,65.6659 C78.16,66.8239 87.896,68.4499 106.373,70.5459 L107.037,68.4119 C91.543,64.5029 83.687,62.4329 83.469,62.2009 C83.142,61.8549 79.673,50.6079 77.874,41.8049 L65.339,41.8049 Z" id="Fill-10" fill="#D4A181"></path>
            <path d="M84.5821,61.1203 C84.2831,60.6003 82.5921,52.7933 80.0661,40.4343 L64.3651,41.8053 C68.3511,56.8963 71.9011,65.6073 75.0181,67.9373 C78.1331,70.2683 86.6011,70.9573 100.4201,70.0043 L101.5911,66.5673 C90.5501,63.4543 84.8801,61.6393 84.5821,61.1203" id="Fill-12" fill="#DD7045"></path>
            <g id="Group-16" transform="translate(103.000000, 67.000000)">
                <mask id="mask-22" fill="white">
                    <use xlink:href="#path-21"></use>
                </mask>
                <g id="Clip-15"></g>
                <path d="M3.2433,0.5295 C2.9693,0.5865 2.8053,0.8055 2.8763,1.0215 C3.0623,1.5835 3.1233,2.0115 3.0563,2.3065 C2.9753,2.6695 2.6973,3.1175 2.2223,3.6495 L1.1153,3.8425 C1.1133,3.8425 1.1103,3.8425 1.1083,3.8425 C0.9713,3.8705 0.8883,3.9795 0.9223,4.0875 L2.7063,9.7025 C2.6913,10.1285 2.6623,10.6615 2.6193,11.3015 C2.5763,11.9425 3.1993,12.2025 4.4883,12.0815 C6.0693,5.0295 6.9063,1.2965 7.0003,0.8805 C6.1533,0.6395 5.5023,0.4875 5.0463,0.4255 C4.6723,0.3735 4.0833,0.4055 3.2783,0.5235 C3.2663,0.5245 3.2553,0.5275 3.2433,0.5295" id="Fill-14" fill="#E4E4E4" mask="url(#mask-22)"></path>
            </g>
            <path d="M50.8849,47.8088 L43.5499,52.7018 C41.7759,55.8648 40.7169,57.2428 40.3749,56.8338 C39.8629,56.2208 40.6209,55.4548 40.3389,54.9828 C40.0569,54.5098 38.5629,54.8408 37.1569,55.2188 C35.7519,55.5958 36.0559,54.8558 36.3439,54.4648 C37.6449,53.2868 39.3269,52.1918 41.3919,51.1798 L48.3489,43.5668 L50.8849,47.8088 Z" id="Fill-17" fill="#D4A181"></path>
            <path d="M46.5987,44.5774 C52.9927,36.5734 56.7417,27.8924 59.1157,19.1274 L61.9887,19.7824 C62.3827,22.8334 64.1997,31.0864 63.3937,33.7634 C60.9917,41.7384 58.3767,42.3414 50.6387,48.3314" id="Fill-19" fill="#191847"></path>
            <path d="M65.5235,18.4065 C63.1435,18.9115 60.8715,19.5005 59.8035,19.2835 C61.4595,25.3025 59.6645,31.9005 56.7225,41.1675 C56.5335,41.7615 57.0615,43.8025 57.8235,43.8105 C63.9765,43.8675 72.1335,42.9455 82.2975,41.0445 C78.1835,30.9465 73.7945,23.8665 65.5235,18.4065" id="Fill-21" fill="#191847"></path>
            <path d="M56.5753,2.1438 C58.0223,1.8458 62.0983,10.9068 61.0273,15.1968 C60.9613,15.4618 60.7983,16.0198 61.0273,16.2008 C61.6273,16.6748 65.0013,14.6618 65.9733,11.6828 C67.1293,8.1448 64.5123,4.4228 62.5113,2.6458 C60.4353,0.8038 58.1673,0.2948 57.0693,0.1358 C56.2983,0.0238 51.5253,-0.6692 48.6603,2.6458 C46.7453,4.8618 45.9223,8.5888 47.1773,9.6738 C48.7153,11.0058 53.8563,8.7778 55.5863,5.1568 C56.4043,3.4408 56.0583,2.2498 56.5753,2.1438" id="Fill-23" fill="#191847"></path>
            <path d="M63.8566,48.5305 L57.7376,54.9175 C56.6776,58.3945 55.9386,59.9715 55.5176,59.6475 C54.8856,59.1625 55.4646,58.2475 55.0876,57.8475 C54.7116,57.4495 53.3236,58.0995 52.0316,58.7765 C50.7406,59.4535 50.8786,58.6645 51.0776,58.2195 C52.0956,56.7835 53.5046,55.3445 55.3056,53.9045 L60.4766,44.9445 L63.8566,48.5305 Z" id="Fill-25" fill="#D4A181"></path>
            <path d="M58.9835,46.3156 C63.5215,37.0976 65.3325,27.7996 65.7825,18.7206 L68.7275,18.7306 C69.7625,21.6236 73.2945,29.2816 73.0775,32.0726 C72.4305,40.3856 70.0065,41.5476 63.7275,49.0936" id="Fill-27" fill="#191847"></path>
            <path d="M49.9845,11.8391 C49.9655,12.0941 50.0215,12.2991 50.1735,12.5061 C50.3495,12.7441 50.6705,12.6521 50.7055,12.3601 C50.7295,12.1581 50.6905,12.0141 50.5985,11.8381 C50.4255,11.5091 50.0095,11.4691 49.9845,11.8391" id="Fill-29" fill="#191847"></path>
            <path d="M49.586,13.343 C49.762,13.46 49.719,13.844 49.49,14.2 C49.261,14.558 48.933,14.753 48.756,14.637 C48.58,14.521 48.623,14.137 48.853,13.78 C49.082,13.422 49.41,13.227 49.586,13.343" id="Fill-31" fill="#D4A181"></path>
            <path d="M17.0284,71.1272 L14.4574,77.1062 L10.2024,77.2002 C10.2024,77.2002 10.6224,75.3032 12.1194,75.0652 L13.1004,75.0182 L13.2884,70.3202 C13.2884,70.3202 16.3744,69.5142 17.0284,71.1272" id="Fill-33" fill="#D59862"></path>
            <path d="M30.9855,67.6096 L32.0375,71.0026 C32.0375,71.0026 32.3645,71.5716 31.7565,72.7576 L29.7465,77.4086 L25.8185,77.4566 C25.8185,77.4566 26.2155,75.5576 27.8055,75.5576 C27.8055,75.5576 28.3905,75.4636 28.6245,74.5136 L28.9045,72.8056 C28.9045,72.8056 27.7355,69.2466 26.8005,69.1516 C26.8005,69.1516 29.0455,66.0676 30.9855,67.6096" id="Fill-35" fill="#D59862"></path>
            <path d="M29.0148,53.6955 C29.0148,53.6955 18.7108,56.6305 16.5368,59.5495 C16.5368,59.5495 15.9068,59.7615 15.5558,59.6195 L9.2958,66.0465 C9.2958,66.0465 11.6988,70.7955 15.2048,71.7915 C15.2048,71.7915 23.6208,73.7845 27.1278,69.7265 L30.7038,68.0905 C30.7038,68.0905 33.0658,65.3355 30.9148,54.9935 C30.9148,54.9935 29.9188,53.3665 29.0148,53.6955" id="Fill-37" fill="#D59862"></path>
            <path d="M31.7374,64.0266 L33.3354,71.0026 C33.3354,71.0026 33.6624,71.5716 33.0534,72.7576 L31.0444,77.4086 L27.1164,77.4566 C27.1164,77.4566 27.5134,75.5576 29.1034,75.5576 C29.1034,75.5576 29.6874,75.4636 29.9224,74.5136 L30.2024,72.8056 C30.2024,72.8056 29.0334,69.2466 28.0974,69.1516 C28.0974,69.1516 29.7974,62.4846 31.7374,64.0266" id="Fill-39" fill="#D59862"></path>
            <path d="M18.7579,71.9104 L16.1869,77.8894 L11.9319,77.9834 C11.9319,77.9834 12.3529,76.0864 13.8489,75.8484 L14.8309,75.8014 L15.0179,71.1034 C15.0179,71.1034 18.1039,70.2964 18.7579,71.9104" id="Fill-41" fill="#D59862"></path>
            <path d="M14.3966,63.3459 C14.4736,63.2839 17.2376,65.8229 17.2376,65.8229 C17.2376,65.8229 17.9396,66.3069 17.0546,67.2049 C17.0546,67.2049 14.9496,69.5659 14.9496,72.1489 C14.9496,72.1489 11.8566,70.1309 11.2006,69.1649 C11.2006,69.1649 9.8156,67.8999 9.9296,66.9139 C9.9296,66.9139 13.6466,63.9469 14.3966,63.3459" id="Fill-43" fill="#FFFDF6"></path>
            <path d="M25.211,57.3059 C26.37,56.5349 27.809,53.7909 28.962,54.0329 C30.436,54.3399 31.478,53.4989 31.527,52.3069 C31.595,50.7029 30.421,50.0209 29.299,49.2239 C28.176,48.4259 26.94,47.7259 26.115,46.6179 C25.104,45.2589 24.849,43.4279 25.141,41.7409 C25.433,40.0539 28.455,36.0519 29.761,35.5759 C31.065,35.0989 32.768,35.7949 33.063,37.1569 C33.324,38.3609 32.501,39.5279 31.649,40.4239 C30.799,41.3209 29.815,42.2419 29.639,43.4659 C29.378,45.2849 34.6,52.7679 33.562,55.4249 C32.942,57.0099 31.355,58.5559 29.71,58.9259 C28.065,59.2969 26.412,58.4819 25.211,57.3059" id="Fill-45" fill="#D59862"></path>
            <path d="M49.5167,10.9406 C49.9727,10.6646 50.6177,10.2786 51.0597,10.7766 C51.3147,11.0646 51.7357,10.6416 51.4817,10.3546 C50.8407,9.6326 49.9097,10.0046 49.2147,10.4246 C48.8867,10.6246 49.1867,11.1396 49.5167,10.9406" id="Fill-47" fill="#191847"></path>
            <path d="M11.0275,54.7004 L6.4865,57.2554 C6.4865,57.2554 4.2755,59.6274 4.8645,62.2284 C4.8645,62.2284 6.3875,65.7164 8.3725,66.7184 C8.3725,66.7184 11.3485,68.0124 11.8675,65.3484 L14.8355,62.7384 C14.8355,62.7384 18.0325,61.5414 17.1525,58.8214 L14.9945,55.5794 C14.9945,55.5794 11.9585,53.7524 11.0275,54.7004" id="Fill-49" fill="#D59862"></path>
            <path d="M15.2677,56.0022 C15.3307,55.9352 14.4807,50.4112 14.4807,50.4112 C14.4807,50.4112 14.4217,49.4352 14.0427,49.4942 C14.0427,49.4942 13.3437,50.1452 13.1687,50.4712 L10.4287,55.4112 C10.4287,55.4112 14.8307,56.4762 15.2677,56.0022" id="Fill-51" fill="#EBC6C6"></path>
            <path d="M15.465,56.2912 C15.465,56.2912 15.028,51.7212 14.655,50.0342 C14.655,50.0342 14.262,48.5622 13.432,49.6572 C13.432,49.6572 10.633,54.3602 10.283,55.1592 L10.576,55.7402 C10.576,55.7402 13.432,50.0782 13.781,49.8562 C13.781,49.8562 14.146,49.5832 14.262,50.2332 C14.301,50.4522 15.005,55.9142 15.005,55.9142 C15.005,55.9142 14.94,56.9122 15.465,56.2912" id="Fill-53" fill="#D59862"></path>
            <path d="M6.7687,57.2531 C6.7187,57.1751 1.2337,56.6691 1.2337,56.6691 C1.2337,56.6691 0.2867,56.4891 0.2507,56.8761 C0.2507,56.8761 0.7037,57.7241 0.9707,57.9751 L5.0277,61.8731 C5.0277,61.8731 7.1157,57.7991 6.7687,57.2531" id="Fill-55" fill="#EBC6C6"></path>
            <g id="Group-59" transform="translate(0.000000, 56.000000)">
                <mask id="mask-24" fill="white">
                    <use xlink:href="#path-23"></use>
                </mask>
                <g id="Clip-58"></g>
                <path d="M7.0929,1.1301 C7.0929,1.1301 2.6169,0.4491 0.9149,0.4051 C0.9149,0.4051 -0.5871,0.4351 0.2579,1.5191 C0.2579,1.5191 4.3049,5.6611 4.9829,6.2001 L5.3679,5.7901 C5.3679,5.7901 0.6599,1.6211 0.5329,1.2231 C0.5329,1.2231 0.3609,0.7981 1.0109,0.8411 C1.2289,0.8561 6.6199,1.4891 6.6199,1.4891 C6.6199,1.4891 7.5589,1.7971 7.0929,1.1301" id="Fill-57" fill="#D59862" mask="url(#mask-24)"></path>
            </g>
            <path d="M10.3653,59.5725 C10.6383,59.3165 11.0773,59.3995 11.4133,59.5595 C11.7003,59.6975 11.9823,59.8835 12.2893,59.9285 C13.1503,59.9275 15.1803,59.9675 15.1803,59.9675 C16.1713,59.9075 15.8263,62.0505 15.7973,62.1985 L14.0023,63.6595 L12.3103,65.0545 C12.1623,65.0635 10.2053,65.1785 10.3973,64.1905 C10.3973,64.1905 10.5943,62.5075 10.7193,61.5485 C10.6333,61.2055 10.4123,60.9135 10.2743,60.5875 C10.1343,60.2545 10.1023,59.8175 10.3653,59.5725" id="Fill-60" fill="#FFFDF6"></path>
            <path d="M12.3634,61.6076 C12.3634,61.6076 14.3244,62.9996 15.6394,62.0646 L15.5084,61.9586 C15.5084,61.9586 14.6394,62.7316 12.4304,61.4506 L12.3634,61.6076 Z" id="Fill-62" fill="#CED5D8"></path>
            <path d="M12.4493,61.5813 C12.4493,61.5813 12.8343,63.9773 11.4343,64.7743 L11.3963,64.6083 C11.3963,64.6083 12.4613,64.1503 12.2813,61.5733 L12.4493,61.5813 Z" id="Fill-64" fill="#CED5D8"></path>
            <path d="M11.2745,61.4856 C11.0805,61.2506 11.2085,60.8156 11.5615,60.5146 C11.9145,60.2146 12.3575,60.1626 12.5525,60.3976 C12.6595,60.5266 12.6665,60.7156 12.5935,60.9106 C12.7365,61.1376 12.6825,61.4546 12.4555,61.6476 C12.2165,61.8506 11.8785,61.8396 11.6855,61.6286 C11.5165,61.6416 11.3675,61.5976 11.2745,61.4856" id="Fill-66" fill="#F7AE8B"></path>
            <path d="M12.7716,58.4465 L12.7716,58.3845 C12.7716,57.8335 11.9256,57.8325 11.9256,58.3845 L11.9256,58.4465 C11.9256,58.9995 12.7716,59.0005 12.7716,58.4465" id="Fill-68" fill="#2D2D2D"></path>
            <path d="M8.4142,61.4563 L8.4142,61.3943 C8.4142,60.8423 7.5682,60.8423 7.5682,61.3943 L7.5682,61.4563 C7.5682,62.0083 8.4142,62.0093 8.4142,61.4563" id="Fill-70" fill="#2D2D2D"></path>
        </g>
    </g>
</svg>