<?xml version="1.0" encoding="UTF-8"?>
<svg width="540px" height="180px" viewBox="0 0 540 180" version="1.1" xmlns="http://www.w3.org/2000/svg" xmlns:xlink="http://www.w3.org/1999/xlink">
    <!-- Generator: Sketch 52.6 (67491) - http://www.bohemiancoding.com/sketch -->
    <title>workout</title>
    <desc>Created with Sketch.</desc>
    <defs>
        <polygon id="path-1" points="0.467572602 0.0491214477 31 0.0491214477 31 17.5205211 0.467572602 17.5205211"></polygon>
        <polygon id="path-3" points="0.669000812 0 26.9656955 0 26.9656955 16.5792102 0.669000812 16.5792102"></polygon>
        <polygon id="path-5" points="0 180 180 180 180 0 0 0"></polygon>
        <polygon id="path-7" points="0.467572602 0.0491214477 31 0.0491214477 31 17.5205211 0.467572602 17.5205211"></polygon>
        <polygon id="path-9" points="0.669000812 0 26.9656955 0 26.9656955 16.5792102 0.669000812 16.5792102"></polygon>
        <polygon id="path-11" points="0 180 180 180 180 0 0 0"></polygon>
        <polygon id="path-13" points="0.467572602 0.0491214477 31 0.0491214477 31 17.5205211 0.467572602 17.5205211"></polygon>
        <polygon id="path-15" points="0.669000812 0 26.9656955 0 26.9656955 16.5792102 0.669000812 16.5792102"></polygon>
        <polygon id="path-17" points="0 180 180 180 180 0 0 0"></polygon>
    </defs>
    <g id="workout" stroke="none" stroke-width="1" fill="none" fill-rule="evenodd">
        <g id="Group-54">
            <path d="M161.355,15.2627 C161.717,13.0607 161.581,10.7297 161.273,8.8887 C160.444,3.9277 148.848,-3.1183 145.45,5.0027 C144.27,7.8207 144.609,10.8077 145.687,13.5167 L137.413,27.3977 L146.733,30.5577 L148.937,18.8457 C150.938,21.2147 152.289,22.2987 153.553,22.3107 C155.376,22.3277 156.808,21.9147 157.928,21.2107 C157.599,20.9967 157.394,20.7137 157.394,20.4007 C157.394,19.7377 158.289,19.2007 159.393,19.2007 C159.573,19.2007 159.744,19.2187 159.909,19.2447 C160.249,18.7307 160.524,18.1667 160.749,17.5757 C160.827,17.5917 160.908,17.5997 160.992,17.5997 C161.654,17.5997 162.19,17.0627 162.19,16.4007 C162.19,15.8657 161.838,15.4167 161.355,15.2627" id="Fill-1" fill="#E5BDA1"></path>
            <g id="Group-5" transform="translate(149.000000, 26.000000)">
                <mask id="mask-2" fill="white">
                    <use xlink:href="#path-1"></use>
                </mask>
                <g id="Clip-4"></g>
                <path d="M1.6333,4.0703 L27.7733,17.2913 C28.8453,17.8343 30.1543,17.3783 30.6573,16.2853 L30.8043,15.9673 C31.2873,14.9203 30.8463,13.6773 29.8123,13.1703 L3.5263,0.2663 C2.4853,-0.2437 1.2283,0.1743 0.7003,1.2083 C0.1653,2.2563 0.5843,3.5393 1.6333,4.0703" id="Fill-3" fill="#FACD43" mask="url(#mask-2)"></path>
            </g>
            <path d="M160.2906,83.5537 L179.6866,42.1687 C180.1716,41.1347 179.7266,39.9027 178.6916,39.4157 L178.2626,39.2147 C177.2276,38.7287 175.9926,39.1747 175.5076,40.2097 L156.1116,81.5947 C155.6266,82.6297 156.0716,83.8627 157.1056,84.3477 L157.5356,84.5497 C158.5706,85.0357 159.8056,84.5897 160.2906,83.5537" id="Fill-6" fill="#FACD43"></path>
            <polygon id="Fill-8" fill="#FACD43" points="167.1412 165.4072 134.8862 63.1052 129.5192 64.8012 161.7732 167.1022"></polygon>
            <path d="M78.9332,160.2168 L107.4402,167.8208 C109.4672,168.3628 111.5682,167.1458 112.1072,165.1178 L112.3902,164.0568 C112.9292,162.0308 111.7132,159.9318 109.6882,159.3918 L81.1812,151.7868 C79.1542,151.2458 77.0532,152.4628 76.5142,154.4898 L76.2312,155.5518 C75.6922,157.5768 76.9082,159.6768 78.9332,160.2168" id="Fill-10" fill="#FACD43"></path>
            <path d="M143.8072,167.0742 L173.3092,167.0742 C175.4062,167.0742 177.1212,165.3582 177.1212,163.2612 L177.1212,162.1632 C177.1212,160.0652 175.4062,158.3492 173.3092,158.3492 L143.8072,158.3492 C141.7092,158.3492 139.9942,160.0652 139.9942,162.1632 L139.9942,163.2612 C139.9942,165.3582 141.7092,167.0742 143.8072,167.0742" id="Fill-12" fill="#FACD43"></path>
            <g id="Group-16" transform="translate(136.000000, 0.000000)">
                <mask id="mask-4" fill="white">
                    <use xlink:href="#path-3"></use>
                </mask>
                <g id="Clip-15"></g>
                <path d="M13.1109,14.0254 C11.2039,15.8544 9.0399,16.9844 7.4419,16.4434 C4.4089,15.4144 3.6269,10.6244 5.1029,6.2594 C5.1549,6.1064 5.2099,5.9564 5.2669,5.8064 C-0.2031,10.0324 0.4429,5.1844 1.0889,3.2464 C3.0169,-2.5446 4.9869,0.9044 6.9129,2.8784 C7.8099,1.7384 8.8789,0.8874 9.9909,0.4174 C10.2749,0.2544 10.6669,0.1404 11.1429,0.0724 C11.4379,0.0204 11.7329,-0.0026 12.0259,0.0034 C13.6039,-0.0376 15.7589,0.2884 18.0559,0.9784 C18.4849,1.1074 18.9029,1.2444 19.3069,1.3874 C20.0389,-0.7506 27.6429,3.6844 26.9169,5.8314 C26.2139,7.9074 24.1679,7.2544 22.0839,6.6694 C20.7899,6.6334 19.1959,6.3884 17.4889,5.9354 C17.4449,6.5994 17.2979,7.3224 17.0339,8.1054 C16.7989,8.7964 16.4749,9.5034 16.0829,10.2004 C15.8669,9.6464 15.4779,9.2024 14.9869,9.0354 C13.6129,8.5694 12.2739,9.3764 11.8679,10.5774 C11.3509,12.1014 11.8569,13.5024 13.1109,14.0254" id="Fill-14" fill="#191847" mask="url(#mask-4)"></path>
            </g>
            <polygon id="Fill-17" fill="#E5BDA1" points="124.4976 64.792 139.5176 116.594 146.5816 155.487 153.6726 155.487 146.5946 64.792"></polygon>
            <path d="M115.4283,63.8437 C110.7413,90.3637 107.2233,104.6177 106.4753,106.9567 C105.7273,109.2967 100.9503,125.0147 86.0013,151.0947 L93.2083,152.6617 C110.7853,128.3467 118.3603,113.2377 120.4733,110.0017 C122.5863,106.7677 129.6783,93.2897 140.9493,69.3957 L115.4283,63.8437 Z" id="Fill-19" fill="#E5BDA1"></path>
            <path d="M124.1753,64.792 C128.0823,82.617 134.8393,111.07 144.4463,150.152 L154.8183,150.152 C155.5833,110.039 152.3243,83.638 146.6823,64.792 L124.1753,64.792 Z" id="Fill-21" fill="#83B2BA"></path>
            <path d="M135.7164,68.2568 L114.4884,63.9948 C111.3504,63.3128 109.9254,69.5048 109.9684,72.7198 C110.2914,96.6318 102.6264,114.0658 90.7194,139.0188 C89.1234,142.3628 91.0584,146.3228 94.6764,147.1108 C96.9114,147.5968 99.2214,146.7078 100.5584,144.8518 C115.8094,123.6608 128.3984,102.2328 139.7644,76.1578 C141.2104,72.8398 139.2514,69.0268 135.7164,68.2568" id="Fill-23" fill="#89C5CC"></path>
            <path d="M83.8423,156.084 L85.6333,149.754 C87.8143,150.942 90.7873,151.31 94.5553,150.855 C97.7423,154.346 102.0893,157.201 107.5953,159.422 C108.0163,159.592 108.2193,160.069 108.0493,160.49 C108.0383,160.518 108.0273,160.544 108.0123,160.57 L107.0413,162.391 L92.7273,159.276 L84.3763,157.46 L83.8423,156.084 Z" id="Fill-25" fill="#191847"></path>
            <path d="M144.9996,161.6426 L145.4056,155.0776 C147.7886,155.7746 150.7726,155.5006 154.3576,154.2556 C158.2136,156.9896 163.0666,158.8556 168.9186,159.8556 C169.3656,159.9316 169.6656,160.3556 169.5896,160.8026 C169.5846,160.8306 169.5776,160.8606 169.5696,160.8886 L169.0076,162.8736 L154.3576,162.8736 L145.8126,162.8736 L144.9996,161.6426 Z" id="Fill-27" fill="#191847"></path>
            <path d="M158.6343,59.166 L165.1453,59.241 C167.4663,61.774 169.1033,62.762 170.0533,62.203 C170.9903,62.145 167.6533,59.191 169.2023,58.675 C170.7523,58.157 175.6833,58.953 175.9363,58.021 C176.3103,56.644 174.0843,54.482 172.4603,53.726 C169.4243,52.31 167.5723,52.324 163.5403,53.332 C161.4313,53.859 158.8573,53.9 155.8163,53.457 L158.6343,59.166 Z" id="Fill-29" fill="#E5BDA1"></path>
            <path d="M162.5093,46.1475 L169.0193,46.2225 C171.3413,48.7555 172.9773,49.7435 173.9273,49.1835 C174.8643,49.1265 171.5283,46.1725 173.0763,45.6555 C174.6263,45.1375 179.5573,45.9345 179.8103,45.0025 C180.1853,43.6245 177.9583,41.4635 176.3343,40.7065 C173.2983,39.2915 171.4473,39.3055 167.4143,40.3135 C165.3053,40.8395 162.7313,40.8815 159.6903,40.4385 L162.5093,46.1475 Z" id="Fill-31" fill="#E5BDA1"></path>
            <path d="M149.0279,33.584 C153.1989,36.316 159.3079,39.143 167.7079,39.348 L166.5659,46.064 C159.7989,47.379 151.8639,46.865 146.9599,43.376 C143.0939,40.626 144.2709,34.508 149.0279,33.584" id="Fill-33" fill="#DD7045"></path>
            <path d="M157.9878,47.7373 C159.5278,53.8463 160.2648,60.5093 159.4148,62.7773 C139.7408,63.7553 148.9678,68.9593 146.2948,71.8783 C140.7988,77.8793 121.0568,66.8083 113.5128,66.4503 C112.4538,52.6173 122.5868,49.3403 124.8038,41.1323 C127.2328,32.1423 139.2088,20.1343 140.4228,20.4043 L151.4908,22.8613 C150.2528,29.8633 144.8528,48.8203 157.9878,47.7373" id="Fill-35" fill="#DD7045"></path>
            <polygon id="Fill-37" fill="#FACD43" points="92.5181 162.0488 129.5121 72.4588 123.5451 69.9898 86.5501 159.5798"></polygon>
            <mask id="mask-6" fill="white">
                <use xlink:href="#path-5"></use>
            </mask>
            <g id="Clip-40"></g>
            <polygon id="Fill-39" fill="#2E91A0" mask="url(#mask-6)" points="118.363 175.092 134.182 175.092 134.182 55.082 118.363 55.082"></polygon>
            <path d="M134.1822,55.2412 C134.1822,50.0822 130.6412,45.8992 126.2732,45.8992 C121.9042,45.8992 118.3632,50.0822 118.3632,55.2412" id="Fill-41" fill="#FACD43" mask="url(#mask-6)"></path>
            <path d="M118.3628,174.459 C118.3628,179.617 121.9038,180 126.2728,180 C130.6408,180 134.1818,179.617 134.1818,174.459" id="Fill-42" fill="#2E91A0" mask="url(#mask-6)"></path>
            <path d="M130.94,71.1074 L157.079,84.3294 C158.152,84.8724 159.461,84.4154 159.963,83.3234 L160.11,83.0044 C160.593,81.9584 160.153,80.7154 159.118,80.2074 L132.832,67.3034 C131.792,66.7934 130.534,67.2114 130.007,68.2454 C129.472,69.2944 129.89,70.5774 130.94,71.1074" id="Fill-43" fill="#FACD43" mask="url(#mask-6)"></path>
            <polygon id="Fill-44" fill="#2E91A0" mask="url(#mask-6)" points="70.027 120.948 81.056 120.948 81.056 51.795 70.027 51.795"></polygon>
            <path d="M81.0562,51.8867 C81.0562,48.9137 78.5872,46.5037 75.5412,46.5037 C72.4962,46.5037 70.0272,48.9137 70.0272,51.8867" id="Fill-45" fill="#FACD43" mask="url(#mask-6)"></path>
            <path d="M70.0269,120.583 C70.0269,123.556 72.4969,123.776 75.5419,123.776 C78.5879,123.776 81.0559,123.556 81.0559,120.583" id="Fill-46" fill="#2E91A0" mask="url(#mask-6)"></path>
            <path d="M47.6597,52.3906 L71.6197,52.3906 L71.6627,52.4346 L54.8047,69.6746 C50.0407,64.9086 47.6597,58.6496 47.6597,52.3906 Z M56.3877,70.8086 L73.6567,53.9786 L73.6567,77.9596 C67.4027,77.9596 61.1497,75.5766 56.3877,70.8086 Z M73.6607,48.5006 L56.4337,31.6276 C61.1977,26.8606 67.4507,24.4766 73.7037,24.4766 L73.7037,48.4576 L73.6607,48.5006 Z M54.8247,33.3396 L71.6407,50.6246 L47.6807,50.6246 C47.6807,44.3666 50.0617,38.1076 54.8247,33.3396 Z M75.9777,53.9996 L76.0207,53.9566 L93.2477,70.8296 C88.4837,75.5976 82.2307,77.9816 75.9777,77.9816 L75.9777,53.9996 Z M94.8797,69.6746 L78.0637,52.3906 L102.0237,52.3906 C102.0237,58.6496 99.6427,64.9086 94.8797,69.6746 Z M102.0457,50.6246 L78.0847,50.6246 L78.0427,50.5806 L94.9007,33.3396 C99.6637,38.1076 102.0457,44.3666 102.0457,50.6246 Z M93.2947,31.6486 L76.0247,48.4796 L76.0247,24.4976 C82.2777,24.4976 88.5317,26.8816 93.2947,31.6486 Z M45.1537,51.0796 C45.1537,67.5036 58.4557,80.8176 74.8647,80.8176 C91.2737,80.8176 104.5757,67.5036 104.5757,51.0796 C104.5757,34.6576 91.2737,21.3426 74.8647,21.3426 C58.4557,21.3426 45.1537,34.6576 45.1537,51.0796 Z" id="Fill-47" fill="#FACD43" mask="url(#mask-6)"></path>
            <polygon id="Fill-48" fill="#2E91A0" mask="url(#mask-6)" points="24.874 161.334 35.903 161.334 35.903 92.181 24.874 92.181"></polygon>
            <path d="M35.9029,92.2715 C35.9029,89.2985 33.4339,86.8895 30.3879,86.8895 C27.3419,86.8895 24.8739,89.2985 24.8739,92.2715" id="Fill-49" fill="#FACD43" mask="url(#mask-6)"></path>
            <path d="M24.8736,160.9687 C24.8736,163.9417 27.3426,164.1617 30.3886,164.1617 C33.4346,164.1617 35.9026,163.9417 35.9026,160.9687" id="Fill-50" fill="#2E91A0" mask="url(#mask-6)"></path>
            <path d="M2.5054,92.7764 L26.4664,92.7764 L26.5084,92.8194 L9.6514,110.0604 C4.8874,105.2934 2.5054,99.0344 2.5054,92.7764 Z M11.2344,111.1944 L28.5034,94.3644 L28.5034,118.3454 C22.2494,118.3454 15.9964,115.9624 11.2344,111.1944 Z M28.5064,88.8854 L11.2804,72.0124 C16.0444,67.2464 22.2974,64.8624 28.5504,64.8624 L28.5504,88.8434 L28.5064,88.8854 Z M9.6714,73.7254 L26.4874,91.0104 L2.5264,91.0104 C2.5264,84.7524 4.9084,78.4934 9.6714,73.7254 Z M30.8234,94.3844 L30.8674,94.3424 L48.0934,111.2154 C43.3304,115.9834 37.0774,118.3664 30.8234,118.3664 L30.8234,94.3844 Z M49.7264,110.0604 L32.9104,92.7764 L56.8704,92.7764 C56.8704,99.0344 54.4884,105.2934 49.7264,110.0604 Z M56.8924,91.0104 L32.9314,91.0104 L32.8894,90.9664 L49.7474,73.7254 C54.5104,78.4934 56.8924,84.7524 56.8924,91.0104 Z M48.1414,72.0344 L30.8714,88.8654 L30.8714,64.8834 C37.1244,64.8834 43.3784,67.2664 48.1414,72.0344 Z M-0.0006,91.4654 C-0.0006,107.8884 13.3024,121.2024 29.7114,121.2024 C46.1194,121.2024 59.4224,107.8884 59.4224,91.4654 C59.4224,75.0424 46.1194,61.7284 29.7114,61.7284 C13.3024,61.7284 -0.0006,75.0424 -0.0006,91.4654 Z" id="Fill-51" fill="#FACD43" mask="url(#mask-6)"></path>
            <path d="M156.9039,11.2803 C157.3209,10.4983 158.2909,10.5293 159.0619,10.5503 C159.8209,10.5703 159.8209,9.3903 159.0619,9.3703 C157.8549,9.3383 156.5119,9.5073 155.8849,10.6853 C155.5279,11.3553 156.5469,11.9523 156.9039,11.2803" id="Fill-52" fill="#191847" mask="url(#mask-6)"></path>
            <path d="M158.0503,12.9033 C158.1073,13.0663 158.1623,13.2283 158.2193,13.3903 C158.4653,14.1043 159.6063,13.7983 159.3573,13.0773 C159.3003,12.9153 159.2443,12.7533 159.1883,12.5903 C158.9413,11.8773 157.8013,12.1833 158.0503,12.9033" id="Fill-53" fill="#191847" mask="url(#mask-6)"></path>
        </g>
        <g id="Group-54" transform="translate(360.000000, 0.000000)">
            <path d="M161.355,15.2627 C161.717,13.0607 161.581,10.7297 161.273,8.8887 C160.444,3.9277 148.848,-3.1183 145.45,5.0027 C144.27,7.8207 144.609,10.8077 145.687,13.5167 L137.413,27.3977 L146.733,30.5577 L148.937,18.8457 C150.938,21.2147 152.289,22.2987 153.553,22.3107 C155.376,22.3277 156.808,21.9147 157.928,21.2107 C157.599,20.9967 157.394,20.7137 157.394,20.4007 C157.394,19.7377 158.289,19.2007 159.393,19.2007 C159.573,19.2007 159.744,19.2187 159.909,19.2447 C160.249,18.7307 160.524,18.1667 160.749,17.5757 C160.827,17.5917 160.908,17.5997 160.992,17.5997 C161.654,17.5997 162.19,17.0627 162.19,16.4007 C162.19,15.8657 161.838,15.4167 161.355,15.2627" id="Fill-1" fill="#E5BDA1"></path>
            <g id="Group-5" transform="translate(149.000000, 26.000000)">
                <mask id="mask-8" fill="white">
                    <use xlink:href="#path-7"></use>
                </mask>
                <g id="Clip-4"></g>
                <path d="M1.6333,4.0703 L27.7733,17.2913 C28.8453,17.8343 30.1543,17.3783 30.6573,16.2853 L30.8043,15.9673 C31.2873,14.9203 30.8463,13.6773 29.8123,13.1703 L3.5263,0.2663 C2.4853,-0.2437 1.2283,0.1743 0.7003,1.2083 C0.1653,2.2563 0.5843,3.5393 1.6333,4.0703" id="Fill-3" fill="#FACD43" mask="url(#mask-8)"></path>
            </g>
            <path d="M160.2906,83.5537 L179.6866,42.1687 C180.1716,41.1347 179.7266,39.9027 178.6916,39.4157 L178.2626,39.2147 C177.2276,38.7287 175.9926,39.1747 175.5076,40.2097 L156.1116,81.5947 C155.6266,82.6297 156.0716,83.8627 157.1056,84.3477 L157.5356,84.5497 C158.5706,85.0357 159.8056,84.5897 160.2906,83.5537" id="Fill-6" fill="#FACD43"></path>
            <g id="Group-10" transform="translate(136.000000, 0.000000)">
                <mask id="mask-10" fill="white">
                    <use xlink:href="#path-9"></use>
                </mask>
                <g id="Clip-9"></g>
                <path d="M13.1109,14.0254 C11.2039,15.8544 9.0399,16.9844 7.4419,16.4434 C4.4089,15.4144 3.6269,10.6244 5.1029,6.2594 C5.1549,6.1064 5.2099,5.9564 5.2669,5.8064 C-0.2031,10.0324 0.4429,5.1844 1.0889,3.2464 C3.0169,-2.5446 4.9869,0.9044 6.9129,2.8784 C7.8099,1.7384 8.8789,0.8874 9.9909,0.4174 C10.2749,0.2544 10.6669,0.1404 11.1429,0.0724 C11.4379,0.0204 11.7329,-0.0026 12.0259,0.0034 C13.6039,-0.0376 15.7589,0.2884 18.0559,0.9784 C18.4849,1.1074 18.9029,1.2444 19.3069,1.3874 C20.0389,-0.7506 27.6429,3.6844 26.9169,5.8314 C26.2139,7.9074 24.1679,7.2544 22.0839,6.6694 C20.7899,6.6334 19.1959,6.3884 17.4889,5.9354 C17.4449,6.5994 17.2979,7.3224 17.0339,8.1054 C16.7989,8.7964 16.4749,9.5034 16.0829,10.2004 C15.8669,9.6464 15.4779,9.2024 14.9869,9.0354 C13.6129,8.5694 12.2739,9.3764 11.8679,10.5774 C11.3509,12.1014 11.8569,13.5024 13.1109,14.0254" id="Fill-8" fill="#191847" mask="url(#mask-10)"></path>
            </g>
            <polygon id="Fill-11" fill="#FACD43" points="98.9654 164.1006 139.3094 64.7096 134.0924 62.5956 93.7484 161.9866"></polygon>
            <path d="M79.9214,150.5146 L102.6554,169.3166 C104.2724,170.6536 106.6874,170.4236 108.0244,168.8076 L108.7244,167.9616 C110.0614,166.3456 109.8314,163.9296 108.2164,162.5926 L85.4824,143.7906 C83.8654,142.4536 81.4494,142.6836 80.1134,144.2986 L79.4134,145.1456 C78.0764,146.7616 78.3054,149.1776 79.9214,150.5146" id="Fill-13" fill="#FACD43"></path>
            <polygon id="Fill-15" fill="#E5BDA1" points="130.2281 59.3896 108.7891 108.8796 89.4451 143.3536 94.9091 147.8716 145.9161 71.9996"></polygon>
            <path d="M129.98,59.1846 C121.63,75.4106 108.704,101.6426 91.2,137.8816 L99.191,144.4916 C125.346,114.0686 138.253,90.1186 145.916,71.9996 L129.98,59.1846 Z" id="Fill-17" fill="#83B2BA"></path>
            <path d="M84.3023,147.0889 L88.8003,142.2879 C90.1923,144.3439 92.6653,146.0339 96.2223,147.3599 C97.4503,151.9239 100.0013,156.4559 103.8733,160.9549 C104.1693,161.2989 104.1303,161.8169 103.7863,162.1119 C103.7643,162.1319 103.7413,162.1499 103.7173,162.1659 L102.0183,163.3379 L90.7303,154.0019 L84.1453,148.5559 L84.3023,147.0889 Z" id="Fill-19" fill="#191847"></path>
            <path d="M158.6343,59.166 L165.1453,59.241 C167.4663,61.774 169.1033,62.762 170.0533,62.203 C170.9903,62.145 167.6533,59.191 169.2023,58.675 C170.7523,58.157 175.6833,58.953 175.9363,58.021 C176.3103,56.644 174.0843,54.482 172.4603,53.726 C169.4243,52.31 167.5723,52.324 163.5403,53.332 C161.4313,53.859 158.8573,53.9 155.8163,53.457 L158.6343,59.166 Z" id="Fill-21" fill="#E5BDA1"></path>
            <path d="M162.5093,46.1475 L169.0193,46.2225 C171.3413,48.7555 172.9773,49.7435 173.9273,49.1835 C174.8643,49.1265 171.5283,46.1725 173.0763,45.6555 C174.6263,45.1375 179.5573,45.9345 179.8103,45.0025 C180.1853,43.6245 177.9583,41.4635 176.3343,40.7065 C173.2983,39.2915 171.4473,39.3055 167.4143,40.3135 C165.3053,40.8395 162.7313,40.8815 159.6903,40.4385 L162.5093,46.1475 Z" id="Fill-23" fill="#E5BDA1"></path>
            <path d="M149.0279,33.584 C153.1989,36.316 159.3079,39.143 167.7079,39.348 L166.5659,46.064 C159.7989,47.379 151.8639,46.865 146.9599,43.376 C143.0939,40.626 144.2709,34.508 149.0279,33.584" id="Fill-25" fill="#DD7045"></path>
            <path d="M151.7164,171.2852 L177.8434,157.5782 C179.7004,156.6032 180.4234,154.2862 179.4474,152.4292 L178.9374,151.4572 C177.9624,149.6002 175.6464,148.8792 173.7894,149.8532 L147.6624,163.5602 C145.8054,164.5352 145.0834,166.8522 146.0594,168.7102 L146.5694,169.6812 C147.5444,171.5382 149.8604,172.2602 151.7164,171.2852" id="Fill-27" fill="#FACD43"></path>
            <path d="M113.315,75.6562 C127.823,98.3442 134.886,111.2172 135.92,113.4442 C136.954,115.6722 144.083,130.4722 150.741,159.7862 L157.106,156.0602 C153.576,126.2642 148.919,110.0182 148.283,106.2072 C147.647,102.3952 144.015,91.4322 136.128,66.2182 L113.315,75.6562 Z" id="Fill-29" fill="#E5BDA1"></path>
            <path d="M131.233,65.166 L115.14,65.514 C108.943,71.309 111.572,82.403 115.308,85.885 C132.804,102.187 137.901,121.281 146.036,147.706 C147.126,151.248 151.232,152.852 154.427,150.98 C156.401,149.825 157.5,147.607 157.225,145.336 C154.1,119.416 148.853,95.122 139.561,68.239 C138.379,64.818 134.354,63.339 131.233,65.166" id="Fill-31" fill="#89C5CC"></path>
            <path d="M152.5308,164.9199 L149.5628,159.0499 C151.9708,158.4469 154.4088,156.7039 156.8738,153.8179 C161.5828,154.2289 166.7158,153.3869 172.2698,151.2919 C172.6938,151.1329 173.1678,151.3469 173.3278,151.7709 C173.3388,151.7979 173.3468,151.8259 173.3538,151.8549 L173.8728,153.8529 L161.2298,161.2539 L153.8558,165.5709 L152.5308,164.9199 Z" id="Fill-33" fill="#191847"></path>
            <polygon id="Fill-35" fill="#FACD43" points="162.9537 163.4346 129.5127 72.4586 123.4497 74.6836 156.8917 165.6596"></polygon>
            <path d="M157.9878,47.7373 C159.5278,53.8463 160.2648,60.5093 159.4148,62.7773 C139.7408,63.7553 148.9678,68.9593 146.2948,71.8783 C140.7988,77.8793 121.0568,66.8083 113.5128,66.4503 C112.4538,52.6173 122.5868,49.3403 124.8038,41.1323 C127.2328,32.1423 139.2088,20.1343 140.4228,20.4043 L151.4908,22.8613 C150.2528,29.8633 144.8528,48.8203 157.9878,47.7373" id="Fill-37" fill="#DD7045"></path>
            <mask id="mask-12" fill="white">
                <use xlink:href="#path-11"></use>
            </mask>
            <g id="Clip-40"></g>
            <polygon id="Fill-39" fill="#2E91A0" mask="url(#mask-12)" points="118.363 175.092 134.182 175.092 134.182 55.082 118.363 55.082"></polygon>
            <path d="M134.1822,55.2412 C134.1822,50.0822 130.6412,45.8992 126.2732,45.8992 C121.9042,45.8992 118.3632,50.0822 118.3632,55.2412" id="Fill-41" fill="#FACD43" mask="url(#mask-12)"></path>
            <path d="M118.3628,174.459 C118.3628,179.617 121.9038,180 126.2728,180 C130.6408,180 134.1818,179.617 134.1818,174.459" id="Fill-42" fill="#2E91A0" mask="url(#mask-12)"></path>
            <path d="M130.94,71.1074 L157.079,84.3294 C158.152,84.8724 159.461,84.4154 159.963,83.3234 L160.11,83.0044 C160.593,81.9584 160.153,80.7154 159.118,80.2074 L132.832,67.3034 C131.792,66.7934 130.534,67.2114 130.007,68.2454 C129.472,69.2944 129.89,70.5774 130.94,71.1074" id="Fill-43" fill="#FACD43" mask="url(#mask-12)"></path>
            <polygon id="Fill-44" fill="#2E91A0" mask="url(#mask-12)" points="70.027 120.948 81.056 120.948 81.056 51.795 70.027 51.795"></polygon>
            <path d="M81.0562,51.8867 C81.0562,48.9137 78.5872,46.5037 75.5412,46.5037 C72.4962,46.5037 70.0272,48.9137 70.0272,51.8867" id="Fill-45" fill="#FACD43" mask="url(#mask-12)"></path>
            <path d="M70.0269,120.583 C70.0269,123.556 72.4969,123.776 75.5419,123.776 C78.5879,123.776 81.0559,123.556 81.0559,120.583" id="Fill-46" fill="#2E91A0" mask="url(#mask-12)"></path>
            <path d="M47.6597,52.3906 L71.6197,52.3906 L71.6627,52.4346 L54.8047,69.6746 C50.0407,64.9086 47.6597,58.6496 47.6597,52.3906 Z M56.3877,70.8086 L73.6567,53.9786 L73.6567,77.9596 C67.4027,77.9596 61.1497,75.5766 56.3877,70.8086 Z M73.6607,48.5006 L56.4337,31.6276 C61.1977,26.8606 67.4507,24.4766 73.7037,24.4766 L73.7037,48.4576 L73.6607,48.5006 Z M54.8247,33.3396 L71.6407,50.6246 L47.6807,50.6246 C47.6807,44.3666 50.0617,38.1076 54.8247,33.3396 Z M75.9777,53.9996 L76.0207,53.9566 L93.2477,70.8296 C88.4837,75.5976 82.2307,77.9816 75.9777,77.9816 L75.9777,53.9996 Z M94.8797,69.6746 L78.0637,52.3906 L102.0237,52.3906 C102.0237,58.6496 99.6427,64.9086 94.8797,69.6746 Z M102.0457,50.6246 L78.0847,50.6246 L78.0427,50.5806 L94.9007,33.3396 C99.6637,38.1076 102.0457,44.3666 102.0457,50.6246 Z M93.2947,31.6486 L76.0247,48.4796 L76.0247,24.4976 C82.2777,24.4976 88.5317,26.8816 93.2947,31.6486 Z M45.1537,51.0796 C45.1537,67.5036 58.4557,80.8176 74.8647,80.8176 C91.2737,80.8176 104.5757,67.5036 104.5757,51.0796 C104.5757,34.6576 91.2737,21.3426 74.8647,21.3426 C58.4557,21.3426 45.1537,34.6576 45.1537,51.0796 Z" id="Fill-47" fill="#FACD43" mask="url(#mask-12)"></path>
            <polygon id="Fill-48" fill="#2E91A0" mask="url(#mask-12)" points="24.874 161.334 35.903 161.334 35.903 92.181 24.874 92.181"></polygon>
            <path d="M35.9029,92.2715 C35.9029,89.2985 33.4339,86.8895 30.3879,86.8895 C27.3419,86.8895 24.8739,89.2985 24.8739,92.2715" id="Fill-49" fill="#FACD43" mask="url(#mask-12)"></path>
            <path d="M24.8736,160.9687 C24.8736,163.9417 27.3426,164.1617 30.3886,164.1617 C33.4346,164.1617 35.9026,163.9417 35.9026,160.9687" id="Fill-50" fill="#2E91A0" mask="url(#mask-12)"></path>
            <path d="M2.5054,92.7764 L26.4664,92.7764 L26.5084,92.8194 L9.6514,110.0604 C4.8874,105.2934 2.5054,99.0344 2.5054,92.7764 Z M11.2344,111.1944 L28.5034,94.3644 L28.5034,118.3454 C22.2494,118.3454 15.9964,115.9624 11.2344,111.1944 Z M28.5064,88.8854 L11.2804,72.0124 C16.0444,67.2464 22.2974,64.8624 28.5504,64.8624 L28.5504,88.8434 L28.5064,88.8854 Z M9.6714,73.7254 L26.4874,91.0104 L2.5264,91.0104 C2.5264,84.7524 4.9084,78.4934 9.6714,73.7254 Z M30.8234,94.3844 L30.8674,94.3424 L48.0934,111.2154 C43.3304,115.9834 37.0774,118.3664 30.8234,118.3664 L30.8234,94.3844 Z M49.7264,110.0604 L32.9104,92.7764 L56.8704,92.7764 C56.8704,99.0344 54.4884,105.2934 49.7264,110.0604 Z M56.8924,91.0104 L32.9314,91.0104 L32.8894,90.9664 L49.7474,73.7254 C54.5104,78.4934 56.8924,84.7524 56.8924,91.0104 Z M48.1414,72.0344 L30.8714,88.8654 L30.8714,64.8834 C37.1244,64.8834 43.3784,67.2664 48.1414,72.0344 Z M-0.0006,91.4654 C-0.0006,107.8884 13.3024,121.2024 29.7114,121.2024 C46.1194,121.2024 59.4224,107.8884 59.4224,91.4654 C59.4224,75.0424 46.1194,61.7284 29.7114,61.7284 C13.3024,61.7284 -0.0006,75.0424 -0.0006,91.4654 Z" id="Fill-51" fill="#FACD43" mask="url(#mask-12)"></path>
            <path d="M156.9039,11.2803 C157.3209,10.4983 158.2909,10.5293 159.0619,10.5503 C159.8209,10.5703 159.8209,9.3903 159.0619,9.3703 C157.8549,9.3383 156.5119,9.5073 155.8849,10.6853 C155.5279,11.3553 156.5469,11.9523 156.9039,11.2803" id="Fill-52" fill="#191847" mask="url(#mask-12)"></path>
            <path d="M158.0503,12.9033 C158.1073,13.0663 158.1623,13.2283 158.2193,13.3903 C158.4653,14.1043 159.6063,13.7983 159.3573,13.0773 C159.3003,12.9153 159.2443,12.7533 159.1883,12.5903 C158.9413,11.8773 157.8013,12.1833 158.0503,12.9033" id="Fill-53" fill="#191847" mask="url(#mask-12)"></path>
        </g>
        <g id="Group-54" transform="translate(180.000000, 0.000000)">
            <path d="M161.355,15.2627 C161.717,13.0607 161.581,10.7297 161.273,8.8887 C160.444,3.9277 148.848,-3.1183 145.45,5.0027 C144.27,7.8207 144.609,10.8077 145.687,13.5167 L137.413,27.3977 L146.733,30.5577 L148.937,18.8457 C150.938,21.2147 152.289,22.2987 153.553,22.3107 C155.376,22.3277 156.808,21.9147 157.928,21.2107 C157.599,20.9967 157.394,20.7137 157.394,20.4007 C157.394,19.7377 158.289,19.2007 159.393,19.2007 C159.573,19.2007 159.744,19.2187 159.909,19.2447 C160.249,18.7307 160.524,18.1667 160.749,17.5757 C160.827,17.5917 160.908,17.5997 160.992,17.5997 C161.654,17.5997 162.19,17.0627 162.19,16.4007 C162.19,15.8657 161.838,15.4167 161.355,15.2627" id="Fill-1" fill="#E5BDA1"></path>
            <g id="Group-5" transform="translate(149.000000, 26.000000)">
                <mask id="mask-14" fill="white">
                    <use xlink:href="#path-13"></use>
                </mask>
                <g id="Clip-4"></g>
                <path d="M1.6333,4.0703 L27.7733,17.2913 C28.8453,17.8343 30.1543,17.3783 30.6573,16.2853 L30.8043,15.9673 C31.2873,14.9203 30.8463,13.6773 29.8123,13.1703 L3.5263,0.2663 C2.4853,-0.2437 1.2283,0.1743 0.7003,1.2083 C0.1653,2.2563 0.5843,3.5393 1.6333,4.0703" id="Fill-3" fill="#FACD43" mask="url(#mask-14)"></path>
            </g>
            <path d="M160.2906,83.5537 L179.6866,42.1687 C180.1716,41.1347 179.7266,39.9027 178.6916,39.4157 L178.2626,39.2147 C177.2276,38.7287 175.9926,39.1747 175.5076,40.2097 L156.1116,81.5947 C155.6266,82.6297 156.0716,83.8627 157.1056,84.3477 L157.5356,84.5497 C158.5706,85.0357 159.8056,84.5897 160.2906,83.5537" id="Fill-6" fill="#FACD43"></path>
            <g id="Group-10" transform="translate(136.000000, 0.000000)">
                <mask id="mask-16" fill="white">
                    <use xlink:href="#path-15"></use>
                </mask>
                <g id="Clip-9"></g>
                <path d="M13.1109,14.0254 C11.2039,15.8544 9.0399,16.9844 7.4419,16.4434 C4.4089,15.4144 3.6269,10.6244 5.1029,6.2594 C5.1549,6.1064 5.2099,5.9564 5.2669,5.8064 C-0.2031,10.0324 0.4429,5.1844 1.0889,3.2464 C3.0169,-2.5446 4.9869,0.9044 6.9129,2.8784 C7.8099,1.7384 8.8789,0.8874 9.9909,0.4174 C10.2749,0.2544 10.6669,0.1404 11.1429,0.0724 C11.4379,0.0204 11.7329,-0.0026 12.0259,0.0034 C13.6039,-0.0376 15.7589,0.2884 18.0559,0.9784 C18.4849,1.1074 18.9029,1.2444 19.3069,1.3874 C20.0389,-0.7506 27.6429,3.6844 26.9169,5.8314 C26.2139,7.9074 24.1679,7.2544 22.0839,6.6694 C20.7899,6.6334 19.1959,6.3884 17.4889,5.9354 C17.4449,6.5994 17.2979,7.3224 17.0339,8.1054 C16.7989,8.7964 16.4749,9.5034 16.0829,10.2004 C15.8669,9.6464 15.4779,9.2024 14.9869,9.0354 C13.6129,8.5694 12.2739,9.3764 11.8679,10.5774 C11.3509,12.1014 11.8569,13.5024 13.1109,14.0254" id="Fill-8" fill="#191847" mask="url(#mask-16)"></path>
            </g>
            <polygon id="Fill-11" fill="#FACD43" points="156.5904 166.04 134.2844 61.118 128.7784 62.292 151.0844 167.213"></polygon>
            <path d="M133.2037,165.4639 L162.5697,168.2899 C164.6567,168.4909 166.5297,166.9479 166.7297,164.8599 L166.8357,163.7669 C167.0367,161.6799 165.4927,159.8069 163.4057,159.6069 L134.0397,156.7799 C131.9517,156.5789 130.0797,158.1219 129.8787,160.2099 L129.7727,161.3039 C129.5727,163.3919 131.1157,165.2639 133.2037,165.4639" id="Fill-13" fill="#FACD43"></path>
            <polygon id="Fill-15" fill="#E5BDA1" points="123.7818 61.8027 133.7698 114.8047 137.0758 154.1967 144.1348 154.8747 143.8418 63.4517"></polygon>
            <path d="M123.4605,61.7715 C125.6425,79.8895 129.6425,108.8585 135.4615,148.6805 L145.7845,149.6745 C150.3905,109.8195 147.6525,82.7505 143.8415,63.4525 L123.4605,61.7715 Z" id="Fill-17" fill="#83B2BA"></path>
            <path d="M134.9107,160.1719 L135.9447,153.6749 C138.2497,154.5969 141.2457,154.6099 144.9337,153.7149 C148.5107,156.8059 153.1627,159.1279 158.8917,160.6839 C159.3287,160.8029 159.5877,161.2529 159.4687,161.6909 C159.4607,161.7189 159.4517,161.7469 159.4407,161.7749 L158.6907,163.6969 L144.1087,162.2939 L135.6027,161.4759 L134.9107,160.1719 Z" id="Fill-19" fill="#191847"></path>
            <path d="M158.6343,59.166 L165.1453,59.241 C167.4663,61.774 169.1033,62.762 170.0533,62.203 C170.9903,62.145 167.6533,59.191 169.2023,58.675 C170.7523,58.157 175.6833,58.953 175.9363,58.021 C176.3103,56.644 174.0843,54.482 172.4603,53.726 C169.4243,52.31 167.5723,52.324 163.5403,53.332 C161.4313,53.859 158.8573,53.9 155.8163,53.457 L158.6343,59.166 Z" id="Fill-21" fill="#E5BDA1"></path>
            <path d="M162.5093,46.1475 L169.0193,46.2225 C171.3413,48.7555 172.9773,49.7435 173.9273,49.1835 C174.8643,49.1265 171.5283,46.1725 173.0763,45.6555 C174.6263,45.1375 179.5573,45.9345 179.8103,45.0025 C180.1853,43.6245 177.9583,41.4635 176.3343,40.7065 C173.2983,39.2915 171.4473,39.3055 167.4143,40.3135 C165.3053,40.8395 162.7313,40.8815 159.6903,40.4385 L162.5093,46.1475 Z" id="Fill-23" fill="#E5BDA1"></path>
            <path d="M149.0279,33.584 C153.1989,36.316 159.3079,39.143 167.7079,39.348 L166.5659,46.064 C159.7989,47.379 151.8639,46.865 146.9599,43.376 C143.0939,40.626 144.2709,34.508 149.0279,33.584" id="Fill-25" fill="#DD7045"></path>
            <path d="M99.1138,169.0801 L128.5908,170.3381 C130.6868,170.4281 132.4738,168.7851 132.5628,166.6891 L132.6088,165.5921 C132.6978,163.4981 131.0558,161.7111 128.9628,161.6221 L99.4848,160.3631 C97.3888,160.2741 95.6008,161.9161 95.5128,164.0131 L95.4668,165.1091 C95.3788,167.2041 97.0188,168.9901 99.1138,169.0801" id="Fill-27" fill="#FACD43"></path>
            <path d="M113.898,67.0947 C115.059,93.9987 114.708,108.6777 114.483,111.1237 C114.258,113.5697 112.996,129.9487 104.042,158.6447 L111.417,158.6157 C123.319,131.0737 127.445,114.6847 128.808,111.0697 C130.171,107.4527 132.532,96.1487 138.367,70.3827 L113.898,67.0947 Z" id="Fill-29" fill="#E5BDA1"></path>
            <path d="M134.6607,67.0146 L120.5677,59.2386 C112.2987,61.1396 109.0037,72.0546 110.4877,76.9416 C117.4377,99.8236 112.2637,118.8956 106.0357,145.8336 C105.2007,149.4446 107.9467,152.8926 111.6497,152.8786 C113.9357,152.8696 115.9997,151.5026 116.9027,149.4006 C127.2097,125.4126 134.8647,101.7686 140.3207,73.8526 C141.0147,70.3006 138.2777,67.0006 134.6607,67.0146" id="Fill-31" fill="#89C5CC"></path>
            <path d="M103.0132,163.9834 L103.3922,157.4164 C105.7782,158.1044 108.7602,157.8194 112.3412,156.5604 C116.2082,159.2794 121.0702,161.1274 126.9262,162.1044 C127.3722,162.1784 127.6742,162.6014 127.6002,163.0484 C127.5952,163.0774 127.5892,163.1064 127.5812,163.1344 L127.0272,165.1224 L112.3772,165.1784 L103.8312,165.2114 L103.0132,163.9834 Z" id="Fill-33" fill="#191847"></path>
            <polygon id="Fill-35" fill="#FACD43" points="112.774 167.9297 129.512 72.4587 123.153 71.3397 106.414 166.8107"></polygon>
            <path d="M157.9878,47.7373 C159.5278,53.8463 160.2648,60.5093 159.4148,62.7773 C139.7408,63.7553 148.9678,68.9593 146.2948,71.8783 C140.7988,77.8793 121.0568,66.8083 113.5128,66.4503 C112.4538,52.6173 122.5868,49.3403 124.8038,41.1323 C127.2328,32.1423 139.2088,20.1343 140.4228,20.4043 L151.4908,22.8613 C150.2528,29.8633 144.8528,48.8203 157.9878,47.7373" id="Fill-37" fill="#DD7045"></path>
            <mask id="mask-18" fill="white">
                <use xlink:href="#path-17"></use>
            </mask>
            <g id="Clip-40"></g>
            <polygon id="Fill-39" fill="#2E91A0" mask="url(#mask-18)" points="118.363 175.092 134.182 175.092 134.182 55.082 118.363 55.082"></polygon>
            <path d="M134.1822,55.2412 C134.1822,50.0822 130.6412,45.8992 126.2732,45.8992 C121.9042,45.8992 118.3632,50.0822 118.3632,55.2412" id="Fill-41" fill="#FACD43" mask="url(#mask-18)"></path>
            <path d="M118.3628,174.459 C118.3628,179.617 121.9038,180 126.2728,180 C130.6408,180 134.1818,179.617 134.1818,174.459" id="Fill-42" fill="#2E91A0" mask="url(#mask-18)"></path>
            <path d="M130.94,71.1074 L157.079,84.3294 C158.152,84.8724 159.461,84.4154 159.963,83.3234 L160.11,83.0044 C160.593,81.9584 160.153,80.7154 159.118,80.2074 L132.832,67.3034 C131.792,66.7934 130.534,67.2114 130.007,68.2454 C129.472,69.2944 129.89,70.5774 130.94,71.1074" id="Fill-43" fill="#FACD43" mask="url(#mask-18)"></path>
            <polygon id="Fill-44" fill="#2E91A0" mask="url(#mask-18)" points="70.027 120.948 81.056 120.948 81.056 51.795 70.027 51.795"></polygon>
            <path d="M81.0562,51.8867 C81.0562,48.9137 78.5872,46.5037 75.5412,46.5037 C72.4962,46.5037 70.0272,48.9137 70.0272,51.8867" id="Fill-45" fill="#FACD43" mask="url(#mask-18)"></path>
            <path d="M70.0269,120.583 C70.0269,123.556 72.4969,123.776 75.5419,123.776 C78.5879,123.776 81.0559,123.556 81.0559,120.583" id="Fill-46" fill="#2E91A0" mask="url(#mask-18)"></path>
            <path d="M47.6597,52.3906 L71.6197,52.3906 L71.6627,52.4346 L54.8047,69.6746 C50.0407,64.9086 47.6597,58.6496 47.6597,52.3906 Z M56.3877,70.8086 L73.6567,53.9786 L73.6567,77.9596 C67.4027,77.9596 61.1497,75.5766 56.3877,70.8086 Z M73.6607,48.5006 L56.4337,31.6276 C61.1977,26.8606 67.4507,24.4766 73.7037,24.4766 L73.7037,48.4576 L73.6607,48.5006 Z M54.8247,33.3396 L71.6407,50.6246 L47.6807,50.6246 C47.6807,44.3666 50.0617,38.1076 54.8247,33.3396 Z M75.9777,53.9996 L76.0207,53.9566 L93.2477,70.8296 C88.4837,75.5976 82.2307,77.9816 75.9777,77.9816 L75.9777,53.9996 Z M94.8797,69.6746 L78.0637,52.3906 L102.0237,52.3906 C102.0237,58.6496 99.6427,64.9086 94.8797,69.6746 Z M102.0457,50.6246 L78.0847,50.6246 L78.0427,50.5806 L94.9007,33.3396 C99.6637,38.1076 102.0457,44.3666 102.0457,50.6246 Z M93.2947,31.6486 L76.0247,48.4796 L76.0247,24.4976 C82.2777,24.4976 88.5317,26.8816 93.2947,31.6486 Z M45.1537,51.0796 C45.1537,67.5036 58.4557,80.8176 74.8647,80.8176 C91.2737,80.8176 104.5757,67.5036 104.5757,51.0796 C104.5757,34.6576 91.2737,21.3426 74.8647,21.3426 C58.4557,21.3426 45.1537,34.6576 45.1537,51.0796 Z" id="Fill-47" fill="#FACD43" mask="url(#mask-18)"></path>
            <polygon id="Fill-48" fill="#2E91A0" mask="url(#mask-18)" points="24.874 161.334 35.903 161.334 35.903 92.181 24.874 92.181"></polygon>
            <path d="M35.9029,92.2715 C35.9029,89.2985 33.4339,86.8895 30.3879,86.8895 C27.3419,86.8895 24.8739,89.2985 24.8739,92.2715" id="Fill-49" fill="#FACD43" mask="url(#mask-18)"></path>
            <path d="M24.8736,160.9687 C24.8736,163.9417 27.3426,164.1617 30.3886,164.1617 C33.4346,164.1617 35.9026,163.9417 35.9026,160.9687" id="Fill-50" fill="#2E91A0" mask="url(#mask-18)"></path>
            <path d="M2.5054,92.7764 L26.4664,92.7764 L26.5084,92.8194 L9.6514,110.0604 C4.8874,105.2934 2.5054,99.0344 2.5054,92.7764 Z M11.2344,111.1944 L28.5034,94.3644 L28.5034,118.3454 C22.2494,118.3454 15.9964,115.9624 11.2344,111.1944 Z M28.5064,88.8854 L11.2804,72.0124 C16.0444,67.2464 22.2974,64.8624 28.5504,64.8624 L28.5504,88.8434 L28.5064,88.8854 Z M9.6714,73.7254 L26.4874,91.0104 L2.5264,91.0104 C2.5264,84.7524 4.9084,78.4934 9.6714,73.7254 Z M30.8234,94.3844 L30.8674,94.3424 L48.0934,111.2154 C43.3304,115.9834 37.0774,118.3664 30.8234,118.3664 L30.8234,94.3844 Z M49.7264,110.0604 L32.9104,92.7764 L56.8704,92.7764 C56.8704,99.0344 54.4884,105.2934 49.7264,110.0604 Z M56.8924,91.0104 L32.9314,91.0104 L32.8894,90.9664 L49.7474,73.7254 C54.5104,78.4934 56.8924,84.7524 56.8924,91.0104 Z M48.1414,72.0344 L30.8714,88.8654 L30.8714,64.8834 C37.1244,64.8834 43.3784,67.2664 48.1414,72.0344 Z M-0.0006,91.4654 C-0.0006,107.8884 13.3024,121.2024 29.7114,121.2024 C46.1194,121.2024 59.4224,107.8884 59.4224,91.4654 C59.4224,75.0424 46.1194,61.7284 29.7114,61.7284 C13.3024,61.7284 -0.0006,75.0424 -0.0006,91.4654 Z" id="Fill-51" fill="#FACD43" mask="url(#mask-18)"></path>
            <path d="M156.9039,11.2803 C157.3209,10.4983 158.2909,10.5293 159.0619,10.5503 C159.8209,10.5703 159.8209,9.3903 159.0619,9.3703 C157.8549,9.3383 156.5119,9.5073 155.8849,10.6853 C155.5279,11.3553 156.5469,11.9523 156.9039,11.2803" id="Fill-52" fill="#191847" mask="url(#mask-18)"></path>
            <path d="M158.0503,12.9033 C158.1073,13.0663 158.1623,13.2283 158.2193,13.3903 C158.4653,14.1043 159.6063,13.7983 159.3573,13.0773 C159.3003,12.9153 159.2443,12.7533 159.1883,12.5903 C158.9413,11.8773 157.8013,12.1833 158.0503,12.9033" id="Fill-53" fill="#191847" mask="url(#mask-18)"></path>
        </g>
    </g>
</svg>