<?xml version="1.0" encoding="UTF-8"?>
<svg width="240px" height="130px" viewBox="0 0 240 130" version="1.1" xmlns="http://www.w3.org/2000/svg" xmlns:xlink="http://www.w3.org/1999/xlink">
    <!-- Generator: Sketch 52.6 (67491) - http://www.bohemiancoding.com/sketch -->
    <title>a1-wheelchair</title>
    <desc>Created with Sketch.</desc>
    <defs>
        <polygon id="path-1" points="0.663153958 0 21.0175599 0 21.0175599 25.1315978 0.663153958 25.1315978"></polygon>
        <polygon id="path-3" points="0.0965058962 0.188617354 21.3665 0.188617354 21.3665 8 0.0965058962 8"></polygon>
        <polygon id="path-5" points="0 130 240 130 240 0 0 0"></polygon>
    </defs>
    <g id="a1-wheelchair" stroke="none" stroke-width="1" fill="none" fill-rule="evenodd">
        <g id="Group-79">
            <polygon id="Fill-1" fill="#C55735" points="233.6931 37.5223 230.6851 87.7803 230.4991 87.7803 207.3001 87.7803 197.3261 87.7803 197.3261 97.2043 197.3261 125.4743 202.7761 125.4743 206.1691 97.2043 231.2981 97.2043 233.6931 125.4743 240.0001 125.4743 240.0001 37.5223"></polygon>
            <g id="Group-78">
                <path d="M222.5156,37.792 L219.4856,23.238 C221.1756,21.194 222.3196,18.689 222.1286,15.882 C221.5776,7.795 210.6526,9.573 208.5276,13.655 C207.5556,15.521 206.7596,18.916 206.5646,21.65 C207.1856,21.946 208.3966,21.546 208.3966,22.122 C208.3966,22.703 207.1926,23.244 206.5646,23.538 C206.7136,25.544 207.3506,27.509 208.3966,27.786 C209.4926,28.077 212.8296,28.399 215.2046,26.925 L213.7146,37.792 L222.5156,37.792 Z" id="Fill-2" fill="#E8C1A0"></path>
                <g id="Group-6" transform="translate(207.000000, 0.000000)">
                    <mask id="mask-2" fill="white">
                        <use xlink:href="#path-1"></use>
                    </mask>
                    <g id="Clip-5"></g>
                    <path d="M5.0039,9.21 C6.2069,8.832 7.9529,8.704 8.6869,8.79 C8.2689,7.759 8.1039,6.609 8.2379,5.491 C8.3699,4.403 8.8409,3.478 9.2769,2.508 C9.4789,2.061 9.7059,1.616 10.0459,1.273 C10.3919,0.925 10.8299,0.695 11.2889,0.586 C11.7589,0.474 12.2499,0.482 12.7209,0.585 C12.9289,0.63 13.1159,0.728 13.3199,0.782 C13.5289,0.838 13.6299,0.703 13.7819,0.567 C14.1479,0.241 14.6839,0.08 15.1469,0.022 C15.6659,-0.043 16.2049,0.038 16.6999,0.214 C17.1819,0.385 17.6449,0.663 17.9929,1.068 C18.1489,1.249 18.2889,1.454 18.3809,1.681 C18.4179,1.773 18.4239,1.828 18.5149,1.862 C18.5979,1.894 18.6949,1.895 18.7809,1.925 C19.6119,2.215 20.3219,2.877 20.7099,3.726 C20.9349,4.222 21.0419,5.094 21.0129,6.072 C20.9829,7.05 20.1269,9.603 19.3249,10.533 C18.6089,11.363 17.5579,11.912 16.5429,12.152 C17.2169,12.945 17.6649,13.937 17.9969,14.945 C18.3569,16.041 18.5799,17.179 18.6619,18.339 C18.7399,19.44 18.7479,20.606 18.4969,21.684 C18.2619,22.692 17.7609,23.52 16.9239,24.044 C16.5409,24.284 16.1279,24.465 15.7129,24.63 C15.3039,24.793 14.8939,24.951 14.4649,25.042 C13.6549,25.215 12.7209,25.185 12.0959,24.521 C11.8709,24.28 11.6239,23.98 11.4589,23.687 C11.3999,23.581 11.3649,23.512 11.4359,23.409 C11.5219,23.286 11.6609,23.191 11.7719,23.095 C12.4009,22.545 12.7909,21.811 12.8889,20.939 C12.9889,20.053 12.7579,18.911 11.9229,18.524 C10.8919,18.048 9.7559,18.595 8.8399,19.106 C8.4509,17.689 7.6509,16.413 6.3979,15.764 C5.0109,15.045 3.4199,14.961 1.9939,14.344 C1.6229,14.184 1.2439,14.001 0.9709,13.674 C0.8569,13.537 0.7229,13.359 0.6769,13.179 C0.6169,12.94 0.7659,12.741 0.8809,12.556 C1.4899,11.573 3.8009,9.588 5.0039,9.21" id="Fill-4" fill="#E0E0E0" mask="url(#mask-2)"></path>
                </g>
                <path d="M178.9175,75.9971 C176.2845,72.3171 169.7025,74.7541 169.7065,77.8001 C169.7165,85.7991 176.8005,123.7721 177.1695,126.1701 C177.5405,128.5671 181.5015,129.3511 181.7325,126.3551 C182.0995,121.5891 182.7815,105.0651 182.0995,97.3781 C181.8995,95.1331 181.6895,92.9631 181.4785,90.9301 C185.2005,97.8211 190.8615,107.5621 198.4605,120.1521 L202.6845,118.1641 C199.3675,106.9031 196.6475,98.9541 194.5255,94.3151 C190.8915,86.3731 187.4835,79.5711 186.0495,77.1751 C184.1545,74.0111 181.0825,74.4311 178.9175,75.9971" id="Fill-7" fill="#E8C1A0"></path>
                <path d="M202.3823,111.9102 L187.8863,76.5232 C184.4133,70.7662 174.6773,77.6942 175.8613,81.0332 C178.5493,88.6132 192.2233,113.1532 193.0253,115.4122 L202.3823,111.9102 Z" id="Fill-9" fill="#B6CBEF"></path>
                <path d="M169.3399,80.5625 C169.3399,90.5935 173.6059,114.1705 173.6089,116.3795 L183.9439,116.0205 C182.1379,95.5215 181.3759,85.2025 181.6589,85.0635 C182.2959,84.7505 207.7509,88.6935 215.3849,88.9915 C226.3939,89.4205 230.9479,82.4605 231.3179,69.2525 L209.9929,69.2525 C191.7579,71.4965 179.7739,73.0565 174.0399,73.9335 C170.3569,74.4975 169.3399,77.7995 169.3399,80.5625" id="Fill-11" fill="#9EB3DC"></path>
                <path d="M203.2559,117.0547 C203.9189,118.0467 204.3159,118.8157 204.4479,119.3597 C204.6079,120.0207 204.7349,121.0127 204.8269,122.3357 C204.0829,122.5277 197.3929,124.2457 184.7569,127.4927 C183.8059,125.8507 183.8749,124.8137 184.9639,124.3827 C186.0539,123.9527 186.9559,123.5847 187.6719,123.2807 L195.9639,116.5977 C196.1229,116.4687 196.3539,116.4977 196.4779,116.6627 C196.4779,116.6627 196.4829,116.6677 196.4849,116.6707 L197.4469,118.0157 C198.6079,118.2487 199.5139,118.2827 200.1639,118.1147 C200.6929,117.9787 201.3689,117.5717 202.1939,116.8927 C202.5099,116.6317 202.9719,116.6847 203.2249,117.0107 C203.2349,117.0257 203.2459,117.0397 203.2559,117.0547" id="Fill-13" fill="#E4E4E4"></path>
                <g id="Group-17" transform="translate(162.000000, 122.000000)">
                    <mask id="mask-4" fill="white">
                        <use xlink:href="#path-3"></use>
                    </mask>
                    <g id="Clip-16"></g>
                    <path d="M20.7515,2.4834 C21.1615,3.6114 21.3665,4.4564 21.3665,5.0164 C21.3665,5.6984 21.2565,6.6924 21.0365,8.0004 L0.3525,8.0004 C-0.1855,6.1694 0.1245,5.1804 1.2825,5.0344 C2.4405,4.8874 3.4025,4.7554 4.1685,4.6384 L13.7825,0.2214 C13.9675,0.1364 14.1845,0.2224 14.2675,0.4134 C14.2675,0.4134 14.2705,0.4204 14.2715,0.4224 L14.8895,1.9674 C15.9605,2.4834 16.8325,2.7414 17.5025,2.7414 C18.0475,2.7414 18.7995,2.5144 19.7585,2.0614 C20.1265,1.8874 20.5625,2.0534 20.7315,2.4334 C20.7315,2.4334 20.7455,2.4654 20.7515,2.4834" id="Fill-15" fill="#E4E4E4" mask="url(#mask-4)"></path>
                </g>
                <path d="M195.3384,55.6172 L183.6404,64.4702 C180.4674,65.3512 177.8174,66.4492 175.6884,67.7632 C175.1854,68.2342 174.5774,69.1902 176.6634,69.0252 C178.7484,68.8602 180.9494,68.7832 181.2364,69.5152 C181.5244,70.2492 180.2624,71.1262 180.8444,72.1142 C181.2324,72.7742 183.0644,71.1212 186.3404,67.1552 L197.9244,62.2052 L195.3384,55.6172 Z M194.1094,30.3622 L180.2094,26.0622 C177.6164,23.9812 175.1704,22.4612 172.8714,21.4992 C172.2034,21.3692 171.0964,21.4442 172.4794,23.0612 C173.8624,24.6792 175.2474,26.4432 174.8524,27.1212 C174.4574,27.7992 173.0184,27.2882 172.6014,28.3622 C172.3244,29.0782 174.7084,29.5912 179.7534,29.9002 L190.5614,36.4552 L194.1094,30.3622 Z" id="Fill-18" fill="#E8C1A0"></path>
                <path d="M213.5088,31.7774 C207.1378,44.0184 197.9258,53.4014 184.5718,63.1564 L189.6288,69.0314 C204.5398,63.3214 212.4088,59.8764 216.2738,48.3104 C217.2438,45.4084 217.9218,36.1554 218.5028,31.2874 L213.5088,31.7774 Z" id="Fill-20" fill="#FFB53E"></path>
                <path d="M231.3174,72.5596 L203.0794,72.5596 C209.4754,52.4566 212.7434,38.6596 212.8814,31.1666 C212.8884,30.7856 213.5734,30.1126 213.8764,30.2006 C216.0904,30.8446 218.4614,30.6046 220.9854,29.4776 C227.6804,40.5726 229.9954,54.2326 231.3174,72.5596" id="Fill-22" fill="#F2F2F2"></path>
                <path d="M218.5762,29.4951 C210.4822,29.5631 197.3492,31.0871 182.2032,26.0761 L180.7082,33.7751 C192.1552,41.3621 203.7462,47.2391 213.9032,46.4041 C209.4922,65.9001 209.6962,81.8591 219.4322,81.8591 L234.4892,81.8591 C236.8802,65.2981 230.5962,42.3361 224.7692,30.7541 C224.5462,30.3111 224.0732,29.4771 222.9572,29.4771 L218.5822,29.4771 L218.5762,29.4951 Z" id="Fill-24" fill="#FFB53E"></path>
                <path d="M209.6265,13.2256 C211.3525,11.6556 213.2725,10.3746 215.3815,9.3826 C215.8455,9.1646 215.4415,8.4776 214.9805,8.6956 C212.8095,9.7166 210.8375,11.0476 209.0635,12.6626 C208.6845,13.0076 209.2485,13.5706 209.6265,13.2256" id="Fill-26" fill="#9B9BA5"></path>
                <path d="M212.586,13.5772 C213.935,12.3332 215.596,11.6742 217.433,11.6742 C217.945,11.6732 217.946,10.8772 217.433,10.8772 C215.388,10.8782 213.523,11.6312 212.023,13.0152 C211.646,13.3622 212.21,13.9252 212.586,13.5772" id="Fill-28" fill="#9B9BA5"></path>
                <path d="M217.3648,15.8867 C217.4398,13.9777 217.8798,12.1587 218.6988,10.4337 C218.9178,9.9727 218.2318,9.5687 218.0118,10.0317 C217.1318,11.8847 216.6498,13.8367 216.5688,15.8867 C216.5488,16.3997 217.3448,16.3987 217.3648,15.8867" id="Fill-30" fill="#9B9BA5"></path>
                <path d="M219.5117,10.7315 C219.4017,12.7735 219.5827,15.1535 218.4217,16.9325 C218.1407,17.3635 218.8297,17.7625 219.1097,17.3355 C220.3567,15.4215 220.1897,12.9205 220.3077,10.7315 C220.3357,10.2195 219.5397,10.2215 219.5117,10.7315" id="Fill-32" fill="#9B9BA5"></path>
                <path d="M221.7051,12.9629 C222.3381,15.0839 222.3921,17.2009 221.8601,19.3509 C221.7371,19.8479 222.5041,20.0599 222.6281,19.5619 C223.1921,17.2839 223.1441,14.9999 222.4731,12.7519 C222.3271,12.2619 221.5581,12.4709 221.7051,12.9629" id="Fill-34" fill="#9B9BA5"></path>
                <path d="M223.1773,16.3819 C223.8643,18.5669 223.4423,20.8729 221.9423,22.6229 C221.6103,23.0099 222.1713,23.5749 222.5053,23.1859 C224.1853,21.2259 224.7213,18.6359 223.9453,16.1699 C223.7913,15.6829 223.0223,15.8909 223.1773,16.3819" id="Fill-36" fill="#9B9BA5"></path>
                <path d="M217.7881,8.9238 C217.4701,7.3358 217.5761,5.6968 218.2571,4.2138 C218.6121,3.4408 219.0861,2.7158 219.9511,2.5018 C221.1001,2.2178 222.0551,3.0608 222.8611,3.7878 C223.2411,4.1298 223.8061,3.5688 223.4251,3.2248 C221.9191,1.8678 219.9371,0.7778 218.3221,2.6068 C216.7991,4.3308 216.5881,6.9778 217.0201,9.1348 C217.1211,9.6368 217.8891,9.4248 217.7881,8.9238" id="Fill-38" fill="#9B9BA5"></path>
                <path d="M224.0943,4.1602 C225.3913,4.0782 226.2503,5.2562 226.1683,6.4752 C226.0943,7.6002 225.3413,8.5012 224.4513,9.1242 C224.0353,9.4162 224.4323,10.1062 224.8533,9.8112 C226.1253,8.9202 227.1973,7.4802 226.9513,5.8412 C226.7413,4.4342 225.5443,3.2722 224.0943,3.3632 C223.5853,3.3952 223.5813,4.1912 224.0943,4.1602" id="Fill-40" fill="#9B9BA5"></path>
                <path d="M219.7188,8.1992 C219.5318,7.4162 219.8768,6.4702 220.5518,6.0132 C221.2028,5.5732 222.0498,5.7312 222.4038,6.4592 C222.6278,6.9202 223.3148,6.5162 223.0918,6.0572 C222.5968,5.0432 221.3368,4.6922 220.3498,5.2032 C219.2278,5.7842 218.6648,7.2122 218.9508,8.4112 C219.0708,8.9092 219.8378,8.6982 219.7188,8.1992" id="Fill-42" fill="#9B9BA5"></path>
                <path d="M221.565,8.9238 C221.708,8.4448 222.072,7.9438 222.631,7.9878 C223.255,8.0388 223.338,8.6208 223.333,9.1348 C223.328,9.6478 224.124,9.6478 224.129,9.1348 C224.138,8.2058 223.771,7.3098 222.737,7.1988 C221.774,7.0958 221.055,7.8498 220.797,8.7118 C220.65,9.2038 221.418,9.4138 221.565,8.9238" id="Fill-44" fill="#9B9BA5"></path>
                <mask id="mask-6" fill="white">
                    <use xlink:href="#path-5"></use>
                </mask>
                <g id="Clip-47"></g>
                <polygon id="Fill-46" fill="#C55735" mask="url(#mask-6)" points="105.416 116.148 150.94 116.148 150.94 57.747 105.416 57.747"></polygon>
                <path d="M151.1162,115.7637 C151.1162,119.1597 140.8462,121.9107 128.1782,121.9107 C115.5092,121.9107 105.2392,119.1597 105.2392,115.7637 C105.2392,112.3687 115.5092,109.6167 128.1782,109.6167 C140.8462,109.6167 151.1162,112.3687 151.1162,115.7637" id="Fill-48" fill="#C55735" mask="url(#mask-6)"></path>
                <path d="M182.8921,61.3125 L73.4631,61.3125 C70.6691,61.3125 68.4041,59.0465 68.4041,56.2535 L68.4041,56.0135 C68.4041,53.2195 70.6691,50.9555 73.4631,50.9555 L182.8921,50.9555 C185.6861,50.9555 187.9511,53.2195 187.9511,56.0135 L187.9511,56.2535 C187.9511,59.0465 185.6861,61.3125 182.8921,61.3125" id="Fill-49" fill="#C55735" mask="url(#mask-6)"></path>
                <path d="M35.7041,31.0899 L45.5611,31.0899 L43.8921,20.5689 C46.5511,21.9959 49.6361,21.8799 50.8951,21.7549 C55.5831,21.2909 53.7491,11.6729 51.3701,7.7209 C48.9901,3.7689 36.7551,2.0459 36.1381,9.8759 C35.9241,12.5939 37.2051,15.0199 39.0981,16.9989 L35.7041,31.0899 Z" id="Fill-50" fill="#EFC3A5" mask="url(#mask-6)"></path>
                <path d="M46.9668,7.8936 C51.3898,7.9556 51.9078,7.2476 51.9078,4.8576 C51.1938,4.4006 48.6728,3.6306 45.8498,3.4146 C44.4098,3.0456 42.7038,3.1156 41.0598,3.7306 C39.0308,4.2456 37.3138,5.3526 36.5548,7.4276 C33.8098,11.6646 35.8928,16.0726 38.7008,17.5796 C39.4488,16.7876 40.1008,16.0196 40.6828,15.2856 C40.2158,14.8766 39.9248,14.3076 39.9248,13.6766 C39.9248,12.4346 41.0508,11.4276 42.4408,11.4276 C42.5418,11.4276 42.6418,11.4336 42.7408,11.4436 C42.8908,15.8096 43.2238,18.6866 43.7378,20.0756 C44.5348,22.2266 49.1838,22.7546 50.8048,22.7546 C52.4068,22.7546 52.1138,21.2036 52.1138,20.3776 C52.1138,19.8786 50.4458,20.5306 50.4458,19.6886 C50.4458,18.8476 53.6208,18.3246 54.0538,17.7826 C54.5798,17.1236 54.7568,16.2376 53.9638,16.2376 C52.8758,16.2376 49.7098,17.6436 47.2308,17.6436 C45.5778,17.6436 44.5598,15.2466 44.1748,10.4496 C45.0448,9.2906 45.8798,8.4076 46.9668,7.8936" id="Fill-51" fill="#BEBEBF" mask="url(#mask-6)"></path>
                <path d="M72.0156,68.5059 C70.6036,70.8649 67.2476,77.5629 63.6696,85.3829 C61.5796,89.9499 58.9016,97.7769 55.6366,108.8649 L59.7946,110.8229 C67.2776,98.4259 72.8506,88.8349 76.5166,82.0489 C76.3076,84.0509 76.1006,86.1879 75.9046,88.3989 C75.2326,95.9679 75.9046,112.2369 76.2656,116.9309 C76.4936,119.8809 80.3936,119.1089 80.7586,116.7479 C81.1226,114.3869 88.0976,76.9969 88.1076,69.1209 C88.1116,66.1219 81.6306,63.7229 79.0376,67.3469 C76.9066,65.8039 73.8806,65.3899 72.0156,68.5059" id="Fill-52" fill="#B28B67" mask="url(#mask-6)"></path>
                <path d="M65.147,106.1553 C65.936,103.9313 79.399,79.7683 82.047,72.3043 C83.213,69.0173 73.626,62.1963 70.207,67.8643 L55.934,102.7083 L65.147,106.1553 Z" id="Fill-53" fill="#6DC6AB" mask="url(#mask-6)"></path>
                <path d="M83.8408,65.3145 C78.1948,64.4505 66.3938,62.9155 48.4398,60.7065 L27.4438,60.7065 C27.8068,73.7105 32.2908,80.5635 43.1308,80.1405 C50.6478,79.8475 75.7118,75.9645 76.3388,76.2725 C76.6168,76.4095 75.8668,86.5705 74.0888,106.7535 L84.2648,107.1085 C84.2678,104.9335 88.4678,81.7175 88.4678,71.8415 C88.4678,69.1215 87.4668,65.8695 83.8408,65.3145" id="Fill-54" fill="#6DC6AB" mask="url(#mask-6)"></path>
                <path d="M69.0874,105.0957 C69.8614,105.2937 70.3324,106.1017 70.1394,106.8997 L68.9224,111.9307 C68.7294,112.7287 67.9454,113.2137 67.1714,113.0157 L61.5914,111.5807 C60.8174,111.3827 60.3464,110.5747 60.5394,109.7777 L61.7564,104.7457 C61.9494,103.9487 62.7334,103.4627 63.5074,103.6617 L69.0874,105.0957 Z M58.9184,105.1547 L58.2184,108.0427 C57.4464,111.2337 59.3314,114.4647 62.4274,115.2597 L64.7574,115.8597 C67.8534,116.6547 70.9894,114.7127 71.7614,111.5227 L72.4604,108.6337 C73.2324,105.4437 71.3474,102.2117 68.2514,101.4167 L65.9214,100.8187 C62.8254,100.0227 59.6904,101.9637 58.9184,105.1547 Z" id="Fill-55" fill="#C5CFD6" mask="url(#mask-6)"></path>
                <path d="M75.7334,111.3203 C75.9004,110.9463 76.3284,110.7823 76.6914,110.9543 C77.6354,111.4003 78.3764,111.6233 78.9124,111.6233 C79.5724,111.6233 80.4304,111.3693 81.4854,110.8623 L82.0944,109.3413 C82.0954,109.3383 82.0974,109.3343 82.0984,109.3313 C82.1794,109.1433 82.3934,109.0593 82.5754,109.1423 L92.0414,113.4913 C92.7954,113.6073 93.7424,113.7373 94.8834,113.8813 C96.0234,114.0243 96.3294,114.9983 95.7994,116.8003 L75.4334,116.8003 C75.2164,115.5133 75.1084,114.5353 75.1084,113.8633 C75.1084,113.3113 75.3104,112.4803 75.7134,111.3693 C75.7194,111.3523 75.7264,111.3363 75.7334,111.3203" id="Fill-56" fill="#E4E4E4" mask="url(#mask-6)"></path>
                <path d="M75.4688,118.1035 C75.4688,118.8235 76.0348,119.4065 76.7328,119.4065 L93.3438,119.4065 C94.0408,119.4065 94.6068,118.8235 94.6068,118.1035 C94.6068,117.3845 94.0408,116.8005 93.3438,116.8005 L76.7328,116.8005 C76.0348,116.8005 75.4688,117.3845 75.4688,118.1035" id="Fill-57" fill="#738290" mask="url(#mask-6)"></path>
                <path d="M22.749,66.5664 L22.749,83.3114 C22.749,84.1334 23.395,84.7994 24.193,84.7994 L68.608,84.7994 L68.608,66.5664 C68.608,64.5114 66.991,62.8454 64.997,62.8454 L26.36,62.8454 C24.366,62.8454 22.749,64.5114 22.749,66.5664" id="Fill-58" fill="#738290" mask="url(#mask-6)"></path>
                <path d="M73.416,115.6846 L77.274,115.6846 L69.353,65.9636 C69.066,64.1646 67.558,62.8456 65.789,62.8456 L64.997,62.8456" id="Fill-59" fill="#738290" mask="url(#mask-6)"></path>
                <path d="M68.9693,116.4287 C68.9693,120.1277 71.8793,123.1267 75.4693,123.1267 C79.0583,123.1267 81.9693,120.1277 81.9693,116.4287 C81.9693,112.7297 79.0583,109.7317 75.4693,109.7317 C71.8793,109.7317 68.9693,112.7297 68.9693,116.4287" id="Fill-60" fill="#191847" mask="url(#mask-6)"></path>
                <path d="M5.0552,94.1026 C5.0552,81.3616 15.0782,71.0326 27.4432,71.0326 C39.8072,71.0326 49.8312,81.3616 49.8312,94.1026 C49.8312,106.8436 39.8072,117.1726 27.4432,117.1726 C15.0782,117.1726 5.0552,106.8436 5.0552,94.1026 M54.8872,94.1026 C54.8872,78.4836 42.5992,65.8226 27.4432,65.8226 C12.2862,65.8226 0.0002,78.4836 0.0002,94.1026 C0.0002,109.7216 12.2862,122.3826 27.4432,122.3826 C42.5992,122.3826 54.8872,109.7216 54.8872,94.1026" id="Fill-61" fill="#3B4247" mask="url(#mask-6)"></path>
                <polygon id="Fill-62" fill="#3B4247" mask="url(#mask-6)" points="25.999 118.662 28.888 118.662 28.888 69.544 25.999 69.544"></polygon>
                <path d="M42.7632,76.21 L10.0802,109.89 C9.7982,110.181 9.7982,110.651 10.0802,110.942 L11.1022,111.995 C11.3842,112.285 11.8412,112.285 12.1232,111.995 L44.8052,78.315 C45.0882,78.024 45.0882,77.554 44.8052,77.263 L43.7842,76.21 C43.5022,75.92 43.0452,75.92 42.7632,76.21" id="Fill-63" fill="#3B4247" mask="url(#mask-6)"></path>
                <path d="M50.5532,92.6143 L4.3332,92.6143 C3.9342,92.6143 3.6112,92.9473 3.6112,93.3583 L3.6112,94.8463 C3.6112,95.2583 3.9342,95.5913 4.3332,95.5913 L50.5532,95.5913 C50.9522,95.5913 51.2752,95.2583 51.2752,94.8463 L51.2752,93.3583 C51.2752,92.9473 50.9522,92.6143 50.5532,92.6143" id="Fill-64" fill="#3B4247" mask="url(#mask-6)"></path>
                <path d="M44.8057,109.8897 L12.1227,76.2097 C11.8417,75.9197 11.3837,75.9197 11.1017,76.2097 L10.0807,77.2627 C9.7987,77.5537 9.7987,78.0247 10.0807,78.3157 L42.7637,111.9947 C43.0457,112.2857 43.5027,112.2857 43.7847,111.9947 L44.8057,110.9427 C45.0877,110.6517 45.0877,110.1807 44.8057,109.8897" id="Fill-65" fill="#3B4247" mask="url(#mask-6)"></path>
                <path d="M14.9487,79.9287 C14.4307,81.0097 10.6027,84.2957 7.9457,86.1727 C6.8797,86.9267 7.3207,87.8907 7.7237,88.1467 C10.9997,90.2297 13.1567,87.7667 15.9917,86.4077 C19.0987,84.9177 18.8367,89.1227 21.2987,87.9887 C20.5427,86.2407 18.7747,82.9917 19.6107,80.8577 C19.9817,79.9087 22.4967,71.6857 27.1567,56.1857 L19.6107,56.1557 C17.2077,70.5297 15.6537,78.4527 14.9487,79.9287 Z M61.2887,62.3407 L72.6947,67.2147 C75.9207,71.1187 77.7247,72.7467 78.1067,72.0977 C78.6787,71.1237 77.4367,70.2607 77.7197,69.5387 C78.0027,68.8177 80.1697,68.8937 82.2227,69.0567 C84.2767,69.2187 83.6777,68.2777 83.1827,67.8127 C81.0877,66.5197 78.4767,65.4387 75.3527,64.5707 L63.8347,55.8547 L61.2887,62.3407 Z" id="Fill-66" fill="#EFC3A5" mask="url(#mask-6)"></path>
                <path d="M71.3032,67.961 L74.7212,63.596 C60.5202,53.1 55.7622,33.287 44.1772,22.974 L41.0542,23.525 C40.5622,40.651 46.6682,64.818 71.3032,67.961" id="Fill-67" fill="#C8E9F1" mask="url(#mask-6)"></path>
                <path d="M37.6157,21.542 L45.5847,22.829 C45.5847,38.402 53.8067,50.195 55.9127,61.136 C56.0957,62.083 56.3337,63.962 55.0717,63.962 L27.4437,63.962 C28.7447,45.916 31.0247,32.466 37.6157,21.542" id="Fill-68" fill="#B5D783" mask="url(#mask-6)"></path>
                <path d="M27.6651,32.2803 C18.5341,45.2403 14.2471,61.0093 14.8051,79.5913 L20.7301,79.5913 C21.9081,77.4763 23.1401,74.8723 24.4291,71.7763 L46.1741,71.7763 C49.3841,63.4173 47.4101,46.7393 40.2521,21.7403 L37.7571,21.5933 C37.5331,21.5583 37.2861,21.5423 37.0161,21.5423" id="Fill-69" fill="#C8E9F1" mask="url(#mask-6)"></path>
                <path d="M54.669,109.291 C54.228,110.407 53.999,111.245 53.983,111.806 C53.964,112.486 54.047,113.483 54.231,114.797 C54.998,114.82 61.89,115.023 74.907,115.408 C75.495,113.594 75.212,112.597 74.059,112.416 C72.905,112.236 71.947,112.076 71.185,111.936 L61.698,107.237 C61.515,107.146 61.296,107.226 61.209,107.414 C61.209,107.414 61.205,107.42 61.204,107.424 L60.544,108.949 C59.457,109.433 58.579,109.665 57.909,109.645 C57.365,109.629 56.62,109.38 55.673,108.898 C55.31,108.714 54.87,108.867 54.69,109.242 C54.69,109.242 54.676,109.274 54.669,109.291" id="Fill-70" fill="#E4E4E4" mask="url(#mask-6)"></path>
                <path d="M47.1929,12.5459 C47.2339,12.8309 47.3579,13.0539 47.5699,13.2459 C47.7509,13.4099 48.0909,13.3609 48.1479,13.0939 C48.2409,12.6529 48.0579,12.2429 47.6189,12.1429 C47.3519,12.0809 47.1819,12.2539 47.1929,12.5459" id="Fill-71" fill="#020202" mask="url(#mask-6)"></path>
                <path d="M50.9727,11.9326 C51.1597,12.1006 51.4837,12.0446 51.5507,11.7806 C51.6587,11.3536 51.5557,10.8136 51.1187,10.7466 C50.9547,10.7226 50.7987,10.8806 50.7327,11.0286 C50.6657,11.1756 50.6887,11.6796 50.9727,11.9326" id="Fill-72" fill="#020202" mask="url(#mask-6)"></path>
                <path d="M51.3775,14.6152 C51.9885,14.7532 52.1865,15.3652 51.8535,15.8712 C51.6075,16.2442 52.2065,16.5912 52.4505,16.2192 C53.0255,15.3452 52.5965,14.1812 51.5615,13.9482 C51.1275,13.8492 50.9425,14.5162 51.3775,14.6152" id="Fill-73" fill="#020202" mask="url(#mask-6)"></path>
                <path d="M46.2764,11.8447 C46.4334,11.3907 46.8284,11.1407 47.3014,11.1667 C47.7454,11.1917 47.7444,10.4997 47.3014,10.4757 C46.5114,10.4317 45.8624,10.9287 45.6094,11.6597 C45.4634,12.0817 46.1304,12.2627 46.2764,11.8447" id="Fill-74" fill="#BEBEBF" mask="url(#mask-6)"></path>
                <path d="M49.3545,10.1074 C49.7995,9.6334 50.3235,9.3354 50.9595,9.1974 C51.3945,9.1034 51.2105,8.4364 50.7755,8.5304 C50.0305,8.6914 49.3865,9.0634 48.8655,9.6184 C48.5615,9.9424 49.0485,10.4324 49.3545,10.1074" id="Fill-75" fill="#BEBEBF" mask="url(#mask-6)"></path>
                <path d="M208.772,17.5459 C208.705,17.9149 208.704,18.2449 208.766,18.6139 C208.816,18.9179 209.259,18.9369 209.397,18.6969 C209.648,18.2629 209.698,17.7789 209.504,17.3129 C209.371,16.9889 208.851,17.1089 208.772,17.5459" id="Fill-76" fill="#2B2520" mask="url(#mask-6)"></path>
                <path d="M208.8599,15.8447 C209.7849,15.9247 210.6239,16.3977 211.1819,17.1387 C211.4469,17.4907 212.0479,17.1457 211.7789,16.7897 C211.0619,15.8367 210.0519,15.2557 208.8599,15.1537 C208.4169,15.1147 208.4189,15.8067 208.8599,15.8447" id="Fill-77" fill="#2B2520" mask="url(#mask-6)"></path>
            </g>
        </g>
    </g>
</svg>