<?xml version="1.0" encoding="UTF-8"?>
<svg width="115px" height="90px" viewBox="0 0 115 90" version="1.1" xmlns="http://www.w3.org/2000/svg" xmlns:xlink="http://www.w3.org/1999/xlink">
    <!-- Generator: Sketch 52.6 (67491) - http://www.bohemiancoding.com/sketch -->
    <title>a1-walkcat</title>
    <desc>Created with Sketch.</desc>
    <defs>
        <polygon id="path-1" points="0.11765917 0.831888356 15.667 0.831888356 15.667 5 0.11765917 5"></polygon>
        <polygon id="path-3" points="0.637039782 0.401216125 7 0.401216125 7 12.1101886 0.637039782 12.1101886"></polygon>
        <polygon id="path-5" points="0.695247933 0 21.269048 0 21.269048 16.270366 0.695247933 16.270366"></polygon>
        <polygon id="path-7" points="0 0.4049 7.55053883 0.4049 7.55053883 6.1999 0 6.1999"></polygon>
    </defs>
    <g id="a1-walkcat" stroke="none" stroke-width="1" fill="none" fill-rule="evenodd">
        <g id="Group-75">
            <path d="M64.867,12.042 C65.916,9.912 66.362,7.52 65.528,5.183 C63.123,-1.549 54.874,3.057 51.862,6.346 C49.094,10.766 50.625,14.342 52.784,16.343 C53.661,15.885 54.28,15.551 54.586,15.919 C54.831,16.214 54.879,16.975 54.491,17.55 C55.186,17.907 55.852,18.097 56.38,18.092 C57.441,18.082 60.052,17.979 61.855,16.172 L63.065,25.739 L71.042,23.678 L64.867,12.042 Z" id="Fill-1" fill="#D4A181"></path>
            <polygon id="Fill-3" fill="#BA8B72" points="67.0565 41.8047 42.0335 88.0337 45.2495 88.0337 60.1845 66.8557 80.1055 41.8047"></polygon>
            <g id="Group-7" transform="translate(32.000000, 85.000000)">
                <mask id="mask-2" fill="white">
                    <use xlink:href="#path-1"></use>
                </mask>
                <g id="Clip-6"></g>
                <path d="M15.202,2.0293 C15.079,1.8273 14.761,1.7383 14.491,1.8313 C13.79,2.0733 13.24,2.1943 12.842,2.1943 C12.351,2.1943 11.715,2.0563 10.931,1.7813 L10.479,0.9573 C10.478,0.9553 10.477,0.9533 10.476,0.9523 C10.416,0.8493 10.258,0.8043 10.123,0.8493 L3.095,3.2063 C2.535,3.2693 1.831,3.3403 0.984,3.4173 C0.139,3.4953 -0.089,4.0223 0.305,5.0003 L15.425,5.0003 C15.586,4.3023 15.667,3.7713 15.667,3.4083 C15.667,3.1093 15.516,2.6583 15.217,2.0563 C15.212,2.0473 15.207,2.0383 15.202,2.0293" id="Fill-5" fill="#E4E4E4" mask="url(#mask-2)"></path>
            </g>
            <path d="M67.407,65.3428 C73.047,58.2858 78.384,50.4398 83.418,41.8048 L65.896,41.8048 C61.368,48.6308 57.133,55.7138 53.187,63.0538 C49.243,70.3938 45.912,77.1188 43.194,83.2318 L49.397,84.6428 C55.764,78.8328 61.767,72.3998 67.407,65.3428" id="Fill-8" fill="#DD7045"></path>
            <path d="M68.3094,41.8047 C71.3264,50.2267 79.1134,63.9317 80.6734,65.6657 C81.7124,66.8237 91.8914,68.4497 111.2074,70.5457 L111.9034,68.4117 C95.7044,64.5027 87.4914,62.4327 87.2624,62.2007 C86.9204,61.8547 83.2944,50.6077 81.4134,41.8047 L68.3094,41.8047 Z" id="Fill-10" fill="#D4A181"></path>
            <path d="M88.4266,61.1201 C88.1146,60.6011 86.6386,54.1631 83.9976,41.8051 L67.2906,41.8051 C71.4576,56.8961 75.1706,65.6071 78.4276,67.9381 C81.6846,70.2681 90.5366,70.9571 104.9856,70.0041 L106.2086,66.5671 C94.6656,63.4551 88.7386,61.6391 88.4266,61.1201" id="Fill-12" fill="#DD7045"></path>
            <g id="Group-16" transform="translate(108.000000, 67.000000)">
                <mask id="mask-4" fill="white">
                    <use xlink:href="#path-3"></use>
                </mask>
                <g id="Clip-15"></g>
                <path d="M3.0721,0.5293 C2.7861,0.5863 2.6141,0.8063 2.6891,1.0213 C2.8841,1.5833 2.9471,2.0113 2.8781,2.3063 C2.7931,2.6703 2.5021,3.1173 2.0061,3.6503 L0.8481,3.8423 C0.8451,3.8423 0.8431,3.8423 0.8411,3.8423 C0.6971,3.8703 0.6091,3.9793 0.6451,4.0883 L2.5101,9.7033 C2.4961,10.1293 2.4661,10.6613 2.4211,11.3023 C2.3761,11.9433 3.0271,12.2023 4.3751,12.0813 C6.0271,5.0293 6.9021,1.2963 7.0001,0.8803 C6.1151,0.6393 5.4331,0.4883 4.9581,0.4253 C4.5661,0.3733 3.9501,0.4053 3.1101,0.5233 L3.0721,0.5293 Z" id="Fill-14" fill="#E4E4E4" mask="url(#mask-4)"></path>
            </g>
            <path d="M53.1981,47.8086 L45.5291,52.7026 C43.6751,55.8656 42.5681,57.2426 42.2111,56.8336 C41.6741,56.2216 42.4691,55.4546 42.1731,54.9826 C41.8781,54.5096 40.3151,54.8406 38.8461,55.2186 C37.3771,55.5956 37.6941,54.8566 37.9961,54.4656 C39.3551,53.2866 41.1151,52.1916 43.2731,51.1796 L50.5471,43.5666 L53.1981,47.8086 Z" id="Fill-17" fill="#D4A181"></path>
            <path d="M48.7176,44.5771 C55.4016,36.5731 59.3216,27.8921 61.8026,19.1271 L64.8066,19.7821 C65.2186,22.8331 67.1176,31.0861 66.2756,33.7631 C63.7636,41.7381 61.0306,42.3411 52.9416,48.3311" id="Fill-19" fill="#191847"></path>
            <path d="M67.8885,18.7109 C65.4005,19.2159 63.5985,19.3599 62.4825,19.1439 C64.2135,25.1619 62.3755,31.8999 59.3005,41.1669 C59.1035,41.7629 59.6555,43.8029 60.4515,43.8109 C66.8845,43.8669 75.4125,42.9449 86.0385,41.0439 C81.7375,30.9459 76.5355,24.1709 67.8885,18.7109" id="Fill-21" fill="#191847"></path>
            <polygon id="Fill-23" fill="#000000" points="69.9842 22.0625 68.0542 25.2445 70.9052 27.2875 65.4222 38.7445 69.5762 27.5005 66.6842 25.4855 68.8562 21.8885 66.7722 17.9685"></polygon>
            <g id="Group-27" transform="translate(48.000000, 0.000000)">
                <mask id="mask-6" fill="white">
                    <use xlink:href="#path-5"></use>
                </mask>
                <g id="Clip-26"></g>
                <path d="M11.1473,2.1435 C12.6603,1.8455 16.9213,10.9065 15.8013,15.1965 C15.7323,15.4615 15.5613,16.0195 15.8013,16.2015 C16.4283,16.6745 19.9563,14.6615 20.9723,11.6825 C22.1803,8.1455 19.4453,4.4225 17.3523,2.6455 C15.1833,0.8035 12.8113,0.2945 11.6643,0.1355 C10.8573,0.0235 5.8683,-0.6695 2.8733,2.6455 C0.8703,4.8615 0.0093,8.5885 1.3213,9.6735 C2.9293,11.0055 8.3053,8.7775 10.1123,5.1565 C10.9683,3.4415 10.6073,2.2495 11.1473,2.1435" id="Fill-25" fill="#191847" mask="url(#mask-6)"></path>
            </g>
            <path d="M66.7596,48.5303 L60.3626,54.9173 C59.2546,58.3943 58.4816,59.9713 58.0406,59.6483 C57.3806,59.1623 57.9866,58.2473 57.5926,57.8473 C57.1986,57.4493 55.7476,58.0993 54.3976,58.7763 C53.0466,59.4533 53.1916,58.6653 53.3996,58.2193 C54.4636,56.7833 55.9376,55.3443 57.8196,53.9043 L63.2256,44.9453 L66.7596,48.5303 Z" id="Fill-28" fill="#D4A181"></path>
            <path d="M61.6649,46.3154 C66.4089,37.0984 68.3019,27.7994 68.7729,18.7204 L71.8519,18.7304 C72.9339,21.6234 76.6259,29.2824 76.3989,32.0724 C75.7239,40.3864 73.1889,41.5474 66.6249,49.0944" id="Fill-30" fill="#191847"></path>
            <path d="M52.2567,11.8389 C52.2377,12.0939 52.2947,12.2989 52.4547,12.5059 C52.6387,12.7439 52.9737,12.6519 53.0107,12.3599 C53.0357,12.1589 52.9947,12.0139 52.8987,11.8379 C52.7187,11.5089 52.2827,11.4689 52.2567,11.8389" id="Fill-32" fill="#191847"></path>
            <path d="M51.8406,13.3437 C52.0246,13.4597 51.9796,13.8437 51.7386,14.1997 C51.4996,14.5577 51.1566,14.7527 50.9726,14.6367 C50.7886,14.5207 50.8336,14.1367 51.0726,13.7797 C51.3136,13.4227 51.6556,13.2277 51.8406,13.3437" id="Fill-34" fill="#D4A181"></path>
            <path d="M17.8025,71.127 L15.1145,77.106 L10.6655,77.201 C10.6655,77.201 11.1055,75.303 12.6695,75.065 L13.6965,75.019 L13.8915,70.32 C13.8915,70.32 17.1175,69.514 17.8025,71.127" id="Fill-36" fill="#D59862"></path>
            <path d="M32.3934,67.6094 L33.4944,71.0024 C33.4944,71.0024 33.8354,71.5724 33.2004,72.7574 L31.0984,77.4084 L26.9924,77.4564 C26.9924,77.4564 27.4084,75.5574 29.0704,75.5574 C29.0704,75.5574 29.6804,75.4634 29.9254,74.5134 L30.2184,72.8054 C30.2184,72.8054 28.9974,69.2474 28.0194,69.1514 C28.0194,69.1514 30.3654,66.0674 32.3934,67.6094" id="Fill-38" fill="#D59862"></path>
            <path d="M30.3338,53.6953 C30.3338,53.6953 19.5628,56.6303 17.2888,59.5493 C17.2888,59.5493 16.6298,59.7613 16.2628,59.6203 L9.7188,66.0463 C9.7188,66.0463 12.2298,70.7953 15.8958,71.7913 C15.8958,71.7913 24.6948,73.7843 28.3608,69.7273 L32.1008,68.0903 C32.1008,68.0903 34.5688,65.3353 32.3198,54.9933 C32.3198,54.9933 30.9938,52.8413 30.3338,53.6953" id="Fill-40" fill="#D59862"></path>
            <path d="M11.5291,54.7002 L6.7811,57.2552 C6.7811,57.2552 4.4701,59.6272 5.0861,62.2282 C5.0861,62.2282 6.6781,65.7162 8.7531,66.7182 C8.7531,66.7182 11.8651,68.0132 12.4071,65.3482 L15.5091,62.7382 C15.5091,62.7382 18.8521,61.5412 17.9311,58.8212 L15.6751,55.5792 C15.6751,55.5792 12.5021,53.7522 11.5291,54.7002" id="Fill-42" fill="#D59862"></path>
            <path d="M15.9617,56.0029 C16.0277,55.9349 15.1387,50.4109 15.1387,50.4109 C15.1387,50.4109 15.0777,49.4359 14.6817,49.4939 C14.6817,49.4939 13.9497,50.1459 13.7677,50.4709 L10.9027,55.4109 C10.9027,55.4109 15.5047,56.4759 15.9617,56.0029" id="Fill-44" fill="#EBC6C6"></path>
            <path d="M16.1678,56.291 C16.1678,56.291 15.7108,51.721 15.3218,50.034 C15.3218,50.034 14.9098,48.562 14.0418,49.657 C14.0418,49.657 11.1158,54.36 10.7508,55.159 L11.0568,55.74 C11.0568,55.74 14.0418,50.078 14.4078,49.856 C14.4078,49.856 14.7888,49.583 14.9098,50.233 C14.9508,50.452 15.6878,55.914 15.6878,55.914 C15.6878,55.914 15.6188,56.912 16.1678,56.291" id="Fill-46" fill="#D59862"></path>
            <path d="M7.077,57.2529 C7.024,57.1749 1.29,56.6689 1.29,56.6689 C1.29,56.6689 0.3,56.4889 0.263,56.8769 C0.263,56.8769 0.735,57.7239 1.015,57.9749 L5.256,61.8729 C5.256,61.8729 7.438,57.7989 7.077,57.2529" id="Fill-48" fill="#EBC6C6"></path>
            <g id="Group-52" transform="translate(0.000000, 56.000000)">
                <mask id="mask-8" fill="white">
                    <use xlink:href="#path-7"></use>
                </mask>
                <g id="Clip-51"></g>
                <path d="M7.4148,1.1299 C7.4148,1.1299 2.7358,0.4489 0.9568,0.4049 C0.9568,0.4049 -0.6132,0.4349 0.2688,1.5189 C0.2688,1.5189 4.4998,5.6609 5.2088,6.1999 L5.6118,5.7909 C5.6118,5.7909 0.6898,1.6209 0.5578,1.2229 C0.5578,1.2229 0.3768,0.7979 1.0568,0.8409 C1.2848,0.8559 6.9218,1.4899 6.9218,1.4899 C6.9218,1.4899 7.9018,1.7969 7.4148,1.1299" id="Fill-50" fill="#D59862" mask="url(#mask-8)"></path>
            </g>
            <path d="M10.8367,59.5723 C11.1217,59.3163 11.5807,59.3993 11.9317,59.5603 C12.2317,59.6973 12.5267,59.8833 12.8487,59.9283 C13.7477,59.9283 15.8697,59.9673 15.8697,59.9673 C16.9057,59.9073 16.5457,62.0503 16.5157,62.1983 L14.6387,63.6603 L12.8707,65.0543 C12.7157,65.0643 10.6687,65.1783 10.8707,64.1903 C10.8707,64.1903 11.0757,62.5073 11.2067,61.5483 C11.1157,61.2053 10.8857,60.9133 10.7417,60.5883 C10.5947,60.2543 10.5617,59.8173 10.8367,59.5723" id="Fill-53" fill="#FFFDF6"></path>
            <path d="M12.9256,61.6074 C12.9256,61.6074 14.9756,62.9994 16.3506,62.0644 L16.2126,61.9584 C16.2126,61.9584 15.3056,62.7324 12.9956,61.4504 L12.9256,61.6074 Z" id="Fill-55" fill="#CED5D8"></path>
            <path d="M13.0154,61.5811 C13.0154,61.5811 13.4174,63.9771 11.9534,64.7741 L11.9144,64.6081 C11.9144,64.6081 13.0274,64.1501 12.8394,61.5741 L13.0154,61.5811 Z" id="Fill-57" fill="#CED5D8"></path>
            <path d="M11.7869,61.4854 C11.5839,61.2504 11.7179,60.8154 12.0869,60.5154 C12.4559,60.2144 12.9199,60.1624 13.1229,60.3974 C13.2349,60.5264 13.2409,60.7154 13.1669,60.9104 C13.3149,61.1374 13.2589,61.4544 13.0219,61.6474 C12.7719,61.8514 12.4179,61.8394 12.2169,61.6284 C12.0409,61.6424 11.8839,61.5974 11.7869,61.4854" id="Fill-59" fill="#F7AE8B"></path>
            <path d="M33.1805,64.0264 L34.8505,71.0024 C34.8505,71.0024 35.1925,71.5724 34.5565,72.7574 L32.4545,77.4084 L28.3485,77.4564 C28.3485,77.4564 28.7645,75.5574 30.4265,75.5574 C30.4265,75.5574 31.0365,75.4634 31.2825,74.5134 L31.5755,72.8054 C31.5755,72.8054 30.3535,69.2474 29.3755,69.1514 C29.3755,69.1514 31.1525,62.4844 33.1805,64.0264" id="Fill-61" fill="#D59862"></path>
            <path d="M19.6111,71.9102 L16.9231,77.8892 L12.4741,77.9832 C12.4741,77.9832 12.9141,76.0862 14.4781,75.8482 L15.5051,75.8012 L15.7001,71.1032 C15.7001,71.1032 18.9261,70.2972 19.6111,71.9102" id="Fill-63" fill="#D59862"></path>
            <path d="M15.0506,63.3457 C15.1316,63.2837 18.0216,65.8227 18.0216,65.8227 C18.0216,65.8227 18.7546,66.3067 17.8296,67.2047 C17.8296,67.2047 15.6286,69.5667 15.6286,72.1487 C15.6286,72.1487 12.3956,70.1307 11.7096,69.1657 C11.7096,69.1657 10.2616,67.9007 10.3816,66.9137 C10.3816,66.9137 14.2676,63.9467 15.0506,63.3457" id="Fill-65" fill="#FFFDF6"></path>
            <path d="M26.9861,58.5635 C27.7761,57.3935 28.0111,54.3035 29.2171,54.0645 C30.7571,53.7595 31.4051,52.5725 30.9571,51.4595 C30.3521,49.9615 28.9421,49.8045 27.5331,49.5215 C26.1251,49.2385 24.6481,49.0885 23.3951,48.4025 C21.8581,47.5605 20.8491,45.9825 20.4261,44.3195 C20.0031,42.6565 21.2311,37.7795 22.2831,36.8225 C23.3361,35.8645 25.2571,35.8235 26.1081,36.9545 C26.8611,37.9545 26.5581,39.3525 26.1171,40.5145 C25.6741,41.6755 25.1161,42.9135 25.4581,44.1055 C25.9661,45.8775 34.0931,50.6555 34.2071,53.5055 C34.2741,55.2075 33.3971,57.2575 31.9751,58.2535 C30.5531,59.2505 28.6281,59.1625 26.9861,58.5635" id="Fill-67" fill="#D59862"></path>
            <path d="M13.3523,58.4473 L13.3523,58.3853 C13.3523,57.8333 12.4683,57.8323 12.4683,58.3853 L12.4683,58.4473 C12.4683,58.9993 13.3523,59.0003 13.3523,58.4473" id="Fill-69" fill="#2D2D2D"></path>
            <path d="M8.7967,61.4561 L8.7967,61.3941 C8.7967,60.8431 7.9127,60.8421 7.9127,61.3941 L7.9127,61.4561 C7.9127,62.0081 8.7967,62.0091 8.7967,61.4561" id="Fill-71" fill="#2D2D2D"></path>
            <path d="M51.7606,10.9404 C52.2386,10.6644 52.9226,10.2724 53.3906,10.7764 C53.6516,11.0584 54.0736,10.6364 53.8126,10.3544 C53.1406,9.6304 52.1836,10.0054 51.4586,10.4254 C51.1266,10.6184 51.4276,11.1334 51.7606,10.9404" id="Fill-73" fill="#191847"></path>
        </g>
    </g>
</svg>