<?xml version="1.0" encoding="UTF-8"?>
<svg width="50px" height="75px" viewBox="0 0 50 75" version="1.1" xmlns="http://www.w3.org/2000/svg" xmlns:xlink="http://www.w3.org/1999/xlink">
    <!-- Generator: Sketch 52.6 (67491) - http://www.bohemiancoding.com/sketch -->
    <title>a2-boat-2</title>
    <desc>Created with Sketch.</desc>
    <g id="a2-boat-2" stroke="none" stroke-width="1" fill="none" fill-rule="evenodd">
        <g id="Group-9">
            <polygon id="Fill-1" fill="#133452" points="33.3288462 62.3176014 35.9153846 62.3176014 35.9153846 -0.000304054054 33.3288462 -0.000304054054"></polygon>
            <polygon id="Fill-2" fill="#133452" points="7.82403846 65.29125 39.3240385 65.29125 39.3240385 62.3176014 7.82403846 62.3176014"></polygon>
            <polygon id="Fill-3" fill="#33A8B9" points="0 65.2904392 4.35288462 74.7515878 41.4384615 74.7515878 48.5538462 65.2904392"></polygon>
            <g id="Group-8" transform="translate(0.000000, 7.859493)" fill="#FEFEFF">
                <path d="M33.3288462,47.3566216 L0.0817307692,47.3566216 C1.02115385,46.4464865 1.94903846,45.5211486 2.86442308,44.5836486 C7.475,39.8545946 11.4153846,34.4130405 15.425,29.1012162 C19.5317308,23.6616892 23.4865385,18.0863514 27.0586538,12.2383784 C29.3509615,8.48331081 31.3221154,4.5002027 33.3288462,0.566756757 L33.3288462,47.3566216 Z" id="Fill-4"></path>
                <path d="M35.9149038,0.566756757 C40.7658654,5.385 43.7716346,12.8272297 45.6091346,19.4373649 C47.5639423,26.4691216 48.8802885,33.5039189 49.2639423,40.8478378 L35.9149038,40.8478378 L35.9149038,0.566756757 Z" id="Fill-6"></path>
            </g>
        </g>
    </g>
</svg>