<?xml version="1.0" encoding="UTF-8"?>
<svg width="130px" height="60px" viewBox="0 0 130 60" version="1.1" xmlns="http://www.w3.org/2000/svg" xmlns:xlink="http://www.w3.org/1999/xlink">
    <!-- Generator: Sketch 52.6 (67491) - http://www.bohemiancoding.com/sketch -->
    <title>a2-boat-3</title>
    <desc>Created with Sketch.</desc>
    <defs>
        <polygon id="path-1" points="0 0.000206896552 116.734917 0.000206896552 116.734917 8.27586207 0 8.27586207"></polygon>
        <polygon id="path-3" points="0 0.000206896552 129.999511 0.000206896552 129.999511 20.6898621 0 20.6898621"></polygon>
        <polygon id="path-5" points="0 59.8331379 130 59.8331379 130 -0.000310344828 0 -0.000310344828"></polygon>
    </defs>
    <g id="a2-boat-3" stroke="none" stroke-width="1" fill="none" fill-rule="evenodd">
        <g id="Group-17">
            <g id="Group-3" transform="translate(0.000000, 51.557276)">
                <mask id="mask-2" fill="white">
                    <use xlink:href="#path-1"></use>
                </mask>
                <g id="Clip-2"></g>
                <path d="M3.90957895,0.000206896552 L-0.000195488722,0.000206896552 L-0.000195488722,4.13813793 C-0.000195488722,6.42331034 1.75040602,8.27606897 3.90957895,8.27606897 L111.428376,8.27606897 L116.734917,0.000206896552 L3.90957895,0.000206896552 Z" id="Fill-1" fill="#26689F" mask="url(#mask-2)"></path>
            </g>
            <g id="Group-6" transform="translate(0.000000, 30.867621)">
                <mask id="mask-4" fill="white">
                    <use xlink:href="#path-3"></use>
                </mask>
                <g id="Clip-5"></g>
                <polygon id="Fill-4" fill="#FEFEFF" mask="url(#mask-4)" points="116.734624 20.6898621 129.999511 0.000206896552 99.523797 0.000206896552 94.3756015 8.02055172 -0.000488721805 8.02055172 -0.000488721805 20.6898621"></polygon>
            </g>
            <mask id="mask-6" fill="white">
                <use xlink:href="#path-5"></use>
            </mask>
            <g id="Clip-8"></g>
            <polygon id="Fill-7" fill="#F28202" mask="url(#mask-6)" points="24.5993233 38.889 81.9850376 38.889 81.9850376 24.9038276 24.5993233 24.9038276"></polygon>
            <polygon id="Fill-9" fill="#FEFEFF" mask="url(#mask-6)" points="24.5991278 8.2532069 69.9173233 8.2532069 66.6096541 24.9032069 24.5991278 24.9032069"></polygon>
            <polygon id="Fill-10" fill="#2A90A3" mask="url(#mask-6)" points="69.1148421 12.2942069 47.8710827 12.2942069 47.8710827 21.7090345 67.2449925 21.7090345"></polygon>
            <polygon id="Fill-11" fill="#245F99" mask="url(#mask-6)" points="30.3730827 8.2527931 34.2691729 8.2527931 34.2691729 -0.000310344828 30.3730827 -0.000310344828"></polygon>
            <path d="M76.1268271,32.7716897 C76.1268271,30.5765172 74.4456241,28.7982414 72.3724662,28.7982414 C70.2983308,28.7982414 68.6171278,30.5765172 68.6171278,32.7716897 C68.6171278,34.9668621 70.2983308,36.7461724 72.3724662,36.7461724 C74.4456241,36.7461724 76.1268271,34.9668621 76.1268271,32.7716897" id="Fill-12" fill="#26689F" mask="url(#mask-6)"></path>
            <path d="M64.0061353,32.7716897 C64.0061353,30.5765172 62.3249323,28.7982414 60.250797,28.7982414 C58.1776391,28.7982414 56.4964361,30.5765172 56.4964361,32.7716897 C56.4964361,34.9668621 58.1776391,36.7461724 60.250797,36.7461724 C62.3249323,36.7461724 64.0061353,34.9668621 64.0061353,32.7716897" id="Fill-13" fill="#26689F" mask="url(#mask-6)"></path>
            <path d="M64.0061353,32.7716897 C64.0061353,30.5765172 62.3249323,28.7982414 60.250797,28.7982414 C58.1776391,28.7982414 56.4964361,30.5765172 56.4964361,32.7716897 C56.4964361,34.9668621 58.1776391,36.7461724 60.250797,36.7461724 C62.3249323,36.7461724 64.0061353,34.9668621 64.0061353,32.7716897" id="Fill-14" fill="#26689F" mask="url(#mask-6)"></path>
            <path d="M51.5561429,32.7716897 C51.5561429,30.5765172 49.8739624,28.7982414 47.8008045,28.7982414 C45.7266692,28.7982414 44.0454662,30.5765172 44.0454662,32.7716897 C44.0454662,34.9668621 45.7266692,36.7461724 47.8008045,36.7461724 C49.8739624,36.7461724 51.5561429,34.9668621 51.5561429,32.7716897" id="Fill-15" fill="#26689F" mask="url(#mask-6)"></path>
            <path d="M39.4345714,32.7716897 C39.4345714,30.5765172 37.7533684,28.7982414 35.6792331,28.7982414 C33.6060752,28.7982414 31.9248722,30.5765172 31.9248722,32.7716897 C31.9248722,34.9668621 33.6060752,36.7461724 35.6792331,36.7461724 C37.7533684,36.7461724 39.4345714,34.9668621 39.4345714,32.7716897" id="Fill-16" fill="#26689F" mask="url(#mask-6)"></path>
        </g>
    </g>
</svg>