<?xml version="1.0" encoding="UTF-8"?>
<svg width="90px" height="50px" viewBox="0 0 90 50" version="1.1" xmlns="http://www.w3.org/2000/svg" xmlns:xlink="http://www.w3.org/1999/xlink">
    <!-- Generator: Sketch 52.6 (67491) - http://www.bohemiancoding.com/sketch -->
    <title>a2-boat-1</title>
    <desc>Created with Sketch.</desc>
    <g id="a2-boat-1" stroke="none" stroke-width="1" fill="none" fill-rule="evenodd">
        <g id="Group-15">
            <polygon id="Fill-1" fill="#FEFEFF" points="0 29.8079808 14.3171591 50.0002885 84.8863636 50.0002885 89.9989773 29.8079808"></polygon>
            <polygon id="Fill-2" fill="#33A8B9" points="11.5912841 46.1542308 14.317875 50.0003846 84.8860568 50.0003846 85.8607159 46.1542308"></polygon>
            <polygon id="Fill-3" fill="#31689D" points="35.7954545 29.8076923 64.4318182 29.8076923 64.4318182 16.3461538 35.7954545 16.3461538"></polygon>
            <polygon id="Fill-4" fill="#30ABBD" points="50.1136364 29.8076923 61.3636364 29.8076923 61.3636364 16.3461538 50.1136364 16.3461538"></polygon>
            <polygon id="Fill-5" fill="#30ABBD" points="38.8636364 29.8076923 47.0454545 29.8076923 47.0454545 16.3461538 38.8636364 16.3461538"></polygon>
            <polygon id="Fill-6" fill="#133452" points="77.7272727 29.8076923 82.8409091 29.8076923 82.8409091 21.1538462 77.7272727 21.1538462"></polygon>
            <polygon id="Fill-7" fill="#FEFEFF" points="32.7272727 16.3461538 64.4318182 16.3461538 64.4318182 11.5384615 32.7272727 11.5384615"></polygon>
            <polygon id="Fill-8" fill="#133452" points="37.8409091 11.5384615 47.0454545 11.5384615 47.0454545 8.65384615 37.8409091 8.65384615"></polygon>
            <polygon id="Fill-9" fill="#133452" points="53.1807955 11.5384615 58.2944318 11.5384615 58.2944318 0.960576923 53.1807955 0.960576923"></polygon>
            <g id="Group-14" transform="translate(58.295455, 31.730769)" fill="#EF4D51">
                <path d="M6.13605682,8.65384615 C4.44242045,8.65384615 3.067875,7.3625 3.067875,5.76923077 C3.067875,4.17596154 4.44242045,2.88461538 6.13605682,2.88461538 C7.83071591,2.88461538 9.20423864,4.17596154 9.20423864,5.76923077 C9.20423864,7.3625 7.83071591,8.65384615 6.13605682,8.65384615 M6.13605682,0 C2.74776136,0 -0.000306818182,2.58269231 -0.000306818182,5.76923077 C-0.000306818182,8.95480769 2.74776136,11.5384615 6.13605682,11.5384615 C9.525375,11.5384615 12.2724205,8.95480769 12.2724205,5.76923077 C12.2724205,2.58269231 9.525375,0 6.13605682,0" id="Fill-10"></path>
                <path d="M20.4542386,8.65384615 C18.7606023,8.65384615 17.3860568,7.3625 17.3860568,5.76923077 C17.3860568,4.17596154 18.7606023,2.88461538 20.4542386,2.88461538 C22.1488977,2.88461538 23.5224205,4.17596154 23.5224205,5.76923077 C23.5224205,7.3625 22.1488977,8.65384615 20.4542386,8.65384615 M20.4542386,0 C17.0659432,0 14.317875,2.58269231 14.317875,5.76923077 C14.317875,8.95480769 17.0659432,11.5384615 20.4542386,11.5384615 C23.8435568,11.5384615 26.5906023,8.95480769 26.5906023,5.76923077 C26.5906023,2.58269231 23.8435568,0 20.4542386,0" id="Fill-12"></path>
            </g>
        </g>
    </g>
</svg>