<?xml version="1.0" encoding="UTF-8"?>
<svg width="190px" height="300px" viewBox="0 0 190 300" version="1.1" xmlns="http://www.w3.org/2000/svg" xmlns:xlink="http://www.w3.org/1999/xlink">
    <!-- Generator: Sketch 52.6 (67491) - http://www.bohemiancoding.com/sketch -->
    <title>a2-cassia-zoom</title>
    <desc>Created with Sketch.</desc>
    <defs>
        <polygon id="path-1" points="0.00020212766 0.354916944 189.288511 0.354916944 189.288511 187.028671 0.00020212766 187.028671"></polygon>
        <polygon id="path-3" points="0 299.003322 189.288511 299.003322 189.288511 0.354817276 0 0.354817276"></polygon>
    </defs>
    <g id="a2-cassia-zoom" stroke="none" stroke-width="1" fill="none" fill-rule="evenodd">
        <g id="Group-132">
            <polygon id="Fill-1" fill="#2E91A0" points="9.83795745 135.419701 95.6007234 299.645282 180.250777 133.830997"></polygon>
            <g id="Group-131" transform="translate(0.000000, 0.641860)">
                <path d="M2.78592553,93.6921927 C2.78592553,43.6609635 43.9118298,3.10315615 94.6448617,3.10315615 C145.375872,3.10315615 186.501777,43.6609635 186.501777,93.6921927 C186.501777,143.723422 145.375872,184.281229 94.6448617,184.281229 C43.9118298,184.281229 2.78592553,143.723422 2.78592553,93.6921927" id="Fill-2" fill="#FFFDF7"></path>
                <g id="Group-6">
                    <mask id="mask-2" fill="white">
                        <use xlink:href="#path-1"></use>
                    </mask>
                    <g id="Clip-5"></g>
                    <path d="M94.6444574,0.354916944 C42.457117,0.354916944 0.00020212766,42.2263455 0.00020212766,93.691794 C0.00020212766,145.158239 42.457117,187.028671 94.6444574,187.028671 C146.831798,187.028671 189.288713,145.158239 189.288713,93.691794 C189.288713,42.2263455 146.831798,0.354916944 94.6444574,0.354916944 M94.6444574,3.10275748 C145.376479,3.10275748 186.503394,43.6615615 186.503394,93.691794 C186.503394,143.723023 145.376479,184.281827 94.6444574,184.281827 C43.9124362,184.281827 2.78552128,143.723023 2.78552128,93.691794 C2.78552128,43.6615615 43.9124362,3.10275748 94.6444574,3.10275748" id="Fill-4" fill="#2E91A0" mask="url(#mask-2)"></path>
                </g>
                <polygon id="Fill-7" fill="#999999" points="133.883702 23.0424917 112.182266 27.2783721 111.985191 24.9072757 133.883702 20.6703987"></polygon>
                <polygon id="Fill-9" fill="#B7B7B7" points="135.856569 22.7037209 133.883803 23.0425914 133.883803 20.6704983"></polygon>
                <polygon id="Fill-11" fill="#FF931E" points="145.720197 95.1010963 136.318229 99.9668771 136.266686 22.3645515 145.720197 27.5193688"></polygon>
                <polygon id="Fill-13" fill="#FCECDE" points="136.318431 99.9667774 107.644601 97.6784053 107.773963 27.9488372 136.265878 22.5079734"></polygon>
                <polygon id="Fill-15" fill="#738290" points="120.298298 34.4896346 109.854362 36.1839867 109.854362 32.1175415 120.298298 30.4231894"></polygon>
                <polygon id="Fill-17" fill="#738290" points="133.47308 32.456412 123.029144 34.1507641 123.029144 30.0843189 133.47308 28.3899668"></polygon>
                <polygon id="Fill-19" fill="#738290" points="120.298298 41.9447841 109.854362 43.6391362 109.854362 39.572691 120.298298 37.8783389"></polygon>
                <polygon id="Fill-21" fill="#738290" points="133.47308 40.1777741 123.029144 41.8721262 123.029144 37.8056811 133.47308 36.1113289"></polygon>
                <polygon id="Fill-23" fill="#738290" points="120.137404 87.6921927 109.85416 87.6921927 109.85416 83.6257475 120.298096 83.2868771"></polygon>
                <polygon id="Fill-25" fill="#738290" points="133.313197 87.5228571 123.028941 87.5228571 123.028941 83.456412 133.472878 83.1175415"></polygon>
                <polygon id="Fill-27" fill="#738290" points="120.137404 79.8136545 109.85416 80.3219601 109.85416 76.255515 120.298096 75.7472093"></polygon>
                <polygon id="Fill-29" fill="#738290" points="133.313197 79.3781063 123.028941 79.886412 123.028941 75.8199668 133.472878 75.3116611"></polygon>
                <polygon id="Fill-31" fill="#738290" points="120.137404 72.3586047 109.85416 72.8669103 109.85416 68.8004651 120.298096 68.2921595"></polygon>
                <polygon id="Fill-33" fill="#738290" points="133.313197 71.6563455 123.028941 72.1646512 123.028941 68.098206 133.472878 67.5899003"></polygon>
                <polygon id="Fill-35" fill="#738290" points="120.137404 49.5692691 109.693468 50.9247508 109.693468 46.8583056 120.137404 45.5028239"></polygon>
                <polygon id="Fill-37" fill="#738290" points="133.47308 48.0684718 123.029144 49.4239535 123.029144 45.3575083 133.47308 44.0020266"></polygon>
                <polygon id="Fill-39" fill="#738290" points="120.298298 57.1937542 109.854362 58.2103654 109.854362 54.1439203 120.298298 53.127309"></polygon>
                <polygon id="Fill-41" fill="#738290" points="133.47308 55.9595681 123.029144 56.9761794 123.029144 52.9097342 133.47308 51.8931229"></polygon>
                <polygon id="Fill-43" fill="#738290" points="120.298298 64.8187375 109.854362 65.4964784 109.854362 61.4300332 120.298298 60.7522924"></polygon>
                <polygon id="Fill-45" fill="#738290" points="133.47308 63.8502658 123.029144 64.5280066 123.029144 60.4615615 133.47308 59.7838206"></polygon>
                <polygon id="Fill-47" fill="#FFF4E9" points="144.616782 35.8766113 138.150718 32.487907 138.150718 29.6075083 144.616782 32.9962126"></polygon>
                <mask id="mask-4" fill="white">
                    <use xlink:href="#path-3"></use>
                </mask>
                <g id="Clip-50"></g>
                <polygon id="Fill-49" fill="#999999" mask="url(#mask-4)" points="138.43117 33.2083056 145.46016 33.2083056 145.46016 32.8694352 138.43117 32.8694352"></polygon>
                <polygon id="Fill-51" fill="#999999" mask="url(#mask-4)" points="138.150213 33.6318937 138.57266 33.6318937 138.57266 32.4458472 138.150213 32.4458472"></polygon>
                <polygon id="Fill-52" fill="#999999" mask="url(#mask-4)" points="141.102287 34.7322259 148.131277 34.7322259 148.131277 34.3933555 141.102287 34.3933555"></polygon>
                <polygon id="Fill-53" fill="#999999" mask="url(#mask-4)" points="140.82234 35.1568106 141.243777 35.1568106 141.243777 33.9707641 140.82234 33.9707641"></polygon>
                <polygon id="Fill-54" fill="#999999" mask="url(#mask-4)" points="143.632926 35.9182724 150.661915 35.9182724 150.661915 35.579402 143.632926 35.579402"></polygon>
                <polygon id="Fill-55" fill="#999999" mask="url(#mask-4)" points="143.350957 36.3428571 143.773404 36.3428571 143.773404 35.1568106 143.350957 35.1568106"></polygon>
                <polygon id="Fill-56" fill="#FFF4E9" mask="url(#mask-4)" points="144.616782 43.6987375 138.150718 40.3100332 138.150718 37.4296346 144.616782 40.8183389"></polygon>
                <polygon id="Fill-57" fill="#999999" mask="url(#mask-4)" points="138.43117 41.0302326 145.46016 41.0302326 145.46016 40.6913621 138.43117 40.6913621"></polygon>
                <polygon id="Fill-58" fill="#999999" mask="url(#mask-4)" points="138.150213 41.4538206 138.57266 41.4538206 138.57266 40.2677741 138.150213 40.2677741"></polygon>
                <polygon id="Fill-59" fill="#999999" mask="url(#mask-4)" points="141.102287 42.5551495 148.131277 42.5551495 148.131277 42.2162791 141.102287 42.2162791"></polygon>
                <polygon id="Fill-60" fill="#999999" mask="url(#mask-4)" points="140.82234 42.9787375 141.243777 42.9787375 141.243777 41.792691 140.82234 41.792691"></polygon>
                <polygon id="Fill-61" fill="#999999" mask="url(#mask-4)" points="143.632926 43.741196 150.661915 43.741196 150.661915 43.4023256 143.632926 43.4023256"></polygon>
                <polygon id="Fill-62" fill="#999999" mask="url(#mask-4)" points="143.350957 44.1647841 143.773404 44.1647841 143.773404 42.9787375 143.350957 42.9787375"></polygon>
                <polygon id="Fill-63" fill="#FFF4E9" mask="url(#mask-4)" points="144.616782 51.5212625 138.150718 48.1325581 138.150718 45.2521595 144.616782 48.6408638"></polygon>
                <polygon id="Fill-64" fill="#999999" mask="url(#mask-4)" points="138.43117 48.8521595 145.46016 48.8521595 145.46016 48.513289 138.43117 48.513289"></polygon>
                <polygon id="Fill-65" fill="#999999" mask="url(#mask-4)" points="138.150213 49.2767442 138.57266 49.2767442 138.57266 48.0906977 138.150213 48.0906977"></polygon>
                <polygon id="Fill-66" fill="#999999" mask="url(#mask-4)" points="141.102287 50.3770764 148.131277 50.3770764 148.131277 50.038206 141.102287 50.038206"></polygon>
                <polygon id="Fill-67" fill="#999999" mask="url(#mask-4)" points="140.82234 50.8006645 141.243777 50.8006645 141.243777 49.6146179 140.82234 49.6146179"></polygon>
                <polygon id="Fill-68" fill="#999999" mask="url(#mask-4)" points="143.632926 51.5631229 150.661915 51.5631229 150.661915 51.2242525 143.632926 51.2242525"></polygon>
                <polygon id="Fill-69" fill="#999999" mask="url(#mask-4)" points="143.350957 51.986711 143.773404 51.986711 143.773404 50.8006645 143.350957 50.8006645"></polygon>
                <polygon id="Fill-70" fill="#FFF4E9" mask="url(#mask-4)" points="144.616782 59.3433887 138.150718 55.9546844 138.150718 53.0742857 144.616782 56.46299"></polygon>
                <polygon id="Fill-71" fill="#999999" mask="url(#mask-4)" points="138.43117 56.6750831 145.46016 56.6750831 145.46016 56.3362126 138.43117 56.3362126"></polygon>
                <polygon id="Fill-72" fill="#999999" mask="url(#mask-4)" points="138.150213 57.0986711 138.57266 57.0986711 138.57266 55.9126246 138.150213 55.9126246"></polygon>
                <polygon id="Fill-73" fill="#999999" mask="url(#mask-4)" points="141.102287 58.2 148.131277 58.2 148.131277 57.8611296 141.102287 57.8611296"></polygon>
                <polygon id="Fill-74" fill="#999999" mask="url(#mask-4)" points="140.82234 58.623588 141.243777 58.623588 141.243777 57.4375415 140.82234 57.4375415"></polygon>
                <polygon id="Fill-75" fill="#999999" mask="url(#mask-4)" points="143.632926 59.3860465 150.661915 59.3860465 150.661915 59.0471761 143.632926 59.0471761"></polygon>
                <polygon id="Fill-76" fill="#999999" mask="url(#mask-4)" points="143.350957 59.8096346 143.773404 59.8096346 143.773404 58.623588 143.350957 58.623588"></polygon>
                <polygon id="Fill-77" fill="#FFF4E9" mask="url(#mask-4)" points="144.616782 67.1659136 138.150718 63.7772093 138.150718 60.8968106 144.616782 64.285515"></polygon>
                <polygon id="Fill-78" fill="#999999" mask="url(#mask-4)" points="138.43117 64.49701 145.46016 64.49701 145.46016 64.1581395 138.43117 64.1581395"></polygon>
                <polygon id="Fill-79" fill="#999999" mask="url(#mask-4)" points="138.150213 64.920598 138.57266 64.920598 138.57266 63.7345515 138.150213 63.7345515"></polygon>
                <polygon id="Fill-80" fill="#999999" mask="url(#mask-4)" points="141.102287 66.0219269 148.131277 66.0219269 148.131277 65.6830565 141.102287 65.6830565"></polygon>
                <polygon id="Fill-81" fill="#999999" mask="url(#mask-4)" points="140.82234 66.445515 141.243777 66.445515 141.243777 65.2594684 140.82234 65.2594684"></polygon>
                <polygon id="Fill-82" fill="#999999" mask="url(#mask-4)" points="143.632926 67.2079734 150.661915 67.2079734 150.661915 66.869103 143.632926 66.869103"></polygon>
                <polygon id="Fill-83" fill="#999999" mask="url(#mask-4)" points="143.350957 67.6315615 143.773404 67.6315615 143.773404 66.445515 143.350957 66.445515"></polygon>
                <polygon id="Fill-84" fill="#FFF4E9" mask="url(#mask-4)" points="144.616782 74.9879402 138.150718 71.5992359 138.150718 68.7188372 144.616782 72.1075415"></polygon>
                <polygon id="Fill-85" fill="#999999" mask="url(#mask-4)" points="138.43117 72.3189369 145.46016 72.3189369 145.46016 71.9800664 138.43117 71.9800664"></polygon>
                <polygon id="Fill-86" fill="#999999" mask="url(#mask-4)" points="138.150213 72.7435216 138.57266 72.7435216 138.57266 71.5574751 138.150213 71.5574751"></polygon>
                <polygon id="Fill-87" fill="#999999" mask="url(#mask-4)" points="141.102287 73.8448505 148.131277 73.8448505 148.131277 73.5059801 141.102287 73.5059801"></polygon>
                <polygon id="Fill-88" fill="#999999" mask="url(#mask-4)" points="140.82234 74.2674419 141.243777 74.2674419 141.243777 73.0813953 140.82234 73.0813953"></polygon>
                <polygon id="Fill-89" fill="#999999" mask="url(#mask-4)" points="143.632926 75.030897 150.661915 75.030897 150.661915 74.6920266 143.632926 74.6920266"></polygon>
                <polygon id="Fill-90" fill="#999999" mask="url(#mask-4)" points="143.350957 75.4534884 143.773404 75.4534884 143.773404 74.2674419 143.350957 74.2674419"></polygon>
                <path d="M94.6444574,184.281429 C142.525468,184.281429 181.84334,148.150864 186.111266,102.028605 C176.732543,100.796711 167.420521,98.3040199 158.484457,95.2671429 C140.148447,89.0359136 118.212543,88.0093355 99.4692447,83.096711 C66.2414787,74.3877409 34.3811064,70.437907 3.23626596,84.7013621 C2.94115957,87.6595017 2.78552128,90.6575083 2.78552128,93.692392 C2.78552128,143.723621 43.9124362,184.281429 94.6444574,184.281429" id="Fill-91" fill="#6DC6AB" mask="url(#mask-4)"></path>
                <path d="M169.07241,136.814651 C169.07241,149.89804 136.807782,160.504684 97.0068245,160.504684 C57.2068777,160.504684 24.94225,149.89804 24.94225,136.814651 C24.94225,123.731262 57.2068777,113.124618 97.0068245,113.124618 C136.807782,113.124618 169.07241,123.731262 169.07241,136.814651" id="Fill-92" fill="#EAF2CE" mask="url(#mask-4)"></path>
                <path d="M51.6488723,66.0446512 C50.3360532,64.3044518 48.3774362,62.2692359 48.4643511,59.9728904 C48.5138723,58.6463123 48.9433936,57.3137542 48.9191383,56.0081063 C48.8928617,54.6755482 48.0156277,53.4546179 47.8963723,52.1041196 C47.7791383,50.7675748 48.0520106,48.7044518 48.7564255,47.4835216 C49.4618511,46.2625914 50.9778085,45.6705648 51.9561064,44.6469767 C53.9106809,42.601794 54.8778617,39.5838538 57.1386596,38.1167442 C59.5874362,36.5280399 61.0740851,35.2512957 62.9872234,37.8187375 C64.6780213,40.0851827 67.1247766,41.64299 69.1349362,43.6104319 C71.4250426,45.8519601 71.7231809,47.3110963 72.0435532,50.2343522 C72.5508936,54.901794 75.0522234,60.926711 70.3446702,64.3493023 C67.9929149,66.0596013 65.4309468,67.5695681 62.9397234,69.0755482 C61.9543511,69.6705648 61.4035532,70.3413289 60.2564787,70.3632558 C59.2236064,70.384186 57.9966915,69.9566113 57.0315319,69.632691 C54.9627553,68.9380066 52.9717979,67.7978073 51.6488723,66.0446512" id="Fill-93" fill="#B5D783" mask="url(#mask-4)"></path>
                <path d="M61.8055851,59.3608306 C61.786383,61.7777741 61.8369149,65.0259468 61.8419681,67.4219601 C61.8470213,69.7063455 62.1006915,72.0983721 62.2492553,74.3598339 C62.3220213,75.448206 62.4907979,76.5176412 62.5635638,77.6040199 C62.6242021,78.5428904 62.5756915,79.4807641 62.8576596,80.3319269 C63.138617,81.1781063 63.5691489,81.9266113 63.8480851,82.7827575 C63.8682979,82.8515282 62.4534043,82.3272757 61.2436702,82.4747841 C60.7009574,82.5415615 58.5018085,82.6990365 58.5018085,82.6990365 C58.5018085,82.6990365 59.305266,80.2910631 59.495266,79.6472093 C59.8196809,78.5448837 60.0238298,77.4395681 60.0581915,76.2196346 C60.1309574,73.589402 60.3431915,71.3628239 60.383617,68.733588 C60.4058511,67.2006977 60.5119681,65.433588 60.5251064,63.9016944 C60.5382447,62.4903987 60.6150532,61.0013621 60.6150532,61.0013621 C60.6150532,61.0013621 61.286117,59.7933887 61.8055851,59.3608306" id="Fill-94" fill="#B27B5F" mask="url(#mask-4)"></path>
                <path d="M55.4901064,65.1195349 C55.4901064,65.1195349 56.2976064,66.3992691 56.3744149,66.5059136 C56.7069149,66.9613953 57.0889362,67.3839867 57.3739362,67.8733555 C57.6316489,68.3158804 57.8155851,68.7813289 58.1905319,69.1481063 C58.9525532,69.8906312 59.495266,70.5364784 60.04,71.4773422 C60.2956915,71.9198671 60.4503191,72.5069103 60.8313298,72.8677076 C61.1446277,73.1657143 61.8399468,73.2215282 61.7520213,72.5986047 C61.6135638,71.610897 60.7646277,70.8165449 60.157234,70.0391362 C59.4568617,69.1421262 58.5654787,68.3427907 57.9318085,67.4009302 C57.5134043,66.7780066 56.9696809,66.2527575 56.4401064,65.7225249 C56.3309574,65.6118937 55.4901064,65.1195349 55.4901064,65.1195349" id="Fill-95" fill="#B27B5F" mask="url(#mask-4)"></path>
                <path d="M65.7642553,61.4228571 C65.4721809,62.0866445 65.1770745,62.7494352 64.8647872,63.4062458 C64.3806915,64.4278405 63.4670745,65.1912957 63.0042021,66.2099003 C62.7282979,66.8128904 62.0632979,68.4404651 61.3154255,68.638804 C60.8050532,68.7743522 60.5200532,68.5720266 60.6554787,68.0517608 C60.9101596,67.0859801 61.8187234,66.2587375 62.3584043,65.397608 C62.8960638,64.5404651 63.6540426,63.869701 64.2301064,63.0554153 C64.717234,62.3677076 64.9860638,61.9132226 65.7642553,61.4228571" id="Fill-96" fill="#B27B5F" mask="url(#mask-4)"></path>
                <path d="M25.1769202,78.8739867 C23.8752181,77.1487375 21.9327713,75.1304651 22.0176649,72.8530565 C22.0681968,71.5384385 22.4936755,70.2158472 22.4694202,68.9211628 C22.4441543,67.6005648 21.5739947,66.3896013 21.45575,65.0510631 C21.3395266,63.7254817 21.6103777,61.6793023 22.3087287,60.4693355 C23.0080904,59.2573754 24.5119202,58.6703322 25.4811223,57.6557143 C27.4205372,55.6284718 28.3786223,52.6354485 30.6202181,51.1812957 C33.0487819,49.6045515 34.5222926,48.3397674 36.4192606,50.8842857 C38.0959096,53.131794 40.5224521,54.6776412 42.5154309,56.6281395 C44.7863351,58.8507309 45.0814415,60.297907 45.3997926,63.1962458 C45.9030904,67.8248173 48.3842074,73.7989037 43.7160691,77.1925914 C41.383516,78.8889369 38.8427713,80.3859468 36.3727713,81.8799668 C35.395484,82.4690033 34.8487287,83.1347841 33.71075,83.156711 C32.6889947,83.1766445 31.4721862,82.7530565 30.5130904,82.4321262 C28.463516,81.7424252 26.4887287,80.6121927 25.1769202,78.8739867" id="Fill-97" fill="#B5D783" mask="url(#mask-4)"></path>
                <path d="M35.2477287,72.2466777 C35.2285266,74.642691 35.2790585,77.8639535 35.2841117,80.2400332 C35.2881543,82.5054817 35.5408138,84.8765781 35.688367,87.119103 C35.7601223,88.198505 35.9278883,89.2589701 35.998633,90.3363787 C36.0592713,91.2662791 36.0117713,92.1981728 36.2907074,93.0413621 C36.5706543,93.8805648 36.996133,94.6230897 37.2730479,95.4722591 C37.2932606,95.5400332 35.8904947,95.0197674 34.690867,95.1672757 C34.1532074,95.2320598 31.97225,95.3885382 31.97225,95.3885382 C31.97225,95.3885382 32.768633,93.001495 32.9566117,92.3626246 C33.280016,91.2682724 33.481133,90.1729236 33.5154947,88.9629568 C33.58725,86.3556478 33.7974628,84.14701 33.8368777,81.5406977 C33.8601223,80.0207641 33.9642181,78.2686047 33.978367,76.7486711 C33.9915053,75.3503322 34.0673032,73.8732558 34.0673032,73.8732558 C34.0673032,73.8732558 34.7333138,72.6752492 35.2477287,72.2466777" id="Fill-98" fill="#B27B5F" mask="url(#mask-4)"></path>
                <path d="M28.9855106,77.9566445 C28.9855106,77.9566445 29.7859362,79.2254153 29.861734,79.3310631 C30.1922128,79.7835548 30.5701915,80.2021595 30.8541809,80.6875415 C31.1098723,81.1260797 31.2917872,81.5885382 31.6626915,81.9513289 C32.4186489,82.6878738 32.9573191,83.3277409 33.497,84.2616279 C33.7516809,84.7001661 33.9042872,85.2822259 34.2812553,85.6400332 C34.5925319,85.9350498 35.2817872,85.9918605 35.1948723,85.3729236 C35.0574255,84.394186 34.2155638,83.605814 33.6132234,82.8353821 C32.9189149,81.9443522 32.035617,81.1539867 31.407,80.219103 C30.9916277,79.6011628 30.4519468,79.0799003 29.9284362,78.5556478 C29.8192872,78.4450166 28.9855106,77.9566445 28.9855106,77.9566445" id="Fill-99" fill="#B27B5F" mask="url(#mask-4)"></path>
                <path d="M39.1738564,74.2910631 C38.8838032,74.9488704 38.5907181,75.6056811 38.2814628,76.2575083 C37.8014096,77.2701329 36.8958777,78.0286047 36.4360372,79.0382392 C36.1631649,79.6362458 35.5032181,81.2498671 34.7624202,81.4462126 C34.2550798,81.5807641 33.9731117,81.3804319 34.1075266,80.8641528 C34.3601862,79.9063455 35.2606649,79.0860797 35.7952926,78.2329236 C36.3299202,77.3827575 37.0818351,76.7169767 37.6518351,75.9096678 C38.1349202,75.2279402 38.4017287,74.7774419 39.1738564,74.2910631" id="Fill-100" fill="#B27B5F" mask="url(#mask-4)"></path>
                <path d="M74.95975,81.119402 L64.6987394,91.7001329 L64.6987394,106.624385 L69.2001223,109.053289 L69.2001223,101.453621 L69.2082074,101.453621 C69.2071968,101.400797 69.2001223,101.347973 69.2001223,101.294153 C69.2001223,97.9493023 71.7782606,95.2373422 74.9587394,95.2373422 C78.1392181,95.2373422 80.7173564,97.9493023 80.7173564,101.294153 C80.7173564,101.347973 80.7102819,101.400797 80.7092713,101.453621 L80.7173564,101.453621 L80.8921968,110.510432 L85.4734202,109.039336 L85.7109202,92.4904983 L74.95975,81.119402 Z" id="Fill-101" fill="#FFFDF6" mask="url(#mask-4)"></path>
                <polygon id="Fill-102" fill="#F7D3A4" mask="url(#mask-4)" points="132.574016 120.067674 147.874069 131.564352 152.24508 124.379302 132.574016 108.930797"></polygon>
                <polygon id="Fill-103" fill="#B2B2B2" mask="url(#mask-4)" points="64.6717553 142.935548 66.4221809 142.935548 66.4221809 90.9687708 64.6717553 90.9687708"></polygon>
                <polygon id="Fill-104" fill="#B2B2B2" mask="url(#mask-4)" points="130.521915 136.087375 132.574521 136.087375 132.574521 96.3578073 130.521915 96.3578073"></polygon>
                <polygon id="Fill-105" fill="#C3E1E5" mask="url(#mask-4)" points="85.582266 105.568704 116.404713 111.445116 116.404713 93.9444518 85.582266 88.0162126"></polygon>
                <polygon id="Fill-106" fill="#B2B2B2" mask="url(#mask-4)" points="97.7034574 129.26113 99.833883 129.26113 99.833883 72.2870432 97.7034574 72.2870432"></polygon>
                <polygon id="Fill-107" fill="#B2B2B2" mask="url(#mask-4)" points="84.5449468 144.137542 86.3105319 144.137542 86.3105319 91.6863787 84.5449468 91.6863787"></polygon>
                <polygon id="Fill-108" fill="#C8E9F1" mask="url(#mask-4)" points="85.4687713 109.520332 113.408878 115.397741 113.408878 97.8960797 85.4687713 91.9678405"></polygon>
                <path d="M122.680777,85.7898339 L112.420777,96.3705648 L112.420777,111.294817 L117.143489,110.436678 L116.921149,106.124053 L116.929234,106.124053 C116.928223,106.070233 116.921149,106.018405 116.921149,105.964585 C116.921149,102.618738 119.500298,99.9067774 122.679766,99.9067774 C125.860245,99.9067774 128.438383,102.618738 128.438383,105.964585 C128.438383,106.018405 128.431309,106.070233 128.430298,106.124053 L128.438383,106.124053 L128.203915,114.319734 L132.574926,113.96093 L132.939766,96.3705648 L122.680777,85.7898339 Z" id="Fill-109" fill="#FFFDF6" mask="url(#mask-4)"></path>
                <path d="M117.499335,108.165947 C116.891941,108.13505 113.942899,108.154983 111.969122,112.292193 C111.33242,113.626744 107.281782,124.939037 105.50609,127.678904 C102.293271,132.639369 98.8176862,132.537708 92.0130585,138.261628 C90.9983777,139.113787 91.9766755,141.885548 92.8438032,142.94103 C93.2561436,143.444352 93.7847074,143.372591 93.9777394,143.322757 C95.7574734,142.863289 105.832527,133.141694 106.451037,132.829734 C108.340931,131.875914 110.068112,127.242359 111.365771,120.620432 C111.938803,117.689203 111.74375,116.040698 113.065665,113.370598 C114.167261,111.148007 117.60242,110.889867 117.60242,110.509136 C117.60242,110.491196 117.606463,108.17093 117.499335,108.165947" id="Fill-110" fill="#2E91A0" mask="url(#mask-4)"></path>
                <path d="M117.737138,110.079967 C115.914957,110.363023 113.519745,111.083621 112.110915,113.134784 C111.436819,114.115515 111.261979,115.001561 111.020436,115.999236 C111.020436,115.999236 110.176553,119.505548 107.572138,125.546412 C106.155223,128.832458 105.148628,131.168671 102.852457,133.183953 C99.933734,135.746412 96.6986809,136.235781 93.415117,140.248405 C92.9815532,140.777641 92.6753298,141.211196 92.6884681,141.776312 C92.7480957,144.396578 99.6305426,147.737442 105.212298,146.549402 C112.015915,145.102226 115.595596,137.205548 116.466766,135.283953 C119.990862,127.50887 118.503202,122.829468 123.000543,117.335781 C124.921766,114.988605 126.277032,113.301229 127.902138,112.562691" id="Fill-111" fill="#06BBCE" mask="url(#mask-4)"></path>
                <path d="M128.628181,111.416811 C128.045043,111.385914 123.626532,111.666977 121.730574,115.808173 C121.118128,117.144718 120.829085,118.296877 120.642117,119.244718 C119.733553,123.827442 118.896745,129.295216 117.192809,132.038073 C114.10733,137.002525 113.925415,136.047708 107.390628,141.775615 C106.416372,142.629767 104.199032,146.255681 105.030787,147.313156 C105.427968,147.816478 105.935309,147.744718 106.120255,147.694884 C107.831266,147.235415 117.506106,137.505847 118.100362,137.193887 C119.915468,136.23907 121.574936,131.601528 122.820043,124.973621 C123.37084,122.040399 123.181851,120.390897 124.453234,117.717807 C125.510362,115.493223 128.810096,115.23608 128.810096,114.853355 C128.810096,114.836412 128.991,113.135083 128.991,112.371628 C128.991,111.163654 128.731266,111.421794 128.628181,111.416811" id="Fill-112" fill="#2E91A0" mask="url(#mask-4)"></path>
                <path d="M69.1150266,103.466811 C68.5318883,103.435914 65.7000798,103.455847 63.8041223,107.596047 C63.1936968,108.931595 59.3017287,120.252857 57.5977926,122.995714 C54.5113032,127.960166 51.1731649,127.858505 44.6383777,133.586412 C43.665133,134.440565 44.604016,137.213322 45.4357713,138.270797 C45.8319415,138.775116 46.3402926,138.702359 46.5242287,138.652525 C48.2352394,138.193056 57.9110904,128.463488 58.5053457,128.151528 C60.3204521,127.196711 61.9789096,122.559169 63.224016,115.930266 C63.7758245,112.99804 63.5868351,111.348538 64.8582181,108.675449 C65.9153457,106.450864 69.2140691,106.192724 69.2140691,105.810997 C69.2140691,105.793056 69.2191223,103.471794 69.1150266,103.466811" id="Fill-113" fill="#2E91A0" mask="url(#mask-4)"></path>
                <path d="M70.3802447,105.410033 C68.5580638,105.69309 66.1628511,106.412691 64.7540213,108.46485 C64.0799255,109.445581 63.9050851,110.331628 63.6635426,111.328306 C63.6635426,111.328306 62.8196596,114.835615 60.2152447,120.876478 C58.7983298,124.162525 57.791734,126.498738 55.4955638,128.51402 C52.5758298,131.075482 49.3417872,131.565847 46.0582234,135.578472 C45.6246596,136.107708 45.3184362,136.541262 45.3315745,137.105382 C45.3912021,139.726645 52.2736489,143.066512 57.8554043,141.879468 C64.6590213,140.432292 68.2387021,132.535615 69.1088617,130.61402 C72.6339681,122.838937 71.1463085,118.159535 75.6436489,112.665847 C77.5648723,110.318671 78.9201383,108.630299 80.5452447,107.891761" id="Fill-114" fill="#06BBCE" mask="url(#mask-4)"></path>
                <path d="M81.2712872,106.746379 C80.6881489,106.715482 76.2696383,106.997542 74.3736809,111.137741 C73.761234,112.474286 73.4721915,113.627442 73.2842128,114.574286 C72.3766596,119.158007 71.5398511,124.624784 69.8359149,127.367641 C66.7504362,132.332093 66.5685213,131.377276 60.033734,137.105183 C59.0594787,137.959336 56.8421383,141.586246 57.6738936,142.642724 C58.0710745,143.147043 58.5784149,143.074286 58.7633617,143.024452 C60.4743723,142.564983 70.1492128,132.835415 70.7434681,132.523455 C72.5585745,131.568638 74.2180426,126.931096 75.4621383,120.303189 C76.0139468,117.369967 75.8249574,115.720465 77.0963404,113.047375 C78.1534681,110.822791 81.4532021,110.565648 81.4532021,110.182924 C81.4532021,110.16598 81.6330957,108.464651 81.6330957,107.701196 C81.6330957,106.493223 81.3743723,106.751362 81.2712872,106.746379" id="Fill-115" fill="#2E91A0" mask="url(#mask-4)"></path>
                <polygon id="Fill-116" fill="#FFB53E" mask="url(#mask-4)" points="132.574016 125.456512 147.874069 136.953189 152.24508 129.76814 132.574016 114.319635"></polygon>
                <polygon id="Fill-117" fill="#DD7045" mask="url(#mask-4)" points="75.0751649 81.0692691 81.4553245 78.9712625 90.674367 87.595515 85.354367 93.6353821"></polygon>
                <polyline id="Fill-118" fill="#DD7045" mask="url(#mask-4)" points="64.6756968 91.7908306 64.9121862 89.460598 76.4930904 79.9034551 81.4563351 78.9715615 76.153516 82.5645847"></polyline>
                <polyline id="Fill-119" fill="#DD7045" mask="url(#mask-4)" points="111.944766 96.6857143 112.181255 94.354485 123.76216 84.7983389 128.725404 83.8664452 123.422585 87.4594684"></polyline>
                <path d="M98.7688723,63.6235216 C103.201532,63.6235216 106.795362,67.2414618 106.795362,71.703588 C106.795362,76.166711 103.201532,79.7846512 98.7688723,79.7846512 C94.3352021,79.7846512 90.742383,76.166711 90.742383,71.703588 C90.742383,67.2414618 94.3352021,63.6235216 98.7688723,63.6235216" id="Fill-120" fill="#FFB53E" mask="url(#mask-4)"></path>
                <path d="M98.7688723,64.9428239 C101.723979,64.9428239 104.120202,68.1182392 104.120202,72.034186 C104.120202,75.9501329 101.723979,79.1255482 98.7688723,79.1255482 C95.8127553,79.1255482 93.4175426,75.9501329 93.4175426,72.034186 C93.4175426,68.1182392 95.8127553,64.9428239 98.7688723,64.9428239" id="Fill-121" fill="#FDE14C" mask="url(#mask-4)"></path>
                <path d="M107.798521,65.9322259 L106.734319,66.9817276 C106.772723,66.745515 106.795968,66.5053156 106.795968,66.2621262 C106.795968,62.9830565 103.201128,60.3249169 98.7684681,60.3249169 C94.3358085,60.3249169 90.7419787,62.9830565 90.7419787,66.2621262 C90.7419787,66.5053156 90.7642128,66.745515 90.802617,66.9817276 L89.7384149,65.9322259 C89.7384149,65.9322259 88.5296915,68.9142857 88.4094255,70.9086379 C88.4003298,71.072093 88.5307021,71.2096346 88.6964468,71.2096346 L89.4038936,71.2096346 L89.4038936,71.938206 C89.4038936,72.0877076 89.5211277,72.210299 89.6707021,72.2202658 C90.4529362,72.272093 92.8269255,72.3458472 95.2393191,71.5953488 C95.0897447,71.5385382 98.7684681,69.8900332 98.7684681,69.8900332 C98.7684681,69.8900332 102.11267,71.5385382 102.297617,71.5953488 C104.710011,72.3458472 107.085011,72.272093 107.865223,72.2202658 C108.015809,72.210299 108.133043,72.0877076 108.133043,71.938206 L108.133043,71.2096346 L108.8415,71.2096346 C109.006234,71.2096346 109.136606,71.072093 109.1265,70.9086379 C109.008255,68.9142857 107.798521,65.9322259 107.798521,65.9322259" id="Fill-122" fill="#FDE14C" mask="url(#mask-4)"></path>
                <path d="M106.706021,62.8692359 C107.842989,62.2403322 108.246234,61.3612625 108.389745,60.8180731 C108.444319,60.6107641 108.24017,60.4333555 108.034,60.5041196 C105.467989,61.3931561 101.290011,60.1114286 99.1929362,63.6147508 C99.0009149,63.9356811 98.5370319,63.9356811 98.3450106,63.6147508 C96.2469255,60.1114286 92.0689468,61.3931561 89.5029362,60.5041196 C89.296766,60.4333555 89.092617,60.6107641 89.1482021,60.8180731 C89.2917128,61.3612625 89.6939468,62.2403322 90.8319255,62.8692359 C91.0279894,62.9778738 91.0663936,63.2380066 90.9057021,63.3934884 C89.852617,64.4140864 89.2522979,65.8891694 89.4372447,67.498804 C89.6949574,69.7453156 91.5272447,71.5652492 93.8042128,71.8333555 C95.9174574,72.0815282 97.8073511,71.0320266 98.7684681,69.388505 C99.7295851,71.0320266 101.620489,72.0815282 103.733734,71.8333555 C106.009691,71.5652492 107.841979,69.7453156 108.099691,67.498804 C108.284638,65.8891694 107.68533,64.4140864 106.631234,63.3934884 C106.470543,63.2380066 106.509957,62.9778738 106.706021,62.8692359" id="Fill-123" fill="#FFB53E" mask="url(#mask-4)"></path>
                <path d="M94.4203989,63.6235216 C96.2678457,63.6235216 97.7656117,65.0996013 97.7656117,66.9215282 C97.7656117,68.7434551 96.2678457,70.2205316 94.4203989,70.2205316 C92.5739628,70.2205316 91.0761968,68.7434551 91.0761968,66.9215282 C91.0761968,65.0996013 92.5739628,63.6235216 94.4203989,63.6235216" id="Fill-124" fill="#FDE14C" mask="url(#mask-4)"></path>
                <path d="M98.9879787,71.9521595 L99.6519681,70.2039867 C99.724734,70.0126246 99.6782447,69.7973422 99.5306915,69.6528239 L99.2416489,69.3667774 C98.9798936,69.1086379 98.5564362,69.1086379 98.2946809,69.3667774 L98.0056383,69.6528239 C97.8590957,69.7973422 97.8115957,70.0126246 97.8843617,70.2039867 L98.5493617,71.9521595 C98.6261702,72.151495 98.9121809,72.151495 98.9879787,71.9521595" id="Fill-125" fill="#EBAF4B" mask="url(#mask-4)"></path>
                <path d="M95.0461862,66.062691 C95.5757606,66.062691 96.0052819,66.4862791 96.0052819,67.0095349 C96.0052819,67.531794 95.5757606,67.9553821 95.0461862,67.9553821 C94.5166117,67.9553821 94.0860798,67.531794 94.0860798,67.0095349 C94.0860798,66.4862791 94.5166117,66.062691 95.0461862,66.062691" id="Fill-126" fill="#000000" mask="url(#mask-4)"></path>
                <path d="M103.116436,63.6235216 C104.963883,63.6235216 106.461649,65.0996013 106.461649,66.9215282 C106.461649,68.7434551 104.963883,70.2205316 103.116436,70.2205316 C101.268989,70.2205316 99.7712234,68.7434551 99.7712234,66.9215282 C99.7712234,65.0996013 101.268989,63.6235216 103.116436,63.6235216" id="Fill-127" fill="#FDE14C" mask="url(#mask-4)"></path>
                <path d="M102.573622,65.8631561 C103.103197,65.8631561 103.532718,66.2867442 103.532718,66.8090033 C103.532718,67.3322591 103.103197,67.7558472 102.573622,67.7558472 C102.044048,67.7558472 101.613516,67.3322591 101.613516,66.8090033 C101.613516,66.2867442 102.044048,65.8631561 102.573622,65.8631561" id="Fill-128" fill="#000000" mask="url(#mask-4)"></path>
                <polygon id="Fill-129" fill="#F9F0E4" mask="url(#mask-4)" points="132.803936 97.6940532 137.991543 92.0239535 138.228032 109.039236 132.370372 113.922957"></polygon>
                <polygon id="Fill-130" fill="#DD7045" mask="url(#mask-4)" points="122.817011 85.497907 129.19717 83.3999003 138.416213 92.0241528 133.096213 98.0640199"></polygon>
            </g>
        </g>
    </g>
</svg>