<svg width="960" height="540" xmlns="http://www.w3.org/2000/svg" xmlns:xlink="http://www.w3.org/1999/xlink"><defs><path id="a" d="M0 .403h959.597V528.94H0z"/><path id="c" d="M0 .926h959.597v528.536H0z"/><path id="e" d="M0 539.074h959.597V1.006H0z"/></defs><g fill="none" fill-rule="evenodd"><g transform="translate(0 10.135)"><mask id="b" fill="#fff"><use xlink:href="#a"/></mask><path d="M711.82 134.039c-1.068-.259-2.24-.518-3.36-.777-11.966-2.535-24.136-5.018-36.204-7.967-6.11-1.449-12.068-3.467-18.179-5.226-7.383-2.12-14.715-3.984-21.793-6.467-7.79-2.897-15.022-6.674-22.353-10.191-4.838-2.33-9.981-4.088-14.615-6.727-11.558-6.829-22.303-14.85-31.824-24.627C479.017-14.81 452.487-22.57 356.757 48.102c-23.117 16.97-43.74 34.561-72.915 24.938-74.09-24.369-140.641-6.467-168.086 67.88-31.01 84.073-85.343 155.212-110.65 242.235-17.669 60.637 13.443 64.568 48.527 53.807 33.403-10.348 61.257-20.488 91.044 3.415-16.956 20.54-5.296 32.128 12.629 41.959 17.057 7.192 9.266 50.65 44.452 31.353 20.419-.104 36.459-7.813 45.471-27.421 12.934-4.192 32.488-4.347 31.316-21.989-.865-13.503-14.97-23.282-31.265-22.557-10.133-5.38-20.215-10.813-30.399-16.143-1.577-3.259-3.768-6.363-4.583-9.778-.204-.931 3.31-3.311 5.45-4.139 83.507-28.455 133.867 43.408 190.796 76.83 62.987 36.992 88.906 71.968 155.558-7.864 85.699-102.44 221.247-110.563 350.278-105.493 15.377.725 39.003 14.952 40.175-14.331 1.07-27.472-27.802-11.227-40.023-21.109-5.856-5.38-11.66-10.865-17.567-16.142 2.647-4.242 4.277-9.779 7.943-12.262 19.35-12.934 54.943-16.4 54.688-39.89-.305-31.094-32.232-14.9-51.327-18.159-5.5-1.035-10.744-14.383-12.933-22.972-2.7-10.554-6.417-19.143-11.304-26.128-3.362-4.81-7.843-8.07-12.323-11.277-1.681-1.242-2.954-3.364-4.786-4.347-13.189-7.502-29.941-8.95-49.138-6.468.458-.414.815-.516 1.272-.878-.611-.26-1.07-.415-1.578-.673-3.82-28.353 37.17-17.28 42.468-32.801.152-.518.559-.777.662-1.087.458-2.64.1-5.847-1.325-9.83-10.846-29.077-43.485-12.676-66.348-17.385-19.146-3.931-37.426-12.26-56.623-15.159-5.652-.879-10.54-.879-14.563-.155-12.067 2.432-16.091 12.21-7.587 30.37-.814-.103-1.528-.362-2.291-.517l-.051.104z" fill="#2E91A0" mask="url(#b)"/></g><g transform="translate(0 .08)"><mask id="d" fill="#fff"><use xlink:href="#c"/></mask><path d="M711.82 134.562c-1.068-.259-2.24-.518-3.36-.777-11.966-2.535-24.136-5.019-36.204-7.967-6.11-1.449-12.068-3.467-18.179-5.226-7.383-2.12-14.715-3.983-21.793-6.467-7.79-2.897-15.022-6.674-22.353-10.191-4.838-2.33-9.981-4.088-14.615-6.727-11.558-6.829-22.303-14.848-31.824-24.627-84.475-86.867-111.005-94.628-206.735-23.954-23.117 16.97-43.74 34.56-72.915 24.937-74.09-24.369-140.641-6.467-168.086 67.88-31.01 84.073-85.343 155.212-110.65 242.235-17.669 60.637 13.443 64.568 48.527 53.807 33.403-10.348 61.257-20.488 91.044 3.415-16.956 20.54-5.296 32.128 12.629 41.959 17.057 7.192 9.266 50.65 44.452 31.353 20.419-.104 36.459-7.813 45.471-27.422 12.934-4.19 32.488-4.345 31.316-21.988-.865-13.503-14.97-23.282-31.265-22.557-10.133-5.38-20.215-10.813-30.399-16.143-1.577-3.259-3.768-6.363-4.583-9.778-.204-.931 3.31-3.311 5.45-4.139 83.507-28.455 133.867 43.408 190.796 76.83 62.987 36.992 88.906 71.968 155.558-7.864 85.699-102.44 221.247-110.563 350.278-105.493 15.377.725 39.003 14.952 40.175-14.33 1.07-27.473-27.802-11.228-40.023-21.11-5.856-5.38-11.66-10.865-17.567-16.142 2.647-4.242 4.277-9.779 7.943-12.262 19.35-12.934 54.943-16.4 54.688-39.89-.305-31.094-32.232-14.9-51.327-18.16-5.5-1.034-10.744-14.382-12.933-22.97-2.7-10.555-6.417-19.143-11.304-26.128-3.362-4.812-7.843-8.072-12.323-11.279-1.681-1.241-2.954-3.363-4.786-4.346-13.189-7.502-29.941-8.95-49.138-6.467.458-.414.815-.517 1.272-.88-.611-.258-1.07-.414-1.578-.672-3.82-28.353 37.17-17.28 42.468-32.801.152-.518.559-.777.662-1.087.458-2.64.1-5.847-1.325-9.83-10.846-29.077-43.485-12.676-66.348-17.385-19.146-3.932-37.426-12.26-56.623-15.158-5.652-.88-10.54-.88-14.563-.156-12.067 2.432-16.091 12.211-7.587 30.371-.814-.104-1.528-.363-2.291-.518l-.051.104z" fill="#FEFEFF" mask="url(#d)"/></g><path d="M364.153 223.7c-2.924-3.991-7.288-8.661-7.095-13.93.112-3.044 1.068-6.103 1.013-9.1-.058-3.057-2.012-5.86-2.276-8.957-.262-3.067.346-7.802 1.914-10.603 1.57-2.802 4.948-4.16 7.127-6.51 4.355-4.691 6.508-11.616 11.542-14.983 5.456-3.647 8.765-6.576 13.026-.686 3.765 5.2 9.214 8.776 13.693 13.292 5.1 5.143 5.764 8.491 6.477 15.198 1.13 10.71 6.703 24.537-3.783 32.39-5.237 3.925-10.944 7.39-16.492 10.846-2.194 1.364-3.422 2.905-5.979 2.955-2.297.047-5.03-.934-7.18-1.676-4.607-1.595-9.042-4.213-11.987-8.235" fill="#B5D783"/><path d="M386.773 208.365c-.042 5.545.07 12.999.081 18.498.01 5.243.577 10.73.908 15.919.16 2.498.537 4.951.698 7.444.135 2.154.028 4.308.656 6.26.626 1.943 1.586 3.66 2.205 5.625.047.157-3.105-1.047-5.8-.707-1.208.152-6.107.513-6.107.513s1.79-5.523 2.213-7.002c.724-2.53 1.178-5.067 1.253-7.865.163-6.035.636-11.146.726-17.178.05-3.516.285-7.573.315-11.09.03-3.235.2-6.653.2-6.653s1.496-2.772 2.652-3.764" fill="#B27B5F"/><path d="M372.707 221.578s1.797 2.937 1.969 3.18c.74 1.048 1.591 2.018 2.227 3.14.575 1.014.983 2.084 1.818 2.924 1.698 1.705 2.907 3.186 4.12 5.347.569 1.015.914 2.36 1.762 3.19.697.683 2.246.812 2.05-.618-.31-2.266-2.2-4.09-3.552-5.873-1.56-2.06-3.544-3.893-4.955-6.055-.933-1.429-2.145-2.635-3.322-3.85-.243-.255-2.117-1.385-2.117-1.385M395.59 213.096a177.45 177.45 0 0 1-2.002 4.551c-1.08 2.343-3.115 4.097-4.148 6.435-.611 1.383-2.094 5.118-3.76 5.572-1.138.312-1.772-.153-1.467-1.346.566-2.218 2.587-4.115 3.79-6.09 1.199-1.968 2.888-3.508 4.17-5.376 1.083-1.577 1.683-2.62 3.416-3.746" fill="#B27B5F"/><path d="M447.566 235.19c-1.554 0-2.821-1.287-2.821-2.867v-6.554c0-.247-.013-.496-.039-.739-.3-2.824-2.484-5.168-5.313-5.702a1.263 1.263 0 0 1-1.007-1.443c.108-.69-2.477-1.785-1.8-1.676l3.227.627.57.125c3.904.734 6.38 3.87 6.798 7.798.035.332.054.672.054 1.01v6.554c0 .185.148.336.331.336.688 0 1.245.567 1.245 1.265 0 .7-.557 1.266-1.245 1.266" fill="#FFDC6C"/><path d="M438.48 240.48v20.1c0 .8.638 1.448 1.422 1.448h1.347c.786 0 1.423-.648 1.423-1.447v-19.86l-4.192-.242z" fill="#FFB945"/><path d="M442.007 231.84v-8.06l-.002.002c-.034-4.414-3.565-7.983-7.917-7.983 0 0-7.176.02-13.655.024-5.924.005-11.107-4.05-12.617-9.87l-5.499-21.178a.308.308 0 0 0-.084-.147 5.144 5.144 0 0 0-7.303.068l-5.158 4.349a.41.41 0 0 0-.03.028c-.955.993-.263 2.672 1.11 2.672h6.586a.31.31 0 0 1 .304.268l4.97 35.032a.204.204 0 0 0 .003.024c.98 4.64 3.53 5.818 11.718 5.818h17.492c.143 0 .264.1.298.24 1.116 4.65 5.23 8.106 10.143 8.129.033 0 .067.006.097.016h.002a.313.313 0 0 1 .207.296v18.701c0 .97.775 1.76 1.73 1.76h.805c.955 0 1.73-.79 1.73-1.76v-23.117a.308.308 0 0 0-.287-.31c-2.59-.152-4.643-2.334-4.643-5.003" fill="#FFDC6C"/><path d="M446.651 236.841c-2.59-.15-4.644-2.333-4.644-5.002v-8.058h-.002c-.034-4.413-3.564-7.982-7.917-7.982l-2.4.006c4.244.127 7.648 3.643 7.683 7.977v-.001 8.058c0 2.032 1.19 3.78 2.9 4.567a3.512 3.512 0 0 1 2.032 3.195v20.667c0 .63-.327 1.18-.815 1.49.265.17.578.27.915.27h.804c.956 0 1.73-.788 1.73-1.76v-23.116a.306.306 0 0 0-.286-.31M399.6 184.628c.04.04.068.091.083.147l5.498 21.178c1.511 5.82 6.692 9.874 12.618 9.87.832 0 1.678 0 2.52-.002-5.877-.048-11.002-4.086-12.502-9.868l-5.5-21.178a.326.326 0 0 0-.083-.147 5.141 5.141 0 0 0-4.935-1.313 5.158 5.158 0 0 1 2.3 1.313" fill="#FFD169"/><path d="M406.598 229.791l2.241 30.79c0 .799.637 1.446 1.422 1.446h1.499c.786 0 1.422-.647 1.422-1.446v-30.79h-6.584z" fill="#FFDC6C"/><path d="M413.182 230.856c-1.3 0-2.354 1.07-2.354 2.392v27.333c0 .648-.419 1.195-.995 1.38.136.043.28.066.429.066h1.498c.785 0 1.422-.648 1.422-1.446v-29.725z" fill="#FFD169"/><path d="M393.014 191.745c.256-.454.402-.981.402-1.543a3.124 3.124 0 0 0-1.703-2.793l-1.957 1.65c-.975.99-.284 2.686 1.096 2.686h2.162z" fill="#FFB945"/><path d="M397.096 185.702c.638 0 1.155.525 1.155 1.174 0 .647-.517 1.172-1.155 1.172a1.164 1.164 0 0 1-1.155-1.172c0-.649.517-1.174 1.155-1.174" fill="#556"/><path d="M401.139 181.24c-.2-.896-1.033-1.653-1.489-2.036a.452.452 0 0 0-.492-.062c-.373.181-.881.513-1.356 1.352-.748 1.314-.312 2.905-.084 3.53a.476.476 0 0 0 .344.302l2.04.458a.47.47 0 0 0 .516-.235c.32-.59.833-1.904.52-3.308" fill="#FFB945"/><path d="M402.186 196.524c.11.53.527.94 1.053 1.03l2.503.407-1.86-7.164-1.898 2.523c-.23.306-.318.698-.24 1.075l.442 2.129zM400.109 208.696l3.237-2.016a.943.943 0 0 0 .402-1.063l-.663-2.274a.926.926 0 0 0-.594-.623l-3.391-1.132 1.009 7.108zM417.502 219.028l.973-3.322.014-.031a12.866 12.866 0 0 1-4.696-1.693l-.055.059-.75 3.318a.892.892 0 0 0 .51 1.015l2.828 1.218a.87.87 0 0 0 1.176-.564M406 214.29l2.185.678c.395.124.826-.007 1.092-.33l2.035-2.476.047-.067a13.212 13.212 0 0 1-2.928-4.327l-.03.009-3.709 2.577c-.427.295-.57.867-.339 1.335l1.028 2.072c.126.255.351.446.62.53M437.575 222.098l-.942 3.216a.52.52 0 0 1-.705.337l-3.457-1.488a.533.533 0 0 1-.306-.609l.685-3.032a.52.52 0 0 1 .68-.383l3.715 1.307a.53.53 0 0 1 .33.652M407.438 218.46h1.91a.97.97 0 0 1 .89.595l1.017 2.39c.17.4.063.864-.264 1.143l-1.85 1.587a.96.96 0 0 1-1.34-.087l-1.817-2.017a.995.995 0 0 1-.19-1.017l.74-1.961a.968.968 0 0 1 .904-.633M421.137 221.622h2.03c.35 0 .668.212.807.54l1.067 2.507a.9.9 0 0 1-.24 1.038l-1.967 1.686a.87.87 0 0 1-1.215-.079l-1.913-2.122a.904.904 0 0 1-.173-.923l.782-2.073a.881.881 0 0 1 .822-.574M426.73 215.828h2.613l1.175 2.76a.315.315 0 0 1-.084.363l-2.13 1.827a.304.304 0 0 1-.425-.028l-1.992-2.208a.315.315 0 0 1-.059-.323l.903-2.391zM414.225 220.343c.695 0 1.258.573 1.258 1.28 0 .706-.563 1.279-1.258 1.279a1.268 1.268 0 0 1-1.258-1.28c0-.706.563-1.279 1.258-1.279M415.968 224.152c.695 0 1.258.572 1.258 1.279 0 .706-.563 1.278-1.258 1.278a1.268 1.268 0 0 1-1.258-1.278c0-.707.563-1.28 1.258-1.28M421.871 217.523c.695 0 1.258.573 1.258 1.28 0 .705-.563 1.278-1.258 1.278a1.268 1.268 0 0 1-1.259-1.278c0-.707.563-1.28 1.26-1.28M433.035 216.804c.695 0 1.258.572 1.258 1.28 0 .706-.563 1.278-1.258 1.278a1.268 1.268 0 0 1-1.259-1.279c0-.707.563-1.279 1.26-1.279M438.48 226.005c.695 0 1.258.572 1.258 1.278 0 .707-.563 1.279-1.258 1.279a1.268 1.268 0 0 1-1.258-1.28c0-.705.564-1.277 1.258-1.277M403.785 215.275c.695 0 1.258.572 1.258 1.28 0 .705-.563 1.278-1.258 1.278a1.269 1.269 0 0 1-1.258-1.279c0-.707.563-1.279 1.258-1.279M428.592 222.873c.695 0 1.258.573 1.258 1.28 0 .706-.563 1.278-1.258 1.278a1.268 1.268 0 0 1-1.259-1.278c0-.707.563-1.28 1.26-1.28M435.329 230.504a1.27 1.27 0 0 1 1.259 1.28c0 .705-.565 1.277-1.26 1.277a1.268 1.268 0 0 1-1.257-1.278c0-.707.563-1.279 1.258-1.279M437.221 217.786c.695 0 1.258.572 1.258 1.279s-.563 1.279-1.258 1.279a1.268 1.268 0 0 1-1.258-1.28c0-.706.563-1.278 1.258-1.278M431.803 226.005c.695 0 1.258.572 1.258 1.278 0 .707-.563 1.279-1.258 1.279a1.268 1.268 0 0 1-1.259-1.28c0-.705.563-1.277 1.259-1.277M426.373 227.947c.695 0 1.258.572 1.258 1.279 0 .706-.563 1.278-1.258 1.278a1.268 1.268 0 0 1-1.259-1.278c0-.707.563-1.28 1.259-1.28M417.514 227.947c.695 0 1.258.572 1.258 1.279 0 .706-.563 1.278-1.258 1.278a1.269 1.269 0 0 1-1.259-1.278c0-.707.564-1.28 1.26-1.28M411.01 226.325c.695 0 1.259.573 1.259 1.28 0 .705-.564 1.278-1.26 1.278a1.268 1.268 0 0 1-1.257-1.279c0-.706.563-1.279 1.258-1.279" fill="#D17461"/><path d="M431.926 232.887h-18.743v-2.032h16.743c1.105 0 2 .91 2 2.032" fill="#FFEDBB"/><path d="M322.544 227.95c-1.225 4.53-2.445 11.106-2.445 19.382 0 .89.707 1.607 1.58 1.607.875 0 1.582-.718 1.582-1.607 0-2.41.119-4.656.303-6.756.204.618.413 1.225.664 1.794 1.339 3.786 3.223 8.323 3.223 11.213 0 5.727 3.324 6.599 7.423 6.599 4.097 0 7.42-.872 7.42-6.599 0-.346-.015-.67-.021-1.007.745.039 1.504.065 2.29.065 1.303 0 2.533-.07 3.73-.174-.007.374-.02.73-.02 1.116 0 5.727 3.323 6.599 7.421 6.599 4.1 0 7.42-.872 7.42-6.599 0-3.745 2.536-11.038 3.151-15.649.05-.263.113-.51.157-.781 1.14 4.194 1.747 10.871.403 13.605-1.853 3.766-3.711 3.766-1.853 5.656 1.853 1.881 7.42 0 9.273-3.773 1.856-3.768 5.146-31.742 0-39.584-3.708-5.655-20.407-7.54-27.826-1.886-.02.017-.036.037-.058.05-.593-.022-1.181-.05-1.798-.05-12.964 0-20.653 5.055-22.019 16.78" fill="#99AAB5"/><path d="M346.418 211.172s-7.35 8.857-2.609 18.494c5.699 11.58 16.733 9.636 18.968 9.636 1.58 0 3.162-3.212 0-3.212-4.999 0-12.645 0-17.388-8.03-4.741-8.031 1.029-16.888 1.029-16.888" fill="#66757F"/><path d="M364.358 225.65c0-1.33 1.06-2.409 2.371-2.409 1.31 0 2.372 1.078 2.372 2.41 0 1.331-1.06 2.41-2.372 2.41-1.31 0-2.371-1.079-2.371-2.41" fill="#292F33"/><path d="M497.595 461.122a4.469 4.469 0 0 1 4.838 4.068 4.466 4.466 0 1 1-8.9.775 4.47 4.47 0 0 1 4.062-4.843m-10.308 8.89c.17 2.322.9 4.6 2.426 6.39 2.183 2.564 5.177 4.206 8.44 4.96 2.866.665 5.846.794 8.77.512 1.45-.14 2.951-.335 4.355-.733 1.273-.362 2.553-.644 3.75-1.258 5.473-2.808 8.64-9.554 10.023-15.264 1.766-7.287 1.376-15.199.57-22.589v-19.578h-33.063v8.306l-.417 3.048-1 7.304c-.4 2.935-.801 5.869-1.203 8.802l-1.031 7.541c-.16 1.174-.384 2.347-.615 3.52-.589 2.991-1.228 5.99-1.005 9.039" fill="#EDEFEF"/><path d="M528.692 445.463c-.417-10.545-.833-21.104-2.103-31.58-.571-4.713-1.33-9.46-3.157-13.839-1.006-2.405-2.471-5.039-4.431-6.794-2.086-1.872-5.744-2.624-8.424-2.973-4.695-.611-9.668-.298-13.715 2.395-6.932 4.615-7.855 14.792-7.681 22.318.137 5.96-.135 11.909.036 17.87l5.98 4.112c.284-2.205-.009-4.58 1.063-6.526.566-1.023 1.46-1.807 2.433-2.431 1.339-.855 2.782-1.448 4.2-2.123.35 3.969.814 8.172 3.246 11.327 1.13 1.467 2.627 2.614 4.208 3.577 4.87 2.968 18.345 4.667 18.345 4.667" fill="#DDD"/><path d="M495.224 462.95c.557-.335 1.06-.815 1.665-1.048.838-.324 1.793-.367 2.644-.065 1.281.454 2.248 1.655 2.475 2.989.079.452.027.905-.012 1.358 2.028-2.816 2.737-6.424 2.553-9.892-.125-2.352-.651-4.716-1.818-6.761s-5.196-4.43-5.196-4.43c.276-4.139-1.475-8.363-4.598-11.088-2.888-2.522-6.961-3.758-10.762-3.195-.409.06-.811.155-1.205.274a3.097 3.097 0 0 0-1.053.608c2.385 1.461 4.115 3.994 5.377 6.44 1.812 3.511 2.738 7.426 3.192 11.333.301 2.58.515 5.182.412 7.784-.043 1.083.02 2.176.323 3.222.263.914.943 1.713 1.746 2.222a4.41 4.41 0 0 0 2.423.67c.354-.005.78-.022 1.12-.109.255-.063.489-.176.714-.312" fill="#CCCECE"/><path d="M520.46 489.273h-32.31c-1.16 0-2.108-.963-2.108-2.142v-4.66c0-1.179.948-2.142 2.108-2.142h32.31c1.16 0 2.108.963 2.108 2.142v4.66c0 1.179-.949 2.142-2.108 2.142" fill="#28777F"/><mask id="f" fill="#fff"><use xlink:href="#e"/></mask><path fill="#2E91A0" mask="url(#f)" d="M478.418 493.309h51.773v-5.764h-51.773z"/><path d="M489.593 420.41a.177.177 0 0 1-.056 0c.038.036.072.052.056 0M499.51 395.838s-5.391.042-7.757 1.099c-.884.395-1.383 1.209-1.571 2.128-.106.523-.086 2.483-.678 2.716-1.11.437-2.263.822-3.394 1.18-.962.302-2.098.672-2.708 1.535-.974 1.379-.169 2.853.42 4.204.265.609.545 1.215.812 1.826.133-.017.27-.028.41-.028a3.3 3.3 0 0 1 1.171 6.385c.027.068.054.136.084.207.571 1.315 1.537 2.519 2.86 3.069.126.052.247.227.379.25-.057-.054-.122-.153-.044-.128.73.222 1.493-.186 2.11-.635a12.939 12.939 0 0 0 4.03-4.829c2.87-5.968 4.117-12.385 3.876-18.98" fill="#EDEFEF" mask="url(#f)"/><path d="M494.263 401.19a1.122 1.122 0 1 1-1.647-1.526 1.12 1.12 0 0 1 1.585-.062c.454.421.483 1.132.062 1.588" fill="#252A2B" mask="url(#f)"/><path d="M417.332 381.32c-1.756-2.4-4.38-5.208-4.265-8.375.068-1.83.642-3.669.61-5.47-.035-1.838-1.21-3.522-1.37-5.385-.156-1.844.21-4.69 1.153-6.374.943-1.684 2.974-2.502 4.283-3.914 2.619-2.82 3.912-6.984 6.939-9.007 3.28-2.193 5.27-3.953 7.831-.412 2.263 3.126 5.54 5.275 8.232 7.99 3.066 3.092 3.465 5.106 3.893 9.138.68 6.438 4.03 14.75-2.273 19.47-3.15 2.36-6.58 4.443-9.916 6.52-1.318.82-2.057 1.747-3.593 1.777-1.381.028-3.024-.56-4.318-1.007-2.769-.96-5.435-2.532-7.206-4.95" fill="#B5D783" mask="url(#f)"/><path d="M430.931 372.1c-.025 3.334.043 7.815.05 11.121.005 3.152.345 6.45.545 9.57.096 1.502.322 2.977.42 4.475.08 1.295.016 2.59.394 3.763.376 1.169.953 2.2 1.326 3.382.027.095-1.868-.63-3.487-.425-.727.091-3.67.308-3.67.308s1.074-3.32 1.33-4.208c.434-1.522.707-3.047.752-4.73.097-3.627.381-6.7.436-10.327.03-2.113.171-4.55.19-6.665.018-1.946.12-4 .12-4s.9-1.666 1.594-2.263" fill="#B27B5F" mask="url(#f)"/><path d="M422.475 380.044s1.08 1.766 1.184 1.912c.445.63.956 1.212 1.339 1.887.345.61.59 1.253 1.092 1.758 1.022 1.025 1.748 1.916 2.477 3.215.343.61.55 1.419 1.06 1.917.418.41 1.35.488 1.233-.372-.187-1.361-1.323-2.457-2.137-3.53-.938-1.238-2.13-2.34-2.978-3.64-.561-.86-1.29-1.584-1.997-2.314-.147-.153-1.273-.833-1.273-.833M436.231 374.945c-.39.915-.786 1.83-1.203 2.736-.65 1.409-1.872 2.463-2.492 3.868-.368.831-1.26 3.077-2.262 3.35-.684.187-1.066-.092-.881-.81.34-1.332 1.554-2.473 2.278-3.66.72-1.184 1.736-2.11 2.507-3.233.65-.948 1.011-1.575 2.053-2.251" fill="#B27B5F" mask="url(#f)"/><path d="M383.93 393.244c-1.285-1.756-3.203-3.81-3.12-6.125.05-1.339.47-2.684.447-4.001-.026-1.345-.886-2.577-1.001-3.938-.115-1.35.151-3.431.842-4.663.69-1.232 2.175-1.83 3.133-2.862 1.914-2.063 2.861-5.108 5.074-6.588 2.4-1.604 3.855-2.892 5.729-.301 1.655 2.286 4.052 3.858 6.02 5.844 2.242 2.262 2.534 3.734 2.847 6.682.498 4.71 2.948 10.79-1.662 14.241-2.303 1.727-4.812 3.25-7.252 4.77-.965.6-1.505 1.277-2.628 1.298-1.01.021-2.212-.41-3.158-.736-2.025-.702-3.975-1.852-5.27-3.621" fill="#B5D783" mask="url(#f)"/><path d="M393.877 386.5c-.02 2.44.03 5.717.035 8.134.004 2.305.254 4.718.4 7 .07 1.098.236 2.177.306 3.273.06.946.013 1.894.289 2.752.275.854.697 1.61.97 2.473.02.07-1.366-.46-2.55-.31-.532.067-2.686.226-2.686.226s.786-2.43.973-3.08c.318-1.112.518-2.227.551-3.458.072-2.653.28-4.9.32-7.553.02-1.546.125-3.33.137-4.876.014-1.423.088-2.925.088-2.925s.658-1.219 1.167-1.655" fill="#B27B5F" mask="url(#f)"/><path d="M387.692 392.31s.79 1.292.866 1.4c.326.46.699.886.979 1.38.252.446.432.915.8 1.285.746.75 1.277 1.401 1.81 2.35.25.447.402 1.04.774 1.403.308.301.988.357.902-.271-.135-.997-.967-1.798-1.56-2.583-.688-.906-1.56-1.711-2.18-2.661-.41-.629-.943-1.159-1.46-1.694-.108-.111-.931-.608-.931-.608M397.753 388.581c-.286.67-.575 1.339-.88 2.001-.475 1.031-1.37 1.801-1.824 2.829-.269.608-.92 2.25-1.652 2.45-.501.137-.78-.067-.647-.592.25-.974 1.138-1.809 1.667-2.678.527-.864 1.27-1.541 1.833-2.363.477-.694.74-1.152 1.503-1.647" fill="#B27B5F" mask="url(#f)"/><path d="M408.447 415.147c-.955-1.304-2.38-2.83-2.317-4.55.036-.996.349-1.995.33-2.973-.018-1-.657-1.915-.743-2.926-.086-1.002.113-2.548.625-3.464.514-.916 1.617-1.36 2.33-2.126 1.42-1.533 2.124-3.795 3.768-4.895 1.783-1.191 2.864-2.147 4.256-.224 1.229 1.7 3.01 2.867 4.473 4.342 1.666 1.68 1.882 2.774 2.115 4.965.369 3.498 2.19 8.015-1.236 10.58-1.71 1.282-3.574 2.414-5.386 3.542-.718.447-1.118.95-1.954.966-.75.016-1.643-.305-2.345-.547-1.505-.521-2.954-1.376-3.916-2.69" fill="#B5D783" mask="url(#f)"/><path d="M415.836 410.137c-.014 1.811.023 4.247.026 6.043.004 1.712.189 3.504.297 5.2.052.816.176 1.617.229 2.431.044.704.007 1.408.213 2.045.204.635.519 1.195.72 1.838.017.05-1.014-.342-1.893-.232-.395.05-1.996.168-1.996.168s.585-1.804.724-2.286c.235-.828.384-1.656.409-2.57.053-1.972.207-3.641.236-5.612.017-1.148.094-2.474.104-3.622.009-1.057.064-2.173.064-2.173s.49-.905.867-1.23" fill="#B27B5F" mask="url(#f)"/><path d="M411.242 414.453s.587.96.642 1.04c.243.341.52.658.728 1.024.187.332.321.682.594.955.554.557.95 1.042 1.346 1.747.185.332.298.771.575 1.043.228.223.734.265.67-.202-.1-.74-.718-1.336-1.16-1.92-.51-.672-1.158-1.27-1.619-1.977-.305-.467-.7-.86-1.086-1.257-.079-.084-.69-.453-.69-.453M418.716 411.683c-.212.496-.428.993-.654 1.486-.353.765-1.017 1.338-1.355 2.102-.199.452-.683 1.672-1.228 1.82-.37.102-.579-.05-.479-.44.185-.724.845-1.344 1.237-1.989.393-.642.943-1.145 1.363-1.755.353-.515.55-.857 1.116-1.224" fill="#B27B5F" mask="url(#f)"/><path d="M177.438 153.8c-1.758-2.4-4.382-5.208-4.266-8.375.069-1.83.643-3.669.61-5.47-.035-1.838-1.21-3.522-1.369-5.384-.157-1.845.208-4.692 1.151-6.375.944-1.684 2.975-2.502 4.285-3.914 2.617-2.82 3.912-6.983 6.938-9.007 3.28-2.193 5.27-3.953 7.83-.412 2.264 3.126 5.541 5.275 8.232 7.99 3.067 3.093 3.466 5.106 3.894 9.138.68 6.438 4.03 14.75-2.274 19.47-3.148 2.36-6.578 4.443-9.915 6.522-1.318.82-2.056 1.745-3.592 1.775-1.382.03-3.025-.56-4.318-1.007-2.77-.96-5.436-2.532-7.206-4.95" fill="#B5D783" mask="url(#f)"/><path d="M191.036 144.58c-.024 3.334.043 7.815.05 11.121.006 3.152.345 6.45.545 9.57.096 1.502.323 2.977.419 4.475.08 1.295.018 2.59.395 3.764.377 1.168.953 2.2 1.326 3.381.028.096-1.868-.628-3.487-.425-.726.091-3.672.308-3.672.308s1.076-3.32 1.332-4.208c.433-1.522.707-3.047.753-4.73.097-3.626.38-6.7.435-10.326.03-2.114.171-4.552.19-6.666.018-1.946.12-4 .12-4s.9-1.666 1.594-2.263" fill="#B27B5F" mask="url(#f)"/><path d="M182.58 152.525s1.081 1.764 1.184 1.911c.446.63.956 1.213 1.338 1.887.346.61.592 1.254 1.094 1.759 1.021 1.024 1.748 1.915 2.476 3.213.342.61.55 1.42 1.06 1.918.418.411 1.35.489 1.232-.371-.186-1.363-1.322-2.459-2.136-3.53-.938-1.239-2.13-2.34-2.978-3.64-.562-.86-1.29-1.585-1.997-2.315-.146-.154-1.272-.832-1.272-.832M196.337 147.425c-.391.915-.787 1.83-1.205 2.736-.648 1.41-1.871 2.463-2.492 3.868-.367.832-1.26 3.077-2.26 3.35-.684.187-1.066-.092-.882-.81.34-1.332 1.555-2.473 2.278-3.66.72-1.183 1.736-2.11 2.507-3.232.651-.949 1.011-1.575 2.054-2.252" fill="#B27B5F" mask="url(#f)"/><path d="M137.252 152.223c-1.286-1.756-3.204-3.809-3.119-6.125.049-1.338.469-2.684.446-4.001-.027-1.345-.886-2.576-1.002-3.938-.115-1.348.152-3.431.842-4.663.69-1.232 2.176-1.829 3.134-2.862 1.914-2.062 2.861-5.107 5.075-6.587 2.398-1.604 3.854-2.892 5.727-.302 1.656 2.287 4.052 3.858 6.02 5.844 2.242 2.262 2.534 3.734 2.849 6.683.497 4.709 2.946 10.789-1.664 14.24-2.303 1.727-4.812 3.25-7.251 4.77-.965.6-1.506 1.277-2.628 1.3-1.011.02-2.213-.412-3.159-.738-2.025-.702-3.975-1.852-5.27-3.62" fill="#B5D783" mask="url(#f)"/><path d="M147.198 145.48c-.019 2.439.03 5.716.036 8.133.004 2.305.253 4.719.399 7 .07 1.098.236 2.177.306 3.273.06.947.013 1.894.29 2.753.274.854.696 1.609.97 2.473.019.069-1.367-.46-2.551-.311-.532.067-2.685.226-2.685.226s.786-2.43.973-3.08c.317-1.111.517-2.226.55-3.457.072-2.654.28-4.9.32-7.553.021-1.547.125-3.33.138-4.875.013-1.424.087-2.927.087-2.927s.658-1.218 1.167-1.655" fill="#B27B5F" mask="url(#f)"/><path d="M141.014 151.29s.79 1.291.865 1.4c.326.459.7.885.98 1.379.252.446.432.916.799 1.286.746.749 1.278 1.4 1.811 2.35.25.446.402 1.039.774 1.403.308.3.988.357.902-.272-.135-.996-.967-1.798-1.561-2.582-.687-.905-1.559-1.712-2.18-2.662-.41-.628-.943-1.158-1.46-1.693-.107-.112-.93-.609-.93-.609M151.075 147.56a76.05 76.05 0 0 1-.881 2.002c-.474 1.03-1.369 1.8-1.822 2.828-.27.609-.922 2.25-1.654 2.451-.5.137-.779-.067-.646-.592.25-.975 1.138-1.81 1.666-2.678.528-.865 1.27-1.542 1.834-2.363.476-.694.74-1.153 1.503-1.647" fill="#B27B5F" mask="url(#f)"/><path d="M168.552 187.627c-.955-1.304-2.38-2.83-2.318-4.55.037-.995.35-1.994.332-2.973-.02-1-.658-1.914-.744-2.926-.086-1.002.112-2.548.626-3.463.512-.916 1.616-1.36 2.328-2.127 1.422-1.533 2.125-3.795 3.77-4.894 1.782-1.19 2.863-2.148 4.255-.225 1.23 1.7 3.01 2.867 4.472 4.343 1.666 1.68 1.884 2.774 2.116 4.964.37 3.499 2.19 8.016-1.236 10.58-1.71 1.282-3.575 2.414-5.387 3.544-.716.445-1.117.948-1.952.965-.752.015-1.643-.306-2.346-.548-1.504-.521-2.953-1.376-3.916-2.69" fill="#B5D783" mask="url(#f)"/><path d="M175.942 182.617c-.015 1.812.021 4.247.025 6.043.003 1.712.19 3.504.297 5.2.053.816.175 1.618.229 2.431.043.704.008 1.408.213 2.045.205.635.518 1.195.721 1.838.015.051-1.014-.342-1.894-.232-.395.05-1.995.168-1.995.168s.584-1.804.723-2.286c.236-.828.383-1.656.409-2.57.053-1.972.208-3.64.236-5.612.017-1.148.093-2.474.104-3.622.01-1.057.065-2.173.065-2.173s.489-.905.867-1.23" fill="#B27B5F" mask="url(#f)"/><path d="M171.347 186.934s.587.959.642 1.038c.243.342.52.659.729 1.026.187.33.32.68.592.955.556.556.95 1.041 1.347 1.747.186.33.298.77.575 1.042.228.223.734.265.67-.202-.1-.74-.719-1.336-1.16-1.919-.51-.673-1.157-1.271-1.619-1.977-.305-.467-.7-.86-1.085-1.258-.08-.083-.691-.452-.691-.452M178.82 184.163c-.211.498-.427.993-.652 1.487-.354.765-1.018 1.338-1.355 2.1-.2.453-.685 1.673-1.229 1.822-.372.101-.578-.05-.48-.44.187-.725.847-1.345 1.239-1.99.392-.642.943-1.145 1.362-1.755.354-.515.55-.857 1.116-1.224" fill="#B27B5F" mask="url(#f)"/><path d="M28.866 381.42c-1.286-1.756-3.204-3.81-3.12-6.125.05-1.339.47-2.684.446-4.001-.026-1.345-.885-2.577-1.002-3.938-.114-1.35.153-3.431.843-4.663.69-1.232 2.175-1.83 3.133-2.862 1.914-2.063 2.861-5.108 5.075-6.588 2.398-1.604 3.854-2.892 5.728-.301 1.655 2.286 4.051 3.858 6.02 5.843 2.242 2.263 2.534 3.735 2.848 6.683.497 4.71 2.946 10.79-1.663 14.241-2.304 1.727-4.812 3.25-7.252 4.77-.965.6-1.504 1.277-2.628 1.298-1.011.021-2.213-.41-3.158-.736-2.026-.702-3.975-1.852-5.27-3.621" fill="#B5D783" mask="url(#f)"/><path d="M38.812 374.677c-.02 2.438.03 5.716.035 8.133.005 2.305.254 4.718.399 7 .071 1.098.237 2.177.308 3.273.06.946.012 1.894.288 2.752.275.854.697 1.61.97 2.473.02.07-1.366-.46-2.55-.31-.532.066-2.686.226-2.686.226s.787-2.43.973-3.08c.318-1.112.518-2.227.551-3.458.072-2.653.28-4.9.319-7.553.022-1.546.126-3.33.139-4.876.012-1.423.088-2.925.088-2.925s.657-1.219 1.166-1.655" fill="#B27B5F" mask="url(#f)"/><path d="M32.627 380.487s.79 1.291.866 1.399c.326.46.7.886.979 1.38.253.446.432.915.8 1.285.747.75 1.277 1.401 1.81 2.35.252.447.402 1.04.775 1.403.307.301.988.357.902-.271-.136-.997-.967-1.798-1.562-2.583-.686-.906-1.558-1.711-2.178-2.661-.41-.629-.943-1.159-1.462-1.694-.107-.111-.93-.608-.93-.608M42.688 376.757c-.285.67-.575 1.339-.88 2.001-.475 1.031-1.368 1.801-1.823 2.829-.27.608-.921 2.25-1.652 2.45-.501.137-.78-.067-.647-.592.249-.974 1.138-1.809 1.667-2.678.526-.864 1.269-1.541 1.833-2.363.477-.694.74-1.152 1.502-1.647" fill="#B27B5F" mask="url(#f)"/><path d="M53.382 403.323c-.955-1.304-2.38-2.83-2.318-4.55.037-.996.35-1.995.332-2.973-.019-1-.657-1.915-.744-2.926-.085-1.002.113-2.548.625-3.464.514-.916 1.617-1.36 2.329-2.126 1.422-1.533 2.126-3.795 3.77-4.895 1.782-1.191 2.864-2.147 4.254-.224 1.23 1.7 3.011 2.867 4.474 4.342 1.665 1.68 1.882 2.774 2.115 4.965.369 3.498 2.19 8.015-1.235 10.58-1.71 1.282-3.575 2.414-5.387 3.542-.718.447-1.119.95-1.954.966-.75.016-1.643-.305-2.345-.547-1.505-.521-2.954-1.376-3.916-2.69" fill="#B5D783" mask="url(#f)"/><path d="M60.771 398.313c-.014 1.811.023 4.247.027 6.043.003 1.712.188 3.504.296 5.2.053.816.176 1.617.229 2.431.044.704.008 1.408.213 2.045.205.635.519 1.195.72 1.838.017.05-1.013-.342-1.893-.232-.395.05-1.996.168-1.996.168s.585-1.804.724-2.286c.236-.828.384-1.656.41-2.57.053-1.972.206-3.641.236-5.612.017-1.148.093-2.474.103-3.622.009-1.057.065-2.173.065-2.173s.49-.905.866-1.23" fill="#B27B5F" mask="url(#f)"/><path d="M56.177 402.63s.587.959.643 1.038c.242.342.52.659.727 1.025.188.332.322.682.594.955.555.557.95 1.042 1.346 1.747.186.332.298.771.575 1.042.228.224.734.266.671-.201-.102-.74-.72-1.336-1.16-1.92-.51-.672-1.159-1.27-1.62-1.977-.305-.467-.7-.86-1.085-1.257-.08-.084-.691-.453-.691-.453M63.651 399.859a61.46 61.46 0 0 1-.654 1.486c-.353.765-1.016 1.338-1.354 2.102-.2.452-.685 1.672-1.229 1.82-.371.102-.578-.05-.479-.44.185-.724.845-1.344 1.238-1.989.392-.642.943-1.145 1.362-1.755.353-.515.55-.857 1.116-1.224" fill="#B27B5F" mask="url(#f)"/><path d="M858.012 330.608c-1.285-1.756-3.204-3.81-3.119-6.125.048-1.339.47-2.684.445-4.001-.025-1.345-.884-2.577-1.001-3.938-.115-1.35.152-3.431.843-4.663.69-1.232 2.174-1.83 3.133-2.862 1.913-2.064 2.86-5.109 5.074-6.589 2.4-1.603 3.854-2.89 5.728-.3 1.656 2.286 4.052 3.858 6.021 5.843 2.242 2.262 2.534 3.735 2.847 6.683.498 4.71 2.948 10.788-1.663 14.241-2.302 1.726-4.812 3.25-7.25 4.77-.966.6-1.506 1.277-2.63 1.298-1.01.021-2.211-.41-3.157-.736-2.026-.702-3.975-1.852-5.27-3.621" fill="#B5D783" mask="url(#f)"/><path d="M867.959 323.864c-.02 2.439.03 5.716.034 8.133.005 2.306.255 4.719.4 7 .07 1.098.237 2.177.307 3.274.06.947.013 1.894.288 2.752.275.855.698 1.609.97 2.473.02.069-1.365-.46-2.55-.311-.532.067-2.686.226-2.686.226s.787-2.43.974-3.079a13.76 13.76 0 0 0 .551-3.458c.072-2.654.279-4.9.318-7.553.022-1.546.126-3.33.139-4.875.014-1.423.088-2.927.088-2.927s.658-1.217 1.167-1.655" fill="#B27B5F" mask="url(#f)"/><path d="M861.774 329.674s.79 1.291.865 1.4c.326.459.7.886.979 1.379.253.446.433.917.8 1.286.747.75 1.278 1.4 1.812 2.351.25.446.401 1.038.774 1.402.306.3.987.358.901-.272-.135-.995-.967-1.798-1.562-2.581-.685-.906-1.557-1.713-2.178-2.663-.41-.627-.943-1.158-1.46-1.692-.107-.113-.93-.61-.93-.61M871.834 325.945c-.285.67-.575 1.338-.88 2-.474 1.032-1.368 1.802-1.822 2.83-.27.608-.922 2.251-1.653 2.45-.501.137-.78-.067-.647-.592.249-.975 1.139-1.81 1.667-2.677.527-.866 1.27-1.543 1.833-2.364.477-.694.74-1.153 1.502-1.647" fill="#B27B5F" mask="url(#f)"/><path d="M880.378 348.206c-.955-1.304-2.38-2.83-2.318-4.55.037-.995.35-1.994.332-2.972-.019-1-.657-1.915-.744-2.927-.085-1.001.112-2.548.625-3.463.514-.916 1.617-1.36 2.329-2.127 1.422-1.532 2.126-3.795 3.77-4.894 1.782-1.191 2.864-2.148 4.254-.224 1.23 1.7 3.01 2.867 4.474 4.342 1.665 1.68 1.882 2.773 2.115 4.965.369 3.498 2.19 8.014-1.235 10.58-1.71 1.282-3.575 2.414-5.387 3.542-.718.447-1.119.95-1.954.965-.75.017-1.643-.304-2.346-.547-1.504-.52-2.953-1.375-3.915-2.69" fill="#B5D783" mask="url(#f)"/><path d="M887.767 343.197c-.014 1.81.023 4.246.027 6.042.003 1.713.188 3.505.296 5.2.053.816.176 1.618.228 2.432.045.704.01 1.408.214 2.045.205.635.519 1.195.72 1.837.016.052-1.013-.342-1.894-.231-.395.05-1.995.168-1.995.168s.585-1.804.724-2.287c.236-.827.384-1.655.41-2.57.052-1.971.206-3.64.236-5.611.017-1.149.093-2.474.103-3.622.009-1.057.065-2.173.065-2.173s.489-.906.866-1.23" fill="#B27B5F" mask="url(#f)"/><path d="M883.172 347.513s.588.96.644 1.039c.242.342.52.659.727 1.025.188.332.322.68.594.955.555.557.949 1.042 1.346 1.747.186.332.298.771.575 1.041.227.225.734.267.67-.2-.101-.74-.719-1.336-1.16-1.92-.51-.672-1.158-1.27-1.62-1.977-.304-.467-.7-.861-1.084-1.257-.08-.084-.692-.453-.692-.453M890.647 344.742c-.213.497-.427.994-.654 1.487-.353.765-1.016 1.338-1.354 2.101-.2.453-.685 1.673-1.23 1.82-.37.102-.577-.049-.478-.439.185-.724.845-1.344 1.238-1.989.392-.643.943-1.145 1.362-1.757.353-.515.55-.856 1.116-1.223" fill="#B27B5F" mask="url(#f)"/><path d="M808.15 220.825c-1.288-1.756-3.206-3.81-3.12-6.125.048-1.34.469-2.684.445-4.001-.026-1.345-.885-2.577-1.002-3.938-.114-1.35.153-3.431.843-4.663.69-1.232 2.175-1.83 3.133-2.862 1.914-2.063 2.861-5.108 5.075-6.589 2.398-1.602 3.854-2.89 5.727-.3 1.656 2.286 4.052 3.858 6.02 5.843 2.243 2.262 2.535 3.735 2.849 6.683.497 4.71 2.947 10.788-1.664 14.242-2.303 1.725-4.811 3.249-7.251 4.769-.965.6-1.504 1.277-2.628 1.298-1.011.021-2.213-.41-3.158-.736-2.026-.702-3.975-1.852-5.27-3.621" fill="#B5D783" mask="url(#f)"/><path d="M818.094 214.082c-.019 2.438.031 5.715.036 8.133.005 2.306.253 4.718.399 7 .071 1.098.236 2.177.308 3.273.059.947.011 1.893.288 2.752.275.854.696 1.609.97 2.473.02.07-1.366-.46-2.551-.31-.531.066-2.685.225-2.685.225s.787-2.43.973-3.079c.318-1.112.517-2.227.551-3.458.071-2.654.28-4.9.319-7.553.022-1.546.125-3.33.138-4.875.013-1.423.088-2.926.088-2.926s.658-1.218 1.166-1.655" fill="#B27B5F" mask="url(#f)"/><path d="M811.91 219.892s.79 1.29.866 1.398c.325.46.7.886.978 1.38.254.447.433.917.8 1.286.747.75 1.278 1.401 1.811 2.351.252.447.402 1.038.775 1.402.307.3.988.358.902-.271-.136-.996-.967-1.798-1.562-2.583-.686-.905-1.559-1.711-2.178-2.662-.41-.628-.943-1.158-1.462-1.692-.107-.113-.93-.61-.93-.61M821.97 216.162c-.284.67-.574 1.338-.88 2.001-.474 1.03-1.368 1.801-1.822 2.83-.27.607-.921 2.25-1.653 2.45-.5.136-.78-.068-.646-.593.248-.974 1.138-1.809 1.667-2.677.526-.866 1.268-1.542 1.833-2.364.477-.694.74-1.152 1.502-1.647" fill="#B27B5F" mask="url(#f)"/><path d="M460.45 39.473c-1.285-1.755-3.203-3.809-3.118-6.125.049-1.338.468-2.684.445-4.001-.026-1.344-.885-2.576-1.001-3.938-.115-1.348.151-3.43.842-4.663.69-1.232 2.175-1.829 3.134-2.862 1.914-2.062 2.86-5.107 5.075-6.587 2.398-1.604 3.853-2.892 5.727-.302 1.656 2.287 4.052 3.859 6.02 5.845 2.242 2.261 2.534 3.733 2.849 6.682.496 4.709 2.946 10.789-1.664 14.24-2.303 1.727-4.812 3.25-7.252 4.77-.964.6-1.505 1.277-2.627 1.3-1.012.02-2.213-.412-3.16-.738-2.024-.701-3.974-1.852-5.27-3.62" fill="#B5D783" mask="url(#f)"/><path d="M470.397 32.73c-.019 2.439.03 5.716.035 8.133.004 2.305.254 4.719.4 7 .07 1.098.236 2.177.306 3.273.06.947.013 1.894.29 2.753.274.854.696 1.609.969 2.473.02.069-1.366-.46-2.55-.311-.532.067-2.685.226-2.685.226s.785-2.43.972-3.08c.318-1.111.518-2.226.552-3.457.07-2.654.279-4.9.318-7.553.022-1.547.126-3.33.139-4.875.013-1.424.087-2.927.087-2.927s.658-1.218 1.167-1.655" fill="#B27B5F" mask="url(#f)"/><path d="M464.212 38.54s.791 1.292.866 1.4c.326.459.699.885.979 1.379.252.446.433.916.8 1.286.746.75 1.277 1.4 1.81 2.35.251.447.403 1.039.775 1.403.308.3.988.357.901-.272-.134-.996-.967-1.798-1.56-2.582-.687-.905-1.56-1.712-2.18-2.662-.41-.628-.943-1.158-1.46-1.693-.107-.112-.93-.609-.93-.609M474.273 34.81c-.286.67-.575 1.34-.88 2.002-.474 1.03-1.37 1.8-1.822 2.829-.27.608-.922 2.25-1.654 2.45-.501.137-.78-.067-.646-.592.249-.975 1.138-1.81 1.666-2.678.528-.865 1.27-1.542 1.834-2.363.476-.694.74-1.153 1.502-1.647" fill="#B27B5F" mask="url(#f)"/><path d="M430.759 55.191c-.85-1.16-2.118-2.518-2.061-4.05.031-.884.31-1.773.294-2.644-.017-.889-.585-1.703-.662-2.603-.076-.891.1-2.268.557-3.082.456-.815 1.439-1.21 2.071-1.892 1.265-1.363 1.891-3.377 3.355-4.355 1.585-1.061 2.547-1.912 3.786-.2 1.094 1.512 2.679 2.551 3.98 3.863 1.483 1.496 1.676 2.469 1.883 4.419.328 3.112 1.948 7.131-1.1 9.413-1.522 1.141-3.18 2.15-4.793 3.154-.638.396-.995.843-1.738.858-.668.013-1.463-.271-2.087-.487-1.34-.464-2.629-1.224-3.485-2.394" fill="#6DC6AB" mask="url(#f)"/><path d="M437.334 50.734c-.012 1.612.02 3.779.024 5.376.003 1.524.167 3.119.263 4.628.048.725.156 1.44.204 2.163.039.627.008 1.253.19 1.82.182.564.461 1.063.641 1.635.014.046-.902-.304-1.685-.205-.353.043-1.776.148-1.776.148s.52-1.605.644-2.034c.21-.736.342-1.473.364-2.287.046-1.754.185-3.24.21-4.993.015-1.022.083-2.2.092-3.223.01-.94.06-1.934.06-1.934s.434-.806.769-1.094" fill="#B27B5F" mask="url(#f)"/><path d="M433.246 54.575s.522.854.572.924c.216.305.463.586.647.912.167.296.286.606.53.85.492.496.844.927 1.197 1.554.165.296.265.686.51.928.204.198.654.236.598-.18-.09-.658-.64-1.188-1.033-1.707-.454-.6-1.03-1.131-1.44-1.76-.272-.415-.623-.766-.966-1.119-.07-.073-.615-.402-.615-.402M439.897 52.109c-.189.442-.38.885-.582 1.322-.313.682-.905 1.192-1.206 1.872-.177.4-.608 1.487-1.092 1.619-.331.09-.515-.045-.427-.392.165-.644.752-1.195 1.101-1.77.35-.572.84-1.019 1.213-1.562.314-.459.488-.762.993-1.09" fill="#B27B5F" mask="url(#f)"/><path d="M829.94 244.486c-1.152-1.573-2.872-3.414-2.797-5.49.044-1.2.421-2.407.4-3.587-.023-1.205-.794-2.309-.898-3.53-.103-1.208.138-3.075.755-4.179.62-1.105 1.95-1.64 2.808-2.566 1.717-1.849 2.565-4.579 4.55-5.905 2.15-1.438 3.455-2.591 5.134-.27 1.484 2.049 3.632 3.459 5.397 5.238 2.01 2.027 2.272 3.347 2.552 5.99.446 4.222 2.643 9.67-1.49 12.766-2.065 1.547-4.313 2.913-6.5 4.275-.865.537-1.35 1.145-2.356 1.165-.906.018-1.983-.368-2.832-.66-1.815-.63-3.562-1.66-4.723-3.247" fill="#B5D783" mask="url(#f)"/><path d="M838.855 238.441c-.017 2.187.027 5.124.031 7.291.004 2.066.228 4.23.359 6.275.063.984.211 1.952.275 2.934.053.848.012 1.698.259 2.467.246.766.624 1.442.869 2.217.018.062-1.224-.412-2.286-.278-.476.059-2.407.202-2.407.202s.704-2.177.872-2.76c.285-.998.464-1.997.494-3.1.064-2.379.25-4.393.285-6.77.02-1.386.113-2.985.124-4.372.013-1.275.08-2.621.08-2.621s.59-1.092 1.045-1.485" fill="#B27B5F" mask="url(#f)"/><path d="M833.31 243.65s.71 1.157.777 1.254c.292.412.627.794.878 1.236.226.4.388.822.717 1.153.668.672 1.145 1.256 1.623 2.108.225.4.36.93.694 1.257.275.269.886.32.809-.244-.122-.893-.867-1.612-1.4-2.315-.615-.811-1.396-1.534-1.954-2.386-.367-.563-.845-1.039-1.308-1.517-.097-.1-.835-.546-.835-.546M842.33 240.307a71.45 71.45 0 0 1-.79 1.794c-.425.923-1.227 1.614-1.634 2.536-.24.545-.825 2.017-1.481 2.196-.449.123-.699-.06-.58-.53.224-.875 1.02-1.623 1.495-2.401.472-.775 1.137-1.383 1.643-2.119.427-.621.664-1.033 1.347-1.476" fill="#B27B5F" mask="url(#f)"/><path d="M64.164 356.195c-1.152-1.573-2.872-3.414-2.796-5.49.043-1.2.42-2.407.399-3.587-.023-1.205-.793-2.31-.897-3.53-.104-1.21.137-3.075.754-4.179.62-1.105 1.95-1.64 2.809-2.566 1.716-1.849 2.565-4.579 4.548-5.905 2.151-1.438 3.455-2.591 5.135-.27 1.484 2.049 3.632 3.459 5.397 5.238 2.01 2.027 2.272 3.347 2.552 5.99.447 4.221 2.643 9.67-1.49 12.766-2.065 1.547-4.313 2.913-6.5 4.274-.865.538-1.35 1.146-2.356 1.166-.906.018-1.983-.368-2.832-.66-1.815-.63-3.562-1.66-4.723-3.247" fill="#B5D783" mask="url(#f)"/><path d="M73.08 350.15c-.018 2.187.026 5.124.031 7.29.004 2.067.228 4.23.358 6.276.063.984.211 1.952.275 2.934.053.848.012 1.697.259 2.467.246.766.623 1.442.869 2.217.018.061-1.224-.412-2.286-.278-.476.059-2.407.202-2.407.202s.704-2.177.872-2.76c.285-.998.464-1.998.494-3.1.064-2.38.25-4.393.286-6.77.02-1.386.112-2.985.123-4.372.013-1.275.08-2.621.08-2.621s.59-1.092 1.046-1.485" fill="#B27B5F" mask="url(#f)"/><path d="M67.536 355.359s.707 1.157.775 1.253c.293.413.627.795.877 1.237.227.4.39.822.718 1.153.668.671 1.145 1.256 1.623 2.107.225.4.36.93.694 1.257.276.27.886.321.81-.243-.123-.893-.869-1.612-1.401-2.315-.616-.811-1.396-1.534-1.954-2.386-.367-.563-.844-1.039-1.308-1.517-.097-.101-.834-.546-.834-.546M76.554 352.015c-.256.6-.516 1.2-.79 1.794-.425.923-1.227 1.615-1.634 2.536-.24.545-.825 2.018-1.481 2.196-.449.123-.699-.06-.58-.53.223-.874 1.021-1.621 1.495-2.4.472-.776 1.138-1.382 1.644-2.12.426-.621.663-1.032 1.346-1.476" fill="#B27B5F" mask="url(#f)"/><path d="M486.757 55.448c-1.133-1.547-2.825-3.356-2.75-5.399.044-1.18.415-2.365.393-3.526-.022-1.185-.78-2.271-.882-3.472-.101-1.188.134-3.023.743-4.11.607-1.085 1.917-1.611 2.761-2.521 1.687-1.819 2.522-4.502 4.472-5.808 2.115-1.414 3.399-2.548 5.05-.265 1.459 2.015 3.57 3.4 5.306 5.15 1.977 1.994 2.234 3.292 2.51 5.891.438 4.151 2.598 9.51-1.465 12.553-2.03 1.521-4.242 2.864-6.392 4.203-.85.53-1.326 1.125-2.317 1.146-.891.018-1.95-.362-2.784-.65-1.784-.618-3.504-1.633-4.645-3.192" fill="#B5D783" mask="url(#f)"/><path d="M495.524 49.505c-.017 2.149.027 5.038.031 7.168.003 2.033.224 4.16.352 6.17.062.968.209 1.92.27 2.886.053.833.012 1.669.255 2.425.243.753.614 1.42.854 2.18.018.062-1.204-.405-2.247-.274-.468.06-2.367.199-2.367.199s.693-2.141.858-2.713c.28-.982.456-1.964.486-3.05.062-2.338.246-4.318.28-6.656.02-1.363.11-2.934.122-4.297.012-1.255.078-2.58.078-2.58s.58-1.073 1.028-1.458" fill="#B27B5F" mask="url(#f)"/><path d="M490.073 54.626s.696 1.138.763 1.233c.287.405.616.781.863 1.215.223.394.38.809.704 1.135.659.66 1.127 1.235 1.597 2.071.22.393.354.915.682 1.237.27.265.87.315.795-.24-.12-.878-.852-1.584-1.376-2.276-.605-.798-1.374-1.508-1.92-2.346-.362-.554-.833-1.022-1.288-1.492-.095-.099-.82-.537-.82-.537M498.94 51.339c-.251.589-.506 1.18-.776 1.763-.417.908-1.206 1.588-1.606 2.494-.237.536-.812 1.983-1.458 2.16-.44.12-.686-.06-.569-.523.22-.859 1.004-1.595 1.469-2.359.465-.763 1.12-1.36 1.616-2.084.42-.61.652-1.015 1.324-1.451" fill="#B27B5F" mask="url(#f)"/><path d="M483.306 300.522c-.867-1.184-2.161-2.57-2.104-4.133.033-.903.317-1.81.301-2.699-.018-.907-.597-1.737-.676-2.657-.077-.91.103-2.314.568-3.145.466-.832 1.469-1.235 2.114-1.93 1.293-1.392 1.931-3.447 3.424-4.445 1.619-1.082 2.6-1.951 3.864-.204 1.117 1.543 2.734 2.603 4.062 3.942 1.513 1.527 1.71 2.52 1.921 4.51.336 3.176 1.988 7.278-1.122 9.608-1.553 1.163-3.246 2.19-4.892 3.217-.65.404-1.015.861-1.773.875-.682.016-1.492-.276-2.13-.496-1.366-.474-2.683-1.25-3.557-2.443" fill="#B5D783" mask="url(#f)"/><path d="M490.017 295.972c-.013 1.646.02 3.857.024 5.488.002 1.555.17 3.183.269 4.722.048.741.159 1.47.208 2.208.04.639.008 1.279.194 1.857.186.577.47 1.086.654 1.67.014.045-.92-.312-1.72-.211-.359.045-1.812.152-1.812.152s.531-1.638.657-2.077c.214-.751.349-1.503.372-2.333.047-1.79.187-3.306.215-5.095.013-1.044.084-2.247.094-3.29.007-.96.058-1.973.058-1.973s.443-.823.787-1.118" fill="#B27B5F" mask="url(#f)"/><path d="M485.844 299.892s.534.872.584.943c.22.311.472.6.661.932.17.301.292.618.54.867.503.506.862.946 1.221 1.586.17.302.272.7.523.946.206.204.666.242.608-.183-.092-.671-.652-1.212-1.054-1.741-.463-.612-1.05-1.155-1.47-1.797-.276-.424-.636-.782-.984-1.142-.072-.076-.629-.41-.629-.41M492.632 297.376c-.192.452-.388.902-.594 1.35-.32.696-.923 1.216-1.23 1.91-.181.409-.622 1.517-1.115 1.652-.338.093-.526-.046-.436-.4.168-.657.767-1.22 1.124-1.806.357-.584.858-1.04 1.238-1.595.321-.467.498-.777 1.013-1.11" fill="#B27B5F" mask="url(#f)"/><path d="M466.825 306.405c-.635-.865-1.582-1.879-1.54-3.021.026-.661.233-1.325.22-1.975-.012-.663-.435-1.271-.493-1.943-.058-.666.075-1.693.415-2.3.34-.608 1.074-.903 1.546-1.413.944-1.017 1.412-2.52 2.505-3.25 1.184-.792 1.901-1.428 2.826-.15.816 1.129 1.999 1.904 2.97 2.884 1.106 1.116 1.25 1.843 1.405 3.298.246 2.323 1.455 5.323-.82 7.027-1.137.851-2.375 1.603-3.578 2.353-.476.295-.742.63-1.298.641-.498.01-1.09-.203-1.557-.364-1-.346-1.962-.914-2.601-1.787" fill="#B5D783" mask="url(#f)"/><path d="M471.733 303.078c-.01 1.203.015 2.821.017 4.014.003 1.137.126 2.328.197 3.454.035.54.117 1.074.152 1.615.029.466.006.934.142 1.357.136.422.344.795.478 1.221.011.034-.674-.227-1.258-.154-.262.033-1.324.112-1.324.112s.387-1.199.48-1.52c.157-.549.255-1.099.27-1.706.037-1.31.139-2.418.159-3.727.01-.763.061-1.643.068-2.405.007-.703.044-1.444.044-1.444s.324-.601.575-.817" fill="#B27B5F" mask="url(#f)"/><path d="M468.681 305.945s.39.637.428.69c.16.227.344.438.482.681.126.22.214.453.395.635.368.37.63.691.893 1.16.124.22.2.512.382.692.152.148.488.176.446-.134-.068-.492-.478-.888-.771-1.274-.338-.447-.77-.845-1.075-1.314-.203-.31-.465-.571-.72-.835-.054-.055-.46-.3-.46-.3M473.645 304.105c-.141.33-.283.66-.433.987-.235.508-.676.89-.9 1.396-.132.3-.455 1.11-.816 1.209-.247.068-.385-.033-.319-.292.124-.481.561-.893.822-1.32.26-.428.627-.762.905-1.167.236-.342.365-.569.741-.813" fill="#B27B5F" mask="url(#f)"/><path d="M478.922 317.213c-.472-.644-1.174-1.396-1.143-2.245.018-.491.172-.984.164-1.467-.01-.493-.325-.944-.368-1.444-.041-.494.056-1.257.31-1.71.252-.45.797-.67 1.147-1.048.702-.756 1.05-1.872 1.86-2.414.88-.589 1.414-1.061 2.1-.111.608.838 1.485 1.414 2.208 2.142.821.829.928 1.369 1.043 2.45.182 1.726 1.08 3.954-.61 5.22-.843.633-1.763 1.191-2.657 1.748-.354.22-.552.469-.964.477-.37.007-.81-.151-1.158-.27-.742-.258-1.458-.68-1.932-1.328" fill="#B5D783" mask="url(#f)"/><path d="M482.568 314.741c-.007.894.012 2.095.014 2.982.002.845.092 1.73.145 2.566.026.402.087.798.113 1.2.022.347.004.694.106 1.008.101.313.256.59.355.907.008.026-.5-.169-.934-.114-.195.025-.985.082-.985.082s.29-.89.357-1.128a4.99 4.99 0 0 0 .201-1.267c.027-.974.103-1.797.117-2.77.01-.566.047-1.22.052-1.786.005-.522.031-1.072.031-1.072s.243-.448.428-.608" fill="#B27B5F" mask="url(#f)"/><path d="M480.302 316.871s.289.474.316.513c.12.168.257.325.36.506.092.163.158.336.292.47.275.275.469.514.665.862.092.164.147.381.284.515.112.11.362.13.33-.1-.05-.364-.354-.659-.573-.947-.251-.331-.57-.626-.798-.975-.151-.23-.346-.424-.535-.62-.04-.042-.341-.224-.341-.224M483.99 315.504c-.105.245-.211.49-.323.733-.174.378-.502.66-.669 1.038-.099.222-.338.824-.606.898-.183.05-.285-.026-.236-.218.09-.357.416-.662.611-.981.192-.318.465-.565.671-.866.176-.254.273-.423.552-.604" fill="#B27B5F" mask="url(#f)"/><path fill="#F9EBB2" mask="url(#f)" d="M260.764 233.702h27.179V121.46h-27.18z"/><path fill="#FFB53E" mask="url(#f)" d="M260.764 121.46h27.179l9.007-14.87h-27.178z"/><path fill="#F9F3D7" mask="url(#f)" d="M296.95 106.59l-9.008 14.869v112.244h15.944V121.459z"/><path fill="#F9F3D7" mask="url(#f)" d="M303.886 121.46h-15.943l9.007-14.87z"/><path fill="#FFB53E" mask="url(#f)" d="M295.144 142.825h3.484v-11.092h-3.484zM295.144 167.164h3.484V156.07h-3.484zM295.144 192.404h3.484V181.31h-3.484zM295.144 217.644h3.484v-11.093h-3.484z"/><path fill="#F9EBB2" mask="url(#f)" d="M223.414 234.967h27.178V122.724h-27.178z"/><path fill="#FFB53E" mask="url(#f)" d="M223.414 122.723h27.178l9.008-14.87h-27.179z"/><path fill="#F9F3D7" mask="url(#f)" d="M259.6 107.854l-9.009 14.87v112.243h15.945V122.723z"/><path fill="#F9F3D7" mask="url(#f)" d="M266.536 122.723h-15.944l9.007-14.87z"/><path fill="#FFB53E" mask="url(#f)" d="M257.793 144.09h3.484v-11.093h-3.484zM257.793 168.429h3.484v-11.094h-3.484zM257.793 193.668h3.484v-11.094h-3.484zM257.793 218.908h3.484v-11.093h-3.484z"/><path d="M776.49 291.382c-.27.297-.67.481-1.246.486-1.073.01-2.145 0-3.218 0h-98.904c-3.086 0-6.054-.22-8.946-1.422-1.026-.425-2.04-.97-2.848-1.751-.83-.804-1.19-1.682-1.22-2.84-.022-.9-.345-2.276.725-2.71.325-.133.735-.075 1.092-.075H774.9c1.027 0 2.097.098 2.1 1.353.003 1.017 0 2.032 0 3.049 0 1.155.295 3.029-.51 3.91" fill="#238796" mask="url(#f)"/><path d="M774.9 283.07H661.927c-.359 0-.768-.058-1.093.074-.789.32-.82 1.15-.773 1.926h116.941v-.647c-.003-1.255-1.073-1.352-2.1-1.352" fill="#1E737D" mask="url(#f)"/><path d="M684.903 331.859c-2.362-14.396-1.968-39.99-1.968-39.99h21.648s-.395 25.594 1.967 39.99 7.478 27.193 7.478 27.193h-21.646s-5.117-12.797-7.48-27.193" fill="#35C6DB" mask="url(#f)"/><path d="M704.56 297.267c-.004-1.072-.003-2.013.001-2.8h-21.647c-.003.787-.004 1.728-.001 2.8h21.646zM704.616 303.266c-.016-.977-.027-1.912-.036-2.8h-21.647c.009.888.02 1.823.037 2.8h21.646zM704.758 309.265c-.03-.952-.056-1.887-.078-2.8h-21.646c.021.913.047 1.848.077 2.8h21.647zM704.999 315.263c-.047-.937-.09-1.873-.127-2.8h-21.646c.037.927.079 1.863.125 2.8H705zM705.368 321.261c-.07-.926-.132-1.861-.19-2.8h-21.647c.057.939.121 1.874.19 2.8h21.647zM705.878 326.86c-.1-.912-.192-1.848-.279-2.8h-21.646c.086.952.178 1.888.279 2.8h21.646zM706.72 332.859a74.144 74.144 0 0 1-.442-2.8H684.63c.088.616.178 1.218.273 1.8.055.334.112.667.17 1h21.647zM707.922 338.857c-.207-.919-.408-1.852-.6-2.8h-21.648c.192.948.393 1.881.601 2.8h21.647zM709.307 344.456c-.244-.906-.484-1.842-.722-2.8h-21.647c.237.958.479 1.894.722 2.8h21.647zM711.05 350.454c-.275-.883-.558-1.817-.845-2.8h-21.647c.287.983.57 1.917.845 2.8h21.647zM712.985 356.253c-.282-.79-.61-1.73-.968-2.8h-21.646c.358 1.07.685 2.01.967 2.8h21.647z" fill="#2C92A0" mask="url(#f)"/><path d="M675.826 291.869s.393 25.594-1.967 39.99c-2.363 14.396-7.48 27.194-7.48 27.194h3.543s5.116-12.798 7.479-27.194c1.555-9.484 1.915-23.824 1.98-32.509.064 8.685.425 23.025 1.98 32.509 2.362 14.396 7.478 27.194 7.478 27.194h3.543s-5.117-12.798-7.48-27.194c-2.36-14.396-1.967-39.99-1.967-39.99" fill="#7CC7DA" mask="url(#f)"/><path d="M666.38 359.052h.024v-.062a1.424 1.424 0 0 1-.024.062M679.38 299.35c-.063 8.685-.424 23.026-1.98 32.51-2.362 14.395-7.478 27.192-7.478 27.192h18.918s-5.117-12.797-7.48-27.193c-1.554-9.483-1.916-23.824-1.98-32.508" fill="#2E91A0" mask="url(#f)"/><path d="M719.538 331.859c-2.361-14.396-1.968-39.99-1.968-39.99h21.648s-.395 25.594 1.967 39.99 7.479 27.193 7.479 27.193h-21.647s-5.117-12.797-7.48-27.193" fill="#35C6DB" mask="url(#f)"/><path d="M739.195 297.267c-.003-1.072-.002-2.013.002-2.8h-21.648c-.003.787-.005 1.728-.002 2.8h21.648zM739.252 303.266c-.017-.977-.028-1.912-.037-2.8h-21.647c.01.888.02 1.823.037 2.8h21.647zM739.394 309.265a381.75 381.75 0 0 1-.079-2.8H717.67c.022.913.047 1.848.077 2.8h21.648zM739.634 315.263a277.54 277.54 0 0 1-.126-2.8H717.86c.038.927.08 1.863.126 2.8h21.647zM740.004 321.261c-.07-.926-.133-1.861-.191-2.8h-21.647c.057.939.122 1.874.191 2.8h21.647zM740.514 326.86c-.101-.912-.193-1.848-.28-2.8h-21.646c.086.952.178 1.888.28 2.8h21.646zM741.356 332.859a74.144 74.144 0 0 1-.442-2.8h-21.648c.087.616.177 1.218.272 1.8.055.334.113.667.171 1h21.647zM742.557 338.857c-.207-.919-.408-1.852-.6-2.8H720.31c.192.948.393 1.881.6 2.8h21.647zM743.942 344.456c-.244-.906-.484-1.842-.722-2.8h-21.647c.237.958.479 1.894.722 2.8h21.647zM745.686 350.454c-.276-.883-.559-1.817-.846-2.8h-21.648c.288.983.57 1.917.846 2.8h21.648zM747.62 356.253c-.282-.79-.61-1.73-.968-2.8h-21.646c.358 1.07.685 2.01.967 2.8h21.647z" fill="#2C92A0" mask="url(#f)"/><path d="M710.462 291.869s.392 25.594-1.969 39.99-7.478 27.194-7.478 27.194h3.542s5.117-12.798 7.48-27.194c1.554-9.484 1.914-23.824 1.979-32.509.064 8.685.425 23.025 1.98 32.509 2.362 14.396 7.478 27.194 7.478 27.194h3.543s-5.117-12.798-7.479-27.194c-2.361-14.396-1.967-39.99-1.967-39.99" fill="#7CC7DA" mask="url(#f)"/><path d="M701.015 359.052h.025v-.062l-.025.062M714.015 299.35c-.063 8.685-.424 23.026-1.979 32.51-2.362 14.395-7.479 27.192-7.479 27.192h18.918s-5.117-12.797-7.48-27.193c-1.554-9.483-1.915-23.824-1.98-32.508" fill="#2E91A0" mask="url(#f)"/><path d="M753.78 331.859c-2.361-14.396-1.968-39.99-1.968-39.99h21.647s-.394 25.594 1.967 39.99c2.363 14.396 7.48 27.193 7.48 27.193h-21.648s-5.117-12.797-7.478-27.193" fill="#35C6DB" mask="url(#f)"/><path d="M773.436 297.267c-.002-1.072-.002-2.013.001-2.8h-21.646c-.004.787-.005 1.728-.002 2.8h21.647zM773.493 303.266c-.016-.977-.027-1.912-.036-2.8h-21.648c.01.888.021 1.823.037 2.8h21.647zM773.635 309.265c-.03-.952-.056-1.887-.078-2.8h-21.646c.02.913.047 1.848.077 2.8h21.647zM773.875 315.263c-.046-.937-.088-1.873-.125-2.8h-21.647c.037.927.08 1.863.126 2.8h21.646zM774.245 321.261c-.069-.926-.133-1.861-.19-2.8h-21.647c.057.939.122 1.874.19 2.8h21.647zM774.756 326.86c-.101-.912-.193-1.848-.28-2.8H752.83c.086.952.178 1.888.28 2.8h21.647zM775.598 332.859c-.059-.333-.116-.666-.172-1a85.361 85.361 0 0 1-.272-1.8h-21.646c.087.616.176 1.218.272 1.8.055.334.113.667.17 1h21.648zM776.799 338.857c-.208-.919-.409-1.852-.6-2.8h-21.647c.192.948.393 1.881.6 2.8h21.647zM778.184 344.456c-.244-.906-.485-1.842-.722-2.8h-21.648c.238.958.48 1.894.723 2.8h21.647zM779.926 350.454c-.275-.883-.558-1.817-.845-2.8h-21.647c.287.983.57 1.917.846 2.8h21.646zM781.861 356.253c-.282-.79-.608-1.73-.967-2.8h-21.646c.357 1.07.685 2.01.967 2.8h21.646z" fill="#2C92A0" mask="url(#f)"/><path d="M744.703 291.869s.393 25.594-1.968 39.99c-2.361 14.396-7.478 27.194-7.478 27.194h3.542s5.117-12.798 7.478-27.194c1.556-9.484 1.915-23.824 1.98-32.509.065 8.685.425 23.025 1.98 32.509 2.362 14.396 7.478 27.194 7.478 27.194h3.543s-5.117-12.798-7.478-27.194c-2.361-14.396-1.967-39.99-1.967-39.99" fill="#7CC7DA" mask="url(#f)"/><path d="M735.257 359.052h.024v-.062l-.024.062M748.257 299.35c-.064 8.685-.424 23.026-1.98 32.51-2.361 14.395-7.478 27.192-7.478 27.192h18.917s-5.117-12.797-7.478-27.193c-1.556-9.483-1.916-23.824-1.98-32.508" fill="#2E91A0" mask="url(#f)"/><path fill="#8DC4C1" mask="url(#f)" d="M728.646 297.267h4.723v-2.8h-4.723z"/><path fill="#207280" mask="url(#f)" d="M695.923 303.266h3.149v-2.8h-3.15z"/><path fill="#8DC4C1" mask="url(#f)" d="M685.272 303.266h-2.302l-.06-2.8h2.362z"/><path fill="#207280" mask="url(#f)" d="M755.748 303.266h3.936v-2.8h-3.936zM732.758 344.456h2.39v-2.8h-2.39zM772.775 350.454h2.39v-2.8h-2.39zM762.279 350.454h2.389v-2.8h-2.39zM699.82 350.454h2.39v-2.8h-2.39z"/><path fill="#8DC4C1" mask="url(#f)" d="M767.556 303.266h4.722v-2.8h-4.722zM753.386 309.264h4.33v-2.8h-4.33zM771.404 344.456h4.33v-2.8h-4.33zM697.508 332.858h4.33v-2.8h-4.33z"/><path fill="#207280" mask="url(#f)" d="M695.1 332.858h2.408v-2.8H695.1z"/><path fill="#8DC4C1" mask="url(#f)" d="M689.013 344.456h4.329v-2.8h-4.33z"/><path fill="#207280" mask="url(#f)" d="M693.342 344.456h2.408v-2.8h-2.408z"/><path fill="#8DC4C1" mask="url(#f)" d="M728.273 309.264h4.33v-2.8h-4.33z"/><path fill="#207280" mask="url(#f)" d="M725.865 309.264h2.408v-2.8h-2.408z"/><path fill="#8DC4C1" mask="url(#f)" d="M759.89 332.858h4.33v-2.8h-4.33z"/><path fill="#207280" mask="url(#f)" d="M757.483 332.858h2.406v-2.8h-2.406z"/><path fill="#8DC4C1" mask="url(#f)" d="M759.684 321.262h4.33v-2.8h-4.33z"/><path fill="#207280" mask="url(#f)" d="M764.014 321.262h2.407v-2.8h-2.407z"/><path fill="#8DC4C1" mask="url(#f)" d="M685.272 315.262h4.588v-2.8h-4.588zM698.47 321.262h4.587v-2.8h-4.588zM722.349 326.86h4.588v-2.8h-4.588zM732.698 338.858h4.588v-2.8h-4.588zM734.722 350.454h3.14v-2.8h-3.14zM724.722 350.454h4.588v-2.8h-4.588z"/><path fill="#2E91A0" mask="url(#f)" d="M401.036 113.481h44.019V34.926h-44.02z"/><path fill="#B1E0E8" mask="url(#f)" d="M401.037 51.273h8.49v-6.811h-8.49zM437.235 51.273h7.82v-6.811h-7.82zM412.21 51.273h10.053v-6.811H412.21zM424.945 51.273h10.056v-6.811h-10.056zM401.037 64.668h8.49v-6.81h-8.49zM437.235 64.668h7.82v-6.81h-7.82zM412.21 64.668h10.053v-6.81H412.21zM424.945 64.668h10.056v-6.81h-10.056zM401.037 78.063h8.49v-6.811h-8.49zM437.235 78.063h7.82v-6.811h-7.82zM412.21 78.063h10.053v-6.811H412.21zM424.945 78.063h10.056v-6.811h-10.056zM401.037 91.458h8.49v-6.81h-8.49zM437.235 91.458h7.82v-6.81h-7.82zM412.21 91.458h10.053v-6.81H412.21zM424.945 91.458h10.056v-6.81h-10.056zM417.125 113.481h8.49V99.405h-8.49z"/><path fill="#D3D1D1" mask="url(#f)" d="M866.635 211.022h35.294v-2.963h-35.294zM869.016 192.451h30.53v-2.963h-30.53z"/><path fill="#2E91A0" mask="url(#f)" d="M876.507 189.487h15.55v-2.61h-15.55z"/><path fill="#FBFBFB" mask="url(#f)" d="M876.507 186.877h15.55v-2.611h-15.55z"/><path fill="#2E91A0" mask="url(#f)" d="M869.72 205.914h29.123l2.594-11.318h-34.311z"/><path d="M887.91 199.242h5.802v-4.647h-5.801v4.647zm0 6.672h5.802v-5.123h-5.801v5.123zm-6.972-6.672h5.801v-4.647h-5.801v4.647zm0 6.672h5.801v-5.123h-5.801v5.123zm-6.974-6.672h5.8v-4.647h-5.8v4.647zm0 6.672h5.8v-5.123h-5.8v5.123zm20.92 0v-5.123h5.134l.354-1.55h-5.488v-4.645h6.553l.492-2.145h-35.294l.49 2.145h5.666v4.646h-4.6l.355 1.549h4.245v5.123h-3.072l.492 2.145h28.141l.491-2.145h-3.959z" fill="#FBFBFB" mask="url(#f)"/><path fill="#D3D1D1" mask="url(#f)" d="M877.753 281.925h13.059v-70.903h-13.06z"/><path fill="#FBFBFB" mask="url(#f)" d="M881.825 281.925h4.914v-70.903h-4.914z"/><path d="M892.713 175.964c0-4.65-3.71-8.422-8.289-8.422-4.577 0-8.289 3.771-8.289 8.422 0 4.65 3.712 8.422 8.289 8.422 4.578 0 8.289-3.771 8.289-8.422" fill="#FFDC6C" mask="url(#f)"/><path fill="#E8E8E8" mask="url(#f)" d="M162.852 399.949l20.726 7.685v40.02h-20.726z"/><path fill="#C4C4C4" mask="url(#f)" d="M150.697 447.653h12.156v-47.704h-12.156z"/><path fill="#E8E8E8" mask="url(#f)" d="M183.578 399.949l25.203 7.685v40.02h-25.203zM208.781 399.949l27.723 7.685v40.02h-27.723z"/><path fill="#C4C4C4" mask="url(#f)" d="M200.31 405.051v-5.102h8.472v7.684zM175.107 404.493v-4.544h8.471v7.685z"/><path fill="#DD7045" mask="url(#f)" d="M164.78 376.396h6.388v-7.322h-6.388z"/><path fill="#DDD" mask="url(#f)" d="M164.78 400.664l6.388 2.368v-26.636h-6.388z"/><path fill="#DD7045" mask="url(#f)" d="M189.791 376.396h6.388v-7.322h-6.388z"/><path fill="#DDD" mask="url(#f)" d="M189.79 401.844l6.389 1.948v-27.397h-6.388z"/><path fill="#DD7045" mask="url(#f)" d="M215.122 376.396h6.389v-7.322h-6.389z"/><path fill="#DDD" mask="url(#f)" d="M215.122 401.707l6.389 1.809v-27.12h-6.389z"/><path fill="#2E91A0" mask="url(#f)" d="M225.647 427.127h3.03v-9.837h-3.03zM220.06 427.127h3.031v-9.837h-3.031zM214.426 427.127h3.032v-9.837h-3.032zM177.776 427.127h3.032v-9.837h-3.032zM172.19 427.127h3.03v-9.837h-3.03zM166.556 427.127h3.031v-9.837h-3.031zM200.787 420.508h2.406v-3.219h-2.406zM195.145 420.508h2.406v-3.219h-2.406zM189.594 420.508H192v-3.219h-2.406zM189.594 447.654h13.598v-21.653h-13.598z"/><path fill="#F9F3D7" mask="url(#f)" d="M704.707 195.432h22.956v-98.49h-22.956z"/><path fill="#DD7045" mask="url(#f)" d="M711.873 86.502h22.956l-7.166 10.324h-22.956z"/><path fill="#F9EBB2" mask="url(#f)" d="M742.064 96.941v98.49h-14.47V96.827l7.166-10.324z"/><path fill="#2E91A0" mask="url(#f)" d="M708.15 112.74h5.283v-10.437h-5.283zM718.488 112.74h5.283v-10.437h-5.283zM708.15 131.047h5.283v-10.436h-5.283zM718.488 131.047h5.283v-10.436h-5.283zM708.15 148.704h5.283v-10.436h-5.283zM718.488 148.704h5.283v-10.436h-5.283zM708.15 167.5h5.283v-10.435h-5.283zM718.488 167.5h5.283v-10.435h-5.283zM708.15 185.424h5.283v-10.436h-5.283zM718.488 185.424h5.283v-10.436h-5.283z"/><path fill="#B75735" mask="url(#f)" d="M727.595 96.826l14.469.115-7.304-10.439z"/><path fill="#F9F3D7" mask="url(#f)" d="M741.786 196.578h22.956v-98.49h-22.956z"/><path fill="#DD7045" mask="url(#f)" d="M748.951 87.65h22.956l-7.165 10.322h-22.956z"/><path fill="#F9EBB2" mask="url(#f)" d="M779.143 98.088v98.49h-14.47V97.972l7.166-10.323z"/><path fill="#2E91A0" mask="url(#f)" d="M745.23 113.886h5.282V103.45h-5.283zM755.567 113.886h5.282V103.45h-5.282zM745.23 132.193h5.282v-10.436h-5.283zM755.567 132.193h5.282v-10.436h-5.282zM745.23 149.85h5.282v-10.435h-5.283zM755.567 149.85h5.282v-10.435h-5.282zM745.23 168.648h5.282v-10.436h-5.283zM755.567 168.648h5.282v-10.436h-5.282zM745.23 186.57h5.282v-10.435h-5.283zM755.567 186.57h5.282v-10.435h-5.282z"/><path fill="#B75735" mask="url(#f)" d="M764.673 97.973l14.47.115-7.304-10.439z"/><path fill="#D8BFAD" mask="url(#f)" d="M269.473 307.935h69.25l-12.086-6.723-64.263-.03z"/><path fill="#FCECDE" mask="url(#f)" d="M269.473 373.77h69.25v-65.835h-69.25z"/><path fill="#6DC6AB" mask="url(#f)" d="M324.65 324.703h4.962v-5.041h-4.962zM312.89 324.703h4.962v-5.041h-4.961zM301.133 324.703h4.962v-5.041h-4.962zM289.374 324.703h4.961v-5.041h-4.961zM277.615 324.703h4.961v-5.041h-4.96zM324.65 336.325h4.962v-5.04h-4.962zM312.89 336.325h4.962v-5.04h-4.961zM301.133 336.325h4.962v-5.04h-4.962zM289.374 336.325h4.961v-5.04h-4.961zM277.615 336.325h4.961v-5.04h-4.96zM324.65 347.948h4.962v-5.041h-4.962zM312.89 347.948h4.962v-5.041h-4.961zM301.133 347.948h4.962v-5.041h-4.962zM289.374 347.948h4.961v-5.041h-4.961zM277.615 347.948h4.961v-5.041h-4.96zM311.735 373.77h16.72v-16.988h-16.72z"/><path d="M309.476 305.165c0-5.563 4.44-10.073 9.914-10.073 5.475 0 9.913 4.51 9.913 10.073 0 5.563-4.438 10.073-9.913 10.073-5.475 0-9.914-4.51-9.914-10.073" fill="#DD7045" mask="url(#f)"/><path fill="#FDFFF5" mask="url(#f)" d="M313.71 303.241h3.786v-3.848h3.787v3.848h3.787v3.849h-3.787v3.847h-3.787v-3.847h-3.786z"/><path fill="#FF931E" mask="url(#f)" d="M262.374 367.072l7.036 6.635v-65.89l-7.036-6.635z"/><path fill="#FCECDE" mask="url(#f)" d="M116.46 262.545h16.235v-13.611H116.46zM112.67 285.877h23.815v-13.61H112.67zM113.934 301.434h21.288V295.6h-21.288z"/><path fill="#FCECDE" mask="url(#f)" d="M108.88 318.934h6.318V295.6h-6.317zM133.96 318.934h6.316V295.6h-6.316z"/><path d="M124.578 240.67c-.523 0-.947-.652-.947-1.458v-8.75c0-.806.424-1.459.947-1.459.523 0 .947.653.947 1.46v8.75c0 .805-.424 1.457-.947 1.457" fill="#DD7045" mask="url(#f)"/><path fill="#6DC6AB" mask="url(#f)" d="M124.578 318.933h9.38v-17.5h-9.38zM115.196 318.933h9.381v-17.5h-9.381z"/><path fill="#DD7045" mask="url(#f)" d="M139.012 283.933h-28.868l-3.79 11.667H142.8zM135.222 260.6h-21.289l-3.79 11.667h28.869zM124.578 237.267l-10.645 11.667h21.29z"/><path d="M137.749 273.725h-26.342c-1.995 0-3.788-1.95-4.46-4.85-.177-.76.08-1.593.573-1.864.493-.271 1.036.125 1.212.883.404 1.744 1.478 2.914 2.675 2.914h26.342c1.196 0 2.272-1.17 2.676-2.914.176-.76.717-1.154 1.211-.885.492.27.75 1.105.574 1.863-.672 2.904-2.464 4.853-4.461 4.853M133.959 250.392h-18.762c-1.996 0-3.788-1.949-4.46-4.85-.176-.76.081-1.594.574-1.864.492-.272 1.034.125 1.21.884.404 1.742 1.48 2.914 2.676 2.914h18.762c1.197 0 2.272-1.172 2.676-2.915.175-.76.718-1.155 1.21-.885.493.27.75 1.105.576 1.863-.673 2.903-2.466 4.853-4.462 4.853M141.54 297.058h-33.922c-1.997 0-3.789-1.949-4.461-4.85-.176-.76.081-1.594.574-1.864.492-.272 1.035.125 1.21.884.404 1.742 1.48 2.914 2.677 2.914h33.921c1.197 0 2.273-1.172 2.675-2.915.177-.76.719-1.155 1.212-.884.493.27.75 1.104.574 1.863-.672 2.902-2.465 4.852-4.46 4.852" fill="#DD7045" mask="url(#f)"/><path d="M133.959 302.891h-18.762c-.523 0-.948-.652-.948-1.458 0-.805.425-1.458.948-1.458h18.762c.523 0 .947.653.947 1.458 0 .806-.424 1.458-.947 1.458" fill="#A8DFCF" mask="url(#f)"/><path d="M145.108 320.391h-41.059c-.523 0-.947-.652-.947-1.458 0-.805.424-1.458.947-1.458h41.059c.522 0 .947.653.947 1.458 0 .806-.425 1.458-.947 1.458" fill="#DD7045" mask="url(#f)"/><path fill="#FCECDE" mask="url(#f)" d="M157.91 270.164h16.235v-13.61H157.91zM154.12 293.497h23.815v-13.611H154.12zM155.383 309.052h21.289v-5.833h-21.289z"/><path fill="#FCECDE" mask="url(#f)" d="M150.33 326.551h6.316V303.22h-6.316zM175.409 326.551h6.316V303.22h-6.316z"/><path d="M166.027 248.289c-.522 0-.947-.653-.947-1.458v-8.75c0-.806.425-1.46.947-1.46.524 0 .948.654.948 1.46v8.75c0 .805-.424 1.458-.948 1.458" fill="#DD7045" mask="url(#f)"/><path fill="#6DC6AB" mask="url(#f)" d="M166.028 326.551h9.38v-17.499h-9.38zM156.646 326.551h9.382v-17.499h-9.382z"/><path fill="#DD7045" mask="url(#f)" d="M180.461 291.552h-28.868l-3.79 11.667h36.449zM176.671 268.22h-21.289l-3.79 11.666h28.869zM166.027 244.886l-10.645 11.667h21.29z"/><path d="M179.199 281.344h-26.342c-1.996 0-3.788-1.949-4.461-4.851-.176-.76.082-1.593.574-1.863.492-.272 1.035.124 1.211.883.404 1.743 1.48 2.915 2.676 2.915H179.2c1.196 0 2.271-1.172 2.675-2.916.176-.759.718-1.154 1.211-.883.493.27.75 1.104.574 1.863-.672 2.902-2.464 4.852-4.46 4.852M175.408 258.011h-18.761c-1.997 0-3.788-1.95-4.461-4.85-.176-.76.081-1.594.574-1.864.492-.272 1.035.124 1.21.883.405 1.743 1.48 2.915 2.677 2.915h18.761c1.198 0 2.272-1.172 2.676-2.916.176-.759.718-1.155 1.212-.884.493.27.75 1.105.574 1.863-.673 2.903-2.465 4.853-4.462 4.853M182.988 304.677h-33.921c-1.995 0-3.789-1.95-4.46-4.85-.177-.76.08-1.594.573-1.864.492-.272 1.035.124 1.21.883.405 1.743 1.48 2.915 2.677 2.915h33.921c1.197 0 2.273-1.172 2.676-2.915.177-.76.719-1.156 1.21-.884.494.27.752 1.104.576 1.862-.673 2.903-2.465 4.853-4.462 4.853" fill="#DD7045" mask="url(#f)"/><path d="M175.408 310.51h-18.761c-.523 0-.948-.652-.948-1.458 0-.805.425-1.458.948-1.458h18.761c.524 0 .948.653.948 1.458 0 .806-.424 1.458-.948 1.458" fill="#A8DFCF" mask="url(#f)"/><path d="M186.557 328.01h-41.059c-.523 0-.947-.653-.947-1.458 0-.806.424-1.458.947-1.458h41.059c.523 0 .948.652.948 1.458 0 .805-.425 1.458-.948 1.458" fill="#DD7045" mask="url(#f)"/></g></svg>