<?xml version="1.0" encoding="UTF-8"?>
<svg width="1050px" height="300px" viewBox="0 0 1050 300" version="1.1" xmlns="http://www.w3.org/2000/svg" xmlns:xlink="http://www.w3.org/1999/xlink">
    <!-- Generator: Sketch 52.6 (67491) - http://www.bohemiancoding.com/sketch -->
    <title>a1-playground copy</title>
    <desc>Created with Sketch.</desc>
    <defs>
        <polygon id="path-1" points="0 300 350 300 350 0 0 0"></polygon>
        <polygon id="path-3" points="0.2621 0.8296 64 0.8296 64 78.5126 0.2621 78.5126"></polygon>
        <polygon id="path-5" points="0 300 350 300 350 0 0 0"></polygon>
        <polygon id="path-7" points="0 300 350 300 350 0 0 0"></polygon>
    </defs>
    <g id="a1-playground-copy" stroke="none" stroke-width="1" fill="none" fill-rule="evenodd">
        <g id="Group-50" transform="translate(350.000000, 0.000000)">
            <path d="M99.5868,71.372 L66.3398,107.689 L66.3398,158.913 L80.9248,167.25 L80.9248,141.166 L80.9488,141.166 C80.9448,140.982 80.9248,140.804 80.9248,140.619 C80.9248,129.136 89.2778,119.827 99.5828,119.827 C109.8878,119.827 118.2408,129.136 118.2408,140.619 C118.2408,140.804 118.2208,140.982 118.2168,141.166 L118.2408,141.166 L118.8078,172.252 L133.6538,167.2 L134.4198,110.4 L99.5868,71.372 Z" id="Fill-1" fill="#FFFDF6"></path>
            <polygon id="Fill-3" fill="#F7D3A4" points="286.2626 205.0546 335.8356 244.5126 349.9996 219.8516 286.2626 166.8296"></polygon>
            <mask id="mask-2" fill="white">
                <use xlink:href="#path-1"></use>
            </mask>
            <g id="Clip-6"></g>
            <polygon id="Fill-5" fill="#B2B2B2" mask="url(#mask-2)" points="66.251 283.543 71.927 283.543 71.927 102.713 66.251 102.713"></polygon>
            <polygon id="Fill-7" fill="#B2B2B2" mask="url(#mask-2)" points="279.615 260.037 286.267 260.037 286.267 123.673 279.615 123.673"></polygon>
            <polygon id="Fill-8" fill="#C3E1E5" mask="url(#mask-2)" points="134.0048 155.289 233.8728 175.461 233.8728 115.391 134.0048 95.043"></polygon>
            <polygon id="Fill-9" fill="#B2B2B2" mask="url(#mask-2)" points="173.28 236.608 180.182 236.608 180.182 41.057 173.28 41.057"></polygon>
            <polygon id="Fill-10" fill="#B2B2B2" mask="url(#mask-2)" points="130.643 287.67 136.365 287.67 136.365 107.643 130.643 107.643"></polygon>
            <polygon id="Fill-11" fill="#C8E9F1" mask="url(#mask-2)" points="133.6356 168.8535 224.1656 189.0245 224.1656 128.9555 133.6356 108.6065"></polygon>
            <path d="M254.2099,87.4023 L220.9629,123.7193 L220.9629,174.9423 L236.2709,172.0003 L235.5469,157.1953 L235.5719,157.1953 C235.5669,157.0113 235.5469,156.8333 235.5469,156.6483 C235.5469,145.1663 243.8999,135.8563 254.2059,135.8563 C264.5109,135.8563 272.8639,145.1663 272.8639,156.6483 C272.8639,156.8333 272.8439,157.0113 272.8399,157.1953 L272.8639,157.1953 L272.1029,185.3253 L286.2669,184.0923 L287.4489,123.7193 L254.2099,87.4023 Z" id="Fill-12" fill="#FFFDF6" mask="url(#mask-2)"></path>
            <path d="M237.4208,164.2041 C235.4528,164.0991 225.8978,164.1661 219.5028,178.3661 C217.4398,182.9471 204.3118,221.7721 198.5608,231.1781 C188.1498,248.2031 176.8868,247.8551 154.8408,267.5001 C151.5558,270.4271 154.7238,279.9371 157.5298,283.5631 C158.8668,285.2911 160.5808,285.0431 161.2038,284.8731 C166.9758,283.2961 199.6188,249.9291 201.6228,248.8581 C207.7458,245.5841 213.3438,229.6811 217.5448,206.9501 C219.4038,196.8901 218.7698,191.2341 223.0568,182.0661 C226.6228,174.4391 237.7538,173.5541 237.7538,172.2441 C237.7538,172.1841 237.7688,164.2231 237.4208,164.2041" id="Fill-13" fill="#2E91A0" mask="url(#mask-2)"></path>
            <path d="M238.1903,170.7734 C232.2883,171.7454 224.5263,174.2174 219.9593,181.2594 C217.7763,184.6244 217.2093,187.6664 216.4293,191.0894 C216.4293,191.0894 213.6913,203.1254 205.2553,223.8584 C200.6663,235.1384 197.4033,243.1574 189.9633,250.0724 C180.5023,258.8684 170.0223,260.5464 159.3813,274.3204 C157.9783,276.1374 156.9873,277.6274 157.0293,279.5634 C157.2233,288.5564 179.5223,300.0234 197.6103,295.9474 C219.6513,290.9804 231.2513,263.8774 234.0733,257.2814 C245.4943,230.5954 240.6733,214.5334 255.2463,195.6774 C261.4723,187.6214 265.8623,181.8294 271.1263,179.2944" id="Fill-14" fill="#06BBCE" mask="url(#mask-2)"></path>
            <path d="M273.4784,175.3613 C271.5874,175.2553 257.2704,176.2223 251.1284,190.4343 C249.1474,195.0203 248.2084,198.9773 247.6004,202.2313 C244.6604,217.9603 241.9494,236.7263 236.4254,246.1403 C226.4274,263.1793 225.8394,259.9023 204.6664,279.5633 C201.5124,282.4933 194.3274,294.9403 197.0214,298.5693 C198.3054,300.2993 199.9524,300.0493 200.5504,299.8803 C206.0924,298.3003 237.4434,264.9063 239.3674,263.8353 C245.2484,260.5583 250.6234,244.6413 254.6584,221.8913 C256.4434,211.8233 255.8334,206.1633 259.9514,196.9883 C263.3754,189.3543 274.0664,188.4683 274.0664,187.1583 C274.0664,187.0973 274.6544,181.2593 274.6544,178.6373 C274.6544,174.4933 273.8114,175.3803 273.4784,175.3613" id="Fill-15" fill="#2E91A0" mask="url(#mask-2)"></path>
            <path d="M80.6503,148.0742 C78.7603,147.9682 69.5843,148.0362 63.4423,162.2472 C61.4613,166.8332 48.8533,205.6902 43.3303,215.1032 C33.3323,232.1422 22.5153,231.7952 1.3423,251.4552 C-1.8117,254.3852 1.2303,263.9032 3.9253,267.5322 C5.2103,269.2622 6.8553,269.0132 7.4543,268.8432 C12.9973,267.2642 44.3463,233.8702 46.2703,232.7982 C52.1523,229.5212 57.5273,213.6052 61.5613,190.8552 C63.3473,180.7872 62.7383,175.1272 66.8553,165.9512 C70.2803,158.3172 80.9693,157.4312 80.9693,156.1212 C80.9693,156.0612 80.9833,148.0932 80.6503,148.0742" id="Fill-16" fill="#2E91A0" mask="url(#mask-2)"></path>
            <path d="M84.748,154.7441 C78.846,155.7161 71.084,158.1871 66.517,165.2291 C64.334,168.5951 63.767,171.6371 62.987,175.0601 C62.987,175.0601 60.249,187.0961 51.813,207.8281 C47.224,219.1081 43.961,227.1271 36.522,234.0431 C27.06,242.8381 16.58,244.5171 5.939,258.2911 C4.536,260.1081 3.545,261.5971 3.587,263.5341 C3.781,272.5271 26.08,283.9941 44.168,279.9181 C66.209,274.9501 77.809,247.8471 80.632,241.2521 C92.052,214.5661 87.231,198.5041 101.804,179.6471 C108.03,171.5921 112.42,165.8001 117.684,163.2641" id="Fill-17" fill="#06BBCE" mask="url(#mask-2)"></path>
            <path d="M120.036,159.332 C118.145,159.226 103.829,160.193 97.686,174.405 C95.705,178.99 94.766,182.948 94.158,186.201 C91.218,201.93 88.507,220.697 82.983,230.11 C72.985,247.149 72.397,243.873 51.225,263.534 C48.07,266.463 40.885,278.91 43.579,282.539 C44.864,284.269 46.51,284.02 47.108,283.85 C52.65,282.271 84.001,248.877 85.925,247.805 C91.806,244.528 97.182,228.612 101.216,205.862 C103.001,195.794 102.391,190.134 106.509,180.958 C109.934,173.325 120.624,172.438 120.624,171.128 C120.624,171.068 121.212,165.229 121.212,162.608 C121.212,158.464 120.369,159.351 120.036,159.332" id="Fill-18" fill="#2E91A0" mask="url(#mask-2)"></path>
            <polygon id="Fill-19" fill="#FFB53E" mask="url(#mask-2)" points="286.2626 223.5507 335.8356 263.0087 349.9996 238.3467 286.2626 185.3247"></polygon>
            <polygon id="Fill-20" fill="#DD7045" mask="url(#mask-2)" points="99.9599 71.2001 120.6359 64.0001 150.5019 93.5991 133.2679 114.3331"></polygon>
            <polyline id="Fill-21" fill="#DD7045" mask="url(#mask-2)" points="66.2655 108 66.2505 100.682 104.5545 67.2 120.6355 64 103.4555 76.333"></polyline>
            <polyline id="Fill-22" fill="#DD7045" mask="url(#mask-2)" points="219.4227 124.7998 220.1887 116.7998 257.7117 83.9998 273.7937 80.7998 256.6137 93.1328"></polyline>
            <path d="M176.7304,11.3203 C191.0944,11.3203 202.7384,23.7383 202.7384,39.0563 C202.7384,54.3743 191.0944,66.7923 176.7304,66.7923 C162.3664,66.7923 150.7224,54.3743 150.7224,39.0563 C150.7224,23.7383 162.3664,11.3203 176.7304,11.3203" id="Fill-23" fill="#FFB53E" mask="url(#mask-2)"></path>
            <path d="M176.7304,15.8496 C186.3054,15.8496 194.0684,26.7456 194.0684,40.1886 C194.0684,53.6306 186.3054,64.5286 176.7304,64.5286 C167.1544,64.5286 159.3914,53.6306 159.3914,40.1886 C159.3914,26.7456 167.1544,15.8496 176.7304,15.8496" id="Fill-24" fill="#FDE14C" mask="url(#mask-2)"></path>
            <path d="M205.9892,19.2451 L202.5412,22.8471 C202.6662,22.0371 202.7382,21.2141 202.7382,20.3771 C202.7382,9.1231 191.0932,0.0001 176.7302,0.0001 C162.3672,0.0001 150.7222,9.1231 150.7222,20.3771 C150.7222,21.2141 150.7952,22.0371 150.9202,22.8471 L147.4712,19.2451 C147.4712,19.2451 143.5512,29.4811 143.1682,36.3271 C143.1352,36.8861 143.5572,37.3581 144.0932,37.3581 L146.3872,37.3581 L146.3872,39.8621 C146.3872,40.3721 146.7672,40.7951 147.2552,40.8281 C149.7852,41.0051 157.4772,41.2591 165.2972,38.6821 C164.8102,38.4901 176.7302,32.8301 176.7302,32.8301 C176.7302,32.8301 187.5662,38.4901 188.1642,38.6821 C195.9832,41.2591 203.6762,41.0051 206.2062,40.8281 C206.6932,40.7951 207.0722,40.3721 207.0722,39.8621 L207.0722,37.3581 L209.3672,37.3581 C209.9032,37.3581 210.3242,36.8861 210.2932,36.3271 C209.9082,29.4811 205.9892,19.2451 205.9892,19.2451" id="Fill-25" fill="#FDE14C" mask="url(#mask-2)"></path>
            <path d="M202.4481,8.7324 C206.1341,6.5724 207.4391,3.5564 207.9021,1.6934 C208.0791,0.9804 207.4191,0.3724 206.7531,0.6164 C198.4381,3.6654 184.8991,-0.7316 178.1051,11.2914 C177.4811,12.3934 175.9791,12.3934 175.3551,11.2914 C168.5611,-0.7316 155.0221,3.6654 146.7081,0.6164 C146.0421,0.3724 145.3811,0.9804 145.5581,1.6934 C146.0211,3.5564 147.3271,6.5724 151.0121,8.7324 C151.6491,9.1054 151.7761,9.9984 151.2561,10.5324 C147.8411,14.0364 145.8971,19.0984 146.4961,24.6214 C147.3321,32.3324 153.2691,38.5804 160.6451,39.4984 C167.4921,40.3494 173.6171,36.7494 176.7301,31.1064 C179.8441,36.7494 185.9691,40.3494 192.8151,39.4984 C200.1911,38.5804 206.1291,32.3324 206.9651,24.6214 C207.5631,19.0984 205.6201,14.0364 202.2051,10.5324 C201.6831,9.9974 201.8101,9.1054 202.4481,8.7324" id="Fill-26" fill="#FFB53E" mask="url(#mask-2)"></path>
            <path d="M162.6425,11.3203 C168.6275,11.3203 173.4795,16.3893 173.4795,22.6413 C173.4795,28.8933 168.6275,33.9623 162.6425,33.9623 C156.6585,33.9623 151.8065,28.8933 151.8065,22.6413 C151.8065,16.3893 156.6585,11.3203 162.6425,11.3203" id="Fill-27" fill="#FDE14C" mask="url(#mask-2)"></path>
            <path d="M177.4403,39.9082 L179.5933,33.9092 C179.8303,33.2522 179.6763,32.5122 179.2013,32.0152 L178.2623,31.0342 C177.4163,30.1502 176.0443,30.1502 175.1983,31.0342 L174.2593,32.0152 C173.7843,32.5122 173.6303,33.2522 173.8663,33.9092 L176.0203,39.9082 C176.2663,40.5942 177.1943,40.5942 177.4403,39.9082" id="Fill-28" fill="#EBAF4B" mask="url(#mask-2)"></path>
            <path d="M164.6679,19.6924 C166.3859,19.6924 167.7779,21.1474 167.7779,22.9414 C167.7779,24.7354 166.3859,26.1894 164.6679,26.1894 C162.9509,26.1894 161.5589,24.7354 161.5589,22.9414 C161.5589,21.1474 162.9509,19.6924 164.6679,19.6924" id="Fill-29" fill="#000000" mask="url(#mask-2)"></path>
            <path d="M190.8173,11.3203 C196.8023,11.3203 201.6543,16.3893 201.6543,22.6413 C201.6543,28.8933 196.8023,33.9623 190.8173,33.9623 C184.8333,33.9623 179.9813,28.8933 179.9813,22.6413 C179.9813,16.3893 184.8333,11.3203 190.8173,11.3203" id="Fill-30" fill="#FDE14C" mask="url(#mask-2)"></path>
            <path d="M189.0575,19.0078 C190.7755,19.0078 192.1675,20.4618 192.1675,22.2558 C192.1675,24.0498 190.7755,25.5048 189.0575,25.5048 C187.3405,25.5048 185.9485,24.0498 185.9485,22.2558 C185.9485,20.4618 187.3405,19.0078 189.0575,19.0078" id="Fill-31" fill="#000000" mask="url(#mask-2)"></path>
            <polygon id="Fill-32" fill="#F9F0E4" mask="url(#mask-2)" points="287.0097 128.2607 303.8177 108.7997 304.5827 167.1997 285.6067 183.9627"></polygon>
            <polygon id="Fill-33" fill="#DD7045" mask="url(#mask-2)" points="254.6493 86.4003 275.3253 79.2003 305.1913 108.7993 287.9563 129.5323"></polygon>
            <path d="M86.2636,186.2959 C87.7686,183.5879 92.6296,174.0429 94.2946,169.3319 C94.7736,167.9789 95.2266,166.6649 95.6426,165.4289 C96.8786,161.7529 90.6266,158.7649 89.5996,162.3299 C87.0396,171.2099 83.8946,183.8759 83.5906,184.9539 C83.1646,186.4659 85.3186,187.9969 86.2636,186.2959" id="Fill-34" fill="#B28B67" mask="url(#mask-2)"></path>
            <path d="M87.3573,185.7119 C87.5973,186.2729 87.7253,186.6959 87.7433,186.9819 C87.7633,187.3279 87.7373,187.8379 87.6663,188.5099 C87.2813,188.5349 83.8203,188.7579 77.2833,189.1789 C76.9583,188.2639 77.0843,187.7509 77.6613,187.6389 C78.2383,187.5269 78.7163,187.4289 79.0983,187.3449 L83.7923,184.7859 C83.8813,184.7369 83.9933,184.7739 84.0413,184.8679 C84.0413,184.8689 84.0423,184.8709 84.0433,184.8729 L84.3993,185.6389 C84.9533,185.8659 85.3983,185.9699 85.7343,185.9479 C86.0073,185.9309 86.3783,185.7909 86.8463,185.5289" id="Fill-35" fill="#E4E4E4" mask="url(#mask-2)"></path>
            <path d="M92.0858,172.9687 C98.9998,171.6797 108.5268,163.9627 107.3348,155.3787 L96.1078,155.3787 C94.4218,155.8937 95.4778,157.5877 83.0748,163.4417" id="Fill-36" fill="#5C63AB" mask="url(#mask-2)"></path>
            <path d="M110.8124,144.499 L106.5864,143.997 C108.2044,153.113 109.0864,157.954 109.2344,158.518 C109.5654,159.786 108.3684,161.509 107.8334,162.448 C109.1394,163.262 109.2604,160.857 110.9054,161.916 C112.4054,162.883 113.4564,164.429 115.4224,163.472 C115.6654,163.354 115.9734,162.838 115.4244,162.337 C114.0564,161.088 112.1244,158.96 111.9034,158.311 C111.6024,157.426 111.2394,152.821 110.8124,144.499 Z M86.4474,136.09 L80.4974,144.794 C78.5584,146.123 77.0164,147.478 75.8704,148.859 C75.6334,149.296 75.4304,150.085 76.7924,149.493 C78.1554,148.901 79.6144,148.344 79.9634,148.775 C80.3124,149.207 79.6544,150.093 80.2544,150.631 C80.6564,150.99 81.5314,149.445 82.8794,145.998 L89.5864,139.972 L86.4474,136.09 Z" id="Fill-37" fill="#B28B67" mask="url(#mask-2)"></path>
            <path d="M70.829,187.0283 C72.333,184.3213 77.195,174.7753 78.86,170.0653 C79.339,168.7123 79.791,167.3983 80.208,166.1613 C81.444,162.4853 75.192,159.4973 74.165,163.0623 C71.605,171.9433 68.46,184.6083 68.156,185.6863 C67.73,187.1983 69.884,188.7293 70.829,187.0283" id="Fill-38" fill="#B28B67" mask="url(#mask-2)"></path>
            <path d="M72.4355,185.6474 C72.6905,186.2464 72.8285,186.6974 72.8455,187.0014 C72.8675,187.3714 72.8395,187.9154 72.7645,188.6314 C72.3535,188.6584 68.6625,188.8954 61.6905,189.3444 C61.3435,188.3694 61.4785,187.8214 62.0935,187.7024 C62.7085,187.5834 63.2195,187.4784 63.6255,187.3884 L68.6315,184.6604 C68.7285,184.6074 68.8465,184.6464 68.8975,184.7474 C68.8985,184.7494 68.8985,184.7514 68.8995,184.7524 L69.2805,185.5694 C69.8705,185.8124 70.3445,185.9214 70.7045,185.8994 C70.9955,185.8804 71.3905,185.7314 71.8905,185.4524" id="Fill-39" fill="#E4E4E4" mask="url(#mask-2)"></path>
            <path d="M79.2284,171.5029 C85.6244,170.2139 94.4354,162.4969 93.3324,153.9129 L82.9494,153.9129 C81.3894,154.4279 82.3664,156.1219 70.8944,161.9759" id="Fill-40" fill="#5C63AB" mask="url(#mask-2)"></path>
            <path d="M104.1415,161.9755 L85.7295,161.9755 C83.5645,161.9755 81.7925,160.2045 81.7925,158.0385 L81.7925,156.3835 C81.7925,154.2185 83.5645,152.4475 85.7295,152.4475 L104.1415,152.4475 C106.3065,152.4475 108.0785,154.2185 108.0785,156.3835 L108.0785,158.0385 C108.0785,160.2045 106.3065,161.9755 104.1415,161.9755" id="Fill-41" fill="#5C63AB" mask="url(#mask-2)"></path>
            <path d="M102.456,139.6806 L101.094,125.7526 C102.914,124.0206 104.262,121.8006 104.373,119.1566 C104.693,111.5356 94.124,112.0406 91.678,115.6316 C89.688,118.5526 89.091,124.1696 90.301,126.6886 C90.364,126.6876 91.557,126.0766 91.622,126.0846 C92.199,126.1496 92.238,126.8906 91.459,127.5406 C91.383,127.6056 91.408,127.7356 91.345,127.8166 C91.372,127.8286 91.395,127.8516 91.424,127.8626 C92.435,128.2506 94.229,129.8716 96.641,128.7446 L94.09,138.7456 L102.456,139.6806 Z" id="Fill-42" fill="#B28B67" mask="url(#mask-2)"></path>
            <path d="M96.9677,121.6679 C98.1427,120.1159 99.1867,119.6139 100.0987,120.1619 C101.0107,120.7099 101.1107,121.8049 100.3967,123.4449 L100.4627,127.4049 L101.5467,127.5259 C103.1247,122.9089 106.4767,120.0159 106.2557,117.8479 C106.1097,116.4029 106.2137,114.8359 104.9327,114.3449 C104.5627,111.4719 100.6467,110.5809 96.8817,110.5839 C91.2347,110.5879 88.5997,112.6099 89.4927,117.9389 C90.8447,118.0909 93.1547,117.1799 95.3167,118.2799" id="Fill-43" fill="#191847" mask="url(#mask-2)"></path>
            <path d="M91.9267,121.0546 C91.8707,121.3796 91.9777,121.6266 92.2027,121.8446 C92.3327,121.9706 92.5457,121.8716 92.6077,121.7256 C92.7417,121.4076 92.7007,121.1106 92.4917,120.8426 C92.2797,120.5706 91.9857,120.7086 91.9267,121.0546" id="Fill-44" fill="#191847" mask="url(#mask-2)"></path>
            <path d="M91.5673,119.9043 C92.1413,119.5613 93.1603,119.7823 93.3263,120.5213 C93.4013,120.8533 93.9113,120.7133 93.8363,120.3823 C93.5943,119.3093 92.1643,118.9323 91.3003,119.4473 C91.0093,119.6223 91.2743,120.0793 91.5673,119.9043" id="Fill-45" fill="#191847" mask="url(#mask-2)"></path>
            <path d="M90.4931,123.5459 C90.0251,123.8949 90.0821,124.5239 90.6311,124.7459 C90.7571,124.7979 90.8111,124.5939 90.6871,124.5429 L90.5991,123.7289 C90.7071,123.6489 90.6021,123.4649 90.4931,123.5459" id="Fill-46" fill="#191847" mask="url(#mask-2)"></path>
            <path d="M90.0048,120.665 C89.9698,120.87 89.9918,121.019 90.0758,121.205 C90.1728,121.417 90.4748,121.414 90.5638,121.193 C90.6718,120.923 90.6678,120.712 90.5748,120.439 C90.4908,120.19 90.0638,120.319 90.0048,120.665" id="Fill-47" fill="#191847" mask="url(#mask-2)"></path>
            <path d="M89.8544,119.8154 C90.1464,119.6164 90.4464,119.4844 90.7994,119.4394 C91.1324,119.3964 91.1364,118.8684 90.7994,118.9114 C90.3514,118.9674 89.9614,119.1034 89.5864,119.3594 C89.3084,119.5494 89.5724,120.0084 89.8544,119.8154" id="Fill-48" fill="#191847" mask="url(#mask-2)"></path>
            <path d="M108.7792,133.3916 C105.2712,131.4046 104.6832,130.2746 102.4662,128.9946 C102.6442,129.3226 102.4662,130.1196 102.4662,130.4596 C102.4662,131.1926 101.7062,131.5586 98.6062,131.5586 C95.5072,131.5586 92.9942,130.7386 92.9942,129.7266 C92.9942,129.7226 92.9962,129.7186 92.9962,129.7136 L92.8442,129.7266 C92.8442,129.7466 92.8432,129.7666 92.8422,129.7876 C90.4992,131.2106 88.7602,131.9566 86.4582,134.1236 C84.6092,135.8636 83.6802,136.2126 83.5372,137.0556 C83.2902,138.5106 86.2812,140.9886 89.7922,140.7206 C87.5282,145.1816 84.6672,149.1426 83.6472,152.9336 C83.4922,153.5076 83.2912,154.6456 84.3602,154.6456 L107.7592,154.6456 C107.3842,150.9336 107.2152,147.5536 106.9372,144.4416 C111.5862,144.3846 113.0492,146.2096 112.9892,144.3846 C112.9542,143.3066 111.5992,134.9886 108.7792,133.3916" id="Fill-49" fill="#C8E9F1" mask="url(#mask-2)"></path>
        </g>
        <g id="Group-51" transform="translate(700.000000, 0.000000)">
            <path d="M99.5863,71.372 L66.3393,107.689 L66.3393,158.913 L80.9243,167.25 L80.9243,141.166 L80.9493,141.166 C80.9443,140.982 80.9243,140.804 80.9243,140.619 C80.9243,129.136 89.2773,119.827 99.5833,119.827 C109.8883,119.827 118.2413,129.136 118.2413,140.619 C118.2413,140.804 118.2213,140.982 118.2173,141.166 L118.2413,141.166 L118.8083,172.252 L133.6543,167.2 L134.4203,110.4 L99.5863,71.372 Z" id="Fill-1" fill="#FFFDF6"></path>
            <g id="Group-5" transform="translate(286.000000, 166.000000)">
                <mask id="mask-4" fill="white">
                    <use xlink:href="#path-3"></use>
                </mask>
                <g id="Clip-4"></g>
                <polygon id="Fill-3" fill="#F7D3A4" mask="url(#mask-4)" points="0.2621 39.0546 49.8361 78.5126 64.0001 53.8516 0.2621 0.8296"></polygon>
            </g>
            <mask id="mask-6" fill="white">
                <use xlink:href="#path-5"></use>
            </mask>
            <g id="Clip-7"></g>
            <polygon id="Fill-6" fill="#B2B2B2" mask="url(#mask-6)" points="66.251 283.543 71.926 283.543 71.926 102.713 66.251 102.713"></polygon>
            <polygon id="Fill-8" fill="#B2B2B2" mask="url(#mask-6)" points="279.615 260.037 286.267 260.037 286.267 123.673 279.615 123.673"></polygon>
            <polygon id="Fill-9" fill="#C3E1E5" mask="url(#mask-6)" points="134.0052 155.289 233.8732 175.461 233.8732 115.391 134.0052 95.043"></polygon>
            <polygon id="Fill-10" fill="#B2B2B2" mask="url(#mask-6)" points="173.279 236.608 180.182 236.608 180.182 41.057 173.279 41.057"></polygon>
            <polygon id="Fill-11" fill="#B2B2B2" mask="url(#mask-6)" points="130.643 287.67 136.366 287.67 136.366 107.643 130.643 107.643"></polygon>
            <polygon id="Fill-12" fill="#C8E9F1" mask="url(#mask-6)" points="133.6361 168.8535 224.1661 189.0245 224.1661 128.9555 133.6361 108.6065"></polygon>
            <path d="M254.2093,87.4023 L220.9623,123.7193 L220.9623,174.9423 L236.2703,172.0003 L235.5473,157.1953 L235.5713,157.1953 C235.5673,157.0113 235.5473,156.8333 235.5473,156.6483 C235.5473,145.1663 243.9003,135.8563 254.2053,135.8563 C264.5103,135.8563 272.8643,145.1663 272.8643,156.6483 C272.8643,156.8333 272.8443,157.0113 272.8393,157.1953 L272.8643,157.1953 L272.1033,185.3253 L286.2673,184.0923 L287.4483,123.7193 L254.2093,87.4023 Z" id="Fill-13" fill="#FFFDF6" mask="url(#mask-6)"></path>
            <path d="M237.4212,164.2041 C235.4522,164.0991 225.8982,164.1661 219.5022,178.3661 C217.4392,182.9471 204.3122,221.7721 198.5612,231.1781 C188.1502,248.2031 176.8872,247.8551 154.8402,267.5001 C151.5562,270.4271 154.7242,279.9371 157.5292,283.5631 C158.8672,285.2911 160.5812,285.0431 161.2042,284.8731 C166.9752,283.2961 199.6192,249.9291 201.6222,248.8581 C207.7462,245.5841 213.3442,229.6811 217.5442,206.9501 C219.4032,196.8901 218.7702,191.2341 223.0562,182.0661 C226.6222,174.4391 237.7542,173.5541 237.7542,172.2441 C237.7542,172.1841 237.7682,164.2231 237.4212,164.2041" id="Fill-14" fill="#2E91A0" mask="url(#mask-6)"></path>
            <path d="M238.1908,170.7734 C232.2878,171.7454 224.5268,174.2174 219.9588,181.2594 C217.7758,184.6244 217.2098,187.6664 216.4298,191.0894 C216.4298,191.0894 213.6918,203.1254 205.2548,223.8584 C200.6658,235.1384 197.4028,243.1574 189.9638,250.0724 C180.5028,258.8684 170.0218,260.5464 159.3818,274.3204 C157.9778,276.1374 156.9878,277.6274 157.0298,279.5634 C157.2228,288.5564 179.5218,300.0234 197.6098,295.9474 C219.6518,290.9804 231.2518,263.8774 234.0738,257.2814 C245.4938,230.5954 240.6728,214.5334 255.2468,195.6774 C261.4718,187.6214 265.8628,181.8294 271.1258,179.2944" id="Fill-15" fill="#06BBCE" mask="url(#mask-6)"></path>
            <path d="M273.4779,175.3613 C271.5879,175.2553 257.2709,176.2223 251.1289,190.4343 C249.1479,195.0203 248.2079,198.9773 247.6009,202.2313 C244.6599,217.9603 241.9499,236.7263 236.4259,246.1403 C226.4279,263.1793 225.8399,259.9023 204.6669,279.5633 C201.5129,282.4933 194.3269,294.9403 197.0219,298.5693 C198.3059,300.2993 199.9519,300.0493 200.5499,299.8803 C206.0929,298.3003 237.4429,264.9063 239.3669,263.8353 C245.2479,260.5583 250.6229,244.6413 254.6579,221.8913 C256.4439,211.8233 255.8339,206.1633 259.9519,196.9883 C263.3759,189.3543 274.0659,188.4683 274.0659,187.1583 C274.0659,187.0973 274.6549,181.2593 274.6549,178.6373 C274.6549,174.4933 273.8109,175.3803 273.4779,175.3613" id="Fill-16" fill="#2E91A0" mask="url(#mask-6)"></path>
            <path d="M80.6498,148.0742 C78.7598,147.9682 69.5838,148.0362 63.4418,162.2472 C61.4608,166.8332 48.8538,205.6902 43.3308,215.1032 C33.3318,232.1422 22.5148,231.7952 1.3428,251.4552 C-1.8122,254.3852 1.2308,263.9032 3.9248,267.5322 C5.2108,269.2622 6.8558,269.0132 7.4548,268.8432 C12.9968,267.2642 44.3468,233.8702 46.2708,232.7982 C52.1518,229.5212 57.5278,213.6052 61.5618,190.8552 C63.3468,180.7872 62.7378,175.1272 66.8548,165.9512 C70.2808,158.3172 80.9698,157.4312 80.9698,156.1212 C80.9698,156.0612 80.9838,148.0932 80.6498,148.0742" id="Fill-17" fill="#2E91A0" mask="url(#mask-6)"></path>
            <path d="M84.7484,154.7441 C78.8454,155.7161 71.0844,158.1871 66.5164,165.2291 C64.3334,168.5951 63.7674,171.6371 62.9874,175.0601 C62.9874,175.0601 60.2494,187.0961 51.8124,207.8281 C47.2234,219.1081 43.9604,227.1271 36.5214,234.0431 C27.0604,242.8381 16.5794,244.5171 5.9394,258.2911 C4.5354,260.1081 3.5454,261.5971 3.5874,263.5341 C3.7804,272.5271 26.0794,283.9941 44.1674,279.9181 C66.2094,274.9501 77.8094,247.8471 80.6314,241.2521 C92.0514,214.5661 87.2304,198.5041 101.8044,179.6471 C108.0294,171.5921 112.4204,165.8001 117.6834,163.2641" id="Fill-18" fill="#06BBCE" mask="url(#mask-6)"></path>
            <path d="M120.0355,159.332 C118.1455,159.226 103.8285,160.193 97.6865,174.405 C95.7055,178.99 94.7655,182.948 94.1585,186.201 C91.2175,201.93 88.5075,220.697 82.9835,230.11 C72.9855,247.149 72.3975,243.873 51.2245,263.534 C48.0705,266.463 40.8845,278.91 43.5795,282.539 C44.8635,284.269 46.5095,284.02 47.1075,283.85 C52.6505,282.271 84.0005,248.877 85.9245,247.805 C91.8065,244.528 97.1815,228.612 101.2155,205.862 C103.0015,195.794 102.3915,190.134 106.5095,180.958 C109.9335,173.325 120.6235,172.438 120.6235,171.128 C120.6235,171.068 121.2125,165.229 121.2125,162.608 C121.2125,158.464 120.3685,159.351 120.0355,159.332" id="Fill-19" fill="#2E91A0" mask="url(#mask-6)"></path>
            <polygon id="Fill-20" fill="#FFB53E" mask="url(#mask-6)" points="286.2621 223.5507 335.8361 263.0087 350.0001 238.3467 286.2621 185.3247"></polygon>
            <polygon id="Fill-21" fill="#DD7045" mask="url(#mask-6)" points="99.9603 71.2001 120.6363 64.0001 150.5023 93.5991 133.2673 114.3331"></polygon>
            <polyline id="Fill-22" fill="#DD7045" mask="url(#mask-6)" points="66.265 108 66.251 100.682 104.555 67.2 120.636 64 103.456 76.333"></polyline>
            <polyline id="Fill-23" fill="#DD7045" mask="url(#mask-6)" points="219.4232 124.7998 220.1892 116.7998 257.7122 83.9998 273.7932 80.7998 256.6132 93.1328"></polyline>
            <path d="M176.7298,11.3203 C191.0938,11.3203 202.7388,23.7383 202.7388,39.0563 C202.7388,54.3743 191.0938,66.7923 176.7298,66.7923 C162.3668,66.7923 150.7218,54.3743 150.7218,39.0563 C150.7218,23.7383 162.3668,11.3203 176.7298,11.3203" id="Fill-24" fill="#FFB53E" mask="url(#mask-6)"></path>
            <path d="M176.7298,15.8496 C186.3058,15.8496 194.0688,26.7456 194.0688,40.1886 C194.0688,53.6306 186.3058,64.5286 176.7298,64.5286 C167.1548,64.5286 159.3918,53.6306 159.3918,40.1886 C159.3918,26.7456 167.1548,15.8496 176.7298,15.8496" id="Fill-25" fill="#FDE14C" mask="url(#mask-6)"></path>
            <path d="M205.9886,19.2451 L202.5416,22.8471 C202.6666,22.0371 202.7376,21.2141 202.7376,20.3771 C202.7376,9.1231 191.0936,0.0001 176.7296,0.0001 C162.3666,0.0001 150.7226,9.1231 150.7226,20.3771 C150.7226,21.2141 150.7946,22.0371 150.9196,22.8471 L147.4716,19.2451 C147.4716,19.2451 143.5516,29.4811 143.1676,36.3271 C143.1356,36.8861 143.5566,37.3581 144.0926,37.3581 L146.3876,37.3581 L146.3876,39.8621 C146.3876,40.3721 146.7666,40.7951 147.2556,40.8281 C149.7856,41.0051 157.4766,41.2591 165.2976,38.6821 C164.8096,38.4901 176.7296,32.8301 176.7296,32.8301 C176.7296,32.8301 187.5666,38.4901 188.1636,38.6821 C195.9836,41.2591 203.6756,41.0051 206.2056,40.8281 C206.6936,40.7951 207.0726,40.3721 207.0726,39.8621 L207.0726,37.3581 L209.3676,37.3581 C209.9026,37.3581 210.3246,36.8861 210.2936,36.3271 C209.9086,29.4811 205.9886,19.2451 205.9886,19.2451" id="Fill-26" fill="#FDE14C" mask="url(#mask-6)"></path>
            <path d="M202.4476,8.7324 C206.1346,6.5724 207.4396,3.5564 207.9026,1.6934 C208.0796,0.9804 207.4186,0.3724 206.7526,0.6164 C198.4386,3.6654 184.8996,-0.7316 178.1046,11.2914 C177.4816,12.3934 175.9786,12.3934 175.3556,11.2914 C168.5606,-0.7316 155.0216,3.6654 146.7086,0.6164 C146.0426,0.3724 145.3816,0.9804 145.5576,1.6934 C146.0206,3.5564 147.3266,6.5724 151.0126,8.7324 C151.6496,9.1054 151.7766,9.9984 151.2556,10.5324 C147.8406,14.0364 145.8966,19.0984 146.4956,24.6214 C147.3316,32.3324 153.2696,38.5804 160.6456,39.4984 C167.4916,40.3494 173.6166,36.7494 176.7306,31.1064 C179.8436,36.7494 185.9686,40.3494 192.8146,39.4984 C200.1906,38.5804 206.1296,32.3324 206.9656,24.6214 C207.5636,19.0984 205.6206,14.0364 202.2056,10.5324 C201.6836,9.9974 201.8106,9.1054 202.4476,8.7324" id="Fill-27" fill="#FFB53E" mask="url(#mask-6)"></path>
            <path d="M162.6429,11.3203 C168.6269,11.3203 173.4799,16.3893 173.4799,22.6413 C173.4799,28.8933 168.6269,33.9623 162.6429,33.9623 C156.6579,33.9623 151.8059,28.8933 151.8059,22.6413 C151.8059,16.3893 156.6579,11.3203 162.6429,11.3203" id="Fill-28" fill="#FDE14C" mask="url(#mask-6)"></path>
            <path d="M177.4408,39.9082 L179.5938,33.9092 C179.8298,33.2522 179.6758,32.5122 179.2018,32.0152 L178.2628,31.0342 C177.4168,30.1502 176.0448,30.1502 175.1978,31.0342 L174.2588,32.0152 C173.7848,32.5122 173.6308,33.2522 173.8668,33.9092 L176.0198,39.9082 C176.2658,40.5942 177.1948,40.5942 177.4408,39.9082" id="Fill-29" fill="#EBAF4B" mask="url(#mask-6)"></path>
            <path d="M164.6683,19.6924 C166.3863,19.6924 167.7773,21.1474 167.7773,22.9414 C167.7773,24.7354 166.3863,26.1894 164.6683,26.1894 C162.9503,26.1894 161.5593,24.7354 161.5593,22.9414 C161.5593,21.1474 162.9503,19.6924 164.6683,19.6924" id="Fill-30" fill="#000000" mask="url(#mask-6)"></path>
            <path d="M190.8177,11.3203 C196.8027,11.3203 201.6547,16.3893 201.6547,22.6413 C201.6547,28.8933 196.8027,33.9623 190.8177,33.9623 C184.8327,33.9623 179.9807,28.8933 179.9807,22.6413 C179.9807,16.3893 184.8327,11.3203 190.8177,11.3203" id="Fill-31" fill="#FDE14C" mask="url(#mask-6)"></path>
            <path d="M189.058,19.0078 C190.775,19.0078 192.167,20.4618 192.167,22.2558 C192.167,24.0498 190.775,25.5048 189.058,25.5048 C187.34,25.5048 185.949,24.0498 185.949,22.2558 C185.949,20.4618 187.34,19.0078 189.058,19.0078" id="Fill-32" fill="#000000" mask="url(#mask-6)"></path>
            <polygon id="Fill-33" fill="#F9F0E4" mask="url(#mask-6)" points="287.0092 128.2607 303.8182 108.7997 304.5832 167.1997 285.6062 183.9627"></polygon>
            <polygon id="Fill-34" fill="#DD7045" mask="url(#mask-6)" points="254.6488 86.4003 275.3258 79.2003 305.1908 108.7993 287.9568 129.5323"></polygon>
            <path d="M86.264,186.2959 C87.768,183.5879 92.63,174.0429 94.295,169.3319 C94.774,167.9789 95.226,166.6649 95.642,165.4289 C96.879,161.7529 90.626,158.7649 89.599,162.3299 C87.04,171.2099 83.894,183.8759 83.59,184.9539 C83.165,186.4659 85.319,187.9969 86.264,186.2959" id="Fill-35" fill="#B28B67" mask="url(#mask-6)"></path>
            <path d="M87.3578,185.7119 C87.5968,186.2729 87.7258,186.6959 87.7428,186.9819 C87.7628,187.3279 87.7378,187.8379 87.6668,188.5099 C87.2808,188.5349 83.8198,188.7579 77.2828,189.1789 C76.9588,188.2639 77.0848,187.7509 77.6618,187.6389 C78.2378,187.5269 78.7168,187.4289 79.0978,187.3449 L83.7918,184.7859 C83.8818,184.7369 83.9938,184.7739 84.0408,184.8679 C84.0418,184.8689 84.0428,184.8709 84.0438,184.8729 L84.3998,185.6389 C84.9538,185.8659 85.3978,185.9699 85.7348,185.9479 C86.0078,185.9309 86.3788,185.7909 86.8468,185.5289" id="Fill-36" fill="#E4E4E4" mask="url(#mask-6)"></path>
            <path d="M92.0863,172.9687 C99.0003,171.6797 108.5263,163.9627 107.3353,155.3787 L96.1073,155.3787 C94.4223,155.8937 95.4783,157.5877 83.0753,163.4417" id="Fill-37" fill="#5C63AB" mask="url(#mask-6)"></path>
            <path d="M110.8129,144.499 L106.5859,143.997 C108.2049,153.113 109.0869,157.954 109.2339,158.518 C109.5659,159.786 108.3679,161.509 107.8339,162.448 C109.1389,163.262 109.2609,160.857 110.9049,161.916 C112.4059,162.883 113.4559,164.429 115.4219,163.472 C115.6649,163.354 115.9729,162.838 115.4239,162.337 C114.0569,161.088 112.1239,158.96 111.9029,158.311 C111.6029,157.426 111.2389,152.821 110.8129,144.499 Z M86.4479,136.09 L80.4969,144.794 C78.5589,146.123 77.0159,147.478 75.8699,148.859 C75.6339,149.296 75.4299,150.085 76.7929,149.493 C78.1559,148.901 79.6139,148.344 79.9629,148.775 C80.3129,149.207 79.6539,150.093 80.2549,150.631 C80.6559,150.99 81.5309,149.445 82.8799,145.998 L89.5869,139.972 L86.4479,136.09 Z" id="Fill-38" fill="#B28B67" mask="url(#mask-6)"></path>
            <path d="M70.8295,187.0283 C72.3335,184.3213 77.1945,174.7753 78.8605,170.0653 C79.3385,168.7123 79.7915,167.3983 80.2075,166.1613 C81.4445,162.4853 75.1915,159.4973 74.1645,163.0623 C71.6055,171.9433 68.4595,184.6083 68.1555,185.6863 C67.7295,187.1983 69.8845,188.7293 70.8295,187.0283" id="Fill-39" fill="#B28B67" mask="url(#mask-6)"></path>
            <path d="M72.4349,185.6474 C72.6909,186.2464 72.8279,186.6974 72.8449,187.0014 C72.8679,187.3714 72.8399,187.9154 72.7639,188.6314 C72.3529,188.6584 68.6619,188.8954 61.6899,189.3444 C61.3429,188.3694 61.4779,187.8214 62.0929,187.7024 C62.7079,187.5834 63.2189,187.4784 63.6259,187.3884 L68.6319,184.6604 C68.7279,184.6074 68.8469,184.6464 68.8969,184.7474 L68.8999,184.7524 L69.2799,185.5694 C69.8709,185.8124 70.3449,185.9214 70.7039,185.8994 C70.9959,185.8804 71.3909,185.7314 71.8899,185.4524" id="Fill-40" fill="#E4E4E4" mask="url(#mask-6)"></path>
            <path d="M79.2289,171.5029 C85.6239,170.2139 94.4349,162.4969 93.3329,153.9129 L82.9489,153.9129 C81.3889,154.4279 82.3659,156.1219 70.8949,161.9759" id="Fill-41" fill="#5C63AB" mask="url(#mask-6)"></path>
            <path d="M104.142,161.9755 L85.73,161.9755 C83.565,161.9755 81.793,160.2045 81.793,158.0385 L81.793,156.3835 C81.793,154.2185 83.565,152.4475 85.73,152.4475 L104.142,152.4475 C106.307,152.4475 108.078,154.2185 108.078,156.3835 L108.078,158.0385 C108.078,160.2045 106.307,161.9755 104.142,161.9755" id="Fill-42" fill="#5C63AB" mask="url(#mask-6)"></path>
            <path d="M93.1332,139.6806 L94.4952,125.7526 C92.6752,124.0206 91.3272,121.8006 91.2162,119.1566 C90.8962,111.5356 101.4652,112.0406 103.9112,115.6316 C105.9012,118.5526 106.4982,124.1696 105.2882,126.6886 C105.2252,126.6876 104.0322,126.0766 103.9672,126.0846 C103.3902,126.1496 103.3512,126.8906 104.1302,127.5406 C104.2062,127.6056 104.1812,127.7356 104.2442,127.8166 C104.2172,127.8286 104.1942,127.8516 104.1652,127.8626 C103.1542,128.2506 101.3602,129.8716 98.9482,128.7446 L101.4992,138.7456 L93.1332,139.6806 Z" id="Fill-43" fill="#B28B67" mask="url(#mask-6)"></path>
            <path d="M98.6214,121.6679 C97.4464,120.1159 96.4024,119.6139 95.4904,120.1619 C94.5784,120.7099 94.4784,121.8049 95.1924,123.4449 L95.1264,127.4049 L94.0424,127.5259 C92.4644,122.9089 89.1124,120.0159 89.3334,117.8479 C89.4794,116.4029 89.3754,114.8359 90.6564,114.3449 C91.0264,111.4719 94.9424,110.5809 98.7074,110.5839 C104.3544,110.5879 106.9894,112.6099 106.0964,117.9389 C104.7444,118.0909 102.4344,117.1799 100.2724,118.2799" id="Fill-44" fill="#191847" mask="url(#mask-6)"></path>
            <path d="M103.6625,121.0546 C103.7185,121.3796 103.6115,121.6266 103.3855,121.8446 C103.2565,121.9706 103.0435,121.8716 102.9815,121.7256 C102.8475,121.4076 102.8885,121.1106 103.0975,120.8426 C103.3095,120.5706 103.6035,120.7086 103.6625,121.0546" id="Fill-45" fill="#191847" mask="url(#mask-6)"></path>
            <path d="M104.2884,119.4472 C103.4254,118.9322 101.9934,119.3102 101.7534,120.3822 C101.6784,120.7132 102.1874,120.8532 102.2624,120.5212 C102.4294,119.7822 103.4464,119.5602 104.0214,119.9042 C104.3134,120.0792 104.5804,119.6222 104.2884,119.4472" id="Fill-46" fill="#191847" mask="url(#mask-6)"></path>
            <path d="M104.9896,123.7285 L104.9016,124.5425 C104.7776,124.5935 104.8326,124.7975 104.9586,124.7465 C105.5076,124.5235 105.5636,123.8945 105.0956,123.5455 C104.9876,123.4645 104.8826,123.6485 104.9896,123.7285" id="Fill-47" fill="#191847" mask="url(#mask-6)"></path>
            <path d="M105.5843,120.665 C105.6193,120.87 105.5973,121.019 105.5133,121.205 C105.4163,121.417 105.1143,121.414 105.0253,121.193 C104.9173,120.923 104.9213,120.712 105.0143,120.439 C105.0983,120.19 105.5253,120.319 105.5843,120.665" id="Fill-48" fill="#191847" mask="url(#mask-6)"></path>
            <path d="M106.0023,119.3593 C105.6273,119.1033 105.2373,118.9673 104.7893,118.9113 C104.4533,118.8683 104.4563,119.3963 104.7893,119.4393 C105.1423,119.4843 105.4443,119.6173 105.7343,119.8153 C106.0173,120.0073 106.2813,119.5503 106.0023,119.3593" id="Fill-49" fill="#191847" mask="url(#mask-6)"></path>
            <path d="M108.7796,133.3916 C105.2716,131.4046 104.6826,130.2746 102.4656,128.9946 C102.6446,129.3226 102.4656,130.1196 102.4656,130.4596 C102.4656,131.1926 101.7066,131.5586 98.6066,131.5586 C95.5076,131.5586 92.9946,130.7386 92.9946,129.7266 C92.9946,129.7226 92.9956,129.7186 92.9956,129.7136 L92.8446,129.7266 C92.8446,129.7466 92.8426,129.7666 92.8426,129.7876 C90.4986,131.2106 88.7596,131.9566 86.4576,134.1236 C84.6096,135.8636 83.6796,136.2126 83.5376,137.0556 C83.2906,138.5106 86.2816,140.9886 89.7916,140.7206 C87.5286,145.1816 84.6676,149.1426 83.6466,152.9336 C83.4926,153.5076 83.2916,154.6456 84.3596,154.6456 L107.7586,154.6456 C107.3846,150.9336 107.2146,147.5536 106.9376,144.4416 C111.5856,144.3846 113.0486,146.2096 112.9886,144.3846 C112.9536,143.3066 111.5986,134.9886 108.7796,133.3916" id="Fill-50" fill="#C8E9F1" mask="url(#mask-6)"></path>
        </g>
        <g id="Group-50">
            <path d="M99.5871,71.3725 L66.3401,107.6895 L66.3401,158.9125 L80.9241,167.2495 L80.9241,141.1655 L80.9491,141.1655 C80.9441,140.9815 80.9241,140.8035 80.9241,140.6185 C80.9241,129.1365 89.2771,119.8265 99.5831,119.8265 C109.8881,119.8265 118.2411,129.1365 118.2411,140.6185 C118.2411,140.8035 118.2211,140.9815 118.2171,141.1655 L118.2411,141.1655 L118.8081,172.2525 L133.6541,167.1995 L134.4201,110.3995 L99.5871,71.3725 Z" id="Fill-1" fill="#FFFDF6"></path>
            <polygon id="Fill-3" fill="#F7D3A4" points="286.2629 205.0541 335.8359 244.5121 349.9999 219.8511 286.2629 166.8291"></polygon>
            <mask id="mask-8" fill="white">
                <use xlink:href="#path-7"></use>
            </mask>
            <g id="Clip-6"></g>
            <polygon id="Fill-5" fill="#B2B2B2" mask="url(#mask-8)" points="66.251 283.543 71.926 283.543 71.926 102.713 66.251 102.713"></polygon>
            <polygon id="Fill-7" fill="#B2B2B2" mask="url(#mask-8)" points="279.615 260.037 286.267 260.037 286.267 123.673 279.615 123.673"></polygon>
            <polygon id="Fill-8" fill="#C3E1E5" mask="url(#mask-8)" points="134.0051 155.2895 233.8731 175.4615 233.8731 115.3915 134.0051 95.0425"></polygon>
            <polygon id="Fill-9" fill="#B2B2B2" mask="url(#mask-8)" points="173.279 236.609 180.182 236.609 180.182 41.058 173.279 41.058"></polygon>
            <polygon id="Fill-10" fill="#B2B2B2" mask="url(#mask-8)" points="130.642 287.669 136.365 287.669 136.365 107.643 130.642 107.643"></polygon>
            <polygon id="Fill-11" fill="#C8E9F1" mask="url(#mask-8)" points="133.6359 168.853 224.1659 189.025 224.1659 128.955 133.6359 108.607"></polygon>
            <path d="M254.2092,87.4018 L220.9622,123.7188 L220.9622,174.9418 L236.2702,172.0008 L235.5472,157.1958 L235.5712,157.1958 C235.5672,157.0118 235.5472,156.8338 235.5472,156.6488 C235.5472,145.1658 243.9002,135.8568 254.2052,135.8568 C264.5102,135.8568 272.8642,145.1658 272.8642,156.6488 C272.8642,156.8338 272.8442,157.0118 272.8392,157.1958 L272.8642,157.1958 L272.1032,185.3258 L286.2672,184.0918 L287.4482,123.7188 L254.2092,87.4018 Z" id="Fill-12" fill="#FFFDF6" mask="url(#mask-8)"></path>
            <path d="M237.4211,164.2045 C235.4521,164.0985 225.8981,164.1655 219.5021,178.3655 C217.4391,182.9475 204.3121,221.7715 198.5611,231.1785 C188.1501,248.2035 176.8871,247.8545 154.8401,267.4995 C151.5561,270.4265 154.7241,279.9365 157.5301,283.5625 C158.8671,285.2915 160.5811,285.0435 161.2041,284.8725 C166.9761,283.2955 199.6191,249.9295 201.6221,248.8575 C207.7461,245.5835 213.3441,229.6815 217.5451,206.9495 C219.4031,196.8905 218.7701,191.2335 223.0561,182.0665 C226.6231,174.4385 237.7541,173.5545 237.7541,172.2445 C237.7541,172.1845 237.7681,164.2235 237.4211,164.2045" id="Fill-13" fill="#2E91A0" mask="url(#mask-8)"></path>
            <path d="M238.1906,170.7739 C232.2886,171.7459 224.5266,174.2169 219.9586,181.2589 C217.7766,184.6249 217.2096,187.6669 216.4296,191.0899 C216.4296,191.0899 213.6916,203.1259 205.2546,223.8579 C200.6656,235.1379 197.4026,243.1569 189.9636,250.0729 C180.5026,258.8679 170.0226,260.5469 159.3816,274.3209 C157.9776,276.1379 156.9876,277.6269 157.0296,279.5639 C157.2226,288.5569 179.5216,300.0239 197.6096,295.9479 C219.6516,290.9799 231.2516,263.8769 234.0736,257.2819 C245.4946,230.5959 240.6726,214.5339 255.2466,195.6769 C261.4716,187.6219 265.8626,181.8299 271.1256,179.2939" id="Fill-14" fill="#06BBCE" mask="url(#mask-8)"></path>
            <path d="M273.4777,175.3608 C271.5877,175.2558 257.2707,176.2228 251.1287,190.4348 C249.1477,195.0198 248.2087,198.9778 247.6007,202.2308 C244.6607,217.9598 241.9497,236.7268 236.4257,246.1398 C226.4277,263.1788 225.8397,259.9028 204.6667,279.5638 C201.5127,282.4928 194.3277,294.9398 197.0217,298.5688 C198.3057,300.2988 199.9527,300.0498 200.5507,299.8798 C206.0927,298.3008 237.4437,264.9068 239.3667,263.8348 C245.2477,260.5578 250.6237,244.6418 254.6587,221.8918 C256.4437,211.8238 255.8337,206.1638 259.9517,196.9878 C263.3757,189.3548 274.0667,188.4678 274.0667,187.1578 C274.0667,187.0978 274.6547,181.2588 274.6547,178.6378 C274.6547,174.4938 273.8117,175.3808 273.4777,175.3608" id="Fill-15" fill="#2E91A0" mask="url(#mask-8)"></path>
            <path d="M80.6506,148.0747 C78.7596,147.9687 69.5836,148.0357 63.4416,162.2477 C61.4606,166.8327 48.8536,205.6897 43.3306,215.1037 C33.3326,232.1427 22.5146,231.7947 1.3426,251.4557 C-1.8124,254.3847 1.2306,263.9037 3.9256,267.5327 C5.2106,269.2617 6.8556,269.0127 7.4546,268.8437 C12.9966,267.2637 44.3466,233.8697 46.2706,232.7987 C52.1516,229.5207 57.5276,213.6047 61.5616,190.8547 C63.3466,180.7867 62.7386,175.1267 66.8546,165.9517 C70.2806,158.3177 80.9696,157.4317 80.9696,156.1217 C80.9696,156.0607 80.9836,148.0937 80.6506,148.0747" id="Fill-16" fill="#2E91A0" mask="url(#mask-8)"></path>
            <path d="M84.7482,154.7436 C78.8462,155.7156 71.0842,158.1876 66.5162,165.2296 C64.3342,168.5946 63.7672,171.6366 62.9872,175.0596 C62.9872,175.0596 60.2492,187.0956 51.8122,207.8286 C47.2232,219.1086 43.9602,227.1276 36.5212,234.0426 C27.0602,242.8386 16.5802,244.5166 5.9392,258.2906 C4.5352,260.1076 3.5452,261.5976 3.5872,263.5336 C3.7802,272.5266 26.0792,283.9936 44.1672,279.9176 C66.2092,274.9506 77.8092,247.8476 80.6312,241.2516 C92.0522,214.5656 87.2302,198.5036 101.8042,179.6476 C108.0292,171.5916 112.4202,165.7996 117.6832,163.2646" id="Fill-17" fill="#06BBCE" mask="url(#mask-8)"></path>
            <path d="M120.0353,159.3315 C118.1453,159.2255 103.8283,160.1925 97.6863,174.4045 C95.7053,178.9905 94.7663,182.9475 94.1583,186.2015 C91.2183,201.9305 88.5073,220.6965 82.9833,230.1105 C72.9853,247.1495 72.3973,243.8725 51.2243,263.5335 C48.0703,266.4635 40.8853,278.9105 43.5793,282.5395 C44.8633,284.2685 46.5103,284.0195 47.1083,283.8505 C52.6503,282.2705 84.0013,248.8775 85.9243,247.8055 C91.8063,244.5285 97.1813,228.6115 101.2163,205.8615 C103.0013,195.7945 102.3913,190.1335 106.5093,180.9585 C109.9333,173.3245 120.6243,172.4385 120.6243,171.1285 C120.6243,171.0685 121.2123,165.2295 121.2123,162.6075 C121.2123,158.4635 120.3693,159.3505 120.0353,159.3315" id="Fill-18" fill="#2E91A0" mask="url(#mask-8)"></path>
            <polygon id="Fill-19" fill="#FFB53E" mask="url(#mask-8)" points="286.2629 223.5502 335.8359 263.0082 349.9999 238.3472 286.2629 185.3252"></polygon>
            <polygon id="Fill-20" fill="#DD7045" mask="url(#mask-8)" points="99.9601 71.1997 120.6361 64.0007 150.5021 93.5997 133.2671 114.3327"></polygon>
            <polyline id="Fill-21" fill="#DD7045" mask="url(#mask-8)" points="66.2648 108.0004 66.2508 100.6824 104.5548 67.1994 120.6358 64.0004 103.4558 76.3324"></polyline>
            <polyline id="Fill-22" fill="#DD7045" mask="url(#mask-8)" points="219.423 124.8002 220.189 116.8002 257.712 84.0002 273.794 80.8002 256.613 93.1322"></polyline>
            <path d="M176.7306,11.3207 C191.0936,11.3207 202.7386,23.7387 202.7386,39.0557 C202.7386,54.3747 191.0936,66.7927 176.7306,66.7927 C162.3666,66.7927 150.7216,54.3747 150.7216,39.0557 C150.7216,23.7387 162.3666,11.3207 176.7306,11.3207" id="Fill-23" fill="#FFB53E" mask="url(#mask-8)"></path>
            <path d="M176.7306,15.8491 C186.3056,15.8491 194.0686,26.7461 194.0686,40.1891 C194.0686,53.6311 186.3056,64.5291 176.7306,64.5291 C167.1546,64.5291 159.3916,53.6311 159.3916,40.1891 C159.3916,26.7461 167.1546,15.8491 176.7306,15.8491" id="Fill-24" fill="#FDE14C" mask="url(#mask-8)"></path>
            <path d="M205.9884,19.2455 L202.5414,22.8475 C202.6664,22.0365 202.7374,21.2145 202.7374,20.3775 C202.7374,9.1235 191.0934,0.0005 176.7304,0.0005 C162.3664,0.0005 150.7224,9.1235 150.7224,20.3775 C150.7224,21.2145 150.7944,22.0365 150.9194,22.8475 L147.4714,19.2455 C147.4714,19.2455 143.5514,29.4815 143.1674,36.3275 C143.1354,36.8865 143.5574,37.3575 144.0924,37.3575 L146.3874,37.3575 L146.3874,39.8615 C146.3874,40.3725 146.7664,40.7945 147.2554,40.8285 C149.7854,41.0055 157.4764,41.2595 165.2974,38.6815 C164.8094,38.4895 176.7304,32.8295 176.7304,32.8295 C176.7304,32.8295 187.5664,38.4895 188.1634,38.6815 C195.9834,41.2595 203.6754,41.0055 206.2054,40.8285 C206.6934,40.7945 207.0724,40.3725 207.0724,39.8615 L207.0724,37.3575 L209.3674,37.3575 C209.9034,37.3575 210.3244,36.8865 210.2934,36.3275 C209.9084,29.4815 205.9884,19.2455 205.9884,19.2455" id="Fill-25" fill="#FDE14C" mask="url(#mask-8)"></path>
            <path d="M202.4484,8.7319 C206.1344,6.5729 207.4394,3.5559 207.9024,1.6939 C208.0794,0.9799 207.4184,0.3729 206.7534,0.6169 C198.4384,3.6659 184.8994,-0.7321 178.1054,11.2909 C177.4814,12.3939 175.9784,12.3939 175.3554,11.2909 C168.5604,-0.7321 155.0214,3.6659 146.7084,0.6169 C146.0424,0.3729 145.3814,0.9799 145.5584,1.6939 C146.0204,3.5559 147.3274,6.5729 151.0124,8.7319 C151.6494,9.1049 151.7764,9.9979 151.2554,10.5329 C147.8404,14.0359 145.8964,19.0989 146.4954,24.6219 C147.3314,32.3329 153.2694,38.5799 160.6454,39.4979 C167.4914,40.3499 173.6164,36.7499 176.7304,31.1069 C179.8444,36.7499 185.9694,40.3499 192.8144,39.4979 C200.1904,38.5799 206.1294,32.3329 206.9654,24.6219 C207.5634,19.0989 205.6204,14.0359 202.2054,10.5329 C201.6834,9.9979 201.8104,9.1049 202.4484,8.7319" id="Fill-26" fill="#FFB53E" mask="url(#mask-8)"></path>
            <path d="M162.6427,11.3207 C168.6277,11.3207 173.4797,16.3887 173.4797,22.6407 C173.4797,28.8937 168.6277,33.9627 162.6427,33.9627 C156.6587,33.9627 151.8057,28.8937 151.8057,22.6407 C151.8057,16.3887 156.6587,11.3207 162.6427,11.3207" id="Fill-27" fill="#FDE14C" mask="url(#mask-8)"></path>
            <path d="M177.4406,39.9077 L179.5936,33.9087 C179.8306,33.2517 179.6756,32.5117 179.2016,32.0147 L178.2626,31.0347 C177.4166,30.1507 176.0446,30.1507 175.1976,31.0347 L174.2586,32.0147 C173.7846,32.5117 173.6306,33.2517 173.8666,33.9087 L176.0196,39.9077 C176.2656,40.5937 177.1946,40.5937 177.4406,39.9077" id="Fill-28" fill="#EBAF4B" mask="url(#mask-8)"></path>
            <path d="M164.6681,19.6928 C166.3861,19.6928 167.7771,21.1468 167.7771,22.9408 C167.7771,24.7358 166.3861,26.1898 164.6681,26.1898 C162.9511,26.1898 161.5591,24.7358 161.5591,22.9408 C161.5591,21.1468 162.9511,19.6928 164.6681,19.6928" id="Fill-29" fill="#000000" mask="url(#mask-8)"></path>
            <path d="M190.8176,11.3207 C196.8026,11.3207 201.6546,16.3887 201.6546,22.6407 C201.6546,28.8937 196.8026,33.9627 190.8176,33.9627 C184.8336,33.9627 179.9806,28.8937 179.9806,22.6407 C179.9806,16.3887 184.8336,11.3207 190.8176,11.3207" id="Fill-30" fill="#FDE14C" mask="url(#mask-8)"></path>
            <path d="M189.0578,19.0073 C190.7758,19.0073 192.1668,20.4623 192.1668,22.2563 C192.1668,24.0503 190.7758,25.5043 189.0578,25.5043 C187.3398,25.5043 185.9488,24.0503 185.9488,22.2563 C185.9488,20.4623 187.3398,19.0073 189.0578,19.0073" id="Fill-31" fill="#000000" mask="url(#mask-8)"></path>
            <polygon id="Fill-32" fill="#F9F0E4" mask="url(#mask-8)" points="287.009 128.2612 303.818 108.8002 304.583 167.1992 285.607 183.9622"></polygon>
            <polygon id="Fill-33" fill="#DD7045" mask="url(#mask-8)" points="254.6486 86.3999 275.3256 79.1999 305.1906 108.7999 287.9566 129.5329"></polygon>
            <path d="M86.2638,186.2953 C87.7678,183.5883 92.6298,174.0423 94.2948,169.3323 C94.7738,167.9793 95.2258,166.6653 95.6418,165.4283 C96.8788,161.7523 90.6258,158.7643 89.5988,162.3293 C87.0398,171.2103 83.8938,183.8753 83.5908,184.9533 C83.1648,186.4653 85.3188,187.9963 86.2638,186.2953" id="Fill-34" fill="#B28B67" mask="url(#mask-8)"></path>
            <path d="M87.3576,185.7114 C87.5976,186.2734 87.7256,186.6954 87.7426,186.9814 C87.7626,187.3274 87.7376,187.8374 87.6666,188.5104 C87.2816,188.5344 83.8206,188.7574 77.2826,189.1784 C76.9586,188.2644 77.0846,187.7504 77.6616,187.6394 C78.2386,187.5264 78.7166,187.4294 79.0976,187.3444 L83.7926,184.7864 C83.8816,184.7364 83.9936,184.7744 84.0406,184.8674 C84.0416,184.8694 84.0426,184.8714 84.0436,184.8724 L84.3996,185.6394 C84.9536,185.8664 85.3986,185.9694 85.7346,185.9474 C86.0076,185.9304 86.3786,185.7904 86.8466,185.5284" id="Fill-35" fill="#E4E4E4" mask="url(#mask-8)"></path>
            <path d="M92.0861,172.9692 C99.0001,171.6802 108.5271,163.9632 107.3351,155.3782 L96.1081,155.3782 C94.4221,155.8942 95.4781,157.5882 83.0751,163.4412" id="Fill-36" fill="#5C63AB" mask="url(#mask-8)"></path>
            <path d="M110.8127,144.4985 L106.5857,143.9965 C108.2047,153.1135 109.0867,157.9535 109.2347,158.5175 C109.5657,159.7855 108.3687,161.5085 107.8337,162.4475 C109.1387,163.2615 109.2607,160.8565 110.9047,161.9155 C112.4057,162.8825 113.4557,164.4295 115.4227,163.4725 C115.6647,163.3535 115.9727,162.8375 115.4237,162.3365 C114.0567,161.0885 112.1237,158.9605 111.9037,158.3115 C111.6027,157.4255 111.2397,152.8215 110.8127,144.4985 Z M86.4477,136.0905 L80.4977,144.7935 C78.5587,146.1225 77.0167,147.4775 75.8707,148.8585 C75.6337,149.2955 75.4307,150.0855 76.7927,149.4935 C78.1557,148.9015 79.6147,148.3435 79.9627,148.7755 C80.3127,149.2075 79.6547,150.0935 80.2547,150.6315 C80.6557,150.9895 81.5307,149.4455 82.8797,145.9975 L89.5867,139.9715 L86.4477,136.0905 Z" id="Fill-37" fill="#B28B67" mask="url(#mask-8)"></path>
            <path d="M70.8293,187.0287 C72.3333,184.3207 77.1953,174.7757 78.8603,170.0647 C79.3393,168.7117 79.7913,167.3977 80.2073,166.1617 C81.4443,162.4857 75.1913,159.4977 74.1643,163.0627 C71.6053,171.9427 68.4593,184.6087 68.1553,185.6867 C67.7303,187.1987 69.8843,188.7297 70.8293,187.0287" id="Fill-38" fill="#B28B67" mask="url(#mask-8)"></path>
            <path d="M72.4347,185.6469 C72.6907,186.2459 72.8277,186.6969 72.8457,187.0009 C72.8677,187.3709 72.8397,187.9149 72.7637,188.6309 C72.3537,188.6589 68.6627,188.8959 61.6897,189.3439 C61.3437,188.3689 61.4777,187.8219 62.0927,187.7029 C62.7087,187.5839 63.2197,187.4789 63.6257,187.3879 L68.6317,184.6599 C68.7277,184.6079 68.8467,184.6469 68.8967,184.7479 C68.8977,184.7489 68.8987,184.7509 68.8997,184.7519 L69.2797,185.5699 C69.8707,185.8119 70.3447,185.9219 70.7047,185.8989 C70.9957,185.8799 71.3907,185.7319 71.8897,185.4529" id="Fill-39" fill="#E4E4E4" mask="url(#mask-8)"></path>
            <path d="M79.2287,171.5034 C85.6247,170.2144 94.4357,162.4974 93.3327,153.9124 L82.9487,153.9124 C81.3897,154.4284 82.3657,156.1224 70.8947,161.9754" id="Fill-40" fill="#5C63AB" mask="url(#mask-8)"></path>
            <path d="M104.1418,161.9751 L85.7298,161.9751 C83.5648,161.9751 81.7928,160.2041 81.7928,158.0381 L81.7928,156.3831 C81.7928,154.2181 83.5648,152.4471 85.7298,152.4471 L104.1418,152.4471 C106.3068,152.4471 108.0788,154.2181 108.0788,156.3831 L108.0788,158.0381 C108.0788,160.2041 106.3068,161.9751 104.1418,161.9751" id="Fill-41" fill="#5C63AB" mask="url(#mask-8)"></path>
            <path d="M103.9035,138.7485 L100.0855,125.2855 C101.5665,123.2575 102.4985,120.8325 102.1365,118.2105 C101.0955,110.6555 90.7845,113.0335 89.0165,117.0025 C87.5795,120.2305 87.9915,125.8645 89.6315,128.1275 C89.6925,128.1145 90.7575,127.3035 90.8225,127.2985 C91.4025,127.2595 91.5725,127.9815 90.9225,128.7615 C90.8585,128.8375 90.9065,128.9605 90.8585,129.0525 C90.8875,129.0595 90.9145,129.0775 90.9445,129.0835 C92.0075,129.2845 94.0625,130.5605 96.2345,129.0225 L95.5055,139.3185 L103.9035,138.7485 Z" id="Fill-42" fill="#B28B67" mask="url(#mask-8)"></path>
            <path d="M95.297,122.0004 C96.177,120.2644 97.114,119.5844 98.11,119.9614 C99.106,120.3384 99.398,121.3964 98.987,123.1404 L99.757,127.0234 L100.846,126.9504 C101.577,122.1254 104.36,118.6814 103.757,116.5884 C103.356,115.1924 103.179,113.6314 101.831,113.3764 C100.956,110.6144 96.943,110.4364 93.239,111.1084 C87.683,112.1184 85.45,114.5764 87.278,119.6624 C88.635,119.5694 90.747,118.2624 93.069,118.9604" id="Fill-43" fill="#191847" mask="url(#mask-8)"></path>
            <path d="M90.2277,122.2944 C90.2307,122.6244 90.3787,122.8484 90.6407,123.0234 C90.7897,123.1234 90.9817,122.9884 91.0167,122.8334 C91.0927,122.4954 90.9987,122.2114 90.7467,121.9854 C90.4877,121.7554 90.2237,121.9434 90.2277,122.2944" id="Fill-44" fill="#191847" mask="url(#mask-8)"></path>
            <path d="M89.6838,121.2124 C90.2008,120.7614 91.2298,120.8544 91.5198,121.5394 C91.6528,121.8524 92.1078,121.5824 91.9768,121.2734 C91.5438,120.2514 90.0588,120.1864 89.3108,120.8384 C89.0538,121.0624 89.4288,121.4354 89.6838,121.2124" id="Fill-45" fill="#191847" mask="url(#mask-8)"></path>
            <path d="M89.2541,125.0073 C88.8711,125.4153 89.0231,126.0343 89.5911,126.1543 C89.7241,126.1823 89.7801,125.9793 89.6481,125.9503 C89.2251,125.8373 89.1431,125.5723 89.4031,125.1563 C89.4961,125.0573 89.3471,124.9073 89.2541,125.0073" id="Fill-46" fill="#191847" mask="url(#mask-8)"></path>
            <path d="M88.2668,122.2534 C88.2688,122.4604 88.3178,122.6044 88.4328,122.7724 C88.5658,122.9624 88.8628,122.9064 88.9108,122.6734 C88.9688,122.3884 88.9278,122.1814 88.7878,121.9294 C88.6618,121.6994 88.2628,121.9024 88.2668,122.2534" id="Fill-47" fill="#191847" mask="url(#mask-8)"></path>
            <path d="M87.9826,121.4301 C88.2366,121.1771 88.5096,121.0071 88.8536,120.9001 C89.1776,120.8001 89.0396,120.2891 88.7136,120.3911 C88.2866,120.5231 87.9256,120.7411 87.6086,121.0571 C87.3676,121.2971 87.7416,121.6701 87.9826,121.4301" id="Fill-48" fill="#191847" mask="url(#mask-8)"></path>
            <path d="M108.7795,133.3911 C105.2715,131.4051 104.6835,130.2751 102.4655,128.9941 C102.6445,129.3221 102.4655,130.1191 102.4655,130.4591 C102.4655,131.1931 101.7065,131.5591 98.6065,131.5591 C95.5075,131.5591 92.9945,130.7391 92.9945,129.7271 C92.9945,129.7221 92.9965,129.7181 92.9965,129.7141 L92.8445,129.7271 C92.8445,129.7461 92.8425,129.7671 92.8425,129.7871 C90.4985,131.2111 88.7605,131.9571 86.4585,134.1241 C84.6095,135.8631 83.6795,136.2121 83.5375,137.0561 C83.2905,138.5111 86.2815,140.9891 89.7925,140.7201 C87.5285,145.1811 84.6675,149.1431 83.6465,152.9341 C83.4925,153.5081 83.2915,154.6461 84.3605,154.6461 L107.7595,154.6461 C107.3845,150.9331 107.2155,147.5541 106.9375,144.4411 C111.5865,144.3851 113.0495,146.2091 112.9895,144.3851 C112.9535,143.3071 111.5985,134.9881 108.7795,133.3911" id="Fill-49" fill="#C8E9F1" mask="url(#mask-8)"></path>
        </g>
    </g>
</svg>