<?xml version="1.0" encoding="UTF-8"?>
<svg width="140px" height="70px" viewBox="0 0 140 70" version="1.1" xmlns="http://www.w3.org/2000/svg" xmlns:xlink="http://www.w3.org/1999/xlink">
    <!-- Generator: Sketch 52.6 (67491) - http://www.bohemiancoding.com/sketch -->
    <title>rp-cloud</title>
    <desc>Created with Sketch.</desc>
    <defs>
        <polygon id="path-1" points="0 0.000383561644 139.620147 0.000383561644 139.620147 70 0 70"></polygon>
    </defs>
    <g id="rp-cloud" stroke="none" stroke-width="1" fill="none" fill-rule="evenodd">
        <g id="Group-3">
            <mask id="mask-2" fill="white">
                <use xlink:href="#path-1"></use>
            </mask>
            <g id="Clip-2"></g>
            <path d="M139.620456,46.6692877 C139.620456,52.1331233 137.682074,56.7214795 134.832662,60.3413425 C129.895603,66.6250411 122.214132,70.0003836 117.120603,70.0003836 L10.06075,70.0003836 C4.81795588,70.0003836 0.31325,66.266411 0.01575,61.3913425 C-0.233367647,57.2977808 2.41119118,53.7440822 6.22207353,52.3469589 C7.09913235,52.0238082 7.48310294,51.0879178 7.14339706,50.2690137 C1.23251471,36.0244932 14.5767794,20.726137 31.0154559,23.6699726 C31.8770735,23.8224384 32.7273676,23.3573699 32.9836912,22.5768219 C37.2433971,9.50983562 50.2767794,0.000383561644 65.6963382,0.000383561644 C69.6420735,0.000383561644 73.4251618,0.621753425 76.9488382,1.76860274 C89.0331029,5.68764384 98.0281029,15.7503836 99.6247206,27.9399726 C115.885309,16.6680548 139.620456,27.3090137 139.620456,46.6692877" id="Fill-1" fill="#FFFFFF" mask="url(#mask-2)"></path>
        </g>
    </g>
</svg>