<?xml version="1.0" encoding="UTF-8"?>
<svg width="190px" height="88px" viewBox="0 0 190 88" version="1.1" xmlns="http://www.w3.org/2000/svg" xmlns:xlink="http://www.w3.org/1999/xlink">
    <!-- Generator: Sketch 52.6 (67491) - http://www.bohemiancoding.com/sketch -->
    <title>rp-pole-1</title>
    <desc>Created with Sketch.</desc>
    <defs>
        <polygon id="path-1" points="0 0.5023 194.3447 0.5023 194.3447 6.3893 0 6.3893"></polygon>
        <polygon id="path-3" points="0 87.1345 194.345 87.1345 194.345 0.0005 0 0.0005"></polygon>
    </defs>
    <g id="rp-pole-1" stroke="none" stroke-width="1" fill="none" fill-rule="evenodd">
        <g id="Group-11">
            <g id="Group-3" transform="translate(0.000000, 3.134500)">
                <mask id="mask-2" fill="white">
                    <use xlink:href="#path-1"></use>
                </mask>
                <g id="Clip-2"></g>
                <path d="M194.3447,6.3893 L2.5527,6.3893 C1.1427,6.3893 -0.0003,5.2463 -0.0003,3.8363 L-0.0003,3.0563 C-0.0003,1.6453 1.1427,0.5023 2.5527,0.5023 L194.3447,0.5023 L194.3447,6.3893 Z" id="Fill-1" fill="#FACD43" mask="url(#mask-2)"></path>
            </g>
            <path d="M159.6802,3.0267 L122.2492,3.0267 L122.2492,51.4497 C122.2492,53.5017 123.1802,55.1657 124.3282,55.1657 L157.6012,55.1657 C158.7492,55.1657 159.6802,53.5017 159.6802,51.4497 L159.6802,3.0267 Z" id="Fill-4" fill="#FFFFFF"></path>
            <mask id="mask-4" fill="white">
                <use xlink:href="#path-3"></use>
            </mask>
            <g id="Clip-7"></g>
            <polygon id="Fill-6" fill="#6C81FF" mask="url(#mask-4)" points="122.249 39.5705 159.68 39.5705 159.68 36.0835 122.249 36.0835"></polygon>
            <path d="M68.1553,22.2269 L87.0483,15.2549 L87.0483,11.6039 C84.3993,10.8309 82.7193,7.9169 83.1843,4.8969 C83.6483,1.8769 86.1013,-0.2411 88.8303,0.0219 C91.5573,0.2859 93.6513,2.8429 93.6473,5.9069 C93.6473,6.7219 93.0553,7.3829 92.3273,7.3829 C91.5983,7.3829 91.0073,6.7219 91.0073,5.9069 C91.0073,4.2749 89.8253,2.9529 88.3683,2.9529 C86.9103,2.9529 85.7283,4.2749 85.7283,5.9069 C85.7283,7.5379 86.9103,8.8599 88.3683,8.8599 C89.0963,8.8599 89.6873,9.5209 89.6873,10.3369 L89.6873,15.2549 L108.5803,22.2269 C109.2733,22.4849 109.6473,23.3229 109.4173,24.0969 C109.1873,24.8729 108.4383,25.2909 107.7463,25.0329 L88.3683,17.7989 L68.9893,25.0289 C68.2973,25.2869 67.5493,24.8669 67.3183,24.0929 C67.0883,23.3169 67.4633,22.4809 68.1553,22.2229 L68.1553,22.2269 Z" id="Fill-8" fill="#AC8168" mask="url(#mask-4)"></path>
            <path d="M52.7358,33.9671 L67.2528,22.1521 L80.4498,17.7211 C80.4498,22.6141 83.9948,28.0591 88.3678,28.0591 C92.7408,28.0591 96.2858,22.6141 96.2858,17.7211 L109.4838,22.1521 L123.9998,32.4901 L114.7618,48.7361 L109.4838,43.3641 L109.4838,87.1341 L67.2528,87.1341 L67.2528,43.9021 L61.9738,48.7361 L52.7358,33.9671 Z" id="Fill-9" fill="#7C7C7C" mask="url(#mask-4)"></path>
            <polygon id="Fill-10" fill="#FF931E" mask="url(#mask-4)" points="180 14.0755 193 14.0755 193 0.0755 180 0.0755"></polygon>
        </g>
    </g>
</svg>