<?xml version="1.0" encoding="UTF-8"?>
<svg width="200px" height="160px" viewBox="0 0 200 160" version="1.1" xmlns="http://www.w3.org/2000/svg" xmlns:xlink="http://www.w3.org/1999/xlink">
    <!-- Generator: Sketch 52.6 (67491) - http://www.bohemiancoding.com/sketch -->
    <title>rp-pole-4</title>
    <desc>Created with Sketch.</desc>
    <defs>
        <polygon id="path-1" points="0 159.077531 200 159.077531 200 0 0 0"></polygon>
    </defs>
    <g id="rp-pole-4" stroke="none" stroke-width="1" fill="none" fill-rule="evenodd">
        <g id="Group-14">
            <path d="M0,75.7706667 L22.7567839,75.7706667 C23.481407,75.7706667 24.0683417,76.3474568 24.0683417,77.0605432 L24.0683417,84.6941235 C24.0683417,85.4062222 23.481407,85.984 22.7567839,85.984 L0,85.984 L0,75.7706667 Z" id="Fill-1" fill="#738290"></path>
            <path d="M0,118.326617 L22.7567839,118.326617 C23.481407,118.326617 24.0683417,117.749827 24.0683417,117.036741 L24.0683417,109.40316 C24.0683417,108.691062 23.481407,108.113284 22.7567839,108.113284 L0,108.113284 L0,118.326617 Z" id="Fill-3" fill="#738290"></path>
            <mask id="mask-2" fill="white">
                <use xlink:href="#path-1"></use>
            </mask>
            <g id="Clip-6"></g>
            <polygon id="Fill-5" fill="#2E91A0" mask="url(#mask-2)" points="22.4512563 159.077531 200 159.077531 200 39.0696296 22.4512563 39.0696296"></polygon>
            <polygon id="Stroke-7" stroke="#FFFFFF" stroke-width="4.309" mask="url(#mask-2)" points="35.2050251 144.396049 187.246231 144.396049 187.246231 53.7520988 35.2050251 53.7520988"></polygon>
            <path d="M105.993869,75.4374321 L81.7154774,75.4374321 L81.4652261,91.2053333 C82.5838191,90.6552099 83.8300503,90.2848395 85.2029146,90.0902716 C86.5747739,89.8986667 87.8772864,89.8018765 89.1074372,89.8018765 C91.9657286,89.8018765 94.5546734,90.2848395 96.8792965,91.2468148 C99.2029146,92.2097778 101.20593,93.5579259 102.885327,95.2922469 C104.565729,97.0245926 105.854171,99.0621235 106.750653,101.400889 C107.647136,103.740642 108.095377,106.285827 108.095377,109.037432 C108.095377,111.954963 107.575779,114.609778 106.541608,117.003852 C105.503417,119.397926 104.075276,121.434469 102.255176,123.112494 C100.43608,124.791506 98.2782915,126.098173 95.7878392,127.034469 C93.2943719,127.96879 90.5918593,128.436938 87.6813065,128.436938 C83.1446231,128.436938 79.4903518,127.473975 76.7184925,125.548049 C73.9456281,123.622123 71.7466332,121.035457 70.1235176,117.788049 L77.180804,115.146074 C78.1878392,117.348543 79.658191,119.12237 81.5908543,120.470519 C83.5235176,121.819654 85.7486432,122.494222 88.2692462,122.494222 C90.060201,122.494222 91.7265327,122.177185 93.2672362,121.544099 C94.8069347,120.912 96.1506533,120.004346 97.299397,118.820148 C98.4461307,117.636938 99.3576884,116.219654 100.03005,114.568296 C100.701407,112.916938 101.037085,111.073975 101.037085,109.037432 C101.037085,106.890272 100.659196,104.992 99.9034171,103.340642 C99.1476382,101.690272 98.1104523,100.300642 96.7958794,99.1717531 C95.4792965,98.0448395 93.9255276,97.1905185 92.1335678,96.6127407 C90.341608,96.034963 88.4089447,95.7455802 86.3365829,95.7455802 C84.3205025,95.7455802 82.2481407,96.0902716 80.1205025,96.777679 C77.9928643,97.4660741 76.0320603,98.3332346 74.2401005,99.3781728 L74.8280402,68.9979259 L105.993869,68.9979259 L105.993869,75.4374321 Z" id="Fill-8" fill="#FFFDF6" mask="url(#mask-2)"></path>
            <path d="M117.083417,119.521679 L139.512563,98.0579753 C140.912563,96.7364938 142.145729,95.5118025 143.21005,94.3839012 C144.273367,93.256 145.154774,92.1547654 145.855276,91.0821728 C146.554774,90.0085926 147.074372,88.8935309 147.41005,87.7379753 C147.745729,86.5824198 147.913568,85.2895802 147.913568,83.8574815 C147.913568,82.3177284 147.632161,80.9409383 147.074372,79.7300741 C146.513568,78.5201975 145.742714,77.4880988 144.763819,76.6347654 C143.78191,75.7814321 142.634171,75.1206914 141.319598,74.6535309 C140.00402,74.1863704 138.588945,73.9513086 137.077387,73.9513086 C134.053266,73.9513086 131.559799,74.8056296 129.6,76.5113086 C127.639196,78.2169877 126.378894,80.4737778 125.819095,83.2797037 L118.175879,82.618963 C118.566834,80.2545185 119.309548,78.1488395 120.401005,76.3039012 C121.493467,74.4609383 122.865327,72.9340247 124.518593,71.7221728 C126.168844,70.5122963 128.032161,69.5898272 130.104523,68.9567407 C132.175879,68.324642 134.415075,68.0076049 136.825126,68.0076049 C139.289447,68.0076049 141.613065,68.3513086 143.79799,69.0397037 C145.98191,69.7280988 147.899497,70.7325432 149.551759,72.0520494 C151.20402,73.3735309 152.519598,75.0239012 153.500503,77.0061235 C154.479397,78.9863704 154.970854,81.2718025 154.970854,83.8574815 C154.970854,86.1695802 154.647236,88.2614321 154.00402,90.1320494 C153.359799,92.0036543 152.492462,93.7231605 151.4,95.2915556 C150.308543,96.8609383 149.075377,98.3463704 147.703518,99.7498272 C146.331658,101.153284 144.889447,102.543901 143.377889,103.918716 L125.063317,120.842173 L125.063317,121.007111 L155.38995,121.007111 L155.38995,127.446617 L117.083417,127.446617 L117.083417,119.521679 Z" id="Fill-9" fill="#FFFDF6" mask="url(#mask-2)"></path>
            <path d="M88.2658291,12.4031605 C91.8326633,11.4797037 92.4738693,11.2890864 92.5442211,10.9601975 C92.5592965,10.8861235 92.5482412,10.7755062 92.4075377,10.6658765 C92.1291457,10.4495802 91.8497487,10.2945185 91.579397,10.1434074 C91.0226131,9.8342716 90.5422111,9.56661728 90.1974874,8.86933333 C90.0326633,8.54044444 89.9020101,7.98241975 89.7482412,7.33550617 C89.2658291,5.28908642 88.5351759,2.19674074 85.658794,0.734024691 C85.180402,0.490074074 84.6819095,0.304395062 84.1753769,0.181925926 C82.3,-0.272395062 80.3874372,0.124641975 78.6417085,1.3305679 C76.6949749,2.67575309 75.0829146,4.91575309 73.8527638,7.99032099 C72.3070352,11.8490864 64.5040201,17.9656296 59.8417085,21.6209383 C58.259799,22.8614321 57.0095477,23.8411852 56.4919598,24.3527901 C54.580402,26.2411852 51.2899497,28.5355062 48.6447236,30.3804444 C45.5954774,32.5068642 43.9994975,33.6426667 43.9150754,34.1918025 C43.8979899,34.2994568 43.9351759,34.3755062 43.9693467,34.418963 C44.0165829,34.4792099 44.0889447,34.521679 44.180402,34.5434074 C44.9371859,34.7271111 47.9201005,33.5162469 50.7110553,32.281679 C48.7070352,33.5399506 46.1100503,35.2792099 43.5743719,36.9779753 C42.7894472,37.5043951 42.0165829,38.0209383 41.2819095,38.5108148 C38.9964824,40.0337778 37.6005025,41.4550123 37.7231156,42.1325432 C37.7542714,42.3034074 37.8758794,42.4229136 38.0648241,42.4693333 C38.5753769,42.5927901 39.5040201,42.1750123 40.1944724,41.8036543 C41.4407035,41.1310617 42.1241206,40.9335309 42.3562814,40.9720494 C42.338191,41.0411852 42.2316583,41.2258765 41.8668342,41.5468642 C41.0427136,42.2698272 40.6145729,42.950321 40.7190955,43.3651358 C40.7613065,43.5300741 40.8819095,43.6436543 41.059799,43.6871111 C41.4346734,43.7779753 42.0628141,43.5468642 42.8276382,43.0372346 C44.8909548,41.6634074 51.6758794,37.9676049 54.938191,36.1918025 C55.8417085,35.6999506 56.4487437,35.3680988 56.6005025,35.2801975 C56.6386935,35.2762469 56.7653266,35.2811852 57.179397,35.3819259 C57.498995,35.458963 57.9351759,35.5725432 58.4366834,35.7098272 C59.2065327,35.9192099 60.1653266,36.1720494 61.2547739,36.4357531 C61.7703518,36.5611852 62.2738693,36.6757531 62.7703518,36.7824198 C62.6768844,37.2495802 62.498995,37.7997037 62.3030151,37.8806914 C62.2839196,37.8885926 62.258794,37.8964938 62.2256281,37.9083457 C62.0055276,37.9814321 61.4889447,38.1542716 60.6165829,38.7488395 C60.2658291,38.9878519 59.860804,39.3305679 59.9140704,39.6110617 C59.9321608,39.7118025 60.0075377,39.7878519 60.1150754,39.8135309 C60.2457286,39.8461235 60.421608,39.804642 60.6105528,39.698963 C61.9914573,38.9325432 63.581407,38.6856296 64.9723618,39.0234074 C65.1824121,39.0737778 65.3894472,39.138963 65.5864322,39.216 C66.4899497,39.5685926 66.6396985,39.6801975 66.9120603,39.8826667 C67.0366834,39.9745185 67.1904523,40.0900741 67.4497487,40.2520494 C67.5663317,40.3241481 67.6969849,40.2856296 67.7482412,40.176 C67.8698492,39.9113086 67.4819095,39.0056296 67.0517588,38.7093333 C66.660804,38.438716 66.1954774,38.2372346 65.6688442,38.1098272 C65.1211055,37.9764938 64.6135678,37.9478519 64.2437186,37.9261235 C64.0738693,37.9162469 63.9261307,37.907358 63.8376884,37.8915556 C63.8738693,37.6910617 63.9763819,37.3127901 64.0527638,37.0411852 C66.1311558,37.4322963 68.0246231,37.6495802 69.741206,37.6890864 C70.7211055,38.6471111 71.618593,39.5478519 71.6979899,39.6900741 C71.7321608,39.7700741 71.5683417,40.0634074 71.4497487,40.2777284 C71.3030151,40.5424198 71.1351759,40.8436543 71.0296482,41.1755062 C70.8889447,41.6219259 70.9522613,42.0495802 71.0718593,42.2569877 C71.1251256,42.3498272 71.1914573,42.4061235 71.2708543,42.4258765 C71.3241206,42.438716 71.5090452,42.4594568 71.6015075,42.1690864 C71.7351759,41.7414321 72.7090452,40.5226667 73.3140704,40.1927901 C74.3,39.6555062 75.0115578,39.7552593 76.0457286,40.0476049 C76.8809045,40.281679 77.4658291,40.6490864 77.7462312,40.8248889 C77.8668342,40.8999506 77.9231156,40.9355062 77.9733668,40.947358 C78.0356784,40.9621728 78.0969849,40.9463704 78.139196,40.9029136 L78.2025126,40.8239012 L78.1763819,40.7379753 C78.1160804,40.5355062 77.7150754,39.6841481 76.8537688,39.2110617 C76.3572864,38.9374815 75.8788945,38.7439012 75.4316583,38.6352593 C74.5713568,38.4268642 73.9854271,38.5601975 73.5572864,38.6579753 C73.3221106,38.7122963 73.1482412,38.7557531 73.0316583,38.7024198 C72.8628141,38.6263704 72.378392,38.198716 71.7934673,37.6476049 C74.0457286,37.4945185 75.9422111,36.978963 77.5070352,36.0979753 C85.4296482,31.6357531 86.9663317,24.1937778 86.861809,18.7280988 C86.8336683,17.238716 86.5974874,16.1078519 86.4246231,15.2811852 C86.058794,13.5310617 85.9492462,13.0026667 88.2658291,12.4031605 Z" id="Fill-10" fill="#738290" mask="url(#mask-2)"></path>
            <path d="M86.5843216,26.1035062 C85.7913568,34.4393086 74.2918593,38.8798025 71.9712563,36.8738765 C68.8998995,34.2200494 77.5682412,16.5291852 82.678794,17.1899259 C85.2245226,17.5198025 86.9360804,22.4086914 86.5843216,26.1035062" id="Fill-11" fill="#FFFDF6" mask="url(#mask-2)"></path>
            <path d="M85.921809,5.49916049 C85.921809,5.98706173 85.519799,6.38212346 85.0233166,6.38212346 C84.5268342,6.38212346 84.1248241,5.98706173 84.1248241,5.49916049 C84.1248241,5.01125926 84.5268342,4.61619753 85.0233166,4.61619753 C85.519799,4.61619753 85.921809,5.01125926 85.921809,5.49916049" id="Fill-12" fill="#000000" mask="url(#mask-2)"></path>
            <path d="M89.4619095,9.51397531 C88.7533668,9.8665679 88.1523618,10.7801481 88.3573869,11.380642 C88.6136683,12.126321 90.0588945,12.2231111 91.0367839,11.889284 C91.1051256,11.8655802 92.4689447,11.3865679 92.4558794,10.7011358 C92.441809,9.93669136 90.7091457,8.89274074 89.4619095,9.51397531" id="Fill-13" fill="#FDE14C" mask="url(#mask-2)"></path>
        </g>
    </g>
</svg>