<?xml version="1.0" encoding="UTF-8"?>
<svg width="190px" height="104px" viewBox="0 0 190 104" version="1.1" xmlns="http://www.w3.org/2000/svg" xmlns:xlink="http://www.w3.org/1999/xlink">
    <!-- Generator: Sketch 52.6 (67491) - http://www.bohemiancoding.com/sketch -->
    <title>rp-pole-2</title>
    <desc>Created with Sketch.</desc>
    <defs>
        <polygon id="path-1" points="0 0.633 194.3447 0.633 194.3447 6.52 0 6.52"></polygon>
        <polygon id="path-3" points="0 103.928 194.345 103.928 194.345 0 0 0"></polygon>
    </defs>
    <g id="rp-pole-2" stroke="none" stroke-width="1" fill="none" fill-rule="evenodd">
        <g id="Group-14">
            <g id="Group-3" transform="translate(0.000000, 35.928000)">
                <mask id="mask-2" fill="white">
                    <use xlink:href="#path-1"></use>
                </mask>
                <g id="Clip-2"></g>
                <path d="M194.3447,6.52 L2.5527,6.52 C1.1427,6.52 -0.0003,5.377 -0.0003,3.967 L-0.0003,3.186 C-0.0003,1.777 1.1427,0.633 2.5527,0.633 L194.3447,0.633 L194.3447,6.52 Z" id="Fill-1" fill="#FACD43" mask="url(#mask-2)"></path>
            </g>
            <mask id="mask-4" fill="white">
                <use xlink:href="#path-3"></use>
            </mask>
            <g id="Clip-5"></g>
            <polygon id="Fill-4" fill="#FF931E" mask="url(#mask-4)" points="180 47 193 47 193 33 180 33"></polygon>
            <path d="M166,62.2508 L161.846,64.5768 L166,66.4048 L166,74.7128 L161.846,76.9968 L166,78.8658 L166,87.1748 L161.846,89.9568 L166,91.3278 L166,101.8518 C166,103.0138 165.086,103.9278 163.923,103.9278 L114.077,103.9278 C112.914,103.9278 112,103.0138 112,101.8518 L112,91.3278 L116.154,89.9568 L112,87.1748 L112,78.8658 L116.154,76.9968 L112,74.7128 L112,66.4048 L116.154,64.4518 L112,62.2508 L112,56.0208 C112,54.8568 112.914,53.9428 114.077,53.9428 C117.525,53.9428 120.308,51.1598 120.308,47.7128 L120.308,35.1128 C120.308,33.9488 121.221,33.0358 122.385,33.0358 L126.539,33.0358 C127.702,33.0358 128.615,33.9488 128.615,35.1128 C128.615,40.8448 133.268,45.6358 139,45.6358 C144.732,45.6358 149.385,40.8448 149.385,35.1128 C149.385,33.9488 150.298,33.0358 151.461,33.0358 L155.615,33.0358 C156.779,33.0358 157.692,33.9488 157.692,35.1128 L157.692,47.7128 C157.692,51.1598 160.475,53.9428 163.923,53.9428 C165.086,53.9428 166,54.8568 166,56.0208 L166,62.2508 Z" id="Fill-6" fill="#FFFDF6" mask="url(#mask-4)"></path>
            <polygon id="Fill-7" fill="#FDE14C" mask="url(#mask-4)" points="112 91.328 166 91.328 166 87.175 112 87.175"></polygon>
            <polygon id="Fill-8" fill="#FDE14C" mask="url(#mask-4)" points="112 78.866 166 78.866 166 74.713 112 74.713"></polygon>
            <polygon id="Fill-9" fill="#FDE14C" mask="url(#mask-4)" points="112 66.405 166 66.405 166 62.251 112 62.251"></polygon>
            <path d="M108.8245,12.558 C112.3735,11.624 113.0115,11.43 113.0815,11.097 C113.0965,11.022 113.0855,10.91 112.9455,10.799 C112.6695,10.581 112.3905,10.423 112.1205,10.27 C111.5675,9.957 111.0895,9.686 110.7455,8.981 C110.5825,8.647 110.4525,8.082 110.3005,7.428 C109.8195,5.356 109.0925,2.225 106.2305,0.743 C105.7545,0.497 105.2585,0.309 104.7555,0.185 C102.8895,-0.276 100.9845,0.127 99.2495,1.346 C97.3115,2.709 95.7085,4.978 94.4825,8.091 C92.9455,11.997 85.1815,18.19 80.5435,21.891 C78.9685,23.147 77.7245,24.139 77.2095,24.657 C75.3075,26.569 72.0335,28.893 69.4015,30.761 C66.3665,32.914 64.7795,34.063 64.6955,34.619 C64.6785,34.729 64.7155,34.805 64.7495,34.849 C64.7965,34.911 64.8675,34.953 64.9605,34.976 C65.7125,35.162 68.6815,33.935 71.4575,32.685 C69.4635,33.959 66.8805,35.72 64.3565,37.441 C63.5745,37.973 62.8065,38.497 62.0755,38.993 C59.8015,40.535 58.4115,41.973 58.5345,42.659 C58.5655,42.833 58.6865,42.954 58.8745,43.001 C59.3825,43.126 60.3065,42.703 60.9925,42.326 C62.2335,41.645 62.9135,41.445 63.1445,41.485 C63.1265,41.554 63.0205,41.742 62.6575,42.066 C61.8375,42.799 61.4115,43.487 61.5165,43.908 C61.5575,44.074 61.6775,44.19 61.8545,44.233 C62.2275,44.325 62.8525,44.092 63.6135,43.576 C65.6665,42.184 72.4185,38.443 75.6635,36.645 C76.5625,36.146 77.1665,35.81 77.3175,35.722 C77.3555,35.718 77.4815,35.722 77.8935,35.824 C78.2125,35.902 78.6445,36.017 79.1445,36.157 C79.9105,36.369 80.8645,36.624 81.9485,36.891 C82.4615,37.018 82.9635,37.135 83.4565,37.242 C83.3635,37.715 83.1865,38.272 82.9915,38.355 C82.9735,38.362 82.9475,38.371 82.9145,38.383 C82.6955,38.457 82.1815,38.632 81.3135,39.234 C80.9655,39.475 80.5615,39.823 80.6135,40.106 C80.6325,40.209 80.7075,40.286 80.8145,40.312 C80.9435,40.344 81.1195,40.303 81.3085,40.196 C82.6815,39.42 84.2635,39.17 85.6465,39.511 C85.8565,39.562 86.0625,39.629 86.2595,39.707 C87.1575,40.063 87.3065,40.176 87.5775,40.381 C87.7005,40.474 87.8545,40.592 88.1125,40.755 C88.2285,40.828 88.3575,40.79 88.4085,40.679 C88.5305,40.411 88.1445,39.493 87.7175,39.194 C87.3275,38.92 86.8635,38.716 86.3415,38.587 C85.7955,38.452 85.2905,38.422 84.9225,38.4 C84.7545,38.39 84.6065,38.382 84.5185,38.365 C84.5545,38.163 84.6555,37.779 84.7315,37.504 C86.8005,37.901 88.6855,38.121 90.3925,38.161 C91.3665,39.131 92.2615,40.043 92.3395,40.186 C92.3735,40.267 92.2115,40.564 92.0925,40.781 C91.9455,41.05 91.7795,41.354 91.6755,41.69 C91.5345,42.142 91.5975,42.575 91.7165,42.785 C91.7695,42.88 91.8355,42.937 91.9145,42.956 C91.9675,42.97 92.1515,42.99 92.2425,42.696 C92.3775,42.263 93.3455,41.029 93.9475,40.695 C94.9295,40.151 95.6365,40.253 96.6655,40.548 C97.4965,40.786 98.0775,41.157 98.3575,41.336 C98.4775,41.412 98.5325,41.447 98.5835,41.46 C98.6455,41.475 98.7065,41.458 98.7485,41.415 L98.8105,41.335 L98.7855,41.248 C98.7255,41.043 98.3255,40.18 97.4695,39.701 C96.9765,39.425 96.4995,39.228 96.0555,39.119 C95.1985,38.907 94.6155,39.043 94.1895,39.141 C93.9555,39.196 93.7825,39.24 93.6665,39.186 C93.4995,39.109 93.0175,38.677 92.4355,38.119 C94.6765,37.964 96.5625,37.441 98.1195,36.55 C106.0025,32.032 107.5315,24.496 107.4275,18.962 C107.3995,17.455 107.1645,16.309 106.9925,15.473 C106.6285,13.701 106.5195,13.166 108.8245,12.558 Z" id="Fill-10" fill="#738290" mask="url(#mask-4)"></path>
            <path d="M107.1514,26.4295 C106.3614,34.8705 94.9204,39.3655 92.6114,37.3345 C89.5564,34.6475 98.1804,16.7355 103.2654,17.4055 C105.7984,17.7395 107.5014,22.6885 107.1514,26.4295" id="Fill-11" fill="#FFFDF6" mask="url(#mask-4)"></path>
            <path d="M106.4922,5.5682 C106.4922,6.0612 106.0922,6.4622 105.5982,6.4622 C105.1042,6.4622 104.7042,6.0612 104.7042,5.5682 C104.7042,5.0742 105.1042,4.6742 105.5982,4.6742 C106.0922,4.6742 106.4922,5.0742 106.4922,5.5682" id="Fill-12" fill="#000000" mask="url(#mask-4)"></path>
            <path d="M110.0142,9.6326 C109.3102,9.9896 108.7122,10.9146 108.9162,11.5226 C109.1712,12.2786 110.6082,12.3766 111.5822,12.0376 C111.6502,12.0146 113.0062,11.5286 112.9932,10.8356 C112.9792,10.0616 111.2562,9.0036 110.0142,9.6326" id="Fill-13" fill="#FDE14C" mask="url(#mask-4)"></path>
        </g>
    </g>
</svg>