<?xml version="1.0" encoding="UTF-8"?>
<svg width="190px" height="57px" viewBox="0 0 190 57" version="1.1" xmlns="http://www.w3.org/2000/svg" xmlns:xlink="http://www.w3.org/1999/xlink">
    <!-- Generator: Sketch 52.6 (67491) - http://www.bohemiancoding.com/sketch -->
    <title>rp-pole-3</title>
    <desc>Created with Sketch.</desc>
    <defs>
        <polygon id="path-1" points="0 0.0344 194.3447 0.0344 194.3447 5.9214 0 5.9214"></polygon>
        <polygon id="path-3" points="0 56.3507 194.345 56.3507 194.345 -0.0003 0 -0.0003"></polygon>
    </defs>
    <g id="rp-pole-3" stroke="none" stroke-width="1" fill="none" fill-rule="evenodd">
        <g id="Group-12">
            <g id="Group-3" transform="translate(0.000000, 4.350700)">
                <mask id="mask-2" fill="white">
                    <use xlink:href="#path-1"></use>
                </mask>
                <g id="Clip-2"></g>
                <path d="M194.3447,5.9214 L2.5527,5.9214 C1.1427,5.9214 -0.0003,4.7784 -0.0003,3.3684 L-0.0003,2.5874 C-0.0003,1.1784 1.1427,0.0344 2.5527,0.0344 L194.3447,0.0344 L194.3447,5.9214 Z" id="Fill-1" fill="#FACD43" mask="url(#mask-2)"></path>
            </g>
            <mask id="mask-4" fill="white">
                <use xlink:href="#path-3"></use>
            </mask>
            <g id="Clip-5"></g>
            <polygon id="Fill-4" fill="#FF931E" mask="url(#mask-4)" points="180 14.8237 193 14.8237 193 0.8237 180 0.8237"></polygon>
            <path d="M52.2188,8.1207 C51.0758,8.4987 49.8198,8.7057 48.5008,8.7057 C47.1808,8.7057 45.9248,8.4987 44.7818,8.1207 L40.6368,32.2357 L44.7818,56.2987 C45.9608,56.3317 47.2008,56.3507 48.5008,56.3507 C49.7998,56.3507 51.0398,56.3317 52.2188,56.2987 L57.6028,32.2097 L52.2188,8.1207 Z" id="Fill-6" fill="#2E91A0" mask="url(#mask-4)"></path>
            <path d="M66.1719,54.9899 C63.4219,55.4819 58.7349,56.1159 52.2189,56.2989 L52.2189,8.1209 C55.1219,7.1619 57.3039,5.1169 57.9489,2.6289 C58.1839,1.7229 59.0219,1.1099 59.9519,1.1949 C61.8219,1.3659 64.9789,1.8289 68.6559,3.0819 L68.0749,25.5479 C66.3579,33.4919 68.5299,42.7419 68.9879,51.4519 C69.0779,53.1709 67.8669,54.6879 66.1719,54.9899" id="Fill-7" fill="#2E91A0" mask="url(#mask-4)"></path>
            <path d="M44.7817,8.1207 L44.7817,56.2987 C38.2657,56.1157 33.5797,55.4817 30.8287,54.9897 C29.1337,54.6877 27.9227,53.1707 28.0127,51.4517 C28.4707,42.7417 30.6427,33.4917 28.9257,25.5487 L28.3447,3.0817 C32.0217,1.8287 35.1787,1.3657 37.0477,1.1947 C37.9787,1.1097 38.8167,1.7237 39.0517,2.6287 C39.6967,5.1167 41.8787,7.1617 44.7817,8.1207" id="Fill-8" fill="#2E91A0" mask="url(#mask-4)"></path>
            <path d="M28.9253,25.5485 C23.2703,24.6185 25.1293,22.4885 25.1293,20.3975 C25.1293,18.3055 21.6813,17.9565 21.6813,15.5555 C21.6813,13.1525 22.2243,13.1145 22.2243,11.6045 C22.2243,10.0935 19.7843,9.6285 20.0163,6.5295 C20.2483,3.4305 28.3443,3.0815 28.3443,3.0815 C28.3443,3.0815 32.5033,17.1895 28.9253,25.5485" id="Fill-9" fill="#2E91A0" mask="url(#mask-4)"></path>
            <path d="M68.0752,25.5485 C73.7302,24.6185 71.8712,22.4885 71.8712,20.3975 C71.8712,18.3055 75.3192,17.9565 75.3192,15.5555 C75.3192,13.1525 74.7762,13.1145 74.7762,11.6045 C74.7762,10.0935 77.2172,9.6285 76.9842,6.5295 C76.7522,3.4305 68.6562,3.0815 68.6562,3.0815 C68.6562,3.0815 64.4982,17.1895 68.0752,25.5485" id="Fill-10" fill="#2E91A0" mask="url(#mask-4)"></path>
            <path d="M131.4741,33.5172 C136.4061,18.4962 132.5951,19.0562 132.5951,11.4342 L132.5951,2.0692 C132.5951,0.9262 131.6681,-0.0008 130.5251,-0.0008 L125.8691,-0.0008 L125.8691,6.3332 C125.8691,12.0602 121.2271,16.7022 115.5001,16.7022 C109.7731,16.7022 105.1311,12.0602 105.1311,6.3332 L105.1311,-0.0008 L100.4751,-0.0008 C99.3321,-0.0008 98.4061,0.9262 98.4061,2.0692 L98.4061,11.4342 C98.4061,19.0562 94.5941,18.4962 99.5271,33.5172 C101.3491,39.7342 97.3761,40.0052 97.0251,53.8412 C96.9971,54.9282 97.8741,55.8242 98.9611,55.8242 L132.0381,55.8242 C133.1261,55.8242 134.0031,54.9282 133.9751,53.8412 C133.6251,40.0052 129.6521,39.7352 131.4741,33.5172" id="Fill-11" fill="#DD7045" mask="url(#mask-4)"></path>
        </g>
    </g>
</svg>