<?xml version="1.0" encoding="UTF-8"?>
<svg width="850px" height="600px" viewBox="0 0 850 600" version="1.1" xmlns="http://www.w3.org/2000/svg" xmlns:xlink="http://www.w3.org/1999/xlink">
    <!-- Generator: Sketch 52.6 (67491) - http://www.bohemiancoding.com/sketch -->
    <title>Artboard</title>
    <desc>Created with Sketch.</desc>
    <defs>
        <polygon id="path-1" points="4.50635481e-05 0 839.999621 0 839.999621 1130 4.50635481e-05 1130"></polygon>
        <polygon id="path-3" points="0 1130 840 1130 840 0 0 0"></polygon>
    </defs>
    <g id="Artboard" stroke="none" stroke-width="1" fill="none" fill-rule="evenodd">
        <g id="Group-554" transform="translate(5.000000, 35.000000)">
            <g id="Group-3">
                <mask id="mask-2" fill="white">
                    <use xlink:href="#path-1"></use>
                </mask>
                <g id="Clip-2"></g>
                <path d="M94.5117,121.5605 C64.6397,139.5285 49.5067,148.7325 39.8367,159.5025 C-11.8033,217.0205 0.0537,304.6925 4.0497,334.2355 C11.8767,392.1105 34.8957,435.4565 43.8137,451.0555 C80.7997,515.7555 65.2797,609.4275 51.7657,676.7105 C45.9817,705.5125 42.8657,864.7605 44.8077,897.3725 C49.8647,982.3335 133.9297,1038.9485 161.1157,1060.1225 C267.5737,1143.0415 395.3947,1133.9455 548.8127,1123.0275 C642.2727,1116.3755 689.9557,1112.3905 736.6957,1080.0925 C845.3877,1004.9835 838.1157,839.3715 839.0867,822.4875 C844.9297,720.9155 822.4927,631.3775 778.4477,513.9595 C765.9087,480.5355 740.7627,413.9645 751.6077,354.2045 C755.3097,333.8005 769.8557,316.7505 785.4067,281.3165 C805.3197,235.9415 818.2137,226.5705 819.2047,202.4365 C820.9217,160.6635 784.7997,127.5225 768.5067,112.5745 C655.1447,8.5705 380.0737,-37.4575 237.6607,35.6925 C234.9827,37.0685 188.1577,65.2325 94.5117,121.5605" id="Fill-1" fill="#6DC6AB" mask="url(#mask-2)"></path>
            </g>
            <path d="M62.5342,945.5752 C59.6312,948.8482 59.2832,953.6662 61.6782,957.3312 L77.6122,983.2412 C81.1062,988.3462 89.3362,1000.7742 93.5172,996.2212 C154.3032,930.0382 537.2892,507.5882 537.8772,506.9712 L791.6022,206.3642 C791.7092,206.2382 791.8182,206.1152 791.9302,205.9952 C792.8662,204.9952 797.4502,200.0652 801.9192,195.1742 C806.5412,190.1122 804.5952,181.9602 798.1902,179.5522 L795.7242,178.6242 C794.7812,178.2692 793.9002,177.7742 793.1172,177.1382 C790.5052,175.0172 775.2352,174.7512 773.4772,176.4762 L495.1312,478.0142 C493.3972,479.7172 110.0582,891.9992 62.5342,945.5752" id="Fill-4" fill="#EAEAEA"></path>
            <path d="M818.2109,179.4717 C815.7089,167.8947 802.8939,170.5897 771.9149,167.9297 L90.0399,125.4667 C88.9329,125.3957 85.4769,125.9107 84.5709,126.5527 L48.7839,149.5177 C45.0479,152.1667 38.2449,157.2557 42.8189,157.5057 L781.6999,202.5197 C784.1519,202.6537 819.7829,203.8577 820.1989,201.4387" id="Fill-6" fill="#EAEAEA"></path>
            <path d="M281.0342,63.9053 L17.9672,390.1493 C13.9902,398.1363 34.8662,436.0793 34.8662,436.0793 C39.2292,443.5923 39.6042,446.0263 44.8072,439.0743 L328.8702,58.9173 L281.0342,63.9053 Z" id="Fill-8" fill="#EAEAEA"></path>
            <path d="M730.4844,343.541 L30.8384,300.126 C19.1364,299.524 -0.3106,295.075 0.0734,305.279 L1.0674,326.247 C1.4054,335.237 2.0614,339.228 4.0494,348.214 L749.6194,385.157 C749.6194,375.172 753.4844,353.089 752.6014,344.22 L755.2094,345.315 C735.7824,343.541 734.0164,343.541 730.4844,343.541" id="Fill-10" fill="#EAEAEA"></path>
            <path d="M644.9189,390.4639 C641.8659,386.3429 637.3089,381.5229 637.5099,376.0829 C637.6279,372.9419 638.6259,369.7829 638.5689,366.6909 C638.5079,363.5349 636.4679,360.6419 636.1909,357.4449 C635.9179,354.2789 636.5529,349.3919 638.1899,346.4999 C639.8299,343.6079 643.3569,342.2049 645.6329,339.7799 C650.1789,334.9389 652.4279,327.7889 657.6839,324.3149 C663.3819,320.5499 666.8379,317.5269 671.2859,323.6069 C675.2179,328.9759 680.9079,332.6649 685.5849,337.3259 C690.9099,342.6359 691.6039,346.0919 692.3479,353.0159 C693.5279,364.0699 699.3479,378.3429 688.3979,386.4479 C682.9289,390.4999 676.9699,394.0759 671.1769,397.6439 C668.8859,399.0519 667.6039,400.6429 664.9349,400.6939 C662.5349,400.7429 659.6829,399.7309 657.4359,398.9639 C652.6259,397.3179 647.9939,394.6159 644.9189,390.4639" id="Fill-12" fill="#B5D783"></path>
            <path d="M668.5391,374.6328 C668.4951,380.3578 668.6131,388.0508 668.6241,393.7278 C668.6351,399.1388 669.2261,404.8028 669.5711,410.1598 C669.7391,412.7378 670.1331,415.2708 670.3011,417.8438 C670.4411,420.0668 670.3301,422.2908 670.9861,424.3058 C671.6401,426.3108 672.6421,428.0828 673.2881,430.1118 C673.3371,430.2748 670.0461,429.0318 667.2331,429.3818 C665.9711,429.5388 660.8561,429.9108 660.8561,429.9108 C660.8561,429.9108 662.7241,424.2098 663.1661,422.6848 C663.9221,420.0708 664.3951,417.4538 664.4751,414.5648 C664.6441,408.3358 665.1381,403.0598 665.2311,396.8338 C665.2841,393.2028 665.5291,389.0168 665.5611,385.3878 C665.5931,382.0468 665.7691,378.5188 665.7691,378.5188 C665.7691,378.5188 667.3331,375.6578 668.5391,374.6328" id="Fill-14" fill="#B27B5F"></path>
            <path d="M653.8516,388.2725 C653.8516,388.2725 655.7286,391.3035 655.9086,391.5555 C656.6816,392.6355 657.5686,393.6375 658.2326,394.7945 C658.8326,395.8425 659.2596,396.9475 660.1316,397.8145 C661.9046,399.5745 663.1656,401.1035 664.4336,403.3345 C665.0286,404.3815 665.3886,405.7705 666.2726,406.6265 C667.0006,407.3315 668.6186,407.4645 668.4146,405.9885 C668.0906,403.6495 666.1166,401.7675 664.7056,399.9255 C663.0756,397.7995 661.0036,395.9085 659.5316,393.6765 C658.5566,392.2025 657.2906,390.9565 656.0626,389.7035 C655.8076,389.4395 653.8516,388.2725 653.8516,388.2725" id="Fill-16" fill="#B27B5F"></path>
            <path d="M677.7461,379.5176 C677.0671,381.0876 676.3801,382.6586 675.6541,384.2146 C674.5281,386.6336 672.4031,388.4436 671.3251,390.8566 C670.6851,392.2846 669.1381,396.1396 667.3991,396.6096 C666.2101,396.9306 665.5481,396.4516 665.8661,395.2186 C666.4571,392.9306 668.5671,390.9716 669.8231,388.9326 C671.0751,386.9016 672.8391,385.3126 674.1781,383.3836 C675.3091,381.7556 675.9351,380.6786 677.7461,379.5176" id="Fill-18" fill="#B27B5F"></path>
            <path d="M93.083,197.3516 C90.883,194.3816 87.6,190.9086 87.744,186.9886 C87.829,184.7246 88.548,182.4496 88.508,180.2196 C88.464,177.9466 86.993,175.8616 86.794,173.5576 C86.598,171.2766 87.055,167.7546 88.235,165.6706 C89.416,163.5866 91.958,162.5766 93.598,160.8296 C96.874,157.3386 98.494,152.1876 102.281,149.6836 C106.388,146.9706 108.878,144.7926 112.084,149.1736 C114.916,153.0426 119.017,155.7026 122.387,159.0606 C126.225,162.8866 126.724,165.3766 127.26,170.3666 C128.111,178.3316 132.305,188.6166 124.414,194.4576 C120.474,197.3766 116.179,199.9546 112.005,202.5256 C110.354,203.5396 109.43,204.6856 107.507,204.7236 C105.777,204.7586 103.722,204.0286 102.103,203.4766 C98.637,202.2896 95.299,200.3426 93.083,197.3516" id="Fill-20" fill="#B5D783"></path>
            <path d="M110.1045,185.9434 C110.0725,190.0684 110.1575,195.6124 110.1655,199.7034 C110.1725,203.6024 110.5985,207.6834 110.8475,211.5444 C110.9685,213.4024 111.2515,215.2274 111.3735,217.0814 C111.4745,218.6824 111.3945,220.2864 111.8675,221.7374 C112.3375,223.1824 113.0595,224.4594 113.5265,225.9214 C113.5605,226.0394 111.1895,225.1434 109.1635,225.3954 C108.2525,225.5084 104.5675,225.7774 104.5675,225.7774 C104.5675,225.7774 105.9135,221.6684 106.2325,220.5694 C106.7765,218.6864 107.1185,216.7994 107.1745,214.7174 C107.2965,210.2294 107.6525,206.4274 107.7205,201.9414 C107.7585,199.3254 107.9355,196.3084 107.9585,193.6934 C107.9805,191.2864 108.1085,188.7434 108.1085,188.7434 C108.1085,188.7434 109.2345,186.6824 110.1045,185.9434" id="Fill-22" fill="#B27B5F"></path>
            <path d="M99.5205,195.7725 C99.5205,195.7725 100.8725,197.9575 101.0015,198.1375 C101.5585,198.9165 102.1985,199.6385 102.6765,200.4725 C103.1095,201.2275 103.4165,202.0235 104.0445,202.6485 C105.3225,203.9165 106.2325,205.0185 107.1455,206.6255 C107.5745,207.3795 107.8335,208.3805 108.4705,208.9985 C108.9955,209.5055 110.1615,209.6025 110.0135,208.5385 C109.7815,206.8525 108.3585,205.4975 107.3405,204.1695 C106.1665,202.6375 104.6735,201.2745 103.6125,199.6665 C102.9105,198.6035 101.9985,197.7065 101.1135,196.8025 C100.9295,196.6135 99.5205,195.7725 99.5205,195.7725" id="Fill-24" fill="#B27B5F"></path>
            <path d="M116.7383,189.4629 C116.2493,190.5949 115.7543,191.7269 115.2313,192.8479 C114.4193,194.5909 112.8873,195.8959 112.1113,197.6349 C111.6503,198.6629 110.5353,201.4419 109.2823,201.7789 C108.4253,202.0109 107.9483,201.6649 108.1773,200.7769 C108.6033,199.1289 110.1243,197.7169 111.0293,196.2479 C111.9313,194.7839 113.2023,193.6389 114.1673,192.2489 C114.9823,191.0759 115.4333,190.2999 116.7383,189.4629" id="Fill-26" fill="#B27B5F"></path>
            <mask id="mask-4" fill="white">
                <use xlink:href="#path-3"></use>
            </mask>
            <g id="Clip-29"></g>
            <polygon id="Fill-28" fill="#F9F3D7" mask="url(#mask-4)" points="271.319 140.972 300.277 140.972 300.277 18.698 271.319 18.698"></polygon>
            <polygon id="Fill-30" fill="#DD7045" mask="url(#mask-4)" points="280.3594 5.7383 309.3164 5.7383 300.2774 18.5543 271.3194 18.5543"></polygon>
            <polygon id="Fill-31" fill="#F9EBB2" mask="url(#mask-4)" points="318.4434 18.6978 318.4434 140.9718 300.1904 140.9718 300.1904 18.5548 309.2304 5.7388"></polygon>
            <polygon id="Fill-32" fill="#2E91A0" mask="url(#mask-4)" points="275.664 38.311 282.328 38.311 282.328 25.354 275.664 25.354"></polygon>
            <polygon id="Fill-33" fill="#2E91A0" mask="url(#mask-4)" points="288.703 38.311 295.367 38.311 295.367 25.354 288.703 25.354"></polygon>
            <polygon id="Fill-34" fill="#2E91A0" mask="url(#mask-4)" points="275.664 61.04 282.328 61.04 282.328 48.083 275.664 48.083"></polygon>
            <polygon id="Fill-35" fill="#2E91A0" mask="url(#mask-4)" points="288.703 61.04 295.367 61.04 295.367 48.083 288.703 48.083"></polygon>
            <polygon id="Fill-36" fill="#2E91A0" mask="url(#mask-4)" points="275.664 82.96 282.328 82.96 282.328 70.003 275.664 70.003"></polygon>
            <polygon id="Fill-37" fill="#2E91A0" mask="url(#mask-4)" points="288.703 82.96 295.367 82.96 295.367 70.003 288.703 70.003"></polygon>
            <polygon id="Fill-38" fill="#2E91A0" mask="url(#mask-4)" points="275.664 106.297 282.328 106.297 282.328 93.34 275.664 93.34"></polygon>
            <polygon id="Fill-39" fill="#2E91A0" mask="url(#mask-4)" points="288.703 106.297 295.367 106.297 295.367 93.34 288.703 93.34"></polygon>
            <polygon id="Fill-40" fill="#2E91A0" mask="url(#mask-4)" points="275.664 128.548 282.328 128.548 282.328 115.591 275.664 115.591"></polygon>
            <polygon id="Fill-41" fill="#2E91A0" mask="url(#mask-4)" points="288.703 128.548 295.367 128.548 295.367 115.591 288.703 115.591"></polygon>
            <polygon id="Fill-42" fill="#B75735" mask="url(#mask-4)" points="300.1904 18.5547 318.4434 18.6977 309.2304 5.7387"></polygon>
            <polygon id="Fill-43" fill="#F5F5F5" mask="url(#mask-4)" points="376.4971 40.7856 376.9331 130.8276 376.9331 139.0116 376.9331 143.5696 450.9491 148.1786 450.9491 139.0116 450.9491 130.8276 450.9491 40.7856"></polygon>
            <polygon id="Fill-44" fill="#9FB4CE" mask="url(#mask-4)" points="459.4111 134.7412 450.9491 148.1792 450.9491 41.0202 458.8581 34.7792"></polygon>
            <polygon id="Fill-45" fill="#AFC6E8" mask="url(#mask-4)" points="450.9072 41.4971 376.4972 40.7861 383.5832 34.3791 458.7022 35.0911"></polygon>
            <polygon id="Fill-46" fill="#74CBCB" mask="url(#mask-4)" points="386.102 61.483 399.581 61.483 399.581 56.094 386.102 56.094"></polygon>
            <polygon id="Fill-47" fill="#74CBCB" mask="url(#mask-4)" points="406.706 61.483 420.185 61.483 420.185 56.094 406.706 56.094"></polygon>
            <polygon id="Fill-48" fill="#74CBCB" mask="url(#mask-4)" points="427.31 61.483 440.789 61.483 440.789 56.094 427.31 56.094"></polygon>
            <polygon id="Fill-49" fill="#74CBCB" mask="url(#mask-4)" points="386.102 74.363 399.581 74.363 399.581 68.973 386.102 68.973"></polygon>
            <polygon id="Fill-50" fill="#74CBCB" mask="url(#mask-4)" points="406.706 74.363 420.185 74.363 420.185 68.973 406.706 68.973"></polygon>
            <polygon id="Fill-51" fill="#74CBCB" mask="url(#mask-4)" points="427.31 74.363 440.789 74.363 440.789 68.973 427.31 68.973"></polygon>
            <polygon id="Fill-52" fill="#74CBCB" mask="url(#mask-4)" points="386.102 87.243 399.581 87.243 399.581 81.854 386.102 81.854"></polygon>
            <polygon id="Fill-53" fill="#74CBCB" mask="url(#mask-4)" points="406.706 87.243 420.185 87.243 420.185 81.854 406.706 81.854"></polygon>
            <polygon id="Fill-54" fill="#74CBCB" mask="url(#mask-4)" points="427.31 87.243 440.789 87.243 440.789 81.854 427.31 81.854"></polygon>
            <polygon id="Fill-55" fill="#74CBCB" mask="url(#mask-4)" points="386.102 100.122 399.581 100.122 399.581 94.733 386.102 94.733"></polygon>
            <polygon id="Fill-56" fill="#74CBCB" mask="url(#mask-4)" points="406.706 100.122 420.185 100.122 420.185 94.733 406.706 94.733"></polygon>
            <polygon id="Fill-57" fill="#74CBCB" mask="url(#mask-4)" points="427.31 100.122 440.789 100.122 440.789 94.733 427.31 94.733"></polygon>
            <polygon id="Fill-58" fill="#74CBCB" mask="url(#mask-4)" points="386.102 113.002 399.581 113.002 399.581 107.613 386.102 107.613"></polygon>
            <polygon id="Fill-59" fill="#74CBCB" mask="url(#mask-4)" points="406.706 113.002 420.185 113.002 420.185 107.613 406.706 107.613"></polygon>
            <polygon id="Fill-60" fill="#74CBCB" mask="url(#mask-4)" points="427.31 113.002 440.789 113.002 440.789 107.613 427.31 107.613"></polygon>
            <polygon id="Fill-61" fill="#74CBCB" mask="url(#mask-4)" points="386.102 125.882 399.581 125.882 399.581 120.492 386.102 120.492"></polygon>
            <polygon id="Fill-62" fill="#74CBCB" mask="url(#mask-4)" points="406.706 125.882 420.185 125.882 420.185 120.492 406.706 120.492"></polygon>
            <polygon id="Fill-63" fill="#74CBCB" mask="url(#mask-4)" points="427.31 125.882 440.789 125.882 440.789 120.492 427.31 120.492"></polygon>
            <polygon id="Fill-64" fill="#F9F3D7" mask="url(#mask-4)" points="318.092 142.396 347.049 142.396 347.049 20.122 318.092 20.122"></polygon>
            <polygon id="Fill-65" fill="#DD7045" mask="url(#mask-4)" points="327.1309 7.1616 356.0889 7.1616 347.0489 19.9776 318.0919 19.9776"></polygon>
            <polygon id="Fill-66" fill="#F9EBB2" mask="url(#mask-4)" points="365.2148 20.1216 365.2148 142.3956 346.9628 142.3956 346.9628 19.9776 356.0018 7.1616"></polygon>
            <polygon id="Fill-67" fill="#2E91A0" mask="url(#mask-4)" points="322.436 39.734 329.1 39.734 329.1 26.778 322.436 26.778"></polygon>
            <polygon id="Fill-68" fill="#2E91A0" mask="url(#mask-4)" points="335.476 39.734 342.14 39.734 342.14 26.778 335.476 26.778"></polygon>
            <polygon id="Fill-69" fill="#2E91A0" mask="url(#mask-4)" points="322.436 62.463 329.1 62.463 329.1 49.506 322.436 49.506"></polygon>
            <polygon id="Fill-70" fill="#2E91A0" mask="url(#mask-4)" points="335.476 62.463 342.14 62.463 342.14 49.506 335.476 49.506"></polygon>
            <polygon id="Fill-71" fill="#2E91A0" mask="url(#mask-4)" points="322.436 84.384 329.1 84.384 329.1 71.427 322.436 71.427"></polygon>
            <polygon id="Fill-72" fill="#2E91A0" mask="url(#mask-4)" points="335.476 84.384 342.14 84.384 342.14 71.427 335.476 71.427"></polygon>
            <polygon id="Fill-73" fill="#2E91A0" mask="url(#mask-4)" points="322.436 107.721 329.1 107.721 329.1 94.764 322.436 94.764"></polygon>
            <polygon id="Fill-74" fill="#2E91A0" mask="url(#mask-4)" points="335.476 107.721 342.14 107.721 342.14 94.764 335.476 94.764"></polygon>
            <polygon id="Fill-75" fill="#2E91A0" mask="url(#mask-4)" points="322.436 129.971 329.1 129.971 329.1 117.015 322.436 117.015"></polygon>
            <polygon id="Fill-76" fill="#2E91A0" mask="url(#mask-4)" points="335.476 129.971 342.14 129.971 342.14 117.015 335.476 117.015"></polygon>
            <polygon id="Fill-77" fill="#B75735" mask="url(#mask-4)" points="346.9629 19.978 365.2149 20.122 356.0019 7.162"></polygon>
            <path d="M511.5996,105.5908 C508.5466,101.4698 503.9906,96.6498 504.1906,91.2108 C504.3086,88.0678 505.3066,84.9108 505.2496,81.8178 C505.1886,78.6618 503.1486,75.7688 502.8716,72.5718 C502.5986,69.4058 503.2336,64.5188 504.8706,61.6278 C506.5106,58.7348 510.0376,57.3318 512.3136,54.9068 C516.8596,50.0648 519.1086,42.9158 524.3646,39.4418 C530.0626,35.6768 533.5186,32.6538 537.9666,38.7338 C541.8986,44.1028 547.5886,47.7928 552.2656,52.4528 C557.5906,57.7628 558.2846,61.2188 559.0286,68.1428 C560.2086,79.1968 566.0286,93.4688 555.0786,101.5748 C549.6096,105.6268 543.6506,109.2028 537.8576,112.7708 C535.5666,114.1798 534.2846,115.7698 531.6156,115.8208 C529.2156,115.8698 526.3636,114.8578 524.1166,114.0908 C519.3066,112.4448 514.6746,109.7428 511.5996,105.5908" id="Fill-78" fill="#B5D783" mask="url(#mask-4)"></path>
            <path d="M535.2197,89.7603 C535.1757,95.4843 535.2937,103.1783 535.3047,108.8543 C535.3157,114.2663 535.9067,119.9293 536.2517,125.2873 C536.4197,127.8653 536.8137,130.3983 536.9817,132.9703 C537.1227,135.1933 537.0107,137.4183 537.6667,139.4323 C538.3207,141.4373 539.3227,143.2103 539.9687,145.2383 C540.0177,145.4013 536.7267,144.1593 533.9137,144.5093 C532.6517,144.6663 527.5367,145.0393 527.5367,145.0393 C527.5367,145.0393 529.4047,139.3373 529.8467,137.8113 C530.6027,135.1993 531.0757,132.5813 531.1557,129.6913 C531.3247,123.4633 531.8187,118.1863 531.9117,111.9613 C531.9647,108.3313 532.2097,104.1433 532.2417,100.5143 C532.2737,97.1743 532.4497,93.6463 532.4497,93.6463 C532.4497,93.6463 534.0137,90.7853 535.2197,89.7603" id="Fill-79" fill="#B27B5F" mask="url(#mask-4)"></path>
            <path d="M520.5322,103.4004 C520.5322,103.4004 522.4092,106.4314 522.5892,106.6824 C523.3622,107.7624 524.2492,108.7644 524.9132,109.9214 C525.5132,110.9694 525.9402,112.0744 526.8122,112.9414 C528.5852,114.7014 529.8462,116.2304 531.1142,118.4614 C531.7092,119.5084 532.0692,120.8974 532.9532,121.7534 C533.6812,122.4584 535.2992,122.5914 535.0952,121.1154 C534.7712,118.7764 532.7972,116.8944 531.3862,115.0524 C529.7562,112.9264 527.6842,111.0364 526.2122,108.8034 C525.2372,107.3294 523.9712,106.0844 522.7432,104.8304 C522.4882,104.5664 520.5322,103.4004 520.5322,103.4004" id="Fill-80" fill="#B27B5F" mask="url(#mask-4)"></path>
            <path d="M544.4268,94.644 C543.7478,96.216 543.0608,97.785 542.3348,99.342 C541.2088,101.761 539.0838,103.57 538.0058,105.983 C537.3658,107.411 535.8188,111.267 534.0798,111.736 C532.8908,112.058 532.2288,111.578 532.5468,110.346 C533.1378,108.058 535.2478,106.099 536.5038,104.06 C537.7558,102.028 539.5198,100.439 540.8588,98.511 C541.9898,96.883 542.6158,95.806 544.4268,94.644" id="Fill-81" fill="#B27B5F" mask="url(#mask-4)"></path>
            <path d="M471.1367,119.5322 C469.3707,117.1482 466.7357,114.3612 466.8527,111.2162 C466.9197,109.3982 467.4967,107.5722 467.4647,105.7842 C467.4297,103.9592 466.2487,102.2862 466.0897,100.4372 C465.9317,98.6062 466.2987,95.7802 467.2457,94.1082 C468.1937,92.4352 470.2337,91.6232 471.5487,90.2212 C474.1787,87.4212 475.4797,83.2872 478.5187,81.2782 C481.8137,79.1002 483.8127,77.3522 486.3847,80.8682 C488.6577,83.9732 491.9487,86.1072 494.6537,88.8022 C497.7337,91.8732 498.1347,93.8712 498.5647,97.8752 C499.2477,104.2682 502.6137,112.5222 496.2807,117.2102 C493.1177,119.5532 489.6717,121.6212 486.3217,123.6842 C484.9967,124.4992 484.2547,125.4182 482.7117,125.4482 C481.3247,125.4762 479.6737,124.8902 478.3747,124.4472 C475.5937,123.4952 472.9147,121.9332 471.1367,119.5322" id="Fill-82" fill="#B5D783" mask="url(#mask-4)"></path>
            <path d="M484.7969,110.377 C484.7709,113.688 484.8389,118.137 484.8459,121.419 C484.8519,124.549 485.1929,127.824 485.3939,130.922 C485.4899,132.413 485.7179,133.878 485.8159,135.366 C485.8969,136.651 485.8319,137.938 486.2109,139.103 C486.5899,140.262 487.1689,141.287 487.5429,142.46 C487.5699,142.555 485.6669,141.836 484.0409,142.038 C483.3109,142.129 480.3539,142.345 480.3539,142.345 C480.3539,142.345 481.4339,139.047 481.6899,138.165 C482.1259,136.654 482.4009,135.141 482.4459,133.47 C482.5439,129.867 482.8289,126.816 482.8839,123.216 C482.9139,121.116 483.0559,118.695 483.0739,116.597 C483.0919,114.664 483.1939,112.624 483.1939,112.624 C483.1939,112.624 484.0989,110.97 484.7969,110.377" id="Fill-83" fill="#B27B5F" mask="url(#mask-4)"></path>
            <path d="M476.3027,118.2646 C476.3027,118.2646 477.3877,120.0176 477.4907,120.1626 C477.9387,120.7876 478.4517,121.3676 478.8357,122.0366 C479.1837,122.6426 479.4297,123.2816 479.9347,123.7836 C480.9587,124.8006 481.6897,125.6846 482.4217,126.9746 C482.7657,127.5806 482.9737,128.3836 483.4857,128.8786 C483.9067,129.2856 484.8417,129.3636 484.7237,128.5096 C484.5367,127.1576 483.3957,126.0696 482.5787,125.0036 C481.6367,123.7746 480.4387,122.6806 479.5867,121.3896 C479.0237,120.5366 478.2907,119.8176 477.5807,119.0916 C477.4337,118.9396 476.3027,118.2646 476.3027,118.2646" id="Fill-84" fill="#B27B5F" mask="url(#mask-4)"></path>
            <path d="M490.1201,113.2012 C489.7271,114.1102 489.3301,115.0182 488.9111,115.9182 C488.2601,117.3172 487.0301,118.3632 486.4071,119.7592 C486.0381,120.5852 485.1421,122.8142 484.1371,123.0862 C483.4491,123.2712 483.0661,122.9942 483.2501,122.2822 C483.5931,120.9582 484.8121,119.8252 485.5391,118.6462 C486.2631,117.4722 487.2831,116.5532 488.0571,115.4372 C488.7111,114.4962 489.0741,113.8732 490.1201,113.2012" id="Fill-85" fill="#B27B5F" mask="url(#mask-4)"></path>
            <path d="M144.1787,107.7168 C142.8847,108.2828 145.7397,108.8678 150.5197,109.0188 L234.0537,111.6298 C238.8347,111.7788 241.7187,111.3738 240.4647,110.7278 L229.1457,104.9028 C227.8917,104.2558 222.9507,103.6058 218.1707,103.4558 L166.8817,101.8528 C162.1017,101.7028 157.1297,102.0438 155.8367,102.6108 L144.1787,107.7168 Z" id="Fill-86" fill="#DD7045" mask="url(#mask-4)"></path>
            <path d="M131.2764,148.1992 L132.4394,110.6802 C132.5374,107.5362 135.8884,105.0652 139.8874,105.1902 L251.2174,108.6722 C255.2164,108.7972 258.4094,111.4712 258.3114,114.6172 L257.1484,152.1352 L131.2764,148.1992 Z" id="Fill-87" fill="#FFFFFF" mask="url(#mask-4)"></path>
            <polyline id="Fill-88" fill="#A25186" mask="url(#mask-4)" points="257.1484 152.1348 257.7544 132.5728 202.2944 131.7578 131.2774 148.1988"></polyline>
            <path d="M126.7451,146.3271 C126.7811,145.1571 128.0281,144.2371 129.5161,144.2841 L135.6031,144.4741 C137.0921,144.5201 138.2791,145.5161 138.2431,146.6861 L138.1361,150.1441 C138.0991,151.3131 136.8521,152.2331 135.3641,152.1871 L129.2771,151.9971 C127.7891,151.9501 126.6011,150.9541 126.6381,149.7841 L126.7451,146.3271 Z" id="Fill-89" fill="#A4A9AD" mask="url(#mask-4)"></path>
            <path d="M238.0703,149.2207 C237.8673,155.7637 232.0483,160.8907 225.0723,160.6727 C218.0953,160.4547 212.6053,154.9737 212.8083,148.4307 C213.0103,141.8877 218.8303,136.7607 225.8063,136.9797 C232.7823,137.1977 238.2723,142.6777 238.0703,149.2207" id="Fill-90" fill="#333E48" mask="url(#mask-4)"></path>
            <path d="M231.8408,149.0264 C231.7378,152.3424 228.7888,154.9414 225.2528,154.8304 C221.7168,154.7194 218.9348,151.9424 219.0368,148.6264 C219.1398,145.3094 222.0898,142.7114 225.6248,142.8214 C229.1608,142.9314 231.9438,145.7104 231.8408,149.0264" id="Fill-91" fill="#A4A9AD" mask="url(#mask-4)"></path>
            <path d="M175.7002,148.3184 C175.4982,154.8614 169.6782,159.9884 162.7022,159.7704 C155.7262,159.5514 150.2362,154.0714 150.4382,147.5284 C150.6412,140.9854 156.4612,135.8584 163.4362,136.0764 C170.4132,136.2954 175.9032,141.7754 175.7002,148.3184" id="Fill-92" fill="#333E48" mask="url(#mask-4)"></path>
            <path d="M169.4717,148.124 C169.3687,151.439 166.4187,154.038 162.8837,153.928 C159.3477,153.817 156.5647,151.039 156.6677,147.724 C156.7707,144.407 159.7197,141.809 163.2557,141.919 C166.7907,142.029 169.5747,144.808 169.4717,148.124" id="Fill-93" fill="#A4A9AD" mask="url(#mask-4)"></path>
            <path d="M229.4482,115.8545 L229.3752,118.2165 C229.4062,117.2105 230.4782,116.4195 231.7582,116.4595 L248.6902,116.9895 C249.9702,117.0295 250.9922,117.8855 250.9612,118.8925 L251.0342,116.5295 C251.0652,115.5235 250.0442,114.6675 248.7632,114.6265 L231.8312,114.0975 C230.5522,114.0575 229.4792,114.8485 229.4482,115.8545" id="Fill-94" fill="#000000" mask="url(#mask-4)"></path>
            <path d="M131.5576,139.1572 L137.7826,139.3522 C138.5816,139.3772 139.2206,139.9122 139.2016,140.5412 L139.1116,143.4392 C139.0916,144.0682 138.4216,144.5622 137.6216,144.5372 L131.3966,144.3432 L131.5576,139.1572 Z" id="Fill-95" fill="#FFB819" mask="url(#mask-4)"></path>
            <path d="M257.4287,143.0938 L251.2027,142.8988 C250.4037,142.8738 249.7337,143.3678 249.7137,143.9968 L249.6237,146.8958 C249.6047,147.5248 250.2427,148.0598 251.0427,148.0838 L257.2687,148.2788 L257.4287,143.0938 Z" id="Fill-96" fill="#FFB819" mask="url(#mask-4)"></path>
            <path d="M132.0068,110.4463 C132.1118,107.0553 135.4968,104.3843 139.5278,104.5103 L251.7728,108.0203 C255.8038,108.1463 259.0168,111.0233 258.9108,114.4143 L258.7398,119.4893" id="Fill-97" fill="#DD7045" mask="url(#mask-4)"></path>
            <path d="M247.6465,124.2842 C247.6775,123.2782 243.0375,122.3082 237.3335,122.1312 L161.8585,119.7702 C156.1535,119.5922 151.4615,120.2692 151.4305,121.2752 L151.1855,129.2052 C151.1545,130.2112 155.7945,131.1802 161.4995,131.3592 L236.9735,133.7192 C242.6775,133.8972 247.3695,133.2202 247.4005,132.2142 L247.6465,124.2842 Z" id="Fill-98" fill="#333E48" mask="url(#mask-4)"></path>
            <path d="M136.3184,118.4443 C136.3724,116.7123 136.1724,115.2863 135.8744,115.2763 L131.9254,115.1533 C131.6274,115.1433 131.3394,116.5543 131.2854,118.2873 L130.8624,131.9413 C130.8084,133.6743 131.0084,135.1003 131.3064,135.1093 L135.2554,135.2333 C135.5534,135.2423 135.8414,133.8323 135.8954,132.0993 L136.3184,118.4443 Z" id="Fill-99" fill="#333E48" mask="url(#mask-4)"></path>
            <path d="M523.8906,340.0186 L523.5166,339.9976 C521.8106,333.2956 511.9636,327.6606 499.1016,325.6356 L479.4736,308.4656 C479.1196,308.0686 477.7026,307.6626 477.3276,307.6416 L428.9676,304.9996 C428.2176,304.9586 424.1246,304.1686 423.7196,304.7136 L411.6306,323.1246 C411.2256,323.6686 411.1846,324.4216 411.5186,325.1966 L413.0426,328.2996 L412.8556,328.2896 C411.7306,328.2286 410.7426,329.1196 410.6816,330.2476 L409.6926,348.5106 C409.6316,349.6396 410.5176,350.6326 411.6426,350.6946 L504.0516,355.7416 L510.9876,356.1196 L522.9846,356.7746 C524.1086,356.8356 525.0966,355.9466 525.1586,354.8166 L525.8406,342.2026 C525.7146,341.0626 525.0156,340.0806 523.8906,340.0186" id="Fill-100" fill="#B5D783" mask="url(#mask-4)"></path>
            <path d="M410.1309,340.415 L409.7029,348.322 C409.6419,349.452 410.5279,350.444 411.6519,350.506 L504.0629,355.553 L510.9979,355.932 L522.9939,356.587 C524.1189,356.647 525.1079,355.758 525.1679,354.628 L525.5959,346.721 L410.1309,340.415 Z" id="Fill-101" fill="#B2B2B2" mask="url(#mask-4)"></path>
            <path d="M430.8516,339.6582 C436.1306,339.9462 440.1786,344.4792 439.8916,349.7822 C439.6046,355.0852 435.0916,359.1502 429.8126,358.8612 C424.5326,358.5732 420.4856,354.0412 420.7726,348.7382 C421.0596,343.4342 425.5726,339.3702 430.8516,339.6582" id="Fill-102" fill="#203547" mask="url(#mask-4)"></path>
            <path d="M430.6172,343.9883 C433.5152,344.1463 435.7382,346.6343 435.5802,349.5473 C435.4232,352.4583 432.9452,354.6893 430.0472,354.5313 C427.1472,354.3733 424.9262,351.8843 425.0832,348.9733 C425.2412,346.0613 427.7192,343.8303 430.6172,343.9883" id="Fill-103" fill="#CED8DD" mask="url(#mask-4)"></path>
            <path d="M430.4648,346.8125 C431.8108,346.8855 432.8418,348.0415 432.7688,349.3935 C432.6948,350.7455 431.5448,351.7815 430.1988,351.7075 C428.8538,351.6335 427.8218,350.4785 427.8958,349.1265 C427.9688,347.7755 429.1178,346.7395 430.4648,346.8125" id="Fill-104" fill="#E7EFF2" mask="url(#mask-4)"></path>
            <path d="M504.3291,343.6709 C509.6091,343.9589 513.6561,348.4919 513.3691,353.7949 C513.0821,359.0979 508.5691,363.1629 503.2901,362.8749 C498.0111,362.5859 493.9631,358.0539 494.2501,352.7509 C494.5371,347.4479 499.0501,343.3829 504.3291,343.6709" id="Fill-105" fill="#203547" mask="url(#mask-4)"></path>
            <path d="M504.0947,348.001 C506.9937,348.159 509.2157,350.648 509.0587,353.56 C508.9007,356.471 506.4227,358.703 503.5247,358.544 C500.6257,358.386 498.4037,355.897 498.5617,352.986 C498.7187,350.075 501.1967,347.843 504.0947,348.001" id="Fill-106" fill="#CED8DD" mask="url(#mask-4)"></path>
            <path d="M503.9424,350.8252 C505.2884,350.8982 506.3194,352.0542 506.2464,353.4062 C506.1734,354.7582 505.0234,355.7942 503.6774,355.7212 C502.3314,355.6462 501.2994,354.4912 501.3734,353.1392 C501.4464,351.7882 502.5964,350.7522 503.9424,350.8252" id="Fill-107" fill="#E7EFF2" mask="url(#mask-4)"></path>
            <path d="M411.3516,324.8086 C411.3416,324.9966 411.5186,325.1966 411.5186,325.1966 L411.1186,328.5446 L421.8636,328.5926 L417.7656,324.4046 L411.3926,324.0556 L411.3516,324.8086 Z" id="Fill-108" fill="#BC043D" mask="url(#mask-4)"></path>
            <path d="M470.2354,324.0596 L498.9144,325.6256 L482.2364,310.7426 L470.9904,310.1276 C469.8654,310.0666 468.8774,310.9556 468.8154,312.0856 L468.2754,322.0646 C468.4124,323.0156 469.2984,324.0086 470.2354,324.0596" id="Fill-109" fill="#C0E2ED" mask="url(#mask-4)"></path>
            <path d="M435.5586,322.166 L415.8766,321.091 L425.0666,307.619 L436.3126,308.233 C437.4376,308.295 438.3236,309.288 438.2626,310.417 L437.7226,320.395 C437.4846,321.327 436.6836,322.228 435.5586,322.166" id="Fill-110" fill="#C0E2ED" mask="url(#mask-4)"></path>
            <path d="M463.502,309.5303 L455.255,309.0793 L452.256,308.9163 L444.008,308.4653 C442.884,308.4043 441.896,309.2943 441.834,310.4243 L441.294,320.4023 C441.232,321.5313 442.129,322.3363 443.057,322.5753 L462.551,323.6393 C463.675,323.7013 464.476,322.8013 464.537,321.6713 L465.077,311.6933 C465.514,310.5843 464.627,309.5913 463.502,309.5303" id="Fill-111" fill="#C0E2ED" mask="url(#mask-4)"></path>
            <path d="M475.4883,327.7451 C475.4673,328.1221 475.0723,328.4771 474.6973,328.4571 L470.7603,328.2421 C470.3863,328.2221 470.0323,327.8251 470.0513,327.4481 C470.0723,327.0721 470.4673,326.7161 470.8423,326.7361 L474.7793,326.9511 C475.1543,326.9721 475.5183,327.1811 475.4883,327.7451" id="Fill-112" fill="#5C6862" mask="url(#mask-4)"></path>
            <path d="M447.1836,326.1992 C447.1636,326.5762 446.7686,326.9312 446.3936,326.9112 L442.4566,326.6962 C442.0816,326.6762 441.7276,326.2792 441.7476,325.9022 C441.7686,325.5262 442.1636,325.1702 442.5386,325.1902 L446.4746,325.4052 C446.8496,325.4262 447.2146,325.6352 447.1836,326.1992" id="Fill-113" fill="#5C6862" mask="url(#mask-4)"></path>
            <polygon id="Fill-114" fill="#E3F8FC" mask="url(#mask-4)" points="108.9209 339.9287 241.6119 358.4877 240.9039 464.4487 114.3009 465.3737"></polygon>
            <polygon id="Fill-115" fill="#C8E9F1" mask="url(#mask-4)" points="114.3008 465.374 84.0678 443.697 84.0678 325.623 112.7388 340.021"></polygon>
            <path d="M139.3203,372.6777 C137.0853,372.7197 135.2363,370.8317 135.1923,368.4617 L135.0443,360.4907 L143.1403,360.3387 L143.2893,368.3097 C143.3333,370.6797 141.5563,372.6357 139.3203,372.6777" id="Fill-116" fill="#AA482E" mask="url(#mask-4)"></path>
            <path d="M147.2412,372.5283 C145.0062,372.5703 143.1572,370.6833 143.1132,368.3133 L142.9652,360.3423 L151.0612,360.1903 L151.2102,368.1613 C151.2542,370.5313 149.4772,372.4863 147.2412,372.5283" id="Fill-117" fill="#AA482E" mask="url(#mask-4)"></path>
            <path d="M155.1631,372.3799 C152.9271,372.4219 151.0791,370.5339 151.0341,368.1639 L150.8861,360.1929 L158.9821,360.0409 L159.1311,368.0119 C159.1751,370.3819 157.3981,372.3379 155.1631,372.3799" id="Fill-118" fill="#AA482E" mask="url(#mask-4)"></path>
            <path d="M163.084,372.2305 C160.848,372.2725 159,370.3855 158.956,368.0155 L158.807,360.0445 L166.903,359.8925 L167.052,367.8635 C167.097,370.2335 165.319,372.1885 163.084,372.2305" id="Fill-119" fill="#AA482E" mask="url(#mask-4)"></path>
            <path d="M171.0049,372.082 C168.7699,372.124 166.9209,370.236 166.8769,367.866 L166.7289,359.895 L174.8249,359.743 L174.9739,367.714 C175.0179,370.084 173.2409,372.04 171.0049,372.082" id="Fill-120" fill="#AA482E" mask="url(#mask-4)"></path>
            <path d="M178.9258,371.9326 C176.6908,371.9746 174.8418,370.0876 174.7978,367.7176 L174.6498,359.7466 L182.7458,359.5946 L182.8948,367.5656 C182.9388,369.9356 181.1618,371.8906 178.9258,371.9326" id="Fill-121" fill="#AA482E" mask="url(#mask-4)"></path>
            <path d="M186.8477,371.7842 C184.6117,371.8262 182.7627,369.9382 182.7187,367.5682 L182.5707,359.5972 L190.6667,359.4452 L190.8157,367.4162 C190.8597,369.7862 189.0827,371.7422 186.8477,371.7842" id="Fill-122" fill="#AA482E" mask="url(#mask-4)"></path>
            <path d="M194.7686,371.6348 C192.5326,371.6768 190.6846,369.7898 190.6396,367.4198 L190.4916,359.4488 L198.5876,359.2968 L198.7366,367.2678 C198.7816,369.6378 197.0036,371.5928 194.7686,371.6348" id="Fill-123" fill="#AA482E" mask="url(#mask-4)"></path>
            <polygon id="Fill-124" fill="#C55735" mask="url(#mask-4)" points="246.1191 358.6016 135.0021 360.6906 80.0141 323.6456 187.2911 321.7126"></polygon>
            <path d="M202.6895,371.4863 C200.4545,371.5283 198.6055,369.6403 198.5615,367.2703 L198.4135,359.2993 L206.5095,359.1473 L206.6585,367.1183 C206.7025,369.4883 204.9255,371.4443 202.6895,371.4863" id="Fill-125" fill="#AA482E" mask="url(#mask-4)"></path>
            <path d="M210.6104,371.3369 C208.3754,371.3789 206.5264,369.4919 206.4824,367.1219 L206.3344,359.1509 L214.4304,358.9989 L214.5794,366.9699 C214.6234,369.3399 212.8464,371.2949 210.6104,371.3369" id="Fill-126" fill="#AA482E" mask="url(#mask-4)"></path>
            <path d="M218.5322,371.1885 C216.2962,371.2305 214.4472,369.3425 214.4032,366.9725 L214.2552,359.0015 L222.3512,358.8495 L222.5002,366.8205 C222.5442,369.1905 220.7672,371.1465 218.5322,371.1885" id="Fill-127" fill="#AA482E" mask="url(#mask-4)"></path>
            <path d="M226.4531,371.0391 C224.2171,371.0821 222.3691,369.1941 222.3241,366.8241 L222.1761,358.8531 L230.2721,358.7011 L230.4211,366.6721 C230.4661,369.0421 228.6881,370.9971 226.4531,371.0391" id="Fill-128" fill="#AA482E" mask="url(#mask-4)"></path>
            <path d="M234.374,370.8906 C232.139,370.9326 230.29,369.0446 230.246,366.6746 L230.098,358.7036 L238.193,358.5526 L238.343,366.5226 C238.387,368.8926 236.61,370.8486 234.374,370.8906" id="Fill-129" fill="#AA482E" mask="url(#mask-4)"></path>
            <path d="M242.2949,370.7412 C240.0599,370.7842 238.2109,368.8962 238.1669,366.5262 L238.0189,358.5552 L246.1149,358.4032 L246.2639,366.3742 C246.3079,368.7442 244.5309,370.6992 242.2949,370.7412" id="Fill-130" fill="#AA482E" mask="url(#mask-4)"></path>
            <path d="M256.4941,410.5713 C256.4941,412.0763 255.1011,415.4763 254.0531,415.4763 C253.0041,415.4763 252.1541,414.2563 252.1541,412.7513 C252.1541,411.2463 253.0041,410.0263 254.0531,410.0263 C255.1011,410.0263 256.4941,409.0663 256.4941,410.5713 Z" id="Stroke-131" stroke="#C1C8D2" stroke-width="0.816" mask="url(#mask-4)"></path>
            <polygon id="Fill-132" fill="#FFFFFF" mask="url(#mask-4)" points="253.9189 419.0137 246.0279 419.0137 245.1009 406.6727 254.8479 406.6727"></polygon>
            <path d="M253.9189,419.0137 C253.9189,419.5807 252.1529,419.8357 249.9739,419.8357 C247.7949,419.8357 246.0279,419.5807 246.0279,419.0137 C246.0279,418.4457 247.7949,417.7797 249.9739,417.7797 C252.1529,417.7797 253.9189,418.4457 253.9189,419.0137" id="Fill-133" fill="#FFFFFF" mask="url(#mask-4)"></path>
            <path d="M254.8477,406.8779 C254.6547,407.4199 252.6657,407.9059 249.9737,407.9059 C247.2827,407.9059 245.1007,407.2399 245.1007,406.6729 C245.1007,406.1049 247.2827,405.8669 249.9737,405.8499 C252.6947,405.8319 255.1067,406.1519 254.8477,406.8779" id="Fill-134" fill="#EFEFEF" mask="url(#mask-4)"></path>
            <polygon id="Fill-135" fill="#B57928" mask="url(#mask-4)" points="253.0586 418.2012 246.9096 418.2012 246.1856 410.0262 253.7816 410.0262"></polygon>
            <path d="M253.0586,418.2012 C253.0586,418.5772 251.6816,418.7462 249.9836,418.7462 C248.2856,418.7462 246.9096,418.5772 246.9096,418.2012 C246.9096,417.8252 248.2856,417.3842 249.9836,417.3842 C251.6816,417.3842 253.0586,417.8252 253.0586,418.2012" id="Fill-136" fill="#B57928" mask="url(#mask-4)"></path>
            <path d="M253.7812,410.0264 C253.7812,410.6294 252.0812,411.1164 249.9832,411.1164 C247.8852,411.1164 246.1852,410.6294 246.1852,410.0264 C246.1852,409.4244 247.8852,408.9364 249.9832,408.9364 C252.0812,408.9364 253.7812,409.4244 253.7812,410.0264" id="Fill-137" fill="#B57928" mask="url(#mask-4)"></path>
            <path d="M186.2812,423.3838 C186.2812,424.8888 187.6742,428.2878 188.7222,428.2878 C189.7712,428.2878 190.6222,427.0688 190.6222,425.5638 C190.6222,424.0588 189.7712,422.8388 188.7222,422.8388 C187.6742,422.8388 186.2812,421.8788 186.2812,423.3838 Z" id="Stroke-138" stroke="#C1C8D2" stroke-width="0.816" mask="url(#mask-4)"></path>
            <polygon id="Fill-139" fill="#FFFFFF" mask="url(#mask-4)" points="188.8564 431.8252 196.7474 431.8252 197.6744 419.4842 187.9274 419.4842"></polygon>
            <path d="M188.8564,431.8252 C188.8564,432.3932 190.6224,432.6482 192.8014,432.6482 C194.9804,432.6482 196.7474,432.3932 196.7474,431.8252 C196.7474,431.2582 194.9804,430.5922 192.8014,430.5922 C190.6224,430.5922 188.8564,431.2582 188.8564,431.8252" id="Fill-140" fill="#FFFFFF" mask="url(#mask-4)"></path>
            <path d="M187.9277,419.6904 C188.1207,420.2314 190.1097,420.7184 192.8017,420.7184 C195.4927,420.7184 197.6747,420.0524 197.6747,419.4844 C197.6747,418.9174 195.4927,418.6794 192.8017,418.6624 C190.0807,418.6444 187.6687,418.9644 187.9277,419.6904" id="Fill-141" fill="#EFEFEF" mask="url(#mask-4)"></path>
            <polygon id="Fill-142" fill="#B57928" mask="url(#mask-4)" points="189.7168 431.0137 195.8658 431.0137 196.5898 422.8387 188.9938 422.8387"></polygon>
            <path d="M189.7168,431.0137 C189.7168,431.3897 191.0938,431.5587 192.7918,431.5587 C194.4898,431.5587 195.8658,431.3897 195.8658,431.0137 C195.8658,430.6367 194.4898,430.1967 192.7918,430.1967 C191.0938,430.1967 189.7168,430.6367 189.7168,431.0137" id="Fill-143" fill="#B57928" mask="url(#mask-4)"></path>
            <path d="M188.9941,422.8389 C188.9941,423.4409 190.6941,423.9289 192.7921,423.9289 C194.8901,423.9289 196.5901,423.4409 196.5901,422.8389 C196.5901,422.2359 194.8901,421.7489 192.7921,421.7489 C190.6941,421.7489 188.9941,422.2359 188.9941,422.8389" id="Fill-144" fill="#B57928" mask="url(#mask-4)"></path>
            <polygon id="Fill-145" fill="#C55735" mask="url(#mask-4)" points="296.6611 458.75 296.5281 458.75 279.9371 458.75 272.8051 458.75 272.8051 465.692 272.8051 486.521 276.7021 486.521 279.1281 465.692 297.0991 465.692 298.8121 486.521 303.3231 486.521 303.3231 465.692 303.3231 461.064 303.3231 458.75 303.3231 421.722 298.8121 421.722"></polygon>
            <path d="M290.8193,421.9199 L288.6523,411.1969 C289.8603,409.6909 290.6783,407.8459 290.5423,405.7779 C290.1483,399.8189 282.3353,401.1299 280.8153,404.1379 C280.1203,405.5129 279.5503,408.0139 279.4123,410.0279 C279.8553,410.2459 280.7213,409.9509 280.7213,410.3759 C280.7213,410.8039 279.8603,411.2019 279.4123,411.4189 C279.5173,412.8969 279.9733,414.3439 280.7213,414.5489 C281.5053,414.7629 283.8923,414.9999 285.5903,413.9129 L284.5243,421.9199 L290.8193,421.9199 Z" id="Fill-146" fill="#E8C1A0" mask="url(#mask-4)"></path>
            <path d="M283.3018,400.8623 C284.1608,400.5843 285.4098,400.4893 285.9358,400.5523 C285.6368,399.7933 285.5178,398.9463 285.6148,398.1223 C285.7088,397.3213 286.0458,396.6383 286.3578,395.9243 C286.5008,395.5943 286.6638,395.2663 286.9068,395.0143 C287.1548,394.7583 287.4678,394.5893 287.7958,394.5083 C288.1318,394.4253 288.4838,394.4313 288.8208,394.5073 C288.9688,394.5403 289.1028,394.6123 289.2488,394.6533 C289.3988,394.6943 289.4708,394.5943 289.5788,394.4953 C289.8408,394.2543 290.2248,394.1353 290.5558,394.0923 C290.9268,394.0453 291.3118,394.1043 291.6658,394.2343 C292.0108,394.3603 292.3418,394.5653 292.5908,394.8633 C292.7018,394.9963 292.8028,395.1473 292.8678,395.3143 C292.8948,395.3833 292.8998,395.4243 292.9638,395.4493 C293.0238,395.4713 293.0928,395.4723 293.1548,395.4953 C293.7488,395.7083 294.2568,396.1963 294.5328,396.8223 C294.6948,397.1863 294.7718,397.8303 294.7498,398.5503 C294.7298,399.2703 294.1158,401.1513 293.5428,401.8373 C293.0308,402.4493 292.2798,402.8523 291.5538,403.0293 C292.0348,403.6143 292.3568,404.3443 292.5938,405.0883 C292.8508,405.8943 293.0108,406.7333 293.0698,407.5883 C293.1248,408.3993 293.1298,409.2583 292.9508,410.0523 C292.7828,410.7953 292.4248,411.4043 291.8258,411.7913 C291.5518,411.9683 291.2568,412.1013 290.9598,412.2223 C290.6678,412.3423 290.3738,412.4593 290.0688,412.5263 C289.4888,412.6543 288.8208,412.6323 288.3728,412.1423 C288.2128,411.9663 288.0348,411.7433 287.9178,411.5273 C287.8758,411.4503 287.8508,411.3993 287.9018,411.3233 C287.9628,411.2323 288.0628,411.1633 288.1418,411.0913 C288.5918,410.6863 288.8698,410.1463 288.9408,409.5033 C289.0118,408.8513 288.8468,408.0093 288.2498,407.7243 C287.5128,407.3733 286.6998,407.7763 286.0448,408.1523 C285.7668,407.1093 285.1948,406.1703 284.2978,405.6903 C283.3068,405.1613 282.1678,405.0993 281.1488,404.6443 C280.8828,404.5263 280.6128,404.3923 280.4168,404.1513 C280.3348,404.0503 280.2388,403.9193 280.2068,403.7863 C280.1638,403.6103 280.2708,403.4643 280.3528,403.3273 C280.7878,402.6033 282.4418,401.1403 283.3018,400.8623" id="Fill-147" fill="#E0E0E0" mask="url(#mask-4)"></path>
            <path d="M259.6396,450.0684 C257.7556,447.3574 253.0486,449.1524 253.0516,451.3964 C253.0596,457.2904 258.1246,485.2674 258.3896,487.0344 C258.6546,488.7994 261.4876,489.3784 261.6526,487.1714 C261.9146,483.6594 262.4026,471.4854 261.9146,465.8214 C261.7726,464.1674 261.6216,462.5684 261.4706,461.0704 C264.1326,466.1474 268.1816,473.3244 273.6166,482.6004 L276.6366,481.1354 C274.2646,472.8394 272.3196,466.9824 270.8016,463.5644 C268.2026,457.7134 265.7656,452.7014 264.7406,450.9364 C263.3846,448.6044 261.1876,448.9144 259.6396,450.0684" id="Fill-148" fill="#E8C1A0" mask="url(#mask-4)"></path>
            <path d="M276.4209,476.5283 L266.0539,450.4563 C263.5699,446.2153 256.6069,451.3193 257.4539,453.7793 C259.3759,459.3643 269.1549,477.4443 269.7289,479.1083 L276.4209,476.5283 Z" id="Fill-149" fill="#B6CBEF" mask="url(#mask-4)"></path>
            <path d="M252.79,453.4326 C252.79,460.8226 255.841,478.1936 255.843,479.8216 L263.234,479.5566 C261.942,464.4536 261.397,456.8506 261.6,456.7476 C262.055,456.5176 280.26,459.4226 285.72,459.6426 C293.593,459.9586 296.85,454.8306 297.113,445.0996 L281.863,445.0996 C268.822,446.7526 260.252,447.9026 256.15,448.5476 C253.518,448.9626 252.79,451.3966 252.79,453.4326" id="Fill-150" fill="#9EB3DC" mask="url(#mask-4)"></path>
            <path d="M277.0449,480.3184 C277.5199,481.0494 277.8039,481.6154 277.8979,482.0164 C278.0119,482.5044 278.1029,483.2344 278.1689,484.2104 C277.6369,484.3504 272.8529,485.6174 263.8159,488.0084 C263.1359,486.7984 263.1849,486.0354 263.9639,485.7174 C264.7429,485.4004 265.3889,485.1304 265.8999,484.9054 L271.8299,479.9814 C271.9439,479.8864 272.1079,479.9084 272.1979,480.0294 C272.1979,480.0294 272.2009,480.0334 272.2019,480.0364 L272.8909,481.0264 C273.7209,481.1984 274.3689,481.2224 274.8339,481.0994 C275.2119,480.9994 275.6949,480.6994 276.2849,480.1994 C276.5119,480.0064 276.8419,480.0464 277.0229,480.2864 C277.0299,480.2974 277.0379,480.3074 277.0449,480.3184" id="Fill-151" fill="#E4E4E4" mask="url(#mask-4)"></path>
            <path d="M262.3809,485.791 C262.6749,486.623 262.8209,487.245 262.8209,487.658 C262.8209,488.16 262.7419,488.893 262.5849,489.856 L247.7919,489.856 C247.4079,488.507 247.6299,487.778 248.4579,487.671 C249.2859,487.563 249.9749,487.466 250.5219,487.38 L257.3979,484.125 C257.5289,484.062 257.6849,484.126 257.7439,484.267 C257.7439,484.267 257.7459,484.271 257.7469,484.273 L258.1889,485.412 C258.9549,485.792 259.5779,485.981 260.0579,485.981 C260.4469,485.981 260.9849,485.814 261.6709,485.48 C261.9349,485.353 262.2459,485.475 262.3669,485.755 C262.3669,485.755 262.3769,485.779 262.3809,485.791" id="Fill-152" fill="#E4E4E4" mask="url(#mask-4)"></path>
            <path d="M271.3828,435.0537 L263.0168,441.5747 C260.7478,442.2257 258.8528,443.0337 257.3298,444.0017 C256.9698,444.3497 256.5348,445.0537 258.0278,444.9327 C259.5188,444.8107 261.0918,444.7537 261.2978,445.2937 C261.5038,445.8337 260.6018,446.4797 261.0178,447.2077 C261.2948,447.6947 262.6048,446.4757 264.9468,443.5537 L273.2328,439.9077 L271.3828,435.0537 Z M270.5048,416.4467 L260.5638,413.2787 C258.7088,411.7447 256.9598,410.6247 255.3158,409.9157 C254.8378,409.8217 254.0458,409.8757 255.0348,411.0677 C256.0248,412.2587 257.0148,413.5587 256.7318,414.0587 C256.4488,414.5577 255.3748,412.5037 255.0768,413.2947 C254.8788,413.8227 256.6288,415.8777 260.2368,416.1067 L267.9668,420.9357 L270.5048,416.4467 Z" id="Fill-153" fill="#E8C1A0" mask="url(#mask-4)"></path>
            <path d="M284.3779,417.4893 C279.8209,426.5083 273.2329,433.4213 263.6829,440.6073 L267.2989,444.9363 C277.9629,440.7293 283.5909,438.1903 286.3559,429.6703 C287.0489,427.5323 287.5329,420.7153 287.9489,417.1283 L284.3779,417.4893 Z" id="Fill-154" fill="#FFB53E" mask="url(#mask-4)"></path>
            <path d="M297.1133,447.5361 L276.9193,447.5361 C281.4933,432.7241 283.8303,422.5591 283.9283,417.0401 C283.9343,416.7581 284.4243,416.2631 284.6403,416.3271 C286.2243,416.8021 287.9193,416.6251 289.7243,415.7951 C294.5123,423.9691 296.1683,434.0331 297.1133,447.5361" id="Fill-155" fill="#F2F2F2" mask="url(#mask-4)"></path>
            <path d="M288.002,415.8076 C282.213,415.8586 272.821,416.9806 261.989,413.2886 L260.92,418.9606 C269.106,424.5506 277.396,428.8806 284.659,428.2656 C281.505,442.6286 281.65,454.3876 288.614,454.3876 L299.382,454.3876 C301.092,442.1856 296.598,425.2676 292.431,416.7346 C292.272,416.4096 291.933,415.7946 291.135,415.7946 L288.006,415.7946 C288.005,415.7986 288.003,415.8036 288.002,415.8076" id="Fill-156" fill="#FFB53E" mask="url(#mask-4)"></path>
            <path d="M281.6064,403.8193 C282.8344,402.6683 284.2064,401.7213 285.7204,400.9873 C286.0584,400.8243 285.7624,400.3213 285.4264,400.4843 C283.8674,401.2403 282.4574,402.2223 281.1944,403.4073 C280.9194,403.6643 281.3334,404.0763 281.6064,403.8193" id="Fill-157" fill="#9B9BA5" mask="url(#mask-4)"></path>
            <path d="M283.7227,404.0781 C284.6777,403.1691 285.8627,402.6741 287.1837,402.6751 C287.5597,402.6761 287.5597,402.0931 287.1837,402.0931 C285.7127,402.0911 284.3717,402.6551 283.3107,403.6661 C283.0377,403.9261 283.4507,404.3381 283.7227,404.0781" id="Fill-158" fill="#9B9BA5" mask="url(#mask-4)"></path>
            <path d="M287.1416,405.7813 C287.1956,404.3793 287.5076,403.0383 288.0956,401.7623 C288.2516,401.4243 287.7486,401.1283 287.5926,401.4693 C286.9606,402.8383 286.6176,404.2753 286.5596,405.7813 C286.5446,406.1563 287.1276,406.1563 287.1416,405.7813" id="Fill-159" fill="#9B9BA5" mask="url(#mask-4)"></path>
            <path d="M288.6641,401.9834 C288.5851,403.4844 288.7201,405.2354 287.8861,406.5524 C287.6851,406.8714 288.1881,407.1644 288.3891,406.8474 C289.2861,405.4294 289.1621,403.5944 289.2471,401.9834 C289.2671,401.6084 288.6841,401.6094 288.6641,401.9834" id="Fill-160" fill="#9B9BA5" mask="url(#mask-4)"></path>
            <path d="M290.2324,403.627 C290.6854,405.189 290.7244,406.752 290.3434,408.334 C290.2554,408.698 290.8174,408.854 290.9054,408.488 C291.3094,406.812 291.2754,405.13 290.7944,403.472 C290.6904,403.112 290.1284,403.266 290.2324,403.627" id="Fill-161" fill="#9B9BA5" mask="url(#mask-4)"></path>
            <path d="M291.2852,406.1455 C291.7752,407.7475 291.4842,409.4485 290.4042,410.7455 C290.1662,411.0325 290.5762,411.4465 290.8162,411.1575 C292.0262,409.7035 292.4002,407.7995 291.8472,405.9905 C291.7382,405.6325 291.1762,405.7855 291.2852,406.1455" id="Fill-162" fill="#9B9BA5" mask="url(#mask-4)"></path>
            <path d="M287.4443,400.6514 C287.2173,399.4824 287.2913,398.2774 287.7793,397.1804 C288.0293,396.6204 288.3623,396.0774 288.9863,395.9184 C289.8113,395.7084 290.4933,396.3384 291.0613,396.8664 C291.3363,397.1214 291.7493,396.7104 291.4733,396.4544 C290.3993,395.4564 288.9733,394.6534 287.8153,395.9984 C286.7153,397.2754 286.5753,399.2244 286.8823,400.8064 C286.9543,401.1734 287.5153,401.0184 287.4443,400.6514" id="Fill-163" fill="#9B9BA5" mask="url(#mask-4)"></path>
            <path d="M291.9482,397.1396 C292.9652,397.0806 293.5782,398.1306 293.4102,399.0506 C293.2762,399.7816 292.7892,400.3746 292.2002,400.8006 C291.8982,401.0176 292.1892,401.5236 292.4942,401.3036 C293.4142,400.6406 294.1622,399.5906 294.0012,398.4006 C293.8602,397.3726 293.0142,396.4946 291.9482,396.5566 C291.5752,396.5776 291.5722,397.1606 291.9482,397.1396" id="Fill-164" fill="#9B9BA5" mask="url(#mask-4)"></path>
            <path d="M288.8252,400.1182 C288.6922,399.5442 288.9322,398.8522 289.4192,398.5062 C289.8862,398.1722 290.4852,398.3102 290.7332,398.8352 C290.8932,399.1742 291.3962,398.8782 291.2362,398.5402 C290.8882,397.8032 289.9812,397.5322 289.2662,397.9112 C288.4502,398.3452 288.0612,399.4002 288.2632,400.2722 C288.3472,400.6382 288.9102,400.4832 288.8252,400.1182" id="Fill-165" fill="#9B9BA5" mask="url(#mask-4)"></path>
            <path d="M290.1455,400.6514 C290.2495,400.3084 290.4905,399.9304 290.9005,399.9644 C291.3475,400.0004 291.3975,400.4434 291.3965,400.8064 C291.3955,401.1814 291.9785,401.1824 291.9795,400.8064 C291.9815,400.1374 291.7335,399.4644 290.9785,399.3824 C290.2715,399.3064 289.7745,399.8734 289.5835,400.4964 C289.4735,400.8554 290.0365,401.0084 290.1455,400.6514" id="Fill-166" fill="#9B9BA5" mask="url(#mask-4)"></path>
            <path d="M262.4375,439.249 L184.3485,439.249 C182.3035,439.249 180.6455,437.592 180.6455,435.546 L180.6455,435.321 C180.6455,433.276 182.3035,431.619 184.3485,431.619 L262.4375,431.619 C264.4825,431.619 266.1405,433.276 266.1405,435.321 L266.1405,435.546 C266.1405,437.592 264.4825,439.249 262.4375,439.249" id="Fill-167" fill="#738290" mask="url(#mask-4)"></path>
            <path d="M157.2187,416.9824 L164.2677,416.9824 L163.0737,409.2304 C164.9757,410.2824 167.1827,410.1964 168.0827,410.1044 C171.4357,409.7624 170.1237,402.6764 168.4217,399.7644 C166.7197,396.8524 157.9697,395.5844 157.5297,401.3534 C157.3757,403.3554 158.2917,405.1424 159.6457,406.6004 L157.2187,416.9824 Z" id="Fill-168" fill="#EFC3A5" mask="url(#mask-4)"></path>
            <path d="M165.2734,399.8926 C168.4364,399.9386 168.8074,399.4156 168.8074,397.6556 C168.2954,397.3196 166.4934,396.7516 164.4744,396.5926 C163.4444,396.3216 162.2244,396.3716 161.0484,396.8256 C159.5984,397.2046 158.3704,398.0206 157.8274,399.5486 C155.8634,402.6696 157.3534,405.9176 159.3624,407.0286 C159.8964,406.4446 160.3634,405.8796 160.7794,405.3386 C160.4454,405.0376 160.2374,404.6176 160.2374,404.1536 C160.2374,403.2386 161.0434,402.4966 162.0364,402.4966 C162.1094,402.4966 162.1804,402.4996 162.2514,402.5076 C162.3584,405.7246 162.5964,407.8446 162.9634,408.8676 C163.5344,410.4526 166.8584,410.8416 168.0174,410.8416 C169.1644,410.8416 168.9544,409.6986 168.9544,409.0906 C168.9544,408.7226 167.7604,409.2026 167.7604,408.5816 C167.7604,407.9626 170.0314,407.5776 170.3414,407.1776 C170.7174,406.6936 170.8434,406.0386 170.2774,406.0386 C169.4994,406.0386 167.2344,407.0766 165.4614,407.0766 C164.2804,407.0766 163.5514,405.3096 163.2764,401.7756 C163.8984,400.9216 164.4964,400.2706 165.2734,399.8926" id="Fill-169" fill="#BEBEBF" mask="url(#mask-4)"></path>
            <path d="M183.1875,444.5498 C182.1765,446.2868 179.7775,451.2218 177.2185,456.9838 C175.7235,460.3488 173.8085,466.1148 171.4735,474.2838 L174.4475,475.7268 C179.7985,466.5938 183.7855,459.5278 186.4065,454.5278 C186.2565,456.0018 186.1095,457.5768 185.9685,459.2058 C185.4885,464.7818 185.9685,476.7698 186.2265,480.2278 C186.3895,482.4008 189.1795,481.8308 189.4395,480.0918 C189.7005,478.3528 194.6885,450.8058 194.6955,445.0028 C194.6985,442.7928 190.0635,441.0258 188.2085,443.6958 C186.6845,442.5588 184.5215,442.2538 183.1875,444.5498" id="Fill-170" fill="#B28B67" mask="url(#mask-4)"></path>
            <path d="M178.2754,472.2881 C178.8384,470.6491 188.4674,452.8481 190.3614,447.3491 C191.1954,444.9271 184.3384,439.9001 181.8934,444.0761 L171.6854,469.7481 L178.2754,472.2881 Z" id="Fill-171" fill="#6DC6AB" mask="url(#mask-4)"></path>
            <path d="M191.6445,442.1982 C187.6065,441.5612 179.1665,440.4292 166.3275,438.8022 L151.3105,438.8022 C151.5715,448.3842 154.7785,453.4322 162.5305,453.1212 C167.9065,452.9052 185.8315,450.0452 186.2795,450.2712 C186.4785,450.3722 185.9415,457.8582 184.6685,472.7292 L191.9475,472.9902 C191.9495,471.3872 194.9535,454.2832 194.9535,447.0072 C194.9535,445.0032 194.2375,442.6062 191.6445,442.1982" id="Fill-172" fill="#6DC6AB" mask="url(#mask-4)"></path>
            <path d="M181.0928,471.5068 C181.6468,471.6528 181.9838,472.2488 181.8458,472.8368 L180.9748,476.5438 C180.8368,477.1308 180.2768,477.4888 179.7228,477.3418 L175.7328,476.2858 C175.1788,476.1398 174.8418,475.5438 174.9798,474.9568 L175.8508,471.2498 C175.9888,470.6618 176.5488,470.3048 177.1028,470.4508 L181.0928,471.5068 Z M173.8208,471.5508 L173.3208,473.6788 C172.7688,476.0288 174.1158,478.4098 176.3298,478.9958 L177.9958,479.4378 C180.2108,480.0238 182.4528,478.5928 183.0048,476.2418 L183.5048,474.1138 C184.0568,471.7638 182.7098,469.3828 180.4948,468.7968 L178.8288,468.3558 C176.6138,467.7698 174.3718,469.1998 173.8208,471.5508 Z" id="Fill-173" fill="#C5CFD6" mask="url(#mask-4)"></path>
            <path d="M185.8457,476.0938 C185.9647,475.8188 186.2717,475.6978 186.5317,475.8228 C187.2067,476.1528 187.7367,476.3168 188.1197,476.3168 C188.5917,476.3168 189.2047,476.1298 189.9597,475.7558 L190.3957,474.6348 C190.3967,474.6328 190.3977,474.6298 190.3987,474.6278 C190.4557,474.4898 190.6087,474.4278 190.7397,474.4898 L197.5087,477.6938 C198.0477,477.7788 198.7257,477.8738 199.5407,477.9808 C200.3567,478.0858 200.5747,478.8028 200.1967,480.1318 L185.6317,480.1318 C185.4767,479.1838 185.3987,478.4618 185.3987,477.9678 C185.3987,477.5608 185.5427,476.9478 185.8317,476.1298 C185.8357,476.1168 185.8407,476.1058 185.8457,476.0938" id="Fill-174" fill="#E4E4E4" mask="url(#mask-4)"></path>
            <path d="M185.6572,481.0908 C185.6572,481.6208 186.0612,482.0508 186.5602,482.0508 L198.4392,482.0508 C198.9392,482.0508 199.3442,481.6208 199.3442,481.0908 C199.3442,480.5618 198.9392,480.1318 198.4392,480.1318 L186.5602,480.1318 C186.0612,480.1318 185.6572,480.5618 185.6572,481.0908" id="Fill-175" fill="#738290" mask="url(#mask-4)"></path>
            <path d="M147.9541,443.1201 L147.9541,455.4581 C147.9541,456.0631 148.4161,456.5541 148.9861,456.5541 L180.7501,456.5541 L180.7501,443.1201 C180.7501,441.6061 179.5941,440.3791 178.1681,440.3791 L150.5361,440.3791 C149.1091,440.3791 147.9541,441.6061 147.9541,443.1201" id="Fill-176" fill="#738290" mask="url(#mask-4)"></path>
            <path d="M184.1885,479.3096 L186.9485,479.3096 L181.2825,442.6766 C181.0785,441.3516 179.9995,440.3786 178.7345,440.3786 L178.1675,440.3786" id="Fill-177" fill="#738290" mask="url(#mask-4)"></path>
            <path d="M181.0088,479.8574 C181.0088,482.5834 183.0898,484.7924 185.6568,484.7924 C188.2238,484.7924 190.3058,482.5834 190.3058,479.8574 C190.3058,477.1314 188.2238,474.9224 185.6568,474.9224 C183.0898,474.9224 181.0088,477.1314 181.0088,479.8574" id="Fill-178" fill="#191847" mask="url(#mask-4)"></path>
            <path d="M135.2998,463.4082 C135.2998,454.0202 142.4678,446.4102 151.3108,446.4102 C160.1538,446.4102 167.3208,454.0202 167.3208,463.4082 C167.3208,472.7962 160.1538,480.4052 151.3108,480.4052 C142.4678,480.4052 135.2998,472.7962 135.2998,463.4082 M170.9378,463.4082 C170.9378,451.9002 162.1508,442.5722 151.3108,442.5722 C140.4718,442.5722 131.6848,451.9002 131.6848,463.4082 C131.6848,474.9152 140.4718,484.2442 151.3108,484.2442 C162.1508,484.2442 170.9378,474.9152 170.9378,463.4082" id="Fill-179" fill="#3B4247" mask="url(#mask-4)"></path>
            <polygon id="Fill-180" fill="#3B4247" mask="url(#mask-4)" points="150.277 481.502 152.343 481.502 152.343 445.314 150.277 445.314"></polygon>
            <path d="M162.2666,450.2256 L138.8936,475.0386 C138.6926,475.2536 138.6926,475.6006 138.8936,475.8156 L139.6236,476.5906 C139.8266,476.8046 140.1526,476.8046 140.3546,476.5906 L163.7276,451.7766 C163.9296,451.5626 163.9296,451.2146 163.7276,451.0006 L162.9966,450.2256 C162.7956,450.0116 162.4686,450.0116 162.2666,450.2256" id="Fill-181" fill="#3B4247" mask="url(#mask-4)"></path>
            <path d="M167.8379,462.3115 L134.7829,462.3115 C134.4979,462.3115 134.2669,462.5565 134.2669,462.8595 L134.2669,463.9565 C134.2669,464.2585 134.4979,464.5045 134.7829,464.5045 L167.8379,464.5045 C168.1229,464.5045 168.3549,464.2585 168.3549,463.9565 L168.3549,462.8595 C168.3549,462.5565 168.1229,462.3115 167.8379,462.3115" id="Fill-182" fill="#3B4247" mask="url(#mask-4)"></path>
            <path d="M163.7275,475.0391 L140.3545,450.2261 C140.1525,450.0121 139.8265,450.0121 139.6235,450.2261 L138.8935,451.0011 C138.6925,451.2151 138.6925,451.5621 138.8935,451.7761 L162.2665,476.5911 C162.4685,476.8051 162.7955,476.8051 162.9975,476.5911 L163.7275,475.8151 C163.9295,475.6011 163.9295,475.2541 163.7275,475.0391" id="Fill-183" fill="#3B4247" mask="url(#mask-4)"></path>
            <path d="M142.375,452.9648 C142.005,453.7618 139.267,456.1828 137.367,457.5658 C136.604,458.1208 136.92,458.8308 137.208,459.0208 C139.551,460.5548 141.094,458.7398 143.121,457.7378 C145.343,456.6408 145.155,459.7388 146.917,458.9028 C146.376,457.6158 145.111,455.2218 145.709,453.6498 C145.975,452.9508 147.773,446.8918 151.105,435.4718 L145.709,435.4488 C143.991,446.0398 142.88,451.8778 142.375,452.9648 Z M175.516,440.0068 L183.673,443.5978 C185.979,446.4748 187.27,447.6738 187.543,447.1958 C187.952,446.4788 187.064,445.8428 187.267,445.3108 C187.469,444.7788 189.019,444.8348 190.487,444.9548 C191.956,445.0748 191.528,444.3808 191.174,444.0378 C189.675,443.0858 187.809,442.2898 185.574,441.6498 L177.337,435.2278 L175.516,440.0068 Z" id="Fill-184" fill="#EFC3A5" mask="url(#mask-4)"></path>
            <path d="M182.6777,444.1484 L185.1217,440.9314 C174.9667,433.1984 171.5637,418.6014 163.2787,411.0024 L161.0447,411.4094 C160.6927,424.0274 165.0597,441.8324 182.6777,444.1484" id="Fill-185" fill="#DD7045" mask="url(#mask-4)"></path>
            <path d="M158.5859,409.9473 L164.2849,410.8963 C164.2849,422.3703 170.1649,431.0583 171.6719,439.1193 C171.8019,439.8173 171.9719,441.2013 171.0689,441.2013 L151.3109,441.2013 C152.2419,427.9063 153.8719,417.9963 158.5859,409.9473" id="Fill-186" fill="#FFFDF6" mask="url(#mask-4)"></path>
            <path d="M151.4697,417.8594 C144.9397,427.4074 141.8727,439.0264 142.2727,452.7154 L146.5097,452.7154 C147.3517,451.1594 148.2337,449.2394 149.1557,446.9594 L164.7057,446.9594 C167.0017,440.8004 165.5897,428.5114 160.4707,410.0944 L158.6867,409.9864 C158.5267,409.9614 158.3497,409.9474 158.1567,409.9474" id="Fill-187" fill="#DD7045" mask="url(#mask-4)"></path>
            <path d="M170.7812,474.5986 C170.4662,475.4206 170.3022,476.0376 170.2912,476.4516 C170.2772,476.9526 170.3372,477.6876 170.4682,478.6556 C171.0162,478.6716 175.9452,478.8226 185.2552,479.1056 C185.6762,477.7686 185.4732,477.0336 184.6482,476.9016 C183.8232,476.7686 183.1382,476.6506 182.5932,476.5466 L175.8082,473.0846 C175.6772,473.0186 175.5202,473.0766 175.4582,473.2146 C175.4582,473.2146 175.4562,473.2196 175.4552,473.2226 L174.9822,474.3466 C174.2062,474.7026 173.5782,474.8736 173.0982,474.8596 C172.7102,474.8476 172.1772,474.6636 171.5002,474.3096 C171.2402,474.1726 170.9252,474.2866 170.7972,474.5626 C170.7972,474.5626 170.7862,474.5856 170.7812,474.5986" id="Fill-188" fill="#E4E4E4" mask="url(#mask-4)"></path>
            <path d="M165.4297,403.3193 C165.4717,403.5373 165.5497,403.6753 165.7007,403.8353 C165.8667,404.0103 166.1077,403.8573 166.1327,403.6553 C166.1667,403.3813 166.0527,403.1663 165.8017,403.0493 C165.5077,402.9143 165.2497,403.3503 165.5457,403.4873 C165.5727,403.5433 165.5997,403.5993 165.6267,403.6553 C165.7707,403.5953 165.9147,403.5363 166.0587,403.4763 C166.0117,403.3803 165.9647,403.2823 165.9167,403.1853 C165.8547,402.8663 165.3667,403.0013 165.4297,403.3193" id="Fill-189" fill="#020202" mask="url(#mask-4)"></path>
            <path d="M167.9404,402.1553 C167.8784,402.4413 167.9294,402.6543 168.1334,402.8673 C168.2604,402.9993 168.5164,402.9423 168.5564,402.7563 C168.6264,402.4343 168.5294,402.1703 168.2464,401.9963 C167.9664,401.8263 167.7124,402.2633 167.9904,402.4333 L168.0694,402.6213 C168.2104,402.5843 168.3504,402.5473 168.4924,402.5093 C168.4704,402.4363 168.4504,402.3633 168.4284,402.2903 C168.4984,401.9713 168.0104,401.8363 167.9404,402.1553" id="Fill-190" fill="#020202" mask="url(#mask-4)"></path>
            <path d="M165.4687,403.3213 C165.5417,403.6223 165.7037,403.7913 165.9947,403.8863 C166.1987,403.9533 166.3297,403.7503 166.3057,403.5753 C166.2557,403.2073 166.0337,402.9623 165.6867,402.8463 C165.3767,402.7453 165.2427,403.2333 165.5517,403.3353 C165.7327,403.4143 165.8217,403.5393 165.8177,403.7103 L166.1287,403.3983 C166.0717,403.3283 166.0137,403.2573 165.9557,403.1863 C165.8787,402.8713 165.3907,403.0053 165.4687,403.3213" id="Fill-191" fill="#020202" mask="url(#mask-4)"></path>
            <path d="M168.4258,404.8428 C168.8728,404.9578 168.9858,405.4048 168.7628,405.7708 C168.5928,406.0498 169.0298,406.3048 169.1998,406.0268 C169.5978,405.3718 169.3208,404.5508 168.5608,404.3548 C168.2448,404.2738 168.1108,404.7608 168.4258,404.8428" id="Fill-192" fill="#020202" mask="url(#mask-4)"></path>
            <path d="M164.7852,402.8027 C164.9012,402.4767 165.1692,402.2887 165.5132,402.3027 C165.8382,402.3147 165.8382,401.8087 165.5132,401.7957 C164.9292,401.7747 164.4882,402.1307 164.2972,402.6677 C164.1872,402.9757 164.6772,403.1087 164.7852,402.8027" id="Fill-193" fill="#BEBEBF" mask="url(#mask-4)"></path>
            <path d="M166.9854,401.5225 C167.3054,401.1755 167.6704,400.9585 168.1304,400.8515 C168.4474,400.7785 168.3134,400.2905 167.9964,400.3635 C167.4564,400.4875 167.0034,400.7585 166.6274,401.1645 C166.4064,401.4035 166.7624,401.7615 166.9854,401.5225" id="Fill-194" fill="#BEBEBF" mask="url(#mask-4)"></path>
            <path d="M280.9844,407.0039 C280.9394,407.2749 280.9384,407.5189 280.9794,407.7909 C281.0124,408.0089 281.3464,408.0309 281.4424,407.8519 C281.6194,407.5189 281.6534,407.1859 281.5194,406.8319 C281.4304,406.5959 281.1184,406.5889 281.0314,406.8319 C280.9344,407.1059 280.9264,407.3349 280.9734,407.6189 C281.0174,407.8899 281.3844,407.8259 281.4624,407.6189 C281.5164,407.4709 281.5334,407.3459 281.5164,407.1879 C281.4844,406.8659 280.9774,406.8629 281.0104,407.1879 C281.0374,407.2899 281.0244,407.3889 280.9734,407.4839 L281.4624,407.4839 C281.4224,407.3019 281.4424,407.1289 281.5194,406.9669 L281.0314,406.9669 C281.1134,407.1849 281.1174,407.3859 281.0054,407.5959 C281.1594,407.6149 281.3134,407.6359 281.4674,407.6559 C281.4364,407.4829 281.4374,407.3109 281.4724,407.1389 C281.5254,406.8199 281.0374,406.6829 280.9844,407.0039" id="Fill-195" fill="#2B2520" mask="url(#mask-4)"></path>
            <path d="M281.0527,405.749 C281.7257,405.814 282.3077,406.163 282.7087,406.703 C282.9007,406.962 283.3407,406.71 283.1457,406.447 C282.6277,405.751 281.9197,405.327 281.0527,405.242 C280.7287,405.211 280.7317,405.718 281.0527,405.749" id="Fill-196" fill="#2B2520" mask="url(#mask-4)"></path>
            <polygon id="Fill-197" fill="#738290" mask="url(#mask-4)" points="219.376 487.977 227.41 487.977 227.41 437.359 219.376 437.359"></polygon>
            <path d="M63.4658,213.6826 C62.0448,211.7646 59.9238,209.5216 60.0178,206.9906 C60.0718,205.5286 60.5368,204.0586 60.5108,202.6196 C60.4828,201.1506 59.5328,199.8046 59.4038,198.3166 C59.2778,196.8426 59.5718,194.5686 60.3348,193.2226 C61.0978,191.8766 62.7388,191.2236 63.7978,190.0956 C65.9138,187.8416 66.9598,184.5156 69.4058,182.8986 C72.0578,181.1466 73.6658,179.7396 75.7368,182.5686 C77.5668,185.0676 80.2138,186.7846 82.3908,188.9536 C84.8688,191.4246 85.1918,193.0336 85.5378,196.2546 C86.0878,201.3996 88.7958,208.0406 83.6998,211.8136 C81.1538,213.6996 78.3818,215.3636 75.6858,217.0236 C74.6188,217.6796 74.0228,218.4186 72.7798,218.4436 C71.6638,218.4656 70.3358,217.9946 69.2908,217.6386 C67.0528,216.8716 64.8978,215.6156 63.4658,213.6826" id="Fill-198" fill="#B5D783" mask="url(#mask-4)"></path>
            <path d="M74.458,206.3154 C74.437,208.9794 74.492,212.5594 74.498,215.2014 C74.502,217.7194 74.777,220.3554 74.938,222.8484 C75.017,224.0484 75.199,225.2274 75.278,226.4244 C75.344,227.4594 75.292,228.4944 75.597,229.4314 C75.901,230.3644 76.367,231.1894 76.668,232.1334 C76.69,232.2094 75.159,231.6304 73.851,231.7944 C73.263,231.8674 70.883,232.0404 70.883,232.0404 C70.883,232.0404 71.752,229.3864 71.958,228.6764 C72.31,227.4614 72.53,226.2434 72.566,224.8984 C72.646,222.0004 72.875,219.5444 72.919,216.6464 C72.943,214.9584 73.058,213.0084 73.072,211.3204 C73.087,209.7654 73.169,208.1244 73.169,208.1244 C73.169,208.1244 73.896,206.7924 74.458,206.3154" id="Fill-199" fill="#B27B5F" mask="url(#mask-4)"></path>
            <path d="M67.623,212.6631 C67.623,212.6631 68.496,214.0731 68.58,214.1901 C68.939,214.6931 69.352,215.1591 69.661,215.6981 C69.941,216.1851 70.14,216.7001 70.545,217.1031 C71.37,217.9221 71.958,218.6341 72.547,219.6721 C72.824,220.1591 72.991,220.8061 73.403,221.2041 C73.742,221.5321 74.495,221.5951 74.399,220.9071 C74.25,219.8181 73.331,218.9431 72.674,218.0861 C71.915,217.0971 70.951,216.2171 70.266,215.1781 C69.812,214.4911 69.224,213.9121 68.651,213.3281 C68.533,213.2061 67.623,212.6631 67.623,212.6631" id="Fill-200" fill="#B27B5F" mask="url(#mask-4)"></path>
            <path d="M78.7422,208.5879 C78.4272,209.3189 78.1062,210.0499 77.7692,210.7749 C77.2452,211.9009 76.2562,212.7419 75.7542,213.8649 C75.4572,214.5289 74.7362,216.3239 73.9282,216.5419 C73.3742,216.6919 73.0652,216.4689 73.2142,215.8959 C73.4892,214.8299 74.4712,213.9189 75.0552,212.9699 C75.6382,212.0249 76.4592,211.2849 77.0822,210.3879 C77.6082,209.6299 77.9002,209.1289 78.7422,208.5879" id="Fill-201" fill="#B27B5F" mask="url(#mask-4)"></path>
            <path d="M628.6113,269.5586 C627.1903,267.6416 625.0703,265.3976 625.1643,262.8676 C625.2173,261.4046 625.6823,259.9346 625.6563,258.4956 C625.6283,257.0276 624.6783,255.6806 624.5493,254.1936 C624.4233,252.7196 624.7173,250.4456 625.4803,249.0996 C626.2433,247.7526 627.8843,247.1006 628.9433,245.9726 C631.0593,243.7186 632.1063,240.3916 634.5513,238.7746 C637.2043,237.0226 638.8123,235.6166 640.8823,238.4456 C642.7123,240.9446 645.3603,242.6616 647.5363,244.8296 C650.0143,247.3006 650.3373,248.9096 650.6833,252.1316 C651.2333,257.2766 653.9413,263.9176 648.8453,267.6906 C646.3003,269.5766 643.5273,271.2406 640.8313,272.9006 C639.7653,273.5556 639.1683,274.2956 637.9253,274.3206 C636.8093,274.3426 635.4823,273.8706 634.4363,273.5146 C632.1983,272.7476 630.0433,271.4916 628.6113,269.5586" id="Fill-202" fill="#B5D783" mask="url(#mask-4)"></path>
            <path d="M639.6035,262.1914 C639.5825,264.8554 639.6375,268.4364 639.6435,271.0784 C639.6485,273.5964 639.9235,276.2324 640.0835,278.7254 C640.1625,279.9244 640.3455,281.1034 640.4235,282.3004 C640.4895,283.3364 640.4375,284.3714 640.7425,285.3084 C641.0465,286.2414 641.5125,287.0664 641.8135,288.0094 C641.8355,288.0864 640.3045,287.5074 638.9965,287.6704 C638.4085,287.7434 636.0285,287.9174 636.0285,287.9174 C636.0285,287.9174 636.8975,285.2634 637.1035,284.5534 C637.4555,283.3374 637.6755,282.1194 637.7115,280.7744 C637.7915,277.8764 638.0205,275.4204 638.0645,272.5234 C638.0885,270.8344 638.2035,268.8854 638.2175,267.1964 C638.2325,265.6414 638.3155,264.0004 638.3155,264.0004 C638.3155,264.0004 639.0415,262.6694 639.6035,262.1914" id="Fill-203" fill="#B27B5F" mask="url(#mask-4)"></path>
            <path d="M632.7686,268.5391 C632.7686,268.5391 633.6416,269.9501 633.7256,270.0671 C634.0846,270.5701 634.4976,271.0361 634.8076,271.5751 C635.0866,272.0621 635.2856,272.5761 635.6916,272.9791 C636.5156,273.7991 637.1036,274.5111 637.6936,275.5491 C637.9696,276.0361 638.1376,276.6831 638.5486,277.0811 C638.8876,277.4081 639.6406,277.4711 639.5456,276.7841 C639.3956,275.6951 638.4766,274.8191 637.8196,273.9631 C637.0606,272.9731 636.0976,272.0931 635.4116,271.0541 C634.9576,270.3681 634.3696,269.7881 633.7976,269.2051 C633.6786,269.0821 632.7686,268.5391 632.7686,268.5391" id="Fill-204" fill="#B27B5F" mask="url(#mask-4)"></path>
            <path d="M643.8887,264.4648 C643.5727,265.1958 643.2527,265.9268 642.9147,266.6518 C642.3907,267.7768 641.4027,268.6188 640.9007,269.7418 C640.6027,270.4058 639.8827,272.1998 639.0737,272.4188 C638.5197,272.5688 638.2117,272.3458 638.3597,271.7718 C638.6347,270.7068 639.6177,269.7948 640.2007,268.8468 C640.7847,267.9018 641.6047,267.1618 642.2277,266.2638 C642.7537,265.5068 643.0457,265.0048 643.8887,264.4648" id="Fill-205" fill="#B27B5F" mask="url(#mask-4)"></path>
            <polygon id="Fill-206" fill="#999999" mask="url(#mask-4)" points="612.4766 80.4722 583.6296 88.4182 583.3686 83.9692 612.4766 76.0232"></polygon>
            <polygon id="Fill-207" fill="#B7B7B7" mask="url(#mask-4)" points="615.0986 79.8369 612.4766 80.4719 612.4766 76.0229"></polygon>
            <polygon id="Fill-208" fill="#FF931E" mask="url(#mask-4)" points="628.2109 215.6426 615.7139 224.7706 615.6439 79.2016 628.2109 88.8706"></polygon>
            <polygon id="Fill-209" fill="#FCECDE" mask="url(#mask-4)" points="615.7139 224.7705 577.5989 220.4775 577.7709 89.6765 615.6439 79.4695"></polygon>
            <polygon id="Fill-210" fill="#738290" mask="url(#mask-4)" points="594.8857 98.9072 581.3477 102.0862 581.3477 94.4572 594.8857 91.2792"></polygon>
            <polygon id="Fill-211" fill="#738290" mask="url(#mask-4)" points="611.9648 95.0933 598.4268 98.2713 598.4268 90.6433 611.9648 87.4653"></polygon>
            <polygon id="Fill-212" fill="#738290" mask="url(#mask-4)" points="594.8857 112.8916 581.3477 116.0706 581.3477 108.4426 594.8857 105.2636"></polygon>
            <polygon id="Fill-213" fill="#738290" mask="url(#mask-4)" points="611.9648 109.5771 598.4268 112.7561 598.4268 105.1281 611.9648 101.9491"></polygon>
            <polygon id="Fill-214" fill="#738290" mask="url(#mask-4)" points="594.6777 198.708 581.3477 198.708 581.3477 191.079 594.8857 190.443"></polygon>
            <polygon id="Fill-215" fill="#738290" mask="url(#mask-4)" points="611.7568 198.3896 598.4268 198.3896 598.4268 190.7616 611.9648 190.1256"></polygon>
            <polygon id="Fill-216" fill="#738290" mask="url(#mask-4)" points="594.6777 183.9277 581.3477 184.8817 581.3477 177.2537 594.8857 176.2997"></polygon>
            <polygon id="Fill-217" fill="#738290" mask="url(#mask-4)" points="611.7568 183.1113 598.4268 184.0643 598.4268 176.4363 611.9648 175.4823"></polygon>
            <polygon id="Fill-218" fill="#738290" mask="url(#mask-4)" points="594.6777 169.9434 581.3477 170.8964 581.3477 163.2684 594.8857 162.3154"></polygon>
            <polygon id="Fill-219" fill="#738290" mask="url(#mask-4)" points="611.7568 168.627 598.4268 169.58 598.4268 161.952 611.9648 160.999"></polygon>
            <polygon id="Fill-220" fill="#738290" mask="url(#mask-4)" points="594.6777 127.1943 581.1397 129.7373 581.1397 122.1093 594.6777 119.5663"></polygon>
            <polygon id="Fill-221" fill="#738290" mask="url(#mask-4)" points="611.9648 124.3789 598.4268 126.9219 598.4268 119.2939 611.9648 116.7509"></polygon>
            <polygon id="Fill-222" fill="#738290" mask="url(#mask-4)" points="594.8857 141.4971 581.3477 143.4041 581.3477 135.7761 594.8857 133.8691"></polygon>
            <polygon id="Fill-223" fill="#738290" mask="url(#mask-4)" points="611.9648 139.1816 598.4268 141.0886 598.4268 133.4596 611.9648 131.5536"></polygon>
            <polygon id="Fill-224" fill="#738290" mask="url(#mask-4)" points="594.8857 155.7998 581.3477 157.0708 581.3477 149.4438 594.8857 148.1718"></polygon>
            <polygon id="Fill-225" fill="#738290" mask="url(#mask-4)" points="611.9648 153.9834 598.4268 155.2544 598.4268 147.6274 611.9648 146.3554"></polygon>
            <polygon id="Fill-226" fill="#999999" mask="url(#mask-4)" points="696.4756 26.144 638.7586 37.619 638.2336 31.193 696.4756 19.719"></polygon>
            <polygon id="Fill-227" fill="#B7B7B7" mask="url(#mask-4)" points="701.7227 25.2266 696.4757 26.1436 696.4757 19.7196"></polygon>
            <polygon id="Fill-228" fill="#FF931E" mask="url(#mask-4)" points="727.957 221.333 702.953 234.513 702.812 24.309 727.957 38.271"></polygon>
            <polygon id="Fill-229" fill="#FCECDE" mask="url(#mask-4)" points="702.9531 234.5127 626.6901 228.3137 627.0351 39.4347 702.8121 24.6967"></polygon>
            <polygon id="Fill-230" fill="#738290" mask="url(#mask-4)" points="660.3437 57.1509 632.5677 61.7399 632.5677 50.7259 660.3437 46.1359"></polygon>
            <polygon id="Fill-231" fill="#738290" mask="url(#mask-4)" points="695.3857 51.6436 667.6087 56.2326 667.6087 45.2176 695.3857 40.6286"></polygon>
            <polygon id="Fill-232" fill="#738290" mask="url(#mask-4)" points="660.3437 77.3452 632.5677 81.9342 632.5677 70.9202 660.3437 66.3302"></polygon>
            <polygon id="Fill-233" fill="#738290" mask="url(#mask-4)" points="695.3857 72.5586 667.6087 77.1486 667.6087 66.1336 695.3857 61.5436"></polygon>
            <polygon id="Fill-234" fill="#738290" mask="url(#mask-4)" points="659.916 201.2646 632.567 201.2646 632.567 190.2496 660.344 189.3316"></polygon>
            <polygon id="Fill-235" fill="#738290" mask="url(#mask-4)" points="694.958 200.8057 667.608 200.8057 667.608 189.7907 695.386 188.8727"></polygon>
            <polygon id="Fill-236" fill="#738290" mask="url(#mask-4)" points="659.916 179.9229 632.567 181.2999 632.567 170.2849 660.344 168.9079"></polygon>
            <polygon id="Fill-237" fill="#738290" mask="url(#mask-4)" points="694.958 178.7432 667.608 180.1192 667.608 169.1042 695.386 167.7272"></polygon>
            <polygon id="Fill-238" fill="#738290" mask="url(#mask-4)" points="659.916 159.7285 632.567 161.1055 632.567 150.0905 660.344 148.7135"></polygon>
            <polygon id="Fill-239" fill="#738290" mask="url(#mask-4)" points="694.958 157.8271 667.608 159.2041 667.608 148.1891 695.386 146.8121"></polygon>
            <polygon id="Fill-240" fill="#738290" mask="url(#mask-4)" points="659.916 97.998 632.14 101.67 632.14 90.655 659.916 86.983"></polygon>
            <polygon id="Fill-241" fill="#738290" mask="url(#mask-4)" points="695.3857 93.9331 667.6087 97.6051 667.6087 86.5901 695.3857 82.9181"></polygon>
            <polygon id="Fill-242" fill="#738290" mask="url(#mask-4)" points="660.3437 118.6514 632.5677 121.4054 632.5677 110.3904 660.3437 107.6364"></polygon>
            <polygon id="Fill-243" fill="#738290" mask="url(#mask-4)" points="695.3857 115.3076 667.6087 118.0616 667.6087 107.0466 695.3857 104.2926"></polygon>
            <polygon id="Fill-244" fill="#738290" mask="url(#mask-4)" points="660.3437 139.3047 632.5677 141.1407 632.5677 130.1257 660.3437 128.2897"></polygon>
            <polygon id="Fill-245" fill="#738290" mask="url(#mask-4)" points="695.3857 136.6826 667.6087 138.5186 667.6087 127.5026 695.3857 125.6666"></polygon>
            <polygon id="Fill-246" fill="#FFF4E9" mask="url(#mask-4)" points="725.0234 60.9077 707.8244 51.7287 707.8244 43.9267 725.0234 53.1057"></polygon>
            <polygon id="Fill-247" fill="#999999" mask="url(#mask-4)" points="708.573 53.679 727.267 53.679 727.267 52.761 708.573 52.761"></polygon>
            <polygon id="Fill-248" fill="#999999" mask="url(#mask-4)" points="707.824 54.827 708.946 54.827 708.946 51.614 707.824 51.614"></polygon>
            <polygon id="Fill-249" fill="#999999" mask="url(#mask-4)" points="715.676 57.81 734.37 57.81 734.37 56.892 715.676 56.892"></polygon>
            <polygon id="Fill-250" fill="#999999" mask="url(#mask-4)" points="714.929 58.958 716.05 58.958 716.05 55.745 714.929 55.745"></polygon>
            <polygon id="Fill-251" fill="#999999" mask="url(#mask-4)" points="722.407 61.022 741.101 61.022 741.101 60.104 722.407 60.104"></polygon>
            <polygon id="Fill-252" fill="#999999" mask="url(#mask-4)" points="721.658 62.17 722.78 62.17 722.78 58.958 721.658 58.958"></polygon>
            <polygon id="Fill-253" fill="#FFF4E9" mask="url(#mask-4)" points="725.0234 82.0967 707.8244 72.9177 707.8244 65.1157 725.0234 74.2947"></polygon>
            <polygon id="Fill-254" fill="#999999" mask="url(#mask-4)" points="708.573 74.868 727.267 74.868 727.267 73.95 708.573 73.95"></polygon>
            <polygon id="Fill-255" fill="#999999" mask="url(#mask-4)" points="707.824 76.015 708.946 76.015 708.946 72.803 707.824 72.803"></polygon>
            <polygon id="Fill-256" fill="#999999" mask="url(#mask-4)" points="715.676 78.999 734.37 78.999 734.37 78.081 715.676 78.081"></polygon>
            <polygon id="Fill-257" fill="#999999" mask="url(#mask-4)" points="714.929 80.146 716.05 80.146 716.05 76.933 714.929 76.933"></polygon>
            <polygon id="Fill-258" fill="#999999" mask="url(#mask-4)" points="722.407 82.211 741.101 82.211 741.101 81.293 722.407 81.293"></polygon>
            <polygon id="Fill-259" fill="#999999" mask="url(#mask-4)" points="721.658 83.359 722.78 83.359 722.78 80.146 721.658 80.146"></polygon>
            <polygon id="Fill-260" fill="#FFF4E9" mask="url(#mask-4)" points="725.0234 103.2852 707.8244 94.1062 707.8244 86.3042 725.0234 95.4832"></polygon>
            <polygon id="Fill-261" fill="#999999" mask="url(#mask-4)" points="708.573 96.057 727.267 96.057 727.267 95.139 708.573 95.139"></polygon>
            <polygon id="Fill-262" fill="#999999" mask="url(#mask-4)" points="707.824 97.204 708.946 97.204 708.946 93.991 707.824 93.991"></polygon>
            <polygon id="Fill-263" fill="#999999" mask="url(#mask-4)" points="715.676 100.188 734.37 100.188 734.37 99.27 715.676 99.27"></polygon>
            <polygon id="Fill-264" fill="#999999" mask="url(#mask-4)" points="714.929 101.335 716.05 101.335 716.05 98.122 714.929 98.122"></polygon>
            <polygon id="Fill-265" fill="#999999" mask="url(#mask-4)" points="722.407 103.4 741.101 103.4 741.101 102.482 722.407 102.482"></polygon>
            <polygon id="Fill-266" fill="#999999" mask="url(#mask-4)" points="721.658 104.548 722.78 104.548 722.78 101.335 721.658 101.335"></polygon>
            <polygon id="Fill-267" fill="#FFF4E9" mask="url(#mask-4)" points="725.0234 124.4736 707.8244 115.2946 707.8244 107.4926 725.0234 116.6716"></polygon>
            <polygon id="Fill-268" fill="#999999" mask="url(#mask-4)" points="708.573 117.245 727.267 117.245 727.267 116.327 708.573 116.327"></polygon>
            <polygon id="Fill-269" fill="#999999" mask="url(#mask-4)" points="707.824 118.393 708.946 118.393 708.946 115.18 707.824 115.18"></polygon>
            <polygon id="Fill-270" fill="#999999" mask="url(#mask-4)" points="715.676 121.376 734.37 121.376 734.37 120.458 715.676 120.458"></polygon>
            <polygon id="Fill-271" fill="#999999" mask="url(#mask-4)" points="714.929 122.523 716.05 122.523 716.05 119.31 714.929 119.31"></polygon>
            <polygon id="Fill-272" fill="#999999" mask="url(#mask-4)" points="722.407 124.589 741.101 124.589 741.101 123.671 722.407 123.671"></polygon>
            <polygon id="Fill-273" fill="#999999" mask="url(#mask-4)" points="721.658 125.736 722.78 125.736 722.78 122.523 721.658 122.523"></polygon>
            <polygon id="Fill-274" fill="#FFF4E9" mask="url(#mask-4)" points="725.0234 145.6631 707.8244 136.4831 707.8244 128.6811 725.0234 137.8601"></polygon>
            <polygon id="Fill-275" fill="#999999" mask="url(#mask-4)" points="708.573 138.434 727.267 138.434 727.267 137.517 708.573 137.517"></polygon>
            <polygon id="Fill-276" fill="#999999" mask="url(#mask-4)" points="707.824 139.581 708.946 139.581 708.946 136.369 707.824 136.369"></polygon>
            <polygon id="Fill-277" fill="#999999" mask="url(#mask-4)" points="715.676 142.564 734.37 142.564 734.37 141.646 715.676 141.646"></polygon>
            <polygon id="Fill-278" fill="#999999" mask="url(#mask-4)" points="714.929 143.712 716.05 143.712 716.05 140.499 714.929 140.499"></polygon>
            <polygon id="Fill-279" fill="#999999" mask="url(#mask-4)" points="722.407 145.777 741.101 145.777 741.101 144.859 722.407 144.859"></polygon>
            <polygon id="Fill-280" fill="#999999" mask="url(#mask-4)" points="721.658 146.925 722.78 146.925 722.78 143.712 721.658 143.712"></polygon>
            <polygon id="Fill-281" fill="#FFF4E9" mask="url(#mask-4)" points="725.0234 166.8516 707.8244 157.6716 707.8244 149.8706 725.0234 159.0486"></polygon>
            <polygon id="Fill-282" fill="#999999" mask="url(#mask-4)" points="708.573 159.623 727.267 159.623 727.267 158.705 708.573 158.705"></polygon>
            <polygon id="Fill-283" fill="#999999" mask="url(#mask-4)" points="707.824 160.771 708.946 160.771 708.946 157.558 707.824 157.558"></polygon>
            <polygon id="Fill-284" fill="#999999" mask="url(#mask-4)" points="715.676 163.753 734.37 163.753 734.37 162.836 715.676 162.836"></polygon>
            <polygon id="Fill-285" fill="#999999" mask="url(#mask-4)" points="714.929 164.9 716.05 164.9 716.05 161.688 714.929 161.688"></polygon>
            <polygon id="Fill-286" fill="#999999" mask="url(#mask-4)" points="722.407 166.966 741.101 166.966 741.101 166.048 722.407 166.048"></polygon>
            <polygon id="Fill-287" fill="#999999" mask="url(#mask-4)" points="721.658 168.113 722.78 168.113 722.78 164.9 721.658 164.9"></polygon>
            <path d="M737.502,63.2192 L734.073,61.9482 L734.073,61.2822 C734.554,61.1412 734.858,60.6102 734.774,60.0602 C734.69,59.5102 734.245,59.1232 733.75,59.1712 C733.255,59.2192 732.875,59.6852 732.875,60.2442 C732.875,60.3922 732.982,60.5132 733.115,60.5132 C733.247,60.5132 733.355,60.3922 733.355,60.2442 C733.355,59.9472 733.569,59.7052 733.833,59.7052 C734.098,59.7052 734.313,59.9472 734.313,60.2442 C734.313,60.5412 734.098,60.7822 733.833,60.7822 C733.701,60.7822 733.594,60.9032 733.594,61.0522 L733.594,61.9482 L730.165,63.2192 C730.039,63.2662 729.972,63.4192 730.013,63.5602 C730.055,63.7012 730.19,63.7782 730.316,63.7302 L733.833,62.4122 L737.351,63.7302 C737.476,63.7772 737.612,63.7002 737.653,63.5592 C737.695,63.4182 737.628,63.2652 737.502,63.2182 L737.502,63.2192 Z" id="Fill-288" fill="#AC8168" mask="url(#mask-4)"></path>
            <path d="M740.3008,65.3594 L737.6658,63.2054 L735.2708,62.3984 C735.2708,63.2894 734.6268,64.2824 733.8328,64.2824 C733.0398,64.2824 732.3968,63.2894 732.3968,62.3984 L730.0008,63.2054 L727.3658,65.0894 L729.0428,68.0514 L730.0008,67.0724 L730.0008,75.0514 L737.6658,75.0514 L737.6658,67.1704 L738.6238,68.0514 L740.3008,65.3594 Z" id="Fill-289" fill="#7C7C7C" mask="url(#mask-4)"></path>
            <path d="M731.9941,102.5596 L728.5651,101.2886 L728.5651,100.6226 C729.0461,100.4816 729.3511,99.9506 729.2661,99.4006 C729.1821,98.8496 728.7371,98.4636 728.2421,98.5116 C727.7471,98.5596 727.3671,99.0256 727.3681,99.5836 C727.3681,99.7326 727.4751,99.8536 727.6071,99.8536 C727.7401,99.8536 727.8471,99.7326 727.8471,99.5836 C727.8471,99.2876 728.0611,99.0456 728.3261,99.0456 C728.5911,99.0456 728.8051,99.2876 728.8051,99.5836 C728.8051,99.8816 728.5911,100.1226 728.3261,100.1226 C728.1931,100.1226 728.0871,100.2436 728.0871,100.3916 L728.0871,101.2886 L724.6571,102.5596 C724.5321,102.6066 724.4641,102.7586 724.5061,102.9006 C724.5481,103.0406 724.6831,103.1186 724.8081,103.0706 L728.3261,101.7516 L731.8431,103.0706 C731.9691,103.1176 732.1041,103.0396 732.1461,102.8996 C732.1881,102.7576 732.1201,102.6056 731.9941,102.5586 L731.9941,102.5596 Z" id="Fill-290" fill="#AC8168" mask="url(#mask-4)"></path>
            <path d="M734.793,104.6992 L732.158,102.5462 L729.763,101.7382 C729.763,102.6302 729.12,103.6222 728.326,103.6222 C727.532,103.6222 726.889,102.6302 726.889,101.7382 L724.494,102.5462 L721.859,104.4292 L723.536,107.3912 L724.494,106.4122 L724.494,114.3912 L732.158,114.3912 L732.158,106.5112 L733.116,107.3912 L734.793,104.6992 Z" id="Fill-291" fill="#FACD43" mask="url(#mask-4)"></path>
            <path d="M732.4355,169.708 L729.0055,168.437 L729.0055,167.771 C729.4875,167.63 729.7915,167.099 729.7075,166.549 C729.6225,165.998 729.1775,165.612 728.6825,165.66 C728.1875,165.708 727.8075,166.174 727.8085,166.732 C727.8085,166.881 727.9155,167.002 728.0475,167.002 C728.1805,167.002 728.2885,166.881 728.2885,166.732 C728.2885,166.436 728.5015,166.194 728.7665,166.194 C729.0315,166.194 729.2465,166.436 729.2465,166.732 C729.2465,167.03 729.0315,167.271 728.7665,167.271 C728.6345,167.271 728.5275,167.392 728.5275,167.54 L728.5275,168.437 L725.0985,169.708 C724.9725,169.755 724.9045,169.907 724.9465,170.049 C724.9885,170.189 725.1235,170.267 725.2495,170.219 L728.7665,168.9 L732.2845,170.219 C732.4095,170.266 732.5445,170.188 732.5865,170.048 C732.6285,169.906 732.5605,169.754 732.4355,169.707 L732.4355,169.708 Z" id="Fill-292" fill="#AC8168" mask="url(#mask-4)"></path>
            <path d="M735.2334,171.8477 L732.5984,169.6947 L730.2044,168.8867 C730.2044,169.7787 729.5604,170.7707 728.7664,170.7707 C727.9724,170.7707 727.3304,169.7787 727.3304,168.8867 L724.9344,169.6947 L722.2994,171.5777 L723.9764,174.5397 L724.9344,173.5607 L724.9344,181.5397 L732.5984,181.5397 L732.5984,173.6597 L733.5564,174.5397 L735.2334,171.8477 Z" id="Fill-293" fill="#2E91A0" mask="url(#mask-4)"></path>
            <path d="M735.3135,148.8467 L723.6355,148.8467 L723.6355,148.2827 L729.4745,144.6597 L735.3135,148.2827 L735.3135,148.8467 Z M735.6235,147.9397 L729.6835,144.2547 L729.6835,143.1977 C730.2205,143.0747 730.5815,142.5027 730.5075,141.8917 C730.4345,141.2817 729.9525,140.8377 729.4055,140.8797 C728.8575,140.9207 728.4315,141.4317 728.4315,142.0487 C728.4315,142.1777 728.5255,142.2837 728.6405,142.2837 C728.7555,142.2837 728.8485,142.1777 728.8485,142.0487 C728.8485,141.6597 729.1285,141.3457 729.4745,141.3457 C729.8205,141.3457 730.1005,141.6597 730.1005,142.0487 C730.1005,142.4367 729.8205,142.7517 729.4745,142.7517 C729.3595,142.7517 729.2665,142.8567 729.2665,142.9867 L729.2665,144.2547 L723.3265,147.9397 C723.2595,147.9807 723.2185,148.0587 723.2185,148.1437 L723.2185,149.0807 C723.2185,149.2107 723.3115,149.3157 723.4265,149.3157 L735.5225,149.3157 C735.6375,149.3157 735.7315,149.2107 735.7315,149.0807 L735.7315,148.1437 C735.7305,148.0587 735.6895,147.9807 735.6235,147.9397 Z" id="Fill-294" fill="#AC8168" mask="url(#mask-4)"></path>
            <path d="M725.7207,148.1436 L733.2287,148.1436 L733.2287,154.2516 C733.2287,154.5106 733.0417,154.7206 732.8117,154.7206 L726.1377,154.7206 C725.9077,154.7206 725.7207,154.5106 725.7207,154.2516 L725.7207,148.1436 Z" id="Fill-295" fill="#FFB6CD" mask="url(#mask-4)"></path>
            <polygon id="Fill-296" fill="#6C81FF" mask="url(#mask-4)" points="725.562 152.753 733.388 152.753 733.388 152.314 725.562 152.314"></polygon>
            <path d="M577.5986,270.7539 C577.5986,283.9669 528.4166,294.6779 467.7486,294.6779 C407.0796,294.6779 357.8996,283.9669 357.8996,270.7539 C357.8996,257.5419 407.0796,246.8309 467.7486,246.8309 C528.4166,246.8309 577.5986,257.5419 577.5986,270.7539" id="Fill-552" fill="#EBFFF8" mask="url(#mask-4)"></path>
            <path d="M413.0684,262.4551 C413.0684,275.6671 363.8864,286.3781 303.2174,286.3781 C242.5494,286.3781 193.3684,275.6671 193.3684,262.4551 C193.3684,249.2421 242.5494,238.5321 303.2174,238.5321 C363.8864,238.5321 413.0684,249.2421 413.0684,262.4551" id="Fill-553" fill="#EBFFF8" mask="url(#mask-4)"></path>
        </g>
    </g>
</svg>